%TF.GenerationSoftware,KiCad,Pcbnew,9.0.4*%
%TF.CreationDate,2025-09-20T10:08:06-04:00*%
%TF.ProjectId,StepperControllerPCB,53746570-7065-4724-936f-6e74726f6c6c,rev?*%
%TF.SameCoordinates,Original*%
%TF.FileFunction,Legend,Bot*%
%TF.FilePolarity,Positive*%
%FSLAX46Y46*%
G04 Gerber Fmt 4.6, Leading zero omitted, Abs format (unit mm)*
G04 Created by KiCad (PCBNEW 9.0.4) date 2025-09-20 10:08:06*
%MOMM*%
%LPD*%
G01*
G04 APERTURE LIST*
%ADD10C,0.150000*%
%ADD11C,0.800000*%
%ADD12C,0.500000*%
%ADD13C,0.187500*%
%ADD14C,0.400000*%
%ADD15C,0.254000*%
%ADD16C,0.200000*%
%ADD17C,0.120000*%
%ADD18C,0.100000*%
%ADD19C,0.052000*%
G04 APERTURE END LIST*
D10*
X126340000Y-104430000D02*
X121340000Y-104430000D01*
X123840000Y-99430000D01*
X126340000Y-104430000D01*
G36*
X126340000Y-104430000D02*
G01*
X121340000Y-104430000D01*
X123840000Y-99430000D01*
X126340000Y-104430000D01*
G37*
D11*
X145500000Y-108000000D02*
X152500000Y-108000000D01*
D10*
X123550000Y-131560000D02*
X121050000Y-126560000D01*
X126050000Y-126560000D01*
X123550000Y-131560000D01*
G36*
X123550000Y-131560000D02*
G01*
X121050000Y-126560000D01*
X126050000Y-126560000D01*
X123550000Y-131560000D01*
G37*
X146500000Y-104000000D02*
X151500000Y-104000000D01*
X151500000Y-108000000D01*
X146500000Y-108000000D01*
X146500000Y-104000000D01*
G36*
X146500000Y-104000000D02*
G01*
X151500000Y-104000000D01*
X151500000Y-108000000D01*
X146500000Y-108000000D01*
X146500000Y-104000000D01*
G37*
D12*
X149000000Y-103000000D02*
X148000000Y-102000000D01*
X150000000Y-102000000D01*
X149000000Y-103000000D01*
G36*
X149000000Y-103000000D02*
G01*
X148000000Y-102000000D01*
X150000000Y-102000000D01*
X149000000Y-103000000D01*
G37*
D10*
X176000000Y-107000000D02*
G75*
G02*
X158000000Y-107000000I-9000000J0D01*
G01*
X158000000Y-107000000D02*
G75*
G02*
X176000000Y-107000000I9000000J0D01*
G01*
D12*
X149000000Y-99000000D02*
X149000000Y-103000000D01*
D13*
X133393321Y-142662359D02*
X133393321Y-141733787D01*
X133393321Y-141733787D02*
X132821892Y-142233787D01*
X132821892Y-142233787D02*
X132821892Y-142019502D01*
X132821892Y-142019502D02*
X132750464Y-141876645D01*
X132750464Y-141876645D02*
X132679035Y-141805216D01*
X132679035Y-141805216D02*
X132536178Y-141733787D01*
X132536178Y-141733787D02*
X132179035Y-141733787D01*
X132179035Y-141733787D02*
X132036178Y-141805216D01*
X132036178Y-141805216D02*
X131964750Y-141876645D01*
X131964750Y-141876645D02*
X131893321Y-142019502D01*
X131893321Y-142019502D02*
X131893321Y-142448073D01*
X131893321Y-142448073D02*
X131964750Y-142590930D01*
X131964750Y-142590930D02*
X132036178Y-142662359D01*
X132893321Y-141233788D02*
X131893321Y-140876645D01*
X131893321Y-140876645D02*
X132893321Y-140519502D01*
X133393321Y-140090931D02*
X133393321Y-139162359D01*
X133393321Y-139162359D02*
X132821892Y-139662359D01*
X132821892Y-139662359D02*
X132821892Y-139448074D01*
X132821892Y-139448074D02*
X132750464Y-139305217D01*
X132750464Y-139305217D02*
X132679035Y-139233788D01*
X132679035Y-139233788D02*
X132536178Y-139162359D01*
X132536178Y-139162359D02*
X132179035Y-139162359D01*
X132179035Y-139162359D02*
X132036178Y-139233788D01*
X132036178Y-139233788D02*
X131964750Y-139305217D01*
X131964750Y-139305217D02*
X131893321Y-139448074D01*
X131893321Y-139448074D02*
X131893321Y-139876645D01*
X131893321Y-139876645D02*
X131964750Y-140019502D01*
X131964750Y-140019502D02*
X132036178Y-140090931D01*
D14*
G36*
X137685890Y-32609438D02*
G01*
X136972025Y-32609438D01*
X136797211Y-32539512D01*
X136727910Y-32484071D01*
X136657319Y-32371125D01*
X136657319Y-32200130D01*
X136727910Y-32087185D01*
X136787543Y-32039478D01*
X137078765Y-31961819D01*
X137685890Y-31961819D01*
X137685890Y-32609438D01*
G37*
G36*
X137685890Y-31561819D02*
G01*
X137091074Y-31561819D01*
X136916258Y-31491892D01*
X136846957Y-31436451D01*
X136776367Y-31323506D01*
X136776367Y-31247749D01*
X136846957Y-31134804D01*
X136916259Y-31079363D01*
X137091072Y-31009438D01*
X137685890Y-31009438D01*
X137685890Y-31561819D01*
G37*
G36*
X142328747Y-32609438D02*
G01*
X141614882Y-32609438D01*
X141440068Y-32539512D01*
X141370767Y-32484071D01*
X141300176Y-32371125D01*
X141300176Y-32200130D01*
X141370767Y-32087185D01*
X141430400Y-32039478D01*
X141721622Y-31961819D01*
X142328747Y-31961819D01*
X142328747Y-32609438D01*
G37*
G36*
X142328747Y-31561819D02*
G01*
X141733931Y-31561819D01*
X141559115Y-31491892D01*
X141489814Y-31436451D01*
X141419224Y-31323506D01*
X141419224Y-31247749D01*
X141489814Y-31134804D01*
X141559116Y-31079363D01*
X141733929Y-31009438D01*
X142328747Y-31009438D01*
X142328747Y-31561819D01*
G37*
G36*
X139847795Y-32038009D02*
G01*
X139257319Y-32038009D01*
X139552557Y-31329438D01*
X139847795Y-32038009D01*
G37*
G36*
X144490652Y-32038009D02*
G01*
X143900176Y-32038009D01*
X144195414Y-31329438D01*
X144490652Y-32038009D01*
G37*
G36*
X145447207Y-33231660D02*
G01*
X136035097Y-33231660D01*
X136035097Y-32142771D01*
X136257319Y-32142771D01*
X136257319Y-32428485D01*
X136261162Y-32467503D01*
X136267544Y-32482912D01*
X136270299Y-32499361D01*
X136287720Y-32534485D01*
X136406768Y-32724961D01*
X136420902Y-32743296D01*
X136423360Y-32747758D01*
X136427321Y-32751622D01*
X136430706Y-32756012D01*
X136434858Y-32758973D01*
X136451427Y-32775134D01*
X136570474Y-32870373D01*
X136582809Y-32878394D01*
X136586336Y-32881836D01*
X136595080Y-32886373D01*
X136603342Y-32891746D01*
X136608076Y-32893118D01*
X136621136Y-32899895D01*
X136859231Y-32995133D01*
X136892610Y-33004815D01*
X136894491Y-33005595D01*
X136895709Y-33005715D01*
X136896885Y-33006056D01*
X136898919Y-33006031D01*
X136933509Y-33009438D01*
X137885890Y-33009438D01*
X137924908Y-33005595D01*
X137997004Y-32975732D01*
X138052184Y-32920552D01*
X138082047Y-32848456D01*
X138082087Y-32848046D01*
X138522986Y-32848046D01*
X138552698Y-32920204D01*
X138607762Y-32975499D01*
X138679796Y-33005513D01*
X138757832Y-33005676D01*
X138829990Y-32975964D01*
X138885285Y-32920900D01*
X138903839Y-32886361D01*
X139090652Y-32438009D01*
X140014462Y-32438009D01*
X140201275Y-32886361D01*
X140219829Y-32920900D01*
X140275124Y-32975964D01*
X140347283Y-33005677D01*
X140425319Y-33005513D01*
X140497352Y-32975500D01*
X140552416Y-32920204D01*
X140582128Y-32848046D01*
X140581965Y-32770010D01*
X140570506Y-32732515D01*
X140324779Y-32142771D01*
X140900176Y-32142771D01*
X140900176Y-32428485D01*
X140904019Y-32467503D01*
X140910401Y-32482912D01*
X140913156Y-32499361D01*
X140930577Y-32534485D01*
X141049625Y-32724961D01*
X141063759Y-32743296D01*
X141066217Y-32747758D01*
X141070178Y-32751622D01*
X141073563Y-32756012D01*
X141077715Y-32758973D01*
X141094284Y-32775134D01*
X141213331Y-32870373D01*
X141225666Y-32878394D01*
X141229193Y-32881836D01*
X141237937Y-32886373D01*
X141246199Y-32891746D01*
X141250933Y-32893118D01*
X141263993Y-32899895D01*
X141502088Y-32995133D01*
X141535467Y-33004815D01*
X141537348Y-33005595D01*
X141538566Y-33005715D01*
X141539742Y-33006056D01*
X141541776Y-33006031D01*
X141576366Y-33009438D01*
X142528747Y-33009438D01*
X142567765Y-33005595D01*
X142639861Y-32975732D01*
X142695041Y-32920552D01*
X142724904Y-32848456D01*
X142724944Y-32848046D01*
X143165843Y-32848046D01*
X143195555Y-32920204D01*
X143250619Y-32975499D01*
X143322653Y-33005513D01*
X143400689Y-33005676D01*
X143472847Y-32975964D01*
X143528142Y-32920900D01*
X143546696Y-32886361D01*
X143733509Y-32438009D01*
X144657319Y-32438009D01*
X144844132Y-32886361D01*
X144862686Y-32920900D01*
X144917981Y-32975964D01*
X144990140Y-33005677D01*
X145068176Y-33005513D01*
X145140209Y-32975500D01*
X145195273Y-32920204D01*
X145224985Y-32848046D01*
X145224822Y-32770010D01*
X145213363Y-32732515D01*
X144380029Y-30732515D01*
X144362239Y-30699398D01*
X144361940Y-30698672D01*
X144361742Y-30698473D01*
X144361475Y-30697976D01*
X144334178Y-30670793D01*
X144306876Y-30643376D01*
X144306480Y-30643211D01*
X144306180Y-30642912D01*
X144270618Y-30628269D01*
X144234843Y-30613363D01*
X144234415Y-30613362D01*
X144234022Y-30613200D01*
X144195535Y-30613280D01*
X144156807Y-30613199D01*
X144156410Y-30613362D01*
X144155986Y-30613363D01*
X144120412Y-30628185D01*
X144084648Y-30642912D01*
X144084345Y-30643212D01*
X144083952Y-30643377D01*
X144056709Y-30670733D01*
X144029353Y-30697976D01*
X144029085Y-30698473D01*
X144028888Y-30698672D01*
X144028588Y-30699398D01*
X144010799Y-30732515D01*
X143177466Y-32732515D01*
X143166006Y-32770010D01*
X143165843Y-32848046D01*
X142724944Y-32848046D01*
X142728747Y-32809438D01*
X142728747Y-30809438D01*
X142724904Y-30770420D01*
X142695041Y-30698324D01*
X142639861Y-30643144D01*
X142567765Y-30613281D01*
X142528747Y-30609438D01*
X141695414Y-30609438D01*
X141660824Y-30612844D01*
X141658790Y-30612820D01*
X141657614Y-30613160D01*
X141656396Y-30613281D01*
X141654515Y-30614060D01*
X141621136Y-30623743D01*
X141383041Y-30718981D01*
X141369987Y-30725755D01*
X141365249Y-30727128D01*
X141356982Y-30732503D01*
X141348241Y-30737040D01*
X141344714Y-30740481D01*
X141332381Y-30748502D01*
X141213332Y-30843740D01*
X141196758Y-30859904D01*
X141192609Y-30862864D01*
X141189227Y-30867249D01*
X141185265Y-30871115D01*
X141182807Y-30875578D01*
X141168671Y-30893915D01*
X141049624Y-31084391D01*
X141032204Y-31119515D01*
X141029450Y-31135961D01*
X141023067Y-31151372D01*
X141019224Y-31190390D01*
X141019224Y-31380866D01*
X141023067Y-31419884D01*
X141029450Y-31435294D01*
X141032204Y-31451741D01*
X141049624Y-31486865D01*
X141168671Y-31677341D01*
X141182807Y-31695677D01*
X141185265Y-31700141D01*
X141189227Y-31704006D01*
X141192609Y-31708392D01*
X141196758Y-31711351D01*
X141198330Y-31712884D01*
X141094285Y-31796121D01*
X141077713Y-31812284D01*
X141073563Y-31815244D01*
X141070181Y-31819630D01*
X141066217Y-31823497D01*
X141063758Y-31827962D01*
X141049625Y-31846295D01*
X140930577Y-32036771D01*
X140913156Y-32071895D01*
X140910401Y-32088343D01*
X140904019Y-32103753D01*
X140900176Y-32142771D01*
X140324779Y-32142771D01*
X139737172Y-30732515D01*
X139719382Y-30699398D01*
X139719083Y-30698672D01*
X139718885Y-30698473D01*
X139718618Y-30697976D01*
X139691321Y-30670793D01*
X139664019Y-30643376D01*
X139663623Y-30643211D01*
X139663323Y-30642912D01*
X139627761Y-30628269D01*
X139591986Y-30613363D01*
X139591558Y-30613362D01*
X139591165Y-30613200D01*
X139552678Y-30613280D01*
X139513950Y-30613199D01*
X139513553Y-30613362D01*
X139513129Y-30613363D01*
X139477555Y-30628185D01*
X139441791Y-30642912D01*
X139441488Y-30643212D01*
X139441095Y-30643377D01*
X139413852Y-30670733D01*
X139386496Y-30697976D01*
X139386228Y-30698473D01*
X139386031Y-30698672D01*
X139385731Y-30699398D01*
X139367942Y-30732515D01*
X138534609Y-32732515D01*
X138523149Y-32770010D01*
X138522986Y-32848046D01*
X138082087Y-32848046D01*
X138085890Y-32809438D01*
X138085890Y-30809438D01*
X138082047Y-30770420D01*
X138052184Y-30698324D01*
X137997004Y-30643144D01*
X137924908Y-30613281D01*
X137885890Y-30609438D01*
X137052557Y-30609438D01*
X137017967Y-30612844D01*
X137015933Y-30612820D01*
X137014757Y-30613160D01*
X137013539Y-30613281D01*
X137011658Y-30614060D01*
X136978279Y-30623743D01*
X136740184Y-30718981D01*
X136727130Y-30725755D01*
X136722392Y-30727128D01*
X136714125Y-30732503D01*
X136705384Y-30737040D01*
X136701857Y-30740481D01*
X136689524Y-30748502D01*
X136570475Y-30843740D01*
X136553901Y-30859904D01*
X136549752Y-30862864D01*
X136546370Y-30867249D01*
X136542408Y-30871115D01*
X136539950Y-30875578D01*
X136525814Y-30893915D01*
X136406767Y-31084391D01*
X136389347Y-31119515D01*
X136386593Y-31135961D01*
X136380210Y-31151372D01*
X136376367Y-31190390D01*
X136376367Y-31380866D01*
X136380210Y-31419884D01*
X136386593Y-31435294D01*
X136389347Y-31451741D01*
X136406767Y-31486865D01*
X136525814Y-31677341D01*
X136539950Y-31695677D01*
X136542408Y-31700141D01*
X136546370Y-31704006D01*
X136549752Y-31708392D01*
X136553901Y-31711351D01*
X136555473Y-31712884D01*
X136451428Y-31796121D01*
X136434856Y-31812284D01*
X136430706Y-31815244D01*
X136427324Y-31819630D01*
X136423360Y-31823497D01*
X136420901Y-31827962D01*
X136406768Y-31846295D01*
X136287720Y-32036771D01*
X136270299Y-32071895D01*
X136267544Y-32088343D01*
X136261162Y-32103753D01*
X136257319Y-32142771D01*
X136035097Y-32142771D01*
X136035097Y-30387216D01*
X145447207Y-30387216D01*
X145447207Y-33231660D01*
G37*
G36*
X150251129Y-34212057D02*
G01*
X149355485Y-34212057D01*
X149141029Y-34104829D01*
X149044070Y-34007869D01*
X148936843Y-33793415D01*
X148936843Y-33459270D01*
X149044071Y-33244812D01*
X149130593Y-33158291D01*
X149483585Y-33040628D01*
X150251129Y-33040628D01*
X150251129Y-34212057D01*
G37*
G36*
X150251129Y-32640628D02*
G01*
X149498342Y-32640628D01*
X149283887Y-32533400D01*
X149186926Y-32436440D01*
X149079700Y-32221987D01*
X149079700Y-32030698D01*
X149186926Y-31816244D01*
X149283887Y-31719284D01*
X149498342Y-31612057D01*
X150251129Y-31612057D01*
X150251129Y-32640628D01*
G37*
G36*
X155536843Y-34212057D02*
G01*
X154641199Y-34212057D01*
X154426743Y-34104829D01*
X154329784Y-34007869D01*
X154222557Y-33793415D01*
X154222557Y-33459270D01*
X154329785Y-33244812D01*
X154416307Y-33158291D01*
X154769299Y-33040628D01*
X155536843Y-33040628D01*
X155536843Y-34212057D01*
G37*
G36*
X155536843Y-32640628D02*
G01*
X154784056Y-32640628D01*
X154569601Y-32533400D01*
X154472640Y-32436440D01*
X154365414Y-32221987D01*
X154365414Y-32030698D01*
X154472640Y-31816244D01*
X154569601Y-31719284D01*
X154784056Y-31612057D01*
X155536843Y-31612057D01*
X155536843Y-32640628D01*
G37*
G36*
X165030785Y-33354914D02*
G01*
X164157185Y-33354914D01*
X164593984Y-32044513D01*
X165030785Y-33354914D01*
G37*
G36*
X169887928Y-33354914D02*
G01*
X169014328Y-33354914D01*
X169451127Y-32044513D01*
X169887928Y-33354914D01*
G37*
G36*
X170982891Y-34945390D02*
G01*
X148203510Y-34945390D01*
X148203510Y-33412057D01*
X148536843Y-33412057D01*
X148536843Y-33840628D01*
X148540686Y-33879646D01*
X148543435Y-33886283D01*
X148543945Y-33893453D01*
X148557958Y-33930071D01*
X148700815Y-34215785D01*
X148711386Y-34232578D01*
X148713406Y-34237455D01*
X148717912Y-34242946D01*
X148721701Y-34248965D01*
X148725692Y-34252426D01*
X148738278Y-34267763D01*
X148881135Y-34410621D01*
X148896473Y-34423208D01*
X148899934Y-34427199D01*
X148905950Y-34430986D01*
X148911442Y-34435493D01*
X148916319Y-34437513D01*
X148933115Y-34448086D01*
X149218830Y-34590943D01*
X149255447Y-34604955D01*
X149262616Y-34605464D01*
X149269254Y-34608214D01*
X149308272Y-34612057D01*
X150451129Y-34612057D01*
X150490147Y-34608214D01*
X150562243Y-34578351D01*
X150617423Y-34523171D01*
X150647286Y-34451075D01*
X150651129Y-34412057D01*
X150651129Y-33412057D01*
X153822557Y-33412057D01*
X153822557Y-33840628D01*
X153826400Y-33879646D01*
X153829149Y-33886283D01*
X153829659Y-33893453D01*
X153843672Y-33930071D01*
X153986529Y-34215785D01*
X153997100Y-34232578D01*
X153999120Y-34237455D01*
X154003626Y-34242946D01*
X154007415Y-34248965D01*
X154011406Y-34252426D01*
X154023992Y-34267763D01*
X154166849Y-34410621D01*
X154182187Y-34423208D01*
X154185648Y-34427199D01*
X154191664Y-34430986D01*
X154197156Y-34435493D01*
X154202033Y-34437513D01*
X154218829Y-34448086D01*
X154504544Y-34590943D01*
X154541161Y-34604955D01*
X154548330Y-34605464D01*
X154554968Y-34608214D01*
X154593986Y-34612057D01*
X155736843Y-34612057D01*
X155775861Y-34608214D01*
X155847957Y-34578351D01*
X155903137Y-34523171D01*
X155933000Y-34451075D01*
X155936843Y-34412057D01*
X155936843Y-34387042D01*
X163395556Y-34387042D01*
X163401087Y-34464882D01*
X163435986Y-34534680D01*
X163494939Y-34585809D01*
X163568970Y-34610486D01*
X163646810Y-34604955D01*
X163716608Y-34570056D01*
X163767737Y-34511103D01*
X163783722Y-34475303D01*
X164023852Y-33754914D01*
X165164118Y-33754914D01*
X165404248Y-34475303D01*
X165420233Y-34511103D01*
X165471362Y-34570056D01*
X165541160Y-34604955D01*
X165619000Y-34610487D01*
X165693031Y-34585810D01*
X165751984Y-34534680D01*
X165786883Y-34464883D01*
X165792415Y-34387043D01*
X165792415Y-34387042D01*
X168252699Y-34387042D01*
X168258230Y-34464882D01*
X168293129Y-34534680D01*
X168352082Y-34585809D01*
X168426113Y-34610486D01*
X168503953Y-34604955D01*
X168573751Y-34570056D01*
X168624880Y-34511103D01*
X168640865Y-34475303D01*
X168880995Y-33754914D01*
X170021261Y-33754914D01*
X170261391Y-34475303D01*
X170277376Y-34511103D01*
X170328505Y-34570056D01*
X170398303Y-34604955D01*
X170476143Y-34610487D01*
X170550174Y-34585810D01*
X170609127Y-34534680D01*
X170644026Y-34464883D01*
X170649558Y-34387043D01*
X170640865Y-34348812D01*
X169640865Y-31348811D01*
X169624880Y-31313011D01*
X169615518Y-31302217D01*
X169609127Y-31289434D01*
X169590180Y-31273001D01*
X169573751Y-31254058D01*
X169560970Y-31247667D01*
X169550174Y-31238304D01*
X169526381Y-31230373D01*
X169503953Y-31219159D01*
X169489700Y-31218146D01*
X169476143Y-31213627D01*
X169451123Y-31215405D01*
X169426113Y-31213628D01*
X169412559Y-31218145D01*
X169398303Y-31219159D01*
X169375869Y-31230376D01*
X169352082Y-31238305D01*
X169341287Y-31247666D01*
X169328505Y-31254058D01*
X169312074Y-31273003D01*
X169293129Y-31289434D01*
X169286737Y-31302216D01*
X169277376Y-31313011D01*
X169261391Y-31348811D01*
X168261391Y-34348811D01*
X168252699Y-34387042D01*
X165792415Y-34387042D01*
X165783722Y-34348812D01*
X164783722Y-31348811D01*
X164767737Y-31313011D01*
X164758375Y-31302217D01*
X164751984Y-31289434D01*
X164733037Y-31273001D01*
X164716608Y-31254058D01*
X164703827Y-31247667D01*
X164693031Y-31238304D01*
X164669238Y-31230373D01*
X164646810Y-31219159D01*
X164632557Y-31218146D01*
X164619000Y-31213627D01*
X164593980Y-31215405D01*
X164568970Y-31213628D01*
X164555416Y-31218145D01*
X164541160Y-31219159D01*
X164518726Y-31230376D01*
X164494939Y-31238305D01*
X164484144Y-31247666D01*
X164471362Y-31254058D01*
X164454931Y-31273003D01*
X164435986Y-31289434D01*
X164429594Y-31302216D01*
X164420233Y-31313011D01*
X164404248Y-31348811D01*
X163404248Y-34348811D01*
X163395556Y-34387042D01*
X155936843Y-34387042D01*
X155936843Y-31412057D01*
X155933000Y-31373039D01*
X155903137Y-31300943D01*
X155847957Y-31245763D01*
X155775861Y-31215900D01*
X155736843Y-31212057D01*
X154736843Y-31212057D01*
X154697825Y-31215900D01*
X154691187Y-31218649D01*
X154684018Y-31219159D01*
X154647400Y-31233172D01*
X154361686Y-31376029D01*
X154344892Y-31386600D01*
X154340016Y-31388620D01*
X154334524Y-31393126D01*
X154328506Y-31396915D01*
X154325044Y-31400906D01*
X154309708Y-31413492D01*
X154166850Y-31556349D01*
X154154262Y-31571687D01*
X154150272Y-31575148D01*
X154146484Y-31581164D01*
X154141978Y-31586656D01*
X154139957Y-31591534D01*
X154129386Y-31608328D01*
X153986529Y-31894042D01*
X153972516Y-31930660D01*
X153972006Y-31937829D01*
X153969257Y-31944467D01*
X153965414Y-31983485D01*
X153965414Y-32269200D01*
X153969257Y-32308218D01*
X153972006Y-32314855D01*
X153972516Y-32322025D01*
X153986529Y-32358643D01*
X154129386Y-32644357D01*
X154139957Y-32661150D01*
X154141978Y-32666029D01*
X154146484Y-32671520D01*
X154150272Y-32677537D01*
X154154262Y-32680997D01*
X154166850Y-32696336D01*
X154259453Y-32788938D01*
X154245026Y-32793748D01*
X154209225Y-32809733D01*
X154203796Y-32814440D01*
X154197157Y-32817191D01*
X154166849Y-32842064D01*
X154023993Y-32984921D01*
X154011406Y-33000257D01*
X154007415Y-33003719D01*
X154003627Y-33009735D01*
X153999120Y-33015228D01*
X153997098Y-33020107D01*
X153986529Y-33036899D01*
X153843671Y-33322615D01*
X153829659Y-33359232D01*
X153829149Y-33366401D01*
X153826400Y-33373039D01*
X153822557Y-33412057D01*
X150651129Y-33412057D01*
X150651129Y-31412057D01*
X150647286Y-31373039D01*
X150617423Y-31300943D01*
X150562243Y-31245763D01*
X150490147Y-31215900D01*
X150451129Y-31212057D01*
X149451129Y-31212057D01*
X149412111Y-31215900D01*
X149405473Y-31218649D01*
X149398304Y-31219159D01*
X149361686Y-31233172D01*
X149075972Y-31376029D01*
X149059178Y-31386600D01*
X149054302Y-31388620D01*
X149048810Y-31393126D01*
X149042792Y-31396915D01*
X149039330Y-31400906D01*
X149023994Y-31413492D01*
X148881136Y-31556349D01*
X148868548Y-31571687D01*
X148864558Y-31575148D01*
X148860770Y-31581164D01*
X148856264Y-31586656D01*
X148854243Y-31591534D01*
X148843672Y-31608328D01*
X148700815Y-31894042D01*
X148686802Y-31930660D01*
X148686292Y-31937829D01*
X148683543Y-31944467D01*
X148679700Y-31983485D01*
X148679700Y-32269200D01*
X148683543Y-32308218D01*
X148686292Y-32314855D01*
X148686802Y-32322025D01*
X148700815Y-32358643D01*
X148843672Y-32644357D01*
X148854243Y-32661150D01*
X148856264Y-32666029D01*
X148860770Y-32671520D01*
X148864558Y-32677537D01*
X148868548Y-32680997D01*
X148881136Y-32696336D01*
X148973739Y-32788938D01*
X148959312Y-32793748D01*
X148923511Y-32809733D01*
X148918082Y-32814440D01*
X148911443Y-32817191D01*
X148881135Y-32842064D01*
X148738279Y-32984921D01*
X148725692Y-33000257D01*
X148721701Y-33003719D01*
X148717913Y-33009735D01*
X148713406Y-33015228D01*
X148711384Y-33020107D01*
X148700815Y-33036899D01*
X148557957Y-33322615D01*
X148543945Y-33359232D01*
X148543435Y-33366401D01*
X148540686Y-33373039D01*
X148536843Y-33412057D01*
X148203510Y-33412057D01*
X148203510Y-30878724D01*
X170982891Y-30878724D01*
X170982891Y-34945390D01*
G37*
G36*
X123023133Y-114494047D02*
G01*
X123151486Y-114622401D01*
X123227318Y-114925727D01*
X123227318Y-115543148D01*
X123151486Y-115846473D01*
X123023131Y-115974829D01*
X122903915Y-116034438D01*
X122617388Y-116034438D01*
X122498170Y-115974829D01*
X122369815Y-115846472D01*
X122293985Y-115543148D01*
X122293985Y-114925726D01*
X122369815Y-114622401D01*
X122498171Y-114494046D01*
X122617388Y-114434438D01*
X122903915Y-114434438D01*
X123023133Y-114494047D01*
G37*
G36*
X121036842Y-115082057D02*
G01*
X120522150Y-115082057D01*
X120402932Y-115022448D01*
X120353594Y-114973108D01*
X120293985Y-114853890D01*
X120293985Y-114662603D01*
X120353594Y-114543384D01*
X120402932Y-114494047D01*
X120522150Y-114434438D01*
X121036842Y-114434438D01*
X121036842Y-115082057D01*
G37*
G36*
X127278112Y-116656660D02*
G01*
X119671763Y-116656660D01*
X119671763Y-114615390D01*
X119893985Y-114615390D01*
X119893985Y-114901104D01*
X119897828Y-114940122D01*
X119900577Y-114946759D01*
X119901087Y-114953929D01*
X119915100Y-114990547D01*
X120010338Y-115181023D01*
X120020909Y-115197816D01*
X120022929Y-115202693D01*
X120027435Y-115208184D01*
X120031224Y-115214203D01*
X120035215Y-115217664D01*
X120047801Y-115233001D01*
X120143039Y-115328240D01*
X120158378Y-115340829D01*
X120161838Y-115344818D01*
X120167849Y-115348602D01*
X120173346Y-115353113D01*
X120178228Y-115355135D01*
X120195018Y-115365704D01*
X120385495Y-115460943D01*
X120422112Y-115474955D01*
X120429281Y-115475464D01*
X120435919Y-115478214D01*
X120474937Y-115482057D01*
X121036842Y-115482057D01*
X121036842Y-116234438D01*
X121040685Y-116273456D01*
X121070548Y-116345552D01*
X121125728Y-116400732D01*
X121197824Y-116430595D01*
X121275860Y-116430595D01*
X121347956Y-116400732D01*
X121403136Y-116345552D01*
X121432999Y-116273456D01*
X121436842Y-116234438D01*
X121436842Y-114901104D01*
X121893985Y-114901104D01*
X121893985Y-115567771D01*
X121894655Y-115574579D01*
X121894222Y-115577493D01*
X121896380Y-115592094D01*
X121897828Y-115606789D01*
X121898955Y-115609511D01*
X121899956Y-115616278D01*
X121995194Y-115997230D01*
X122008386Y-116034151D01*
X122017238Y-116046098D01*
X122022929Y-116059837D01*
X122047801Y-116090144D01*
X122238277Y-116280621D01*
X122253615Y-116293208D01*
X122257076Y-116297199D01*
X122263092Y-116300986D01*
X122268584Y-116305493D01*
X122273462Y-116307513D01*
X122290256Y-116318085D01*
X122480733Y-116413324D01*
X122517350Y-116427336D01*
X122524519Y-116427845D01*
X122531157Y-116430595D01*
X122570175Y-116434438D01*
X122951128Y-116434438D01*
X122990146Y-116430595D01*
X122996783Y-116427845D01*
X123003953Y-116427336D01*
X123040571Y-116413323D01*
X123231047Y-116318085D01*
X123247838Y-116307515D01*
X123252718Y-116305494D01*
X123258211Y-116300985D01*
X123264227Y-116297199D01*
X123267687Y-116293208D01*
X123283026Y-116280621D01*
X123473501Y-116090144D01*
X123498374Y-116059837D01*
X123504064Y-116046098D01*
X123512917Y-116034151D01*
X123526109Y-115997230D01*
X123621346Y-115616278D01*
X123622346Y-115609514D01*
X123623475Y-115606789D01*
X123624923Y-115592086D01*
X123627081Y-115577493D01*
X123626647Y-115574579D01*
X123627318Y-115567771D01*
X123627318Y-114901104D01*
X123626647Y-114894295D01*
X123627081Y-114891382D01*
X123624923Y-114876788D01*
X123623475Y-114862086D01*
X123622346Y-114859360D01*
X123621346Y-114852597D01*
X123526109Y-114471645D01*
X123512917Y-114434724D01*
X123504064Y-114422776D01*
X123498374Y-114409038D01*
X123473502Y-114378731D01*
X123290190Y-114195420D01*
X123802590Y-114195420D01*
X123802590Y-114273456D01*
X123832453Y-114345552D01*
X123887633Y-114400732D01*
X123959729Y-114430595D01*
X123998747Y-114434438D01*
X124370176Y-114434438D01*
X124370176Y-116234438D01*
X124374019Y-116273456D01*
X124403882Y-116345552D01*
X124459062Y-116400732D01*
X124531158Y-116430595D01*
X124609194Y-116430595D01*
X124681290Y-116400732D01*
X124736470Y-116345552D01*
X124766333Y-116273456D01*
X124770176Y-116234438D01*
X124770176Y-115663009D01*
X125513033Y-115663009D01*
X125513033Y-115853485D01*
X125516876Y-115892503D01*
X125519625Y-115899140D01*
X125520135Y-115906310D01*
X125534148Y-115942928D01*
X125629386Y-116133404D01*
X125639957Y-116150197D01*
X125641977Y-116155074D01*
X125646483Y-116160565D01*
X125650272Y-116166584D01*
X125654263Y-116170045D01*
X125666849Y-116185382D01*
X125762087Y-116280621D01*
X125777426Y-116293210D01*
X125780886Y-116297199D01*
X125786897Y-116300983D01*
X125792394Y-116305494D01*
X125797276Y-116307516D01*
X125814066Y-116318085D01*
X126004543Y-116413324D01*
X126041160Y-116427336D01*
X126048329Y-116427845D01*
X126054967Y-116430595D01*
X126093985Y-116434438D01*
X126570176Y-116434438D01*
X126589925Y-116432492D01*
X126595191Y-116432867D01*
X126602119Y-116431291D01*
X126609194Y-116430595D01*
X126614072Y-116428574D01*
X126633422Y-116424175D01*
X126919136Y-116328937D01*
X126954936Y-116312952D01*
X127013889Y-116261823D01*
X127048788Y-116192025D01*
X127054319Y-116114185D01*
X127029642Y-116040154D01*
X126978513Y-115981201D01*
X126908715Y-115946302D01*
X126830875Y-115940771D01*
X126792644Y-115949463D01*
X126537719Y-116034438D01*
X126141198Y-116034438D01*
X126021980Y-115974829D01*
X125972642Y-115925489D01*
X125913033Y-115806271D01*
X125913033Y-115710222D01*
X125972642Y-115591003D01*
X126021980Y-115541666D01*
X126163787Y-115470762D01*
X126523445Y-115380848D01*
X126526327Y-115379818D01*
X126527764Y-115379716D01*
X126543978Y-115373511D01*
X126560366Y-115367656D01*
X126561526Y-115366796D01*
X126564381Y-115365704D01*
X126754857Y-115270465D01*
X126771646Y-115259896D01*
X126776528Y-115257874D01*
X126782025Y-115253362D01*
X126788037Y-115249578D01*
X126791496Y-115245589D01*
X126806835Y-115233001D01*
X126902073Y-115137763D01*
X126914659Y-115122426D01*
X126918651Y-115118965D01*
X126922438Y-115112948D01*
X126926946Y-115107456D01*
X126928967Y-115102576D01*
X126939537Y-115085785D01*
X127034776Y-114895308D01*
X127048788Y-114858691D01*
X127049297Y-114851521D01*
X127052047Y-114844884D01*
X127055890Y-114805866D01*
X127055890Y-114615390D01*
X127052047Y-114576372D01*
X127049297Y-114569734D01*
X127048788Y-114562565D01*
X127034776Y-114525948D01*
X126939537Y-114335471D01*
X126928967Y-114318679D01*
X126926946Y-114313800D01*
X126922438Y-114308307D01*
X126918651Y-114302291D01*
X126914659Y-114298829D01*
X126902073Y-114283493D01*
X126806835Y-114188255D01*
X126791499Y-114175668D01*
X126788037Y-114171677D01*
X126782020Y-114167889D01*
X126776528Y-114163382D01*
X126771648Y-114161360D01*
X126754857Y-114150791D01*
X126564381Y-114055553D01*
X126527763Y-114041540D01*
X126520593Y-114041030D01*
X126513956Y-114038281D01*
X126474938Y-114034438D01*
X125998747Y-114034438D01*
X125978997Y-114036383D01*
X125973732Y-114036009D01*
X125966803Y-114037584D01*
X125959729Y-114038281D01*
X125954850Y-114040301D01*
X125935501Y-114044701D01*
X125649787Y-114139939D01*
X125613987Y-114155924D01*
X125555034Y-114207053D01*
X125520135Y-114276851D01*
X125514604Y-114354691D01*
X125539281Y-114428722D01*
X125590410Y-114487675D01*
X125660208Y-114522574D01*
X125738048Y-114528105D01*
X125776279Y-114519413D01*
X126031204Y-114434438D01*
X126427725Y-114434438D01*
X126546943Y-114494047D01*
X126596281Y-114543385D01*
X126655890Y-114662603D01*
X126655890Y-114758653D01*
X126596281Y-114877871D01*
X126546943Y-114927208D01*
X126405130Y-114998116D01*
X126045478Y-115088028D01*
X126042598Y-115089056D01*
X126041160Y-115089159D01*
X126024920Y-115095373D01*
X126008557Y-115101220D01*
X126007398Y-115102078D01*
X126004543Y-115103171D01*
X125814066Y-115198410D01*
X125797274Y-115208979D01*
X125792395Y-115211001D01*
X125786902Y-115215508D01*
X125780886Y-115219296D01*
X125777424Y-115223287D01*
X125762088Y-115235874D01*
X125666850Y-115331112D01*
X125654263Y-115346447D01*
X125650272Y-115349910D01*
X125646484Y-115355926D01*
X125641977Y-115361419D01*
X125639955Y-115366298D01*
X125629386Y-115383090D01*
X125534148Y-115573566D01*
X125520135Y-115610184D01*
X125519625Y-115617353D01*
X125516876Y-115623991D01*
X125513033Y-115663009D01*
X124770176Y-115663009D01*
X124770176Y-114434438D01*
X125141604Y-114434438D01*
X125180622Y-114430595D01*
X125252718Y-114400732D01*
X125307898Y-114345552D01*
X125337761Y-114273456D01*
X125337761Y-114195420D01*
X125307898Y-114123324D01*
X125252718Y-114068144D01*
X125180622Y-114038281D01*
X125141604Y-114034438D01*
X123998747Y-114034438D01*
X123959729Y-114038281D01*
X123887633Y-114068144D01*
X123832453Y-114123324D01*
X123802590Y-114195420D01*
X123290190Y-114195420D01*
X123283025Y-114188255D01*
X123267689Y-114175668D01*
X123264227Y-114171677D01*
X123258210Y-114167889D01*
X123252718Y-114163382D01*
X123247838Y-114161360D01*
X123231047Y-114150791D01*
X123040571Y-114055553D01*
X123003953Y-114041540D01*
X122996783Y-114041030D01*
X122990146Y-114038281D01*
X122951128Y-114034438D01*
X122570175Y-114034438D01*
X122531157Y-114038281D01*
X122524519Y-114041030D01*
X122517350Y-114041540D01*
X122480733Y-114055552D01*
X122290256Y-114150791D01*
X122273464Y-114161360D01*
X122268585Y-114163382D01*
X122263091Y-114167890D01*
X122257076Y-114171677D01*
X122253615Y-114175666D01*
X122238278Y-114188254D01*
X122047802Y-114378731D01*
X122022929Y-114409038D01*
X122017238Y-114422776D01*
X122008386Y-114434724D01*
X121995194Y-114471645D01*
X121899956Y-114852597D01*
X121898955Y-114859363D01*
X121897828Y-114862086D01*
X121896380Y-114876780D01*
X121894222Y-114891382D01*
X121894655Y-114894295D01*
X121893985Y-114901104D01*
X121436842Y-114901104D01*
X121436842Y-114234438D01*
X121432999Y-114195420D01*
X121403136Y-114123324D01*
X121347956Y-114068144D01*
X121275860Y-114038281D01*
X121236842Y-114034438D01*
X120474937Y-114034438D01*
X120435919Y-114038281D01*
X120429281Y-114041030D01*
X120422112Y-114041540D01*
X120385495Y-114055552D01*
X120195018Y-114150791D01*
X120178226Y-114161360D01*
X120173347Y-114163382D01*
X120167854Y-114167889D01*
X120161838Y-114171677D01*
X120158376Y-114175668D01*
X120143040Y-114188255D01*
X120047802Y-114283493D01*
X120035215Y-114298828D01*
X120031224Y-114302291D01*
X120027436Y-114308307D01*
X120022929Y-114313800D01*
X120020907Y-114318679D01*
X120010338Y-114335471D01*
X119915100Y-114525947D01*
X119901087Y-114562565D01*
X119900577Y-114569734D01*
X119897828Y-114576372D01*
X119893985Y-114615390D01*
X119671763Y-114615390D01*
X119671763Y-113812216D01*
X127278112Y-113812216D01*
X127278112Y-116656660D01*
G37*
G36*
X137685890Y-42359438D02*
G01*
X136972025Y-42359438D01*
X136797211Y-42289512D01*
X136727910Y-42234071D01*
X136657319Y-42121125D01*
X136657319Y-41950130D01*
X136727910Y-41837185D01*
X136787543Y-41789478D01*
X137078765Y-41711819D01*
X137685890Y-41711819D01*
X137685890Y-42359438D01*
G37*
G36*
X137685890Y-41311819D02*
G01*
X137091074Y-41311819D01*
X136916258Y-41241892D01*
X136846957Y-41186451D01*
X136776367Y-41073506D01*
X136776367Y-40997749D01*
X136846957Y-40884804D01*
X136916259Y-40829363D01*
X137091072Y-40759438D01*
X137685890Y-40759438D01*
X137685890Y-41311819D01*
G37*
G36*
X140185890Y-42359438D02*
G01*
X139472025Y-42359438D01*
X139297211Y-42289512D01*
X139227910Y-42234071D01*
X139157319Y-42121125D01*
X139157319Y-41950130D01*
X139227910Y-41837185D01*
X139287543Y-41789478D01*
X139578765Y-41711819D01*
X140185890Y-41711819D01*
X140185890Y-42359438D01*
G37*
G36*
X140185890Y-41311819D02*
G01*
X139591074Y-41311819D01*
X139416258Y-41241892D01*
X139346957Y-41186451D01*
X139276367Y-41073506D01*
X139276367Y-40997749D01*
X139346957Y-40884804D01*
X139416259Y-40829363D01*
X139591072Y-40759438D01*
X140185890Y-40759438D01*
X140185890Y-41311819D01*
G37*
G36*
X142347795Y-41788009D02*
G01*
X141757319Y-41788009D01*
X142052557Y-41079438D01*
X142347795Y-41788009D01*
G37*
G36*
X144490652Y-41788009D02*
G01*
X143900176Y-41788009D01*
X144195414Y-41079438D01*
X144490652Y-41788009D01*
G37*
G36*
X145447207Y-42981660D02*
G01*
X136035097Y-42981660D01*
X136035097Y-41892771D01*
X136257319Y-41892771D01*
X136257319Y-42178485D01*
X136261162Y-42217503D01*
X136267544Y-42232912D01*
X136270299Y-42249361D01*
X136287720Y-42284485D01*
X136406768Y-42474961D01*
X136420902Y-42493296D01*
X136423360Y-42497758D01*
X136427321Y-42501622D01*
X136430706Y-42506012D01*
X136434858Y-42508973D01*
X136451427Y-42525134D01*
X136570474Y-42620373D01*
X136582809Y-42628394D01*
X136586336Y-42631836D01*
X136595080Y-42636373D01*
X136603342Y-42641746D01*
X136608076Y-42643118D01*
X136621136Y-42649895D01*
X136859231Y-42745133D01*
X136892610Y-42754815D01*
X136894491Y-42755595D01*
X136895709Y-42755715D01*
X136896885Y-42756056D01*
X136898919Y-42756031D01*
X136933509Y-42759438D01*
X137885890Y-42759438D01*
X137924908Y-42755595D01*
X137997004Y-42725732D01*
X138052184Y-42670552D01*
X138082047Y-42598456D01*
X138085890Y-42559438D01*
X138085890Y-41892771D01*
X138757319Y-41892771D01*
X138757319Y-42178485D01*
X138761162Y-42217503D01*
X138767544Y-42232912D01*
X138770299Y-42249361D01*
X138787720Y-42284485D01*
X138906768Y-42474961D01*
X138920902Y-42493296D01*
X138923360Y-42497758D01*
X138927321Y-42501622D01*
X138930706Y-42506012D01*
X138934858Y-42508973D01*
X138951427Y-42525134D01*
X139070474Y-42620373D01*
X139082809Y-42628394D01*
X139086336Y-42631836D01*
X139095080Y-42636373D01*
X139103342Y-42641746D01*
X139108076Y-42643118D01*
X139121136Y-42649895D01*
X139359231Y-42745133D01*
X139392610Y-42754815D01*
X139394491Y-42755595D01*
X139395709Y-42755715D01*
X139396885Y-42756056D01*
X139398919Y-42756031D01*
X139433509Y-42759438D01*
X140385890Y-42759438D01*
X140424908Y-42755595D01*
X140497004Y-42725732D01*
X140552184Y-42670552D01*
X140582047Y-42598456D01*
X140582087Y-42598046D01*
X141022986Y-42598046D01*
X141052698Y-42670204D01*
X141107762Y-42725499D01*
X141179796Y-42755513D01*
X141257832Y-42755676D01*
X141329990Y-42725964D01*
X141385285Y-42670900D01*
X141403839Y-42636361D01*
X141590652Y-42188009D01*
X142514462Y-42188009D01*
X142701275Y-42636361D01*
X142719829Y-42670900D01*
X142775124Y-42725964D01*
X142847283Y-42755677D01*
X142925319Y-42755513D01*
X142997352Y-42725500D01*
X143052416Y-42670204D01*
X143082128Y-42598046D01*
X143165843Y-42598046D01*
X143195555Y-42670204D01*
X143250619Y-42725499D01*
X143322653Y-42755513D01*
X143400689Y-42755676D01*
X143472847Y-42725964D01*
X143528142Y-42670900D01*
X143546696Y-42636361D01*
X143733509Y-42188009D01*
X144657319Y-42188009D01*
X144844132Y-42636361D01*
X144862686Y-42670900D01*
X144917981Y-42725964D01*
X144990140Y-42755677D01*
X145068176Y-42755513D01*
X145140209Y-42725500D01*
X145195273Y-42670204D01*
X145224985Y-42598046D01*
X145224822Y-42520010D01*
X145213363Y-42482515D01*
X144380029Y-40482515D01*
X144362239Y-40449398D01*
X144361940Y-40448672D01*
X144361742Y-40448473D01*
X144361475Y-40447976D01*
X144334178Y-40420793D01*
X144306876Y-40393376D01*
X144306480Y-40393211D01*
X144306180Y-40392912D01*
X144270618Y-40378269D01*
X144234843Y-40363363D01*
X144234415Y-40363362D01*
X144234022Y-40363200D01*
X144195535Y-40363280D01*
X144156807Y-40363199D01*
X144156410Y-40363362D01*
X144155986Y-40363363D01*
X144120412Y-40378185D01*
X144084648Y-40392912D01*
X144084345Y-40393212D01*
X144083952Y-40393377D01*
X144056709Y-40420733D01*
X144029353Y-40447976D01*
X144029085Y-40448473D01*
X144028888Y-40448672D01*
X144028588Y-40449398D01*
X144010799Y-40482515D01*
X143177466Y-42482515D01*
X143166006Y-42520010D01*
X143165843Y-42598046D01*
X143082128Y-42598046D01*
X143081965Y-42520010D01*
X143070506Y-42482515D01*
X142237172Y-40482515D01*
X142219382Y-40449398D01*
X142219083Y-40448672D01*
X142218885Y-40448473D01*
X142218618Y-40447976D01*
X142191321Y-40420793D01*
X142164019Y-40393376D01*
X142163623Y-40393211D01*
X142163323Y-40392912D01*
X142127761Y-40378269D01*
X142091986Y-40363363D01*
X142091558Y-40363362D01*
X142091165Y-40363200D01*
X142052678Y-40363280D01*
X142013950Y-40363199D01*
X142013553Y-40363362D01*
X142013129Y-40363363D01*
X141977555Y-40378185D01*
X141941791Y-40392912D01*
X141941488Y-40393212D01*
X141941095Y-40393377D01*
X141913852Y-40420733D01*
X141886496Y-40447976D01*
X141886228Y-40448473D01*
X141886031Y-40448672D01*
X141885731Y-40449398D01*
X141867942Y-40482515D01*
X141034609Y-42482515D01*
X141023149Y-42520010D01*
X141022986Y-42598046D01*
X140582087Y-42598046D01*
X140585890Y-42559438D01*
X140585890Y-40559438D01*
X140582047Y-40520420D01*
X140552184Y-40448324D01*
X140497004Y-40393144D01*
X140424908Y-40363281D01*
X140385890Y-40359438D01*
X139552557Y-40359438D01*
X139517967Y-40362844D01*
X139515933Y-40362820D01*
X139514757Y-40363160D01*
X139513539Y-40363281D01*
X139511658Y-40364060D01*
X139478279Y-40373743D01*
X139240184Y-40468981D01*
X139227130Y-40475755D01*
X139222392Y-40477128D01*
X139214125Y-40482503D01*
X139205384Y-40487040D01*
X139201857Y-40490481D01*
X139189524Y-40498502D01*
X139070475Y-40593740D01*
X139053901Y-40609904D01*
X139049752Y-40612864D01*
X139046370Y-40617249D01*
X139042408Y-40621115D01*
X139039950Y-40625578D01*
X139025814Y-40643915D01*
X138906767Y-40834391D01*
X138889347Y-40869515D01*
X138886593Y-40885961D01*
X138880210Y-40901372D01*
X138876367Y-40940390D01*
X138876367Y-41130866D01*
X138880210Y-41169884D01*
X138886593Y-41185294D01*
X138889347Y-41201741D01*
X138906767Y-41236865D01*
X139025814Y-41427341D01*
X139039950Y-41445677D01*
X139042408Y-41450141D01*
X139046370Y-41454006D01*
X139049752Y-41458392D01*
X139053901Y-41461351D01*
X139055473Y-41462884D01*
X138951428Y-41546121D01*
X138934856Y-41562284D01*
X138930706Y-41565244D01*
X138927324Y-41569630D01*
X138923360Y-41573497D01*
X138920901Y-41577962D01*
X138906768Y-41596295D01*
X138787720Y-41786771D01*
X138770299Y-41821895D01*
X138767544Y-41838343D01*
X138761162Y-41853753D01*
X138757319Y-41892771D01*
X138085890Y-41892771D01*
X138085890Y-40559438D01*
X138082047Y-40520420D01*
X138052184Y-40448324D01*
X137997004Y-40393144D01*
X137924908Y-40363281D01*
X137885890Y-40359438D01*
X137052557Y-40359438D01*
X137017967Y-40362844D01*
X137015933Y-40362820D01*
X137014757Y-40363160D01*
X137013539Y-40363281D01*
X137011658Y-40364060D01*
X136978279Y-40373743D01*
X136740184Y-40468981D01*
X136727130Y-40475755D01*
X136722392Y-40477128D01*
X136714125Y-40482503D01*
X136705384Y-40487040D01*
X136701857Y-40490481D01*
X136689524Y-40498502D01*
X136570475Y-40593740D01*
X136553901Y-40609904D01*
X136549752Y-40612864D01*
X136546370Y-40617249D01*
X136542408Y-40621115D01*
X136539950Y-40625578D01*
X136525814Y-40643915D01*
X136406767Y-40834391D01*
X136389347Y-40869515D01*
X136386593Y-40885961D01*
X136380210Y-40901372D01*
X136376367Y-40940390D01*
X136376367Y-41130866D01*
X136380210Y-41169884D01*
X136386593Y-41185294D01*
X136389347Y-41201741D01*
X136406767Y-41236865D01*
X136525814Y-41427341D01*
X136539950Y-41445677D01*
X136542408Y-41450141D01*
X136546370Y-41454006D01*
X136549752Y-41458392D01*
X136553901Y-41461351D01*
X136555473Y-41462884D01*
X136451428Y-41546121D01*
X136434856Y-41562284D01*
X136430706Y-41565244D01*
X136427324Y-41569630D01*
X136423360Y-41573497D01*
X136420901Y-41577962D01*
X136406768Y-41596295D01*
X136287720Y-41786771D01*
X136270299Y-41821895D01*
X136267544Y-41838343D01*
X136261162Y-41853753D01*
X136257319Y-41892771D01*
X136035097Y-41892771D01*
X136035097Y-40137216D01*
X145447207Y-40137216D01*
X145447207Y-42981660D01*
G37*
G36*
X151179700Y-136694438D02*
G01*
X150935966Y-136694438D01*
X150725830Y-136624393D01*
X150591690Y-136490251D01*
X150520784Y-136348440D01*
X150436843Y-136012672D01*
X150436843Y-135776202D01*
X150520784Y-135440434D01*
X150591690Y-135298622D01*
X150725831Y-135164482D01*
X150935966Y-135094438D01*
X151179700Y-135094438D01*
X151179700Y-136694438D01*
G37*
G36*
X153165991Y-135154047D02*
G01*
X153294344Y-135282401D01*
X153370176Y-135585727D01*
X153370176Y-136203148D01*
X153294344Y-136506473D01*
X153165989Y-136634829D01*
X153046773Y-136694438D01*
X152760246Y-136694438D01*
X152641028Y-136634829D01*
X152512673Y-136506472D01*
X152436843Y-136203148D01*
X152436843Y-135585726D01*
X152512673Y-135282401D01*
X152641029Y-135154046D01*
X152760246Y-135094438D01*
X153046773Y-135094438D01*
X153165991Y-135154047D01*
G37*
G36*
X156182874Y-137316660D02*
G01*
X148008940Y-137316660D01*
X148008940Y-134855420D01*
X148231162Y-134855420D01*
X148231162Y-134933456D01*
X148261025Y-135005552D01*
X148316205Y-135060732D01*
X148388301Y-135090595D01*
X148427319Y-135094438D01*
X149179700Y-135094438D01*
X149179700Y-135646819D01*
X148713033Y-135646819D01*
X148674015Y-135650662D01*
X148601919Y-135680525D01*
X148546739Y-135735705D01*
X148516876Y-135807801D01*
X148516876Y-135885837D01*
X148546739Y-135957933D01*
X148601919Y-136013113D01*
X148674015Y-136042976D01*
X148713033Y-136046819D01*
X149179700Y-136046819D01*
X149179700Y-136694438D01*
X148427319Y-136694438D01*
X148388301Y-136698281D01*
X148316205Y-136728144D01*
X148261025Y-136783324D01*
X148231162Y-136855420D01*
X148231162Y-136933456D01*
X148261025Y-137005552D01*
X148316205Y-137060732D01*
X148388301Y-137090595D01*
X148427319Y-137094438D01*
X149379700Y-137094438D01*
X149418718Y-137090595D01*
X149490814Y-137060732D01*
X149545994Y-137005552D01*
X149575857Y-136933456D01*
X149579700Y-136894438D01*
X149579700Y-135751580D01*
X150036843Y-135751580D01*
X150036843Y-136037295D01*
X150037513Y-136044103D01*
X150037080Y-136047017D01*
X150039238Y-136061618D01*
X150040686Y-136076313D01*
X150041813Y-136079035D01*
X150042814Y-136085802D01*
X150138052Y-136466754D01*
X150139080Y-136469633D01*
X150139183Y-136471072D01*
X150145393Y-136487300D01*
X150151244Y-136503675D01*
X150152103Y-136504834D01*
X150153196Y-136507690D01*
X150248434Y-136698166D01*
X150259003Y-136714957D01*
X150261025Y-136719837D01*
X150265533Y-136725330D01*
X150269320Y-136731346D01*
X150273310Y-136734806D01*
X150285897Y-136750144D01*
X150476373Y-136940621D01*
X150506680Y-136965493D01*
X150513319Y-136968243D01*
X150518749Y-136972952D01*
X150554550Y-136988937D01*
X150840265Y-137084175D01*
X150859611Y-137088573D01*
X150864492Y-137090595D01*
X150871568Y-137091291D01*
X150878496Y-137092867D01*
X150883761Y-137092492D01*
X150903510Y-137094438D01*
X151379700Y-137094438D01*
X151418718Y-137090595D01*
X151490814Y-137060732D01*
X151545994Y-137005552D01*
X151575857Y-136933456D01*
X151579700Y-136894438D01*
X151579700Y-135561104D01*
X152036843Y-135561104D01*
X152036843Y-136227771D01*
X152037513Y-136234579D01*
X152037080Y-136237493D01*
X152039238Y-136252094D01*
X152040686Y-136266789D01*
X152041813Y-136269511D01*
X152042814Y-136276278D01*
X152138052Y-136657230D01*
X152151244Y-136694151D01*
X152160096Y-136706098D01*
X152165787Y-136719837D01*
X152190659Y-136750144D01*
X152381135Y-136940621D01*
X152396473Y-136953208D01*
X152399934Y-136957199D01*
X152405950Y-136960986D01*
X152411442Y-136965493D01*
X152416320Y-136967513D01*
X152433114Y-136978085D01*
X152623591Y-137073324D01*
X152660208Y-137087336D01*
X152667377Y-137087845D01*
X152674015Y-137090595D01*
X152713033Y-137094438D01*
X153093986Y-137094438D01*
X153133004Y-137090595D01*
X153139641Y-137087845D01*
X153146811Y-137087336D01*
X153183429Y-137073323D01*
X153373905Y-136978085D01*
X153390696Y-136967515D01*
X153395576Y-136965494D01*
X153401069Y-136960985D01*
X153407085Y-136957199D01*
X153410545Y-136953208D01*
X153425884Y-136940621D01*
X153616359Y-136750144D01*
X153641232Y-136719837D01*
X153646922Y-136706098D01*
X153655775Y-136694151D01*
X153668967Y-136657230D01*
X153764204Y-136276278D01*
X153765204Y-136269514D01*
X153766333Y-136266789D01*
X153767781Y-136252086D01*
X153769939Y-136237493D01*
X153769505Y-136234579D01*
X153770176Y-136227771D01*
X153770176Y-135561104D01*
X153769505Y-135554295D01*
X153769939Y-135551382D01*
X153767781Y-135536788D01*
X153766333Y-135522086D01*
X153765204Y-135519360D01*
X153764204Y-135512597D01*
X153668967Y-135131645D01*
X153655775Y-135094724D01*
X153646922Y-135082776D01*
X153641232Y-135069038D01*
X153616360Y-135038731D01*
X153472066Y-134894438D01*
X154227319Y-134894438D01*
X154227319Y-136894438D01*
X154231162Y-136933456D01*
X154261025Y-137005552D01*
X154316205Y-137060732D01*
X154388301Y-137090595D01*
X154466337Y-137090595D01*
X154538433Y-137060732D01*
X154593613Y-137005552D01*
X154623476Y-136933456D01*
X154627319Y-136894438D01*
X154627319Y-135795952D01*
X154912748Y-136407586D01*
X154921212Y-136421874D01*
X154922972Y-136426713D01*
X154926106Y-136430135D01*
X154932731Y-136441318D01*
X154955149Y-136461848D01*
X154975676Y-136484263D01*
X154983725Y-136488019D01*
X154990280Y-136494022D01*
X155018850Y-136504410D01*
X155046390Y-136517263D01*
X155055266Y-136517653D01*
X155063618Y-136520690D01*
X155093984Y-136519355D01*
X155124351Y-136520690D01*
X155132702Y-136517653D01*
X155141579Y-136517263D01*
X155169120Y-136504410D01*
X155197689Y-136494022D01*
X155204242Y-136488020D01*
X155212294Y-136484263D01*
X155232822Y-136461846D01*
X155255239Y-136441318D01*
X155261863Y-136430135D01*
X155264998Y-136426713D01*
X155266757Y-136421874D01*
X155275222Y-136407586D01*
X155560652Y-135795950D01*
X155560652Y-136894438D01*
X155564495Y-136933456D01*
X155594358Y-137005552D01*
X155649538Y-137060732D01*
X155721634Y-137090595D01*
X155799670Y-137090595D01*
X155871766Y-137060732D01*
X155926946Y-137005552D01*
X155956809Y-136933456D01*
X155960652Y-136894438D01*
X155960652Y-134894438D01*
X155958125Y-134868788D01*
X155958333Y-134864072D01*
X155957411Y-134861538D01*
X155956809Y-134855420D01*
X155943526Y-134823353D01*
X155931665Y-134790733D01*
X155928652Y-134787443D01*
X155926946Y-134783324D01*
X155902409Y-134758787D01*
X155878962Y-134733184D01*
X155874919Y-134731297D01*
X155871766Y-134728144D01*
X155839710Y-134714866D01*
X155808247Y-134700183D01*
X155803788Y-134699987D01*
X155799670Y-134698281D01*
X155764978Y-134698281D01*
X155730286Y-134696756D01*
X155726092Y-134698281D01*
X155721634Y-134698281D01*
X155689572Y-134711561D01*
X155656948Y-134723425D01*
X155653658Y-134726437D01*
X155649538Y-134728144D01*
X155624996Y-134752685D01*
X155599398Y-134776128D01*
X155596265Y-134781416D01*
X155594358Y-134783324D01*
X155592550Y-134787687D01*
X155579416Y-134809861D01*
X155093985Y-135850067D01*
X154608556Y-134809861D01*
X154595420Y-134787688D01*
X154593613Y-134783324D01*
X154591705Y-134781416D01*
X154588573Y-134776129D01*
X154562980Y-134752691D01*
X154538433Y-134728144D01*
X154534311Y-134726437D01*
X154531023Y-134723425D01*
X154498407Y-134711565D01*
X154466337Y-134698281D01*
X154461876Y-134698281D01*
X154457685Y-134696757D01*
X154423016Y-134698281D01*
X154388301Y-134698281D01*
X154384179Y-134699988D01*
X154379725Y-134700184D01*
X154348280Y-134714857D01*
X154316205Y-134728144D01*
X154313050Y-134731298D01*
X154309010Y-134733184D01*
X154285572Y-134758776D01*
X154261025Y-134783324D01*
X154259318Y-134787445D01*
X154256306Y-134790734D01*
X154244446Y-134823349D01*
X154231162Y-134855420D01*
X154230559Y-134861538D01*
X154229638Y-134864072D01*
X154229845Y-134868788D01*
X154227319Y-134894438D01*
X153472066Y-134894438D01*
X153425883Y-134848255D01*
X153410547Y-134835668D01*
X153407085Y-134831677D01*
X153401068Y-134827889D01*
X153395576Y-134823382D01*
X153390696Y-134821360D01*
X153373905Y-134810791D01*
X153183429Y-134715553D01*
X153146811Y-134701540D01*
X153139641Y-134701030D01*
X153133004Y-134698281D01*
X153093986Y-134694438D01*
X152713033Y-134694438D01*
X152674015Y-134698281D01*
X152667377Y-134701030D01*
X152660208Y-134701540D01*
X152623591Y-134715552D01*
X152433114Y-134810791D01*
X152416322Y-134821360D01*
X152411443Y-134823382D01*
X152405949Y-134827890D01*
X152399934Y-134831677D01*
X152396473Y-134835666D01*
X152381136Y-134848254D01*
X152190660Y-135038731D01*
X152165787Y-135069038D01*
X152160096Y-135082776D01*
X152151244Y-135094724D01*
X152138052Y-135131645D01*
X152042814Y-135512597D01*
X152041813Y-135519363D01*
X152040686Y-135522086D01*
X152039238Y-135536780D01*
X152037080Y-135551382D01*
X152037513Y-135554295D01*
X152036843Y-135561104D01*
X151579700Y-135561104D01*
X151579700Y-134894438D01*
X151575857Y-134855420D01*
X151545994Y-134783324D01*
X151490814Y-134728144D01*
X151418718Y-134698281D01*
X151379700Y-134694438D01*
X150903510Y-134694438D01*
X150883761Y-134696383D01*
X150878496Y-134696009D01*
X150871568Y-134697584D01*
X150864492Y-134698281D01*
X150859611Y-134700302D01*
X150840265Y-134704701D01*
X150554550Y-134799939D01*
X150518749Y-134815924D01*
X150513320Y-134820631D01*
X150506681Y-134823382D01*
X150476374Y-134848254D01*
X150285898Y-135038731D01*
X150273311Y-135054066D01*
X150269320Y-135057529D01*
X150265532Y-135063545D01*
X150261025Y-135069038D01*
X150259003Y-135073917D01*
X150248434Y-135090709D01*
X150153196Y-135281185D01*
X150152103Y-135284040D01*
X150151244Y-135285200D01*
X150145393Y-135301574D01*
X150139183Y-135317803D01*
X150139080Y-135319241D01*
X150138052Y-135322121D01*
X150042814Y-135703073D01*
X150041813Y-135709839D01*
X150040686Y-135712562D01*
X150039238Y-135727256D01*
X150037080Y-135741858D01*
X150037513Y-135744771D01*
X150036843Y-135751580D01*
X149579700Y-135751580D01*
X149579700Y-134894438D01*
X149575857Y-134855420D01*
X149545994Y-134783324D01*
X149490814Y-134728144D01*
X149418718Y-134698281D01*
X149379700Y-134694438D01*
X148427319Y-134694438D01*
X148388301Y-134698281D01*
X148316205Y-134728144D01*
X148261025Y-134783324D01*
X148231162Y-134855420D01*
X148008940Y-134855420D01*
X148008940Y-134472216D01*
X156182874Y-134472216D01*
X156182874Y-137316660D01*
G37*
D13*
X128100464Y-142640930D02*
X128171892Y-142569502D01*
X128171892Y-142569502D02*
X128243321Y-142426645D01*
X128243321Y-142426645D02*
X128243321Y-142069502D01*
X128243321Y-142069502D02*
X128171892Y-141926645D01*
X128171892Y-141926645D02*
X128100464Y-141855216D01*
X128100464Y-141855216D02*
X127957607Y-141783787D01*
X127957607Y-141783787D02*
X127814750Y-141783787D01*
X127814750Y-141783787D02*
X127600464Y-141855216D01*
X127600464Y-141855216D02*
X126743321Y-142712359D01*
X126743321Y-142712359D02*
X126743321Y-141783787D01*
X128243321Y-140855216D02*
X128243321Y-140712359D01*
X128243321Y-140712359D02*
X128171892Y-140569502D01*
X128171892Y-140569502D02*
X128100464Y-140498074D01*
X128100464Y-140498074D02*
X127957607Y-140426645D01*
X127957607Y-140426645D02*
X127671892Y-140355216D01*
X127671892Y-140355216D02*
X127314750Y-140355216D01*
X127314750Y-140355216D02*
X127029035Y-140426645D01*
X127029035Y-140426645D02*
X126886178Y-140498074D01*
X126886178Y-140498074D02*
X126814750Y-140569502D01*
X126814750Y-140569502D02*
X126743321Y-140712359D01*
X126743321Y-140712359D02*
X126743321Y-140855216D01*
X126743321Y-140855216D02*
X126814750Y-140998074D01*
X126814750Y-140998074D02*
X126886178Y-141069502D01*
X126886178Y-141069502D02*
X127029035Y-141140931D01*
X127029035Y-141140931D02*
X127314750Y-141212359D01*
X127314750Y-141212359D02*
X127671892Y-141212359D01*
X127671892Y-141212359D02*
X127957607Y-141140931D01*
X127957607Y-141140931D02*
X128100464Y-141069502D01*
X128100464Y-141069502D02*
X128171892Y-140998074D01*
X128171892Y-140998074D02*
X128243321Y-140855216D01*
X128243321Y-139926645D02*
X126743321Y-139426645D01*
X126743321Y-139426645D02*
X128243321Y-138926645D01*
D14*
G36*
X155898412Y-113326660D02*
G01*
X142101586Y-113326660D01*
X142101586Y-112333009D01*
X142323808Y-112333009D01*
X142323808Y-112523485D01*
X142327651Y-112562503D01*
X142330400Y-112569140D01*
X142330910Y-112576310D01*
X142344923Y-112612928D01*
X142440161Y-112803404D01*
X142450732Y-112820197D01*
X142452752Y-112825074D01*
X142457258Y-112830565D01*
X142461047Y-112836584D01*
X142465038Y-112840045D01*
X142477624Y-112855382D01*
X142572862Y-112950621D01*
X142588201Y-112963210D01*
X142591661Y-112967199D01*
X142597672Y-112970983D01*
X142603169Y-112975494D01*
X142608051Y-112977516D01*
X142624841Y-112988085D01*
X142815318Y-113083324D01*
X142851935Y-113097336D01*
X142859104Y-113097845D01*
X142865742Y-113100595D01*
X142904760Y-113104438D01*
X143380951Y-113104438D01*
X143400700Y-113102492D01*
X143405966Y-113102867D01*
X143412894Y-113101291D01*
X143419969Y-113100595D01*
X143424847Y-113098574D01*
X143444197Y-113094175D01*
X143729911Y-112998937D01*
X143765711Y-112982952D01*
X143824664Y-112931823D01*
X143859563Y-112862025D01*
X143865094Y-112784185D01*
X143840417Y-112710154D01*
X143789288Y-112651201D01*
X143719490Y-112616302D01*
X143641650Y-112610771D01*
X143603419Y-112619463D01*
X143348494Y-112704438D01*
X142951973Y-112704438D01*
X142832755Y-112644829D01*
X142783417Y-112595489D01*
X142723808Y-112476271D01*
X142723808Y-112380222D01*
X142783417Y-112261003D01*
X142832755Y-112211666D01*
X142974562Y-112140762D01*
X143334220Y-112050848D01*
X143337102Y-112049818D01*
X143338539Y-112049716D01*
X143344865Y-112047295D01*
X144228570Y-112047295D01*
X144228570Y-112713961D01*
X144232413Y-112752979D01*
X144262276Y-112825075D01*
X144262280Y-112825079D01*
X144287148Y-112855382D01*
X144382386Y-112950621D01*
X144412693Y-112975494D01*
X144419334Y-112978245D01*
X144424762Y-112982952D01*
X144460562Y-112998937D01*
X144746276Y-113094175D01*
X144765625Y-113098574D01*
X144770504Y-113100595D01*
X144777578Y-113101291D01*
X144784507Y-113102867D01*
X144789772Y-113102492D01*
X144809522Y-113104438D01*
X144999998Y-113104438D01*
X145019746Y-113102492D01*
X145025012Y-113102867D01*
X145031939Y-113101291D01*
X145039016Y-113100595D01*
X145043896Y-113098573D01*
X145063243Y-113094175D01*
X145348958Y-112998937D01*
X145384759Y-112982952D01*
X145390186Y-112978244D01*
X145396827Y-112975494D01*
X145427135Y-112950621D01*
X145617610Y-112760144D01*
X145630196Y-112744807D01*
X145634188Y-112741346D01*
X145637975Y-112735329D01*
X145642483Y-112729837D01*
X145644504Y-112724957D01*
X145655074Y-112708166D01*
X145750313Y-112517689D01*
X145751405Y-112514833D01*
X145752264Y-112513675D01*
X145758110Y-112497311D01*
X145764325Y-112481072D01*
X145764427Y-112479633D01*
X145765456Y-112476754D01*
X145860693Y-112095802D01*
X145861693Y-112089038D01*
X145862822Y-112086313D01*
X145864270Y-112071610D01*
X145866428Y-112057017D01*
X145865994Y-112054103D01*
X145866665Y-112047295D01*
X145866665Y-111761580D01*
X145865994Y-111754771D01*
X145866428Y-111751858D01*
X145864270Y-111737264D01*
X145862822Y-111722562D01*
X145861693Y-111719836D01*
X145860693Y-111713073D01*
X145765456Y-111332121D01*
X145764427Y-111329241D01*
X145764325Y-111327803D01*
X145758110Y-111311563D01*
X145752264Y-111295200D01*
X145751405Y-111294041D01*
X145750313Y-111291186D01*
X145655074Y-111100709D01*
X145644504Y-111083917D01*
X145642483Y-111079038D01*
X145637974Y-111073544D01*
X145634188Y-111067529D01*
X145630198Y-111064068D01*
X145617611Y-111048731D01*
X145473317Y-110904438D01*
X146323808Y-110904438D01*
X146323808Y-112904438D01*
X146324796Y-112914472D01*
X146324296Y-112918407D01*
X146325685Y-112923502D01*
X146327651Y-112943456D01*
X146337829Y-112968028D01*
X146344829Y-112993694D01*
X146352635Y-113003774D01*
X146357514Y-113015552D01*
X146376322Y-113034360D01*
X146392610Y-113055392D01*
X146403679Y-113061717D01*
X146412694Y-113070732D01*
X146437270Y-113080911D01*
X146460364Y-113094108D01*
X146473010Y-113095715D01*
X146484790Y-113100595D01*
X146511388Y-113100595D01*
X146537777Y-113103950D01*
X146550079Y-113100595D01*
X146562826Y-113100595D01*
X146587398Y-113090416D01*
X146613064Y-113083417D01*
X146623144Y-113075610D01*
X146634922Y-113070732D01*
X146653730Y-113051923D01*
X146674762Y-113035636D01*
X146686370Y-113019283D01*
X146690102Y-113015552D01*
X146691618Y-113011890D01*
X146697457Y-113003666D01*
X147466665Y-111657551D01*
X147466665Y-112904438D01*
X147470508Y-112943456D01*
X147500371Y-113015552D01*
X147555551Y-113070732D01*
X147627647Y-113100595D01*
X147705683Y-113100595D01*
X147777779Y-113070732D01*
X147832959Y-113015552D01*
X147862822Y-112943456D01*
X147866665Y-112904438D01*
X147866665Y-110904438D01*
X148419046Y-110904438D01*
X148419046Y-112904438D01*
X148422889Y-112943456D01*
X148452752Y-113015552D01*
X148507932Y-113070732D01*
X148580028Y-113100595D01*
X148658064Y-113100595D01*
X148730160Y-113070732D01*
X148785340Y-113015552D01*
X148815203Y-112943456D01*
X148819046Y-112904438D01*
X148819046Y-110904438D01*
X148815203Y-110865420D01*
X149089556Y-110865420D01*
X149089556Y-110943456D01*
X149119419Y-111015552D01*
X149174599Y-111070732D01*
X149246695Y-111100595D01*
X149285713Y-111104438D01*
X149657142Y-111104438D01*
X149657142Y-112904438D01*
X149660985Y-112943456D01*
X149690848Y-113015552D01*
X149746028Y-113070732D01*
X149818124Y-113100595D01*
X149896160Y-113100595D01*
X149968256Y-113070732D01*
X150023436Y-113015552D01*
X150053299Y-112943456D01*
X150057142Y-112904438D01*
X150057142Y-111104438D01*
X150428570Y-111104438D01*
X150467588Y-111100595D01*
X150539684Y-111070732D01*
X150594864Y-111015552D01*
X150619046Y-110957170D01*
X150643229Y-111015552D01*
X150698409Y-111070732D01*
X150770505Y-111100595D01*
X150809523Y-111104438D01*
X151180952Y-111104438D01*
X151180952Y-112904438D01*
X151184795Y-112943456D01*
X151214658Y-113015552D01*
X151269838Y-113070732D01*
X151341934Y-113100595D01*
X151419970Y-113100595D01*
X151492066Y-113070732D01*
X151547246Y-113015552D01*
X151577109Y-112943456D01*
X151580952Y-112904438D01*
X151580952Y-111104438D01*
X151952380Y-111104438D01*
X151991398Y-111100595D01*
X152063494Y-111070732D01*
X152118674Y-111015552D01*
X152148537Y-110943456D01*
X152148537Y-110865420D01*
X152327652Y-110865420D01*
X152327652Y-110943456D01*
X152357515Y-111015552D01*
X152412695Y-111070732D01*
X152484791Y-111100595D01*
X152523809Y-111104438D01*
X153276190Y-111104438D01*
X153276190Y-111656819D01*
X152809523Y-111656819D01*
X152770505Y-111660662D01*
X152698409Y-111690525D01*
X152643229Y-111745705D01*
X152613366Y-111817801D01*
X152613366Y-111895837D01*
X152643229Y-111967933D01*
X152698409Y-112023113D01*
X152770505Y-112052976D01*
X152809523Y-112056819D01*
X153276190Y-112056819D01*
X153276190Y-112704438D01*
X152523809Y-112704438D01*
X152484791Y-112708281D01*
X152412695Y-112738144D01*
X152357515Y-112793324D01*
X152327652Y-112865420D01*
X152327652Y-112943456D01*
X152357515Y-113015552D01*
X152412695Y-113070732D01*
X152484791Y-113100595D01*
X152523809Y-113104438D01*
X153476190Y-113104438D01*
X153515208Y-113100595D01*
X153587304Y-113070732D01*
X153642484Y-113015552D01*
X153672347Y-112943456D01*
X153676190Y-112904438D01*
X153676190Y-112333009D01*
X154133333Y-112333009D01*
X154133333Y-112523485D01*
X154137176Y-112562503D01*
X154139925Y-112569140D01*
X154140435Y-112576310D01*
X154154448Y-112612928D01*
X154249686Y-112803404D01*
X154260257Y-112820197D01*
X154262277Y-112825074D01*
X154266783Y-112830565D01*
X154270572Y-112836584D01*
X154274563Y-112840045D01*
X154287149Y-112855382D01*
X154382387Y-112950621D01*
X154397726Y-112963210D01*
X154401186Y-112967199D01*
X154407197Y-112970983D01*
X154412694Y-112975494D01*
X154417576Y-112977516D01*
X154434366Y-112988085D01*
X154624843Y-113083324D01*
X154661460Y-113097336D01*
X154668629Y-113097845D01*
X154675267Y-113100595D01*
X154714285Y-113104438D01*
X155190476Y-113104438D01*
X155210225Y-113102492D01*
X155215491Y-113102867D01*
X155222419Y-113101291D01*
X155229494Y-113100595D01*
X155234372Y-113098574D01*
X155253722Y-113094175D01*
X155539436Y-112998937D01*
X155575236Y-112982952D01*
X155634189Y-112931823D01*
X155669088Y-112862025D01*
X155674619Y-112784185D01*
X155649942Y-112710154D01*
X155598813Y-112651201D01*
X155529015Y-112616302D01*
X155451175Y-112610771D01*
X155412944Y-112619463D01*
X155158019Y-112704438D01*
X154761498Y-112704438D01*
X154642280Y-112644829D01*
X154592942Y-112595489D01*
X154533333Y-112476271D01*
X154533333Y-112380222D01*
X154592942Y-112261003D01*
X154642280Y-112211666D01*
X154784087Y-112140762D01*
X155143745Y-112050848D01*
X155146627Y-112049818D01*
X155148064Y-112049716D01*
X155164278Y-112043511D01*
X155180666Y-112037656D01*
X155181826Y-112036796D01*
X155184681Y-112035704D01*
X155375157Y-111940465D01*
X155391946Y-111929896D01*
X155396828Y-111927874D01*
X155402325Y-111923362D01*
X155408337Y-111919578D01*
X155411796Y-111915589D01*
X155427135Y-111903001D01*
X155522373Y-111807763D01*
X155534959Y-111792426D01*
X155538951Y-111788965D01*
X155542738Y-111782948D01*
X155547246Y-111777456D01*
X155549267Y-111772576D01*
X155559837Y-111755785D01*
X155655076Y-111565308D01*
X155669088Y-111528691D01*
X155669597Y-111521521D01*
X155672347Y-111514884D01*
X155676190Y-111475866D01*
X155676190Y-111285390D01*
X155672347Y-111246372D01*
X155669597Y-111239734D01*
X155669088Y-111232565D01*
X155655076Y-111195948D01*
X155559837Y-111005471D01*
X155549267Y-110988679D01*
X155547246Y-110983800D01*
X155542738Y-110978307D01*
X155538951Y-110972291D01*
X155534959Y-110968829D01*
X155522373Y-110953493D01*
X155427135Y-110858255D01*
X155411799Y-110845668D01*
X155408337Y-110841677D01*
X155402320Y-110837889D01*
X155396828Y-110833382D01*
X155391948Y-110831360D01*
X155375157Y-110820791D01*
X155184681Y-110725553D01*
X155148063Y-110711540D01*
X155140893Y-110711030D01*
X155134256Y-110708281D01*
X155095238Y-110704438D01*
X154619047Y-110704438D01*
X154599297Y-110706383D01*
X154594032Y-110706009D01*
X154587103Y-110707584D01*
X154580029Y-110708281D01*
X154575150Y-110710301D01*
X154555801Y-110714701D01*
X154270087Y-110809939D01*
X154234287Y-110825924D01*
X154175334Y-110877053D01*
X154140435Y-110946851D01*
X154134904Y-111024691D01*
X154159581Y-111098722D01*
X154210710Y-111157675D01*
X154280508Y-111192574D01*
X154358348Y-111198105D01*
X154396579Y-111189413D01*
X154651504Y-111104438D01*
X155048025Y-111104438D01*
X155167243Y-111164047D01*
X155216581Y-111213385D01*
X155276190Y-111332603D01*
X155276190Y-111428653D01*
X155216581Y-111547871D01*
X155167243Y-111597208D01*
X155025430Y-111668116D01*
X154665778Y-111758028D01*
X154662898Y-111759056D01*
X154661460Y-111759159D01*
X154645220Y-111765373D01*
X154628857Y-111771220D01*
X154627698Y-111772078D01*
X154624843Y-111773171D01*
X154434366Y-111868410D01*
X154417574Y-111878979D01*
X154412695Y-111881001D01*
X154407202Y-111885508D01*
X154401186Y-111889296D01*
X154397724Y-111893287D01*
X154382388Y-111905874D01*
X154287150Y-112001112D01*
X154274563Y-112016447D01*
X154270572Y-112019910D01*
X154266784Y-112025926D01*
X154262277Y-112031419D01*
X154260255Y-112036298D01*
X154249686Y-112053090D01*
X154154448Y-112243566D01*
X154140435Y-112280184D01*
X154139925Y-112287353D01*
X154137176Y-112293991D01*
X154133333Y-112333009D01*
X153676190Y-112333009D01*
X153676190Y-110904438D01*
X153672347Y-110865420D01*
X153642484Y-110793324D01*
X153587304Y-110738144D01*
X153515208Y-110708281D01*
X153476190Y-110704438D01*
X152523809Y-110704438D01*
X152484791Y-110708281D01*
X152412695Y-110738144D01*
X152357515Y-110793324D01*
X152327652Y-110865420D01*
X152148537Y-110865420D01*
X152118674Y-110793324D01*
X152063494Y-110738144D01*
X151991398Y-110708281D01*
X151952380Y-110704438D01*
X150809523Y-110704438D01*
X150770505Y-110708281D01*
X150698409Y-110738144D01*
X150643229Y-110793324D01*
X150619046Y-110851705D01*
X150594864Y-110793324D01*
X150539684Y-110738144D01*
X150467588Y-110708281D01*
X150428570Y-110704438D01*
X149285713Y-110704438D01*
X149246695Y-110708281D01*
X149174599Y-110738144D01*
X149119419Y-110793324D01*
X149089556Y-110865420D01*
X148815203Y-110865420D01*
X148785340Y-110793324D01*
X148730160Y-110738144D01*
X148658064Y-110708281D01*
X148580028Y-110708281D01*
X148507932Y-110738144D01*
X148452752Y-110793324D01*
X148422889Y-110865420D01*
X148419046Y-110904438D01*
X147866665Y-110904438D01*
X147865676Y-110894403D01*
X147866177Y-110890469D01*
X147864787Y-110885373D01*
X147862822Y-110865420D01*
X147852643Y-110840847D01*
X147845644Y-110815182D01*
X147837837Y-110805101D01*
X147832959Y-110793324D01*
X147814150Y-110774515D01*
X147797863Y-110753484D01*
X147786793Y-110747158D01*
X147777779Y-110738144D01*
X147753202Y-110727964D01*
X147730109Y-110714768D01*
X147717462Y-110713160D01*
X147705683Y-110708281D01*
X147679080Y-110708281D01*
X147652696Y-110704927D01*
X147640398Y-110708281D01*
X147627647Y-110708281D01*
X147603071Y-110718460D01*
X147577409Y-110725459D01*
X147567328Y-110733265D01*
X147555551Y-110738144D01*
X147536742Y-110756952D01*
X147515711Y-110773240D01*
X147504102Y-110789592D01*
X147500371Y-110793324D01*
X147498854Y-110796985D01*
X147493016Y-110805210D01*
X146723808Y-112151324D01*
X146723808Y-110904438D01*
X146719965Y-110865420D01*
X146690102Y-110793324D01*
X146634922Y-110738144D01*
X146562826Y-110708281D01*
X146484790Y-110708281D01*
X146412694Y-110738144D01*
X146357514Y-110793324D01*
X146327651Y-110865420D01*
X146323808Y-110904438D01*
X145473317Y-110904438D01*
X145427134Y-110858255D01*
X145396827Y-110833382D01*
X145390187Y-110830631D01*
X145384759Y-110825924D01*
X145348958Y-110809939D01*
X145063243Y-110714701D01*
X145043896Y-110710302D01*
X145039016Y-110708281D01*
X145031939Y-110707584D01*
X145025012Y-110706009D01*
X145019746Y-110706383D01*
X144999998Y-110704438D01*
X144714284Y-110704438D01*
X144675266Y-110708281D01*
X144668628Y-110711030D01*
X144661459Y-110711540D01*
X144624842Y-110725552D01*
X144434365Y-110820791D01*
X144401185Y-110841677D01*
X144350056Y-110900630D01*
X144325378Y-110974662D01*
X144330910Y-111052501D01*
X144365809Y-111122299D01*
X144424762Y-111173428D01*
X144498794Y-111198106D01*
X144576633Y-111192574D01*
X144613251Y-111178561D01*
X144761497Y-111104438D01*
X144967542Y-111104438D01*
X145177677Y-111174482D01*
X145311818Y-111308624D01*
X145382722Y-111450431D01*
X145466665Y-111786203D01*
X145466665Y-112022672D01*
X145382722Y-112358444D01*
X145311818Y-112500250D01*
X145177676Y-112634393D01*
X144967542Y-112704438D01*
X144841979Y-112704438D01*
X144631843Y-112634392D01*
X144628570Y-112631119D01*
X144628570Y-112247295D01*
X144809522Y-112247295D01*
X144848540Y-112243452D01*
X144920636Y-112213589D01*
X144975816Y-112158409D01*
X145005679Y-112086313D01*
X145005679Y-112008277D01*
X144975816Y-111936181D01*
X144920636Y-111881001D01*
X144848540Y-111851138D01*
X144809522Y-111847295D01*
X144428570Y-111847295D01*
X144389552Y-111851138D01*
X144317456Y-111881001D01*
X144262276Y-111936181D01*
X144232413Y-112008277D01*
X144228570Y-112047295D01*
X143344865Y-112047295D01*
X143354753Y-112043511D01*
X143371141Y-112037656D01*
X143372301Y-112036796D01*
X143375156Y-112035704D01*
X143565632Y-111940465D01*
X143582421Y-111929896D01*
X143587303Y-111927874D01*
X143592800Y-111923362D01*
X143598812Y-111919578D01*
X143602271Y-111915589D01*
X143617610Y-111903001D01*
X143712848Y-111807763D01*
X143725434Y-111792426D01*
X143729426Y-111788965D01*
X143733213Y-111782948D01*
X143737721Y-111777456D01*
X143739742Y-111772576D01*
X143750312Y-111755785D01*
X143845551Y-111565308D01*
X143859563Y-111528691D01*
X143860072Y-111521521D01*
X143862822Y-111514884D01*
X143866665Y-111475866D01*
X143866665Y-111285390D01*
X143862822Y-111246372D01*
X143860072Y-111239734D01*
X143859563Y-111232565D01*
X143845551Y-111195948D01*
X143750312Y-111005471D01*
X143739742Y-110988679D01*
X143737721Y-110983800D01*
X143733213Y-110978307D01*
X143729426Y-110972291D01*
X143725434Y-110968829D01*
X143712848Y-110953493D01*
X143617610Y-110858255D01*
X143602274Y-110845668D01*
X143598812Y-110841677D01*
X143592795Y-110837889D01*
X143587303Y-110833382D01*
X143582423Y-110831360D01*
X143565632Y-110820791D01*
X143375156Y-110725553D01*
X143338538Y-110711540D01*
X143331368Y-110711030D01*
X143324731Y-110708281D01*
X143285713Y-110704438D01*
X142809522Y-110704438D01*
X142789772Y-110706383D01*
X142784507Y-110706009D01*
X142777578Y-110707584D01*
X142770504Y-110708281D01*
X142765625Y-110710301D01*
X142746276Y-110714701D01*
X142460562Y-110809939D01*
X142424762Y-110825924D01*
X142365809Y-110877053D01*
X142330910Y-110946851D01*
X142325379Y-111024691D01*
X142350056Y-111098722D01*
X142401185Y-111157675D01*
X142470983Y-111192574D01*
X142548823Y-111198105D01*
X142587054Y-111189413D01*
X142841979Y-111104438D01*
X143238500Y-111104438D01*
X143357718Y-111164047D01*
X143407056Y-111213385D01*
X143466665Y-111332603D01*
X143466665Y-111428653D01*
X143407056Y-111547871D01*
X143357718Y-111597208D01*
X143215905Y-111668116D01*
X142856253Y-111758028D01*
X142853373Y-111759056D01*
X142851935Y-111759159D01*
X142835695Y-111765373D01*
X142819332Y-111771220D01*
X142818173Y-111772078D01*
X142815318Y-111773171D01*
X142624841Y-111868410D01*
X142608049Y-111878979D01*
X142603170Y-111881001D01*
X142597677Y-111885508D01*
X142591661Y-111889296D01*
X142588199Y-111893287D01*
X142572863Y-111905874D01*
X142477625Y-112001112D01*
X142465038Y-112016447D01*
X142461047Y-112019910D01*
X142457259Y-112025926D01*
X142452752Y-112031419D01*
X142450730Y-112036298D01*
X142440161Y-112053090D01*
X142344923Y-112243566D01*
X142330910Y-112280184D01*
X142330400Y-112287353D01*
X142327651Y-112293991D01*
X142323808Y-112333009D01*
X142101586Y-112333009D01*
X142101586Y-110482216D01*
X155898412Y-110482216D01*
X155898412Y-113326660D01*
G37*
G36*
X166215414Y-135742057D02*
G01*
X165700722Y-135742057D01*
X165581504Y-135682448D01*
X165532166Y-135633108D01*
X165472557Y-135513890D01*
X165472557Y-135322603D01*
X165532166Y-135203384D01*
X165581504Y-135154047D01*
X165700722Y-135094438D01*
X166215414Y-135094438D01*
X166215414Y-135742057D01*
G37*
G36*
X168215414Y-135742057D02*
G01*
X167700722Y-135742057D01*
X167581504Y-135682448D01*
X167532166Y-135633108D01*
X167472557Y-135513890D01*
X167472557Y-135322603D01*
X167532166Y-135203384D01*
X167581504Y-135154047D01*
X167700722Y-135094438D01*
X168215414Y-135094438D01*
X168215414Y-135742057D01*
G37*
G36*
X173028112Y-137316660D02*
G01*
X159235130Y-137316660D01*
X159235130Y-134855420D01*
X159457352Y-134855420D01*
X159457352Y-134933456D01*
X159487215Y-135005552D01*
X159542395Y-135060732D01*
X159614491Y-135090595D01*
X159653509Y-135094438D01*
X160024938Y-135094438D01*
X160024938Y-136894438D01*
X160028781Y-136933456D01*
X160058644Y-137005552D01*
X160113824Y-137060732D01*
X160185920Y-137090595D01*
X160263956Y-137090595D01*
X160336052Y-137060732D01*
X160391232Y-137005552D01*
X160421095Y-136933456D01*
X160424938Y-136894438D01*
X160424938Y-135094438D01*
X160796366Y-135094438D01*
X160835384Y-135090595D01*
X160907480Y-135060732D01*
X160962660Y-135005552D01*
X160992523Y-134933456D01*
X160992523Y-134894438D01*
X161263033Y-134894438D01*
X161263033Y-136894438D01*
X161264021Y-136904472D01*
X161263521Y-136908407D01*
X161264910Y-136913502D01*
X161266876Y-136933456D01*
X161277054Y-136958028D01*
X161284054Y-136983694D01*
X161291860Y-136993774D01*
X161296739Y-137005552D01*
X161315547Y-137024360D01*
X161331835Y-137045392D01*
X161342904Y-137051717D01*
X161351919Y-137060732D01*
X161376495Y-137070911D01*
X161399589Y-137084108D01*
X161412235Y-137085715D01*
X161424015Y-137090595D01*
X161450613Y-137090595D01*
X161477002Y-137093950D01*
X161489304Y-137090595D01*
X161502051Y-137090595D01*
X161526623Y-137080416D01*
X161552289Y-137073417D01*
X161562369Y-137065610D01*
X161574147Y-137060732D01*
X161592955Y-137041923D01*
X161613987Y-137025636D01*
X161625595Y-137009283D01*
X161629327Y-137005552D01*
X161630843Y-137001890D01*
X161636682Y-136993666D01*
X162405890Y-135647551D01*
X162405890Y-136894438D01*
X162409733Y-136933456D01*
X162439596Y-137005552D01*
X162494776Y-137060732D01*
X162566872Y-137090595D01*
X162644908Y-137090595D01*
X162717004Y-137060732D01*
X162772184Y-137005552D01*
X162802047Y-136933456D01*
X162805890Y-136894438D01*
X162805890Y-134894438D01*
X162804901Y-134884403D01*
X162805402Y-134880469D01*
X162804012Y-134875373D01*
X162802047Y-134855420D01*
X163266876Y-134855420D01*
X163266876Y-134933456D01*
X163296739Y-135005552D01*
X163351919Y-135060732D01*
X163424015Y-135090595D01*
X163463033Y-135094438D01*
X164215414Y-135094438D01*
X164215414Y-135646819D01*
X163748747Y-135646819D01*
X163709729Y-135650662D01*
X163637633Y-135680525D01*
X163582453Y-135735705D01*
X163552590Y-135807801D01*
X163552590Y-135885837D01*
X163582453Y-135957933D01*
X163637633Y-136013113D01*
X163709729Y-136042976D01*
X163748747Y-136046819D01*
X164215414Y-136046819D01*
X164215414Y-136694438D01*
X163463033Y-136694438D01*
X163424015Y-136698281D01*
X163351919Y-136728144D01*
X163296739Y-136783324D01*
X163266876Y-136855420D01*
X163266876Y-136933456D01*
X163296739Y-137005552D01*
X163351919Y-137060732D01*
X163424015Y-137090595D01*
X163463033Y-137094438D01*
X164415414Y-137094438D01*
X164454432Y-137090595D01*
X164526528Y-137060732D01*
X164581708Y-137005552D01*
X164611571Y-136933456D01*
X164615414Y-136894438D01*
X164615414Y-135275390D01*
X165072557Y-135275390D01*
X165072557Y-135561104D01*
X165076400Y-135600122D01*
X165079149Y-135606759D01*
X165079659Y-135613929D01*
X165093672Y-135650547D01*
X165188910Y-135841023D01*
X165199481Y-135857816D01*
X165201501Y-135862693D01*
X165206007Y-135868184D01*
X165209796Y-135874203D01*
X165213787Y-135877664D01*
X165226373Y-135893001D01*
X165321611Y-135988240D01*
X165336950Y-136000829D01*
X165340410Y-136004818D01*
X165346421Y-136008602D01*
X165351918Y-136013113D01*
X165356800Y-136015135D01*
X165373590Y-136025704D01*
X165564067Y-136120943D01*
X165568645Y-136122695D01*
X165108711Y-136779745D01*
X165089484Y-136813914D01*
X165072604Y-136890103D01*
X165086166Y-136966952D01*
X165128104Y-137032761D01*
X165192033Y-137077511D01*
X165268222Y-137094391D01*
X165345071Y-137080829D01*
X165410880Y-137038891D01*
X165436403Y-137009131D01*
X166043355Y-136142057D01*
X166215414Y-136142057D01*
X166215414Y-136894438D01*
X166219257Y-136933456D01*
X166249120Y-137005552D01*
X166304300Y-137060732D01*
X166376396Y-137090595D01*
X166454432Y-137090595D01*
X166526528Y-137060732D01*
X166581708Y-137005552D01*
X166611571Y-136933456D01*
X166615414Y-136894438D01*
X166615414Y-135275390D01*
X167072557Y-135275390D01*
X167072557Y-135561104D01*
X167076400Y-135600122D01*
X167079149Y-135606759D01*
X167079659Y-135613929D01*
X167093672Y-135650547D01*
X167188910Y-135841023D01*
X167199481Y-135857816D01*
X167201501Y-135862693D01*
X167206007Y-135868184D01*
X167209796Y-135874203D01*
X167213787Y-135877664D01*
X167226373Y-135893001D01*
X167321611Y-135988240D01*
X167336950Y-136000829D01*
X167340410Y-136004818D01*
X167346421Y-136008602D01*
X167351918Y-136013113D01*
X167356800Y-136015135D01*
X167373590Y-136025704D01*
X167564067Y-136120943D01*
X167568645Y-136122695D01*
X167108711Y-136779745D01*
X167089484Y-136813914D01*
X167072604Y-136890103D01*
X167086166Y-136966952D01*
X167128104Y-137032761D01*
X167192033Y-137077511D01*
X167268222Y-137094391D01*
X167345071Y-137080829D01*
X167410880Y-137038891D01*
X167436403Y-137009131D01*
X168043355Y-136142057D01*
X168215414Y-136142057D01*
X168215414Y-136894438D01*
X168219257Y-136933456D01*
X168249120Y-137005552D01*
X168304300Y-137060732D01*
X168376396Y-137090595D01*
X168454432Y-137090595D01*
X168526528Y-137060732D01*
X168581708Y-137005552D01*
X168611571Y-136933456D01*
X168615414Y-136894438D01*
X168615414Y-134894438D01*
X169167795Y-134894438D01*
X169167795Y-136513485D01*
X169171638Y-136552503D01*
X169174387Y-136559140D01*
X169174897Y-136566310D01*
X169188910Y-136602928D01*
X169284148Y-136793404D01*
X169294719Y-136810197D01*
X169296739Y-136815074D01*
X169301245Y-136820565D01*
X169305034Y-136826584D01*
X169309025Y-136830045D01*
X169321611Y-136845382D01*
X169416849Y-136940621D01*
X169432188Y-136953210D01*
X169435648Y-136957199D01*
X169441659Y-136960983D01*
X169447156Y-136965494D01*
X169452038Y-136967516D01*
X169468828Y-136978085D01*
X169659305Y-137073324D01*
X169695922Y-137087336D01*
X169703091Y-137087845D01*
X169709729Y-137090595D01*
X169748747Y-137094438D01*
X170129700Y-137094438D01*
X170168718Y-137090595D01*
X170175355Y-137087845D01*
X170182525Y-137087336D01*
X170219143Y-137073323D01*
X170409619Y-136978085D01*
X170426412Y-136967513D01*
X170431291Y-136965493D01*
X170436782Y-136960986D01*
X170442799Y-136957199D01*
X170446260Y-136953208D01*
X170461598Y-136940621D01*
X170556836Y-136845381D01*
X170569422Y-136830045D01*
X170573413Y-136826584D01*
X170577199Y-136820568D01*
X170581709Y-136815074D01*
X170583730Y-136810192D01*
X170594299Y-136793404D01*
X170689538Y-136602927D01*
X170703550Y-136566310D01*
X170704059Y-136559140D01*
X170706809Y-136552503D01*
X170710652Y-136513485D01*
X170710652Y-135045896D01*
X171171638Y-135045896D01*
X171171638Y-135123932D01*
X171201501Y-135196028D01*
X171256681Y-135251208D01*
X171328777Y-135281071D01*
X171406813Y-135281071D01*
X171478909Y-135251208D01*
X171509216Y-135226335D01*
X171571067Y-135164483D01*
X171781204Y-135094438D01*
X171906767Y-135094438D01*
X172116902Y-135164482D01*
X172251043Y-135298624D01*
X172321947Y-135440431D01*
X172405890Y-135776203D01*
X172405890Y-136012672D01*
X172321947Y-136348444D01*
X172251043Y-136490250D01*
X172116901Y-136624393D01*
X171906767Y-136694438D01*
X171781204Y-136694438D01*
X171571068Y-136624392D01*
X171509217Y-136562540D01*
X171478910Y-136537668D01*
X171406814Y-136507804D01*
X171328778Y-136507804D01*
X171256682Y-136537667D01*
X171201502Y-136592846D01*
X171171638Y-136664942D01*
X171171638Y-136742978D01*
X171201501Y-136815074D01*
X171226373Y-136845382D01*
X171321611Y-136940621D01*
X171351918Y-136965494D01*
X171358559Y-136968245D01*
X171363987Y-136972952D01*
X171399787Y-136988937D01*
X171685501Y-137084175D01*
X171704850Y-137088574D01*
X171709729Y-137090595D01*
X171716803Y-137091291D01*
X171723732Y-137092867D01*
X171728997Y-137092492D01*
X171748747Y-137094438D01*
X171939223Y-137094438D01*
X171958971Y-137092492D01*
X171964237Y-137092867D01*
X171971164Y-137091291D01*
X171978241Y-137090595D01*
X171983121Y-137088573D01*
X172002468Y-137084175D01*
X172288183Y-136988937D01*
X172323984Y-136972952D01*
X172329411Y-136968244D01*
X172336052Y-136965494D01*
X172366360Y-136940621D01*
X172556835Y-136750144D01*
X172569421Y-136734807D01*
X172573413Y-136731346D01*
X172577200Y-136725329D01*
X172581708Y-136719837D01*
X172583729Y-136714957D01*
X172594299Y-136698166D01*
X172689538Y-136507689D01*
X172690630Y-136504833D01*
X172691489Y-136503675D01*
X172697335Y-136487311D01*
X172703550Y-136471072D01*
X172703652Y-136469633D01*
X172704681Y-136466754D01*
X172799918Y-136085802D01*
X172800918Y-136079038D01*
X172802047Y-136076313D01*
X172803495Y-136061610D01*
X172805653Y-136047017D01*
X172805219Y-136044103D01*
X172805890Y-136037295D01*
X172805890Y-135751580D01*
X172805219Y-135744771D01*
X172805653Y-135741858D01*
X172803495Y-135727264D01*
X172802047Y-135712562D01*
X172800918Y-135709836D01*
X172799918Y-135703073D01*
X172704681Y-135322121D01*
X172703652Y-135319241D01*
X172703550Y-135317803D01*
X172697335Y-135301563D01*
X172691489Y-135285200D01*
X172690630Y-135284041D01*
X172689538Y-135281186D01*
X172594299Y-135090709D01*
X172583729Y-135073917D01*
X172581708Y-135069038D01*
X172577199Y-135063544D01*
X172573413Y-135057529D01*
X172569423Y-135054068D01*
X172556836Y-135038731D01*
X172366359Y-134848255D01*
X172336052Y-134823382D01*
X172329412Y-134820631D01*
X172323984Y-134815924D01*
X172288183Y-134799939D01*
X172002468Y-134704701D01*
X171983121Y-134700302D01*
X171978241Y-134698281D01*
X171971164Y-134697584D01*
X171964237Y-134696009D01*
X171958971Y-134696383D01*
X171939223Y-134694438D01*
X171748747Y-134694438D01*
X171728997Y-134696383D01*
X171723732Y-134696009D01*
X171716803Y-134697584D01*
X171709729Y-134698281D01*
X171704850Y-134700301D01*
X171685501Y-134704701D01*
X171399787Y-134799939D01*
X171363987Y-134815924D01*
X171358558Y-134820631D01*
X171351919Y-134823382D01*
X171321612Y-134848255D01*
X171226374Y-134943493D01*
X171201501Y-134973800D01*
X171171638Y-135045896D01*
X170710652Y-135045896D01*
X170710652Y-134894438D01*
X170706809Y-134855420D01*
X170676946Y-134783324D01*
X170621766Y-134728144D01*
X170549670Y-134698281D01*
X170471634Y-134698281D01*
X170399538Y-134728144D01*
X170344358Y-134783324D01*
X170314495Y-134855420D01*
X170310652Y-134894438D01*
X170310652Y-136466272D01*
X170251043Y-136585488D01*
X170201703Y-136634829D01*
X170082487Y-136694438D01*
X169795960Y-136694438D01*
X169676742Y-136634829D01*
X169627404Y-136585489D01*
X169567795Y-136466271D01*
X169567795Y-134894438D01*
X169563952Y-134855420D01*
X169534089Y-134783324D01*
X169478909Y-134728144D01*
X169406813Y-134698281D01*
X169328777Y-134698281D01*
X169256681Y-134728144D01*
X169201501Y-134783324D01*
X169171638Y-134855420D01*
X169167795Y-134894438D01*
X168615414Y-134894438D01*
X168611571Y-134855420D01*
X168581708Y-134783324D01*
X168526528Y-134728144D01*
X168454432Y-134698281D01*
X168415414Y-134694438D01*
X167653509Y-134694438D01*
X167614491Y-134698281D01*
X167607853Y-134701030D01*
X167600684Y-134701540D01*
X167564067Y-134715552D01*
X167373590Y-134810791D01*
X167356798Y-134821360D01*
X167351919Y-134823382D01*
X167346426Y-134827889D01*
X167340410Y-134831677D01*
X167336948Y-134835668D01*
X167321612Y-134848255D01*
X167226374Y-134943493D01*
X167213787Y-134958828D01*
X167209796Y-134962291D01*
X167206008Y-134968307D01*
X167201501Y-134973800D01*
X167199479Y-134978679D01*
X167188910Y-134995471D01*
X167093672Y-135185947D01*
X167079659Y-135222565D01*
X167079149Y-135229734D01*
X167076400Y-135236372D01*
X167072557Y-135275390D01*
X166615414Y-135275390D01*
X166615414Y-134894438D01*
X166611571Y-134855420D01*
X166581708Y-134783324D01*
X166526528Y-134728144D01*
X166454432Y-134698281D01*
X166415414Y-134694438D01*
X165653509Y-134694438D01*
X165614491Y-134698281D01*
X165607853Y-134701030D01*
X165600684Y-134701540D01*
X165564067Y-134715552D01*
X165373590Y-134810791D01*
X165356798Y-134821360D01*
X165351919Y-134823382D01*
X165346426Y-134827889D01*
X165340410Y-134831677D01*
X165336948Y-134835668D01*
X165321612Y-134848255D01*
X165226374Y-134943493D01*
X165213787Y-134958828D01*
X165209796Y-134962291D01*
X165206008Y-134968307D01*
X165201501Y-134973800D01*
X165199479Y-134978679D01*
X165188910Y-134995471D01*
X165093672Y-135185947D01*
X165079659Y-135222565D01*
X165079149Y-135229734D01*
X165076400Y-135236372D01*
X165072557Y-135275390D01*
X164615414Y-135275390D01*
X164615414Y-134894438D01*
X164611571Y-134855420D01*
X164581708Y-134783324D01*
X164526528Y-134728144D01*
X164454432Y-134698281D01*
X164415414Y-134694438D01*
X163463033Y-134694438D01*
X163424015Y-134698281D01*
X163351919Y-134728144D01*
X163296739Y-134783324D01*
X163266876Y-134855420D01*
X162802047Y-134855420D01*
X162791868Y-134830847D01*
X162784869Y-134805182D01*
X162777062Y-134795101D01*
X162772184Y-134783324D01*
X162753375Y-134764515D01*
X162737088Y-134743484D01*
X162726018Y-134737158D01*
X162717004Y-134728144D01*
X162692427Y-134717964D01*
X162669334Y-134704768D01*
X162656687Y-134703160D01*
X162644908Y-134698281D01*
X162618305Y-134698281D01*
X162591921Y-134694927D01*
X162579623Y-134698281D01*
X162566872Y-134698281D01*
X162542296Y-134708460D01*
X162516634Y-134715459D01*
X162506553Y-134723265D01*
X162494776Y-134728144D01*
X162475967Y-134746952D01*
X162454936Y-134763240D01*
X162443327Y-134779592D01*
X162439596Y-134783324D01*
X162438079Y-134786985D01*
X162432241Y-134795210D01*
X161663033Y-136141324D01*
X161663033Y-134894438D01*
X161659190Y-134855420D01*
X161629327Y-134783324D01*
X161574147Y-134728144D01*
X161502051Y-134698281D01*
X161424015Y-134698281D01*
X161351919Y-134728144D01*
X161296739Y-134783324D01*
X161266876Y-134855420D01*
X161263033Y-134894438D01*
X160992523Y-134894438D01*
X160992523Y-134855420D01*
X160962660Y-134783324D01*
X160907480Y-134728144D01*
X160835384Y-134698281D01*
X160796366Y-134694438D01*
X159653509Y-134694438D01*
X159614491Y-134698281D01*
X159542395Y-134728144D01*
X159487215Y-134783324D01*
X159457352Y-134855420D01*
X159235130Y-134855420D01*
X159235130Y-134472216D01*
X173028112Y-134472216D01*
X173028112Y-137316660D01*
G37*
D13*
X138371892Y-141733787D02*
X138443321Y-141876645D01*
X138443321Y-141876645D02*
X138443321Y-142090930D01*
X138443321Y-142090930D02*
X138371892Y-142305216D01*
X138371892Y-142305216D02*
X138229035Y-142448073D01*
X138229035Y-142448073D02*
X138086178Y-142519502D01*
X138086178Y-142519502D02*
X137800464Y-142590930D01*
X137800464Y-142590930D02*
X137586178Y-142590930D01*
X137586178Y-142590930D02*
X137300464Y-142519502D01*
X137300464Y-142519502D02*
X137157607Y-142448073D01*
X137157607Y-142448073D02*
X137014750Y-142305216D01*
X137014750Y-142305216D02*
X136943321Y-142090930D01*
X136943321Y-142090930D02*
X136943321Y-141948073D01*
X136943321Y-141948073D02*
X137014750Y-141733787D01*
X137014750Y-141733787D02*
X137086178Y-141662359D01*
X137086178Y-141662359D02*
X137586178Y-141662359D01*
X137586178Y-141662359D02*
X137586178Y-141948073D01*
X136943321Y-141019502D02*
X138443321Y-141019502D01*
X138443321Y-141019502D02*
X136943321Y-140162359D01*
X136943321Y-140162359D02*
X138443321Y-140162359D01*
X136943321Y-139448073D02*
X138443321Y-139448073D01*
X138443321Y-139448073D02*
X138443321Y-139090930D01*
X138443321Y-139090930D02*
X138371892Y-138876644D01*
X138371892Y-138876644D02*
X138229035Y-138733787D01*
X138229035Y-138733787D02*
X138086178Y-138662358D01*
X138086178Y-138662358D02*
X137800464Y-138590930D01*
X137800464Y-138590930D02*
X137586178Y-138590930D01*
X137586178Y-138590930D02*
X137300464Y-138662358D01*
X137300464Y-138662358D02*
X137157607Y-138733787D01*
X137157607Y-138733787D02*
X137014750Y-138876644D01*
X137014750Y-138876644D02*
X136943321Y-139090930D01*
X136943321Y-139090930D02*
X136943321Y-139448073D01*
D15*
X132986333Y-102535842D02*
X132804904Y-102596318D01*
X132804904Y-102596318D02*
X132502523Y-102596318D01*
X132502523Y-102596318D02*
X132381571Y-102535842D01*
X132381571Y-102535842D02*
X132321095Y-102475365D01*
X132321095Y-102475365D02*
X132260618Y-102354413D01*
X132260618Y-102354413D02*
X132260618Y-102233461D01*
X132260618Y-102233461D02*
X132321095Y-102112508D01*
X132321095Y-102112508D02*
X132381571Y-102052032D01*
X132381571Y-102052032D02*
X132502523Y-101991556D01*
X132502523Y-101991556D02*
X132744428Y-101931080D01*
X132744428Y-101931080D02*
X132865380Y-101870603D01*
X132865380Y-101870603D02*
X132925857Y-101810127D01*
X132925857Y-101810127D02*
X132986333Y-101689175D01*
X132986333Y-101689175D02*
X132986333Y-101568222D01*
X132986333Y-101568222D02*
X132925857Y-101447270D01*
X132925857Y-101447270D02*
X132865380Y-101386794D01*
X132865380Y-101386794D02*
X132744428Y-101326318D01*
X132744428Y-101326318D02*
X132442047Y-101326318D01*
X132442047Y-101326318D02*
X132260618Y-101386794D01*
X131837285Y-101326318D02*
X131534904Y-102596318D01*
X131534904Y-102596318D02*
X131292999Y-101689175D01*
X131292999Y-101689175D02*
X131051094Y-102596318D01*
X131051094Y-102596318D02*
X130748714Y-101326318D01*
X129720618Y-101749651D02*
X129720618Y-102596318D01*
X130022999Y-101265842D02*
X130325380Y-102172984D01*
X130325380Y-102172984D02*
X129539189Y-102172984D01*
X132986333Y-115535842D02*
X132804904Y-115596318D01*
X132804904Y-115596318D02*
X132502523Y-115596318D01*
X132502523Y-115596318D02*
X132381571Y-115535842D01*
X132381571Y-115535842D02*
X132321095Y-115475365D01*
X132321095Y-115475365D02*
X132260618Y-115354413D01*
X132260618Y-115354413D02*
X132260618Y-115233461D01*
X132260618Y-115233461D02*
X132321095Y-115112508D01*
X132321095Y-115112508D02*
X132381571Y-115052032D01*
X132381571Y-115052032D02*
X132502523Y-114991556D01*
X132502523Y-114991556D02*
X132744428Y-114931080D01*
X132744428Y-114931080D02*
X132865380Y-114870603D01*
X132865380Y-114870603D02*
X132925857Y-114810127D01*
X132925857Y-114810127D02*
X132986333Y-114689175D01*
X132986333Y-114689175D02*
X132986333Y-114568222D01*
X132986333Y-114568222D02*
X132925857Y-114447270D01*
X132925857Y-114447270D02*
X132865380Y-114386794D01*
X132865380Y-114386794D02*
X132744428Y-114326318D01*
X132744428Y-114326318D02*
X132442047Y-114326318D01*
X132442047Y-114326318D02*
X132260618Y-114386794D01*
X131837285Y-114326318D02*
X131534904Y-115596318D01*
X131534904Y-115596318D02*
X131292999Y-114689175D01*
X131292999Y-114689175D02*
X131051094Y-115596318D01*
X131051094Y-115596318D02*
X130748714Y-114326318D01*
X129660142Y-114326318D02*
X130264904Y-114326318D01*
X130264904Y-114326318D02*
X130325380Y-114931080D01*
X130325380Y-114931080D02*
X130264904Y-114870603D01*
X130264904Y-114870603D02*
X130143951Y-114810127D01*
X130143951Y-114810127D02*
X129841570Y-114810127D01*
X129841570Y-114810127D02*
X129720618Y-114870603D01*
X129720618Y-114870603D02*
X129660142Y-114931080D01*
X129660142Y-114931080D02*
X129599665Y-115052032D01*
X129599665Y-115052032D02*
X129599665Y-115354413D01*
X129599665Y-115354413D02*
X129660142Y-115475365D01*
X129660142Y-115475365D02*
X129720618Y-115535842D01*
X129720618Y-115535842D02*
X129841570Y-115596318D01*
X129841570Y-115596318D02*
X130143951Y-115596318D01*
X130143951Y-115596318D02*
X130264904Y-115535842D01*
X130264904Y-115535842D02*
X130325380Y-115475365D01*
D10*
X166333333Y-40454819D02*
X166333333Y-41169104D01*
X166333333Y-41169104D02*
X166380952Y-41311961D01*
X166380952Y-41311961D02*
X166476190Y-41407200D01*
X166476190Y-41407200D02*
X166619047Y-41454819D01*
X166619047Y-41454819D02*
X166714285Y-41454819D01*
X165428571Y-40454819D02*
X165619047Y-40454819D01*
X165619047Y-40454819D02*
X165714285Y-40502438D01*
X165714285Y-40502438D02*
X165761904Y-40550057D01*
X165761904Y-40550057D02*
X165857142Y-40692914D01*
X165857142Y-40692914D02*
X165904761Y-40883390D01*
X165904761Y-40883390D02*
X165904761Y-41264342D01*
X165904761Y-41264342D02*
X165857142Y-41359580D01*
X165857142Y-41359580D02*
X165809523Y-41407200D01*
X165809523Y-41407200D02*
X165714285Y-41454819D01*
X165714285Y-41454819D02*
X165523809Y-41454819D01*
X165523809Y-41454819D02*
X165428571Y-41407200D01*
X165428571Y-41407200D02*
X165380952Y-41359580D01*
X165380952Y-41359580D02*
X165333333Y-41264342D01*
X165333333Y-41264342D02*
X165333333Y-41026247D01*
X165333333Y-41026247D02*
X165380952Y-40931009D01*
X165380952Y-40931009D02*
X165428571Y-40883390D01*
X165428571Y-40883390D02*
X165523809Y-40835771D01*
X165523809Y-40835771D02*
X165714285Y-40835771D01*
X165714285Y-40835771D02*
X165809523Y-40883390D01*
X165809523Y-40883390D02*
X165857142Y-40931009D01*
X165857142Y-40931009D02*
X165904761Y-41026247D01*
D14*
X124879700Y-40654438D02*
X124498747Y-40654438D01*
X124498747Y-40654438D02*
X124308271Y-40749676D01*
X124308271Y-40749676D02*
X124117795Y-40940152D01*
X124117795Y-40940152D02*
X124022557Y-41321104D01*
X124022557Y-41321104D02*
X124022557Y-41987771D01*
X124022557Y-41987771D02*
X124117795Y-42368723D01*
X124117795Y-42368723D02*
X124308271Y-42559200D01*
X124308271Y-42559200D02*
X124498747Y-42654438D01*
X124498747Y-42654438D02*
X124879700Y-42654438D01*
X124879700Y-42654438D02*
X125070176Y-42559200D01*
X125070176Y-42559200D02*
X125260652Y-42368723D01*
X125260652Y-42368723D02*
X125355890Y-41987771D01*
X125355890Y-41987771D02*
X125355890Y-41321104D01*
X125355890Y-41321104D02*
X125260652Y-40940152D01*
X125260652Y-40940152D02*
X125070176Y-40749676D01*
X125070176Y-40749676D02*
X124879700Y-40654438D01*
X122498747Y-41606819D02*
X123165414Y-41606819D01*
X123165414Y-42654438D02*
X123165414Y-40654438D01*
X123165414Y-40654438D02*
X122213033Y-40654438D01*
X120784461Y-41606819D02*
X121451128Y-41606819D01*
X121451128Y-42654438D02*
X121451128Y-40654438D01*
X121451128Y-40654438D02*
X120498747Y-40654438D01*
X124879700Y-36654438D02*
X124498747Y-36654438D01*
X124498747Y-36654438D02*
X124308271Y-36749676D01*
X124308271Y-36749676D02*
X124117795Y-36940152D01*
X124117795Y-36940152D02*
X124022557Y-37321104D01*
X124022557Y-37321104D02*
X124022557Y-37987771D01*
X124022557Y-37987771D02*
X124117795Y-38368723D01*
X124117795Y-38368723D02*
X124308271Y-38559200D01*
X124308271Y-38559200D02*
X124498747Y-38654438D01*
X124498747Y-38654438D02*
X124879700Y-38654438D01*
X124879700Y-38654438D02*
X125070176Y-38559200D01*
X125070176Y-38559200D02*
X125260652Y-38368723D01*
X125260652Y-38368723D02*
X125355890Y-37987771D01*
X125355890Y-37987771D02*
X125355890Y-37321104D01*
X125355890Y-37321104D02*
X125260652Y-36940152D01*
X125260652Y-36940152D02*
X125070176Y-36749676D01*
X125070176Y-36749676D02*
X124879700Y-36654438D01*
X123165414Y-38654438D02*
X123165414Y-36654438D01*
X123165414Y-36654438D02*
X122022557Y-38654438D01*
X122022557Y-38654438D02*
X122022557Y-36654438D01*
D15*
X132986333Y-129535842D02*
X132804904Y-129596318D01*
X132804904Y-129596318D02*
X132502523Y-129596318D01*
X132502523Y-129596318D02*
X132381571Y-129535842D01*
X132381571Y-129535842D02*
X132321095Y-129475365D01*
X132321095Y-129475365D02*
X132260618Y-129354413D01*
X132260618Y-129354413D02*
X132260618Y-129233461D01*
X132260618Y-129233461D02*
X132321095Y-129112508D01*
X132321095Y-129112508D02*
X132381571Y-129052032D01*
X132381571Y-129052032D02*
X132502523Y-128991556D01*
X132502523Y-128991556D02*
X132744428Y-128931080D01*
X132744428Y-128931080D02*
X132865380Y-128870603D01*
X132865380Y-128870603D02*
X132925857Y-128810127D01*
X132925857Y-128810127D02*
X132986333Y-128689175D01*
X132986333Y-128689175D02*
X132986333Y-128568222D01*
X132986333Y-128568222D02*
X132925857Y-128447270D01*
X132925857Y-128447270D02*
X132865380Y-128386794D01*
X132865380Y-128386794D02*
X132744428Y-128326318D01*
X132744428Y-128326318D02*
X132442047Y-128326318D01*
X132442047Y-128326318D02*
X132260618Y-128386794D01*
X131837285Y-128326318D02*
X131534904Y-129596318D01*
X131534904Y-129596318D02*
X131292999Y-128689175D01*
X131292999Y-128689175D02*
X131051094Y-129596318D01*
X131051094Y-129596318D02*
X130748714Y-128326318D01*
X130385856Y-128326318D02*
X129539189Y-128326318D01*
X129539189Y-128326318D02*
X130083475Y-129596318D01*
D10*
X149514285Y-67254819D02*
X149514285Y-66254819D01*
X149514285Y-66254819D02*
X149276190Y-66254819D01*
X149276190Y-66254819D02*
X149133333Y-66302438D01*
X149133333Y-66302438D02*
X149038095Y-66397676D01*
X149038095Y-66397676D02*
X148990476Y-66492914D01*
X148990476Y-66492914D02*
X148942857Y-66683390D01*
X148942857Y-66683390D02*
X148942857Y-66826247D01*
X148942857Y-66826247D02*
X148990476Y-67016723D01*
X148990476Y-67016723D02*
X149038095Y-67111961D01*
X149038095Y-67111961D02*
X149133333Y-67207200D01*
X149133333Y-67207200D02*
X149276190Y-67254819D01*
X149276190Y-67254819D02*
X149514285Y-67254819D01*
X148561904Y-67207200D02*
X148419047Y-67254819D01*
X148419047Y-67254819D02*
X148180952Y-67254819D01*
X148180952Y-67254819D02*
X148085714Y-67207200D01*
X148085714Y-67207200D02*
X148038095Y-67159580D01*
X148038095Y-67159580D02*
X147990476Y-67064342D01*
X147990476Y-67064342D02*
X147990476Y-66969104D01*
X147990476Y-66969104D02*
X148038095Y-66873866D01*
X148038095Y-66873866D02*
X148085714Y-66826247D01*
X148085714Y-66826247D02*
X148180952Y-66778628D01*
X148180952Y-66778628D02*
X148371428Y-66731009D01*
X148371428Y-66731009D02*
X148466666Y-66683390D01*
X148466666Y-66683390D02*
X148514285Y-66635771D01*
X148514285Y-66635771D02*
X148561904Y-66540533D01*
X148561904Y-66540533D02*
X148561904Y-66445295D01*
X148561904Y-66445295D02*
X148514285Y-66350057D01*
X148514285Y-66350057D02*
X148466666Y-66302438D01*
X148466666Y-66302438D02*
X148371428Y-66254819D01*
X148371428Y-66254819D02*
X148133333Y-66254819D01*
X148133333Y-66254819D02*
X147990476Y-66302438D01*
X147561904Y-67254819D02*
X147561904Y-66254819D01*
X147561904Y-66254819D02*
X147180952Y-66254819D01*
X147180952Y-66254819D02*
X147085714Y-66302438D01*
X147085714Y-66302438D02*
X147038095Y-66350057D01*
X147038095Y-66350057D02*
X146990476Y-66445295D01*
X146990476Y-66445295D02*
X146990476Y-66588152D01*
X146990476Y-66588152D02*
X147038095Y-66683390D01*
X147038095Y-66683390D02*
X147085714Y-66731009D01*
X147085714Y-66731009D02*
X147180952Y-66778628D01*
X147180952Y-66778628D02*
X147561904Y-66778628D01*
X146038095Y-67254819D02*
X146609523Y-67254819D01*
X146323809Y-67254819D02*
X146323809Y-66254819D01*
X146323809Y-66254819D02*
X146419047Y-66397676D01*
X146419047Y-66397676D02*
X146514285Y-66492914D01*
X146514285Y-66492914D02*
X146609523Y-66540533D01*
D15*
X167967619Y-105767318D02*
X167967619Y-106795413D01*
X167967619Y-106795413D02*
X167907142Y-106916365D01*
X167907142Y-106916365D02*
X167846666Y-106976842D01*
X167846666Y-106976842D02*
X167725714Y-107037318D01*
X167725714Y-107037318D02*
X167483809Y-107037318D01*
X167483809Y-107037318D02*
X167362857Y-106976842D01*
X167362857Y-106976842D02*
X167302380Y-106916365D01*
X167302380Y-106916365D02*
X167241904Y-106795413D01*
X167241904Y-106795413D02*
X167241904Y-105767318D01*
X166092857Y-106190651D02*
X166092857Y-107037318D01*
X166395238Y-105706842D02*
X166697619Y-106613984D01*
X166697619Y-106613984D02*
X165911428Y-106613984D01*
D10*
X153333333Y-40454819D02*
X153333333Y-41169104D01*
X153333333Y-41169104D02*
X153380952Y-41311961D01*
X153380952Y-41311961D02*
X153476190Y-41407200D01*
X153476190Y-41407200D02*
X153619047Y-41454819D01*
X153619047Y-41454819D02*
X153714285Y-41454819D01*
X152380952Y-40454819D02*
X152857142Y-40454819D01*
X152857142Y-40454819D02*
X152904761Y-40931009D01*
X152904761Y-40931009D02*
X152857142Y-40883390D01*
X152857142Y-40883390D02*
X152761904Y-40835771D01*
X152761904Y-40835771D02*
X152523809Y-40835771D01*
X152523809Y-40835771D02*
X152428571Y-40883390D01*
X152428571Y-40883390D02*
X152380952Y-40931009D01*
X152380952Y-40931009D02*
X152333333Y-41026247D01*
X152333333Y-41026247D02*
X152333333Y-41264342D01*
X152333333Y-41264342D02*
X152380952Y-41359580D01*
X152380952Y-41359580D02*
X152428571Y-41407200D01*
X152428571Y-41407200D02*
X152523809Y-41454819D01*
X152523809Y-41454819D02*
X152761904Y-41454819D01*
X152761904Y-41454819D02*
X152857142Y-41407200D01*
X152857142Y-41407200D02*
X152904761Y-41359580D01*
D15*
X153986333Y-129235842D02*
X153804904Y-129296318D01*
X153804904Y-129296318D02*
X153502523Y-129296318D01*
X153502523Y-129296318D02*
X153381571Y-129235842D01*
X153381571Y-129235842D02*
X153321095Y-129175365D01*
X153321095Y-129175365D02*
X153260618Y-129054413D01*
X153260618Y-129054413D02*
X153260618Y-128933461D01*
X153260618Y-128933461D02*
X153321095Y-128812508D01*
X153321095Y-128812508D02*
X153381571Y-128752032D01*
X153381571Y-128752032D02*
X153502523Y-128691556D01*
X153502523Y-128691556D02*
X153744428Y-128631080D01*
X153744428Y-128631080D02*
X153865380Y-128570603D01*
X153865380Y-128570603D02*
X153925857Y-128510127D01*
X153925857Y-128510127D02*
X153986333Y-128389175D01*
X153986333Y-128389175D02*
X153986333Y-128268222D01*
X153986333Y-128268222D02*
X153925857Y-128147270D01*
X153925857Y-128147270D02*
X153865380Y-128086794D01*
X153865380Y-128086794D02*
X153744428Y-128026318D01*
X153744428Y-128026318D02*
X153442047Y-128026318D01*
X153442047Y-128026318D02*
X153260618Y-128086794D01*
X152837285Y-128026318D02*
X152534904Y-129296318D01*
X152534904Y-129296318D02*
X152292999Y-128389175D01*
X152292999Y-128389175D02*
X152051094Y-129296318D01*
X152051094Y-129296318D02*
X151748714Y-128026318D01*
X151083475Y-128570603D02*
X151204427Y-128510127D01*
X151204427Y-128510127D02*
X151264904Y-128449651D01*
X151264904Y-128449651D02*
X151325380Y-128328699D01*
X151325380Y-128328699D02*
X151325380Y-128268222D01*
X151325380Y-128268222D02*
X151264904Y-128147270D01*
X151264904Y-128147270D02*
X151204427Y-128086794D01*
X151204427Y-128086794D02*
X151083475Y-128026318D01*
X151083475Y-128026318D02*
X150841570Y-128026318D01*
X150841570Y-128026318D02*
X150720618Y-128086794D01*
X150720618Y-128086794D02*
X150660142Y-128147270D01*
X150660142Y-128147270D02*
X150599665Y-128268222D01*
X150599665Y-128268222D02*
X150599665Y-128328699D01*
X150599665Y-128328699D02*
X150660142Y-128449651D01*
X150660142Y-128449651D02*
X150720618Y-128510127D01*
X150720618Y-128510127D02*
X150841570Y-128570603D01*
X150841570Y-128570603D02*
X151083475Y-128570603D01*
X151083475Y-128570603D02*
X151204427Y-128631080D01*
X151204427Y-128631080D02*
X151264904Y-128691556D01*
X151264904Y-128691556D02*
X151325380Y-128812508D01*
X151325380Y-128812508D02*
X151325380Y-129054413D01*
X151325380Y-129054413D02*
X151264904Y-129175365D01*
X151264904Y-129175365D02*
X151204427Y-129235842D01*
X151204427Y-129235842D02*
X151083475Y-129296318D01*
X151083475Y-129296318D02*
X150841570Y-129296318D01*
X150841570Y-129296318D02*
X150720618Y-129235842D01*
X150720618Y-129235842D02*
X150660142Y-129175365D01*
X150660142Y-129175365D02*
X150599665Y-129054413D01*
X150599665Y-129054413D02*
X150599665Y-128812508D01*
X150599665Y-128812508D02*
X150660142Y-128691556D01*
X150660142Y-128691556D02*
X150720618Y-128631080D01*
X150720618Y-128631080D02*
X150841570Y-128570603D01*
X167986333Y-129235842D02*
X167804904Y-129296318D01*
X167804904Y-129296318D02*
X167502523Y-129296318D01*
X167502523Y-129296318D02*
X167381571Y-129235842D01*
X167381571Y-129235842D02*
X167321095Y-129175365D01*
X167321095Y-129175365D02*
X167260618Y-129054413D01*
X167260618Y-129054413D02*
X167260618Y-128933461D01*
X167260618Y-128933461D02*
X167321095Y-128812508D01*
X167321095Y-128812508D02*
X167381571Y-128752032D01*
X167381571Y-128752032D02*
X167502523Y-128691556D01*
X167502523Y-128691556D02*
X167744428Y-128631080D01*
X167744428Y-128631080D02*
X167865380Y-128570603D01*
X167865380Y-128570603D02*
X167925857Y-128510127D01*
X167925857Y-128510127D02*
X167986333Y-128389175D01*
X167986333Y-128389175D02*
X167986333Y-128268222D01*
X167986333Y-128268222D02*
X167925857Y-128147270D01*
X167925857Y-128147270D02*
X167865380Y-128086794D01*
X167865380Y-128086794D02*
X167744428Y-128026318D01*
X167744428Y-128026318D02*
X167442047Y-128026318D01*
X167442047Y-128026318D02*
X167260618Y-128086794D01*
X166837285Y-128026318D02*
X166534904Y-129296318D01*
X166534904Y-129296318D02*
X166292999Y-128389175D01*
X166292999Y-128389175D02*
X166051094Y-129296318D01*
X166051094Y-129296318D02*
X165748714Y-128026318D01*
X164720618Y-128026318D02*
X164962523Y-128026318D01*
X164962523Y-128026318D02*
X165083475Y-128086794D01*
X165083475Y-128086794D02*
X165143951Y-128147270D01*
X165143951Y-128147270D02*
X165264904Y-128328699D01*
X165264904Y-128328699D02*
X165325380Y-128570603D01*
X165325380Y-128570603D02*
X165325380Y-129054413D01*
X165325380Y-129054413D02*
X165264904Y-129175365D01*
X165264904Y-129175365D02*
X165204427Y-129235842D01*
X165204427Y-129235842D02*
X165083475Y-129296318D01*
X165083475Y-129296318D02*
X164841570Y-129296318D01*
X164841570Y-129296318D02*
X164720618Y-129235842D01*
X164720618Y-129235842D02*
X164660142Y-129175365D01*
X164660142Y-129175365D02*
X164599665Y-129054413D01*
X164599665Y-129054413D02*
X164599665Y-128752032D01*
X164599665Y-128752032D02*
X164660142Y-128631080D01*
X164660142Y-128631080D02*
X164720618Y-128570603D01*
X164720618Y-128570603D02*
X164841570Y-128510127D01*
X164841570Y-128510127D02*
X165083475Y-128510127D01*
X165083475Y-128510127D02*
X165204427Y-128570603D01*
X165204427Y-128570603D02*
X165264904Y-128631080D01*
X165264904Y-128631080D02*
X165325380Y-128752032D01*
D16*
%TO.C,SW4*%
X128000000Y-99000000D02*
X134000000Y-99000000D01*
X128000000Y-105000000D02*
X128000000Y-99000000D01*
X134000000Y-99000000D02*
X134000000Y-105000000D01*
X134000000Y-105000000D02*
X128000000Y-105000000D01*
X128802000Y-95461000D02*
G75*
G02*
X128698000Y-95461000I-52000J0D01*
G01*
X128698000Y-95461000D02*
G75*
G02*
X128802000Y-95461000I52000J0D01*
G01*
%TO.C,SW5*%
X128000000Y-112000000D02*
X134000000Y-112000000D01*
X128000000Y-118000000D02*
X128000000Y-112000000D01*
X134000000Y-112000000D02*
X134000000Y-118000000D01*
X134000000Y-118000000D02*
X128000000Y-118000000D01*
X128802000Y-108461000D02*
G75*
G02*
X128698000Y-108461000I-52000J0D01*
G01*
X128698000Y-108461000D02*
G75*
G02*
X128802000Y-108461000I52000J0D01*
G01*
%TO.C,J6*%
D17*
X171000000Y-35500000D02*
X161000000Y-35500000D01*
X161000000Y-48000000D01*
X171000000Y-48000000D01*
X171000000Y-35500000D01*
D18*
%TO.C,SW3*%
X126200000Y-33650000D02*
X127500000Y-33650000D01*
X126200000Y-45750000D02*
X126200000Y-33650000D01*
X127500000Y-45750000D02*
X126200000Y-45750000D01*
X130500000Y-33650000D02*
X131800000Y-33650000D01*
X131800000Y-33650000D02*
X131800000Y-45750000D01*
X131800000Y-45750000D02*
X130500000Y-45750000D01*
D17*
%TO.C,P1*%
X135470000Y-38575000D02*
X135470000Y-34575000D01*
X135760000Y-33585000D02*
X146140000Y-33585000D01*
X135760000Y-39605000D02*
X135760000Y-33585000D01*
X136340000Y-39005000D02*
X137940000Y-39005000D01*
X136340000Y-39605000D02*
X136340000Y-39005000D01*
X137140000Y-33585000D02*
X137140000Y-34585000D01*
X137140000Y-34585000D02*
X137390000Y-35115000D01*
X137140000Y-34585000D02*
X144760000Y-34585000D01*
X137390000Y-33585000D02*
X137390000Y-34585000D01*
X137390000Y-35115000D02*
X144510000Y-35115000D01*
X137940000Y-39005000D02*
X137940000Y-39605000D01*
X138880000Y-39005000D02*
X140480000Y-39005000D01*
X138880000Y-39605000D02*
X138880000Y-39005000D01*
X140480000Y-39005000D02*
X140480000Y-39605000D01*
X141420000Y-39005000D02*
X143020000Y-39005000D01*
X141420000Y-39605000D02*
X141420000Y-39005000D01*
X143020000Y-39005000D02*
X143020000Y-39605000D01*
X143960000Y-39005000D02*
X145560000Y-39005000D01*
X143960000Y-39605000D02*
X143960000Y-39005000D01*
X144510000Y-33585000D02*
X144510000Y-34585000D01*
X144510000Y-35115000D02*
X144760000Y-34585000D01*
X144760000Y-34585000D02*
X144760000Y-33585000D01*
X145560000Y-39005000D02*
X145560000Y-39605000D01*
X146140000Y-33585000D02*
X146140000Y-39605000D01*
X146140000Y-39605000D02*
X135760000Y-39605000D01*
%TO.C,DS1*%
X126465000Y-47365000D02*
X130350000Y-47365000D01*
X126465000Y-49635000D02*
X126465000Y-47365000D01*
X130350000Y-49635000D02*
X126465000Y-49635000D01*
D16*
%TO.C,SW7*%
X128000000Y-126000000D02*
X134000000Y-126000000D01*
X128000000Y-132000000D02*
X128000000Y-126000000D01*
X134000000Y-126000000D02*
X134000000Y-132000000D01*
X134000000Y-132000000D02*
X128000000Y-132000000D01*
X128802000Y-122461000D02*
G75*
G02*
X128698000Y-122461000I-52000J0D01*
G01*
X128698000Y-122461000D02*
G75*
G02*
X128802000Y-122461000I52000J0D01*
G01*
D18*
%TO.C,DSP1*%
X118300000Y-53550000D02*
X118300000Y-89300000D01*
D17*
X118300000Y-89300000D02*
X139550000Y-89300000D01*
D18*
X156050000Y-89300000D02*
X177300000Y-89300000D01*
X175300000Y-51300000D02*
X120550000Y-51300000D01*
X177300000Y-89300000D02*
X177300000Y-53550000D01*
D17*
X172800000Y-54800000D02*
X122800000Y-54800000D01*
X122800000Y-79800000D01*
X172800000Y-79800000D01*
X172800000Y-54800000D01*
D18*
%TO.C,U4*%
X160750000Y-100750000D02*
X166000000Y-100750000D01*
X160750000Y-113250000D02*
X173250000Y-113250000D01*
X173250000Y-100750000D02*
X168000000Y-100750000D01*
D19*
X173783000Y-102781000D02*
X173783000Y-102781000D01*
X173835000Y-102781000D02*
X173835000Y-102781000D01*
X173783000Y-102781000D02*
G75*
G02*
X173835000Y-102781000I26000J0D01*
G01*
X173835000Y-102781000D02*
G75*
G02*
X173783000Y-102781000I-26000J0D01*
G01*
%TO.C,J5*%
D17*
X158000000Y-35500000D02*
X148000000Y-35500000D01*
X148000000Y-48000000D01*
X158000000Y-48000000D01*
X158000000Y-35500000D01*
%TO.C,P2*%
X135470000Y-48375000D02*
X135470000Y-44375000D01*
X135760000Y-43385000D02*
X146140000Y-43385000D01*
X135760000Y-49405000D02*
X135760000Y-43385000D01*
X136340000Y-48805000D02*
X137940000Y-48805000D01*
X136340000Y-49405000D02*
X136340000Y-48805000D01*
X137140000Y-43385000D02*
X137140000Y-44385000D01*
X137140000Y-44385000D02*
X137390000Y-44915000D01*
X137140000Y-44385000D02*
X144760000Y-44385000D01*
X137390000Y-43385000D02*
X137390000Y-44385000D01*
X137390000Y-44915000D02*
X144510000Y-44915000D01*
X137940000Y-48805000D02*
X137940000Y-49405000D01*
X138880000Y-48805000D02*
X140480000Y-48805000D01*
X138880000Y-49405000D02*
X138880000Y-48805000D01*
X140480000Y-48805000D02*
X140480000Y-49405000D01*
X141420000Y-48805000D02*
X143020000Y-48805000D01*
X141420000Y-49405000D02*
X141420000Y-48805000D01*
X143020000Y-48805000D02*
X143020000Y-49405000D01*
X143960000Y-48805000D02*
X145560000Y-48805000D01*
X143960000Y-49405000D02*
X143960000Y-48805000D01*
X144510000Y-43385000D02*
X144510000Y-44385000D01*
X144510000Y-44915000D02*
X144760000Y-44385000D01*
X144760000Y-44385000D02*
X144760000Y-43385000D01*
X145560000Y-48805000D02*
X145560000Y-49405000D01*
X146140000Y-43385000D02*
X146140000Y-49405000D01*
X146140000Y-49405000D02*
X135760000Y-49405000D01*
D16*
%TO.C,SW8*%
X149000000Y-125700000D02*
X155000000Y-125700000D01*
X149000000Y-131700000D02*
X149000000Y-125700000D01*
X155000000Y-125700000D02*
X155000000Y-131700000D01*
X155000000Y-131700000D02*
X149000000Y-131700000D01*
X149802000Y-122161000D02*
G75*
G02*
X149698000Y-122161000I-52000J0D01*
G01*
X149698000Y-122161000D02*
G75*
G02*
X149802000Y-122161000I52000J0D01*
G01*
%TO.C,SW6*%
X163000000Y-125700000D02*
X169000000Y-125700000D01*
X163000000Y-131700000D02*
X163000000Y-125700000D01*
X169000000Y-125700000D02*
X169000000Y-131700000D01*
X169000000Y-131700000D02*
X163000000Y-131700000D01*
X163802000Y-122161000D02*
G75*
G02*
X163698000Y-122161000I-52000J0D01*
G01*
X163698000Y-122161000D02*
G75*
G02*
X163802000Y-122161000I52000J0D01*
G01*
%TD*%
M02*
