M48
; DRILL file {KiCad 9.0.4} date 2025-09-20T10:08:04-0400
; FORMAT={-:-/ absolute / inch / decimal}
; #@! TF.CreationDate,2025-09-20T10:08:04-04:00
; #@! TF.GenerationSoftware,Kicad,Pcbnew,9.0.4
; #@! TF.FileFunction,Plated,1,4,PTH
FMAT,2
INCH
; #@! TA.AperFunction,Plated,PTH,ViaDrill
T1C0.0118
; #@! TA.AperFunction,Plated,PTH,ViaDrill
T2C0.0157
; #@! TA.AperFunction,Plated,PTH,ComponentDrill
T3C0.0236
; #@! TA.AperFunction,Plated,PTH,ComponentDrill
T4C0.0394
; #@! TA.AperFunction,Plated,PTH,ComponentDrill
T5C0.0433
; #@! TA.AperFunction,Plated,PTH,ComponentDrill
T6C0.0469
; #@! TA.AperFunction,Plated,PTH,ComponentDrill
T7C0.0492
; #@! TA.AperFunction,Plated,PTH,ComponentDrill
T8C0.0591
%
G90
G05
T1
X6.3429Y-2.8055
X6.3599Y-3.0512
X6.3678Y-2.9537
X6.3724Y-2.7717
X6.7025Y-3.2402
X6.7051Y-3.1078
X6.7143Y-2.7677
X6.7195Y-2.8484
X6.7204Y-3.045
X6.7206Y-2.8095
X6.73Y-3.0098
X6.7421Y-3.0826
T2
X4.685Y-4.498
X4.7343Y-3.4449
X4.7362Y-3.1969
X4.7441Y-2.7402
X4.7441Y-4.7736
X4.7598Y-2.6772
X4.7638Y-4.8622
X4.7835Y-4.439
X4.8031Y-4.1732
X4.8071Y-2.7402
X4.813Y-4.4094
X4.8228Y-5.0787
X4.8327Y-4.2815
X4.8327Y-4.6949
X4.8425Y-4.3799
X4.8583Y-4.626
X4.8917Y-5.1476
X4.8995Y-4.4656
X4.9016Y-4.6299
X4.9213Y-1.877
X4.9242Y-1.9419
X4.9409Y-4.8327
X4.9636Y-4.4655
X5.0029Y-3.0787
X5.0069Y-5.0689
X5.0079Y-4.685
X5.0098Y-4.7244
X5.0394Y-3.1624
X5.0492Y-4.9705
X5.0669Y-2.8386
X5.0669Y-3.0354
X5.0679Y-5.0689
X5.0689Y-3.7795
X5.0906Y-3.3622
X5.1004Y-4.7756
X5.1083Y-3.9272
X5.1142Y-4.626
X5.1181Y-2.9213
X5.1181Y-2.9606
X5.1181Y-4.4606
X5.1476Y-4.1339
X5.1575Y-4.1732
X5.1654Y-2.9213
X5.1654Y-2.9606
X5.1687Y-4.2068
X5.1889Y-4.6585
X5.2165Y-2.9213
X5.2165Y-2.9606
X5.2165Y-4.0354
X5.2165Y-5.1476
X5.2264Y-4.7736
X5.2461Y-4.6417
X5.2559Y-3.6713
X5.2559Y-5.1083
X5.2677Y-2.9213
X5.2677Y-2.9606
X5.2854Y-3.1309
X5.2874Y-4.4606
X5.2874Y-4.5984
X5.2953Y-4.2028
X5.2953Y-4.8228
X5.3051Y-4.5079
X5.3065Y-4.2364
X5.3117Y-4.3136
X5.315Y-3.6713
X5.3346Y-4.3406
X5.3346Y-4.9213
X5.3642Y-4.2717
X5.374Y-1.9488
X5.3839Y-2.2835
X5.4159Y-4.4809
X5.4331Y-4.2323
X5.4409Y-4.3406
X5.4449Y-2.9764
X5.4528Y-3.3071
X5.4823Y-4.0059
X5.502Y-3.3858
X5.5236Y-2.1772
X5.5413Y-4.6161
X5.5433Y-1.9882
X5.5591Y-2.0354
X5.5709Y-2.9429
X5.5807Y-3.9764
X5.5906Y-2.0768
X5.6004Y-4.5768
X5.624Y-2.1634
X5.6299Y-4.9843
X5.6398Y-3.1299
X5.6555Y-5.1811
X5.6594Y-3.75
X5.6693Y-3.8386
X5.7087Y-5.4134
X5.7185Y-4.6358
X5.7283Y-4.1594
X5.7382Y-2.4606
X5.7382Y-3.1398
X5.7402Y-2.2559
X5.748Y-4.439
X5.7579Y-4.813
X5.7776Y-5.44
X5.7854Y-4.5965
X5.7874Y-3.878
X5.7992Y-2.3937
X5.8071Y-5.0492
X5.8366Y-1.9882
X5.8366Y-2.0768
X5.9016Y-2.1024
X6.0236Y-4.8031
X6.0925Y-3.9823
X6.1319Y-4.8228
X6.1614Y-3.4449
X6.1614Y-5.0551
X6.2008Y-2.5659
X6.2303Y-3.1693
X6.2402Y-3.2579
X6.25Y-1.9685
X6.25Y-2.0177
X6.2513Y-3.9088
X6.2598Y-3.1988
X6.2992Y-1.9685
X6.2992Y-2.0177
X6.2992Y-3.2185
X6.3391Y-3.0818
X6.4252Y-4.8189
X6.4882Y-4.1909
X6.5095Y-2.8346
X6.5095Y-2.9094
X6.5095Y-2.9724
X6.5095Y-3.0433
X6.5371Y-2.8701
X6.5371Y-2.9449
X6.5371Y-3.0039
X6.5551Y-3.7894
X6.5647Y-2.8346
X6.5647Y-3.0433
X6.5686Y-2.9094
X6.5686Y-2.9764
X6.6811Y-3.8504
X6.7421Y-3.563
X6.8504Y-2.9823
X6.8504Y-3.1004
X6.9488Y-1.7618
X7.0276Y-3.6319
X7.0276Y-4.4291
T4
X4.7047Y-3.8291
X4.7047Y-3.9291
X4.7047Y-4.0291
X4.7047Y-4.1291
X4.7047Y-4.2291
X4.7047Y-4.3291
X5.0787Y-1.4449
X5.0787Y-1.563
X5.0787Y-1.6811
X5.9252Y-1.5354
X5.9252Y-1.7323
X6.122Y-1.5354
X6.122Y-1.7323
X6.437Y-1.5354
X6.437Y-1.7323
X6.6339Y-1.5354
X6.6339Y-1.7323
T5
X6.3406Y-4.3484
X6.3563Y-4.0492
X6.5748Y-3.9429
X6.7933Y-4.0492
X6.7933Y-4.376
T6
X5.3992Y-1.44
X5.3992Y-1.8258
X5.4992Y-1.44
X5.4992Y-1.8258
X5.5992Y-1.44
X5.5992Y-1.8258
X5.6992Y-1.44
X5.6992Y-1.8258
T7
X4.685Y-2.0472
X6.9528Y-2.0472
T8
X5.0205Y-5.7028
X5.2205Y-5.7028
X5.4205Y-5.7028
T3
G00X6.3173Y-5.6378
M15
G01X6.3173Y-5.6614
M16
G05
G00X6.3173Y-5.7874
M15
G01X6.3173Y-5.811
M16
G05
G00X6.6575Y-5.6378
M15
G01X6.6575Y-5.6614
M16
G05
G00X6.6575Y-5.7874
M15
G01X6.6575Y-5.811
M16
G05
T4
G00X5.0935Y-1.3346
M15
G01X5.064Y-1.3346
M16
G05
G00X5.0935Y-1.7913
M15
G01X5.064Y-1.7913
M16
G05
G00X5.2874Y-3.4665
M15
G01X5.2283Y-3.4665
M16
G05
G00X6.4094Y-3.4665
M15
G01X6.3504Y-3.4665
M16
G05
T8
G00X6.3386Y-4.2323
M15
G01X6.3386Y-4.1929
M16
G05
G00X6.811Y-4.2323
M15
G01X6.811Y-4.1929
M16
G05
M30
