%TF.GenerationSoftware,KiCad,Pcbnew,9.0.4*%
%TF.CreationDate,2025-09-20T10:08:06-04:00*%
%TF.ProjectId,StepperControllerPCB,53746570-7065-4724-936f-6e74726f6c6c,rev?*%
%TF.SameCoordinates,Original*%
%TF.FileFunction,Paste,Top*%
%TF.FilePolarity,Positive*%
%FSLAX46Y46*%
G04 Gerber Fmt 4.6, Leading zero omitted, Abs format (unit mm)*
G04 Created by KiCad (PCBNEW 9.0.4) date 2025-09-20 10:08:06*
%MOMM*%
%LPD*%
G01*
G04 APERTURE LIST*
G04 Aperture macros list*
%AMRoundRect*
0 Rectangle with rounded corners*
0 $1 Rounding radius*
0 $2 $3 $4 $5 $6 $7 $8 $9 X,Y pos of 4 corners*
0 Add a 4 corners polygon primitive as box body*
4,1,4,$2,$3,$4,$5,$6,$7,$8,$9,$2,$3,0*
0 Add four circle primitives for the rounded corners*
1,1,$1+$1,$2,$3*
1,1,$1+$1,$4,$5*
1,1,$1+$1,$6,$7*
1,1,$1+$1,$8,$9*
0 Add four rect primitives between the rounded corners*
20,1,$1+$1,$2,$3,$4,$5,0*
20,1,$1+$1,$4,$5,$6,$7,0*
20,1,$1+$1,$6,$7,$8,$9,0*
20,1,$1+$1,$8,$9,$2,$3,0*%
G04 Aperture macros list end*
%ADD10R,2.100000X1.400000*%
%ADD11RoundRect,0.200000X-0.200000X-0.275000X0.200000X-0.275000X0.200000X0.275000X-0.200000X0.275000X0*%
%ADD12RoundRect,0.250000X0.325000X0.650000X-0.325000X0.650000X-0.325000X-0.650000X0.325000X-0.650000X0*%
%ADD13RoundRect,0.175000X-0.175000X-0.425000X0.175000X-0.425000X0.175000X0.425000X-0.175000X0.425000X0*%
%ADD14RoundRect,0.190000X0.190000X0.410000X-0.190000X0.410000X-0.190000X-0.410000X0.190000X-0.410000X0*%
%ADD15RoundRect,0.200000X0.200000X0.400000X-0.200000X0.400000X-0.200000X-0.400000X0.200000X-0.400000X0*%
%ADD16RoundRect,0.175000X0.175000X0.425000X-0.175000X0.425000X-0.175000X-0.425000X0.175000X-0.425000X0*%
%ADD17RoundRect,0.190000X-0.190000X-0.410000X0.190000X-0.410000X0.190000X0.410000X-0.190000X0.410000X0*%
%ADD18RoundRect,0.200000X-0.200000X-0.400000X0.200000X-0.400000X0.200000X0.400000X-0.200000X0.400000X0*%
%ADD19O,1.100000X1.700000*%
%ADD20RoundRect,0.200000X0.200000X0.275000X-0.200000X0.275000X-0.200000X-0.275000X0.200000X-0.275000X0*%
%ADD21RoundRect,0.250000X1.500000X1.000000X-1.500000X1.000000X-1.500000X-1.000000X1.500000X-1.000000X0*%
%ADD22RoundRect,0.225000X-0.250000X0.225000X-0.250000X-0.225000X0.250000X-0.225000X0.250000X0.225000X0*%
%ADD23RoundRect,0.225000X0.250000X-0.225000X0.250000X0.225000X-0.250000X0.225000X-0.250000X-0.225000X0*%
%ADD24R,1.100000X0.510000*%
%ADD25RoundRect,0.230000X-0.920000X-1.370000X0.920000X-1.370000X0.920000X1.370000X-0.920000X1.370000X0*%
%ADD26RoundRect,0.200000X0.275000X-0.200000X0.275000X0.200000X-0.275000X0.200000X-0.275000X-0.200000X0*%
%ADD27RoundRect,0.200000X-0.275000X0.200000X-0.275000X-0.200000X0.275000X-0.200000X0.275000X0.200000X0*%
%ADD28RoundRect,0.225000X0.225000X0.250000X-0.225000X0.250000X-0.225000X-0.250000X0.225000X-0.250000X0*%
%ADD29RoundRect,0.250000X-0.650000X0.325000X-0.650000X-0.325000X0.650000X-0.325000X0.650000X0.325000X0*%
%ADD30RoundRect,0.225000X-0.225000X-0.250000X0.225000X-0.250000X0.225000X0.250000X-0.225000X0.250000X0*%
%ADD31RoundRect,0.250000X-0.325000X-0.650000X0.325000X-0.650000X0.325000X0.650000X-0.325000X0.650000X0*%
%ADD32RoundRect,0.425000X0.425000X-1.375000X0.425000X1.375000X-0.425000X1.375000X-0.425000X-1.375000X0*%
%ADD33RoundRect,0.150000X0.150000X-0.825000X0.150000X0.825000X-0.150000X0.825000X-0.150000X-0.825000X0*%
%ADD34R,0.300000X1.300000*%
%ADD35R,2.000000X1.600000*%
%ADD36RoundRect,0.250000X0.312500X0.625000X-0.312500X0.625000X-0.312500X-0.625000X0.312500X-0.625000X0*%
%ADD37RoundRect,0.250000X0.650000X-1.000000X0.650000X1.000000X-0.650000X1.000000X-0.650000X-1.000000X0*%
%ADD38RoundRect,0.250000X2.000000X0.750000X-2.000000X0.750000X-2.000000X-0.750000X2.000000X-0.750000X0*%
%ADD39RoundRect,0.075000X0.075000X-0.662500X0.075000X0.662500X-0.075000X0.662500X-0.075000X-0.662500X0*%
%ADD40RoundRect,0.075000X0.662500X-0.075000X0.662500X0.075000X-0.662500X0.075000X-0.662500X-0.075000X0*%
%ADD41R,1.475000X0.450000*%
%ADD42R,2.400000X6.460000*%
G04 APERTURE END LIST*
D10*
%TO.C,SW2*%
X153100000Y-112600000D03*
X144000000Y-112600000D03*
X153100000Y-108100000D03*
X144000000Y-108100000D03*
%TD*%
D11*
%TO.C,R53*%
X165600000Y-119500000D03*
X167250000Y-119500000D03*
%TD*%
D12*
%TO.C,C16*%
X132975000Y-79525000D03*
X130025000Y-79525000D03*
%TD*%
D13*
%TO.C,J3*%
X164280000Y-143420000D03*
D14*
X166300000Y-143420000D03*
D15*
X167530000Y-143420000D03*
D16*
X165280000Y-143420000D03*
D17*
X163260000Y-143420000D03*
D18*
X162030000Y-143420000D03*
D19*
X160460000Y-143500000D03*
X160460000Y-147300000D03*
X169100000Y-143500000D03*
X169100000Y-147300000D03*
%TD*%
D20*
%TO.C,R40*%
X155700000Y-128400000D03*
X154050000Y-128400000D03*
%TD*%
D21*
%TO.C,C36*%
X174500000Y-88000000D03*
X168000000Y-88000000D03*
%TD*%
D22*
%TO.C,C7*%
X149850000Y-116475000D03*
X149850000Y-118025000D03*
%TD*%
D23*
%TO.C,C11*%
X144600000Y-56500000D03*
X144600000Y-54950000D03*
%TD*%
D24*
%TO.C,U2*%
X162450000Y-136500000D03*
X162450000Y-137500000D03*
X162450000Y-138500000D03*
X162450000Y-139500000D03*
X162450000Y-140500000D03*
X167550000Y-140500000D03*
X167550000Y-139500000D03*
X167550000Y-138500000D03*
X167550000Y-137500000D03*
X167550000Y-136500000D03*
D25*
X165000000Y-138500000D03*
%TD*%
D20*
%TO.C,R60*%
X170500000Y-119500000D03*
X168850000Y-119500000D03*
%TD*%
D22*
%TO.C,C42*%
X158942500Y-74725000D03*
X158942500Y-76275000D03*
%TD*%
D11*
%TO.C,R14*%
X137075000Y-56900000D03*
X138725000Y-56900000D03*
%TD*%
D23*
%TO.C,C20*%
X135400000Y-77600000D03*
X135400000Y-76050000D03*
%TD*%
D11*
%TO.C,R36*%
X144700000Y-126600000D03*
X146350000Y-126600000D03*
%TD*%
D26*
%TO.C,R3*%
X121250000Y-118075000D03*
X121250000Y-116425000D03*
%TD*%
D27*
%TO.C,R50*%
X159950000Y-65175000D03*
X159950000Y-66825000D03*
%TD*%
D28*
%TO.C,C26*%
X146950000Y-95900000D03*
X145400000Y-95900000D03*
%TD*%
D29*
%TO.C,C19*%
X123300000Y-71625000D03*
X123300000Y-74575000D03*
%TD*%
D11*
%TO.C,R30*%
X145350000Y-97500000D03*
X147000000Y-97500000D03*
%TD*%
%TO.C,R8*%
X137075000Y-50500000D03*
X138725000Y-50500000D03*
%TD*%
D23*
%TO.C,C38*%
X158342500Y-73175000D03*
X158342500Y-71625000D03*
%TD*%
%TO.C,C10*%
X149600000Y-57300000D03*
X149600000Y-55750000D03*
%TD*%
D30*
%TO.C,C6*%
X128725000Y-129850000D03*
X130275000Y-129850000D03*
%TD*%
%TO.C,C28*%
X164850000Y-102200000D03*
X166400000Y-102200000D03*
%TD*%
D11*
%TO.C,R43*%
X154050000Y-131600000D03*
X155700000Y-131600000D03*
%TD*%
D20*
%TO.C,R31*%
X147000000Y-94300000D03*
X145350000Y-94300000D03*
%TD*%
D11*
%TO.C,R41*%
X154050000Y-126600000D03*
X155700000Y-126600000D03*
%TD*%
D31*
%TO.C,C8*%
X143325000Y-52900000D03*
X146275000Y-52900000D03*
%TD*%
D20*
%TO.C,R9*%
X126325000Y-107370000D03*
X124675000Y-107370000D03*
%TD*%
D28*
%TO.C,C4*%
X127025000Y-121250000D03*
X125475000Y-121250000D03*
%TD*%
D20*
%TO.C,R11*%
X126500000Y-104870000D03*
X124850000Y-104870000D03*
%TD*%
D30*
%TO.C,C14*%
X162475000Y-135000000D03*
X164025000Y-135000000D03*
%TD*%
D32*
%TO.C,L1*%
X129900000Y-64900000D03*
X120900000Y-64900000D03*
%TD*%
D22*
%TO.C,C43*%
X159942500Y-71625000D03*
X159942500Y-73175000D03*
%TD*%
D33*
%TO.C,U3*%
X129970000Y-77075000D03*
X131240000Y-77075000D03*
X132510000Y-77075000D03*
X133780000Y-77075000D03*
X133780000Y-72125000D03*
X132510000Y-72125000D03*
X131240000Y-72125000D03*
X129970000Y-72125000D03*
%TD*%
D26*
%TO.C,R23*%
X122750000Y-49325000D03*
X122750000Y-47675000D03*
%TD*%
%TO.C,R46*%
X157342500Y-76325000D03*
X157342500Y-74675000D03*
%TD*%
D11*
%TO.C,R10*%
X137075000Y-52100000D03*
X138725000Y-52100000D03*
%TD*%
D28*
%TO.C,C34*%
X169360000Y-68700000D03*
X167810000Y-68700000D03*
%TD*%
%TO.C,C5*%
X127225000Y-129850000D03*
X125675000Y-129850000D03*
%TD*%
D23*
%TO.C,C9*%
X148000000Y-57275000D03*
X148000000Y-55725000D03*
%TD*%
D11*
%TO.C,R12*%
X137075000Y-53700000D03*
X138725000Y-53700000D03*
%TD*%
D23*
%TO.C,C22*%
X140700000Y-68075000D03*
X140700000Y-66525000D03*
%TD*%
D26*
%TO.C,R32*%
X172900000Y-100325000D03*
X172900000Y-98675000D03*
%TD*%
D11*
%TO.C,R13*%
X137075000Y-55300000D03*
X138725000Y-55300000D03*
%TD*%
D27*
%TO.C,R19*%
X169250000Y-136625000D03*
X169250000Y-138275000D03*
%TD*%
D34*
%TO.C,J2*%
X142950000Y-59400000D03*
X143450000Y-59400000D03*
X143950000Y-59400000D03*
X144450000Y-59400000D03*
X144950000Y-59400000D03*
X145450000Y-59400000D03*
X145950000Y-59400000D03*
X146450000Y-59400000D03*
X146950000Y-59400000D03*
X147450000Y-59400000D03*
X147950000Y-59400000D03*
X148450000Y-59400000D03*
X148950000Y-59400000D03*
X149450000Y-59400000D03*
X149950000Y-59400000D03*
X150450000Y-59400000D03*
X150950000Y-59400000D03*
X151450000Y-59400000D03*
X151950000Y-59400000D03*
X152450000Y-59400000D03*
D35*
X141250000Y-62080000D03*
X154150000Y-62080000D03*
%TD*%
D11*
%TO.C,R27*%
X139100000Y-69725000D03*
X140750000Y-69725000D03*
%TD*%
D23*
%TO.C,C2*%
X126000000Y-119525000D03*
X126000000Y-117975000D03*
%TD*%
D28*
%TO.C,C35*%
X169260000Y-80700000D03*
X167710000Y-80700000D03*
%TD*%
D11*
%TO.C,R56*%
X168850000Y-124750000D03*
X170500000Y-124750000D03*
%TD*%
D20*
%TO.C,R2*%
X132325000Y-122555000D03*
X130675000Y-122555000D03*
%TD*%
%TO.C,R24*%
X121925000Y-85700000D03*
X120275000Y-85700000D03*
%TD*%
D23*
%TO.C,C13*%
X151400000Y-57275000D03*
X151400000Y-55725000D03*
%TD*%
D11*
%TO.C,R26*%
X135850000Y-69725000D03*
X137500000Y-69725000D03*
%TD*%
D36*
%TO.C,R48*%
X165905000Y-81100000D03*
X162980000Y-81100000D03*
%TD*%
D21*
%TO.C,C37*%
X173192500Y-62500000D03*
X166692500Y-62500000D03*
%TD*%
D36*
%TO.C,R44*%
X165505000Y-68300000D03*
X162580000Y-68300000D03*
%TD*%
D23*
%TO.C,C33*%
X160542500Y-76275000D03*
X160542500Y-74725000D03*
%TD*%
D20*
%TO.C,R55*%
X170500000Y-126500000D03*
X168850000Y-126500000D03*
%TD*%
%TO.C,R15*%
X126325000Y-97270000D03*
X124675000Y-97270000D03*
%TD*%
D29*
%TO.C,C18*%
X120550000Y-71625000D03*
X120550000Y-74575000D03*
%TD*%
D22*
%TO.C,C25*%
X159900000Y-98700000D03*
X159900000Y-100250000D03*
%TD*%
D20*
%TO.C,R37*%
X146350000Y-123400000D03*
X144700000Y-123400000D03*
%TD*%
D11*
%TO.C,R35*%
X164800000Y-103800000D03*
X166450000Y-103800000D03*
%TD*%
D23*
%TO.C,C21*%
X136000000Y-68075000D03*
X136000000Y-66525000D03*
%TD*%
D28*
%TO.C,C29*%
X146300000Y-125000000D03*
X144750000Y-125000000D03*
%TD*%
D11*
%TO.C,R54*%
X165600000Y-116000000D03*
X167250000Y-116000000D03*
%TD*%
D37*
%TO.C,D1*%
X126400000Y-76350000D03*
X126400000Y-72350000D03*
%TD*%
D28*
%TO.C,C3*%
X138025000Y-122250000D03*
X136475000Y-122250000D03*
%TD*%
D11*
%TO.C,R16*%
X126175000Y-99770000D03*
X127825000Y-99770000D03*
%TD*%
D27*
%TO.C,R22*%
X124250000Y-47675000D03*
X124250000Y-49325000D03*
%TD*%
%TO.C,R1*%
X148250000Y-116425000D03*
X148250000Y-118075000D03*
%TD*%
D11*
%TO.C,R58*%
X168850000Y-117750000D03*
X170500000Y-117750000D03*
%TD*%
D23*
%TO.C,C24*%
X137600000Y-68075000D03*
X137600000Y-66525000D03*
%TD*%
D11*
%TO.C,R52*%
X165600000Y-123000000D03*
X167250000Y-123000000D03*
%TD*%
D27*
%TO.C,R18*%
X160750000Y-134675000D03*
X160750000Y-136325000D03*
%TD*%
D11*
%TO.C,R20*%
X120275000Y-82500000D03*
X121925000Y-82500000D03*
%TD*%
%TO.C,R51*%
X165600000Y-126500000D03*
X167250000Y-126500000D03*
%TD*%
D27*
%TO.C,R33*%
X171300000Y-98675000D03*
X171300000Y-100325000D03*
%TD*%
D38*
%TO.C,Y1*%
X132450000Y-126200000D03*
X123950000Y-126200000D03*
%TD*%
D20*
%TO.C,R57*%
X170500000Y-121250000D03*
X168850000Y-121250000D03*
%TD*%
D10*
%TO.C,SW1*%
X153150000Y-105650000D03*
X144050000Y-105650000D03*
X153150000Y-101150000D03*
X144050000Y-101150000D03*
%TD*%
D30*
%TO.C,C30*%
X154100000Y-125000000D03*
X155650000Y-125000000D03*
%TD*%
D27*
%TO.C,R29*%
X161500000Y-98650000D03*
X161500000Y-100300000D03*
%TD*%
D20*
%TO.C,R34*%
X166450000Y-105400000D03*
X164800000Y-105400000D03*
%TD*%
D11*
%TO.C,R39*%
X144700000Y-131600000D03*
X146350000Y-131600000D03*
%TD*%
D27*
%TO.C,R45*%
X156742500Y-71575000D03*
X156742500Y-73225000D03*
%TD*%
D31*
%TO.C,C12*%
X143325000Y-50300000D03*
X146275000Y-50300000D03*
%TD*%
D26*
%TO.C,R6*%
X176600000Y-48225000D03*
X176600000Y-46575000D03*
%TD*%
D27*
%TO.C,R5*%
X138800000Y-58975000D03*
X138800000Y-60625000D03*
%TD*%
D23*
%TO.C,C23*%
X139150000Y-68075000D03*
X139150000Y-66525000D03*
%TD*%
D20*
%TO.C,R42*%
X146350000Y-128400000D03*
X144700000Y-128400000D03*
%TD*%
D26*
%TO.C,R28*%
X163100000Y-100300000D03*
X163100000Y-98650000D03*
%TD*%
D27*
%TO.C,R17*%
X156600000Y-58975000D03*
X156600000Y-60625000D03*
%TD*%
D11*
%TO.C,R59*%
X168850000Y-123000000D03*
X170500000Y-123000000D03*
%TD*%
%TO.C,R61*%
X168850000Y-116000000D03*
X170500000Y-116000000D03*
%TD*%
D20*
%TO.C,R21*%
X121925000Y-84100000D03*
X120275000Y-84100000D03*
%TD*%
D11*
%TO.C,R25*%
X132600000Y-69725000D03*
X134250000Y-69725000D03*
%TD*%
D26*
%TO.C,R49*%
X158250000Y-66825000D03*
X158250000Y-65175000D03*
%TD*%
D22*
%TO.C,C39*%
X172342500Y-71225000D03*
X172342500Y-72775000D03*
%TD*%
D23*
%TO.C,C41*%
X172642500Y-77375000D03*
X172642500Y-75825000D03*
%TD*%
D27*
%TO.C,R4*%
X133500000Y-90675000D03*
X133500000Y-92325000D03*
%TD*%
D12*
%TO.C,C15*%
X132975000Y-82025000D03*
X130025000Y-82025000D03*
%TD*%
D39*
%TO.C,U1*%
X129250000Y-119662500D03*
X129750000Y-119662500D03*
X130250000Y-119662500D03*
X130750000Y-119662500D03*
X131250000Y-119662500D03*
X131750000Y-119662500D03*
X132250000Y-119662500D03*
X132750000Y-119662500D03*
X133250000Y-119662500D03*
X133750000Y-119662500D03*
X134250000Y-119662500D03*
X134750000Y-119662500D03*
D40*
X136162500Y-118250000D03*
X136162500Y-117750000D03*
X136162500Y-117250000D03*
X136162500Y-116750000D03*
X136162500Y-116250000D03*
X136162500Y-115750000D03*
X136162500Y-115250000D03*
X136162500Y-114750000D03*
X136162500Y-114250000D03*
X136162500Y-113750000D03*
X136162500Y-113250000D03*
X136162500Y-112750000D03*
D39*
X134750000Y-111337500D03*
X134250000Y-111337500D03*
X133750000Y-111337500D03*
X133250000Y-111337500D03*
X132750000Y-111337500D03*
X132250000Y-111337500D03*
X131750000Y-111337500D03*
X131250000Y-111337500D03*
X130750000Y-111337500D03*
X130250000Y-111337500D03*
X129750000Y-111337500D03*
X129250000Y-111337500D03*
D40*
X127837500Y-112750000D03*
X127837500Y-113250000D03*
X127837500Y-113750000D03*
X127837500Y-114250000D03*
X127837500Y-114750000D03*
X127837500Y-115250000D03*
X127837500Y-115750000D03*
X127837500Y-116250000D03*
X127837500Y-116750000D03*
X127837500Y-117250000D03*
X127837500Y-117750000D03*
X127837500Y-118250000D03*
%TD*%
D22*
%TO.C,C17*%
X126800000Y-79350000D03*
X126800000Y-80900000D03*
%TD*%
%TO.C,C1*%
X138200000Y-111325000D03*
X138200000Y-112875000D03*
%TD*%
D26*
%TO.C,R7*%
X119000000Y-48025000D03*
X119000000Y-46375000D03*
%TD*%
D30*
%TO.C,C40*%
X172367500Y-74300000D03*
X173917500Y-74300000D03*
%TD*%
D11*
%TO.C,R47*%
X167617500Y-82300000D03*
X169267500Y-82300000D03*
%TD*%
D20*
%TO.C,R38*%
X155700000Y-123400000D03*
X154050000Y-123400000D03*
%TD*%
D28*
%TO.C,C31*%
X146300000Y-130000000D03*
X144750000Y-130000000D03*
%TD*%
D30*
%TO.C,C32*%
X154100000Y-130000000D03*
X155650000Y-130000000D03*
%TD*%
D11*
%TO.C,R62*%
X168850000Y-114300000D03*
X170500000Y-114300000D03*
%TD*%
D41*
%TO.C,IC1*%
X163147000Y-70475000D03*
X163147000Y-71125000D03*
X163147000Y-71775000D03*
X163147000Y-72425000D03*
X163147000Y-73075000D03*
X163147000Y-73725000D03*
X163147000Y-74375000D03*
X163147000Y-75025000D03*
X163147000Y-75675000D03*
X163147000Y-76325000D03*
X163147000Y-76975000D03*
X163147000Y-77625000D03*
X163147000Y-78275000D03*
X163147000Y-78925000D03*
X169023000Y-78925000D03*
X169023000Y-78275000D03*
X169023000Y-77625000D03*
X169023000Y-76975000D03*
X169023000Y-76325000D03*
X169023000Y-75675000D03*
X169023000Y-75025000D03*
X169023000Y-74375000D03*
X169023000Y-73725000D03*
X169023000Y-73075000D03*
X169023000Y-72425000D03*
X169023000Y-71775000D03*
X169023000Y-71125000D03*
X169023000Y-70475000D03*
D42*
X166085000Y-74700000D03*
%TD*%
D22*
%TO.C,C27*%
X169700000Y-98725000D03*
X169700000Y-100275000D03*
%TD*%
M02*
