ISO-10303-21;
HEADER;
/* Generated by software containing ST-Developer
 * from STEP Tools, Inc. (www.steptools.com) 
 */
/* OPTION: using custom renumber hook */

FILE_DESCRIPTION(
/* description */ ('STEP AP242',
'CAx-IF Rec.Pracs.---Representation and Presentation of Product Manufa
cturing Information (PMI)---4.0---2014-10-13',
'CAx-IF Rec.Pracs.---3D Tessellated Geometry---0.4---2014-09-14','2;1'),

/* implementation_level */ '2;1');

FILE_NAME(
/* name */ '6892af5b75a42f3bd2dad3e1',
/* time_stamp */ '2025-08-06T01:26:58Z',
/* author */ (''),
/* organization */ (''),
/* preprocessor_version */ 'ST-DEVELOPER v20',
/* originating_system */ 'ONSHAPE BY PTC INC, 1.201',
/* authorisation */ '  ');

FILE_SCHEMA (('AP242_MANAGED_MODEL_BASED_3D_ENGINEERING_MIM_LF { 1 0 10303 442 1 1 4 }'));
ENDSEC;

DATA;
#10=SHAPE_REPRESENTATION_RELATIONSHIP('','',#961,#11);
#11=ADVANCED_BREP_SHAPE_REPRESENTATION('',(#959),#1808);
#12=CONICAL_SURFACE('',#1083,8.5,0.785398163397449);
#13=CONICAL_SURFACE('',#1084,9.5,0.785398163397448);
#14=CONICAL_SURFACE('',#1088,4.05,0.785398163397448);
#15=PLANE('',#965);
#16=PLANE('',#969);
#17=PLANE('',#973);
#18=PLANE('',#977);
#19=PLANE('',#981);
#20=PLANE('',#985);
#21=PLANE('',#989);
#22=PLANE('',#993);
#23=PLANE('',#997);
#24=PLANE('',#1001);
#25=PLANE('',#1005);
#26=PLANE('',#1009);
#27=PLANE('',#1013);
#28=PLANE('',#1017);
#29=PLANE('',#1021);
#30=PLANE('',#1025);
#31=PLANE('',#1029);
#32=PLANE('',#1033);
#33=PLANE('',#1037);
#34=PLANE('',#1065);
#35=PLANE('',#1066);
#36=PLANE('',#1069);
#37=PLANE('',#1075);
#38=PLANE('',#1078);
#39=PLANE('',#1080);
#40=PLANE('',#1087);
#41=PLANE('',#1089);
#42=CIRCLE('',#964,1.5);
#43=CIRCLE('',#966,10.5);
#44=CIRCLE('',#968,1.5);
#45=CIRCLE('',#970,10.5);
#46=CIRCLE('',#972,1.5);
#47=CIRCLE('',#974,10.5);
#48=CIRCLE('',#976,1.5);
#49=CIRCLE('',#978,10.5);
#50=CIRCLE('',#980,1.5);
#51=CIRCLE('',#982,10.5);
#52=CIRCLE('',#984,1.5);
#53=CIRCLE('',#986,10.5);
#54=CIRCLE('',#988,1.5);
#55=CIRCLE('',#990,10.5);
#56=CIRCLE('',#992,1.5);
#57=CIRCLE('',#994,10.5);
#58=CIRCLE('',#996,1.5);
#59=CIRCLE('',#998,10.5);
#60=CIRCLE('',#1000,1.5);
#61=CIRCLE('',#1002,10.5);
#62=CIRCLE('',#1004,1.5);
#63=CIRCLE('',#1006,10.5);
#64=CIRCLE('',#1008,1.5);
#65=CIRCLE('',#1010,10.5);
#66=CIRCLE('',#1012,1.5);
#67=CIRCLE('',#1014,10.5);
#68=CIRCLE('',#1016,1.5);
#69=CIRCLE('',#1018,10.5);
#70=CIRCLE('',#1020,1.5);
#71=CIRCLE('',#1022,10.5);
#72=CIRCLE('',#1024,1.5);
#73=CIRCLE('',#1026,10.5);
#74=CIRCLE('',#1028,1.5);
#75=CIRCLE('',#1030,10.5);
#76=CIRCLE('',#1032,1.5);
#77=CIRCLE('',#1034,10.5);
#78=CIRCLE('',#1036,1.5);
#79=CIRCLE('',#1038,10.5);
#80=CIRCLE('',#1040,8.5);
#81=CIRCLE('',#1041,8.5);
#82=CIRCLE('',#1043,10.5);
#83=CIRCLE('',#1044,10.5);
#84=CIRCLE('',#1045,10.5);
#85=CIRCLE('',#1046,10.5);
#86=CIRCLE('',#1047,10.5);
#87=CIRCLE('',#1048,10.5);
#88=CIRCLE('',#1049,10.5);
#89=CIRCLE('',#1050,10.5);
#90=CIRCLE('',#1051,10.5);
#91=CIRCLE('',#1052,10.5);
#92=CIRCLE('',#1053,10.5);
#93=CIRCLE('',#1054,10.5);
#94=CIRCLE('',#1055,10.5);
#95=CIRCLE('',#1056,10.5);
#96=CIRCLE('',#1057,10.5);
#97=CIRCLE('',#1058,10.5);
#98=CIRCLE('',#1059,10.5);
#99=CIRCLE('',#1060,10.5);
#100=CIRCLE('',#1061,10.5);
#101=CIRCLE('',#1062,10.5);
#102=CIRCLE('',#1063,10.5);
#103=CIRCLE('',#1064,10.5);
#104=CIRCLE('',#1067,5.5);
#105=CIRCLE('',#1068,5.15);
#106=CIRCLE('',#1070,9.5);
#107=CIRCLE('',#1071,1.5);
#108=CIRCLE('',#1073,3.05);
#109=CIRCLE('',#1074,3.05);
#110=CIRCLE('',#1077,5.15);
#111=CIRCLE('',#1079,4.05);
#112=CIRCLE('',#1081,1.5);
#113=CIRCLE('',#1086,1.5);
#114=B_SPLINE_CURVE_WITH_KNOTS('',3,(#1396,#1397,#1398,#1399,#1400,#1401,
#1402),.UNSPECIFIED.,.F.,.F.,(4,1,1,1,4),(3.22022272685996E-7,0.000652580687835646,
0.00130483935339861,0.00195709801896157,0.00260935668452453),
 .UNSPECIFIED.);
#115=B_SPLINE_CURVE_WITH_KNOTS('',3,(#1413,#1414,#1415,#1416,#1417,#1418,
#1419),.UNSPECIFIED.,.F.,.F.,(4,1,1,1,4),(3.22022272687455E-7,0.000652580687835651,
0.00130483935339862,0.00195709801896158,0.00260935668452454),
 .UNSPECIFIED.);
#116=B_SPLINE_CURVE_WITH_KNOTS('',3,(#1430,#1431,#1432,#1433,#1434,#1435,
#1436),.UNSPECIFIED.,.F.,.F.,(4,1,1,1,4),(3.22022272683729E-7,0.000652580687835645,
0.00130483935339861,0.00195709801896157,0.00260935668452453),
 .UNSPECIFIED.);
#117=B_SPLINE_CURVE_WITH_KNOTS('',3,(#1447,#1448,#1449,#1450,#1451,#1452,
#1453),.UNSPECIFIED.,.F.,.F.,(4,1,1,1,4),(3.22022272693882E-7,0.000652580687835659,
0.00130483935339862,0.00195709801896159,0.00260935668452455),
 .UNSPECIFIED.);
#118=B_SPLINE_CURVE_WITH_KNOTS('',3,(#1464,#1465,#1466,#1467,#1468,#1469,
#1470),.UNSPECIFIED.,.F.,.F.,(4,1,1,1,4),(3.22022272689329E-7,0.000652580687835652,
0.00130483935339861,0.00195709801896158,0.00260935668452454),
 .UNSPECIFIED.);
#119=B_SPLINE_CURVE_WITH_KNOTS('',3,(#1481,#1482,#1483,#1484,#1485,#1486,
#1487),.UNSPECIFIED.,.F.,.F.,(4,1,1,1,4),(3.22022272685996E-7,0.000652580687835649,
0.00130483935339861,0.00195709801896157,0.00260935668452454),
 .UNSPECIFIED.);
#120=B_SPLINE_CURVE_WITH_KNOTS('',3,(#1498,#1499,#1500,#1501,#1502,#1503,
#1504),.UNSPECIFIED.,.F.,.F.,(4,1,1,1,4),(3.22022272687455E-7,0.000652580687835651,
0.00130483935339862,0.00195709801896158,0.00260935668452454),
 .UNSPECIFIED.);
#121=B_SPLINE_CURVE_WITH_KNOTS('',3,(#1515,#1516,#1517,#1518,#1519,#1520,
#1521),.UNSPECIFIED.,.F.,.F.,(4,1,1,1,4),(3.22022272683729E-7,0.000652580687835648,
0.00130483935339861,0.00195709801896157,0.00260935668452454),
 .UNSPECIFIED.);
#122=B_SPLINE_CURVE_WITH_KNOTS('',3,(#1532,#1533,#1534,#1535,#1536,#1537,
#1538),.UNSPECIFIED.,.F.,.F.,(4,1,1,1,4),(3.22022272691309E-7,0.000652580687835656,
0.00130483935339862,0.00195709801896159,0.00260935668452455),
 .UNSPECIFIED.);
#123=B_SPLINE_CURVE_WITH_KNOTS('',3,(#1549,#1550,#1551,#1552,#1553,#1554,
#1555),.UNSPECIFIED.,.F.,.F.,(4,1,1,1,4),(3.22022272689329E-7,0.000652580687835652,
0.00130483935339861,0.00195709801896158,0.00260935668452454),
 .UNSPECIFIED.);
#124=B_SPLINE_CURVE_WITH_KNOTS('',3,(#1566,#1567,#1568,#1569,#1570,#1571,
#1572),.UNSPECIFIED.,.F.,.F.,(4,1,1,1,4),(3.22022272685996E-7,0.000652580687835649,
0.00130483935339861,0.00195709801896157,0.00260935668452454),
 .UNSPECIFIED.);
#125=B_SPLINE_CURVE_WITH_KNOTS('',3,(#1583,#1584,#1585,#1586,#1587,#1588,
#1589),.UNSPECIFIED.,.F.,.F.,(4,1,1,1,4),(3.22022272687455E-7,0.000652580687835651,
0.00130483935339862,0.00195709801896158,0.00260935668452454),
 .UNSPECIFIED.);
#126=B_SPLINE_CURVE_WITH_KNOTS('',3,(#1600,#1601,#1602,#1603,#1604,#1605,
#1606),.UNSPECIFIED.,.F.,.F.,(4,1,1,1,4),(3.22022272683729E-7,0.000652580687835651,
0.00130483935339862,0.00195709801896158,0.00260935668452455),
 .UNSPECIFIED.);
#127=B_SPLINE_CURVE_WITH_KNOTS('',3,(#1617,#1618,#1619,#1620,#1621,#1622,
#1623),.UNSPECIFIED.,.F.,.F.,(4,1,1,1,4),(3.22022272691309E-7,0.000652580687835655,
0.00130483935339862,0.00195709801896158,0.00260935668452455),
 .UNSPECIFIED.);
#128=B_SPLINE_CURVE_WITH_KNOTS('',3,(#1634,#1635,#1636,#1637,#1638,#1639,
#1640),.UNSPECIFIED.,.F.,.F.,(4,1,1,1,4),(3.22022272687488E-7,0.00065258068783565,
0.00130483935339861,0.00195709801896157,0.00260935668452454),
 .UNSPECIFIED.);
#129=B_SPLINE_CURVE_WITH_KNOTS('',3,(#1651,#1652,#1653,#1654,#1655,#1656,
#1657),.UNSPECIFIED.,.F.,.F.,(4,1,1,1,4),(3.22022272685996E-7,0.000652580687835649,
0.00130483935339861,0.00195709801896157,0.00260935668452454),
 .UNSPECIFIED.);
#130=B_SPLINE_CURVE_WITH_KNOTS('',3,(#1668,#1669,#1670,#1671,#1672,#1673,
#1674),.UNSPECIFIED.,.F.,.F.,(4,1,1,1,4),(3.22022272687455E-7,0.000652580687835651,
0.00130483935339862,0.00195709801896158,0.00260935668452454),
 .UNSPECIFIED.);
#131=B_SPLINE_CURVE_WITH_KNOTS('',3,(#1685,#1686,#1687,#1688,#1689,#1690,
#1691),.UNSPECIFIED.,.F.,.F.,(4,1,1,1,4),(3.22022272683729E-7,0.000652580687835651,
0.00130483935339862,0.00195709801896158,0.00260935668452455),
 .UNSPECIFIED.);
#132=B_SPLINE_CURVE_WITH_KNOTS('',3,(#1702,#1703,#1704,#1705,#1706,#1707,
#1708),.UNSPECIFIED.,.F.,.F.,(4,1,1,1,4),(3.22022272691309E-7,0.000652580687835655,
0.00130483935339862,0.00195709801896158,0.00260935668452455),
 .UNSPECIFIED.);
#133=B_SPLINE_CURVE_WITH_KNOTS('',3,(#1787,#1788,#1789,#1790,#1791,#1792,
#1793),.UNSPECIFIED.,.F.,.F.,(4,1,1,1,4),(3.22022272689329E-7,0.000652580687835652,
0.00130483935339861,0.00195709801896158,0.00260935668452454),
 .UNSPECIFIED.);
#134=B_SPLINE_CURVE_WITH_KNOTS('',3,(#1798,#1799,#1800,#1801),
 .UNSPECIFIED.,.F.,.F.,(4,4),(0.,0.0014919212005434),.UNSPECIFIED.);
#135=B_SPLINE_CURVE_WITH_KNOTS('',3,(#1802,#1803,#1804,#1805),
 .UNSPECIFIED.,.F.,.F.,(4,4),(0.,0.0014919212005434),.UNSPECIFIED.);
#136=ORIENTED_EDGE('',*,*,#414,.T.);
#137=ORIENTED_EDGE('',*,*,#415,.T.);
#138=ORIENTED_EDGE('',*,*,#416,.T.);
#139=ORIENTED_EDGE('',*,*,#417,.F.);
#140=ORIENTED_EDGE('',*,*,#417,.T.);
#141=ORIENTED_EDGE('',*,*,#418,.F.);
#142=ORIENTED_EDGE('',*,*,#419,.T.);
#143=ORIENTED_EDGE('',*,*,#420,.T.);
#144=ORIENTED_EDGE('',*,*,#421,.T.);
#145=ORIENTED_EDGE('',*,*,#422,.F.);
#146=ORIENTED_EDGE('',*,*,#422,.T.);
#147=ORIENTED_EDGE('',*,*,#423,.F.);
#148=ORIENTED_EDGE('',*,*,#424,.T.);
#149=ORIENTED_EDGE('',*,*,#425,.T.);
#150=ORIENTED_EDGE('',*,*,#426,.T.);
#151=ORIENTED_EDGE('',*,*,#427,.F.);
#152=ORIENTED_EDGE('',*,*,#427,.T.);
#153=ORIENTED_EDGE('',*,*,#428,.F.);
#154=ORIENTED_EDGE('',*,*,#429,.T.);
#155=ORIENTED_EDGE('',*,*,#430,.T.);
#156=ORIENTED_EDGE('',*,*,#431,.T.);
#157=ORIENTED_EDGE('',*,*,#432,.F.);
#158=ORIENTED_EDGE('',*,*,#432,.T.);
#159=ORIENTED_EDGE('',*,*,#433,.F.);
#160=ORIENTED_EDGE('',*,*,#434,.T.);
#161=ORIENTED_EDGE('',*,*,#435,.T.);
#162=ORIENTED_EDGE('',*,*,#436,.T.);
#163=ORIENTED_EDGE('',*,*,#437,.F.);
#164=ORIENTED_EDGE('',*,*,#437,.T.);
#165=ORIENTED_EDGE('',*,*,#438,.F.);
#166=ORIENTED_EDGE('',*,*,#439,.T.);
#167=ORIENTED_EDGE('',*,*,#440,.T.);
#168=ORIENTED_EDGE('',*,*,#441,.T.);
#169=ORIENTED_EDGE('',*,*,#442,.F.);
#170=ORIENTED_EDGE('',*,*,#442,.T.);
#171=ORIENTED_EDGE('',*,*,#443,.F.);
#172=ORIENTED_EDGE('',*,*,#444,.T.);
#173=ORIENTED_EDGE('',*,*,#445,.T.);
#174=ORIENTED_EDGE('',*,*,#446,.T.);
#175=ORIENTED_EDGE('',*,*,#447,.F.);
#176=ORIENTED_EDGE('',*,*,#447,.T.);
#177=ORIENTED_EDGE('',*,*,#448,.F.);
#178=ORIENTED_EDGE('',*,*,#449,.T.);
#179=ORIENTED_EDGE('',*,*,#450,.T.);
#180=ORIENTED_EDGE('',*,*,#451,.T.);
#181=ORIENTED_EDGE('',*,*,#452,.F.);
#182=ORIENTED_EDGE('',*,*,#452,.T.);
#183=ORIENTED_EDGE('',*,*,#453,.F.);
#184=ORIENTED_EDGE('',*,*,#454,.T.);
#185=ORIENTED_EDGE('',*,*,#455,.T.);
#186=ORIENTED_EDGE('',*,*,#456,.T.);
#187=ORIENTED_EDGE('',*,*,#457,.F.);
#188=ORIENTED_EDGE('',*,*,#457,.T.);
#189=ORIENTED_EDGE('',*,*,#458,.F.);
#190=ORIENTED_EDGE('',*,*,#459,.T.);
#191=ORIENTED_EDGE('',*,*,#460,.T.);
#192=ORIENTED_EDGE('',*,*,#461,.T.);
#193=ORIENTED_EDGE('',*,*,#462,.F.);
#194=ORIENTED_EDGE('',*,*,#462,.T.);
#195=ORIENTED_EDGE('',*,*,#463,.F.);
#196=ORIENTED_EDGE('',*,*,#464,.T.);
#197=ORIENTED_EDGE('',*,*,#465,.T.);
#198=ORIENTED_EDGE('',*,*,#466,.T.);
#199=ORIENTED_EDGE('',*,*,#467,.F.);
#200=ORIENTED_EDGE('',*,*,#467,.T.);
#201=ORIENTED_EDGE('',*,*,#468,.F.);
#202=ORIENTED_EDGE('',*,*,#469,.T.);
#203=ORIENTED_EDGE('',*,*,#470,.T.);
#204=ORIENTED_EDGE('',*,*,#471,.T.);
#205=ORIENTED_EDGE('',*,*,#472,.F.);
#206=ORIENTED_EDGE('',*,*,#472,.T.);
#207=ORIENTED_EDGE('',*,*,#473,.F.);
#208=ORIENTED_EDGE('',*,*,#474,.T.);
#209=ORIENTED_EDGE('',*,*,#475,.T.);
#210=ORIENTED_EDGE('',*,*,#476,.T.);
#211=ORIENTED_EDGE('',*,*,#477,.F.);
#212=ORIENTED_EDGE('',*,*,#477,.T.);
#213=ORIENTED_EDGE('',*,*,#478,.F.);
#214=ORIENTED_EDGE('',*,*,#479,.T.);
#215=ORIENTED_EDGE('',*,*,#480,.T.);
#216=ORIENTED_EDGE('',*,*,#481,.T.);
#217=ORIENTED_EDGE('',*,*,#482,.F.);
#218=ORIENTED_EDGE('',*,*,#482,.T.);
#219=ORIENTED_EDGE('',*,*,#483,.F.);
#220=ORIENTED_EDGE('',*,*,#484,.T.);
#221=ORIENTED_EDGE('',*,*,#485,.T.);
#222=ORIENTED_EDGE('',*,*,#486,.T.);
#223=ORIENTED_EDGE('',*,*,#487,.F.);
#224=ORIENTED_EDGE('',*,*,#487,.T.);
#225=ORIENTED_EDGE('',*,*,#488,.F.);
#226=ORIENTED_EDGE('',*,*,#489,.T.);
#227=ORIENTED_EDGE('',*,*,#490,.T.);
#228=ORIENTED_EDGE('',*,*,#491,.T.);
#229=ORIENTED_EDGE('',*,*,#492,.F.);
#230=ORIENTED_EDGE('',*,*,#492,.T.);
#231=ORIENTED_EDGE('',*,*,#493,.F.);
#232=ORIENTED_EDGE('',*,*,#494,.T.);
#233=ORIENTED_EDGE('',*,*,#495,.T.);
#234=ORIENTED_EDGE('',*,*,#496,.T.);
#235=ORIENTED_EDGE('',*,*,#497,.F.);
#236=ORIENTED_EDGE('',*,*,#497,.T.);
#237=ORIENTED_EDGE('',*,*,#498,.F.);
#238=ORIENTED_EDGE('',*,*,#499,.T.);
#239=ORIENTED_EDGE('',*,*,#500,.T.);
#240=ORIENTED_EDGE('',*,*,#501,.T.);
#241=ORIENTED_EDGE('',*,*,#502,.F.);
#242=ORIENTED_EDGE('',*,*,#502,.T.);
#243=ORIENTED_EDGE('',*,*,#503,.F.);
#244=ORIENTED_EDGE('',*,*,#504,.T.);
#245=ORIENTED_EDGE('',*,*,#505,.T.);
#246=ORIENTED_EDGE('',*,*,#506,.T.);
#247=ORIENTED_EDGE('',*,*,#507,.F.);
#248=ORIENTED_EDGE('',*,*,#507,.T.);
#249=ORIENTED_EDGE('',*,*,#508,.F.);
#250=ORIENTED_EDGE('',*,*,#509,.T.);
#251=ORIENTED_EDGE('',*,*,#510,.F.);
#252=ORIENTED_EDGE('',*,*,#511,.T.);
#253=ORIENTED_EDGE('',*,*,#414,.F.);
#254=ORIENTED_EDGE('',*,*,#418,.T.);
#255=ORIENTED_EDGE('',*,*,#416,.F.);
#256=ORIENTED_EDGE('',*,*,#512,.T.);
#257=ORIENTED_EDGE('',*,*,#513,.F.);
#258=ORIENTED_EDGE('',*,*,#514,.T.);
#259=ORIENTED_EDGE('',*,*,#515,.F.);
#260=ORIENTED_EDGE('',*,*,#516,.T.);
#261=ORIENTED_EDGE('',*,*,#504,.F.);
#262=ORIENTED_EDGE('',*,*,#508,.T.);
#263=ORIENTED_EDGE('',*,*,#506,.F.);
#264=ORIENTED_EDGE('',*,*,#517,.T.);
#265=ORIENTED_EDGE('',*,*,#499,.F.);
#266=ORIENTED_EDGE('',*,*,#503,.T.);
#267=ORIENTED_EDGE('',*,*,#501,.F.);
#268=ORIENTED_EDGE('',*,*,#518,.T.);
#269=ORIENTED_EDGE('',*,*,#494,.F.);
#270=ORIENTED_EDGE('',*,*,#498,.T.);
#271=ORIENTED_EDGE('',*,*,#496,.F.);
#272=ORIENTED_EDGE('',*,*,#519,.T.);
#273=ORIENTED_EDGE('',*,*,#489,.F.);
#274=ORIENTED_EDGE('',*,*,#493,.T.);
#275=ORIENTED_EDGE('',*,*,#491,.F.);
#276=ORIENTED_EDGE('',*,*,#520,.T.);
#277=ORIENTED_EDGE('',*,*,#484,.F.);
#278=ORIENTED_EDGE('',*,*,#488,.T.);
#279=ORIENTED_EDGE('',*,*,#486,.F.);
#280=ORIENTED_EDGE('',*,*,#521,.T.);
#281=ORIENTED_EDGE('',*,*,#479,.F.);
#282=ORIENTED_EDGE('',*,*,#483,.T.);
#283=ORIENTED_EDGE('',*,*,#481,.F.);
#284=ORIENTED_EDGE('',*,*,#522,.T.);
#285=ORIENTED_EDGE('',*,*,#474,.F.);
#286=ORIENTED_EDGE('',*,*,#478,.T.);
#287=ORIENTED_EDGE('',*,*,#476,.F.);
#288=ORIENTED_EDGE('',*,*,#523,.T.);
#289=ORIENTED_EDGE('',*,*,#469,.F.);
#290=ORIENTED_EDGE('',*,*,#473,.T.);
#291=ORIENTED_EDGE('',*,*,#471,.F.);
#292=ORIENTED_EDGE('',*,*,#524,.T.);
#293=ORIENTED_EDGE('',*,*,#464,.F.);
#294=ORIENTED_EDGE('',*,*,#468,.T.);
#295=ORIENTED_EDGE('',*,*,#466,.F.);
#296=ORIENTED_EDGE('',*,*,#525,.T.);
#297=ORIENTED_EDGE('',*,*,#459,.F.);
#298=ORIENTED_EDGE('',*,*,#463,.T.);
#299=ORIENTED_EDGE('',*,*,#461,.F.);
#300=ORIENTED_EDGE('',*,*,#526,.T.);
#301=ORIENTED_EDGE('',*,*,#454,.F.);
#302=ORIENTED_EDGE('',*,*,#458,.T.);
#303=ORIENTED_EDGE('',*,*,#456,.F.);
#304=ORIENTED_EDGE('',*,*,#527,.T.);
#305=ORIENTED_EDGE('',*,*,#449,.F.);
#306=ORIENTED_EDGE('',*,*,#453,.T.);
#307=ORIENTED_EDGE('',*,*,#451,.F.);
#308=ORIENTED_EDGE('',*,*,#528,.T.);
#309=ORIENTED_EDGE('',*,*,#444,.F.);
#310=ORIENTED_EDGE('',*,*,#448,.T.);
#311=ORIENTED_EDGE('',*,*,#446,.F.);
#312=ORIENTED_EDGE('',*,*,#529,.T.);
#313=ORIENTED_EDGE('',*,*,#439,.F.);
#314=ORIENTED_EDGE('',*,*,#443,.T.);
#315=ORIENTED_EDGE('',*,*,#441,.F.);
#316=ORIENTED_EDGE('',*,*,#530,.T.);
#317=ORIENTED_EDGE('',*,*,#434,.F.);
#318=ORIENTED_EDGE('',*,*,#438,.T.);
#319=ORIENTED_EDGE('',*,*,#436,.F.);
#320=ORIENTED_EDGE('',*,*,#531,.T.);
#321=ORIENTED_EDGE('',*,*,#429,.F.);
#322=ORIENTED_EDGE('',*,*,#433,.T.);
#323=ORIENTED_EDGE('',*,*,#431,.F.);
#324=ORIENTED_EDGE('',*,*,#532,.T.);
#325=ORIENTED_EDGE('',*,*,#424,.F.);
#326=ORIENTED_EDGE('',*,*,#428,.T.);
#327=ORIENTED_EDGE('',*,*,#426,.F.);
#328=ORIENTED_EDGE('',*,*,#533,.T.);
#329=ORIENTED_EDGE('',*,*,#419,.F.);
#330=ORIENTED_EDGE('',*,*,#423,.T.);
#331=ORIENTED_EDGE('',*,*,#421,.F.);
#332=ORIENTED_EDGE('',*,*,#534,.T.);
#333=ORIENTED_EDGE('',*,*,#510,.T.);
#334=ORIENTED_EDGE('',*,*,#534,.F.);
#335=ORIENTED_EDGE('',*,*,#535,.T.);
#336=ORIENTED_EDGE('',*,*,#536,.T.);
#337=ORIENTED_EDGE('',*,*,#537,.T.);
#338=ORIENTED_EDGE('',*,*,#538,.F.);
#339=ORIENTED_EDGE('',*,*,#539,.F.);
#340=ORIENTED_EDGE('',*,*,#540,.T.);
#341=ORIENTED_EDGE('',*,*,#541,.T.);
#342=ORIENTED_EDGE('',*,*,#542,.T.);
#343=ORIENTED_EDGE('',*,*,#541,.F.);
#344=ORIENTED_EDGE('',*,*,#543,.T.);
#345=ORIENTED_EDGE('',*,*,#539,.T.);
#346=ORIENTED_EDGE('',*,*,#544,.F.);
#347=ORIENTED_EDGE('',*,*,#545,.T.);
#348=ORIENTED_EDGE('',*,*,#536,.F.);
#349=ORIENTED_EDGE('',*,*,#546,.T.);
#350=ORIENTED_EDGE('',*,*,#547,.T.);
#351=ORIENTED_EDGE('',*,*,#545,.F.);
#352=ORIENTED_EDGE('',*,*,#548,.T.);
#353=ORIENTED_EDGE('',*,*,#542,.F.);
#354=ORIENTED_EDGE('',*,*,#544,.T.);
#355=ORIENTED_EDGE('',*,*,#538,.T.);
#356=ORIENTED_EDGE('',*,*,#548,.F.);
#357=ORIENTED_EDGE('',*,*,#535,.F.);
#358=ORIENTED_EDGE('',*,*,#509,.F.);
#359=ORIENTED_EDGE('',*,*,#511,.F.);
#360=ORIENTED_EDGE('',*,*,#420,.F.);
#361=ORIENTED_EDGE('',*,*,#533,.F.);
#362=ORIENTED_EDGE('',*,*,#425,.F.);
#363=ORIENTED_EDGE('',*,*,#532,.F.);
#364=ORIENTED_EDGE('',*,*,#430,.F.);
#365=ORIENTED_EDGE('',*,*,#531,.F.);
#366=ORIENTED_EDGE('',*,*,#435,.F.);
#367=ORIENTED_EDGE('',*,*,#530,.F.);
#368=ORIENTED_EDGE('',*,*,#440,.F.);
#369=ORIENTED_EDGE('',*,*,#529,.F.);
#370=ORIENTED_EDGE('',*,*,#445,.F.);
#371=ORIENTED_EDGE('',*,*,#528,.F.);
#372=ORIENTED_EDGE('',*,*,#450,.F.);
#373=ORIENTED_EDGE('',*,*,#527,.F.);
#374=ORIENTED_EDGE('',*,*,#455,.F.);
#375=ORIENTED_EDGE('',*,*,#526,.F.);
#376=ORIENTED_EDGE('',*,*,#460,.F.);
#377=ORIENTED_EDGE('',*,*,#525,.F.);
#378=ORIENTED_EDGE('',*,*,#465,.F.);
#379=ORIENTED_EDGE('',*,*,#524,.F.);
#380=ORIENTED_EDGE('',*,*,#470,.F.);
#381=ORIENTED_EDGE('',*,*,#523,.F.);
#382=ORIENTED_EDGE('',*,*,#475,.F.);
#383=ORIENTED_EDGE('',*,*,#522,.F.);
#384=ORIENTED_EDGE('',*,*,#480,.F.);
#385=ORIENTED_EDGE('',*,*,#521,.F.);
#386=ORIENTED_EDGE('',*,*,#485,.F.);
#387=ORIENTED_EDGE('',*,*,#520,.F.);
#388=ORIENTED_EDGE('',*,*,#490,.F.);
#389=ORIENTED_EDGE('',*,*,#519,.F.);
#390=ORIENTED_EDGE('',*,*,#495,.F.);
#391=ORIENTED_EDGE('',*,*,#518,.F.);
#392=ORIENTED_EDGE('',*,*,#500,.F.);
#393=ORIENTED_EDGE('',*,*,#517,.F.);
#394=ORIENTED_EDGE('',*,*,#505,.F.);
#395=ORIENTED_EDGE('',*,*,#516,.F.);
#396=ORIENTED_EDGE('',*,*,#549,.F.);
#397=ORIENTED_EDGE('',*,*,#512,.F.);
#398=ORIENTED_EDGE('',*,*,#415,.F.);
#399=ORIENTED_EDGE('',*,*,#537,.F.);
#400=ORIENTED_EDGE('',*,*,#513,.T.);
#401=ORIENTED_EDGE('',*,*,#549,.T.);
#402=ORIENTED_EDGE('',*,*,#515,.T.);
#403=ORIENTED_EDGE('',*,*,#550,.F.);
#404=ORIENTED_EDGE('',*,*,#550,.T.);
#405=ORIENTED_EDGE('',*,*,#514,.F.);
#406=ORIENTED_EDGE('',*,*,#551,.F.);
#407=ORIENTED_EDGE('',*,*,#546,.F.);
#408=ORIENTED_EDGE('',*,*,#552,.F.);
#409=ORIENTED_EDGE('',*,*,#540,.F.);
#410=ORIENTED_EDGE('',*,*,#552,.T.);
#411=ORIENTED_EDGE('',*,*,#547,.F.);
#412=ORIENTED_EDGE('',*,*,#551,.T.);
#413=ORIENTED_EDGE('',*,*,#543,.F.);
#414=EDGE_CURVE('',#553,#554,#648,.T.);
#415=EDGE_CURVE('',#554,#555,#114,.T.);
#416=EDGE_CURVE('',#555,#556,#649,.F.);
#417=EDGE_CURVE('',#553,#556,#42,.T.);
#418=EDGE_CURVE('',#553,#556,#43,.F.);
#419=EDGE_CURVE('',#557,#558,#650,.T.);
#420=EDGE_CURVE('',#558,#559,#115,.T.);
#421=EDGE_CURVE('',#559,#560,#651,.F.);
#422=EDGE_CURVE('',#557,#560,#44,.T.);
#423=EDGE_CURVE('',#557,#560,#45,.F.);
#424=EDGE_CURVE('',#561,#562,#652,.T.);
#425=EDGE_CURVE('',#562,#563,#116,.T.);
#426=EDGE_CURVE('',#563,#564,#653,.F.);
#427=EDGE_CURVE('',#561,#564,#46,.T.);
#428=EDGE_CURVE('',#561,#564,#47,.F.);
#429=EDGE_CURVE('',#565,#566,#654,.T.);
#430=EDGE_CURVE('',#566,#567,#117,.T.);
#431=EDGE_CURVE('',#567,#568,#655,.F.);
#432=EDGE_CURVE('',#565,#568,#48,.T.);
#433=EDGE_CURVE('',#565,#568,#49,.F.);
#434=EDGE_CURVE('',#569,#570,#656,.T.);
#435=EDGE_CURVE('',#570,#571,#118,.T.);
#436=EDGE_CURVE('',#571,#572,#657,.F.);
#437=EDGE_CURVE('',#569,#572,#50,.T.);
#438=EDGE_CURVE('',#569,#572,#51,.F.);
#439=EDGE_CURVE('',#573,#574,#658,.T.);
#440=EDGE_CURVE('',#574,#575,#119,.T.);
#441=EDGE_CURVE('',#575,#576,#659,.F.);
#442=EDGE_CURVE('',#573,#576,#52,.T.);
#443=EDGE_CURVE('',#573,#576,#53,.F.);
#444=EDGE_CURVE('',#577,#578,#660,.T.);
#445=EDGE_CURVE('',#578,#579,#120,.T.);
#446=EDGE_CURVE('',#579,#580,#661,.F.);
#447=EDGE_CURVE('',#577,#580,#54,.T.);
#448=EDGE_CURVE('',#577,#580,#55,.F.);
#449=EDGE_CURVE('',#581,#582,#662,.T.);
#450=EDGE_CURVE('',#582,#583,#121,.T.);
#451=EDGE_CURVE('',#583,#584,#663,.F.);
#452=EDGE_CURVE('',#581,#584,#56,.T.);
#453=EDGE_CURVE('',#581,#584,#57,.F.);
#454=EDGE_CURVE('',#585,#586,#664,.T.);
#455=EDGE_CURVE('',#586,#587,#122,.T.);
#456=EDGE_CURVE('',#587,#588,#665,.F.);
#457=EDGE_CURVE('',#585,#588,#58,.T.);
#458=EDGE_CURVE('',#585,#588,#59,.F.);
#459=EDGE_CURVE('',#589,#590,#666,.T.);
#460=EDGE_CURVE('',#590,#591,#123,.T.);
#461=EDGE_CURVE('',#591,#592,#667,.F.);
#462=EDGE_CURVE('',#589,#592,#60,.T.);
#463=EDGE_CURVE('',#589,#592,#61,.F.);
#464=EDGE_CURVE('',#593,#594,#668,.T.);
#465=EDGE_CURVE('',#594,#595,#124,.T.);
#466=EDGE_CURVE('',#595,#596,#669,.F.);
#467=EDGE_CURVE('',#593,#596,#62,.T.);
#468=EDGE_CURVE('',#593,#596,#63,.F.);
#469=EDGE_CURVE('',#597,#598,#670,.T.);
#470=EDGE_CURVE('',#598,#599,#125,.T.);
#471=EDGE_CURVE('',#599,#600,#671,.F.);
#472=EDGE_CURVE('',#597,#600,#64,.T.);
#473=EDGE_CURVE('',#597,#600,#65,.F.);
#474=EDGE_CURVE('',#601,#602,#672,.T.);
#475=EDGE_CURVE('',#602,#603,#126,.T.);
#476=EDGE_CURVE('',#603,#604,#673,.F.);
#477=EDGE_CURVE('',#601,#604,#66,.T.);
#478=EDGE_CURVE('',#601,#604,#67,.F.);
#479=EDGE_CURVE('',#605,#606,#674,.T.);
#480=EDGE_CURVE('',#606,#607,#127,.T.);
#481=EDGE_CURVE('',#607,#608,#675,.F.);
#482=EDGE_CURVE('',#605,#608,#68,.T.);
#483=EDGE_CURVE('',#605,#608,#69,.F.);
#484=EDGE_CURVE('',#609,#610,#676,.T.);
#485=EDGE_CURVE('',#610,#611,#128,.T.);
#486=EDGE_CURVE('',#611,#612,#677,.F.);
#487=EDGE_CURVE('',#609,#612,#70,.T.);
#488=EDGE_CURVE('',#609,#612,#71,.F.);
#489=EDGE_CURVE('',#613,#614,#678,.T.);
#490=EDGE_CURVE('',#614,#615,#129,.T.);
#491=EDGE_CURVE('',#615,#616,#679,.F.);
#492=EDGE_CURVE('',#613,#616,#72,.T.);
#493=EDGE_CURVE('',#613,#616,#73,.F.);
#494=EDGE_CURVE('',#617,#618,#680,.T.);
#495=EDGE_CURVE('',#618,#619,#130,.T.);
#496=EDGE_CURVE('',#619,#620,#681,.F.);
#497=EDGE_CURVE('',#617,#620,#74,.T.);
#498=EDGE_CURVE('',#617,#620,#75,.F.);
#499=EDGE_CURVE('',#621,#622,#682,.T.);
#500=EDGE_CURVE('',#622,#623,#131,.T.);
#501=EDGE_CURVE('',#623,#624,#683,.F.);
#502=EDGE_CURVE('',#621,#624,#76,.T.);
#503=EDGE_CURVE('',#621,#624,#77,.F.);
#504=EDGE_CURVE('',#625,#626,#684,.T.);
#505=EDGE_CURVE('',#626,#627,#132,.T.);
#506=EDGE_CURVE('',#627,#628,#685,.F.);
#507=EDGE_CURVE('',#625,#628,#78,.T.);
#508=EDGE_CURVE('',#625,#628,#79,.F.);
#509=EDGE_CURVE('',#629,#629,#80,.T.);
#510=EDGE_CURVE('',#630,#630,#81,.T.);
#511=EDGE_CURVE('',#559,#554,#82,.F.);
#512=EDGE_CURVE('',#555,#631,#83,.F.);
#513=EDGE_CURVE('',#632,#631,#686,.T.);
#514=EDGE_CURVE('',#632,#633,#84,.F.);
#515=EDGE_CURVE('',#634,#633,#687,.F.);
#516=EDGE_CURVE('',#634,#626,#85,.F.);
#517=EDGE_CURVE('',#627,#622,#86,.F.);
#518=EDGE_CURVE('',#623,#618,#87,.F.);
#519=EDGE_CURVE('',#619,#614,#88,.F.);
#520=EDGE_CURVE('',#615,#610,#89,.F.);
#521=EDGE_CURVE('',#611,#606,#90,.F.);
#522=EDGE_CURVE('',#607,#602,#91,.F.);
#523=EDGE_CURVE('',#603,#598,#92,.F.);
#524=EDGE_CURVE('',#599,#594,#93,.F.);
#525=EDGE_CURVE('',#595,#590,#94,.F.);
#526=EDGE_CURVE('',#591,#586,#95,.F.);
#527=EDGE_CURVE('',#587,#582,#96,.F.);
#528=EDGE_CURVE('',#583,#578,#97,.F.);
#529=EDGE_CURVE('',#579,#574,#98,.F.);
#530=EDGE_CURVE('',#575,#570,#99,.F.);
#531=EDGE_CURVE('',#571,#566,#100,.F.);
#532=EDGE_CURVE('',#567,#562,#101,.F.);
#533=EDGE_CURVE('',#563,#558,#102,.F.);
#534=EDGE_CURVE('',#635,#635,#103,.T.);
#535=EDGE_CURVE('',#636,#636,#104,.F.);
#536=EDGE_CURVE('',#637,#637,#105,.T.);
#537=EDGE_CURVE('',#638,#638,#106,.T.);
#538=EDGE_CURVE('',#639,#639,#107,.T.);
#539=EDGE_CURVE('',#640,#641,#688,.T.);
#540=EDGE_CURVE('',#640,#642,#108,.F.);
#541=EDGE_CURVE('',#642,#643,#689,.T.);
#542=EDGE_CURVE('',#643,#641,#109,.T.);
#543=EDGE_CURVE('',#642,#640,#690,.T.);
#544=EDGE_CURVE('',#643,#641,#691,.T.);
#545=EDGE_CURVE('',#644,#644,#110,.T.);
#546=EDGE_CURVE('',#645,#646,#111,.T.);
#547=EDGE_CURVE('',#646,#645,#692,.T.);
#548=EDGE_CURVE('',#647,#647,#112,.T.);
#549=EDGE_CURVE('',#631,#634,#133,.T.);
#550=EDGE_CURVE('',#632,#633,#113,.T.);
#551=EDGE_CURVE('',#646,#640,#134,.F.);
#552=EDGE_CURVE('',#642,#645,#135,.F.);
#553=VERTEX_POINT('',#1394);
#554=VERTEX_POINT('',#1395);
#555=VERTEX_POINT('',#1403);
#556=VERTEX_POINT('',#1405);
#557=VERTEX_POINT('',#1411);
#558=VERTEX_POINT('',#1412);
#559=VERTEX_POINT('',#1420);
#560=VERTEX_POINT('',#1422);
#561=VERTEX_POINT('',#1428);
#562=VERTEX_POINT('',#1429);
#563=VERTEX_POINT('',#1437);
#564=VERTEX_POINT('',#1439);
#565=VERTEX_POINT('',#1445);
#566=VERTEX_POINT('',#1446);
#567=VERTEX_POINT('',#1454);
#568=VERTEX_POINT('',#1456);
#569=VERTEX_POINT('',#1462);
#570=VERTEX_POINT('',#1463);
#571=VERTEX_POINT('',#1471);
#572=VERTEX_POINT('',#1473);
#573=VERTEX_POINT('',#1479);
#574=VERTEX_POINT('',#1480);
#575=VERTEX_POINT('',#1488);
#576=VERTEX_POINT('',#1490);
#577=VERTEX_POINT('',#1496);
#578=VERTEX_POINT('',#1497);
#579=VERTEX_POINT('',#1505);
#580=VERTEX_POINT('',#1507);
#581=VERTEX_POINT('',#1513);
#582=VERTEX_POINT('',#1514);
#583=VERTEX_POINT('',#1522);
#584=VERTEX_POINT('',#1524);
#585=VERTEX_POINT('',#1530);
#586=VERTEX_POINT('',#1531);
#587=VERTEX_POINT('',#1539);
#588=VERTEX_POINT('',#1541);
#589=VERTEX_POINT('',#1547);
#590=VERTEX_POINT('',#1548);
#591=VERTEX_POINT('',#1556);
#592=VERTEX_POINT('',#1558);
#593=VERTEX_POINT('',#1564);
#594=VERTEX_POINT('',#1565);
#595=VERTEX_POINT('',#1573);
#596=VERTEX_POINT('',#1575);
#597=VERTEX_POINT('',#1581);
#598=VERTEX_POINT('',#1582);
#599=VERTEX_POINT('',#1590);
#600=VERTEX_POINT('',#1592);
#601=VERTEX_POINT('',#1598);
#602=VERTEX_POINT('',#1599);
#603=VERTEX_POINT('',#1607);
#604=VERTEX_POINT('',#1609);
#605=VERTEX_POINT('',#1615);
#606=VERTEX_POINT('',#1616);
#607=VERTEX_POINT('',#1624);
#608=VERTEX_POINT('',#1626);
#609=VERTEX_POINT('',#1632);
#610=VERTEX_POINT('',#1633);
#611=VERTEX_POINT('',#1641);
#612=VERTEX_POINT('',#1643);
#613=VERTEX_POINT('',#1649);
#614=VERTEX_POINT('',#1650);
#615=VERTEX_POINT('',#1658);
#616=VERTEX_POINT('',#1660);
#617=VERTEX_POINT('',#1666);
#618=VERTEX_POINT('',#1667);
#619=VERTEX_POINT('',#1675);
#620=VERTEX_POINT('',#1677);
#621=VERTEX_POINT('',#1683);
#622=VERTEX_POINT('',#1684);
#623=VERTEX_POINT('',#1692);
#624=VERTEX_POINT('',#1694);
#625=VERTEX_POINT('',#1700);
#626=VERTEX_POINT('',#1701);
#627=VERTEX_POINT('',#1709);
#628=VERTEX_POINT('',#1711);
#629=VERTEX_POINT('',#1717);
#630=VERTEX_POINT('',#1719);
#631=VERTEX_POINT('',#1723);
#632=VERTEX_POINT('',#1725);
#633=VERTEX_POINT('',#1727);
#634=VERTEX_POINT('',#1729);
#635=VERTEX_POINT('',#1749);
#636=VERTEX_POINT('',#1753);
#637=VERTEX_POINT('',#1755);
#638=VERTEX_POINT('',#1758);
#639=VERTEX_POINT('',#1760);
#640=VERTEX_POINT('',#1763);
#641=VERTEX_POINT('',#1764);
#642=VERTEX_POINT('',#1766);
#643=VERTEX_POINT('',#1768);
#644=VERTEX_POINT('',#1775);
#645=VERTEX_POINT('',#1778);
#646=VERTEX_POINT('',#1779);
#647=VERTEX_POINT('',#1783);
#648=LINE('',#1393,#693);
#649=LINE('',#1404,#694);
#650=LINE('',#1410,#695);
#651=LINE('',#1421,#696);
#652=LINE('',#1427,#697);
#653=LINE('',#1438,#698);
#654=LINE('',#1444,#699);
#655=LINE('',#1455,#700);
#656=LINE('',#1461,#701);
#657=LINE('',#1472,#702);
#658=LINE('',#1478,#703);
#659=LINE('',#1489,#704);
#660=LINE('',#1495,#705);
#661=LINE('',#1506,#706);
#662=LINE('',#1512,#707);
#663=LINE('',#1523,#708);
#664=LINE('',#1529,#709);
#665=LINE('',#1540,#710);
#666=LINE('',#1546,#711);
#667=LINE('',#1557,#712);
#668=LINE('',#1563,#713);
#669=LINE('',#1574,#714);
#670=LINE('',#1580,#715);
#671=LINE('',#1591,#716);
#672=LINE('',#1597,#717);
#673=LINE('',#1608,#718);
#674=LINE('',#1614,#719);
#675=LINE('',#1625,#720);
#676=LINE('',#1631,#721);
#677=LINE('',#1642,#722);
#678=LINE('',#1648,#723);
#679=LINE('',#1659,#724);
#680=LINE('',#1665,#725);
#681=LINE('',#1676,#726);
#682=LINE('',#1682,#727);
#683=LINE('',#1693,#728);
#684=LINE('',#1699,#729);
#685=LINE('',#1710,#730);
#686=LINE('',#1724,#731);
#687=LINE('',#1728,#732);
#688=LINE('',#1762,#733);
#689=LINE('',#1767,#734);
#690=LINE('',#1771,#735);
#691=LINE('',#1772,#736);
#692=LINE('',#1780,#737);
#693=VECTOR('',#1094,1000.);
#694=VECTOR('',#1095,1000.);
#695=VECTOR('',#1104,1000.);
#696=VECTOR('',#1105,1000.);
#697=VECTOR('',#1114,1000.);
#698=VECTOR('',#1115,1000.);
#699=VECTOR('',#1124,1000.);
#700=VECTOR('',#1125,1000.);
#701=VECTOR('',#1134,1000.);
#702=VECTOR('',#1135,1000.);
#703=VECTOR('',#1144,1000.);
#704=VECTOR('',#1145,1000.);
#705=VECTOR('',#1154,1000.);
#706=VECTOR('',#1155,1000.);
#707=VECTOR('',#1164,1000.);
#708=VECTOR('',#1165,1000.);
#709=VECTOR('',#1174,1000.);
#710=VECTOR('',#1175,1000.);
#711=VECTOR('',#1184,1000.);
#712=VECTOR('',#1185,1000.);
#713=VECTOR('',#1194,1000.);
#714=VECTOR('',#1195,1000.);
#715=VECTOR('',#1204,1000.);
#716=VECTOR('',#1205,1000.);
#717=VECTOR('',#1214,1000.);
#718=VECTOR('',#1215,1000.);
#719=VECTOR('',#1224,1000.);
#720=VECTOR('',#1225,1000.);
#721=VECTOR('',#1234,1000.);
#722=VECTOR('',#1235,1000.);
#723=VECTOR('',#1244,1000.);
#724=VECTOR('',#1245,1000.);
#725=VECTOR('',#1254,1000.);
#726=VECTOR('',#1255,1000.);
#727=VECTOR('',#1264,1000.);
#728=VECTOR('',#1265,1000.);
#729=VECTOR('',#1274,1000.);
#730=VECTOR('',#1275,1000.);
#731=VECTOR('',#1294,1000.);
#732=VECTOR('',#1297,1000.);
#733=VECTOR('',#1352,1000.);
#734=VECTOR('',#1355,1000.);
#735=VECTOR('',#1360,1000.);
#736=VECTOR('',#1361,1000.);
#737=VECTOR('',#1370,1000.);
#738=EDGE_LOOP('',(#136,#137,#138,#139));
#739=EDGE_LOOP('',(#140,#141));
#740=EDGE_LOOP('',(#142,#143,#144,#145));
#741=EDGE_LOOP('',(#146,#147));
#742=EDGE_LOOP('',(#148,#149,#150,#151));
#743=EDGE_LOOP('',(#152,#153));
#744=EDGE_LOOP('',(#154,#155,#156,#157));
#745=EDGE_LOOP('',(#158,#159));
#746=EDGE_LOOP('',(#160,#161,#162,#163));
#747=EDGE_LOOP('',(#164,#165));
#748=EDGE_LOOP('',(#166,#167,#168,#169));
#749=EDGE_LOOP('',(#170,#171));
#750=EDGE_LOOP('',(#172,#173,#174,#175));
#751=EDGE_LOOP('',(#176,#177));
#752=EDGE_LOOP('',(#178,#179,#180,#181));
#753=EDGE_LOOP('',(#182,#183));
#754=EDGE_LOOP('',(#184,#185,#186,#187));
#755=EDGE_LOOP('',(#188,#189));
#756=EDGE_LOOP('',(#190,#191,#192,#193));
#757=EDGE_LOOP('',(#194,#195));
#758=EDGE_LOOP('',(#196,#197,#198,#199));
#759=EDGE_LOOP('',(#200,#201));
#760=EDGE_LOOP('',(#202,#203,#204,#205));
#761=EDGE_LOOP('',(#206,#207));
#762=EDGE_LOOP('',(#208,#209,#210,#211));
#763=EDGE_LOOP('',(#212,#213));
#764=EDGE_LOOP('',(#214,#215,#216,#217));
#765=EDGE_LOOP('',(#218,#219));
#766=EDGE_LOOP('',(#220,#221,#222,#223));
#767=EDGE_LOOP('',(#224,#225));
#768=EDGE_LOOP('',(#226,#227,#228,#229));
#769=EDGE_LOOP('',(#230,#231));
#770=EDGE_LOOP('',(#232,#233,#234,#235));
#771=EDGE_LOOP('',(#236,#237));
#772=EDGE_LOOP('',(#238,#239,#240,#241));
#773=EDGE_LOOP('',(#242,#243));
#774=EDGE_LOOP('',(#244,#245,#246,#247));
#775=EDGE_LOOP('',(#248,#249));
#776=EDGE_LOOP('',(#250));
#777=EDGE_LOOP('',(#251));
#778=EDGE_LOOP('',(#252,#253,#254,#255,#256,#257,#258,#259,#260,#261,#262,
#263,#264,#265,#266,#267,#268,#269,#270,#271,#272,#273,#274,#275,#276,#277,
#278,#279,#280,#281,#282,#283,#284,#285,#286,#287,#288,#289,#290,#291,#292,
#293,#294,#295,#296,#297,#298,#299,#300,#301,#302,#303,#304,#305,#306,#307,
#308,#309,#310,#311,#312,#313,#314,#315,#316,#317,#318,#319,#320,#321,#322,
#323,#324,#325,#326,#327,#328,#329,#330,#331));
#779=EDGE_LOOP('',(#332));
#780=EDGE_LOOP('',(#333));
#781=EDGE_LOOP('',(#334));
#782=EDGE_LOOP('',(#335));
#783=EDGE_LOOP('',(#336));
#784=EDGE_LOOP('',(#337));
#785=EDGE_LOOP('',(#338));
#786=EDGE_LOOP('',(#339,#340,#341,#342));
#787=EDGE_LOOP('',(#343,#344,#345,#346));
#788=EDGE_LOOP('',(#347));
#789=EDGE_LOOP('',(#348));
#790=EDGE_LOOP('',(#349,#350));
#791=EDGE_LOOP('',(#351));
#792=EDGE_LOOP('',(#352));
#793=EDGE_LOOP('',(#353,#354));
#794=EDGE_LOOP('',(#355));
#795=EDGE_LOOP('',(#356));
#796=EDGE_LOOP('',(#357));
#797=EDGE_LOOP('',(#358));
#798=EDGE_LOOP('',(#359,#360,#361,#362,#363,#364,#365,#366,#367,#368,#369,
#370,#371,#372,#373,#374,#375,#376,#377,#378,#379,#380,#381,#382,#383,#384,
#385,#386,#387,#388,#389,#390,#391,#392,#393,#394,#395,#396,#397,#398));
#799=EDGE_LOOP('',(#399));
#800=EDGE_LOOP('',(#400,#401,#402,#403));
#801=EDGE_LOOP('',(#404,#405));
#802=EDGE_LOOP('',(#406,#407,#408,#409));
#803=EDGE_LOOP('',(#410,#411,#412,#413));
#804=FACE_BOUND('',#738,.T.);
#805=FACE_BOUND('',#739,.T.);
#806=FACE_BOUND('',#740,.T.);
#807=FACE_BOUND('',#741,.T.);
#808=FACE_BOUND('',#742,.T.);
#809=FACE_BOUND('',#743,.T.);
#810=FACE_BOUND('',#744,.T.);
#811=FACE_BOUND('',#745,.T.);
#812=FACE_BOUND('',#746,.T.);
#813=FACE_BOUND('',#747,.T.);
#814=FACE_BOUND('',#748,.T.);
#815=FACE_BOUND('',#749,.T.);
#816=FACE_BOUND('',#750,.T.);
#817=FACE_BOUND('',#751,.T.);
#818=FACE_BOUND('',#752,.T.);
#819=FACE_BOUND('',#753,.T.);
#820=FACE_BOUND('',#754,.T.);
#821=FACE_BOUND('',#755,.T.);
#822=FACE_BOUND('',#756,.T.);
#823=FACE_BOUND('',#757,.T.);
#824=FACE_BOUND('',#758,.T.);
#825=FACE_BOUND('',#759,.T.);
#826=FACE_BOUND('',#760,.T.);
#827=FACE_BOUND('',#761,.T.);
#828=FACE_BOUND('',#762,.T.);
#829=FACE_BOUND('',#763,.T.);
#830=FACE_BOUND('',#764,.T.);
#831=FACE_BOUND('',#765,.T.);
#832=FACE_BOUND('',#766,.T.);
#833=FACE_BOUND('',#767,.T.);
#834=FACE_BOUND('',#768,.T.);
#835=FACE_BOUND('',#769,.T.);
#836=FACE_BOUND('',#770,.T.);
#837=FACE_BOUND('',#771,.T.);
#838=FACE_BOUND('',#772,.T.);
#839=FACE_BOUND('',#773,.T.);
#840=FACE_BOUND('',#774,.T.);
#841=FACE_BOUND('',#775,.T.);
#842=FACE_BOUND('',#776,.T.);
#843=FACE_BOUND('',#777,.T.);
#844=FACE_BOUND('',#778,.T.);
#845=FACE_BOUND('',#779,.T.);
#846=FACE_BOUND('',#780,.T.);
#847=FACE_BOUND('',#781,.T.);
#848=FACE_BOUND('',#782,.T.);
#849=FACE_BOUND('',#783,.T.);
#850=FACE_BOUND('',#784,.T.);
#851=FACE_BOUND('',#785,.T.);
#852=FACE_BOUND('',#786,.T.);
#853=FACE_BOUND('',#787,.T.);
#854=FACE_BOUND('',#788,.T.);
#855=FACE_BOUND('',#789,.T.);
#856=FACE_BOUND('',#790,.T.);
#857=FACE_BOUND('',#791,.T.);
#858=FACE_BOUND('',#792,.T.);
#859=FACE_BOUND('',#793,.T.);
#860=FACE_BOUND('',#794,.T.);
#861=FACE_BOUND('',#795,.T.);
#862=FACE_BOUND('',#796,.T.);
#863=FACE_BOUND('',#797,.T.);
#864=FACE_BOUND('',#798,.T.);
#865=FACE_BOUND('',#799,.T.);
#866=FACE_BOUND('',#800,.T.);
#867=FACE_BOUND('',#801,.T.);
#868=FACE_BOUND('',#802,.T.);
#869=FACE_BOUND('',#803,.T.);
#870=CYLINDRICAL_SURFACE('',#963,1.5);
#871=CYLINDRICAL_SURFACE('',#967,1.5);
#872=CYLINDRICAL_SURFACE('',#971,1.5);
#873=CYLINDRICAL_SURFACE('',#975,1.5);
#874=CYLINDRICAL_SURFACE('',#979,1.5);
#875=CYLINDRICAL_SURFACE('',#983,1.5);
#876=CYLINDRICAL_SURFACE('',#987,1.5);
#877=CYLINDRICAL_SURFACE('',#991,1.5);
#878=CYLINDRICAL_SURFACE('',#995,1.5);
#879=CYLINDRICAL_SURFACE('',#999,1.5);
#880=CYLINDRICAL_SURFACE('',#1003,1.5);
#881=CYLINDRICAL_SURFACE('',#1007,1.5);
#882=CYLINDRICAL_SURFACE('',#1011,1.5);
#883=CYLINDRICAL_SURFACE('',#1015,1.5);
#884=CYLINDRICAL_SURFACE('',#1019,1.5);
#885=CYLINDRICAL_SURFACE('',#1023,1.5);
#886=CYLINDRICAL_SURFACE('',#1027,1.5);
#887=CYLINDRICAL_SURFACE('',#1031,1.5);
#888=CYLINDRICAL_SURFACE('',#1035,1.5);
#889=CYLINDRICAL_SURFACE('',#1039,8.5);
#890=CYLINDRICAL_SURFACE('',#1042,10.5);
#891=CYLINDRICAL_SURFACE('',#1072,3.05);
#892=CYLINDRICAL_SURFACE('',#1076,5.15);
#893=CYLINDRICAL_SURFACE('',#1082,1.5);
#894=CYLINDRICAL_SURFACE('',#1085,1.5);
#895=ADVANCED_FACE('',(#804),#870,.F.);
#896=ADVANCED_FACE('',(#805),#15,.T.);
#897=ADVANCED_FACE('',(#806),#871,.F.);
#898=ADVANCED_FACE('',(#807),#16,.T.);
#899=ADVANCED_FACE('',(#808),#872,.F.);
#900=ADVANCED_FACE('',(#809),#17,.T.);
#901=ADVANCED_FACE('',(#810),#873,.F.);
#902=ADVANCED_FACE('',(#811),#18,.T.);
#903=ADVANCED_FACE('',(#812),#874,.F.);
#904=ADVANCED_FACE('',(#813),#19,.T.);
#905=ADVANCED_FACE('',(#814),#875,.F.);
#906=ADVANCED_FACE('',(#815),#20,.T.);
#907=ADVANCED_FACE('',(#816),#876,.F.);
#908=ADVANCED_FACE('',(#817),#21,.T.);
#909=ADVANCED_FACE('',(#818),#877,.F.);
#910=ADVANCED_FACE('',(#819),#22,.T.);
#911=ADVANCED_FACE('',(#820),#878,.F.);
#912=ADVANCED_FACE('',(#821),#23,.T.);
#913=ADVANCED_FACE('',(#822),#879,.F.);
#914=ADVANCED_FACE('',(#823),#24,.T.);
#915=ADVANCED_FACE('',(#824),#880,.F.);
#916=ADVANCED_FACE('',(#825),#25,.T.);
#917=ADVANCED_FACE('',(#826),#881,.F.);
#918=ADVANCED_FACE('',(#827),#26,.T.);
#919=ADVANCED_FACE('',(#828),#882,.F.);
#920=ADVANCED_FACE('',(#829),#27,.T.);
#921=ADVANCED_FACE('',(#830),#883,.F.);
#922=ADVANCED_FACE('',(#831),#28,.T.);
#923=ADVANCED_FACE('',(#832),#884,.F.);
#924=ADVANCED_FACE('',(#833),#29,.T.);
#925=ADVANCED_FACE('',(#834),#885,.F.);
#926=ADVANCED_FACE('',(#835),#30,.T.);
#927=ADVANCED_FACE('',(#836),#886,.F.);
#928=ADVANCED_FACE('',(#837),#31,.T.);
#929=ADVANCED_FACE('',(#838),#887,.F.);
#930=ADVANCED_FACE('',(#839),#32,.T.);
#931=ADVANCED_FACE('',(#840),#888,.F.);
#932=ADVANCED_FACE('',(#841),#33,.T.);
#933=ADVANCED_FACE('',(#842,#843),#889,.F.);
#934=ADVANCED_FACE('',(#844,#845),#890,.T.);
#935=ADVANCED_FACE('',(#846,#847),#34,.F.);
#936=ADVANCED_FACE('',(#848,#849),#35,.F.);
#937=ADVANCED_FACE('',(#850,#851),#36,.T.);
#938=ADVANCED_FACE('',(#852),#891,.F.);
#939=ADVANCED_FACE('',(#853),#37,.T.);
#940=ADVANCED_FACE('',(#854,#855),#892,.T.);
#941=ADVANCED_FACE('',(#856,#857),#38,.F.);
#942=ADVANCED_FACE('',(#858,#859),#39,.F.);
#943=ADVANCED_FACE('',(#860,#861),#893,.F.);
#944=ADVANCED_FACE('',(#862,#863),#12,.F.);
#945=ADVANCED_FACE('',(#864,#865),#13,.T.);
#946=ADVANCED_FACE('',(#866),#894,.F.);
#947=ADVANCED_FACE('',(#867),#40,.T.);
#948=ADVANCED_FACE('',(#868),#14,.F.);
#949=ADVANCED_FACE('',(#869),#41,.T.);
#950=CLOSED_SHELL('',(#895,#896,#897,#898,#899,#900,#901,#902,#903,#904,
#905,#906,#907,#908,#909,#910,#911,#912,#913,#914,#915,#916,#917,#918,#919,
#920,#921,#922,#923,#924,#925,#926,#927,#928,#929,#930,#931,#932,#933,#934,
#935,#936,#937,#938,#939,#940,#941,#942,#943,#944,#945,#946,#947,#948,#949));
#951=STYLED_ITEM('',(#952),#959);
#952=PRESENTATION_STYLE_ASSIGNMENT((#953));
#953=SURFACE_STYLE_USAGE(.BOTH.,#954);
#954=SURFACE_SIDE_STYLE('',(#955));
#955=SURFACE_STYLE_FILL_AREA(#956);
#956=FILL_AREA_STYLE('',(#957));
#957=FILL_AREA_STYLE_COLOUR('',#958);
#958=COLOUR_RGB('',0.615686274509804,0.811764705882353,0.929411764705882);
#959=MANIFOLD_SOLID_BREP('Part 1',#950);
#960=SHAPE_DEFINITION_REPRESENTATION(#1813,#961);
#961=SHAPE_REPRESENTATION('Part 1',(#962),#1808);
#962=AXIS2_PLACEMENT_3D('',#1391,#1090,#1091);
#963=AXIS2_PLACEMENT_3D('',#1392,#1092,#1093);
#964=AXIS2_PLACEMENT_3D('',#1406,#1096,#1097);
#965=AXIS2_PLACEMENT_3D('',#1407,#1098,#1099);
#966=AXIS2_PLACEMENT_3D('',#1408,#1100,#1101);
#967=AXIS2_PLACEMENT_3D('',#1409,#1102,#1103);
#968=AXIS2_PLACEMENT_3D('',#1423,#1106,#1107);
#969=AXIS2_PLACEMENT_3D('',#1424,#1108,#1109);
#970=AXIS2_PLACEMENT_3D('',#1425,#1110,#1111);
#971=AXIS2_PLACEMENT_3D('',#1426,#1112,#1113);
#972=AXIS2_PLACEMENT_3D('',#1440,#1116,#1117);
#973=AXIS2_PLACEMENT_3D('',#1441,#1118,#1119);
#974=AXIS2_PLACEMENT_3D('',#1442,#1120,#1121);
#975=AXIS2_PLACEMENT_3D('',#1443,#1122,#1123);
#976=AXIS2_PLACEMENT_3D('',#1457,#1126,#1127);
#977=AXIS2_PLACEMENT_3D('',#1458,#1128,#1129);
#978=AXIS2_PLACEMENT_3D('',#1459,#1130,#1131);
#979=AXIS2_PLACEMENT_3D('',#1460,#1132,#1133);
#980=AXIS2_PLACEMENT_3D('',#1474,#1136,#1137);
#981=AXIS2_PLACEMENT_3D('',#1475,#1138,#1139);
#982=AXIS2_PLACEMENT_3D('',#1476,#1140,#1141);
#983=AXIS2_PLACEMENT_3D('',#1477,#1142,#1143);
#984=AXIS2_PLACEMENT_3D('',#1491,#1146,#1147);
#985=AXIS2_PLACEMENT_3D('',#1492,#1148,#1149);
#986=AXIS2_PLACEMENT_3D('',#1493,#1150,#1151);
#987=AXIS2_PLACEMENT_3D('',#1494,#1152,#1153);
#988=AXIS2_PLACEMENT_3D('',#1508,#1156,#1157);
#989=AXIS2_PLACEMENT_3D('',#1509,#1158,#1159);
#990=AXIS2_PLACEMENT_3D('',#1510,#1160,#1161);
#991=AXIS2_PLACEMENT_3D('',#1511,#1162,#1163);
#992=AXIS2_PLACEMENT_3D('',#1525,#1166,#1167);
#993=AXIS2_PLACEMENT_3D('',#1526,#1168,#1169);
#994=AXIS2_PLACEMENT_3D('',#1527,#1170,#1171);
#995=AXIS2_PLACEMENT_3D('',#1528,#1172,#1173);
#996=AXIS2_PLACEMENT_3D('',#1542,#1176,#1177);
#997=AXIS2_PLACEMENT_3D('',#1543,#1178,#1179);
#998=AXIS2_PLACEMENT_3D('',#1544,#1180,#1181);
#999=AXIS2_PLACEMENT_3D('',#1545,#1182,#1183);
#1000=AXIS2_PLACEMENT_3D('',#1559,#1186,#1187);
#1001=AXIS2_PLACEMENT_3D('',#1560,#1188,#1189);
#1002=AXIS2_PLACEMENT_3D('',#1561,#1190,#1191);
#1003=AXIS2_PLACEMENT_3D('',#1562,#1192,#1193);
#1004=AXIS2_PLACEMENT_3D('',#1576,#1196,#1197);
#1005=AXIS2_PLACEMENT_3D('',#1577,#1198,#1199);
#1006=AXIS2_PLACEMENT_3D('',#1578,#1200,#1201);
#1007=AXIS2_PLACEMENT_3D('',#1579,#1202,#1203);
#1008=AXIS2_PLACEMENT_3D('',#1593,#1206,#1207);
#1009=AXIS2_PLACEMENT_3D('',#1594,#1208,#1209);
#1010=AXIS2_PLACEMENT_3D('',#1595,#1210,#1211);
#1011=AXIS2_PLACEMENT_3D('',#1596,#1212,#1213);
#1012=AXIS2_PLACEMENT_3D('',#1610,#1216,#1217);
#1013=AXIS2_PLACEMENT_3D('',#1611,#1218,#1219);
#1014=AXIS2_PLACEMENT_3D('',#1612,#1220,#1221);
#1015=AXIS2_PLACEMENT_3D('',#1613,#1222,#1223);
#1016=AXIS2_PLACEMENT_3D('',#1627,#1226,#1227);
#1017=AXIS2_PLACEMENT_3D('',#1628,#1228,#1229);
#1018=AXIS2_PLACEMENT_3D('',#1629,#1230,#1231);
#1019=AXIS2_PLACEMENT_3D('',#1630,#1232,#1233);
#1020=AXIS2_PLACEMENT_3D('',#1644,#1236,#1237);
#1021=AXIS2_PLACEMENT_3D('',#1645,#1238,#1239);
#1022=AXIS2_PLACEMENT_3D('',#1646,#1240,#1241);
#1023=AXIS2_PLACEMENT_3D('',#1647,#1242,#1243);
#1024=AXIS2_PLACEMENT_3D('',#1661,#1246,#1247);
#1025=AXIS2_PLACEMENT_3D('',#1662,#1248,#1249);
#1026=AXIS2_PLACEMENT_3D('',#1663,#1250,#1251);
#1027=AXIS2_PLACEMENT_3D('',#1664,#1252,#1253);
#1028=AXIS2_PLACEMENT_3D('',#1678,#1256,#1257);
#1029=AXIS2_PLACEMENT_3D('',#1679,#1258,#1259);
#1030=AXIS2_PLACEMENT_3D('',#1680,#1260,#1261);
#1031=AXIS2_PLACEMENT_3D('',#1681,#1262,#1263);
#1032=AXIS2_PLACEMENT_3D('',#1695,#1266,#1267);
#1033=AXIS2_PLACEMENT_3D('',#1696,#1268,#1269);
#1034=AXIS2_PLACEMENT_3D('',#1697,#1270,#1271);
#1035=AXIS2_PLACEMENT_3D('',#1698,#1272,#1273);
#1036=AXIS2_PLACEMENT_3D('',#1712,#1276,#1277);
#1037=AXIS2_PLACEMENT_3D('',#1713,#1278,#1279);
#1038=AXIS2_PLACEMENT_3D('',#1714,#1280,#1281);
#1039=AXIS2_PLACEMENT_3D('',#1715,#1282,#1283);
#1040=AXIS2_PLACEMENT_3D('',#1716,#1284,#1285);
#1041=AXIS2_PLACEMENT_3D('',#1718,#1286,#1287);
#1042=AXIS2_PLACEMENT_3D('',#1720,#1288,#1289);
#1043=AXIS2_PLACEMENT_3D('',#1721,#1290,#1291);
#1044=AXIS2_PLACEMENT_3D('',#1722,#1292,#1293);
#1045=AXIS2_PLACEMENT_3D('',#1726,#1295,#1296);
#1046=AXIS2_PLACEMENT_3D('',#1730,#1298,#1299);
#1047=AXIS2_PLACEMENT_3D('',#1731,#1300,#1301);
#1048=AXIS2_PLACEMENT_3D('',#1732,#1302,#1303);
#1049=AXIS2_PLACEMENT_3D('',#1733,#1304,#1305);
#1050=AXIS2_PLACEMENT_3D('',#1734,#1306,#1307);
#1051=AXIS2_PLACEMENT_3D('',#1735,#1308,#1309);
#1052=AXIS2_PLACEMENT_3D('',#1736,#1310,#1311);
#1053=AXIS2_PLACEMENT_3D('',#1737,#1312,#1313);
#1054=AXIS2_PLACEMENT_3D('',#1738,#1314,#1315);
#1055=AXIS2_PLACEMENT_3D('',#1739,#1316,#1317);
#1056=AXIS2_PLACEMENT_3D('',#1740,#1318,#1319);
#1057=AXIS2_PLACEMENT_3D('',#1741,#1320,#1321);
#1058=AXIS2_PLACEMENT_3D('',#1742,#1322,#1323);
#1059=AXIS2_PLACEMENT_3D('',#1743,#1324,#1325);
#1060=AXIS2_PLACEMENT_3D('',#1744,#1326,#1327);
#1061=AXIS2_PLACEMENT_3D('',#1745,#1328,#1329);
#1062=AXIS2_PLACEMENT_3D('',#1746,#1330,#1331);
#1063=AXIS2_PLACEMENT_3D('',#1747,#1332,#1333);
#1064=AXIS2_PLACEMENT_3D('',#1748,#1334,#1335);
#1065=AXIS2_PLACEMENT_3D('',#1750,#1336,#1337);
#1066=AXIS2_PLACEMENT_3D('',#1751,#1338,#1339);
#1067=AXIS2_PLACEMENT_3D('',#1752,#1340,#1341);
#1068=AXIS2_PLACEMENT_3D('',#1754,#1342,#1343);
#1069=AXIS2_PLACEMENT_3D('',#1756,#1344,#1345);
#1070=AXIS2_PLACEMENT_3D('',#1757,#1346,#1347);
#1071=AXIS2_PLACEMENT_3D('',#1759,#1348,#1349);
#1072=AXIS2_PLACEMENT_3D('',#1761,#1350,#1351);
#1073=AXIS2_PLACEMENT_3D('',#1765,#1353,#1354);
#1074=AXIS2_PLACEMENT_3D('',#1769,#1356,#1357);
#1075=AXIS2_PLACEMENT_3D('',#1770,#1358,#1359);
#1076=AXIS2_PLACEMENT_3D('',#1773,#1362,#1363);
#1077=AXIS2_PLACEMENT_3D('',#1774,#1364,#1365);
#1078=AXIS2_PLACEMENT_3D('',#1776,#1366,#1367);
#1079=AXIS2_PLACEMENT_3D('',#1777,#1368,#1369);
#1080=AXIS2_PLACEMENT_3D('',#1781,#1371,#1372);
#1081=AXIS2_PLACEMENT_3D('',#1782,#1373,#1374);
#1082=AXIS2_PLACEMENT_3D('',#1784,#1375,#1376);
#1083=AXIS2_PLACEMENT_3D('',#1785,#1377,#1378);
#1084=AXIS2_PLACEMENT_3D('',#1786,#1379,#1380);
#1085=AXIS2_PLACEMENT_3D('',#1794,#1381,#1382);
#1086=AXIS2_PLACEMENT_3D('',#1795,#1383,#1384);
#1087=AXIS2_PLACEMENT_3D('',#1796,#1385,#1386);
#1088=AXIS2_PLACEMENT_3D('',#1797,#1387,#1388);
#1089=AXIS2_PLACEMENT_3D('',#1806,#1389,#1390);
#1090=DIRECTION('',(0.,0.,1.));
#1091=DIRECTION('',(1.,0.,0.));
#1092=DIRECTION('',(0.,1.,0.));
#1093=DIRECTION('',(0.951056516295154,0.,-0.309016994374948));
#1094=DIRECTION('',(0.,1.,0.));
#1095=DIRECTION('',(0.,1.,0.));
#1096=DIRECTION('',(0.,1.,0.));
#1097=DIRECTION('',(0.951056516295154,0.,-0.309016994374948));
#1098=DIRECTION('',(0.,1.,0.));
#1099=DIRECTION('',(0.951056516295154,0.,-0.309016994374948));
#1100=DIRECTION('',(0.,1.,0.));
#1101=DIRECTION('',(0.951056516295154,0.,-0.309016994374948));
#1102=DIRECTION('',(0.,1.,0.));
#1103=DIRECTION('',(0.809016994374947,0.,-0.587785252292473));
#1104=DIRECTION('',(0.,1.,0.));
#1105=DIRECTION('',(0.,1.,0.));
#1106=DIRECTION('',(0.,1.,0.));
#1107=DIRECTION('',(0.809016994374947,0.,-0.587785252292473));
#1108=DIRECTION('',(0.,1.,0.));
#1109=DIRECTION('',(0.809016994374947,0.,-0.587785252292473));
#1110=DIRECTION('',(0.,1.,0.));
#1111=DIRECTION('',(0.809016994374947,0.,-0.587785252292473));
#1112=DIRECTION('',(0.,1.,0.));
#1113=DIRECTION('',(0.587785252292473,0.,-0.809016994374948));
#1114=DIRECTION('',(0.,1.,0.));
#1115=DIRECTION('',(0.,1.,0.));
#1116=DIRECTION('',(0.,1.,0.));
#1117=DIRECTION('',(0.587785252292473,0.,-0.809016994374948));
#1118=DIRECTION('',(0.,1.,0.));
#1119=DIRECTION('',(0.587785252292473,0.,-0.809016994374948));
#1120=DIRECTION('',(0.,1.,0.));
#1121=DIRECTION('',(0.587785252292473,0.,-0.809016994374948));
#1122=DIRECTION('',(0.,1.,0.));
#1123=DIRECTION('',(0.309016994374948,0.,-0.951056516295154));
#1124=DIRECTION('',(0.,1.,0.));
#1125=DIRECTION('',(0.,1.,0.));
#1126=DIRECTION('',(0.,1.,0.));
#1127=DIRECTION('',(0.309016994374948,0.,-0.951056516295154));
#1128=DIRECTION('',(0.,1.,0.));
#1129=DIRECTION('',(0.309016994374948,0.,-0.951056516295154));
#1130=DIRECTION('',(0.,1.,0.));
#1131=DIRECTION('',(0.309016994374948,0.,-0.951056516295154));
#1132=DIRECTION('',(0.,1.,0.));
#1133=DIRECTION('',(-1.83697019872103E-16,0.,-1.));
#1134=DIRECTION('',(0.,1.,0.));
#1135=DIRECTION('',(0.,1.,0.));
#1136=DIRECTION('',(0.,1.,0.));
#1137=DIRECTION('',(-1.83697019872103E-16,0.,-1.));
#1138=DIRECTION('',(0.,1.,0.));
#1139=DIRECTION('',(-1.83697019872103E-16,0.,-1.));
#1140=DIRECTION('',(0.,1.,0.));
#1141=DIRECTION('',(-1.83697019872103E-16,0.,-1.));
#1142=DIRECTION('',(0.,1.,0.));
#1143=DIRECTION('',(-0.309016994374948,0.,-0.951056516295154));
#1144=DIRECTION('',(0.,1.,0.));
#1145=DIRECTION('',(0.,1.,0.));
#1146=DIRECTION('',(0.,1.,0.));
#1147=DIRECTION('',(-0.309016994374948,0.,-0.951056516295154));
#1148=DIRECTION('',(0.,1.,0.));
#1149=DIRECTION('',(-0.309016994374948,0.,-0.951056516295154));
#1150=DIRECTION('',(0.,1.,0.));
#1151=DIRECTION('',(-0.309016994374948,0.,-0.951056516295154));
#1152=DIRECTION('',(0.,1.,0.));
#1153=DIRECTION('',(-0.587785252292473,0.,-0.809016994374947));
#1154=DIRECTION('',(0.,1.,0.));
#1155=DIRECTION('',(0.,1.,0.));
#1156=DIRECTION('',(0.,1.,0.));
#1157=DIRECTION('',(-0.587785252292473,0.,-0.809016994374947));
#1158=DIRECTION('',(0.,1.,0.));
#1159=DIRECTION('',(-0.587785252292473,0.,-0.809016994374947));
#1160=DIRECTION('',(0.,1.,0.));
#1161=DIRECTION('',(-0.587785252292473,0.,-0.809016994374947));
#1162=DIRECTION('',(0.,1.,0.));
#1163=DIRECTION('',(-0.809016994374948,0.,-0.587785252292473));
#1164=DIRECTION('',(0.,1.,0.));
#1165=DIRECTION('',(0.,1.,0.));
#1166=DIRECTION('',(0.,1.,0.));
#1167=DIRECTION('',(-0.809016994374948,0.,-0.587785252292473));
#1168=DIRECTION('',(0.,1.,0.));
#1169=DIRECTION('',(-0.809016994374948,0.,-0.587785252292473));
#1170=DIRECTION('',(0.,1.,0.));
#1171=DIRECTION('',(-0.809016994374948,0.,-0.587785252292473));
#1172=DIRECTION('',(0.,1.,0.));
#1173=DIRECTION('',(-0.951056516295154,0.,-0.309016994374948));
#1174=DIRECTION('',(0.,1.,0.));
#1175=DIRECTION('',(0.,1.,0.));
#1176=DIRECTION('',(0.,1.,0.));
#1177=DIRECTION('',(-0.951056516295154,0.,-0.309016994374948));
#1178=DIRECTION('',(0.,1.,0.));
#1179=DIRECTION('',(-0.951056516295154,0.,-0.309016994374948));
#1180=DIRECTION('',(0.,1.,0.));
#1181=DIRECTION('',(-0.951056516295154,0.,-0.309016994374948));
#1182=DIRECTION('',(0.,1.,0.));
#1183=DIRECTION('',(-1.,0.,1.22464679914735E-16));
#1184=DIRECTION('',(0.,1.,0.));
#1185=DIRECTION('',(0.,1.,0.));
#1186=DIRECTION('',(0.,1.,0.));
#1187=DIRECTION('',(-1.,0.,1.22464679914735E-16));
#1188=DIRECTION('',(0.,1.,0.));
#1189=DIRECTION('',(-1.,0.,1.22464679914735E-16));
#1190=DIRECTION('',(0.,1.,0.));
#1191=DIRECTION('',(-1.,0.,1.22464679914735E-16));
#1192=DIRECTION('',(0.,1.,0.));
#1193=DIRECTION('',(-0.951056516295154,0.,0.309016994374948));
#1194=DIRECTION('',(0.,1.,0.));
#1195=DIRECTION('',(0.,1.,0.));
#1196=DIRECTION('',(0.,1.,0.));
#1197=DIRECTION('',(-0.951056516295154,0.,0.309016994374948));
#1198=DIRECTION('',(0.,1.,0.));
#1199=DIRECTION('',(-0.951056516295154,0.,0.309016994374948));
#1200=DIRECTION('',(0.,1.,0.));
#1201=DIRECTION('',(-0.951056516295154,0.,0.309016994374948));
#1202=DIRECTION('',(0.,1.,0.));
#1203=DIRECTION('',(-0.809016994374947,0.,0.587785252292473));
#1204=DIRECTION('',(0.,1.,0.));
#1205=DIRECTION('',(0.,1.,0.));
#1206=DIRECTION('',(0.,1.,0.));
#1207=DIRECTION('',(-0.809016994374947,0.,0.587785252292473));
#1208=DIRECTION('',(0.,1.,0.));
#1209=DIRECTION('',(-0.809016994374947,0.,0.587785252292473));
#1210=DIRECTION('',(0.,1.,0.));
#1211=DIRECTION('',(-0.809016994374947,0.,0.587785252292473));
#1212=DIRECTION('',(0.,1.,0.));
#1213=DIRECTION('',(-0.587785252292473,0.,0.809016994374948));
#1214=DIRECTION('',(0.,1.,0.));
#1215=DIRECTION('',(0.,1.,0.));
#1216=DIRECTION('',(0.,1.,0.));
#1217=DIRECTION('',(-0.587785252292473,0.,0.809016994374948));
#1218=DIRECTION('',(0.,1.,0.));
#1219=DIRECTION('',(-0.587785252292473,0.,0.809016994374948));
#1220=DIRECTION('',(0.,1.,0.));
#1221=DIRECTION('',(-0.587785252292473,0.,0.809016994374948));
#1222=DIRECTION('',(0.,1.,0.));
#1223=DIRECTION('',(-0.309016994374948,0.,0.951056516295154));
#1224=DIRECTION('',(0.,1.,0.));
#1225=DIRECTION('',(0.,1.,0.));
#1226=DIRECTION('',(0.,1.,0.));
#1227=DIRECTION('',(-0.309016994374948,0.,0.951056516295154));
#1228=DIRECTION('',(0.,1.,0.));
#1229=DIRECTION('',(-0.309016994374948,0.,0.951056516295154));
#1230=DIRECTION('',(0.,1.,0.));
#1231=DIRECTION('',(-0.309016994374948,0.,0.951056516295154));
#1232=DIRECTION('',(0.,1.,0.));
#1233=DIRECTION('',(6.12323399573677E-17,0.,1.));
#1234=DIRECTION('',(0.,1.,0.));
#1235=DIRECTION('',(0.,1.,0.));
#1236=DIRECTION('',(0.,1.,0.));
#1237=DIRECTION('',(6.12323399573677E-17,0.,1.));
#1238=DIRECTION('',(0.,1.,0.));
#1239=DIRECTION('',(6.12323399573677E-17,0.,1.));
#1240=DIRECTION('',(0.,1.,0.));
#1241=DIRECTION('',(6.12323399573677E-17,0.,1.));
#1242=DIRECTION('',(0.,1.,0.));
#1243=DIRECTION('',(0.309016994374948,0.,0.951056516295154));
#1244=DIRECTION('',(0.,1.,0.));
#1245=DIRECTION('',(0.,1.,0.));
#1246=DIRECTION('',(0.,1.,0.));
#1247=DIRECTION('',(0.309016994374948,0.,0.951056516295154));
#1248=DIRECTION('',(0.,1.,0.));
#1249=DIRECTION('',(0.309016994374948,0.,0.951056516295154));
#1250=DIRECTION('',(0.,1.,0.));
#1251=DIRECTION('',(0.309016994374948,0.,0.951056516295154));
#1252=DIRECTION('',(0.,1.,0.));
#1253=DIRECTION('',(0.587785252292473,0.,0.809016994374948));
#1254=DIRECTION('',(0.,1.,0.));
#1255=DIRECTION('',(0.,1.,0.));
#1256=DIRECTION('',(0.,1.,0.));
#1257=DIRECTION('',(0.587785252292473,0.,0.809016994374948));
#1258=DIRECTION('',(0.,1.,0.));
#1259=DIRECTION('',(0.587785252292473,0.,0.809016994374948));
#1260=DIRECTION('',(0.,1.,0.));
#1261=DIRECTION('',(0.587785252292473,0.,0.809016994374948));
#1262=DIRECTION('',(0.,1.,0.));
#1263=DIRECTION('',(0.809016994374948,0.,0.587785252292473));
#1264=DIRECTION('',(0.,1.,0.));
#1265=DIRECTION('',(0.,1.,0.));
#1266=DIRECTION('',(0.,1.,0.));
#1267=DIRECTION('',(0.809016994374948,0.,0.587785252292473));
#1268=DIRECTION('',(0.,1.,0.));
#1269=DIRECTION('',(0.809016994374948,0.,0.587785252292473));
#1270=DIRECTION('',(0.,1.,0.));
#1271=DIRECTION('',(0.809016994374948,0.,0.587785252292473));
#1272=DIRECTION('',(0.,1.,0.));
#1273=DIRECTION('',(0.951056516295154,0.,0.309016994374948));
#1274=DIRECTION('',(0.,1.,0.));
#1275=DIRECTION('',(0.,1.,0.));
#1276=DIRECTION('',(0.,1.,0.));
#1277=DIRECTION('',(0.951056516295154,0.,0.309016994374948));
#1278=DIRECTION('',(0.,1.,0.));
#1279=DIRECTION('',(0.951056516295154,0.,0.309016994374948));
#1280=DIRECTION('',(0.,1.,0.));
#1281=DIRECTION('',(0.951056516295154,0.,0.309016994374948));
#1282=DIRECTION('',(0.,1.,0.));
#1283=DIRECTION('',(1.,0.,0.));
#1284=DIRECTION('',(0.,1.,0.));
#1285=DIRECTION('',(1.,0.,0.));
#1286=DIRECTION('',(0.,1.,0.));
#1287=DIRECTION('',(1.,0.,0.));
#1288=DIRECTION('',(0.,1.,0.));
#1289=DIRECTION('',(1.,0.,0.));
#1290=DIRECTION('',(0.,1.,0.));
#1291=DIRECTION('',(1.,0.,0.));
#1292=DIRECTION('',(0.,1.,0.));
#1293=DIRECTION('',(1.,0.,0.));
#1294=DIRECTION('',(0.,1.,0.));
#1295=DIRECTION('',(0.,1.,0.));
#1296=DIRECTION('',(1.,0.,0.));
#1297=DIRECTION('',(0.,1.,0.));
#1298=DIRECTION('',(0.,1.,0.));
#1299=DIRECTION('',(1.,0.,0.));
#1300=DIRECTION('',(0.,1.,0.));
#1301=DIRECTION('',(1.,0.,0.));
#1302=DIRECTION('',(0.,1.,0.));
#1303=DIRECTION('',(1.,0.,0.));
#1304=DIRECTION('',(0.,1.,0.));
#1305=DIRECTION('',(1.,0.,0.));
#1306=DIRECTION('',(0.,1.,0.));
#1307=DIRECTION('',(1.,0.,0.));
#1308=DIRECTION('',(0.,1.,0.));
#1309=DIRECTION('',(1.,0.,0.));
#1310=DIRECTION('',(0.,1.,0.));
#1311=DIRECTION('',(1.,0.,0.));
#1312=DIRECTION('',(0.,1.,0.));
#1313=DIRECTION('',(1.,0.,0.));
#1314=DIRECTION('',(0.,1.,0.));
#1315=DIRECTION('',(1.,0.,0.));
#1316=DIRECTION('',(0.,1.,0.));
#1317=DIRECTION('',(1.,0.,0.));
#1318=DIRECTION('',(0.,1.,0.));
#1319=DIRECTION('',(1.,0.,0.));
#1320=DIRECTION('',(0.,1.,0.));
#1321=DIRECTION('',(1.,0.,0.));
#1322=DIRECTION('',(0.,1.,0.));
#1323=DIRECTION('',(1.,0.,0.));
#1324=DIRECTION('',(0.,1.,0.));
#1325=DIRECTION('',(1.,0.,0.));
#1326=DIRECTION('',(0.,1.,0.));
#1327=DIRECTION('',(1.,0.,0.));
#1328=DIRECTION('',(0.,1.,0.));
#1329=DIRECTION('',(1.,0.,0.));
#1330=DIRECTION('',(0.,1.,0.));
#1331=DIRECTION('',(1.,0.,0.));
#1332=DIRECTION('',(0.,1.,0.));
#1333=DIRECTION('',(1.,0.,0.));
#1334=DIRECTION('',(0.,1.,0.));
#1335=DIRECTION('',(1.,0.,0.));
#1336=DIRECTION('',(0.,1.,0.));
#1337=DIRECTION('',(1.,0.,0.));
#1338=DIRECTION('',(0.,1.,0.));
#1339=DIRECTION('',(1.,0.,0.));
#1340=DIRECTION('',(0.,1.,0.));
#1341=DIRECTION('',(1.,0.,0.));
#1342=DIRECTION('',(0.,1.,0.));
#1343=DIRECTION('',(1.,0.,0.));
#1344=DIRECTION('',(0.,1.,0.));
#1345=DIRECTION('',(1.,0.,0.));
#1346=DIRECTION('',(0.,1.,0.));
#1347=DIRECTION('',(1.,0.,0.));
#1348=DIRECTION('',(0.,1.,0.));
#1349=DIRECTION('',(1.,0.,0.));
#1350=DIRECTION('',(0.,1.,0.));
#1351=DIRECTION('',(1.,0.,0.));
#1352=DIRECTION('',(0.,1.,0.));
#1353=DIRECTION('',(0.,1.,0.));
#1354=DIRECTION('',(1.,0.,0.));
#1355=DIRECTION('',(0.,1.,0.));
#1356=DIRECTION('',(0.,1.,0.));
#1357=DIRECTION('',(1.,0.,0.));
#1358=DIRECTION('',(-1.,0.,8.68056461157843E-17));
#1359=DIRECTION('',(8.68056461157843E-17,0.,1.));
#1360=DIRECTION('',(8.68056461157843E-17,0.,1.));
#1361=DIRECTION('',(8.68056461157843E-17,0.,1.));
#1362=DIRECTION('',(0.,1.,0.));
#1363=DIRECTION('',(1.,0.,0.));
#1364=DIRECTION('',(0.,1.,0.));
#1365=DIRECTION('',(1.,0.,0.));
#1366=DIRECTION('',(0.,1.,0.));
#1367=DIRECTION('',(1.,0.,0.));
#1368=DIRECTION('',(0.,1.,0.));
#1369=DIRECTION('',(1.,0.,0.));
#1370=DIRECTION('',(-8.68056461157843E-17,0.,-1.));
#1371=DIRECTION('',(0.,1.,0.));
#1372=DIRECTION('',(1.,0.,0.));
#1373=DIRECTION('',(0.,1.,0.));
#1374=DIRECTION('',(1.,0.,0.));
#1375=DIRECTION('',(0.,1.,0.));
#1376=DIRECTION('',(1.,0.,0.));
#1377=DIRECTION('',(0.,-1.,0.));
#1378=DIRECTION('',(-1.,0.,0.));
#1379=DIRECTION('',(0.,-1.,0.));
#1380=DIRECTION('',(-1.,0.,0.));
#1381=DIRECTION('',(0.,1.,0.));
#1382=DIRECTION('',(1.,0.,0.));
#1383=DIRECTION('',(0.,1.,0.));
#1384=DIRECTION('',(1.,0.,0.));
#1385=DIRECTION('',(0.,1.,0.));
#1386=DIRECTION('',(1.,0.,0.));
#1387=DIRECTION('',(0.,-1.,0.));
#1388=DIRECTION('',(-1.,0.,0.));
#1389=DIRECTION('',(-0.707106781186548,-0.707106781186548,6.13808610137508E-17));
#1390=DIRECTION('',(-8.68056461157843E-17,0.,-1.));
#1391=CARTESIAN_POINT('',(0.,0.,0.));
#1392=CARTESIAN_POINT('',(-10.9371499373943,-15.,3.5536954353119));
#1393=CARTESIAN_POINT('',(-9.60470446685397,-7.,4.24259968703099));
#1394=CARTESIAN_POINT('',(-9.60470446685397,-15.,4.24259968703099));
#1395=CARTESIAN_POINT('',(-9.60470446685397,0.,4.24259968703099));
#1396=CARTESIAN_POINT('',(-9.60470446685396,4.94700214263374E-16,4.24259968703099));
#1397=CARTESIAN_POINT('',(-9.52510139056324,0.135026048976196,4.08863524541234));
#1398=CARTESIAN_POINT('',(-9.40766478093457,0.381055959826985,3.73987397915644));
#1399=CARTESIAN_POINT('',(-9.46143593371421,0.559394533249429,3.07508980365455));
#1400=CARTESIAN_POINT('',(-9.80889169342632,0.38136511018969,2.50414575164666));
#1401=CARTESIAN_POINT('',(-10.109091873169,0.135127624042574,2.2909972303508));
#1402=CARTESIAN_POINT('',(-10.2641066670513,1.44387625593674E-15,2.2131683911065));
#1403=CARTESIAN_POINT('',(-10.2641066670513,8.34433684361888E-16,2.2131683911065));
#1404=CARTESIAN_POINT('',(-10.2641066670513,-7.,2.2131683911065));
#1405=CARTESIAN_POINT('',(-10.2641066670513,-15.,2.2131683911065));
#1406=CARTESIAN_POINT('',(-10.9371499373943,-15.,3.5536954353119));
#1407=CARTESIAN_POINT('',(-1.66434890351652,-15.,0.540779740156158));
#1408=CARTESIAN_POINT('',(-1.98679253347793E-16,-15.,-6.11471867206774E-16));
#1409=CARTESIAN_POINT('',(-9.30369543531189,-15.,6.75953040136344));
#1410=CARTESIAN_POINT('',(-7.82358136666823,-7.,7.00296898458945));
#1411=CARTESIAN_POINT('',(-7.82358136666823,-15.,7.00296898458945));
#1412=CARTESIAN_POINT('',(-7.82358136666823,0.,7.00296898458945));
#1413=CARTESIAN_POINT('',(-7.82358136666822,-1.14386176033281E-15,7.00296898458945));
#1414=CARTESIAN_POINT('',(-7.7954519712344,0.135026048976195,6.83194139573192));
#1415=CARTESIAN_POINT('',(-7.79153627664825,0.381055959826987,6.46395981269086));
#1416=CARTESIAN_POINT('',(-8.04810528970964,0.559394533249432,5.84832869066592));
#1417=CARTESIAN_POINT('',(-8.55498676901588,0.381365110189688,5.41269836410836));
#1418=CARTESIAN_POINT('',(-8.90636062155943,0.13512762404257,5.30274903124616));
#1419=CARTESIAN_POINT('',(-9.07783888538231,-2.05636004935365E-15,5.27663161221635));
#1420=CARTESIAN_POINT('',(-9.07783888538231,8.34433684361888E-16,5.27663161221635));
#1421=CARTESIAN_POINT('',(-9.07783888538231,-7.,5.27663161221635));
#1422=CARTESIAN_POINT('',(-9.07783888538231,-15.,5.27663161221635));
#1423=CARTESIAN_POINT('',(-9.30369543531189,-15.,6.75953040136344));
#1424=CARTESIAN_POINT('',(-1.41577974015616,-15.,1.02862419151183));
#1425=CARTESIAN_POINT('',(-3.77910397098149E-16,-15.,-5.20149038123973E-16));
#1426=CARTESIAN_POINT('',(-6.75953040136344,-15.,9.3036954353119));
#1427=CARTESIAN_POINT('',(-5.27663161221635,-7.,9.07783888538231));
#1428=CARTESIAN_POINT('',(-5.27663161221635,-15.,9.07783888538231));
#1429=CARTESIAN_POINT('',(-5.27663161221635,0.,9.07783888538231));
#1430=CARTESIAN_POINT('',(-5.27663161221635,-3.9118781405059E-15,9.07783888538231));
#1431=CARTESIAN_POINT('',(-5.30272939885352,0.135026048976191,8.90648952130257));
#1432=CARTESIAN_POINT('',(-5.41271791477822,0.381055959826982,8.55530822270286));
#1433=CARTESIAN_POINT('',(-5.8469700255015,0.559394533249422,8.04909241773293));
#1434=CARTESIAN_POINT('',(-6.4636601335564,0.381365110189686,7.79141834820411));
#1435=CARTESIAN_POINT('',(-6.83181273804828,0.135127624042572,7.79543081053816));
#1436=CARTESIAN_POINT('',(-7.00296898458944,-1.40999701200252E-16,7.82358136666823));
#1437=CARTESIAN_POINT('',(-7.00296898458944,8.34433684361888E-16,7.82358136666823));
#1438=CARTESIAN_POINT('',(-7.00296898458945,-7.,7.82358136666823));
#1439=CARTESIAN_POINT('',(-7.00296898458944,-15.,7.82358136666823));
#1440=CARTESIAN_POINT('',(-6.75953040136344,-15.,9.3036954353119));
#1441=CARTESIAN_POINT('',(-1.02862419151183,-15.,1.41577974015616));
#1442=CARTESIAN_POINT('',(-5.20149038123973E-16,-15.,-3.77910397098148E-16));
#1443=CARTESIAN_POINT('',(-3.55369543531189,-15.,10.9371499373943));
#1444=CARTESIAN_POINT('',(-2.2131683911065,-7.,10.2641066670513));
#1445=CARTESIAN_POINT('',(-2.2131683911065,-15.,10.2641066670513));
#1446=CARTESIAN_POINT('',(-2.2131683911065,0.,10.2641066670513));
#1447=CARTESIAN_POINT('',(-2.2131683911065,2.31925728231318E-15,10.2641066670513));
#1448=CARTESIAN_POINT('',(-2.29093872662464,0.135026048976198,10.1092083973667));
#1449=CARTESIAN_POINT('',(-2.50406501078643,0.381055959826989,9.80920345553925));
#1450=CARTESIAN_POINT('',(-3.07349259696164,0.559394533249429,9.46195489762769));
#1451=CARTESIAN_POINT('',(-3.73962540925618,0.38136511018969,9.4074600183739));
#1452=CARTESIAN_POINT('',(-4.0885194236987,0.135127624042573,9.52504150813448));
#1453=CARTESIAN_POINT('',(-4.24259968703099,1.43268204930879E-15,9.60470446685396));
#1454=CARTESIAN_POINT('',(-4.24259968703099,8.34433684361888E-16,9.60470446685397));
#1455=CARTESIAN_POINT('',(-4.24259968703099,-7.,9.60470446685397));
#1456=CARTESIAN_POINT('',(-4.24259968703099,-15.,9.60470446685397));
#1457=CARTESIAN_POINT('',(-3.55369543531189,-15.,10.9371499373943));
#1458=CARTESIAN_POINT('',(-0.540779740156157,-15.,1.66434890351652));
#1459=CARTESIAN_POINT('',(-6.11471867206774E-16,-15.,-1.98679253347793E-16));
#1460=CARTESIAN_POINT('',(2.02066721859313E-15,-15.,11.5));
#1461=CARTESIAN_POINT('',(1.06693517217576,-7.,10.445652173913));
#1462=CARTESIAN_POINT('',(1.06693517217576,-15.,10.445652173913));
#1463=CARTESIAN_POINT('',(1.06693517217576,0.,10.445652173913));
#1464=CARTESIAN_POINT('',(1.06693517217575,1.03052778683085E-15,10.445652173913));
#1465=CARTESIAN_POINT('',(0.945104990074945,0.135026048976196,10.3223675205));
#1466=CARTESIAN_POINT('',(0.649703223307959,0.381055959826983,10.1029055094082));
#1467=CARTESIAN_POINT('',(0.000839701250946519,0.559394533249426,9.9486153068264));
#1468=CARTESIAN_POINT('',(-0.649530094395619,0.381365110189686,10.1026339563172));
#1469=CARTESIAN_POINT('',(-0.945013341767616,0.135127624042573,10.3222747780481));
#1470=CARTESIAN_POINT('',(-1.06693517217575,1.29513446874432E-15,10.445652173913));
#1471=CARTESIAN_POINT('',(-1.06693517217575,8.34433684361888E-16,10.445652173913));
#1472=CARTESIAN_POINT('',(-1.06693517217575,-7.,10.445652173913));
#1473=CARTESIAN_POINT('',(-1.06693517217575,-15.,10.445652173913));
#1474=CARTESIAN_POINT('',(2.02066721859313E-15,-15.,11.5));
#1475=CARTESIAN_POINT('',(3.2146978477618E-16,-15.,1.75));
#1476=CARTESIAN_POINT('',(-6.4293956955236E-16,-15.,1.18106082884621E-31));
#1477=CARTESIAN_POINT('',(3.55369543531189,-15.,10.9371499373943));
#1478=CARTESIAN_POINT('',(4.24259968703099,-7.,9.60470446685397));
#1479=CARTESIAN_POINT('',(4.24259968703099,-15.,9.60470446685397));
#1480=CARTESIAN_POINT('',(4.24259968703099,0.,9.60470446685397));
#1481=CARTESIAN_POINT('',(4.24259968703099,-8.64200430549841E-16,9.60470446685397));
#1482=CARTESIAN_POINT('',(4.08863524541233,0.135026048976195,9.52510139056324));
#1483=CARTESIAN_POINT('',(3.73987397915644,0.381055959826987,9.40766478093457));
#1484=CARTESIAN_POINT('',(3.07508980365454,0.559394533249431,9.46143593371421));
#1485=CARTESIAN_POINT('',(2.50414575164665,0.381365110189691,9.80889169342633));
#1486=CARTESIAN_POINT('',(2.29099723035079,0.135127624042574,10.109091873169));
#1487=CARTESIAN_POINT('',(2.2131683911065,2.48437872695954E-15,10.2641066670513));
#1488=CARTESIAN_POINT('',(2.2131683911065,8.34433684361888E-16,10.2641066670513));
#1489=CARTESIAN_POINT('',(2.2131683911065,-7.,10.2641066670513));
#1490=CARTESIAN_POINT('',(2.2131683911065,-15.,10.2641066670513));
#1491=CARTESIAN_POINT('',(3.55369543531189,-15.,10.9371499373943));
#1492=CARTESIAN_POINT('',(0.540779740156158,-15.,1.66434890351652));
#1493=CARTESIAN_POINT('',(-6.11471867206774E-16,-15.,1.98679253347793E-16));
#1494=CARTESIAN_POINT('',(6.75953040136344,-15.,9.30369543531189));
#1495=CARTESIAN_POINT('',(7.00296898458945,-7.,7.82358136666823));
#1496=CARTESIAN_POINT('',(7.00296898458945,-15.,7.82358136666823));
#1497=CARTESIAN_POINT('',(7.00296898458945,0.,7.82358136666823));
#1498=CARTESIAN_POINT('',(7.00296898458945,-7.46679594744471E-16,7.82358136666822));
#1499=CARTESIAN_POINT('',(6.83194139573192,0.135026048976195,7.7954519712344));
#1500=CARTESIAN_POINT('',(6.46395981269087,0.381055959826987,7.79153627664825));
#1501=CARTESIAN_POINT('',(5.84832869066592,0.559394533249431,8.04810528970964));
#1502=CARTESIAN_POINT('',(5.41269836410836,0.381365110189691,8.55498676901587));
#1503=CARTESIAN_POINT('',(5.30274903124616,0.13512762404257,8.90636062155943));
#1504=CARTESIAN_POINT('',(5.27663161221635,-2.28346666749169E-15,9.07783888538231));
#1505=CARTESIAN_POINT('',(5.27663161221635,8.34433684361888E-16,9.07783888538231));
#1506=CARTESIAN_POINT('',(5.27663161221635,-7.,9.07783888538231));
#1507=CARTESIAN_POINT('',(5.27663161221635,-15.,9.07783888538231));
#1508=CARTESIAN_POINT('',(6.75953040136344,-15.,9.30369543531189));
#1509=CARTESIAN_POINT('',(1.02862419151183,-15.,1.41577974015616));
#1510=CARTESIAN_POINT('',(-5.20149038123973E-16,-15.,3.77910397098149E-16));
#1511=CARTESIAN_POINT('',(9.3036954353119,-15.,6.75953040136344));
#1512=CARTESIAN_POINT('',(9.07783888538231,-7.,5.27663161221635));
#1513=CARTESIAN_POINT('',(9.07783888538231,-15.,5.27663161221635));
#1514=CARTESIAN_POINT('',(9.07783888538231,0.,5.27663161221635));
#1515=CARTESIAN_POINT('',(9.07783888538231,-3.911871523061E-15,5.27663161221635));
#1516=CARTESIAN_POINT('',(8.90648952130256,0.135026048976192,5.30272939885352));
#1517=CARTESIAN_POINT('',(8.55530822270286,0.381055959826981,5.41271791477822));
#1518=CARTESIAN_POINT('',(8.04909241773293,0.559394533249423,5.8469700255015));
#1519=CARTESIAN_POINT('',(7.79141834820411,0.381365110189681,6.46366013355641));
#1520=CARTESIAN_POINT('',(7.79543081053816,0.135127624042568,6.83181273804829));
#1521=CARTESIAN_POINT('',(7.82358136666823,-4.60694876942082E-15,7.00296898458944));
#1522=CARTESIAN_POINT('',(7.82358136666823,8.34433684361888E-16,7.00296898458945));
#1523=CARTESIAN_POINT('',(7.82358136666823,-7.,7.00296898458945));
#1524=CARTESIAN_POINT('',(7.82358136666823,-15.,7.00296898458945));
#1525=CARTESIAN_POINT('',(9.3036954353119,-15.,6.75953040136344));
#1526=CARTESIAN_POINT('',(1.41577974015616,-15.,1.02862419151183));
#1527=CARTESIAN_POINT('',(-3.77910397098148E-16,-15.,5.20149038123973E-16));
#1528=CARTESIAN_POINT('',(10.9371499373943,-15.,3.55369543531189));
#1529=CARTESIAN_POINT('',(10.2641066670513,-7.,2.2131683911065));
#1530=CARTESIAN_POINT('',(10.2641066670513,-15.,2.2131683911065));
#1531=CARTESIAN_POINT('',(10.2641066670513,0.,2.2131683911065));
#1532=CARTESIAN_POINT('',(10.2641066670513,2.41283941572648E-15,2.2131683911065));
#1533=CARTESIAN_POINT('',(10.1092083973667,0.135026048976198,2.29093872662464));
#1534=CARTESIAN_POINT('',(9.80920345553925,0.381055959826989,2.50406501078643));
#1535=CARTESIAN_POINT('',(9.46195489762769,0.55939453324943,3.07349259696164));
#1536=CARTESIAN_POINT('',(9.40746001837391,0.381365110189688,3.73962540925618));
#1537=CARTESIAN_POINT('',(9.52504150813449,0.135127624042571,4.08851942369871));
#1538=CARTESIAN_POINT('',(9.60470446685397,-4.22945998378E-16,4.24259968703099));
#1539=CARTESIAN_POINT('',(9.60470446685397,8.34433684361888E-16,4.24259968703099));
#1540=CARTESIAN_POINT('',(9.60470446685397,-7.,4.24259968703099));
#1541=CARTESIAN_POINT('',(9.60470446685397,-15.,4.24259968703099));
#1542=CARTESIAN_POINT('',(10.9371499373943,-15.,3.55369543531189));
#1543=CARTESIAN_POINT('',(1.66434890351652,-15.,0.540779740156157));
#1544=CARTESIAN_POINT('',(-1.98679253347793E-16,-15.,6.11471867206774E-16));
#1545=CARTESIAN_POINT('',(11.5,-15.,-1.3164953090834E-15));
#1546=CARTESIAN_POINT('',(10.445652173913,-7.,-1.06693517217576));
#1547=CARTESIAN_POINT('',(10.445652173913,-15.,-1.06693517217576));
#1548=CARTESIAN_POINT('',(10.445652173913,0.,-1.06693517217576));
#1549=CARTESIAN_POINT('',(10.445652173913,1.01917229658661E-15,-1.06693517217575));
#1550=CARTESIAN_POINT('',(10.3223675205,0.135026048976197,-0.945104990074944));
#1551=CARTESIAN_POINT('',(10.1029055094082,0.381055959826986,-0.649703223307961));
#1552=CARTESIAN_POINT('',(9.9486153068264,0.559394533249425,-0.000839701250945599));
#1553=CARTESIAN_POINT('',(10.1026339563172,0.381365110189687,0.649530094395617));
#1554=CARTESIAN_POINT('',(10.3222747780481,0.135127624042573,0.945013341767617));
#1555=CARTESIAN_POINT('',(10.445652173913,1.40937446653781E-15,1.06693517217575));
#1556=CARTESIAN_POINT('',(10.445652173913,8.34433684361888E-16,1.06693517217575));
#1557=CARTESIAN_POINT('',(10.445652173913,-7.,1.06693517217575));
#1558=CARTESIAN_POINT('',(10.445652173913,-15.,1.06693517217575));
#1559=CARTESIAN_POINT('',(11.5,-15.,-1.3164953090834E-15));
#1560=CARTESIAN_POINT('',(1.75,-15.,-2.14313189850787E-16));
#1561=CARTESIAN_POINT('',(7.87373885897475E-32,-15.,6.4293956955236E-16));
#1562=CARTESIAN_POINT('',(10.9371499373943,-15.,-3.55369543531189));
#1563=CARTESIAN_POINT('',(9.60470446685397,-7.,-4.24259968703099));
#1564=CARTESIAN_POINT('',(9.60470446685397,-15.,-4.24259968703099));
#1565=CARTESIAN_POINT('',(9.60470446685397,0.,-4.24259968703099));
#1566=CARTESIAN_POINT('',(9.60470446685397,2.43449252392132E-16,-4.24259968703099));
#1567=CARTESIAN_POINT('',(9.52510139056324,0.135026048976196,-4.08863524541234));
#1568=CARTESIAN_POINT('',(9.40766478093457,0.381055959826986,-3.73987397915644));
#1569=CARTESIAN_POINT('',(9.46143593371421,0.559394533249432,-3.07508980365454));
#1570=CARTESIAN_POINT('',(9.80889169342633,0.381365110189691,-2.50414575164665));
#1571=CARTESIAN_POINT('',(10.109091873169,0.135127624042574,-2.29099723035079));
#1572=CARTESIAN_POINT('',(10.2641066670513,2.56261553724633E-15,-2.2131683911065));
#1573=CARTESIAN_POINT('',(10.2641066670513,8.34433684361888E-16,-2.2131683911065));
#1574=CARTESIAN_POINT('',(10.2641066670513,-7.,-2.2131683911065));
#1575=CARTESIAN_POINT('',(10.2641066670513,-15.,-2.2131683911065));
#1576=CARTESIAN_POINT('',(10.9371499373943,-15.,-3.55369543531189));
#1577=CARTESIAN_POINT('',(1.66434890351652,-15.,-0.540779740156158));
#1578=CARTESIAN_POINT('',(1.98679253347793E-16,-15.,6.11471867206774E-16));
#1579=CARTESIAN_POINT('',(9.30369543531189,-15.,-6.75953040136344));
#1580=CARTESIAN_POINT('',(7.82358136666823,-7.,-7.00296898458945));
#1581=CARTESIAN_POINT('',(7.82358136666823,-15.,-7.00296898458945));
#1582=CARTESIAN_POINT('',(7.82358136666823,0.,-7.00296898458945));
#1583=CARTESIAN_POINT('',(7.82358136666822,3.60996557970793E-16,-7.00296898458945));
#1584=CARTESIAN_POINT('',(7.7954519712344,0.135026048976197,-6.83194139573192));
#1585=CARTESIAN_POINT('',(7.79153627664825,0.381055959826987,-6.46395981269086));
#1586=CARTESIAN_POINT('',(8.04810528970964,0.559394533249431,-5.84832869066592));
#1587=CARTESIAN_POINT('',(8.55498676901587,0.38136511018969,-5.41269836410836));
#1588=CARTESIAN_POINT('',(8.90636062155943,0.135127624042571,-5.30274903124616));
#1589=CARTESIAN_POINT('',(9.07783888538231,-1.80909357812485E-15,-5.27663161221635));
#1590=CARTESIAN_POINT('',(9.07783888538231,8.34433684361888E-16,-5.27663161221635));
#1591=CARTESIAN_POINT('',(9.07783888538231,-7.,-5.27663161221635));
#1592=CARTESIAN_POINT('',(9.07783888538231,-15.,-5.27663161221635));
#1593=CARTESIAN_POINT('',(9.30369543531189,-15.,-6.75953040136344));
#1594=CARTESIAN_POINT('',(1.41577974015616,-15.,-1.02862419151183));
#1595=CARTESIAN_POINT('',(3.77910397098149E-16,-15.,5.20149038123973E-16));
#1596=CARTESIAN_POINT('',(6.75953040136344,-15.,-9.30369543531189));
#1597=CARTESIAN_POINT('',(5.27663161221635,-7.,-9.07783888538231));
#1598=CARTESIAN_POINT('',(5.27663161221635,-15.,-9.07783888538231));
#1599=CARTESIAN_POINT('',(5.27663161221635,0.,-9.07783888538231));
#1600=CARTESIAN_POINT('',(5.27663161221635,-3.35304487459457E-15,-9.07783888538231));
#1601=CARTESIAN_POINT('',(5.30272939885352,0.135026048976193,-8.90648952130256));
#1602=CARTESIAN_POINT('',(5.41271791477822,0.381055959826987,-8.55530822270285));
#1603=CARTESIAN_POINT('',(5.8469700255015,0.55939453324943,-8.04909241773291));
#1604=CARTESIAN_POINT('',(6.46366013355641,0.381365110189692,-7.7914183482041));
#1605=CARTESIAN_POINT('',(6.8318127380483,0.135127624042572,-7.79543081053815));
#1606=CARTESIAN_POINT('',(7.00296898458945,-3.85546480609094E-16,-7.82358136666822));
#1607=CARTESIAN_POINT('',(7.00296898458945,8.34433684361888E-16,-7.82358136666823));
#1608=CARTESIAN_POINT('',(7.00296898458945,-7.,-7.82358136666823));
#1609=CARTESIAN_POINT('',(7.00296898458945,-15.,-7.82358136666823));
#1610=CARTESIAN_POINT('',(6.75953040136344,-15.,-9.30369543531189));
#1611=CARTESIAN_POINT('',(1.02862419151183,-15.,-1.41577974015616));
#1612=CARTESIAN_POINT('',(5.20149038123973E-16,-15.,3.77910397098148E-16));
#1613=CARTESIAN_POINT('',(3.55369543531189,-15.,-10.9371499373943));
#1614=CARTESIAN_POINT('',(2.2131683911065,-7.,-10.2641066670513));
#1615=CARTESIAN_POINT('',(2.2131683911065,-15.,-10.2641066670513));
#1616=CARTESIAN_POINT('',(2.2131683911065,0.,-10.2641066670513));
#1617=CARTESIAN_POINT('',(2.2131683911065,2.41197253024257E-15,-10.2641066670513));
#1618=CARTESIAN_POINT('',(2.29093872662464,0.135026048976198,-10.1092083973667));
#1619=CARTESIAN_POINT('',(2.50406501078643,0.381055959826989,-9.80920345553925));
#1620=CARTESIAN_POINT('',(3.07349259696164,0.559394533249429,-9.46195489762769));
#1621=CARTESIAN_POINT('',(3.73962540925618,0.381365110189691,-9.4074600183739));
#1622=CARTESIAN_POINT('',(4.08851942369871,0.135127624042572,-9.52504150813449));
#1623=CARTESIAN_POINT('',(4.24259968703099,-2.14805304904581E-16,-9.60470446685397));
#1624=CARTESIAN_POINT('',(4.24259968703099,8.34433684361888E-16,-9.60470446685397));
#1625=CARTESIAN_POINT('',(4.24259968703099,-7.,-9.60470446685397));
#1626=CARTESIAN_POINT('',(4.24259968703099,-15.,-9.60470446685397));
#1627=CARTESIAN_POINT('',(3.55369543531189,-15.,-10.9371499373943));
#1628=CARTESIAN_POINT('',(0.540779740156157,-15.,-1.66434890351652));
#1629=CARTESIAN_POINT('',(6.11471867206774E-16,-15.,1.98679253347793E-16));
#1630=CARTESIAN_POINT('',(-6.12323399573677E-16,-15.,-11.5));
#1631=CARTESIAN_POINT('',(-1.06693517217576,-7.,-10.445652173913));
#1632=CARTESIAN_POINT('',(-1.06693517217576,-15.,-10.445652173913));
#1633=CARTESIAN_POINT('',(-1.06693517217576,0.,-10.445652173913));
#1634=CARTESIAN_POINT('',(-1.06693517217575,-2.50475549832765E-16,-10.445652173913));
#1635=CARTESIAN_POINT('',(-0.945104990074945,0.135026048976195,-10.3223675205));
#1636=CARTESIAN_POINT('',(-0.649703223307961,0.381055959826986,-10.1029055094082));
#1637=CARTESIAN_POINT('',(-0.000839701250945862,0.559394533249425,-9.94861530682639));
#1638=CARTESIAN_POINT('',(0.649530094395618,0.381365110189687,-10.1026339563172));
#1639=CARTESIAN_POINT('',(0.945013341767617,0.135127624042573,-10.3222747780481));
#1640=CARTESIAN_POINT('',(1.06693517217575,1.33702861553085E-15,-10.445652173913));
#1641=CARTESIAN_POINT('',(1.06693517217575,8.34433684361888E-16,-10.445652173913));
#1642=CARTESIAN_POINT('',(1.06693517217576,-7.,-10.445652173913));
#1643=CARTESIAN_POINT('',(1.06693517217575,-15.,-10.445652173913));
#1644=CARTESIAN_POINT('',(-6.12323399573677E-16,-15.,-11.5));
#1645=CARTESIAN_POINT('',(-1.07156594925393E-16,-15.,-1.75));
#1646=CARTESIAN_POINT('',(6.4293956955236E-16,-15.,-3.93686942948737E-32));
#1647=CARTESIAN_POINT('',(-3.55369543531189,-15.,-10.9371499373943));
#1648=CARTESIAN_POINT('',(-4.24259968703099,-7.,-9.60470446685397));
#1649=CARTESIAN_POINT('',(-4.24259968703099,-15.,-9.60470446685397));
#1650=CARTESIAN_POINT('',(-4.24259968703099,0.,-9.60470446685397));
#1651=CARTESIAN_POINT('',(-4.24259968703099,-8.64200430549841E-16,-9.60470446685397));
#1652=CARTESIAN_POINT('',(-4.08863524541234,0.135026048976195,-9.52510139056324));
#1653=CARTESIAN_POINT('',(-3.73987397915644,0.381055959826986,-9.40766478093457));
#1654=CARTESIAN_POINT('',(-3.07508980365454,0.559394533249432,-9.46143593371421));
#1655=CARTESIAN_POINT('',(-2.50414575164665,0.381365110189692,-9.80889169342633));
#1656=CARTESIAN_POINT('',(-2.29099723035079,0.135127624042574,-10.109091873169));
#1657=CARTESIAN_POINT('',(-2.2131683911065,2.56261512365603E-15,-10.2641066670513));
#1658=CARTESIAN_POINT('',(-2.2131683911065,8.34433684361888E-16,-10.2641066670513));
#1659=CARTESIAN_POINT('',(-2.2131683911065,-7.,-10.2641066670513));
#1660=CARTESIAN_POINT('',(-2.2131683911065,-15.,-10.2641066670513));
#1661=CARTESIAN_POINT('',(-3.55369543531189,-15.,-10.9371499373943));
#1662=CARTESIAN_POINT('',(-0.540779740156157,-15.,-1.66434890351652));
#1663=CARTESIAN_POINT('',(6.11471867206774E-16,-15.,-1.98679253347793E-16));
#1664=CARTESIAN_POINT('',(-6.75953040136344,-15.,-9.30369543531189));
#1665=CARTESIAN_POINT('',(-7.00296898458945,-7.,-7.82358136666823));
#1666=CARTESIAN_POINT('',(-7.00296898458945,-15.,-7.82358136666823));
#1667=CARTESIAN_POINT('',(-7.00296898458945,0.,-7.82358136666823));
#1668=CARTESIAN_POINT('',(-7.00296898458945,-7.46679594744471E-16,-7.82358136666822));
#1669=CARTESIAN_POINT('',(-6.83194139573192,0.135026048976195,-7.7954519712344));
#1670=CARTESIAN_POINT('',(-6.46395981269087,0.381055959826987,-7.79153627664824));
#1671=CARTESIAN_POINT('',(-5.84832869066592,0.559394533249431,-8.04810528970965));
#1672=CARTESIAN_POINT('',(-5.41269836410836,0.381365110189691,-8.55498676901587));
#1673=CARTESIAN_POINT('',(-5.30274903124616,0.135127624042571,-8.90636062155943));
#1674=CARTESIAN_POINT('',(-5.27663161221635,-1.89520920571525E-15,-9.07783888538231));
#1675=CARTESIAN_POINT('',(-5.27663161221635,8.34433684361888E-16,-9.07783888538231));
#1676=CARTESIAN_POINT('',(-5.27663161221635,-7.,-9.07783888538231));
#1677=CARTESIAN_POINT('',(-5.27663161221635,-15.,-9.07783888538231));
#1678=CARTESIAN_POINT('',(-6.75953040136344,-15.,-9.30369543531189));
#1679=CARTESIAN_POINT('',(-1.02862419151183,-15.,-1.41577974015616));
#1680=CARTESIAN_POINT('',(5.20149038123973E-16,-15.,-3.77910397098149E-16));
#1681=CARTESIAN_POINT('',(-9.30369543531189,-15.,-6.75953040136344));
#1682=CARTESIAN_POINT('',(-9.07783888538231,-7.,-5.27663161221635));
#1683=CARTESIAN_POINT('',(-9.07783888538231,-15.,-5.27663161221635));
#1684=CARTESIAN_POINT('',(-9.07783888538231,0.,-5.27663161221635));
#1685=CARTESIAN_POINT('',(-9.07783888538231,-2.14473886901525E-15,-5.27663161221635));
#1686=CARTESIAN_POINT('',(-8.90648952130256,0.135026048976195,-5.30272939885352));
#1687=CARTESIAN_POINT('',(-8.55530822270285,0.381055959826987,-5.41271791477822));
#1688=CARTESIAN_POINT('',(-8.04909241773291,0.559394533249431,-5.8469700255015));
#1689=CARTESIAN_POINT('',(-7.7914183482041,0.381365110189692,-6.46366013355641));
#1690=CARTESIAN_POINT('',(-7.79543081053815,0.135127624042573,-6.8318127380483));
#1691=CARTESIAN_POINT('',(-7.82358136666822,-8.86613794445921E-17,-7.00296898458945));
#1692=CARTESIAN_POINT('',(-7.82358136666823,8.34433684361888E-16,-7.00296898458945));
#1693=CARTESIAN_POINT('',(-7.82358136666823,-7.,-7.00296898458945));
#1694=CARTESIAN_POINT('',(-7.82358136666823,-15.,-7.00296898458945));
#1695=CARTESIAN_POINT('',(-9.30369543531189,-15.,-6.75953040136344));
#1696=CARTESIAN_POINT('',(-1.41577974015616,-15.,-1.02862419151183));
#1697=CARTESIAN_POINT('',(3.77910397098149E-16,-15.,-5.20149038123973E-16));
#1698=CARTESIAN_POINT('',(-10.9371499373943,-15.,-3.55369543531189));
#1699=CARTESIAN_POINT('',(-10.2641066670513,-7.,-2.2131683911065));
#1700=CARTESIAN_POINT('',(-10.2641066670513,-15.,-2.2131683911065));
#1701=CARTESIAN_POINT('',(-10.2641066670513,0.,-2.2131683911065));
#1702=CARTESIAN_POINT('',(-10.2641066670513,2.41202546980178E-15,-2.2131683911065));
#1703=CARTESIAN_POINT('',(-10.1092083973667,0.135026048976198,-2.29093872662464));
#1704=CARTESIAN_POINT('',(-9.80920345553925,0.381055959826989,-2.50406501078643));
#1705=CARTESIAN_POINT('',(-9.46195489762769,0.559394533249429,-3.07349259696164));
#1706=CARTESIAN_POINT('',(-9.40746001837391,0.381365110189691,-3.73962540925618));
#1707=CARTESIAN_POINT('',(-9.52504150813449,0.135127624042572,-4.08851942369871));
#1708=CARTESIAN_POINT('',(-9.60470446685397,-1.50120907142897E-16,-4.24259968703099));
#1709=CARTESIAN_POINT('',(-9.60470446685397,8.34433684361888E-16,-4.24259968703099));
#1710=CARTESIAN_POINT('',(-9.60470446685397,-7.,-4.24259968703099));
#1711=CARTESIAN_POINT('',(-9.60470446685397,-15.,-4.24259968703099));
#1712=CARTESIAN_POINT('',(-10.9371499373943,-15.,-3.55369543531189));
#1713=CARTESIAN_POINT('',(-1.66434890351652,-15.,-0.540779740156157));
#1714=CARTESIAN_POINT('',(1.98679253347793E-16,-15.,-6.11471867206774E-16));
#1715=CARTESIAN_POINT('',(0.,-18.,-5.20474889637625E-16));
#1716=CARTESIAN_POINT('',(0.,-3.,-5.20474889637625E-16));
#1717=CARTESIAN_POINT('',(8.5,-3.,-5.20474889637625E-16));
#1718=CARTESIAN_POINT('',(0.,-18.,-5.20474889637625E-16));
#1719=CARTESIAN_POINT('',(8.5,-18.,-5.20474889637625E-16));
#1720=CARTESIAN_POINT('',(0.,-18.,-6.4293956955236E-16));
#1721=CARTESIAN_POINT('',(0.,0.,-6.4293956955236E-16));
#1722=CARTESIAN_POINT('',(0.,0.,-6.4293956955236E-16));
#1723=CARTESIAN_POINT('',(-10.445652173913,0.,1.06693517217575));
#1724=CARTESIAN_POINT('',(-10.445652173913,-7.,1.06693517217576));
#1725=CARTESIAN_POINT('',(-10.445652173913,-15.,1.06693517217575));
#1726=CARTESIAN_POINT('',(0.,-15.,-6.4293956955236E-16));
#1727=CARTESIAN_POINT('',(-10.445652173913,-15.,-1.06693517217575));
#1728=CARTESIAN_POINT('',(-10.445652173913,-7.,-1.06693517217576));
#1729=CARTESIAN_POINT('',(-10.445652173913,8.34433684361888E-16,-1.06693517217576));
#1730=CARTESIAN_POINT('',(0.,0.,-6.4293956955236E-16));
#1731=CARTESIAN_POINT('',(0.,0.,-6.4293956955236E-16));
#1732=CARTESIAN_POINT('',(0.,0.,-6.4293956955236E-16));
#1733=CARTESIAN_POINT('',(0.,0.,-6.4293956955236E-16));
#1734=CARTESIAN_POINT('',(0.,0.,-6.4293956955236E-16));
#1735=CARTESIAN_POINT('',(0.,0.,-6.4293956955236E-16));
#1736=CARTESIAN_POINT('',(0.,0.,-6.4293956955236E-16));
#1737=CARTESIAN_POINT('',(0.,0.,-6.4293956955236E-16));
#1738=CARTESIAN_POINT('',(0.,0.,-6.4293956955236E-16));
#1739=CARTESIAN_POINT('',(0.,0.,-6.4293956955236E-16));
#1740=CARTESIAN_POINT('',(0.,0.,-6.4293956955236E-16));
#1741=CARTESIAN_POINT('',(0.,0.,-6.4293956955236E-16));
#1742=CARTESIAN_POINT('',(0.,0.,-6.4293956955236E-16));
#1743=CARTESIAN_POINT('',(0.,0.,-6.4293956955236E-16));
#1744=CARTESIAN_POINT('',(0.,0.,-6.4293956955236E-16));
#1745=CARTESIAN_POINT('',(0.,0.,-6.4293956955236E-16));
#1746=CARTESIAN_POINT('',(0.,0.,-6.4293956955236E-16));
#1747=CARTESIAN_POINT('',(0.,0.,-6.4293956955236E-16));
#1748=CARTESIAN_POINT('',(0.,-18.,-6.4293956955236E-16));
#1749=CARTESIAN_POINT('',(10.5,-18.,-6.4293956955236E-16));
#1750=CARTESIAN_POINT('',(0.,-18.,0.));
#1751=CARTESIAN_POINT('',(0.,0.,0.));
#1752=CARTESIAN_POINT('',(0.,0.,-5.20474889637625E-16));
#1753=CARTESIAN_POINT('',(5.5,0.,-5.20474889637625E-16));
#1754=CARTESIAN_POINT('',(0.,0.,-3.15346550780443E-16));
#1755=CARTESIAN_POINT('',(5.15,0.,-3.15346550780443E-16));
#1756=CARTESIAN_POINT('',(0.,1.,0.));
#1757=CARTESIAN_POINT('',(0.,1.,-6.4293956955236E-16));
#1758=CARTESIAN_POINT('',(9.5,1.,-6.4293956955236E-16));
#1759=CARTESIAN_POINT('',(0.,1.,-7.34788079488412E-16));
#1760=CARTESIAN_POINT('',(1.5,1.,-7.34788079488412E-16));
#1761=CARTESIAN_POINT('',(1.0842021724855E-16,-7.,-1.68528271959295E-16));
#1762=CARTESIAN_POINT('',(1.75,-7.,2.49799919935936));
#1763=CARTESIAN_POINT('',(1.75,-6.,2.49799919935936));
#1764=CARTESIAN_POINT('',(1.75,0.,2.49799919935936));
#1765=CARTESIAN_POINT('',(1.0842021724855E-16,-6.,-1.68528271959295E-16));
#1766=CARTESIAN_POINT('',(1.75,-6.,-2.49799919935936));
#1767=CARTESIAN_POINT('',(1.75,-7.,-2.49799919935936));
#1768=CARTESIAN_POINT('',(1.75,0.,-2.49799919935936));
#1769=CARTESIAN_POINT('',(1.0842021724855E-16,0.,-1.68528271959295E-16));
#1770=CARTESIAN_POINT('',(1.75,-7.,-4.33680868994202E-16));
#1771=CARTESIAN_POINT('',(1.75,-6.,2.49799919935936));
#1772=CARTESIAN_POINT('',(1.75,0.,-4.33680868994202E-16));
#1773=CARTESIAN_POINT('',(0.,-7.,-3.15346550780443E-16));
#1774=CARTESIAN_POINT('',(0.,-7.,-3.15346550780443E-16));
#1775=CARTESIAN_POINT('',(5.15,-7.,-3.15346550780443E-16));
#1776=CARTESIAN_POINT('',(0.,-7.,0.));
#1777=CARTESIAN_POINT('',(1.0842021724855E-16,-7.,-1.68528271959295E-16));
#1778=CARTESIAN_POINT('',(2.75,-7.,-2.9732137494637));
#1779=CARTESIAN_POINT('',(2.75,-7.,2.9732137494637));
#1780=CARTESIAN_POINT('',(2.75,-7.,-2.49799919935936));
#1781=CARTESIAN_POINT('',(0.,0.,0.));
#1782=CARTESIAN_POINT('',(0.,0.,-7.34788079488412E-16));
#1783=CARTESIAN_POINT('',(1.5,0.,-7.34788079488412E-16));
#1784=CARTESIAN_POINT('',(0.,-24.,-7.34788079488412E-16));
#1785=CARTESIAN_POINT('',(0.,-3.,-5.20474889637625E-16));
#1786=CARTESIAN_POINT('',(0.,1.,-6.4293956955236E-16));
#1787=CARTESIAN_POINT('',(-10.445652173913,1.03052778683085E-15,1.06693517217575));
#1788=CARTESIAN_POINT('',(-10.3223675205,0.135026048976196,0.945104990074943));
#1789=CARTESIAN_POINT('',(-10.1029055094082,0.381055959826984,0.649703223307957));
#1790=CARTESIAN_POINT('',(-9.9486153068264,0.559394533249426,0.000839701250943191));
#1791=CARTESIAN_POINT('',(-10.1026339563172,0.381365110189686,-0.64953009439562));
#1792=CARTESIAN_POINT('',(-10.3222747780481,0.135127624042571,-0.94501334176762));
#1793=CARTESIAN_POINT('',(-10.445652173913,-2.53437198990919E-16,-1.06693517217575));
#1794=CARTESIAN_POINT('',(-11.5,-15.,-9.18485099360515E-17));
#1795=CARTESIAN_POINT('',(-11.5,-15.,-9.18485099360515E-17));
#1796=CARTESIAN_POINT('',(-1.75,-15.,0.));
#1797=CARTESIAN_POINT('',(1.0842021724855E-16,-7.,-1.68528271959295E-16));
#1798=CARTESIAN_POINT('',(1.75,-6.,2.49799919935936));
#1799=CARTESIAN_POINT('',(2.08014720872694,-6.33014720872694,2.66981325416574));
#1800=CARTESIAN_POINT('',(2.4139418599031,-6.6639418599031,2.82627659023498));
#1801=CARTESIAN_POINT('',(2.75,-7.,2.9732137494637));
#1802=CARTESIAN_POINT('',(2.75,-7.,-2.9732137494637));
#1803=CARTESIAN_POINT('',(2.4139418599031,-6.6639418599031,-2.82627659023498));
#1804=CARTESIAN_POINT('',(2.08014720872694,-6.33014720872694,-2.66981325416574));
#1805=CARTESIAN_POINT('',(1.75,-6.,-2.49799919935936));
#1806=CARTESIAN_POINT('',(1.75,-6.,-4.33680868994202E-16));
#1807=MECHANICAL_DESIGN_GEOMETRIC_PRESENTATION_REPRESENTATION('',(#951),
#1808);
#1808=(
GEOMETRIC_REPRESENTATION_CONTEXT(3)
GLOBAL_UNCERTAINTY_ASSIGNED_CONTEXT((#1809))
GLOBAL_UNIT_ASSIGNED_CONTEXT((#1812,#1811,#1810))
REPRESENTATION_CONTEXT('Part 1','TOP_LEVEL_ASSEMBLY_PART')
);
#1809=UNCERTAINTY_MEASURE_WITH_UNIT(LENGTH_MEASURE(1.E-5),#1812,
'DISTANCE_ACCURACY_VALUE','Maximum Tolerance applied to model');
#1810=(
NAMED_UNIT(*)
SI_UNIT($,.STERADIAN.)
SOLID_ANGLE_UNIT()
);
#1811=(
NAMED_UNIT(*)
PLANE_ANGLE_UNIT()
SI_UNIT($,.RADIAN.)
);
#1812=(
LENGTH_UNIT()
NAMED_UNIT(*)
SI_UNIT(.MILLI.,.METRE.)
);
#1813=PRODUCT_DEFINITION_SHAPE('','',#1814);
#1814=PRODUCT_DEFINITION('','',#1816,#1815);
#1815=PRODUCT_DEFINITION_CONTEXT('',#1822,'design');
#1816=PRODUCT_DEFINITION_FORMATION_WITH_SPECIFIED_SOURCE('','',#1818,
 .NOT_KNOWN.);
#1817=PRODUCT_RELATED_PRODUCT_CATEGORY('','',(#1818));
#1818=PRODUCT('Part 1','Part 1','Part 1',(#1820));
#1819=PRODUCT_CATEGORY('','');
#1820=PRODUCT_CONTEXT('',#1822,'mechanical');
#1821=APPLICATION_PROTOCOL_DEFINITION('international standard',
'ap242_managed_model_based_3d_engineering',2011,#1822);
#1822=APPLICATION_CONTEXT('managed model based 3d engineering');
ENDSEC;
END-ISO-10303-21;
