G04*
G04 #@! TF.GenerationSoftware,Altium Limited,Altium Designer,22.8.2 (66)*
G04*
G04 Layer_Color=8388736*
%FSLAX25Y25*%
%MOIN*%
G70*
G04*
G04 #@! TF.SameCoordinates,7BB61612-A306-4DCC-8110-E08496558577*
G04*
G04*
G04 #@! TF.FilePolarity,Negative*
G04*
G01*
G75*
%ADD16R,0.05433X0.08268*%
%ADD17R,0.08268X0.05433*%
%ADD18R,0.03950X0.03162*%
%ADD19C,0.06706*%
%ADD20C,0.07087*%
%ADD21C,0.06693*%
%ADD22C,0.00800*%
G04:AMPARAMS|DCode=23|XSize=78.74mil|YSize=161.42mil|CornerRadius=39.37mil|HoleSize=0mil|Usage=FLASHONLY|Rotation=0.000|XOffset=0mil|YOffset=0mil|HoleType=Round|Shape=RoundedRectangle|*
%AMROUNDEDRECTD23*
21,1,0.07874,0.08268,0,0,0.0*
21,1,0.00000,0.16142,0,0,0.0*
1,1,0.07874,0.00000,-0.04134*
1,1,0.07874,0.00000,-0.04134*
1,1,0.07874,0.00000,0.04134*
1,1,0.07874,0.00000,0.04134*
%
%ADD23ROUNDEDRECTD23*%
%ADD24C,0.06102*%
%ADD25R,0.06102X0.06102*%
%ADD26C,0.08280*%
%ADD27C,0.14855*%
%ADD28C,0.24422*%
%ADD29R,0.07493X0.07493*%
%ADD30C,0.07493*%
%ADD31R,0.10243X0.10243*%
%ADD32C,0.10243*%
D16*
X282520Y230118D02*
D03*
Y265945D02*
D03*
X300157Y230118D02*
D03*
X300197Y265945D02*
D03*
X282520Y281299D02*
D03*
Y317126D02*
D03*
X300157Y281299D02*
D03*
X300197Y317126D02*
D03*
X282520Y178937D02*
D03*
Y214764D02*
D03*
X300157Y178937D02*
D03*
X300197Y214764D02*
D03*
D17*
X246260Y188031D02*
D03*
X210433D02*
D03*
X246260Y205669D02*
D03*
X210433Y205709D02*
D03*
X163583Y188031D02*
D03*
X127756D02*
D03*
X163583Y205669D02*
D03*
X127756Y205709D02*
D03*
D18*
X118504Y517028D02*
D03*
Y511319D02*
D03*
D19*
X292402Y156339D02*
D03*
X282559D02*
D03*
X292402Y148465D02*
D03*
X282559D02*
D03*
D20*
X137402Y196063D02*
D03*
D21*
X155118D02*
D03*
D22*
X226378Y334646D02*
D03*
X337598Y336614D02*
D03*
X117126Y488189D02*
D03*
X138779Y336614D02*
D03*
X313976D02*
D03*
X304134Y488189D02*
D03*
X148622D02*
D03*
D23*
X179921Y271654D02*
D03*
X135039D02*
D03*
D24*
X167323Y242126D02*
D03*
X157480D02*
D03*
X167323Y299213D02*
D03*
X147638D02*
D03*
D25*
Y242126D02*
D03*
D26*
X204409Y114173D02*
D03*
X224410D02*
D03*
X244409D02*
D03*
X141417D02*
D03*
X161417D02*
D03*
X181417D02*
D03*
D27*
X263779Y137795D02*
D03*
X311181D02*
D03*
D28*
X114173Y555118D02*
D03*
X338583D02*
D03*
Y114173D02*
D03*
X114173D02*
D03*
D29*
X235000Y507874D02*
D03*
Y547244D02*
D03*
D30*
X245000Y507874D02*
D03*
X255000D02*
D03*
X265000D02*
D03*
X245000Y547244D02*
D03*
X255000D02*
D03*
X265000D02*
D03*
D31*
X141732Y535433D02*
D03*
Y515748D02*
D03*
X188976Y535433D02*
D03*
Y515748D02*
D03*
D32*
X161417Y535433D02*
D03*
Y515748D02*
D03*
X208661Y535433D02*
D03*
Y515748D02*
D03*
M02*
