M48
;Layer_Color=9474304
;FILE_FORMAT=2:4
INCH,TZ
;TYPE=PLATED
T1F00S00C0.0079
T2F00S00C0.0118
T3F00S00C0.0394
T5F00S00C0.0469
T6F00S00C0.0512
T7F00S00C0.0551
T9F00S00C0.0591
T11F00S00C0.0937
T12F00S00C0.1260
;TYPE=NON_PLATED
T13F00S00C0.0669
T14F00S00C0.0709
%
T01
X21457Y16329
Y16762
Y17195
X21890
X22323
Y16762
X21890
Y16329
X22323
T02
X13701Y14724
X15472Y13583
X17480Y13622
X20197Y15118
X20630Y15512
X21378Y14764
X22244Y15157
X23898Y15591
X24528Y15315
X33465Y16102
X33681Y16955
X34685Y19370
X34449Y24173
X34134Y25827
X34016Y26220
X32756Y26063
X33169Y26929
X33307Y27323
X33701Y29291
X34469Y30551
X34567Y31102
X31693Y29921
Y23228
X32992
X31063Y23780
X31024Y24606
X30984Y25039
X29803Y24449
X29764Y23819
X29094Y23504
X29291Y22953
X28386Y23819
X27677Y23268
X26732Y23976
X25512Y24606
X24409Y24528
X25079Y23425
X26063Y25551
X26457Y25787
X27087Y25630
X28150Y25591
X29173Y25630
X29488Y26496
X27535Y27953
X24685Y28228
X23819Y27323
Y26811
X25354Y26437
X24921Y30276
X26299Y29961
X26575Y30669
X27075Y30957
X28346Y31122
X30000Y31142
X22795Y29803
X22992Y29449
X21378Y29567
X18661Y29921
X17362Y25768
X16732Y25709
X17047Y25197
X15866Y25984
X17756Y23189
X21850Y20551
X24685Y19488
X26772Y19685
X27598Y17992
X23976Y16929
X22874Y17638
X22795Y15787
X20827
X20591Y17638
X19724Y17480
X29961Y20827
X13543Y20551
X15591Y25551
X15551Y35827
X14961Y40354
X14252Y40394
X13701Y40512
X12756Y40394
Y40748
X11299
X12205Y39370
Y38976
X14016Y41260
X14606
X15000Y41181
X15276Y41654
X14803Y41850
Y42244
Y42598
X14567Y42441
Y42795
X14213
X13858
Y42441
X14213
Y42087
X13858
X13622Y42244
Y41850
X14055
X14409
X14567Y42087
X14409Y43032
X14055
X13622
Y42638
X13898Y43701
X15039Y43386
X14803Y43032
X12756Y44134
Y44488
X11732Y44803
X12205Y45669
Y46063
X15630Y45157
X16299Y45512
X16811
X17323
X16102Y44134
X16142Y42717
X16102Y42283
X16496Y39646
X15669Y39606
X17441Y39646
X16968Y35827
X16614
X16260
X15906
X22126Y31693
X23583Y32008
X24449Y31496
X27508Y31326
X30709Y31417
X30866Y31772
X29173Y33504
X29134Y37795
X29528Y38189
X28819Y38465
X28858Y40236
X27835Y39646
X27520Y42087
X26969Y42441
X28661Y41968
X29173Y42677
X29961
X30551Y42205
Y41811
X29970Y41171
X30827Y43622
X29173Y44921
X23386Y46850
X22126Y46654
X21181Y45591
X24803Y37795
X25197
X32953Y41811
Y42087
Y42362
Y42638
Y42913
X31339Y43622
X31654Y49803
X28346Y49921
X28386Y50669
X28898Y50709
X23504Y53110
Y53425
X23150Y48071
X22441Y47362
X12315Y51230
X12480Y52165
T03
X28256Y14846
X29240
Y15634
X28256
X16732Y24213
X15748
X16732Y29921
X14764
Y24213
T05
X23500Y50787
X24500
X25500
X26500
Y54724
X25500
X24500
X23500
T06
X14142Y11417
X16142
X18142
X20441
X22441
X24441
T07
X16142Y51575
Y53543
X18898
X20866
Y51575
X18898
X14173
Y53543
T09
X33760Y33661
X11713Y48819
T11
X26378Y13780
X31118
T12
X11417Y11417
X33858
Y55512
X11417
T13
X15512Y19606
T14
X13740Y19606
M30
