G04*
G04 #@! TF.GenerationSoftware,Altium Limited,Altium Designer,22.8.2 (66)*
G04*
G04 Layer_Color=16711935*
%FSLAX25Y25*%
%MOIN*%
G70*
G04*
G04 #@! TF.SameCoordinates,7BB61612-A306-4DCC-8110-E08496558577*
G04*
G04*
G04 #@! TF.FilePolarity,Negative*
G04*
G01*
G75*
%ADD17R,0.08268X0.05433*%
%ADD19C,0.06706*%
%ADD20C,0.07087*%
%ADD21C,0.06693*%
%ADD22C,0.00800*%
G04:AMPARAMS|DCode=23|XSize=78.74mil|YSize=161.42mil|CornerRadius=39.37mil|HoleSize=0mil|Usage=FLASHONLY|Rotation=0.000|XOffset=0mil|YOffset=0mil|HoleType=Round|Shape=RoundedRectangle|*
%AMROUNDEDRECTD23*
21,1,0.07874,0.08268,0,0,0.0*
21,1,0.00000,0.16142,0,0,0.0*
1,1,0.07874,0.00000,-0.04134*
1,1,0.07874,0.00000,-0.04134*
1,1,0.07874,0.00000,0.04134*
1,1,0.07874,0.00000,0.04134*
%
%ADD23ROUNDEDRECTD23*%
%ADD24C,0.06102*%
%ADD25R,0.06102X0.06102*%
%ADD26C,0.08280*%
%ADD27C,0.14855*%
%ADD28C,0.24422*%
%ADD29R,0.07493X0.07493*%
%ADD30C,0.07493*%
%ADD31R,0.10243X0.10243*%
%ADD32C,0.10243*%
%ADD58R,0.16142X0.08661*%
%ADD61R,0.14567X0.14567*%
G04:AMPARAMS|DCode=62|XSize=9.55mil|YSize=29.77mil|CornerRadius=4.77mil|HoleSize=0mil|Usage=FLASHONLY|Rotation=270.000|XOffset=0mil|YOffset=0mil|HoleType=Round|Shape=RoundedRectangle|*
%AMROUNDEDRECTD62*
21,1,0.00955,0.02022,0,0,270.0*
21,1,0.00000,0.02977,0,0,270.0*
1,1,0.00955,-0.01011,0.00000*
1,1,0.00955,-0.01011,0.00000*
1,1,0.00955,0.01011,0.00000*
1,1,0.00955,0.01011,0.00000*
%
%ADD62ROUNDEDRECTD62*%
G04:AMPARAMS|DCode=63|XSize=29.77mil|YSize=9.55mil|CornerRadius=4.77mil|HoleSize=0mil|Usage=FLASHONLY|Rotation=270.000|XOffset=0mil|YOffset=0mil|HoleType=Round|Shape=RoundedRectangle|*
%AMROUNDEDRECTD63*
21,1,0.02977,0.00000,0,0,270.0*
21,1,0.02022,0.00955,0,0,270.0*
1,1,0.00955,0.00000,-0.01011*
1,1,0.00955,0.00000,0.01011*
1,1,0.00955,0.00000,0.01011*
1,1,0.00955,0.00000,-0.01011*
%
%ADD63ROUNDEDRECTD63*%
%ADD64R,0.00955X0.02977*%
%ADD65R,0.11024X0.09449*%
%ADD73R,0.04343X0.04737*%
%ADD74R,0.04737X0.04737*%
%ADD75R,0.01981X0.03950*%
%ADD76O,0.01587X0.04540*%
%ADD77R,0.04540X0.04147*%
%ADD78R,0.04147X0.04540*%
%ADD79R,0.04737X0.04343*%
%ADD80R,0.05918X0.07887*%
%ADD81R,0.04383X0.05603*%
%ADD82R,0.03950X0.04343*%
%ADD83R,0.04343X0.03950*%
%ADD84R,0.13123X0.13123*%
%ADD85O,0.04540X0.01587*%
%ADD86R,0.08674X0.14580*%
%ADD87R,0.07296X0.05524*%
%ADD88R,0.04343X0.07887*%
%ADD89R,0.22257X0.25210*%
%ADD90R,0.07493X0.10642*%
G04:AMPARAMS|DCode=91|XSize=29.65mil|YSize=57.21mil|CornerRadius=5.95mil|HoleSize=0mil|Usage=FLASHONLY|Rotation=0.000|XOffset=0mil|YOffset=0mil|HoleType=Round|Shape=RoundedRectangle|*
%AMROUNDEDRECTD91*
21,1,0.02965,0.04532,0,0,0.0*
21,1,0.01776,0.05721,0,0,0.0*
1,1,0.01190,0.00888,-0.02266*
1,1,0.01190,-0.00888,-0.02266*
1,1,0.01190,-0.00888,0.02266*
1,1,0.01190,0.00888,0.02266*
%
%ADD91ROUNDEDRECTD91*%
%ADD92R,0.04343X0.06706*%
%ADD93R,0.06706X0.04343*%
%ADD94R,0.04343X0.04343*%
G36*
X198872Y458665D02*
X198924Y458655D01*
X198973Y458638D01*
X199020Y458615D01*
X199064Y458586D01*
X199103Y458551D01*
X199138Y458512D01*
X199167Y458468D01*
X199190Y458421D01*
X199207Y458371D01*
X199217Y458320D01*
X199221Y458268D01*
Y446260D01*
X199217Y446208D01*
X199207Y446156D01*
X199190Y446106D01*
X199167Y446059D01*
X199138Y446016D01*
X199103Y445976D01*
X199064Y445942D01*
X199020Y445913D01*
X198973Y445890D01*
X198924Y445873D01*
X198872Y445862D01*
X198820Y445859D01*
X193702D01*
X193649Y445862D01*
X193598Y445873D01*
X193548Y445890D01*
X193501Y445913D01*
X193458Y445942D01*
X193418Y445976D01*
X193384Y446016D01*
X193355Y446059D01*
X193331Y446106D01*
X193315Y446156D01*
X193304Y446208D01*
X193301Y446260D01*
Y449205D01*
X189371D01*
X189319Y449209D01*
X189267Y449219D01*
X189218Y449236D01*
X189171Y449259D01*
X189127Y449288D01*
X189088Y449323D01*
X189053Y449362D01*
X189024Y449406D01*
X189001Y449453D01*
X188984Y449503D01*
X188974Y449554D01*
X188970Y449606D01*
Y458268D01*
X188974Y458320D01*
X188984Y458371D01*
X189001Y458421D01*
X189024Y458468D01*
X189053Y458512D01*
X189088Y458551D01*
X189127Y458586D01*
X189171Y458615D01*
X189218Y458638D01*
X189267Y458655D01*
X189319Y458665D01*
X189371Y458669D01*
X198820D01*
X198872Y458665D01*
D02*
G37*
G36*
X263439D02*
X263491Y458655D01*
X263540Y458638D01*
X263587Y458615D01*
X263631Y458586D01*
X263670Y458551D01*
X263705Y458512D01*
X263734Y458468D01*
X263757Y458421D01*
X263774Y458371D01*
X263784Y458320D01*
X263788Y458268D01*
Y449606D01*
X263784Y449554D01*
X263774Y449503D01*
X263757Y449453D01*
X263734Y449406D01*
X263705Y449362D01*
X263670Y449323D01*
X263631Y449288D01*
X263587Y449259D01*
X263540Y449236D01*
X263491Y449219D01*
X263439Y449209D01*
X263387Y449205D01*
X259457D01*
Y446260D01*
X259454Y446208D01*
X259443Y446156D01*
X259426Y446106D01*
X259403Y446059D01*
X259374Y446016D01*
X259339Y445976D01*
X259300Y445942D01*
X259257Y445913D01*
X259209Y445890D01*
X259160Y445873D01*
X259108Y445862D01*
X259056Y445859D01*
X253938D01*
X253886Y445862D01*
X253834Y445873D01*
X253785Y445890D01*
X253737Y445913D01*
X253694Y445942D01*
X253655Y445976D01*
X253620Y446016D01*
X253591Y446059D01*
X253568Y446106D01*
X253551Y446156D01*
X253540Y446208D01*
X253537Y446260D01*
Y458268D01*
X253540Y458320D01*
X253551Y458371D01*
X253568Y458421D01*
X253591Y458468D01*
X253620Y458512D01*
X253655Y458551D01*
X253694Y458586D01*
X253737Y458615D01*
X253785Y458638D01*
X253834Y458655D01*
X253886Y458665D01*
X253938Y458669D01*
X263387D01*
X263439Y458665D01*
D02*
G37*
D17*
X328937Y215512D02*
D03*
X293110D02*
D03*
X328937Y197874D02*
D03*
X293110Y197835D02*
D03*
X328937Y189921D02*
D03*
X293110D02*
D03*
X328937Y172283D02*
D03*
X293110Y172244D02*
D03*
D19*
X292402Y156339D02*
D03*
X282559D02*
D03*
X292402Y148465D02*
D03*
X282559D02*
D03*
D20*
X137402Y196063D02*
D03*
D21*
X155118D02*
D03*
D22*
X226378Y334646D02*
D03*
X337598Y336614D02*
D03*
X117126Y488189D02*
D03*
X138779Y336614D02*
D03*
X313976D02*
D03*
X304134Y488189D02*
D03*
X148622D02*
D03*
D23*
X179921Y271654D02*
D03*
X135039D02*
D03*
D24*
X167323Y242126D02*
D03*
X157480D02*
D03*
X167323Y299213D02*
D03*
X147638D02*
D03*
D25*
Y242126D02*
D03*
D26*
X204409Y114173D02*
D03*
X224410D02*
D03*
X244409D02*
D03*
X141417D02*
D03*
X161417D02*
D03*
X181417D02*
D03*
D27*
X263779Y137795D02*
D03*
X311181D02*
D03*
D28*
X114173Y555118D02*
D03*
X338583D02*
D03*
Y114173D02*
D03*
X114173D02*
D03*
D29*
X235000Y507874D02*
D03*
Y547244D02*
D03*
D30*
X245000Y507874D02*
D03*
X255000D02*
D03*
X265000D02*
D03*
X245000Y547244D02*
D03*
X255000D02*
D03*
X265000D02*
D03*
D31*
X141732Y535433D02*
D03*
Y515748D02*
D03*
X188976Y535433D02*
D03*
Y515748D02*
D03*
D32*
X161417Y535433D02*
D03*
Y515748D02*
D03*
X208661Y535433D02*
D03*
Y515748D02*
D03*
D58*
X139961Y389764D02*
D03*
X167913D02*
D03*
X139961Y462205D02*
D03*
X167913D02*
D03*
D61*
X142126Y424409D02*
D03*
D62*
X132764Y430315D02*
D03*
Y428346D02*
D03*
Y426378D02*
D03*
Y424409D02*
D03*
Y422441D02*
D03*
Y420472D02*
D03*
Y418504D02*
D03*
X151488D02*
D03*
Y420472D02*
D03*
Y422441D02*
D03*
Y424409D02*
D03*
Y426378D02*
D03*
Y428346D02*
D03*
Y430315D02*
D03*
D63*
X136221Y415047D02*
D03*
X138189D02*
D03*
X140157D02*
D03*
X142126D02*
D03*
X144095D02*
D03*
X146063D02*
D03*
X148031D02*
D03*
Y433772D02*
D03*
X146063D02*
D03*
X144095D02*
D03*
X142126D02*
D03*
X140157D02*
D03*
X138189D02*
D03*
D64*
X136221D02*
D03*
D65*
X131102Y173622D02*
D03*
Y218504D02*
D03*
X155118Y173622D02*
D03*
Y218504D02*
D03*
D73*
X213681Y151181D02*
D03*
X208366D02*
D03*
X306594Y237402D02*
D03*
X301279D02*
D03*
Y243701D02*
D03*
X306594D02*
D03*
X240256Y219685D02*
D03*
X245571D02*
D03*
X210728Y465748D02*
D03*
X216043D02*
D03*
X156595Y439370D02*
D03*
X151279D02*
D03*
X140256Y441732D02*
D03*
X145571D02*
D03*
X294882Y499213D02*
D03*
X289567D02*
D03*
X201476Y238189D02*
D03*
X196161D02*
D03*
X266929Y186221D02*
D03*
X272244D02*
D03*
X267421Y229921D02*
D03*
X272736D02*
D03*
D74*
X258857Y453543D02*
D03*
X193899D02*
D03*
D75*
X203741Y459842D02*
D03*
X205710D02*
D03*
X209647D02*
D03*
X211615D02*
D03*
X213584D02*
D03*
X215552D02*
D03*
X217521D02*
D03*
X219489D02*
D03*
X221458D02*
D03*
X223426D02*
D03*
X225395D02*
D03*
X227363D02*
D03*
X229332D02*
D03*
X231300D02*
D03*
X233269D02*
D03*
X235237D02*
D03*
X237206D02*
D03*
X239174D02*
D03*
X241143D02*
D03*
X243111D02*
D03*
X245080D02*
D03*
X247048D02*
D03*
X249017D02*
D03*
X207678D02*
D03*
D76*
X218898Y157874D02*
D03*
X224803Y177362D02*
D03*
X222835D02*
D03*
X220866D02*
D03*
X218898D02*
D03*
X216929D02*
D03*
X214961D02*
D03*
X212992D02*
D03*
Y157874D02*
D03*
X214961D02*
D03*
X216929D02*
D03*
X220866D02*
D03*
X222835D02*
D03*
X224803D02*
D03*
D77*
X260630Y243110D02*
D03*
Y237992D02*
D03*
X250394Y243110D02*
D03*
Y237992D02*
D03*
X280709Y243504D02*
D03*
Y238386D02*
D03*
X290945Y243307D02*
D03*
Y238189D02*
D03*
X329921Y228543D02*
D03*
Y223425D02*
D03*
X224016Y293898D02*
D03*
Y288779D02*
D03*
X223622Y309252D02*
D03*
Y304134D02*
D03*
X211024Y304134D02*
D03*
Y309252D02*
D03*
X187402Y304134D02*
D03*
Y309252D02*
D03*
X200000Y309252D02*
D03*
Y304134D02*
D03*
X210630Y288779D02*
D03*
Y293898D02*
D03*
X247638Y159646D02*
D03*
Y164764D02*
D03*
X248965Y149685D02*
D03*
Y144567D02*
D03*
X322835Y512008D02*
D03*
Y517126D02*
D03*
X322441Y499409D02*
D03*
Y504528D02*
D03*
X270079Y439961D02*
D03*
Y445079D02*
D03*
X124803Y512795D02*
D03*
Y517913D02*
D03*
X270079Y428937D02*
D03*
Y434055D02*
D03*
X287402Y330906D02*
D03*
Y336024D02*
D03*
X274016Y336024D02*
D03*
Y330906D02*
D03*
D78*
X181299Y134646D02*
D03*
X186417D02*
D03*
X162008D02*
D03*
X167126D02*
D03*
X141929D02*
D03*
X147047D02*
D03*
X240354Y225984D02*
D03*
X245472D02*
D03*
X245472Y213386D02*
D03*
X240354D02*
D03*
X241339Y485827D02*
D03*
X236221D02*
D03*
X235776Y159331D02*
D03*
X240894D02*
D03*
X235776Y165630D02*
D03*
X240894D02*
D03*
X276181Y438583D02*
D03*
X281299D02*
D03*
X196260Y231890D02*
D03*
X201378D02*
D03*
X201378Y244882D02*
D03*
X196260D02*
D03*
X272244Y179921D02*
D03*
X267126D02*
D03*
X267126Y192520D02*
D03*
X272244D02*
D03*
X267520Y223622D02*
D03*
X272638D02*
D03*
X272638Y236221D02*
D03*
X267520D02*
D03*
D79*
X316929Y223327D02*
D03*
Y228642D02*
D03*
X323622D02*
D03*
Y223327D02*
D03*
X193701Y309350D02*
D03*
Y304035D02*
D03*
X217323D02*
D03*
Y309350D02*
D03*
Y288681D02*
D03*
Y293996D02*
D03*
X256988Y470374D02*
D03*
Y465059D02*
D03*
X202114Y167697D02*
D03*
Y173012D02*
D03*
Y161201D02*
D03*
Y155886D02*
D03*
X196209Y155984D02*
D03*
Y161299D02*
D03*
X157087Y413878D02*
D03*
Y419193D02*
D03*
Y426083D02*
D03*
Y431398D02*
D03*
X127559Y416831D02*
D03*
Y411516D02*
D03*
Y431890D02*
D03*
Y437205D02*
D03*
X282283Y517224D02*
D03*
Y511909D02*
D03*
X288583Y517224D02*
D03*
Y511909D02*
D03*
X303150Y432579D02*
D03*
Y427264D02*
D03*
X275590Y416831D02*
D03*
Y411516D02*
D03*
X281890Y450295D02*
D03*
Y444980D02*
D03*
X275984Y450295D02*
D03*
Y444980D02*
D03*
X280709Y330807D02*
D03*
Y336122D02*
D03*
D80*
X309646Y229528D02*
D03*
X298228D02*
D03*
X236811Y477559D02*
D03*
X248228D02*
D03*
X219094Y473622D02*
D03*
X207677D02*
D03*
X238386Y467717D02*
D03*
X249803D02*
D03*
X311221Y429921D02*
D03*
X322638D02*
D03*
X311221Y420079D02*
D03*
X322638D02*
D03*
X283661Y392520D02*
D03*
X295079D02*
D03*
X283858Y402362D02*
D03*
X295276D02*
D03*
D81*
X134508Y141732D02*
D03*
X147382D02*
D03*
X154449D02*
D03*
X167323D02*
D03*
X173878D02*
D03*
X186752D02*
D03*
D82*
X243059Y171535D02*
D03*
X235579D02*
D03*
X239319Y179410D02*
D03*
D83*
X235185Y144567D02*
D03*
Y152047D02*
D03*
X243059Y148307D02*
D03*
D84*
X218898Y167618D02*
D03*
D85*
X228642Y161713D02*
D03*
Y163681D02*
D03*
Y165650D02*
D03*
Y167618D02*
D03*
Y169587D02*
D03*
Y171555D02*
D03*
Y173524D02*
D03*
X209154D02*
D03*
Y171555D02*
D03*
Y169587D02*
D03*
Y167618D02*
D03*
Y165650D02*
D03*
Y163681D02*
D03*
Y161713D02*
D03*
D86*
X338583Y455512D02*
D03*
X303150D02*
D03*
D87*
X120079Y417717D02*
D03*
Y406693D02*
D03*
Y431102D02*
D03*
Y442126D02*
D03*
D88*
X314469Y507087D02*
D03*
X296516D02*
D03*
D89*
X305492Y531496D02*
D03*
D90*
X291339Y457480D02*
D03*
Y441732D02*
D03*
D91*
X281870Y432382D02*
D03*
X286870D02*
D03*
X291870D02*
D03*
X296870D02*
D03*
X281870Y411713D02*
D03*
X286870D02*
D03*
X291870D02*
D03*
X296870D02*
D03*
D92*
X305748Y250984D02*
D03*
X300748D02*
D03*
X295748D02*
D03*
X290748D02*
D03*
X285748D02*
D03*
X280748D02*
D03*
X275748D02*
D03*
X270748D02*
D03*
X265748D02*
D03*
X260748D02*
D03*
X255748D02*
D03*
X250748D02*
D03*
X245748D02*
D03*
X240748D02*
D03*
Y319882D02*
D03*
X245748D02*
D03*
X250748D02*
D03*
X255748D02*
D03*
X260748D02*
D03*
X265748D02*
D03*
X270748D02*
D03*
X275748D02*
D03*
X280748D02*
D03*
X285748D02*
D03*
X290748D02*
D03*
X295748D02*
D03*
X300748D02*
D03*
X305748D02*
D03*
D93*
X235827Y257933D02*
D03*
Y262933D02*
D03*
Y267933D02*
D03*
Y272933D02*
D03*
Y277933D02*
D03*
Y282933D02*
D03*
Y287933D02*
D03*
Y292933D02*
D03*
Y297933D02*
D03*
Y302933D02*
D03*
Y307933D02*
D03*
Y312933D02*
D03*
D94*
X275354Y279528D02*
D03*
X280866D02*
D03*
Y274016D02*
D03*
X275354D02*
D03*
X269843D02*
D03*
Y279528D02*
D03*
Y285039D02*
D03*
X275354D02*
D03*
X280866D02*
D03*
M02*
