G04*
G04 #@! TF.GenerationSoftware,Altium Limited,Altium Designer,22.8.2 (66)*
G04*
G04 Layer_Physical_Order=3*
G04 Layer_Color=16776960*
%FSLAX25Y25*%
%MOIN*%
G70*
G04*
G04 #@! TF.SameCoordinates,7BB61612-A306-4DCC-8110-E08496558577*
G04*
G04*
G04 #@! TF.FilePolarity,Positive*
G04*
G01*
G75*
%ADD24C,0.06102*%
%ADD37C,0.07480*%
%ADD43C,0.02362*%
G36*
X341465Y569610D02*
X343332Y569110D01*
X345118Y568370D01*
X346792Y567404D01*
X348325Y566227D01*
X349692Y564861D01*
X350869Y563327D01*
X351835Y561654D01*
X352575Y559868D01*
X353075Y558001D01*
X353327Y556085D01*
Y555118D01*
Y114173D01*
Y113207D01*
X353075Y111291D01*
X352575Y109424D01*
X351835Y107638D01*
X350869Y105964D01*
X349692Y104431D01*
X348325Y103064D01*
X346792Y101887D01*
X345118Y100921D01*
X343332Y100181D01*
X341465Y99681D01*
X339549Y99429D01*
X113207D01*
X111291Y99681D01*
X109424Y100181D01*
X107638Y100921D01*
X105964Y101887D01*
X104431Y103064D01*
X103064Y104431D01*
X101887Y105964D01*
X100921Y107638D01*
X100181Y109423D01*
X99681Y111291D01*
X99429Y113207D01*
Y114173D01*
Y555118D01*
Y556085D01*
X99681Y558001D01*
X100181Y559868D01*
X100921Y561654D01*
X101887Y563327D01*
X103064Y564861D01*
X104431Y566227D01*
X105964Y567404D01*
X107638Y568370D01*
X109423Y569110D01*
X111291Y569610D01*
X113207Y569863D01*
X339549D01*
X341465Y569610D01*
D02*
G37*
%LPC*%
G36*
X265518Y551181D02*
X264482D01*
X263480Y550913D01*
X262583Y550394D01*
X261850Y549661D01*
X261331Y548764D01*
X261063Y547762D01*
Y546726D01*
X261331Y545724D01*
X261850Y544827D01*
X262583Y544094D01*
X263480Y543575D01*
X264482Y543307D01*
X265518D01*
X266520Y543575D01*
X267417Y544094D01*
X268150Y544827D01*
X268669Y545724D01*
X268937Y546726D01*
Y547762D01*
X268669Y548764D01*
X268150Y549661D01*
X267417Y550394D01*
X266520Y550913D01*
X265518Y551181D01*
D02*
G37*
G36*
X255518D02*
X254482D01*
X253480Y550913D01*
X252583Y550394D01*
X251850Y549661D01*
X251331Y548764D01*
X251063Y547762D01*
Y546726D01*
X251331Y545724D01*
X251850Y544827D01*
X252583Y544094D01*
X253480Y543575D01*
X254482Y543307D01*
X255518D01*
X256520Y543575D01*
X257417Y544094D01*
X258150Y544827D01*
X258669Y545724D01*
X258937Y546726D01*
Y547762D01*
X258669Y548764D01*
X258150Y549661D01*
X257417Y550394D01*
X256520Y550913D01*
X255518Y551181D01*
D02*
G37*
G36*
X245518D02*
X244482D01*
X243480Y550913D01*
X242583Y550394D01*
X241850Y549661D01*
X241331Y548764D01*
X241063Y547762D01*
Y546726D01*
X241331Y545724D01*
X241850Y544827D01*
X242583Y544094D01*
X243480Y543575D01*
X244482Y543307D01*
X245518D01*
X246520Y543575D01*
X247417Y544094D01*
X248150Y544827D01*
X248669Y545724D01*
X248937Y546726D01*
Y547762D01*
X248669Y548764D01*
X248150Y549661D01*
X247417Y550394D01*
X246520Y550913D01*
X245518Y551181D01*
D02*
G37*
G36*
X238937D02*
X231063D01*
Y543307D01*
X238937D01*
Y551181D01*
D02*
G37*
G36*
X339559Y567520D02*
X337607D01*
X335679Y567214D01*
X333822Y566611D01*
X332083Y565725D01*
X330504Y564577D01*
X329123Y563197D01*
X327976Y561618D01*
X327090Y559879D01*
X326486Y558022D01*
X326181Y556094D01*
Y554142D01*
X326486Y552214D01*
X327090Y550358D01*
X327976Y548618D01*
X329123Y547039D01*
X330504Y545659D01*
X332083Y544511D01*
X333822Y543625D01*
X335679Y543022D01*
X337607Y542717D01*
X339559D01*
X341487Y543022D01*
X343343Y543625D01*
X345082Y544511D01*
X346662Y545659D01*
X348042Y547039D01*
X349189Y548618D01*
X350076Y550358D01*
X350679Y552214D01*
X350984Y554142D01*
Y556094D01*
X350679Y558022D01*
X350076Y559879D01*
X349189Y561618D01*
X348042Y563197D01*
X346662Y564577D01*
X345082Y565725D01*
X343343Y566611D01*
X341487Y567214D01*
X339559Y567520D01*
D02*
G37*
G36*
X115149D02*
X113197D01*
X111269Y567214D01*
X109413Y566611D01*
X107673Y565725D01*
X106094Y564577D01*
X104714Y563197D01*
X103567Y561618D01*
X102680Y559879D01*
X102077Y558022D01*
X101772Y556094D01*
Y554142D01*
X102077Y552214D01*
X102680Y550358D01*
X103567Y548618D01*
X104714Y547039D01*
X106094Y545659D01*
X107673Y544511D01*
X109413Y543625D01*
X111269Y543022D01*
X113197Y542717D01*
X115149D01*
X117077Y543022D01*
X118934Y543625D01*
X120673Y544511D01*
X122252Y545659D01*
X123633Y547039D01*
X124780Y548618D01*
X125666Y550358D01*
X126269Y552214D01*
X126575Y554142D01*
Y556094D01*
X126269Y558022D01*
X125666Y559879D01*
X124780Y561618D01*
X123633Y563197D01*
X122252Y564577D01*
X120673Y565725D01*
X118934Y566611D01*
X117077Y567214D01*
X115149Y567520D01*
D02*
G37*
G36*
X209387Y540945D02*
X207936D01*
X206534Y540569D01*
X205277Y539844D01*
X204251Y538817D01*
X203525Y537561D01*
X203150Y536159D01*
Y534707D01*
X203525Y533306D01*
X204251Y532049D01*
X205277Y531023D01*
X206534Y530297D01*
X207936Y529921D01*
X209387D01*
X210789Y530297D01*
X212046Y531023D01*
X213072Y532049D01*
X213798Y533306D01*
X214173Y534707D01*
Y536159D01*
X213798Y537561D01*
X213072Y538817D01*
X212046Y539844D01*
X210789Y540569D01*
X209387Y540945D01*
D02*
G37*
G36*
X194488D02*
X183465D01*
Y529921D01*
X194488D01*
Y540945D01*
D02*
G37*
G36*
X162143D02*
X160692D01*
X159290Y540569D01*
X158033Y539844D01*
X157007Y538817D01*
X156281Y537561D01*
X155905Y536159D01*
Y534707D01*
X156281Y533306D01*
X157007Y532049D01*
X158033Y531023D01*
X159290Y530297D01*
X160692Y529921D01*
X162143D01*
X163545Y530297D01*
X164802Y531023D01*
X165828Y532049D01*
X166553Y533306D01*
X166929Y534707D01*
Y536159D01*
X166553Y537561D01*
X165828Y538817D01*
X164802Y539844D01*
X163545Y540569D01*
X162143Y540945D01*
D02*
G37*
G36*
X147244D02*
X136221D01*
Y529921D01*
X147244D01*
Y540945D01*
D02*
G37*
G36*
X235392Y536024D02*
X234687D01*
X234036Y535754D01*
X233537Y535255D01*
X233268Y534604D01*
Y533900D01*
X233537Y533248D01*
X233782Y533004D01*
X233990Y532677D01*
X233782Y532350D01*
X233537Y532106D01*
X233268Y531455D01*
Y530750D01*
X233537Y530099D01*
X234036Y529600D01*
X234687Y529331D01*
X235392D01*
X236043Y529600D01*
X236541Y530099D01*
X236811Y530750D01*
Y531455D01*
X236541Y532106D01*
X236297Y532350D01*
X236089Y532677D01*
X236297Y533004D01*
X236541Y533248D01*
X236811Y533900D01*
Y534604D01*
X236541Y535255D01*
X236043Y535754D01*
X235392Y536024D01*
D02*
G37*
G36*
X123506Y514075D02*
X122802D01*
X122150Y513805D01*
X121652Y513307D01*
X121382Y512655D01*
Y511951D01*
X121652Y511300D01*
X122150Y510801D01*
X122802Y510532D01*
X123506D01*
X124158Y510801D01*
X124656Y511300D01*
X124926Y511951D01*
Y512655D01*
X124656Y513307D01*
X124158Y513805D01*
X123506Y514075D01*
D02*
G37*
G36*
X209387Y521260D02*
X207936D01*
X206534Y520884D01*
X205277Y520159D01*
X204251Y519132D01*
X203525Y517875D01*
X203150Y516474D01*
Y515022D01*
X203525Y513621D01*
X204251Y512364D01*
X205277Y511338D01*
X206534Y510612D01*
X207936Y510236D01*
X209387D01*
X210789Y510612D01*
X212046Y511338D01*
X213072Y512364D01*
X213798Y513621D01*
X214173Y515022D01*
Y516474D01*
X213798Y517875D01*
X213072Y519132D01*
X212046Y520159D01*
X210789Y520884D01*
X209387Y521260D01*
D02*
G37*
G36*
X194488D02*
X183465D01*
Y510236D01*
X194488D01*
Y521260D01*
D02*
G37*
G36*
X162143D02*
X160692D01*
X159290Y520884D01*
X158033Y520159D01*
X157007Y519132D01*
X156281Y517875D01*
X155905Y516474D01*
Y515022D01*
X156281Y513621D01*
X157007Y512364D01*
X158033Y511338D01*
X159290Y510612D01*
X160692Y510236D01*
X162143D01*
X163545Y510612D01*
X164802Y511338D01*
X165828Y512364D01*
X166553Y513621D01*
X166929Y515022D01*
Y516474D01*
X166553Y517875D01*
X165828Y519132D01*
X164802Y520159D01*
X163545Y520884D01*
X162143Y521260D01*
D02*
G37*
G36*
X147244D02*
X136221D01*
Y510236D01*
X147244D01*
Y521260D01*
D02*
G37*
G36*
X289329Y508858D02*
X288624D01*
X287973Y508589D01*
X287474Y508090D01*
X287205Y507439D01*
Y506734D01*
X287474Y506083D01*
X287973Y505585D01*
X288624Y505315D01*
X289329D01*
X289980Y505585D01*
X290478Y506083D01*
X290748Y506734D01*
Y507439D01*
X290478Y508090D01*
X289980Y508589D01*
X289329Y508858D01*
D02*
G37*
G36*
X284211Y508465D02*
X283506D01*
X282855Y508195D01*
X282356Y507696D01*
X282087Y507045D01*
Y506341D01*
X282356Y505689D01*
X282855Y505191D01*
X283506Y504921D01*
X284211D01*
X284862Y505191D01*
X285360Y505689D01*
X285630Y506341D01*
Y507045D01*
X285360Y507696D01*
X284862Y508195D01*
X284211Y508465D01*
D02*
G37*
G36*
X265518Y511811D02*
X264482D01*
X263480Y511543D01*
X262583Y511024D01*
X261850Y510291D01*
X261331Y509394D01*
X261063Y508392D01*
Y507356D01*
X261331Y506354D01*
X261850Y505457D01*
X262583Y504724D01*
X263480Y504205D01*
X264482Y503937D01*
X265518D01*
X266520Y504205D01*
X267417Y504724D01*
X268150Y505457D01*
X268669Y506354D01*
X268937Y507356D01*
Y508392D01*
X268669Y509394D01*
X268150Y510291D01*
X267417Y511024D01*
X266520Y511543D01*
X265518Y511811D01*
D02*
G37*
G36*
X255518D02*
X254482D01*
X253480Y511543D01*
X252583Y511024D01*
X251850Y510291D01*
X251331Y509394D01*
X251063Y508392D01*
Y507356D01*
X251331Y506354D01*
X251850Y505457D01*
X252583Y504724D01*
X253480Y504205D01*
X254482Y503937D01*
X255518D01*
X256520Y504205D01*
X257417Y504724D01*
X258150Y505457D01*
X258669Y506354D01*
X258937Y507356D01*
Y508392D01*
X258669Y509394D01*
X258150Y510291D01*
X257417Y511024D01*
X256520Y511543D01*
X255518Y511811D01*
D02*
G37*
G36*
X245518D02*
X244482D01*
X243480Y511543D01*
X242583Y511024D01*
X241850Y510291D01*
X241331Y509394D01*
X241063Y508392D01*
Y507356D01*
X241331Y506354D01*
X241850Y505457D01*
X242583Y504724D01*
X243480Y504205D01*
X244482Y503937D01*
X245518D01*
X246520Y504205D01*
X247417Y504724D01*
X248150Y505457D01*
X248669Y506354D01*
X248937Y507356D01*
Y508392D01*
X248669Y509394D01*
X248150Y510291D01*
X247417Y511024D01*
X246520Y511543D01*
X245518Y511811D01*
D02*
G37*
G36*
X238937D02*
X231063D01*
Y503937D01*
X238937D01*
Y511811D01*
D02*
G37*
G36*
X283817Y500984D02*
X283112D01*
X282461Y500714D01*
X281963Y500216D01*
X281693Y499565D01*
Y498860D01*
X281963Y498209D01*
X282461Y497711D01*
X283112Y497441D01*
X283817D01*
X284468Y497711D01*
X284966Y498209D01*
X285236Y498860D01*
Y499565D01*
X284966Y500216D01*
X284468Y500714D01*
X283817Y500984D01*
D02*
G37*
G36*
X316888Y499803D02*
X316183D01*
X315532Y499533D01*
X315034Y499035D01*
X314764Y498384D01*
Y497679D01*
X315034Y497028D01*
X315532Y496530D01*
X316183Y496260D01*
X316888D01*
X317539Y496530D01*
X318037Y497028D01*
X318307Y497679D01*
Y498384D01*
X318037Y499035D01*
X317539Y499533D01*
X316888Y499803D01*
D02*
G37*
G36*
X313976Y490770D02*
X294291D01*
X293623Y490682D01*
X293001Y490424D01*
X292466Y490014D01*
X292056Y489479D01*
X291798Y488857D01*
X291710Y488189D01*
X291798Y487521D01*
X292056Y486898D01*
X292466Y486364D01*
X293001Y485954D01*
X293623Y485696D01*
X294291Y485608D01*
X313976D01*
X314644Y485696D01*
X315267Y485954D01*
X315802Y486364D01*
X316212Y486898D01*
X316470Y487521D01*
X316558Y488189D01*
X316470Y488857D01*
X316212Y489479D01*
X315802Y490014D01*
X315267Y490424D01*
X314644Y490682D01*
X313976Y490770D01*
D02*
G37*
G36*
X158465D02*
X138779D01*
X138111Y490682D01*
X137489Y490424D01*
X136954Y490014D01*
X136544Y489479D01*
X136286Y488857D01*
X136198Y488189D01*
X136286Y487521D01*
X136544Y486898D01*
X136954Y486364D01*
X137489Y485954D01*
X138111Y485696D01*
X138779Y485608D01*
X158465D01*
X159133Y485696D01*
X159755Y485954D01*
X160290Y486364D01*
X160700Y486898D01*
X160958Y487521D01*
X161046Y488189D01*
X160958Y488857D01*
X160700Y489479D01*
X160290Y490014D01*
X159755Y490424D01*
X159133Y490682D01*
X158465Y490770D01*
D02*
G37*
G36*
X117593Y491732D02*
X116659D01*
X115758Y491491D01*
X114950Y491024D01*
X114291Y490365D01*
X113824Y489557D01*
X113583Y488655D01*
Y487722D01*
X113824Y486821D01*
X114291Y486013D01*
X114950Y485354D01*
X115758Y484887D01*
X116659Y484646D01*
X117593D01*
X118494Y484887D01*
X119302Y485354D01*
X119961Y486013D01*
X120428Y486821D01*
X120669Y487722D01*
Y488655D01*
X120428Y489557D01*
X119961Y490365D01*
X119302Y491024D01*
X118494Y491491D01*
X117593Y491732D01*
D02*
G37*
G36*
X231849Y482480D02*
X231144D01*
X230492Y482211D01*
X229994Y481712D01*
X229724Y481061D01*
Y480356D01*
X229994Y479705D01*
X230492Y479207D01*
X231144Y478937D01*
X231849D01*
X232500Y479207D01*
X232998Y479705D01*
X233268Y480356D01*
Y481061D01*
X232998Y481712D01*
X232500Y482211D01*
X231849Y482480D01*
D02*
G37*
G36*
X224762Y475394D02*
X224057D01*
X223406Y475124D01*
X222907Y474626D01*
X222638Y473974D01*
Y473270D01*
X222907Y472618D01*
X223406Y472120D01*
X224057Y471850D01*
X224762D01*
X225413Y472120D01*
X225911Y472618D01*
X226181Y473270D01*
Y473974D01*
X225911Y474626D01*
X225413Y475124D01*
X224762Y475394D01*
D02*
G37*
G36*
X234211Y470276D02*
X233506D01*
X232855Y470006D01*
X232356Y469508D01*
X232087Y468856D01*
Y468152D01*
X232356Y467500D01*
X232855Y467002D01*
X233506Y466732D01*
X234211D01*
X234862Y467002D01*
X235360Y467500D01*
X235630Y468152D01*
Y468856D01*
X235360Y469508D01*
X234862Y470006D01*
X234211Y470276D01*
D02*
G37*
G36*
X221612Y468307D02*
X220907D01*
X220256Y468037D01*
X219758Y467539D01*
X219488Y466888D01*
Y466183D01*
X219758Y465532D01*
X220256Y465033D01*
X220907Y464764D01*
X221612D01*
X222263Y465033D01*
X222762Y465532D01*
X223031Y466183D01*
Y466888D01*
X222762Y467539D01*
X222263Y468037D01*
X221612Y468307D01*
D02*
G37*
G36*
X122400Y462402D02*
X121695D01*
X121044Y462132D01*
X120545Y461633D01*
X120276Y460982D01*
Y460278D01*
X120545Y459626D01*
X121044Y459128D01*
X121530Y458926D01*
Y458396D01*
X121044Y458195D01*
X120545Y457696D01*
X120276Y457045D01*
Y456341D01*
X120545Y455689D01*
X121044Y455191D01*
X121695Y454921D01*
X122400D01*
X123051Y455191D01*
X123549Y455689D01*
X123819Y456341D01*
Y457045D01*
X123549Y457696D01*
X123051Y458195D01*
X122564Y458396D01*
Y458926D01*
X123051Y459128D01*
X123549Y459626D01*
X123819Y460278D01*
Y460982D01*
X123549Y461633D01*
X123051Y462132D01*
X122400Y462402D01*
D02*
G37*
G36*
X173581Y456890D02*
X172876D01*
X172225Y456620D01*
X171726Y456122D01*
X171457Y455471D01*
Y454766D01*
X171726Y454114D01*
X172225Y453616D01*
X172876Y453346D01*
X173581D01*
X174232Y453616D01*
X174730Y454114D01*
X175000Y454766D01*
Y455471D01*
X174730Y456122D01*
X174232Y456620D01*
X173581Y456890D01*
D02*
G37*
G36*
X168463D02*
X167758D01*
X167107Y456620D01*
X166608Y456122D01*
X166339Y455471D01*
Y454766D01*
X166608Y454114D01*
X167107Y453616D01*
X167758Y453346D01*
X168463D01*
X169114Y453616D01*
X169612Y454114D01*
X169882Y454766D01*
Y455471D01*
X169612Y456122D01*
X169114Y456620D01*
X168463Y456890D01*
D02*
G37*
G36*
X163345D02*
X162640D01*
X161989Y456620D01*
X161490Y456122D01*
X161221Y455471D01*
Y454766D01*
X161490Y454114D01*
X161989Y453616D01*
X162640Y453346D01*
X163345D01*
X163996Y453616D01*
X164494Y454114D01*
X164764Y454766D01*
Y455471D01*
X164494Y456122D01*
X163996Y456620D01*
X163345Y456890D01*
D02*
G37*
G36*
X156652Y453346D02*
X155947D01*
X155296Y453077D01*
X154797Y452578D01*
X154528Y451927D01*
Y451222D01*
X154797Y450571D01*
X155296Y450073D01*
X155947Y449803D01*
X156652D01*
X157303Y450073D01*
X157801Y450571D01*
X158071Y451222D01*
Y451927D01*
X157801Y452578D01*
X157303Y453077D01*
X156652Y453346D01*
D02*
G37*
G36*
X292085Y450984D02*
X291380D01*
X290729Y450714D01*
X290230Y450216D01*
X289961Y449565D01*
Y448860D01*
X290230Y448209D01*
X290729Y447711D01*
X291380Y447441D01*
X292085D01*
X292736Y447711D01*
X293234Y448209D01*
X293504Y448860D01*
Y449565D01*
X293234Y450216D01*
X292736Y450714D01*
X292085Y450984D01*
D02*
G37*
G36*
X117675Y449803D02*
X116970D01*
X116319Y449533D01*
X115821Y449035D01*
X115551Y448384D01*
Y447679D01*
X115821Y447028D01*
X116319Y446530D01*
X116970Y446260D01*
X117675D01*
X118326Y446530D01*
X118825Y447028D01*
X119095Y447679D01*
Y448384D01*
X118825Y449035D01*
X118326Y449533D01*
X117675Y449803D01*
D02*
G37*
G36*
X161376Y443110D02*
X160671D01*
X160020Y442840D01*
X159522Y442342D01*
X159252Y441691D01*
Y440986D01*
X159522Y440335D01*
X160020Y439837D01*
X160671Y439567D01*
X161376D01*
X162027Y439837D01*
X162525Y440335D01*
X162795Y440986D01*
Y441691D01*
X162525Y442342D01*
X162027Y442840D01*
X161376Y443110D01*
D02*
G37*
G36*
X127911Y446654D02*
X127207D01*
X126556Y446384D01*
X126057Y445886D01*
X125787Y445234D01*
Y444529D01*
X126057Y443878D01*
X126556Y443380D01*
Y442840D01*
X126057Y442342D01*
X125787Y441691D01*
Y440986D01*
X126057Y440335D01*
X126556Y439837D01*
X127207Y439567D01*
X127911D01*
X128563Y439837D01*
X129061Y440335D01*
X129331Y440986D01*
Y441691D01*
X129061Y442342D01*
X128563Y442840D01*
Y443380D01*
X129061Y443878D01*
X129331Y444529D01*
Y445234D01*
X129061Y445886D01*
X128563Y446384D01*
X127911Y446654D01*
D02*
G37*
G36*
X139329Y438779D02*
X138624D01*
X137973Y438510D01*
X137475Y438011D01*
X137205Y437360D01*
Y436656D01*
X137475Y436004D01*
X137973Y435506D01*
X138624Y435236D01*
X139329D01*
X139980Y435506D01*
X140478Y436004D01*
X140748Y436656D01*
Y437360D01*
X140478Y438011D01*
X139980Y438510D01*
X139329Y438779D01*
D02*
G37*
G36*
X313738Y437992D02*
X313033D01*
X312382Y437722D01*
X311884Y437224D01*
X311614Y436573D01*
Y435868D01*
X311884Y435217D01*
X312382Y434719D01*
X313033Y434449D01*
X313738D01*
X314389Y434719D01*
X314888Y435217D01*
X315158Y435868D01*
Y436573D01*
X314888Y437224D01*
X314389Y437722D01*
X313738Y437992D01*
D02*
G37*
G36*
X308620D02*
X307915D01*
X307264Y437722D01*
X306766Y437224D01*
X306496Y436573D01*
Y435868D01*
X306766Y435217D01*
X307264Y434719D01*
X307915Y434449D01*
X308620D01*
X309271Y434719D01*
X309770Y435217D01*
X310039Y435868D01*
Y436573D01*
X309770Y437224D01*
X309271Y437722D01*
X308620Y437992D01*
D02*
G37*
G36*
X148384Y432087D02*
X147679D01*
X147028Y431817D01*
X146530Y431319D01*
X146328Y430832D01*
X145798D01*
X145596Y431319D01*
X145098Y431817D01*
X144447Y432087D01*
X143742D01*
X143091Y431817D01*
X142593Y431319D01*
X142053D01*
X141555Y431817D01*
X140904Y432087D01*
X140199D01*
X139548Y431817D01*
X139049Y431319D01*
X138779Y430667D01*
Y430032D01*
X138607Y429921D01*
X138030Y430096D01*
X137992Y430167D01*
Y430667D01*
X137722Y431319D01*
X137224Y431817D01*
X136573Y432087D01*
X135868D01*
X135217Y431817D01*
X134719Y431319D01*
X134449Y430667D01*
Y429963D01*
X134719Y429311D01*
X135217Y428813D01*
X135703Y428612D01*
Y428081D01*
X135217Y427880D01*
X134719Y427382D01*
X134449Y426730D01*
Y426026D01*
X134719Y425374D01*
X135217Y424876D01*
X135703Y424675D01*
Y424144D01*
X135217Y423943D01*
X134719Y423445D01*
X134449Y422793D01*
Y422088D01*
X134719Y421437D01*
X135217Y420939D01*
X135703Y420738D01*
Y420207D01*
X135217Y420006D01*
X134719Y419508D01*
X134449Y418856D01*
Y418152D01*
X134719Y417500D01*
X135217Y417002D01*
X135868Y416732D01*
X136573D01*
X137224Y417002D01*
X137722Y417500D01*
X137992Y418152D01*
Y418652D01*
X138030Y418723D01*
X138607Y418897D01*
X138779Y418786D01*
Y418152D01*
X139049Y417500D01*
X139548Y417002D01*
X140199Y416732D01*
X140904D01*
X141555Y417002D01*
X142053Y417500D01*
X142593D01*
X143091Y417002D01*
X143742Y416732D01*
X144447D01*
X145098Y417002D01*
X145596Y417500D01*
X145798Y417987D01*
X146328D01*
X146530Y417500D01*
X147028Y417002D01*
X147679Y416732D01*
X148384D01*
X149035Y417002D01*
X149533Y417500D01*
X149803Y418152D01*
Y418856D01*
X149533Y419508D01*
X149035Y420006D01*
X148549Y420207D01*
Y420738D01*
X149035Y420939D01*
X149533Y421437D01*
X149803Y422088D01*
Y422793D01*
X149533Y423445D01*
X149035Y423943D01*
Y424482D01*
X149533Y424981D01*
X149803Y425632D01*
Y426337D01*
X149533Y426988D01*
X149035Y427486D01*
X148384Y427756D01*
X147749D01*
X147638Y427928D01*
X147812Y428505D01*
X147883Y428543D01*
X148384D01*
X149035Y428813D01*
X149533Y429311D01*
X149803Y429963D01*
Y430667D01*
X149533Y431319D01*
X149035Y431817D01*
X148384Y432087D01*
D02*
G37*
G36*
X161770Y428937D02*
X161065D01*
X160414Y428667D01*
X159915Y428169D01*
X159646Y427518D01*
Y426813D01*
X159915Y426162D01*
X160414Y425663D01*
X161065Y425394D01*
X161770D01*
X162421Y425663D01*
X162919Y426162D01*
X163189Y426813D01*
Y427518D01*
X162919Y428169D01*
X162421Y428667D01*
X161770Y428937D01*
D02*
G37*
G36*
X299959Y428543D02*
X299254D01*
X298603Y428274D01*
X298104Y427775D01*
X297835Y427124D01*
Y426419D01*
X298104Y425768D01*
X298603Y425270D01*
X299254Y425000D01*
X299959D01*
X300610Y425270D01*
X301108Y425768D01*
X301378Y426419D01*
Y427124D01*
X301108Y427775D01*
X300610Y428274D01*
X299959Y428543D01*
D02*
G37*
G36*
X292085D02*
X291380D01*
X290729Y428274D01*
X290230Y427775D01*
X289961Y427124D01*
Y426419D01*
X290230Y425768D01*
X290729Y425270D01*
X291380Y425000D01*
X292085D01*
X292736Y425270D01*
X293234Y425768D01*
X293504Y426419D01*
Y427124D01*
X293234Y427775D01*
X292736Y428274D01*
X292085Y428543D01*
D02*
G37*
G36*
X270037Y426181D02*
X269333D01*
X268682Y425911D01*
X268183Y425413D01*
X267913Y424762D01*
Y424057D01*
X268183Y423406D01*
X268682Y422907D01*
X269333Y422638D01*
X270037D01*
X270689Y422907D01*
X271187Y423406D01*
X271457Y424057D01*
Y424762D01*
X271187Y425413D01*
X270689Y425911D01*
X270037Y426181D01*
D02*
G37*
G36*
X161376Y424606D02*
X160671D01*
X160020Y424337D01*
X159522Y423838D01*
X159252Y423187D01*
Y422482D01*
X159522Y421831D01*
X160020Y421333D01*
X160671Y421063D01*
X161376D01*
X162027Y421333D01*
X162525Y421831D01*
X162795Y422482D01*
Y423187D01*
X162525Y423838D01*
X162027Y424337D01*
X161376Y424606D01*
D02*
G37*
G36*
X275549Y422638D02*
X274845D01*
X274193Y422368D01*
X273695Y421870D01*
X273425Y421218D01*
Y420514D01*
X273695Y419863D01*
X274193Y419364D01*
X274845Y419095D01*
X275549D01*
X276200Y419364D01*
X276699Y419863D01*
X276969Y420514D01*
Y421218D01*
X276699Y421870D01*
X276200Y422368D01*
X275549Y422638D01*
D02*
G37*
G36*
X286967Y421457D02*
X286262D01*
X285611Y421187D01*
X285112Y420689D01*
X284842Y420037D01*
Y419333D01*
X285112Y418681D01*
X285611Y418183D01*
X286262Y417913D01*
X286967D01*
X287618Y418183D01*
X288116Y418681D01*
X288386Y419333D01*
Y420037D01*
X288116Y420689D01*
X287618Y421187D01*
X286967Y421457D01*
D02*
G37*
G36*
X305864Y423819D02*
X305159D01*
X304508Y423549D01*
X304010Y423051D01*
X303740Y422400D01*
Y421695D01*
X304010Y421044D01*
X304508Y420545D01*
X304995Y420344D01*
Y419814D01*
X304508Y419612D01*
X304010Y419114D01*
X303740Y418463D01*
Y417758D01*
X304010Y417107D01*
X304508Y416608D01*
X305159Y416339D01*
X305864D01*
X306515Y416608D01*
X307014Y417107D01*
X307283Y417758D01*
Y418463D01*
X307014Y419114D01*
X306515Y419612D01*
X306029Y419814D01*
Y420344D01*
X306515Y420545D01*
X307014Y421044D01*
X307283Y421695D01*
Y422400D01*
X307014Y423051D01*
X306515Y423549D01*
X305864Y423819D01*
D02*
G37*
G36*
X153108Y418307D02*
X152403D01*
X151752Y418037D01*
X151254Y417539D01*
X150984Y416888D01*
Y416183D01*
X151254Y415532D01*
X151752Y415033D01*
X152403Y414764D01*
X153108D01*
X153760Y415033D01*
X154258Y415532D01*
X154528Y416183D01*
Y416888D01*
X154258Y417539D01*
X153760Y418037D01*
X153108Y418307D01*
D02*
G37*
G36*
X146415Y414370D02*
X145711D01*
X145059Y414100D01*
X144561Y413602D01*
X144291Y412951D01*
Y412246D01*
X144561Y411595D01*
X145059Y411096D01*
X145711Y410827D01*
X146415D01*
X147067Y411096D01*
X147565Y411595D01*
X147835Y412246D01*
Y412951D01*
X147565Y413602D01*
X147067Y414100D01*
X146415Y414370D01*
D02*
G37*
G36*
X140510D02*
X139805D01*
X139154Y414100D01*
X138655Y413602D01*
X138386Y412951D01*
Y412246D01*
X138655Y411595D01*
X139154Y411096D01*
X139805Y410827D01*
X140510D01*
X141161Y411096D01*
X141659Y411595D01*
X141929Y412246D01*
Y412951D01*
X141659Y413602D01*
X141161Y414100D01*
X140510Y414370D01*
D02*
G37*
G36*
X300057Y413484D02*
X299352D01*
X298701Y413214D01*
X298203Y412716D01*
X297933Y412065D01*
Y411360D01*
X298203Y410709D01*
X298701Y410211D01*
X299352Y409941D01*
X300057D01*
X300708Y410211D01*
X301207Y410709D01*
X301476Y411360D01*
Y412065D01*
X301207Y412716D01*
X300708Y413214D01*
X300057Y413484D01*
D02*
G37*
G36*
X113345Y409252D02*
X112640D01*
X111989Y408982D01*
X111490Y408484D01*
X111221Y407833D01*
Y407128D01*
X111490Y406477D01*
X111989Y405978D01*
X112640Y405709D01*
X113345D01*
X113996Y405978D01*
X114494Y406477D01*
X114764Y407128D01*
Y407833D01*
X114494Y408484D01*
X113996Y408982D01*
X113345Y409252D01*
D02*
G37*
G36*
X137360Y406890D02*
X136655D01*
X136004Y406620D01*
X135506Y406122D01*
X135236Y405471D01*
Y404766D01*
X135506Y404115D01*
X136004Y403616D01*
X136655Y403346D01*
X137360D01*
X138011Y403616D01*
X138510Y404115D01*
X138779Y404766D01*
Y405471D01*
X138510Y406122D01*
X138011Y406620D01*
X137360Y406890D01*
D02*
G37*
G36*
X142872Y405709D02*
X142167D01*
X141516Y405439D01*
X141018Y404941D01*
X140748Y404289D01*
Y403585D01*
X141018Y402933D01*
X141516Y402435D01*
X142167Y402165D01*
X142872D01*
X143523Y402435D01*
X144022Y402933D01*
X144291Y403585D01*
Y404289D01*
X144022Y404941D01*
X143523Y405439D01*
X142872Y405709D01*
D02*
G37*
G36*
X127911Y409252D02*
X127207D01*
X126556Y408982D01*
X126057Y408484D01*
X125787Y407833D01*
Y407128D01*
X126057Y406477D01*
X126556Y405978D01*
X126603Y405959D01*
Y405459D01*
X126556Y405439D01*
X126057Y404941D01*
X125787Y404289D01*
Y403585D01*
X126057Y402933D01*
X126556Y402435D01*
X127207Y402165D01*
X127911D01*
X128563Y402435D01*
X129061Y402933D01*
X129331Y403585D01*
Y404289D01*
X129061Y404941D01*
X128563Y405439D01*
X128515Y405459D01*
Y405959D01*
X128563Y405978D01*
X129061Y406477D01*
X129331Y407128D01*
Y407833D01*
X129061Y408484D01*
X128563Y408982D01*
X127911Y409252D01*
D02*
G37*
G36*
X149959Y405315D02*
X149254D01*
X148603Y405045D01*
X148104Y404547D01*
X147835Y403896D01*
Y403191D01*
X148104Y402540D01*
X148603Y402041D01*
X149254Y401772D01*
X149959D01*
X150610Y402041D01*
X151108Y402540D01*
X151378Y403191D01*
Y403896D01*
X151108Y404547D01*
X150610Y405045D01*
X149959Y405315D01*
D02*
G37*
G36*
X288935Y404134D02*
X288230D01*
X287579Y403864D01*
X287081Y403366D01*
X286811Y402715D01*
Y402010D01*
X287081Y401359D01*
X287579Y400860D01*
X288230Y400591D01*
X288935D01*
X289586Y400860D01*
X290085Y401359D01*
X290354Y402010D01*
Y402715D01*
X290085Y403366D01*
X289586Y403864D01*
X288935Y404134D01*
D02*
G37*
G36*
X278699Y398228D02*
X277994D01*
X277343Y397959D01*
X276845Y397460D01*
X276575Y396809D01*
Y396104D01*
X276845Y395453D01*
X277343Y394955D01*
X277994Y394685D01*
X278699D01*
X279350Y394955D01*
X279848Y395453D01*
X280118Y396104D01*
Y396809D01*
X279848Y397460D01*
X279350Y397959D01*
X278699Y398228D01*
D02*
G37*
G36*
X174762D02*
X174057D01*
X173406Y397959D01*
X172907Y397460D01*
X172638Y396809D01*
Y396104D01*
X172907Y395453D01*
X173406Y394955D01*
X174057Y394685D01*
X174762D01*
X175413Y394955D01*
X175911Y395453D01*
X176181Y396104D01*
Y396809D01*
X175911Y397460D01*
X175413Y397959D01*
X174762Y398228D01*
D02*
G37*
G36*
X165313D02*
X164608D01*
X163957Y397959D01*
X163459Y397460D01*
X163189Y396809D01*
Y396104D01*
X163459Y395453D01*
X163957Y394955D01*
X164608Y394685D01*
X165313D01*
X165964Y394955D01*
X166463Y395453D01*
X166732Y396104D01*
Y396809D01*
X166463Y397460D01*
X165964Y397959D01*
X165313Y398228D01*
D02*
G37*
G36*
X157045Y397835D02*
X156341D01*
X155689Y397565D01*
X155191Y397067D01*
X154921Y396415D01*
Y395711D01*
X155191Y395059D01*
X155689Y394561D01*
X156341Y394291D01*
X157045D01*
X157696Y394561D01*
X158195Y395059D01*
X158465Y395711D01*
Y396415D01*
X158195Y397067D01*
X157696Y397565D01*
X157045Y397835D01*
D02*
G37*
G36*
X122400Y395472D02*
X121695D01*
X121044Y395203D01*
X120545Y394704D01*
X120276Y394053D01*
Y393348D01*
X120545Y392697D01*
X121044Y392199D01*
X121530Y391997D01*
Y391467D01*
X121044Y391266D01*
X120545Y390767D01*
X120276Y390116D01*
Y389411D01*
X120545Y388760D01*
X121044Y388262D01*
X121695Y387992D01*
X122400D01*
X123051Y388262D01*
X123549Y388760D01*
X123819Y389411D01*
Y390116D01*
X123549Y390767D01*
X123051Y391266D01*
X122564Y391467D01*
Y391997D01*
X123051Y392199D01*
X123549Y392697D01*
X123819Y393348D01*
Y394053D01*
X123549Y394704D01*
X123051Y395203D01*
X122400Y395472D01*
D02*
G37*
G36*
X288541Y386417D02*
X287837D01*
X287185Y386148D01*
X286687Y385649D01*
X286417Y384998D01*
Y384293D01*
X286687Y383642D01*
X287185Y383144D01*
X287837Y382874D01*
X288541D01*
X289193Y383144D01*
X289691Y383642D01*
X289961Y384293D01*
Y384998D01*
X289691Y385649D01*
X289193Y386148D01*
X288541Y386417D01*
D02*
G37*
G36*
X295628Y383661D02*
X294923D01*
X294272Y383392D01*
X293774Y382893D01*
X293504Y382242D01*
Y381537D01*
X293774Y380886D01*
X294272Y380388D01*
X294923Y380118D01*
X295628D01*
X296279Y380388D01*
X296778Y380886D01*
X297047Y381537D01*
Y382242D01*
X296778Y382893D01*
X296279Y383392D01*
X295628Y383661D01*
D02*
G37*
G36*
X252321Y379724D02*
X251616D01*
X250965Y379455D01*
X250467Y378956D01*
X250265Y378470D01*
X249735D01*
X249533Y378956D01*
X249035Y379455D01*
X248384Y379724D01*
X247679D01*
X247028Y379455D01*
X246530Y378956D01*
X246260Y378305D01*
Y377600D01*
X246530Y376949D01*
X247028Y376451D01*
X247679Y376181D01*
X248384D01*
X249035Y376451D01*
X249533Y376949D01*
X249735Y377436D01*
X250265D01*
X250467Y376949D01*
X250965Y376451D01*
X251616Y376181D01*
X252321D01*
X252972Y376451D01*
X253470Y376949D01*
X253740Y377600D01*
Y378305D01*
X253470Y378956D01*
X252972Y379455D01*
X252321Y379724D01*
D02*
G37*
G36*
X291691D02*
X290986D01*
X290335Y379455D01*
X289837Y378956D01*
X289567Y378305D01*
Y377600D01*
X289837Y376949D01*
X290335Y376451D01*
X290986Y376181D01*
X291691D01*
X292342Y376451D01*
X292841Y376949D01*
X293110Y377600D01*
Y378305D01*
X292841Y378956D01*
X292342Y379455D01*
X291691Y379724D01*
D02*
G37*
G36*
X170037Y360039D02*
X169333D01*
X168682Y359770D01*
X168183Y359271D01*
X167644D01*
X167145Y359770D01*
X166494Y360039D01*
X165789D01*
X165138Y359770D01*
X164640Y359271D01*
X164620Y359224D01*
X164120D01*
X164100Y359271D01*
X163602Y359770D01*
X162951Y360039D01*
X162246D01*
X161595Y359770D01*
X161097Y359271D01*
X160557D01*
X160059Y359770D01*
X159407Y360039D01*
X158703D01*
X158052Y359770D01*
X157553Y359271D01*
X157014D01*
X156515Y359770D01*
X155864Y360039D01*
X155159D01*
X154508Y359770D01*
X154010Y359271D01*
X153740Y358620D01*
Y357915D01*
X154010Y357264D01*
X154508Y356766D01*
X155159Y356496D01*
X155864D01*
X156515Y356766D01*
X157014Y357264D01*
X157553D01*
X158052Y356766D01*
X158703Y356496D01*
X159407D01*
X160059Y356766D01*
X160557Y357264D01*
X161097D01*
X161595Y356766D01*
X162246Y356496D01*
X162951D01*
X163602Y356766D01*
X164100Y357264D01*
X164120Y357312D01*
X164620D01*
X164640Y357264D01*
X165138Y356766D01*
X165789Y356496D01*
X166494D01*
X167145Y356766D01*
X167644Y357264D01*
X168183D01*
X168682Y356766D01*
X169333Y356496D01*
X170037D01*
X170689Y356766D01*
X171187Y357264D01*
X171457Y357915D01*
Y358620D01*
X171187Y359271D01*
X170689Y359770D01*
X170037Y360039D01*
D02*
G37*
G36*
X323819Y339195D02*
X304134D01*
X303466Y339107D01*
X302843Y338849D01*
X302309Y338439D01*
X301899Y337905D01*
X301641Y337282D01*
X301553Y336614D01*
X301641Y335946D01*
X301899Y335324D01*
X302309Y334789D01*
X302843Y334379D01*
X303466Y334121D01*
X304134Y334033D01*
X323819D01*
X324487Y334121D01*
X325110Y334379D01*
X325644Y334789D01*
X326054Y335324D01*
X326312Y335946D01*
X326400Y336614D01*
X326312Y337282D01*
X326054Y337905D01*
X325644Y338439D01*
X325110Y338849D01*
X324487Y339107D01*
X323819Y339195D01*
D02*
G37*
G36*
X148622D02*
X128937D01*
X128269Y339107D01*
X127646Y338849D01*
X127112Y338439D01*
X126702Y337905D01*
X126444Y337282D01*
X126356Y336614D01*
X126444Y335946D01*
X126702Y335324D01*
X127112Y334789D01*
X127646Y334379D01*
X128269Y334121D01*
X128937Y334033D01*
X148622D01*
X149290Y334121D01*
X149913Y334379D01*
X150447Y334789D01*
X150857Y335324D01*
X151115Y335946D01*
X151203Y336614D01*
X151115Y337282D01*
X150857Y337905D01*
X150447Y338439D01*
X149913Y338849D01*
X149290Y339107D01*
X148622Y339195D01*
D02*
G37*
G36*
X292085Y336811D02*
X291380D01*
X290729Y336541D01*
X290230Y336043D01*
X289961Y335392D01*
Y334687D01*
X290230Y334036D01*
X290729Y333537D01*
X291380Y333268D01*
X292085D01*
X292736Y333537D01*
X293234Y334036D01*
X293504Y334687D01*
Y335392D01*
X293234Y336043D01*
X292736Y336541D01*
X292085Y336811D01*
D02*
G37*
G36*
X338065Y340158D02*
X337132D01*
X336231Y339916D01*
X335423Y339450D01*
X334763Y338790D01*
X334297Y337982D01*
X334055Y337081D01*
Y336148D01*
X334297Y335246D01*
X334763Y334438D01*
X335423Y333779D01*
X336231Y333312D01*
X337132Y333071D01*
X338065D01*
X338966Y333312D01*
X339774Y333779D01*
X340434Y334438D01*
X340900Y335246D01*
X341142Y336148D01*
Y337081D01*
X340900Y337982D01*
X340434Y338790D01*
X339774Y339450D01*
X338966Y339916D01*
X338065Y340158D01*
D02*
G37*
G36*
X251969Y339212D02*
X200787D01*
X199606Y339057D01*
X198504Y338600D01*
X197558Y337875D01*
X196833Y336929D01*
X196376Y335828D01*
X196221Y334646D01*
X196376Y333464D01*
X196833Y332362D01*
X197558Y331417D01*
X198504Y330691D01*
X199606Y330235D01*
X200787Y330079D01*
X251969D01*
X253150Y330235D01*
X254252Y330691D01*
X255198Y331417D01*
X255923Y332362D01*
X256380Y333464D01*
X256535Y334646D01*
X256380Y335828D01*
X255923Y336929D01*
X255198Y337875D01*
X254252Y338600D01*
X253150Y339057D01*
X251969Y339212D01*
D02*
G37*
G36*
X236179Y321850D02*
X235474D01*
X234823Y321581D01*
X234325Y321082D01*
X234055Y320431D01*
Y319726D01*
X234325Y319075D01*
X234823Y318577D01*
X235474Y318307D01*
X236179D01*
X236830Y318577D01*
X237329Y319075D01*
X237598Y319726D01*
Y320431D01*
X237329Y321082D01*
X236830Y321581D01*
X236179Y321850D01*
D02*
G37*
G36*
X221612Y318701D02*
X220907D01*
X220256Y318431D01*
X219758Y317933D01*
X219488Y317282D01*
Y316577D01*
X219758Y315926D01*
X220256Y315427D01*
X220907Y315158D01*
X221612D01*
X222263Y315427D01*
X222762Y315926D01*
X223031Y316577D01*
Y317282D01*
X222762Y317933D01*
X222263Y318431D01*
X221612Y318701D01*
D02*
G37*
G36*
X244841Y316732D02*
X244136D01*
X243485Y316463D01*
X242986Y315964D01*
X242717Y315313D01*
Y314608D01*
X242986Y313957D01*
X243485Y313459D01*
X244136Y313189D01*
X244841D01*
X245492Y313459D01*
X245990Y313957D01*
X246260Y314608D01*
Y315313D01*
X245990Y315964D01*
X245492Y316463D01*
X244841Y316732D01*
D02*
G37*
G36*
X309014Y319488D02*
X308309D01*
X307658Y319218D01*
X307159Y318720D01*
X306890Y318069D01*
Y317364D01*
X307159Y316713D01*
X307428Y316445D01*
X307221Y315945D01*
X306734D01*
X306083Y315675D01*
X305585Y315177D01*
X305315Y314526D01*
Y313821D01*
X305585Y313170D01*
X306083Y312671D01*
X306734Y312402D01*
X307439D01*
X308090Y312671D01*
X308589Y313170D01*
X308858Y313821D01*
Y314526D01*
X308589Y315177D01*
X308320Y315445D01*
X308528Y315945D01*
X309014D01*
X309665Y316215D01*
X310163Y316713D01*
X310433Y317364D01*
Y318069D01*
X310163Y318720D01*
X309665Y319218D01*
X309014Y319488D01*
D02*
G37*
G36*
X275429Y315037D02*
X274724D01*
X274073Y314767D01*
X273574Y314269D01*
X273304Y313617D01*
Y312913D01*
X273574Y312262D01*
X274073Y311763D01*
X274724Y311493D01*
X275429D01*
X276080Y311763D01*
X276578Y312262D01*
X276848Y312913D01*
Y313617D01*
X276578Y314269D01*
X276080Y314767D01*
X275429Y315037D01*
D02*
G37*
G36*
X283817Y312992D02*
X283112D01*
X282461Y312722D01*
X281963Y312224D01*
X281693Y311573D01*
Y310868D01*
X281963Y310217D01*
X282461Y309719D01*
X283112Y309449D01*
X283817D01*
X284468Y309719D01*
X284966Y310217D01*
X285236Y310868D01*
Y311573D01*
X284966Y312224D01*
X284468Y312722D01*
X283817Y312992D01*
D02*
G37*
G36*
X346022Y312795D02*
X345317D01*
X344666Y312526D01*
X344167Y312027D01*
X343898Y311376D01*
Y310671D01*
X344167Y310020D01*
X344666Y309522D01*
X345317Y309252D01*
X346022D01*
X346673Y309522D01*
X347171Y310020D01*
X347441Y310671D01*
Y311376D01*
X347171Y312027D01*
X346673Y312526D01*
X346022Y312795D01*
D02*
G37*
G36*
X271100Y311339D02*
X270396D01*
X269744Y311069D01*
X269246Y310571D01*
X268976Y309919D01*
Y309214D01*
X269246Y308563D01*
X269744Y308065D01*
X270396Y307795D01*
X271100D01*
X271752Y308065D01*
X272250Y308563D01*
X272520Y309214D01*
Y309919D01*
X272250Y310571D01*
X271752Y311069D01*
X271100Y311339D01*
D02*
G37*
G36*
X266100Y308465D02*
X265396D01*
X264744Y308195D01*
X264246Y307697D01*
X263976Y307045D01*
Y306341D01*
X264246Y305689D01*
X264744Y305191D01*
X265396Y304921D01*
X266100D01*
X266752Y305191D01*
X267250Y305689D01*
X267520Y306341D01*
Y307045D01*
X267250Y307697D01*
X266752Y308195D01*
X266100Y308465D01*
D02*
G37*
G36*
X345037Y307283D02*
X344333D01*
X343682Y307014D01*
X343183Y306515D01*
X342913Y305864D01*
Y305159D01*
X343183Y304508D01*
X343682Y304010D01*
X344333Y303740D01*
X345037D01*
X345689Y304010D01*
X346187Y304508D01*
X346457Y305159D01*
Y305864D01*
X346187Y306515D01*
X345689Y307014D01*
X345037Y307283D01*
D02*
G37*
G36*
X249565Y304528D02*
X248860D01*
X248209Y304258D01*
X247711Y303760D01*
X247441Y303108D01*
Y302403D01*
X247711Y301752D01*
X248209Y301254D01*
X248860Y300984D01*
X249565D01*
X250216Y301254D01*
X250714Y301752D01*
X250984Y302403D01*
Y303108D01*
X250714Y303760D01*
X250216Y304258D01*
X249565Y304528D01*
D02*
G37*
G36*
X263345Y301378D02*
X262640D01*
X261989Y301108D01*
X261490Y300610D01*
X261221Y299959D01*
Y299254D01*
X261490Y298603D01*
X261989Y298104D01*
X262640Y297835D01*
X263345D01*
X263996Y298104D01*
X264494Y298603D01*
X264764Y299254D01*
Y299959D01*
X264494Y300610D01*
X263996Y301108D01*
X263345Y301378D01*
D02*
G37*
G36*
X317282Y300984D02*
X316577D01*
X315926Y300714D01*
X315427Y300216D01*
X315158Y299565D01*
Y298860D01*
X315427Y298209D01*
X315926Y297711D01*
X316577Y297441D01*
X317282D01*
X317933Y297711D01*
X318431Y298209D01*
X318701Y298860D01*
Y299565D01*
X318431Y300216D01*
X317933Y300714D01*
X317282Y300984D01*
D02*
G37*
G36*
X186967D02*
X186262D01*
X185611Y300714D01*
X185112Y300216D01*
X184843Y299565D01*
Y298860D01*
X185112Y298209D01*
X185611Y297711D01*
X186262Y297441D01*
X186967D01*
X187618Y297711D01*
X188116Y298209D01*
X188386Y298860D01*
Y299565D01*
X188116Y300216D01*
X187618Y300714D01*
X186967Y300984D01*
D02*
G37*
G36*
X167802Y302854D02*
X166843D01*
X165917Y302606D01*
X165087Y302127D01*
X164409Y301449D01*
X163929Y300618D01*
X163681Y299692D01*
Y298733D01*
X163929Y297807D01*
X164409Y296976D01*
X165087Y296299D01*
X165917Y295819D01*
X166843Y295571D01*
X167802D01*
X168728Y295819D01*
X169559Y296299D01*
X170237Y296976D01*
X170716Y297807D01*
X170965Y298733D01*
Y299692D01*
X170716Y300618D01*
X170237Y301449D01*
X169559Y302127D01*
X168728Y302606D01*
X167802Y302854D01*
D02*
G37*
G36*
X214132Y297441D02*
X213427D01*
X212776Y297171D01*
X212278Y296673D01*
X212008Y296022D01*
Y295317D01*
X212278Y294666D01*
X212776Y294167D01*
X213427Y293898D01*
X214132D01*
X214783Y294167D01*
X215282Y294666D01*
X215551Y295317D01*
Y296022D01*
X215282Y296673D01*
X214783Y297171D01*
X214132Y297441D01*
D02*
G37*
G36*
X228305Y299803D02*
X227600D01*
X226949Y299533D01*
X226451Y299035D01*
X226181Y298384D01*
Y297679D01*
X226451Y297028D01*
X226949Y296530D01*
X227600Y296260D01*
X228305D01*
X228696Y296422D01*
X228918Y295990D01*
X228768Y295840D01*
X228419Y295492D01*
X228150Y294841D01*
Y294136D01*
X228419Y293485D01*
X228918Y292986D01*
X229569Y292717D01*
X230274D01*
X230925Y292986D01*
X231423Y293485D01*
X231693Y294136D01*
Y294841D01*
X231423Y295492D01*
X230925Y295990D01*
X230274Y296260D01*
X229569D01*
X229178Y296098D01*
X228956Y296530D01*
X229106Y296679D01*
X229455Y297028D01*
X229724Y297679D01*
Y298384D01*
X229455Y299035D01*
X228956Y299533D01*
X228305Y299803D01*
D02*
G37*
G36*
X337360Y294685D02*
X336655D01*
X336004Y294415D01*
X335506Y293917D01*
X335236Y293266D01*
Y292561D01*
X335506Y291910D01*
X336004Y291411D01*
X336655Y291142D01*
X337360D01*
X338011Y291411D01*
X338510Y291910D01*
X338779Y292561D01*
Y293266D01*
X338510Y293917D01*
X338011Y294415D01*
X337360Y294685D01*
D02*
G37*
G36*
X247203Y284055D02*
X246498D01*
X245847Y283785D01*
X245349Y283287D01*
X245079Y282636D01*
Y281931D01*
X245349Y281280D01*
X245847Y280782D01*
X246498Y280512D01*
X247203D01*
X247854Y280782D01*
X248352Y281280D01*
X248622Y281931D01*
Y282636D01*
X248352Y283287D01*
X247854Y283785D01*
X247203Y284055D01*
D02*
G37*
G36*
X275707Y281299D02*
X275002D01*
X274351Y281030D01*
X273852Y280531D01*
X273583Y279880D01*
Y279175D01*
X273852Y278524D01*
X274351Y278026D01*
X275002Y277756D01*
X275707D01*
X276358Y278026D01*
X276856Y278524D01*
X277126Y279175D01*
Y279880D01*
X276856Y280531D01*
X276358Y281030D01*
X275707Y281299D01*
D02*
G37*
G36*
X333423Y275000D02*
X332718D01*
X332067Y274730D01*
X331569Y274232D01*
X331299Y273581D01*
Y272876D01*
X331569Y272225D01*
X332067Y271726D01*
X332718Y271457D01*
X333423D01*
X334074Y271726D01*
X334573Y272225D01*
X334842Y272876D01*
Y273581D01*
X334573Y274232D01*
X334074Y274730D01*
X333423Y275000D01*
D02*
G37*
G36*
X238541D02*
X237837D01*
X237185Y274730D01*
X236687Y274232D01*
X236417Y273581D01*
Y272876D01*
X236687Y272225D01*
X237185Y271726D01*
X237837Y271457D01*
X238541D01*
X239193Y271726D01*
X239691Y272225D01*
X239961Y272876D01*
Y273581D01*
X239691Y274232D01*
X239193Y274730D01*
X238541Y275000D01*
D02*
G37*
G36*
X332045Y271063D02*
X331341D01*
X330689Y270793D01*
X330191Y270295D01*
X329921Y269644D01*
Y268939D01*
X330191Y268288D01*
X330689Y267789D01*
X331341Y267520D01*
X332045D01*
X332697Y267789D01*
X333195Y268288D01*
X333465Y268939D01*
Y269644D01*
X333195Y270295D01*
X332697Y270793D01*
X332045Y271063D01*
D02*
G37*
G36*
X238541Y269882D02*
X237837D01*
X237185Y269612D01*
X236687Y269114D01*
X236417Y268463D01*
Y267758D01*
X236687Y267107D01*
X237185Y266608D01*
X237837Y266339D01*
X238541D01*
X239193Y266608D01*
X239691Y267107D01*
X239961Y267758D01*
Y268463D01*
X239691Y269114D01*
X239193Y269612D01*
X238541Y269882D01*
D02*
G37*
G36*
X179921Y280354D02*
X178739Y280198D01*
X177638Y279742D01*
X176692Y279016D01*
X175966Y278071D01*
X175510Y276969D01*
X175355Y275787D01*
Y267520D01*
X175510Y266338D01*
X175966Y265236D01*
X176692Y264291D01*
X177638Y263565D01*
X178739Y263109D01*
X179921Y262953D01*
X181103Y263109D01*
X182205Y263565D01*
X183150Y264291D01*
X183876Y265236D01*
X184332Y266338D01*
X184488Y267520D01*
Y275787D01*
X184332Y276969D01*
X183876Y278071D01*
X183150Y279016D01*
X182205Y279742D01*
X181103Y280198D01*
X179921Y280354D01*
D02*
G37*
G36*
X135039D02*
X133857Y280198D01*
X132756Y279742D01*
X131810Y279016D01*
X131085Y278071D01*
X130628Y276969D01*
X130473Y275787D01*
Y267520D01*
X130628Y266338D01*
X131085Y265236D01*
X131810Y264291D01*
X132756Y263565D01*
X133857Y263109D01*
X135039Y262953D01*
X136221Y263109D01*
X137323Y263565D01*
X138268Y264291D01*
X138994Y265236D01*
X139450Y266338D01*
X139606Y267520D01*
Y275787D01*
X139450Y276969D01*
X138994Y278071D01*
X138268Y279016D01*
X137323Y279742D01*
X136221Y280198D01*
X135039Y280354D01*
D02*
G37*
G36*
X253896Y266142D02*
X253191D01*
X252540Y265872D01*
X252041Y265374D01*
X251772Y264722D01*
Y264018D01*
X252041Y263367D01*
X252540Y262868D01*
X253191Y262598D01*
X253896D01*
X254547Y262868D01*
X255045Y263367D01*
X255315Y264018D01*
Y264722D01*
X255045Y265374D01*
X254547Y265872D01*
X253896Y266142D01*
D02*
G37*
G36*
X340510Y263976D02*
X339805D01*
X339154Y263707D01*
X338655Y263208D01*
X338386Y262557D01*
Y261852D01*
X338655Y261201D01*
X339154Y260703D01*
X339805Y260433D01*
X340510D01*
X341161Y260703D01*
X341659Y261201D01*
X341929Y261852D01*
Y262557D01*
X341659Y263208D01*
X341161Y263707D01*
X340510Y263976D01*
D02*
G37*
G36*
X327911Y262402D02*
X327207D01*
X326555Y262132D01*
X326057Y261633D01*
X325787Y260982D01*
Y260278D01*
X326057Y259626D01*
X326555Y259128D01*
X327207Y258858D01*
X327911D01*
X328563Y259128D01*
X329061Y259626D01*
X329331Y260278D01*
Y260982D01*
X329061Y261633D01*
X328563Y262132D01*
X327911Y262402D01*
D02*
G37*
G36*
X159014Y261614D02*
X158309D01*
X157658Y261344D01*
X157159Y260846D01*
X156890Y260195D01*
Y259490D01*
X157159Y258839D01*
X157658Y258341D01*
X158309Y258071D01*
X159014D01*
X159665Y258341D01*
X160163Y258839D01*
X160433Y259490D01*
Y260195D01*
X160163Y260846D01*
X159665Y261344D01*
X159014Y261614D01*
D02*
G37*
G36*
X341691Y260039D02*
X340986D01*
X340335Y259770D01*
X339837Y259271D01*
X339567Y258620D01*
Y257915D01*
X339837Y257264D01*
X340335Y256766D01*
X340986Y256496D01*
X341691D01*
X342342Y256766D01*
X342841Y257264D01*
X343110Y257915D01*
Y258620D01*
X342841Y259271D01*
X342342Y259770D01*
X341691Y260039D01*
D02*
G37*
G36*
X264919Y259646D02*
X264214D01*
X263563Y259376D01*
X263065Y258878D01*
X262795Y258226D01*
Y257522D01*
X263065Y256871D01*
X263563Y256372D01*
X264214Y256102D01*
X264919D01*
X265570Y256372D01*
X266069Y256871D01*
X266339Y257522D01*
Y258226D01*
X266069Y258878D01*
X265570Y259376D01*
X264919Y259646D01*
D02*
G37*
G36*
X173975Y259449D02*
X173270D01*
X172618Y259179D01*
X172120Y258681D01*
X171850Y258030D01*
Y257325D01*
X172120Y256674D01*
X172618Y256175D01*
X173270Y255906D01*
X173975D01*
X174626Y256175D01*
X175124Y256674D01*
X175394Y257325D01*
Y258030D01*
X175124Y258681D01*
X174626Y259179D01*
X173975Y259449D01*
D02*
G37*
G36*
X167675Y258858D02*
X166970D01*
X166319Y258589D01*
X165821Y258090D01*
X165551Y257439D01*
Y256734D01*
X165821Y256083D01*
X166319Y255585D01*
X166970Y255315D01*
X167675D01*
X168326Y255585D01*
X168825Y256083D01*
X169095Y256734D01*
Y257439D01*
X168825Y258090D01*
X168326Y258589D01*
X167675Y258858D01*
D02*
G37*
G36*
X292085Y258071D02*
X291380D01*
X290729Y257801D01*
X290230Y257303D01*
X289961Y256652D01*
Y255947D01*
X290230Y255296D01*
X290729Y254797D01*
X291380Y254528D01*
X292085D01*
X292736Y254797D01*
X293234Y255296D01*
X293504Y255947D01*
Y256652D01*
X293234Y257303D01*
X292736Y257801D01*
X292085Y258071D01*
D02*
G37*
G36*
X271218D02*
X270514D01*
X269863Y257801D01*
X269364Y257303D01*
X269094Y256652D01*
Y255947D01*
X269364Y255296D01*
X269863Y254797D01*
X270514Y254528D01*
X271218D01*
X271870Y254797D01*
X272368Y255296D01*
X272638Y255947D01*
Y256652D01*
X272368Y257303D01*
X271870Y257801D01*
X271218Y258071D01*
D02*
G37*
G36*
X281849Y257677D02*
X281144D01*
X280492Y257407D01*
X279994Y256909D01*
X279724Y256258D01*
Y255553D01*
X279994Y254902D01*
X280492Y254404D01*
X281144Y254134D01*
X281849D01*
X282500Y254404D01*
X282998Y254902D01*
X283268Y255553D01*
Y256258D01*
X282998Y256909D01*
X282500Y257407D01*
X281849Y257677D01*
D02*
G37*
G36*
X260982Y257283D02*
X260278D01*
X259626Y257014D01*
X259128Y256515D01*
X258858Y255864D01*
Y255159D01*
X259128Y254508D01*
X259626Y254010D01*
X260278Y253740D01*
X260982D01*
X261633Y254010D01*
X262132Y254508D01*
X262402Y255159D01*
Y255864D01*
X262132Y256515D01*
X261633Y257014D01*
X260982Y257283D01*
D02*
G37*
G36*
X156258D02*
X155553D01*
X154902Y257014D01*
X154404Y256515D01*
X154134Y255864D01*
Y255159D01*
X154404Y254508D01*
X154902Y254010D01*
X155553Y253740D01*
X156258D01*
X156909Y254010D01*
X157407Y254508D01*
X157677Y255159D01*
Y255864D01*
X157407Y256515D01*
X156909Y257014D01*
X156258Y257283D01*
D02*
G37*
G36*
X170825Y253740D02*
X170120D01*
X169469Y253470D01*
X168971Y252972D01*
X168701Y252321D01*
Y251616D01*
X168971Y250965D01*
X169469Y250467D01*
X170120Y250197D01*
X170825D01*
X171476Y250467D01*
X171974Y250965D01*
X172244Y251616D01*
Y252321D01*
X171974Y252972D01*
X171476Y253470D01*
X170825Y253740D01*
D02*
G37*
G36*
X310195Y252165D02*
X309490D01*
X308839Y251896D01*
X308341Y251397D01*
X308071Y250746D01*
Y250041D01*
X308341Y249390D01*
X308839Y248892D01*
X309490Y248622D01*
X310195D01*
X310846Y248892D01*
X311345Y249390D01*
X311614Y250041D01*
Y250746D01*
X311345Y251397D01*
X310846Y251896D01*
X310195Y252165D01*
D02*
G37*
G36*
X310589Y247835D02*
X309884D01*
X309233Y247565D01*
X308734Y247067D01*
X308465Y246415D01*
Y245711D01*
X308734Y245059D01*
X309233Y244561D01*
X309884Y244291D01*
X310589D01*
X311240Y244561D01*
X311738Y245059D01*
X312008Y245711D01*
Y246415D01*
X311738Y247067D01*
X311240Y247565D01*
X310589Y247835D01*
D02*
G37*
G36*
X255470D02*
X254766D01*
X254115Y247565D01*
X253616Y247067D01*
X253346Y246415D01*
Y245711D01*
X253616Y245059D01*
X254115Y244561D01*
X254766Y244291D01*
X255470D01*
X256122Y244561D01*
X256620Y245059D01*
X256890Y245711D01*
Y246415D01*
X256620Y247067D01*
X256122Y247565D01*
X255470Y247835D01*
D02*
G37*
G36*
X244447Y247047D02*
X243742D01*
X243091Y246778D01*
X242593Y246279D01*
X242323Y245628D01*
Y244923D01*
X242593Y244272D01*
X243091Y243774D01*
X243742Y243504D01*
X244447D01*
X245098Y243774D01*
X245596Y244272D01*
X245866Y244923D01*
Y245628D01*
X245596Y246279D01*
X245098Y246778D01*
X244447Y247047D01*
D02*
G37*
G36*
X344841Y243504D02*
X344136D01*
X343485Y243234D01*
X342986Y242736D01*
X342717Y242085D01*
Y241380D01*
X342986Y240729D01*
X343485Y240230D01*
X344136Y239961D01*
X344841D01*
X345492Y240230D01*
X345990Y240729D01*
X346260Y241380D01*
Y242085D01*
X345990Y242736D01*
X345492Y243234D01*
X344841Y243504D01*
D02*
G37*
G36*
X167802Y245768D02*
X166843D01*
X165917Y245519D01*
X165087Y245040D01*
X164409Y244362D01*
X163929Y243532D01*
X163681Y242605D01*
Y241647D01*
X163929Y240720D01*
X164409Y239890D01*
X165087Y239212D01*
X165917Y238732D01*
X166843Y238484D01*
X167802D01*
X168728Y238732D01*
X169559Y239212D01*
X170237Y239890D01*
X170716Y240720D01*
X170965Y241647D01*
Y242605D01*
X170716Y243532D01*
X170237Y244362D01*
X169559Y245040D01*
X168728Y245519D01*
X167802Y245768D01*
D02*
G37*
G36*
X151279D02*
X143996D01*
Y238484D01*
X151279D01*
Y245768D01*
D02*
G37*
G36*
X267675Y241535D02*
X266970D01*
X266319Y241266D01*
X265821Y240767D01*
X265551Y240116D01*
Y239411D01*
X265821Y238760D01*
X266319Y238262D01*
X266970Y237992D01*
X267675D01*
X268326Y238262D01*
X268825Y238760D01*
X269094Y239411D01*
Y240116D01*
X268825Y240767D01*
X268326Y241266D01*
X267675Y241535D01*
D02*
G37*
G36*
X310982Y239567D02*
X310278D01*
X309626Y239297D01*
X309128Y238799D01*
X308858Y238148D01*
Y237443D01*
X309128Y236792D01*
X309626Y236293D01*
X310278Y236024D01*
X310982D01*
X311633Y236293D01*
X312132Y236792D01*
X312402Y237443D01*
Y238148D01*
X312132Y238799D01*
X311633Y239297D01*
X310982Y239567D01*
D02*
G37*
G36*
X277124Y234449D02*
X276419D01*
X275768Y234179D01*
X275270Y233681D01*
X275000Y233030D01*
Y232325D01*
X275270Y231674D01*
X275768Y231175D01*
X276419Y230906D01*
X277124D01*
X277775Y231175D01*
X278274Y231674D01*
X278543Y232325D01*
Y233030D01*
X278274Y233681D01*
X277775Y234179D01*
X277124Y234449D01*
D02*
G37*
G36*
X317282Y234055D02*
X316577D01*
X315926Y233785D01*
X315427Y233287D01*
X315158Y232636D01*
Y231931D01*
X315427Y231280D01*
X315926Y230782D01*
X316577Y230512D01*
X317282D01*
X317933Y230782D01*
X318431Y231280D01*
X318701Y231931D01*
Y232636D01*
X318431Y233287D01*
X317933Y233785D01*
X317282Y234055D01*
D02*
G37*
G36*
X177911Y233661D02*
X177207D01*
X176556Y233392D01*
X176057Y232893D01*
X175787Y232242D01*
Y231537D01*
X176057Y230886D01*
X176556Y230388D01*
X177207Y230118D01*
X177911D01*
X178563Y230388D01*
X179061Y230886D01*
X179331Y231537D01*
Y232242D01*
X179061Y232893D01*
X178563Y233392D01*
X177911Y233661D01*
D02*
G37*
G36*
X268069Y198622D02*
X267364D01*
X266713Y198352D01*
X266215Y197854D01*
X265945Y197203D01*
Y196498D01*
X266215Y195847D01*
X266713Y195349D01*
X267364Y195079D01*
X268069D01*
X268720Y195349D01*
X269218Y195847D01*
X269488Y196498D01*
Y197203D01*
X269218Y197854D01*
X268720Y198352D01*
X268069Y198622D01*
D02*
G37*
G36*
X247203Y196653D02*
X246498D01*
X245847Y196384D01*
X245349Y195885D01*
X245079Y195234D01*
Y194529D01*
X245349Y193878D01*
X245847Y193380D01*
X246498Y193110D01*
X247203D01*
X247854Y193380D01*
X248352Y193878D01*
X248622Y194529D01*
Y195234D01*
X248352Y195885D01*
X247854Y196384D01*
X247203Y196653D01*
D02*
G37*
G36*
X155636Y200000D02*
X154600D01*
X153598Y199732D01*
X152701Y199213D01*
X151968Y198480D01*
X151449Y197583D01*
X151181Y196581D01*
Y195545D01*
X151449Y194543D01*
X151968Y193646D01*
X152701Y192913D01*
X153598Y192394D01*
X154600Y192126D01*
X155636D01*
X156638Y192394D01*
X157536Y192913D01*
X158268Y193646D01*
X158787Y194543D01*
X159055Y195545D01*
Y196581D01*
X158787Y197583D01*
X158268Y198480D01*
X157536Y199213D01*
X156638Y199732D01*
X155636Y200000D01*
D02*
G37*
G36*
X347203Y195472D02*
X346498D01*
X345847Y195203D01*
X345349Y194704D01*
X345079Y194053D01*
Y193348D01*
X345349Y192697D01*
X345847Y192199D01*
X346498Y191929D01*
X347203D01*
X347854Y192199D01*
X348352Y192697D01*
X348622Y193348D01*
Y194053D01*
X348352Y194704D01*
X347854Y195203D01*
X347203Y195472D01*
D02*
G37*
G36*
X137946Y200197D02*
X136857D01*
X135806Y199915D01*
X134863Y199371D01*
X134094Y198601D01*
X133549Y197659D01*
X133268Y196607D01*
Y195519D01*
X133549Y194467D01*
X134094Y193525D01*
X134863Y192755D01*
X135806Y192211D01*
X136857Y191929D01*
X137946D01*
X138997Y192211D01*
X139940Y192755D01*
X140709Y193525D01*
X141254Y194467D01*
X141535Y195519D01*
Y196607D01*
X141254Y197659D01*
X140709Y198601D01*
X139940Y199371D01*
X138997Y199915D01*
X137946Y200197D01*
D02*
G37*
G36*
X276337Y181693D02*
X275632D01*
X274981Y181423D01*
X274482Y180925D01*
X274213Y180274D01*
Y179569D01*
X274482Y178918D01*
X274981Y178419D01*
X275632Y178150D01*
X276337D01*
X276988Y178419D01*
X277486Y178918D01*
X277756Y179569D01*
Y180274D01*
X277486Y180925D01*
X276988Y181423D01*
X276337Y181693D01*
D02*
G37*
G36*
X229093Y178150D02*
X228388D01*
X227737Y177880D01*
X227238Y177382D01*
X226969Y176730D01*
Y176025D01*
X227238Y175374D01*
X227737Y174876D01*
X228388Y174606D01*
X229093D01*
X229744Y174876D01*
X230242Y175374D01*
X230512Y176025D01*
Y176730D01*
X230242Y177382D01*
X229744Y177880D01*
X229093Y178150D01*
D02*
G37*
G36*
X206258D02*
X205553D01*
X204902Y177880D01*
X204404Y177382D01*
X204134Y176730D01*
Y176025D01*
X204404Y175374D01*
X204902Y174876D01*
X205553Y174606D01*
X206258D01*
X206909Y174876D01*
X207407Y175374D01*
X207677Y176025D01*
Y176730D01*
X207407Y177382D01*
X206909Y177880D01*
X206258Y178150D01*
D02*
G37*
G36*
X197597Y176575D02*
X196892D01*
X196240Y176305D01*
X195742Y175807D01*
X195472Y175155D01*
Y174451D01*
X195742Y173800D01*
X196240Y173301D01*
X196892Y173031D01*
X197597D01*
X198248Y173301D01*
X198746Y173800D01*
X199016Y174451D01*
Y175155D01*
X198746Y175807D01*
X198248Y176305D01*
X197597Y176575D01*
D02*
G37*
G36*
X223542Y173524D02*
X222915D01*
X222336Y173284D01*
X221893Y172841D01*
X221654Y172262D01*
Y171636D01*
X221893Y171057D01*
X222336Y170614D01*
X222915Y170374D01*
X223542D01*
X224120Y170614D01*
X224563Y171057D01*
X224803Y171636D01*
Y172262D01*
X224563Y172841D01*
X224120Y173284D01*
X223542Y173524D01*
D02*
G37*
G36*
X219211D02*
X218584D01*
X218006Y173284D01*
X217563Y172841D01*
X217323Y172262D01*
Y171636D01*
X217563Y171057D01*
X218006Y170614D01*
X218584Y170374D01*
X219211D01*
X219790Y170614D01*
X220233Y171057D01*
X220472Y171636D01*
Y172262D01*
X220233Y172841D01*
X219790Y173284D01*
X219211Y173524D01*
D02*
G37*
G36*
X214880D02*
X214254D01*
X213675Y173284D01*
X213232Y172841D01*
X212992Y172262D01*
Y171636D01*
X213232Y171057D01*
X213675Y170614D01*
X214254Y170374D01*
X214880D01*
X215459Y170614D01*
X215902Y171057D01*
X216142Y171636D01*
Y172262D01*
X215902Y172841D01*
X215459Y173284D01*
X214880Y173524D01*
D02*
G37*
G36*
X337163Y171325D02*
X336459D01*
X335807Y171055D01*
X335309Y170556D01*
X335039Y169905D01*
Y169200D01*
X335309Y168549D01*
X335807Y168051D01*
X336459Y167781D01*
X337163D01*
X337815Y168051D01*
X338313Y168549D01*
X338583Y169200D01*
Y169905D01*
X338313Y170556D01*
X337815Y171055D01*
X337163Y171325D01*
D02*
G37*
G36*
X240116Y171063D02*
X239411D01*
X238760Y170793D01*
X238262Y170295D01*
X237992Y169644D01*
Y168939D01*
X238262Y168288D01*
X238760Y167789D01*
X239411Y167520D01*
X240116D01*
X240767Y167789D01*
X241266Y168288D01*
X241535Y168939D01*
Y169644D01*
X241266Y170295D01*
X240767Y170793D01*
X240116Y171063D01*
D02*
G37*
G36*
X223542Y169193D02*
X222915D01*
X222336Y168953D01*
X221893Y168510D01*
X221654Y167931D01*
Y167305D01*
X221893Y166726D01*
X222336Y166283D01*
X222915Y166043D01*
X223542D01*
X224120Y166283D01*
X224563Y166726D01*
X224803Y167305D01*
Y167931D01*
X224563Y168510D01*
X224120Y168953D01*
X223542Y169193D01*
D02*
G37*
G36*
X219211D02*
X218584D01*
X218006Y168953D01*
X217563Y168510D01*
X217323Y167931D01*
Y167305D01*
X217563Y166726D01*
X218006Y166283D01*
X218584Y166043D01*
X219211D01*
X219790Y166283D01*
X220233Y166726D01*
X220472Y167305D01*
Y167931D01*
X220233Y168510D01*
X219790Y168953D01*
X219211Y169193D01*
D02*
G37*
G36*
X214880D02*
X214254D01*
X213675Y168953D01*
X213232Y168510D01*
X212992Y167931D01*
Y167305D01*
X213232Y166726D01*
X213675Y166283D01*
X214254Y166043D01*
X214880D01*
X215459Y166283D01*
X215902Y166726D01*
X216142Y167305D01*
Y167931D01*
X215902Y168510D01*
X215459Y168953D01*
X214880Y169193D01*
D02*
G37*
G36*
X223542Y164862D02*
X222915D01*
X222336Y164622D01*
X221893Y164180D01*
X221654Y163601D01*
Y162974D01*
X221893Y162395D01*
X222336Y161952D01*
X222915Y161713D01*
X223542D01*
X224120Y161952D01*
X224563Y162395D01*
X224803Y162974D01*
Y163601D01*
X224563Y164180D01*
X224120Y164622D01*
X223542Y164862D01*
D02*
G37*
G36*
X219211D02*
X218584D01*
X218006Y164622D01*
X217563Y164180D01*
X217323Y163601D01*
Y162974D01*
X217563Y162395D01*
X218006Y161952D01*
X218584Y161713D01*
X219211D01*
X219790Y161952D01*
X220233Y162395D01*
X220472Y162974D01*
Y163601D01*
X220233Y164180D01*
X219790Y164622D01*
X219211Y164862D01*
D02*
G37*
G36*
X214880D02*
X214254D01*
X213675Y164622D01*
X213232Y164180D01*
X212992Y163601D01*
Y162974D01*
X213232Y162395D01*
X213675Y161952D01*
X214254Y161713D01*
X214880D01*
X215459Y161952D01*
X215902Y162395D01*
X216142Y162974D01*
Y163601D01*
X215902Y164180D01*
X215459Y164622D01*
X214880Y164862D01*
D02*
G37*
G36*
X334998Y162795D02*
X334293D01*
X333642Y162525D01*
X333144Y162027D01*
X332874Y161376D01*
Y160671D01*
X333144Y160020D01*
X333642Y159522D01*
X334293Y159252D01*
X334998D01*
X335649Y159522D01*
X336148Y160020D01*
X336417Y160671D01*
Y161376D01*
X336148Y162027D01*
X335649Y162525D01*
X334998Y162795D01*
D02*
G37*
G36*
X228305Y159646D02*
X227600D01*
X226949Y159376D01*
X226451Y158878D01*
X226181Y158226D01*
Y157522D01*
X226451Y156870D01*
X226949Y156372D01*
X227600Y156102D01*
X228305D01*
X228956Y156372D01*
X229455Y156870D01*
X229724Y157522D01*
Y158226D01*
X229455Y158878D01*
X228956Y159376D01*
X228305Y159646D01*
D02*
G37*
G36*
X239329Y157677D02*
X238624D01*
X237973Y157407D01*
X237474Y156909D01*
X237205Y156258D01*
Y155553D01*
X237474Y154902D01*
X237973Y154404D01*
X238624Y154134D01*
X239329D01*
X239980Y154404D01*
X240478Y154902D01*
X240748Y155553D01*
Y156258D01*
X240478Y156909D01*
X239980Y157407D01*
X239329Y157677D01*
D02*
G37*
G36*
X208620Y159646D02*
X207915D01*
X207264Y159376D01*
X206766Y158878D01*
X206496Y158226D01*
Y157522D01*
X206551Y157390D01*
X206217Y156890D01*
X205947D01*
X205296Y156620D01*
X204797Y156122D01*
X204528Y155471D01*
Y154766D01*
X204797Y154115D01*
X205296Y153616D01*
X205947Y153347D01*
X206652D01*
X207303Y153616D01*
X207801Y154115D01*
X208071Y154766D01*
Y155471D01*
X208016Y155602D01*
X208350Y156102D01*
X208620D01*
X209271Y156372D01*
X209770Y156870D01*
X210039Y157522D01*
Y158226D01*
X209770Y158878D01*
X209271Y159376D01*
X208620Y159646D01*
D02*
G37*
G36*
X292868Y159882D02*
X291935D01*
X291034Y159640D01*
X290226Y159174D01*
X289566Y158514D01*
X289100Y157706D01*
X288858Y156805D01*
Y155872D01*
X289100Y154971D01*
X289566Y154163D01*
X290226Y153503D01*
X291034Y153037D01*
X291935Y152795D01*
X292868D01*
X293769Y153037D01*
X294577Y153503D01*
X295237Y154163D01*
X295703Y154971D01*
X295945Y155872D01*
Y156805D01*
X295703Y157706D01*
X295237Y158514D01*
X294577Y159174D01*
X293769Y159640D01*
X292868Y159882D01*
D02*
G37*
G36*
X283026D02*
X282093D01*
X281191Y159640D01*
X280383Y159174D01*
X279724Y158514D01*
X279257Y157706D01*
X279016Y156805D01*
Y155872D01*
X279257Y154971D01*
X279724Y154163D01*
X280383Y153503D01*
X281191Y153037D01*
X282093Y152795D01*
X283026D01*
X283927Y153037D01*
X284735Y153503D01*
X285394Y154163D01*
X285861Y154971D01*
X286102Y155872D01*
Y156805D01*
X285861Y157706D01*
X285394Y158514D01*
X284735Y159174D01*
X283927Y159640D01*
X283026Y159882D01*
D02*
G37*
G36*
X245628Y154921D02*
X244923D01*
X244272Y154651D01*
X243774Y154153D01*
X243504Y153502D01*
Y152797D01*
X243774Y152146D01*
X244272Y151648D01*
X244923Y151378D01*
X245628D01*
X246279Y151648D01*
X246778Y152146D01*
X247047Y152797D01*
Y153502D01*
X246778Y154153D01*
X246279Y154651D01*
X245628Y154921D01*
D02*
G37*
G36*
X222793Y153347D02*
X222089D01*
X221437Y153077D01*
X220939Y152578D01*
X220669Y151927D01*
Y151222D01*
X220939Y150571D01*
X221437Y150073D01*
X222089Y149803D01*
X222793D01*
X223445Y150073D01*
X223943Y150571D01*
X224213Y151222D01*
Y151927D01*
X223943Y152578D01*
X223445Y153077D01*
X222793Y153347D01*
D02*
G37*
G36*
X202321Y152953D02*
X201616D01*
X200965Y152683D01*
X200467Y152185D01*
X200197Y151533D01*
Y150829D01*
X200467Y150178D01*
X200965Y149679D01*
X201616Y149409D01*
X202321D01*
X202972Y149679D01*
X203470Y150178D01*
X203740Y150829D01*
Y151533D01*
X203470Y152185D01*
X202972Y152683D01*
X202321Y152953D01*
D02*
G37*
G36*
X137360Y149016D02*
X136655D01*
X136004Y148746D01*
X135506Y148248D01*
X135236Y147597D01*
Y146892D01*
X135506Y146240D01*
X136004Y145742D01*
X136655Y145472D01*
X137360D01*
X138011Y145742D01*
X138510Y146240D01*
X138779Y146892D01*
Y147597D01*
X138510Y148248D01*
X138011Y148746D01*
X137360Y149016D01*
D02*
G37*
G36*
X292868Y152008D02*
X291935D01*
X291034Y151766D01*
X290226Y151300D01*
X289566Y150640D01*
X289100Y149832D01*
X288858Y148931D01*
Y147998D01*
X289100Y147097D01*
X289566Y146289D01*
X290226Y145629D01*
X291034Y145163D01*
X291935Y144921D01*
X292868D01*
X293769Y145163D01*
X294577Y145629D01*
X295237Y146289D01*
X295703Y147097D01*
X295945Y147998D01*
Y148931D01*
X295703Y149832D01*
X295237Y150640D01*
X294577Y151300D01*
X293769Y151766D01*
X292868Y152008D01*
D02*
G37*
G36*
X283026D02*
X282093D01*
X281191Y151766D01*
X280383Y151300D01*
X279724Y150640D01*
X279257Y149832D01*
X279016Y148931D01*
Y147998D01*
X279257Y147097D01*
X279724Y146289D01*
X280383Y145629D01*
X281191Y145163D01*
X282093Y144921D01*
X283026D01*
X283927Y145163D01*
X284735Y145629D01*
X285394Y146289D01*
X285861Y147097D01*
X286102Y147998D01*
Y148931D01*
X285861Y149832D01*
X285394Y150640D01*
X284735Y151300D01*
X283927Y151766D01*
X283026Y152008D01*
D02*
G37*
G36*
X175155Y137992D02*
X174451D01*
X173800Y137722D01*
X173301Y137224D01*
X173031Y136573D01*
Y135868D01*
X173301Y135217D01*
X173800Y134719D01*
X174451Y134449D01*
X175155D01*
X175807Y134719D01*
X176305Y135217D01*
X176575Y135868D01*
Y136573D01*
X176305Y137224D01*
X175807Y137722D01*
X175155Y137992D01*
D02*
G37*
G36*
X155077Y137598D02*
X154372D01*
X153721Y137329D01*
X153223Y136830D01*
X152953Y136179D01*
Y135474D01*
X153223Y134823D01*
X153721Y134325D01*
X154372Y134055D01*
X155077D01*
X155728Y134325D01*
X156226Y134823D01*
X156496Y135474D01*
Y136179D01*
X156226Y136830D01*
X155728Y137329D01*
X155077Y137598D01*
D02*
G37*
G36*
X311931Y145413D02*
X310431D01*
X308959Y145121D01*
X307573Y144546D01*
X306325Y143713D01*
X305264Y142651D01*
X304430Y141404D01*
X303856Y140017D01*
X303563Y138546D01*
Y137045D01*
X303856Y135573D01*
X304430Y134187D01*
X305264Y132939D01*
X306325Y131878D01*
X307573Y131044D01*
X308959Y130470D01*
X310431Y130177D01*
X311931D01*
X313403Y130470D01*
X314790Y131044D01*
X316037Y131878D01*
X317098Y132939D01*
X317932Y134187D01*
X318507Y135573D01*
X318799Y137045D01*
Y138546D01*
X318507Y140017D01*
X317932Y141404D01*
X317098Y142651D01*
X316037Y143713D01*
X314790Y144546D01*
X313403Y145121D01*
X311931Y145413D01*
D02*
G37*
G36*
X264530D02*
X263029D01*
X261557Y145121D01*
X260171Y144546D01*
X258923Y143713D01*
X257862Y142651D01*
X257029Y141404D01*
X256454Y140017D01*
X256161Y138546D01*
Y137045D01*
X256454Y135573D01*
X257029Y134187D01*
X257862Y132939D01*
X258923Y131878D01*
X260171Y131044D01*
X261557Y130470D01*
X263029Y130177D01*
X264530D01*
X266002Y130470D01*
X267388Y131044D01*
X268636Y131878D01*
X269697Y132939D01*
X270531Y134187D01*
X271105Y135573D01*
X271398Y137045D01*
Y138546D01*
X271105Y140017D01*
X270531Y141404D01*
X269697Y142651D01*
X268636Y143713D01*
X267388Y144546D01*
X266002Y145121D01*
X264530Y145413D01*
D02*
G37*
G36*
X244980Y118504D02*
X243839D01*
X242738Y118209D01*
X241750Y117639D01*
X240944Y116832D01*
X240374Y115845D01*
X240079Y114743D01*
Y113603D01*
X240374Y112502D01*
X240944Y111514D01*
X241750Y110708D01*
X242738Y110138D01*
X243839Y109843D01*
X244980D01*
X246081Y110138D01*
X247069Y110708D01*
X247875Y111514D01*
X248445Y112502D01*
X248740Y113603D01*
Y114743D01*
X248445Y115845D01*
X247875Y116832D01*
X247069Y117639D01*
X246081Y118209D01*
X244980Y118504D01*
D02*
G37*
G36*
X204980D02*
X203839D01*
X202738Y118209D01*
X201750Y117639D01*
X200944Y116832D01*
X200374Y115845D01*
X200079Y114743D01*
Y113603D01*
X200374Y112502D01*
X200944Y111514D01*
X201750Y110708D01*
X202738Y110138D01*
X203839Y109843D01*
X204980D01*
X206081Y110138D01*
X207069Y110708D01*
X207875Y111514D01*
X208445Y112502D01*
X208740Y113603D01*
Y114743D01*
X208445Y115845D01*
X207875Y116832D01*
X207069Y117639D01*
X206081Y118209D01*
X204980Y118504D01*
D02*
G37*
G36*
X181988D02*
X180847D01*
X179746Y118209D01*
X178758Y117639D01*
X177952Y116832D01*
X177382Y115845D01*
X177087Y114743D01*
Y113603D01*
X177382Y112502D01*
X177952Y111514D01*
X178758Y110708D01*
X179746Y110138D01*
X180847Y109843D01*
X181988D01*
X183089Y110138D01*
X184076Y110708D01*
X184883Y111514D01*
X185453Y112502D01*
X185748Y113603D01*
Y114743D01*
X185453Y115845D01*
X184883Y116832D01*
X184076Y117639D01*
X183089Y118209D01*
X181988Y118504D01*
D02*
G37*
G36*
X161987D02*
X160847D01*
X159746Y118209D01*
X158758Y117639D01*
X157952Y116832D01*
X157382Y115845D01*
X157087Y114743D01*
Y113603D01*
X157382Y112502D01*
X157952Y111514D01*
X158758Y110708D01*
X159746Y110138D01*
X160847Y109843D01*
X161987D01*
X163089Y110138D01*
X164076Y110708D01*
X164883Y111514D01*
X165453Y112502D01*
X165748Y113603D01*
Y114743D01*
X165453Y115845D01*
X164883Y116832D01*
X164076Y117639D01*
X163089Y118209D01*
X161987Y118504D01*
D02*
G37*
G36*
X141988D02*
X140847D01*
X139746Y118209D01*
X138758Y117639D01*
X137952Y116832D01*
X137382Y115845D01*
X137087Y114743D01*
Y113603D01*
X137382Y112502D01*
X137952Y111514D01*
X138758Y110708D01*
X139746Y110138D01*
X140847Y109843D01*
X141988D01*
X143089Y110138D01*
X144076Y110708D01*
X144883Y111514D01*
X145453Y112502D01*
X145748Y113603D01*
Y114743D01*
X145453Y115845D01*
X144883Y116832D01*
X144076Y117639D01*
X143089Y118209D01*
X141988Y118504D01*
D02*
G37*
G36*
X339559Y126575D02*
X337607D01*
X335679Y126269D01*
X333822Y125666D01*
X332083Y124780D01*
X330504Y123633D01*
X329123Y122252D01*
X327976Y120673D01*
X327090Y118934D01*
X326486Y117077D01*
X326181Y115149D01*
Y113197D01*
X326486Y111269D01*
X327090Y109413D01*
X327976Y107673D01*
X329123Y106094D01*
X330504Y104714D01*
X332083Y103567D01*
X333822Y102680D01*
X335679Y102077D01*
X337607Y101772D01*
X339559D01*
X341487Y102077D01*
X343343Y102680D01*
X345082Y103567D01*
X346662Y104714D01*
X348042Y106094D01*
X349189Y107673D01*
X350076Y109413D01*
X350679Y111269D01*
X350984Y113197D01*
Y115149D01*
X350679Y117077D01*
X350076Y118934D01*
X349189Y120673D01*
X348042Y122252D01*
X346662Y123633D01*
X345082Y124780D01*
X343343Y125666D01*
X341487Y126269D01*
X339559Y126575D01*
D02*
G37*
G36*
X115149D02*
X113197D01*
X111269Y126269D01*
X109413Y125666D01*
X107673Y124780D01*
X106094Y123633D01*
X104714Y122252D01*
X103567Y120673D01*
X102680Y118934D01*
X102077Y117077D01*
X101772Y115149D01*
Y113197D01*
X102077Y111269D01*
X102680Y109413D01*
X103567Y107673D01*
X104714Y106094D01*
X106094Y104714D01*
X107673Y103567D01*
X109413Y102680D01*
X111269Y102077D01*
X113197Y101772D01*
X115149D01*
X117077Y102077D01*
X118934Y102680D01*
X120673Y103567D01*
X122252Y104714D01*
X123633Y106094D01*
X124780Y107673D01*
X125666Y109413D01*
X126269Y111269D01*
X126575Y113197D01*
Y115149D01*
X126269Y117077D01*
X125666Y118934D01*
X124780Y120673D01*
X123633Y122252D01*
X122252Y123633D01*
X120673Y124780D01*
X118934Y125666D01*
X117077Y126269D01*
X115149Y126575D01*
D02*
G37*
%LPD*%
D24*
X157480Y242126D02*
D03*
X147638Y299213D02*
D03*
D37*
X224410Y114173D02*
D03*
D43*
X329921Y232283D02*
D03*
X213779Y147638D02*
D03*
X218504Y205512D02*
D03*
X135433D02*
D03*
X250787Y234252D02*
D03*
X283858Y238189D02*
D03*
X290945Y235039D02*
D03*
X297638Y238189D02*
D03*
X298031Y244488D02*
D03*
X292913Y229528D02*
D03*
X299606Y208268D02*
D03*
X294882Y264961D02*
D03*
X300000Y311417D02*
D03*
X329528Y418110D02*
D03*
Y420866D02*
D03*
Y423622D02*
D03*
Y426378D02*
D03*
Y429134D02*
D03*
X211811Y455905D02*
D03*
X150000Y411811D02*
D03*
X150394Y433858D02*
D03*
X124803Y521654D02*
D03*
M02*
