G04*
G04 #@! TF.GenerationSoftware,Altium Limited,Altium Designer,22.8.2 (66)*
G04*
G04 Layer_Physical_Order=1*
G04 Layer_Color=255*
%FSLAX25Y25*%
%MOIN*%
G70*
G04*
G04 #@! TF.SameCoordinates,7BB61612-A306-4DCC-8110-E08496558577*
G04*
G04*
G04 #@! TF.FilePolarity,Positive*
G04*
G01*
G75*
%ADD10C,0.00787*%
%ADD11C,0.01968*%
%ADD15R,0.03150X0.02362*%
%ADD16R,0.05433X0.08268*%
%ADD17R,0.08268X0.05433*%
%ADD20C,0.07087*%
%ADD21C,0.06693*%
G04:AMPARAMS|DCode=23|XSize=78.74mil|YSize=161.42mil|CornerRadius=39.37mil|HoleSize=0mil|Usage=FLASHONLY|Rotation=0.000|XOffset=0mil|YOffset=0mil|HoleType=Round|Shape=RoundedRectangle|*
%AMROUNDEDRECTD23*
21,1,0.07874,0.08268,0,0,0.0*
21,1,0.00000,0.16142,0,0,0.0*
1,1,0.07874,0.00000,-0.04134*
1,1,0.07874,0.00000,-0.04134*
1,1,0.07874,0.00000,0.04134*
1,1,0.07874,0.00000,0.04134*
%
%ADD23ROUNDEDRECTD23*%
%ADD24C,0.06102*%
%ADD25R,0.06102X0.06102*%
%ADD33C,0.03937*%
%ADD34C,0.01181*%
%ADD35C,0.02756*%
%ADD36C,0.05906*%
%ADD37C,0.07480*%
%ADD38C,0.14055*%
%ADD39C,0.23622*%
%ADD40R,0.06693X0.06693*%
%ADD41R,0.09843X0.09843*%
%ADD42C,0.09843*%
%ADD43C,0.02362*%
%ADD44C,0.01968*%
G36*
X341465Y569610D02*
X343332Y569110D01*
X345118Y568370D01*
X346792Y567404D01*
X348325Y566227D01*
X349692Y564861D01*
X350869Y563327D01*
X351835Y561654D01*
X352575Y559868D01*
X353075Y558001D01*
X353327Y556085D01*
Y555118D01*
Y114173D01*
Y113207D01*
X353075Y111291D01*
X352575Y109424D01*
X351835Y107638D01*
X350869Y105964D01*
X349692Y104431D01*
X348325Y103064D01*
X346792Y101887D01*
X345118Y100921D01*
X343332Y100181D01*
X341465Y99681D01*
X339549Y99429D01*
X113207D01*
X111291Y99681D01*
X109424Y100181D01*
X107638Y100921D01*
X105964Y101887D01*
X104431Y103064D01*
X103064Y104431D01*
X101887Y105964D01*
X100921Y107638D01*
X100181Y109423D01*
X99681Y111291D01*
X99429Y113207D01*
Y114173D01*
Y555118D01*
Y556085D01*
X99681Y558001D01*
X100181Y559868D01*
X100921Y561654D01*
X101887Y563327D01*
X103064Y564861D01*
X104431Y566227D01*
X105964Y567404D01*
X107638Y568370D01*
X109423Y569110D01*
X111291Y569610D01*
X113207Y569863D01*
X339549D01*
X341465Y569610D01*
D02*
G37*
%LPC*%
G36*
X265518Y551181D02*
X264482D01*
X263480Y550913D01*
X262583Y550394D01*
X261850Y549661D01*
X261331Y548764D01*
X261063Y547762D01*
Y546726D01*
X261331Y545724D01*
X261850Y544827D01*
X262583Y544094D01*
X262993Y543857D01*
Y511261D01*
X262583Y511024D01*
X261850Y510291D01*
X261331Y509394D01*
X261063Y508392D01*
Y507356D01*
X261331Y506354D01*
X261547Y505980D01*
X261543Y505974D01*
X261399Y505249D01*
X260716Y504566D01*
X257967D01*
X257760Y505066D01*
X258150Y505457D01*
X258669Y506354D01*
X258937Y507356D01*
Y508392D01*
X258669Y509394D01*
X258150Y510291D01*
X257417Y511024D01*
X256520Y511543D01*
X255518Y511811D01*
X254482D01*
X253480Y511543D01*
X252583Y511024D01*
X251850Y510291D01*
X251331Y509394D01*
X251063Y508392D01*
Y507356D01*
X251331Y506354D01*
X251850Y505457D01*
X252240Y505066D01*
X252033Y504566D01*
X247967D01*
X247760Y505066D01*
X248150Y505457D01*
X248669Y506354D01*
X248937Y507356D01*
Y508392D01*
X248669Y509394D01*
X248150Y510291D01*
X247417Y511024D01*
X247007Y511261D01*
Y522638D01*
Y525197D01*
Y536413D01*
X254024Y543430D01*
X254482Y543307D01*
X255518D01*
X256520Y543575D01*
X257417Y544094D01*
X258150Y544827D01*
X258669Y545724D01*
X258937Y546726D01*
Y547762D01*
X258669Y548764D01*
X258150Y549661D01*
X257417Y550394D01*
X256520Y550913D01*
X255518Y551181D01*
X254482D01*
X253480Y550913D01*
X252583Y550394D01*
X251850Y549661D01*
X251331Y548764D01*
X251063Y547762D01*
Y546726D01*
X251186Y546268D01*
X243581Y538663D01*
X243146Y538012D01*
X242993Y537244D01*
Y527204D01*
X198425D01*
X197657Y527051D01*
X197006Y526616D01*
X191650Y521260D01*
X183465D01*
Y510236D01*
X194488D01*
Y518422D01*
X199257Y523190D01*
X242993D01*
Y522638D01*
Y511261D01*
X242583Y511024D01*
X241850Y510291D01*
X241331Y509394D01*
X241063Y508392D01*
Y507356D01*
X241331Y506354D01*
X241850Y505457D01*
X242240Y505066D01*
X242033Y504566D01*
X238937D01*
Y511811D01*
X231063D01*
Y504566D01*
X222682D01*
X213735Y513513D01*
X213798Y513621D01*
X214173Y515022D01*
Y516474D01*
X213798Y517875D01*
X213072Y519132D01*
X212046Y520159D01*
X210789Y520884D01*
X209387Y521260D01*
X207936D01*
X206534Y520884D01*
X205277Y520159D01*
X204251Y519132D01*
X203525Y517875D01*
X203150Y516474D01*
Y515022D01*
X203525Y513621D01*
X204251Y512364D01*
X205277Y511338D01*
X206534Y510612D01*
X207936Y510236D01*
X209387D01*
X210789Y510612D01*
X210897Y510674D01*
X220431Y501140D01*
X221082Y500705D01*
X221850Y500552D01*
X261547D01*
X262316Y500705D01*
X262967Y501140D01*
X264817Y502990D01*
X265252Y503641D01*
X265311Y503937D01*
X265518D01*
X266520Y504205D01*
X267417Y504724D01*
X268150Y505457D01*
X268669Y506354D01*
X268937Y507356D01*
Y508392D01*
X268669Y509394D01*
X268150Y510291D01*
X267417Y511024D01*
X267007Y511261D01*
Y543857D01*
X267417Y544094D01*
X268150Y544827D01*
X268669Y545724D01*
X268937Y546726D01*
Y547762D01*
X268669Y548764D01*
X268150Y549661D01*
X267417Y550394D01*
X266520Y550913D01*
X265518Y551181D01*
D02*
G37*
G36*
X245518D02*
X244482D01*
X243480Y550913D01*
X242583Y550394D01*
X241850Y549661D01*
X241331Y548764D01*
X241063Y547762D01*
Y546726D01*
X241331Y545724D01*
X241850Y544827D01*
X242583Y544094D01*
X243480Y543575D01*
X244482Y543307D01*
X245518D01*
X246520Y543575D01*
X247417Y544094D01*
X248150Y544827D01*
X248669Y545724D01*
X248937Y546726D01*
Y547762D01*
X248669Y548764D01*
X248150Y549661D01*
X247417Y550394D01*
X246520Y550913D01*
X245518Y551181D01*
D02*
G37*
G36*
X209387Y540945D02*
X207936D01*
X206534Y540569D01*
X205277Y539844D01*
X204251Y538817D01*
X203525Y537561D01*
X203150Y536159D01*
Y534707D01*
X203525Y533306D01*
X204251Y532049D01*
X205277Y531023D01*
X206534Y530297D01*
X207936Y529921D01*
X209387D01*
X210789Y530297D01*
X212046Y531023D01*
X213072Y532049D01*
X213798Y533306D01*
X214173Y534707D01*
Y536159D01*
X213798Y537561D01*
X213072Y538817D01*
X212046Y539844D01*
X210789Y540569D01*
X209387Y540945D01*
D02*
G37*
G36*
X194488D02*
X183465D01*
Y529921D01*
X194488D01*
Y540945D01*
D02*
G37*
G36*
X162143D02*
X160692D01*
X159290Y540569D01*
X158033Y539844D01*
X157007Y538817D01*
X156281Y537561D01*
X155905Y536159D01*
Y534707D01*
X156281Y533306D01*
X157007Y532049D01*
X158033Y531023D01*
X159290Y530297D01*
X160692Y529921D01*
X162143D01*
X163545Y530297D01*
X164802Y531023D01*
X165828Y532049D01*
X166553Y533306D01*
X166929Y534707D01*
Y536159D01*
X166553Y537561D01*
X165828Y538817D01*
X164802Y539844D01*
X163545Y540569D01*
X162143Y540945D01*
D02*
G37*
G36*
X147244D02*
X136221D01*
Y529921D01*
X147244D01*
Y540945D01*
D02*
G37*
G36*
X238937Y551181D02*
X231063D01*
Y543307D01*
X232993D01*
Y534291D01*
X233032Y534093D01*
Y531102D01*
X233185Y530334D01*
X233620Y529683D01*
X234271Y529248D01*
X235039Y529095D01*
X235807Y529248D01*
X236459Y529683D01*
X236894Y530334D01*
X237046Y531102D01*
Y534252D01*
X237007Y534450D01*
Y543307D01*
X238937D01*
Y551181D01*
D02*
G37*
G36*
X125155Y523425D02*
X124451D01*
X123800Y523155D01*
X123301Y522657D01*
X123031Y522006D01*
Y521301D01*
X123301Y520650D01*
X123800Y520152D01*
X124451Y519882D01*
X125155D01*
X125807Y520152D01*
X126305Y520650D01*
X126575Y521301D01*
Y522006D01*
X126305Y522657D01*
X125807Y523155D01*
X125155Y523425D01*
D02*
G37*
G36*
X123506Y514075D02*
X122802D01*
X122150Y513805D01*
X121652Y513307D01*
X121382Y512655D01*
Y512572D01*
X120669D01*
Y513091D01*
X116339D01*
Y509547D01*
X120669D01*
Y510164D01*
X121899D01*
X121899Y510164D01*
X122360Y510255D01*
X122751Y510517D01*
X122776Y510542D01*
X122802Y510532D01*
X123506D01*
X124158Y510801D01*
X124656Y511300D01*
X124926Y511951D01*
Y512655D01*
X124656Y513307D01*
X124158Y513805D01*
X123506Y514075D01*
D02*
G37*
G36*
X162143Y521260D02*
X160692D01*
X159290Y520884D01*
X158033Y520159D01*
X157007Y519132D01*
X156281Y517875D01*
X155905Y516474D01*
Y515022D01*
X156281Y513621D01*
X157007Y512364D01*
X158033Y511338D01*
X159290Y510612D01*
X160692Y510236D01*
X162143D01*
X163545Y510612D01*
X164802Y511338D01*
X165828Y512364D01*
X166553Y513621D01*
X166929Y515022D01*
Y516474D01*
X166553Y517875D01*
X165828Y519132D01*
X164802Y520159D01*
X163545Y520884D01*
X162143Y521260D01*
D02*
G37*
G36*
X147244D02*
X136221D01*
Y510236D01*
X147244D01*
Y521260D01*
D02*
G37*
G36*
X313976Y490770D02*
X294291D01*
X293623Y490682D01*
X293001Y490424D01*
X292466Y490014D01*
X292056Y489479D01*
X291798Y488857D01*
X291710Y488189D01*
X291798Y487521D01*
X292056Y486898D01*
X292466Y486364D01*
X293001Y485954D01*
X293623Y485696D01*
X294291Y485608D01*
X313976D01*
X314644Y485696D01*
X315267Y485954D01*
X315802Y486364D01*
X316212Y486898D01*
X316470Y487521D01*
X316558Y488189D01*
X316470Y488857D01*
X316212Y489479D01*
X315802Y490014D01*
X315267Y490424D01*
X314644Y490682D01*
X313976Y490770D01*
D02*
G37*
G36*
X158465D02*
X138779D01*
X138111Y490682D01*
X137489Y490424D01*
X136954Y490014D01*
X136544Y489479D01*
X136286Y488857D01*
X136198Y488189D01*
X136286Y487521D01*
X136544Y486898D01*
X136954Y486364D01*
X137489Y485954D01*
X138111Y485696D01*
X138779Y485608D01*
X158465D01*
X159133Y485696D01*
X159755Y485954D01*
X160290Y486364D01*
X160700Y486898D01*
X160958Y487521D01*
X161046Y488189D01*
X160958Y488857D01*
X160700Y489479D01*
X160290Y490014D01*
X159755Y490424D01*
X159133Y490682D01*
X158465Y490770D01*
D02*
G37*
G36*
X117593Y491732D02*
X116659D01*
X115758Y491491D01*
X114950Y491024D01*
X114291Y490365D01*
X113824Y489557D01*
X113583Y488655D01*
Y487722D01*
X113824Y486821D01*
X114291Y486013D01*
X114950Y485354D01*
X115758Y484887D01*
X116659Y484646D01*
X117593D01*
X118494Y484887D01*
X119302Y485354D01*
X119961Y486013D01*
X120428Y486821D01*
X120669Y487722D01*
Y488655D01*
X120428Y489557D01*
X119961Y490365D01*
X119302Y491024D01*
X118494Y491491D01*
X117593Y491732D01*
D02*
G37*
G36*
X212163Y457677D02*
X211459D01*
X210807Y457407D01*
X210309Y456909D01*
X210039Y456258D01*
Y455553D01*
X210309Y454902D01*
X210807Y454404D01*
X211459Y454134D01*
X212163D01*
X212815Y454404D01*
X213313Y454902D01*
X213583Y455553D01*
Y456258D01*
X213313Y456909D01*
X212815Y457407D01*
X212163Y457677D01*
D02*
G37*
G36*
X156652Y453346D02*
X155947D01*
X155296Y453077D01*
X154797Y452578D01*
X154528Y451927D01*
Y451222D01*
X154797Y450571D01*
X155296Y450073D01*
X155696Y449907D01*
X159418Y446185D01*
Y442092D01*
X159252Y441691D01*
Y440986D01*
X159522Y440335D01*
X160020Y439837D01*
X160671Y439567D01*
X161376D01*
X162027Y439837D01*
X162525Y440335D01*
X162795Y440986D01*
Y441691D01*
X162629Y442092D01*
Y446850D01*
X162507Y447465D01*
X162159Y447986D01*
X162159Y447986D01*
X157967Y452178D01*
X157801Y452578D01*
X157303Y453077D01*
X156652Y453346D01*
D02*
G37*
G36*
X329880Y430905D02*
X329175D01*
X328524Y430636D01*
X328026Y430137D01*
X327756Y429486D01*
Y428782D01*
X328026Y428130D01*
X328400Y427756D01*
X328026Y427382D01*
X327756Y426730D01*
Y426026D01*
X328026Y425374D01*
X328400Y425000D01*
X328026Y424626D01*
X327756Y423974D01*
Y423270D01*
X328026Y422618D01*
X328400Y422244D01*
X328026Y421870D01*
X327756Y421218D01*
Y420514D01*
X328026Y419863D01*
X328400Y419488D01*
X328026Y419114D01*
X327756Y418463D01*
Y417758D01*
X328026Y417107D01*
X328524Y416608D01*
X329175Y416339D01*
X329880D01*
X330531Y416608D01*
X331030Y417107D01*
X331299Y417758D01*
Y418463D01*
X331030Y419114D01*
X330655Y419488D01*
X331030Y419863D01*
X331299Y420514D01*
Y421218D01*
X331030Y421870D01*
X330655Y422244D01*
X331030Y422618D01*
X331299Y423270D01*
Y423974D01*
X331030Y424626D01*
X330655Y425000D01*
X331030Y425374D01*
X331299Y426026D01*
Y426730D01*
X331030Y427382D01*
X330655Y427756D01*
X331030Y428130D01*
X331299Y428782D01*
Y429486D01*
X331030Y430137D01*
X330531Y430636D01*
X329880Y430905D01*
D02*
G37*
G36*
X299959Y428543D02*
X299254D01*
X298603Y428274D01*
X298104Y427775D01*
X297835Y427124D01*
Y426419D01*
X298104Y425768D01*
X298603Y425270D01*
X298701Y425229D01*
Y413214D01*
X298701Y413214D01*
X298203Y412716D01*
X297933Y412065D01*
Y411360D01*
X298203Y410709D01*
X298701Y410211D01*
X299352Y409941D01*
X300057D01*
X300708Y410211D01*
X301207Y410709D01*
X301476Y411360D01*
Y412065D01*
X301207Y412716D01*
X300708Y413214D01*
X300708Y413214D01*
Y425368D01*
X301108Y425768D01*
X301378Y426419D01*
Y427124D01*
X301108Y427775D01*
X300610Y428274D01*
X299959Y428543D01*
D02*
G37*
G36*
X122047Y463211D02*
X121379Y463123D01*
X120757Y462865D01*
X120222Y462455D01*
X119812Y461920D01*
X119554Y461298D01*
X119466Y460630D01*
Y456693D01*
Y393701D01*
Y389764D01*
X119554Y389096D01*
X119812Y388473D01*
X120222Y387939D01*
X120757Y387528D01*
X121379Y387271D01*
X122047Y387183D01*
X122715Y387271D01*
X123338Y387528D01*
X123872Y387939D01*
X124283Y388473D01*
X124540Y389096D01*
X124628Y389764D01*
Y393701D01*
Y456693D01*
Y460630D01*
X124540Y461298D01*
X124283Y461920D01*
X123872Y462455D01*
X123338Y462865D01*
X122715Y463123D01*
X122047Y463211D01*
D02*
G37*
G36*
X295276Y384471D02*
X294607Y384383D01*
X293985Y384125D01*
X293450Y383715D01*
X290269Y380534D01*
X248031D01*
X247363Y380446D01*
X246741Y380188D01*
X246206Y379778D01*
X245796Y379243D01*
X245538Y378621D01*
X245450Y377953D01*
X245538Y377285D01*
X245796Y376662D01*
X246206Y376128D01*
X246741Y375717D01*
X247363Y375460D01*
X248031Y375372D01*
X291339D01*
X292007Y375460D01*
X292629Y375717D01*
X293164Y376128D01*
X297101Y380065D01*
X297511Y380599D01*
X297769Y381222D01*
X297857Y381890D01*
X297769Y382558D01*
X297511Y383180D01*
X297101Y383715D01*
X296566Y384125D01*
X295944Y384383D01*
X295276Y384471D01*
D02*
G37*
G36*
X139329Y438779D02*
X138624D01*
X137973Y438510D01*
X137475Y438011D01*
X137205Y437360D01*
Y436656D01*
X137475Y436004D01*
X137973Y435506D01*
X138624Y435236D01*
X139329D01*
X139980Y435506D01*
X140478Y436004D01*
X140478Y436004D01*
X149639D01*
X149738Y435504D01*
X149390Y435360D01*
X148892Y434862D01*
X148622Y434211D01*
Y433506D01*
X148892Y432855D01*
X149390Y432356D01*
X150041Y432087D01*
X150746D01*
X151397Y432356D01*
X151896Y432855D01*
X152165Y433506D01*
Y434211D01*
X151896Y434862D01*
X151397Y435360D01*
X151049Y435504D01*
X151149Y436004D01*
X159821D01*
X168682Y427143D01*
Y359770D01*
X168682Y359770D01*
X168183Y359271D01*
X167644D01*
X167145Y359770D01*
X166494Y360039D01*
X165789D01*
X165789Y360039D01*
X162027Y363802D01*
Y421333D01*
X162027Y421333D01*
X162525Y421831D01*
X162795Y422482D01*
Y423187D01*
X162525Y423838D01*
X162027Y424337D01*
X161376Y424606D01*
X160671D01*
X160020Y424337D01*
X159522Y423838D01*
X159252Y423187D01*
Y422482D01*
X159522Y421831D01*
X160020Y421333D01*
X160020Y421333D01*
Y363386D01*
X160097Y363002D01*
X160314Y362676D01*
X159959Y362327D01*
X153759Y368526D01*
Y415033D01*
X153760Y415033D01*
X154258Y415532D01*
X154528Y416183D01*
Y416888D01*
X154258Y417539D01*
X153760Y418037D01*
X153108Y418307D01*
X152403D01*
X151752Y418037D01*
X151254Y417539D01*
X150984Y416888D01*
Y416183D01*
X151254Y415532D01*
X151752Y415033D01*
X151752Y415033D01*
Y413271D01*
X151252Y413064D01*
X151004Y413313D01*
X150352Y413583D01*
X149648D01*
X148996Y413313D01*
X148498Y412815D01*
X148335Y412420D01*
X147835Y412520D01*
Y412951D01*
X147565Y413602D01*
X147067Y414100D01*
X146415Y414370D01*
X145711D01*
X145059Y414100D01*
X144561Y413602D01*
X144291Y412951D01*
Y412246D01*
X144561Y411595D01*
X145059Y411096D01*
X145060Y411096D01*
Y371260D01*
X145136Y370876D01*
X145353Y370550D01*
X144998Y370200D01*
X141161Y374038D01*
Y411096D01*
X141161Y411096D01*
X141659Y411595D01*
X141929Y412246D01*
Y412951D01*
X141659Y413602D01*
X141161Y414100D01*
X140510Y414370D01*
X139805D01*
X139154Y414100D01*
X138655Y413602D01*
X138386Y412951D01*
Y412246D01*
X138655Y411595D01*
X139154Y411096D01*
X139154Y411096D01*
Y373622D01*
X139230Y373238D01*
X139448Y372912D01*
X153740Y358620D01*
X153740Y358620D01*
Y357915D01*
X154010Y357264D01*
X154508Y356766D01*
X155159Y356496D01*
X155864D01*
X156515Y356766D01*
X157014Y357264D01*
X157553D01*
X158052Y356766D01*
X158703Y356496D01*
X159407D01*
X160059Y356766D01*
X160557Y357264D01*
X161097D01*
X161595Y356766D01*
X162246Y356496D01*
X162951D01*
X163602Y356766D01*
X164100Y357264D01*
X164120Y357312D01*
X164620D01*
X164640Y357264D01*
X165138Y356766D01*
X165789Y356496D01*
X166494D01*
X167145Y356766D01*
X167644Y357264D01*
X168183D01*
X168682Y356766D01*
X169333Y356496D01*
X170037D01*
X170689Y356766D01*
X171187Y357264D01*
X171457Y357915D01*
Y358620D01*
X171187Y359271D01*
X170689Y359770D01*
X170689Y359770D01*
Y427559D01*
X170612Y427943D01*
X170395Y428269D01*
X160946Y437717D01*
X160620Y437935D01*
X160236Y438011D01*
X140478D01*
X140478Y438011D01*
X139980Y438510D01*
X139329Y438779D01*
D02*
G37*
G36*
X323819Y339195D02*
X304134D01*
X303466Y339107D01*
X302843Y338849D01*
X302309Y338439D01*
X301899Y337905D01*
X301641Y337282D01*
X301553Y336614D01*
X301641Y335946D01*
X301899Y335324D01*
X302309Y334789D01*
X302843Y334379D01*
X303466Y334121D01*
X304134Y334033D01*
X323819D01*
X324487Y334121D01*
X325110Y334379D01*
X325644Y334789D01*
X326054Y335324D01*
X326312Y335946D01*
X326400Y336614D01*
X326312Y337282D01*
X326054Y337905D01*
X325644Y338439D01*
X325110Y338849D01*
X324487Y339107D01*
X323819Y339195D01*
D02*
G37*
G36*
X148622D02*
X128937D01*
X128269Y339107D01*
X127646Y338849D01*
X127112Y338439D01*
X126702Y337905D01*
X126444Y337282D01*
X126356Y336614D01*
X126444Y335946D01*
X126702Y335324D01*
X127112Y334789D01*
X127646Y334379D01*
X128269Y334121D01*
X128937Y334033D01*
X148622D01*
X149290Y334121D01*
X149913Y334379D01*
X150447Y334789D01*
X150857Y335324D01*
X151115Y335946D01*
X151203Y336614D01*
X151115Y337282D01*
X150857Y337905D01*
X150447Y338439D01*
X149913Y338849D01*
X149290Y339107D01*
X148622Y339195D01*
D02*
G37*
G36*
X338065Y340158D02*
X337132D01*
X336231Y339916D01*
X335423Y339450D01*
X334763Y338790D01*
X334297Y337982D01*
X334055Y337081D01*
Y336148D01*
X334297Y335246D01*
X334763Y334438D01*
X335423Y333779D01*
X336231Y333312D01*
X337132Y333071D01*
X338065D01*
X338966Y333312D01*
X339774Y333779D01*
X340434Y334438D01*
X340900Y335246D01*
X341142Y336148D01*
Y337081D01*
X340900Y337982D01*
X340434Y338790D01*
X339774Y339450D01*
X338966Y339916D01*
X338065Y340158D01*
D02*
G37*
G36*
X251969Y339212D02*
X200787D01*
X199606Y339057D01*
X198504Y338600D01*
X197558Y337875D01*
X196833Y336929D01*
X196376Y335828D01*
X196221Y334646D01*
X196376Y333464D01*
X196833Y332362D01*
X197558Y331417D01*
X198504Y330691D01*
X199606Y330235D01*
X200787Y330079D01*
X251969D01*
X253150Y330235D01*
X254252Y330691D01*
X255198Y331417D01*
X255923Y332362D01*
X256380Y333464D01*
X256535Y334646D01*
X256380Y335828D01*
X255923Y336929D01*
X255198Y337875D01*
X254252Y338600D01*
X253150Y339057D01*
X251969Y339212D01*
D02*
G37*
G36*
X303504Y321850D02*
X296890D01*
Y312402D01*
X298040D01*
X298318Y311986D01*
X298228Y311770D01*
Y311065D01*
X298438Y310559D01*
X298200Y310059D01*
X285442D01*
X285108Y310559D01*
X285236Y310868D01*
Y311573D01*
X285100Y311902D01*
X285434Y312402D01*
X285827D01*
Y321850D01*
X279213D01*
Y314263D01*
X278751Y314072D01*
X272822Y320001D01*
X272496Y320218D01*
X272112Y320295D01*
X237598D01*
Y320431D01*
X237329Y321082D01*
X236830Y321581D01*
X236179Y321850D01*
X235474D01*
X234823Y321581D01*
X234325Y321082D01*
X234055Y320431D01*
Y319726D01*
X234325Y319075D01*
X234823Y318577D01*
X235474Y318307D01*
X236179D01*
X236289Y318353D01*
X236614Y318288D01*
X271696D01*
X274499Y315485D01*
X274382Y314895D01*
X274073Y314767D01*
X273574Y314269D01*
X273574Y314269D01*
X262604D01*
X262384Y314489D01*
X262058Y314707D01*
X261674Y314783D01*
X249213D01*
X248829Y314707D01*
X248503Y314489D01*
X230274Y296260D01*
X230274Y296260D01*
X229569D01*
X229178Y296098D01*
X228956Y296530D01*
X229106Y296679D01*
X229455Y297028D01*
X229724Y297679D01*
Y298384D01*
X229724Y298384D01*
X244529Y313189D01*
X244841D01*
X245492Y313459D01*
X245990Y313957D01*
X246260Y314608D01*
Y315313D01*
X245990Y315964D01*
X245492Y316463D01*
X244841Y316732D01*
X244136D01*
X243485Y316463D01*
X242986Y315964D01*
X242717Y315313D01*
Y314608D01*
X242832Y314330D01*
X228305Y299803D01*
X228305Y299803D01*
X227600D01*
X226949Y299533D01*
X226451Y299035D01*
X226181Y298384D01*
Y297679D01*
X226451Y297028D01*
X226949Y296530D01*
X227600Y296260D01*
X228305D01*
X228696Y296422D01*
X228918Y295990D01*
X228768Y295840D01*
X228419Y295492D01*
X228150Y294841D01*
Y294136D01*
X228419Y293485D01*
X228918Y292986D01*
X229569Y292717D01*
X230274D01*
X230925Y292986D01*
X231423Y293485D01*
X231693Y294136D01*
Y294841D01*
X231693Y294841D01*
X249628Y312776D01*
X261258D01*
X261479Y312555D01*
X261805Y312338D01*
X262189Y312262D01*
X273574D01*
X273574Y312262D01*
X274073Y311763D01*
X274724Y311493D01*
X275429D01*
X276080Y311763D01*
X276578Y312262D01*
X276706Y312571D01*
X277296Y312688D01*
X279426Y310559D01*
X279399Y310360D01*
X279250Y310059D01*
X278439D01*
X278222Y310277D01*
X277896Y310494D01*
X277512Y310571D01*
X272250D01*
X272250Y310571D01*
X271752Y311069D01*
X271100Y311339D01*
X270396D01*
X269744Y311069D01*
X269246Y310571D01*
X268976Y309919D01*
Y309214D01*
X269246Y308563D01*
X269613Y308196D01*
X269427Y307696D01*
X267250D01*
X267250Y307697D01*
X266752Y308195D01*
X266100Y308465D01*
X265396D01*
X264744Y308195D01*
X264246Y307697D01*
X263976Y307045D01*
Y306341D01*
X264246Y305689D01*
X264744Y305191D01*
X265396Y304921D01*
X266100D01*
X266752Y305191D01*
X267250Y305689D01*
X267250Y305689D01*
X342662D01*
X342913Y305438D01*
Y305159D01*
X343183Y304508D01*
X343682Y304010D01*
X344333Y303740D01*
X345037D01*
X345689Y304010D01*
X346187Y304508D01*
X346457Y305159D01*
Y305864D01*
X346187Y306515D01*
X345689Y307014D01*
X345037Y307283D01*
X344333D01*
X344031Y307159D01*
X343787Y307402D01*
X343564Y307552D01*
X343660Y308052D01*
X343701D01*
X344085Y308128D01*
X344410Y308346D01*
X345317Y309252D01*
X345317Y309252D01*
X346022D01*
X346673Y309522D01*
X347171Y310020D01*
X347441Y310671D01*
Y311376D01*
X347171Y312027D01*
X346673Y312526D01*
X346022Y312795D01*
X345317D01*
X344666Y312526D01*
X344167Y312027D01*
X343898Y311376D01*
Y310671D01*
X343898Y310671D01*
X343285Y310059D01*
X301800D01*
X301562Y310559D01*
X301772Y311065D01*
Y311770D01*
X301682Y311986D01*
X301960Y312402D01*
X303504D01*
Y321850D01*
D02*
G37*
G36*
X317282Y300984D02*
X316577D01*
X315926Y300714D01*
X315427Y300216D01*
X315427Y300216D01*
X307759D01*
X307375Y300140D01*
X307050Y299922D01*
X293170Y286043D01*
X284842D01*
X284746Y286024D01*
X279213D01*
Y276575D01*
X285827D01*
Y284036D01*
X293586D01*
X293970Y284112D01*
X294296Y284330D01*
X308175Y298209D01*
X315427D01*
X315427Y298209D01*
X315926Y297711D01*
X316577Y297441D01*
X317282D01*
X317933Y297711D01*
X318431Y298209D01*
X318701Y298860D01*
Y299565D01*
X318431Y300216D01*
X317933Y300714D01*
X317282Y300984D01*
D02*
G37*
G36*
X167802Y302854D02*
X166843D01*
X165917Y302606D01*
X165087Y302127D01*
X164409Y301449D01*
X163929Y300618D01*
X163681Y299692D01*
Y298733D01*
X163929Y297807D01*
X164409Y296976D01*
X165087Y296299D01*
X165917Y295819D01*
X166843Y295571D01*
X167802D01*
X168728Y295819D01*
X169559Y296299D01*
X170237Y296976D01*
X170716Y297807D01*
X170824Y298209D01*
X185112D01*
X185112Y298209D01*
X185611Y297711D01*
X186262Y297441D01*
X186967D01*
X187618Y297711D01*
X188116Y298209D01*
X188386Y298860D01*
Y299565D01*
X188116Y300216D01*
X187618Y300714D01*
X186967Y300984D01*
X186262D01*
X185611Y300714D01*
X185112Y300216D01*
X185112Y300216D01*
X170824D01*
X170716Y300618D01*
X170237Y301449D01*
X169559Y302127D01*
X168728Y302606D01*
X167802Y302854D01*
D02*
G37*
G36*
X148117D02*
X147158D01*
X146232Y302606D01*
X145402Y302127D01*
X144724Y301449D01*
X144244Y300618D01*
X143996Y299692D01*
Y298733D01*
X144244Y297807D01*
X144724Y296976D01*
X145402Y296299D01*
X146232Y295819D01*
X147158Y295571D01*
X148117D01*
X149043Y295819D01*
X149874Y296299D01*
X150552Y296976D01*
X151031Y297807D01*
X151279Y298733D01*
Y299692D01*
X151031Y300618D01*
X150552Y301449D01*
X149874Y302127D01*
X149043Y302606D01*
X148117Y302854D01*
D02*
G37*
G36*
X303465Y286024D02*
X296850D01*
Y276575D01*
X303465D01*
Y286024D01*
D02*
G37*
G36*
X333423Y275000D02*
X332718D01*
X332067Y274730D01*
X331569Y274232D01*
X331569Y274232D01*
X239691D01*
X239691Y274232D01*
X239193Y274730D01*
X238541Y275000D01*
X237837D01*
X237185Y274730D01*
X236687Y274232D01*
X236417Y273581D01*
Y272876D01*
X236687Y272225D01*
X237185Y271726D01*
X237837Y271457D01*
X238541D01*
X239193Y271726D01*
X239691Y272225D01*
X239691Y272225D01*
X246760D01*
X246951Y271763D01*
X244302Y269114D01*
X239691D01*
X239691Y269114D01*
X239193Y269612D01*
X238541Y269882D01*
X237837D01*
X237185Y269612D01*
X236687Y269114D01*
X236417Y268463D01*
Y267758D01*
X236687Y267107D01*
X237185Y266608D01*
X237837Y266339D01*
X238541D01*
X239193Y266608D01*
X239691Y267107D01*
X239691Y267107D01*
X244718D01*
X245101Y267183D01*
X245427Y267401D01*
X248873Y270847D01*
X278786D01*
X279213Y270669D01*
X279213Y270347D01*
Y263082D01*
X278751Y262891D01*
X276562Y265080D01*
X276236Y265297D01*
X275852Y265374D01*
X255045D01*
X255045Y265374D01*
X254547Y265872D01*
X253896Y266142D01*
X253191D01*
X252540Y265872D01*
X252041Y265374D01*
X251772Y264722D01*
Y264018D01*
X251900Y263708D01*
X251566Y263208D01*
X164587D01*
X164203Y263132D01*
X163877Y262914D01*
X161809Y260846D01*
X160163D01*
X160163Y260846D01*
X159665Y261344D01*
X159014Y261614D01*
X158309D01*
X157658Y261344D01*
X157159Y260846D01*
X156890Y260195D01*
Y259490D01*
X157159Y258839D01*
X157658Y258341D01*
X158309Y258071D01*
X159014D01*
X159665Y258341D01*
X160163Y258839D01*
X160163Y258839D01*
X161097D01*
X161288Y258377D01*
X159427Y256515D01*
X157407D01*
X157407Y256515D01*
X156909Y257014D01*
X156258Y257283D01*
X155553D01*
X154902Y257014D01*
X154404Y256515D01*
X154134Y255864D01*
Y255159D01*
X154404Y254508D01*
X154902Y254010D01*
X155553Y253740D01*
X156258D01*
X156909Y254010D01*
X157407Y254508D01*
X157407Y254508D01*
X159843D01*
X160227Y254585D01*
X160552Y254802D01*
X164983Y259233D01*
X166568D01*
X166667Y258733D01*
X166319Y258589D01*
X165821Y258090D01*
X165551Y257439D01*
Y256734D01*
X165821Y256083D01*
X166319Y255585D01*
X166970Y255315D01*
X167675D01*
X167675Y255315D01*
X168188Y254802D01*
X168514Y254585D01*
X168898Y254508D01*
X171139D01*
X171234Y254012D01*
X171198Y253984D01*
X171011Y253859D01*
X170886Y253734D01*
X170870Y253721D01*
X170825Y253740D01*
X170120D01*
X169469Y253470D01*
X168971Y252972D01*
X168701Y252321D01*
Y251616D01*
X168971Y250965D01*
X169469Y250467D01*
X170120Y250197D01*
X170825D01*
X171476Y250467D01*
X171974Y250965D01*
X172244Y251616D01*
Y252146D01*
X235805D01*
X242323Y245628D01*
X242323Y245628D01*
Y244923D01*
X242593Y244272D01*
X243091Y243774D01*
X243742Y243504D01*
X244447D01*
X245098Y243774D01*
X245596Y244272D01*
X245866Y244923D01*
Y245628D01*
X245596Y246279D01*
X245098Y246778D01*
X244447Y247047D01*
X243742D01*
X243742Y247047D01*
X236930Y253859D01*
X236707Y254008D01*
X236803Y254508D01*
X245254D01*
X253346Y246415D01*
X253346Y246415D01*
Y245711D01*
X253616Y245059D01*
X254115Y244561D01*
X254766Y244291D01*
X255470D01*
X256122Y244561D01*
X256620Y245059D01*
X256890Y245711D01*
Y246415D01*
X256620Y247067D01*
X256122Y247565D01*
X255470Y247835D01*
X254766D01*
X254766Y247835D01*
X246623Y255977D01*
X246831Y256477D01*
X258246D01*
X258858Y255864D01*
X258858Y255864D01*
Y255159D01*
X259128Y254508D01*
X259626Y254010D01*
X260278Y253740D01*
X260982D01*
X261633Y254010D01*
X262132Y254508D01*
X262402Y255159D01*
Y255864D01*
X262132Y256515D01*
X261633Y257014D01*
X260982Y257283D01*
X260278D01*
X260278Y257283D01*
X259371Y258190D01*
X259046Y258407D01*
X258661Y258484D01*
X175477D01*
X175319Y258733D01*
X175595Y259233D01*
X261789D01*
X262795Y258226D01*
X262795Y258226D01*
Y257522D01*
X263065Y256871D01*
X263563Y256372D01*
X264214Y256102D01*
X264919D01*
X265570Y256372D01*
X266069Y256871D01*
X266339Y257522D01*
Y258226D01*
X266069Y258878D01*
X265570Y259376D01*
X264919Y259646D01*
X264214D01*
X264214Y259646D01*
X263159Y260701D01*
X263366Y261201D01*
X264545D01*
X269094Y256652D01*
X269094Y256652D01*
Y255947D01*
X269364Y255296D01*
X269863Y254797D01*
X270514Y254528D01*
X271218D01*
X271870Y254797D01*
X272368Y255296D01*
X272638Y255947D01*
Y256652D01*
X272368Y257303D01*
X271870Y257801D01*
X271218Y258071D01*
X270514D01*
X270514Y258071D01*
X265718Y262866D01*
X265745Y263066D01*
X265893Y263367D01*
X275436D01*
X278883Y259920D01*
X279208Y259703D01*
X279592Y259626D01*
X283122D01*
X283271Y259326D01*
X283298Y259126D01*
X281849Y257677D01*
X281849Y257677D01*
X281144D01*
X280492Y257407D01*
X279994Y256909D01*
X279724Y256258D01*
Y255553D01*
X279994Y254902D01*
X280492Y254404D01*
X281144Y254134D01*
X281849D01*
X282500Y254404D01*
X282998Y254902D01*
X283268Y255553D01*
Y256258D01*
X283268Y256258D01*
X284471Y257461D01*
X289755D01*
X290089Y256961D01*
X289961Y256652D01*
Y255947D01*
X290230Y255296D01*
X290729Y254797D01*
X291380Y254528D01*
X292085D01*
X292736Y254797D01*
X293234Y255296D01*
X293234Y255296D01*
X339410D01*
X339794Y255372D01*
X340119Y255590D01*
X341026Y256496D01*
X341691D01*
X342342Y256766D01*
X342841Y257264D01*
X343110Y257915D01*
Y258620D01*
X342841Y259271D01*
X342342Y259770D01*
X341691Y260039D01*
X340986D01*
X340335Y259770D01*
X339837Y259271D01*
X339567Y258620D01*
Y257915D01*
X339579Y257887D01*
X338994Y257303D01*
X337350D01*
X337202Y257604D01*
X337175Y257803D01*
X339805Y260433D01*
X339805Y260433D01*
X340510D01*
X341161Y260703D01*
X341659Y261201D01*
X341929Y261852D01*
Y262557D01*
X341659Y263208D01*
X341161Y263707D01*
X340510Y263976D01*
X339805D01*
X339154Y263707D01*
X338655Y263208D01*
X338386Y262557D01*
Y261852D01*
X338386Y261852D01*
X336002Y259468D01*
X329537D01*
X329203Y259968D01*
X329331Y260278D01*
Y260982D01*
X329061Y261633D01*
X328563Y262132D01*
X327911Y262402D01*
X327207D01*
X326555Y262132D01*
X326057Y261633D01*
X326057Y261633D01*
X303504D01*
Y270347D01*
X303504Y270669D01*
X303930Y270847D01*
X326946D01*
X328910Y268883D01*
X329236Y268666D01*
X329620Y268589D01*
X330066D01*
X330191Y268288D01*
X330689Y267789D01*
X331341Y267520D01*
X332045D01*
X332697Y267789D01*
X333195Y268288D01*
X333465Y268939D01*
Y269644D01*
X333195Y270295D01*
X332697Y270793D01*
X332045Y271063D01*
X331341D01*
X330689Y270793D01*
X330492Y270596D01*
X330036D01*
X328869Y271763D01*
X329060Y272225D01*
X331569D01*
X331569Y272225D01*
X332067Y271726D01*
X332718Y271457D01*
X333423D01*
X334074Y271726D01*
X334573Y272225D01*
X334842Y272876D01*
Y273581D01*
X334573Y274232D01*
X334074Y274730D01*
X333423Y275000D01*
D02*
G37*
G36*
X298384Y246260D02*
X297679D01*
X297028Y245990D01*
X296530Y245492D01*
X296260Y244841D01*
Y244136D01*
X296530Y243485D01*
X296778Y243236D01*
X296571Y242736D01*
X269298D01*
X268914Y242659D01*
X268588Y242442D01*
X267680Y241534D01*
X267675Y241535D01*
X266970D01*
X266319Y241266D01*
X265821Y240767D01*
X265551Y240116D01*
Y239411D01*
X265821Y238760D01*
X266319Y238262D01*
X266970Y237992D01*
X267675D01*
X268326Y238262D01*
X268825Y238760D01*
X269094Y239411D01*
Y240110D01*
X269713Y240729D01*
X342986D01*
X342986Y240729D01*
X343485Y240230D01*
X344136Y239961D01*
X344841D01*
X345492Y240230D01*
X345990Y240729D01*
X346260Y241380D01*
Y242085D01*
X345990Y242736D01*
X345492Y243234D01*
X344841Y243504D01*
X344136D01*
X343485Y243234D01*
X342986Y242736D01*
X342986Y242736D01*
X299492D01*
X299285Y243236D01*
X299533Y243485D01*
X299803Y244136D01*
Y244841D01*
X299533Y245492D01*
X299035Y245990D01*
X298384Y246260D01*
D02*
G37*
G36*
X167802Y245768D02*
X166843D01*
X165917Y245519D01*
X165087Y245040D01*
X164409Y244362D01*
X163929Y243532D01*
X163681Y242605D01*
Y241647D01*
X163929Y240720D01*
X164409Y239890D01*
X165087Y239212D01*
X165917Y238732D01*
X166843Y238484D01*
X167802D01*
X168728Y238732D01*
X169559Y239212D01*
X170237Y239890D01*
X170716Y240720D01*
X170965Y241647D01*
Y242605D01*
X170716Y243532D01*
X170237Y244362D01*
X169559Y245040D01*
X168728Y245519D01*
X167802Y245768D01*
D02*
G37*
G36*
X157960D02*
X157001D01*
X156075Y245519D01*
X155244Y245040D01*
X154566Y244362D01*
X154087Y243532D01*
X153839Y242605D01*
Y241647D01*
X154087Y240720D01*
X154566Y239890D01*
X155244Y239212D01*
X156075Y238732D01*
X157001Y238484D01*
X157960D01*
X158886Y238732D01*
X159716Y239212D01*
X160394Y239890D01*
X160874Y240720D01*
X161122Y241647D01*
Y242605D01*
X160874Y243532D01*
X160394Y244362D01*
X159716Y245040D01*
X158886Y245519D01*
X157960Y245768D01*
D02*
G37*
G36*
X151279D02*
X143996D01*
Y238484D01*
X151279D01*
Y245768D01*
D02*
G37*
G36*
X297990Y239961D02*
X297285D01*
X296634Y239691D01*
X296136Y239193D01*
X295866Y238541D01*
Y237837D01*
X296136Y237185D01*
X296634Y236687D01*
X297285Y236417D01*
X297990D01*
X298641Y236687D01*
X299140Y237185D01*
X299410Y237837D01*
Y238541D01*
X299140Y239193D01*
X298641Y239691D01*
X297990Y239961D01*
D02*
G37*
G36*
X284211D02*
X283506D01*
X282855Y239691D01*
X282356Y239193D01*
X282087Y238541D01*
Y237837D01*
X282356Y237185D01*
X282855Y236687D01*
X283506Y236417D01*
X284211D01*
X284862Y236687D01*
X285360Y237185D01*
X285630Y237837D01*
Y238541D01*
X285360Y239193D01*
X284862Y239691D01*
X284211Y239961D01*
D02*
G37*
G36*
X285827Y234842D02*
X279213D01*
Y233681D01*
X278274D01*
X278274Y233681D01*
X277775Y234179D01*
X277124Y234449D01*
X276419D01*
X275768Y234179D01*
X275270Y233681D01*
X275000Y233030D01*
Y232325D01*
X275270Y231674D01*
X275768Y231175D01*
X276419Y230906D01*
X277124D01*
X277775Y231175D01*
X278274Y231674D01*
X278274Y231674D01*
X279213D01*
Y225394D01*
X285827D01*
Y234842D01*
D02*
G37*
G36*
X291297Y236811D02*
X290593D01*
X289941Y236541D01*
X289443Y236043D01*
X289173Y235392D01*
Y234687D01*
X289443Y234036D01*
X289941Y233537D01*
X290593Y233268D01*
X291297D01*
X291948Y233537D01*
X292447Y234036D01*
X292717Y234687D01*
Y235392D01*
X292447Y236043D01*
X291948Y236541D01*
X291297Y236811D01*
D02*
G37*
G36*
X251140Y236024D02*
X250435D01*
X249784Y235754D01*
X249286Y235256D01*
X249016Y234604D01*
Y233900D01*
X249286Y233248D01*
X249784Y232750D01*
X250435Y232480D01*
X251140D01*
X251791Y232750D01*
X252289Y233248D01*
X252559Y233900D01*
Y234604D01*
X252289Y235256D01*
X251791Y235754D01*
X251140Y236024D01*
D02*
G37*
G36*
X330274Y234055D02*
X329569D01*
X328918Y233785D01*
X328419Y233287D01*
X328150Y232636D01*
Y231931D01*
X328419Y231280D01*
X328918Y230782D01*
X329569Y230512D01*
X330274D01*
X330925Y230782D01*
X331423Y231280D01*
X331693Y231931D01*
Y232636D01*
X331423Y233287D01*
X330925Y233785D01*
X330274Y234055D01*
D02*
G37*
G36*
X293266Y231299D02*
X292561D01*
X291910Y231030D01*
X291411Y230531D01*
X291142Y229880D01*
Y229175D01*
X291411Y228524D01*
X291910Y228026D01*
X292561Y227756D01*
X293266D01*
X293917Y228026D01*
X294415Y228524D01*
X294685Y229175D01*
Y229880D01*
X294415Y230531D01*
X293917Y231030D01*
X293266Y231299D01*
D02*
G37*
G36*
X303465Y234842D02*
X296850D01*
Y225394D01*
X303465D01*
Y234842D01*
D02*
G37*
G36*
X285827Y219488D02*
X279213D01*
Y210039D01*
X285827D01*
Y219488D01*
D02*
G37*
G36*
X303504D02*
X296890D01*
Y210039D01*
X298165D01*
X298373Y209539D01*
X298104Y209271D01*
X297835Y208620D01*
Y207915D01*
X298104Y207264D01*
X298603Y206766D01*
X299254Y206496D01*
X299959D01*
X300610Y206766D01*
X301108Y207264D01*
X301378Y207915D01*
Y208620D01*
X301200Y209049D01*
Y210039D01*
X303504D01*
Y219488D01*
D02*
G37*
G36*
X215158Y209016D02*
X205709D01*
Y202402D01*
X215158D01*
Y204705D01*
X216920D01*
X217002Y204508D01*
X217500Y204010D01*
X218151Y203740D01*
X218856D01*
X219508Y204010D01*
X220006Y204508D01*
X220276Y205159D01*
Y205864D01*
X220006Y206515D01*
X219508Y207014D01*
X218856Y207283D01*
X218151D01*
X217500Y207014D01*
X217199Y206712D01*
X215158D01*
Y209016D01*
D02*
G37*
G36*
X132480D02*
X123031D01*
Y202402D01*
X132480D01*
Y204705D01*
X133850D01*
X133931Y204508D01*
X134430Y204010D01*
X135081Y203740D01*
X135785D01*
X136437Y204010D01*
X136935Y204508D01*
X137205Y205159D01*
Y205864D01*
X136935Y206515D01*
X136437Y207014D01*
X135785Y207283D01*
X135081D01*
X134430Y207014D01*
X134128Y206712D01*
X132480D01*
Y209016D01*
D02*
G37*
G36*
X250984Y208976D02*
X241535D01*
Y202362D01*
X250984D01*
Y208976D01*
D02*
G37*
G36*
X168307D02*
X158858D01*
Y202362D01*
X168307D01*
Y208976D01*
D02*
G37*
G36*
X155636Y200000D02*
X154600D01*
X153598Y199732D01*
X152701Y199213D01*
X151968Y198480D01*
X151449Y197583D01*
X151181Y196581D01*
Y195545D01*
X151449Y194543D01*
X151968Y193646D01*
X152701Y192913D01*
X153598Y192394D01*
X154600Y192126D01*
X155636D01*
X156638Y192394D01*
X157536Y192913D01*
X158268Y193646D01*
X158787Y194543D01*
X159055Y195545D01*
Y196581D01*
X158787Y197583D01*
X158268Y198480D01*
X157536Y199213D01*
X156638Y199732D01*
X155636Y200000D01*
D02*
G37*
G36*
X268069Y198622D02*
X267364D01*
X266713Y198352D01*
X266215Y197854D01*
X265945Y197203D01*
Y196498D01*
X266215Y195847D01*
X266713Y195349D01*
X267364Y195079D01*
X268069D01*
X268069Y195079D01*
X270157Y192991D01*
X270482Y192774D01*
X270866Y192697D01*
X345349D01*
X345349Y192697D01*
X345847Y192199D01*
X346498Y191929D01*
X347203D01*
X347854Y192199D01*
X348352Y192697D01*
X348622Y193348D01*
Y194053D01*
X348352Y194704D01*
X347854Y195203D01*
X347203Y195472D01*
X346498D01*
X345847Y195203D01*
X345349Y194704D01*
X345349Y194704D01*
X271282D01*
X269488Y196498D01*
X269488Y196498D01*
Y197203D01*
X269218Y197854D01*
X268720Y198352D01*
X268069Y198622D01*
D02*
G37*
G36*
X137946Y200197D02*
X136857D01*
X135806Y199915D01*
X134863Y199371D01*
X134094Y198601D01*
X133549Y197659D01*
X133268Y196607D01*
Y195519D01*
X133549Y194467D01*
X134094Y193525D01*
X134863Y192755D01*
X135806Y192211D01*
X136857Y191929D01*
X137946D01*
X138997Y192211D01*
X139940Y192755D01*
X140709Y193525D01*
X141254Y194467D01*
X141535Y195519D01*
Y196607D01*
X141254Y197659D01*
X140709Y198601D01*
X139940Y199371D01*
X138997Y199915D01*
X137946Y200197D01*
D02*
G37*
G36*
X177911Y233661D02*
X177207D01*
X176556Y233392D01*
X176057Y232893D01*
X175787Y232242D01*
Y231537D01*
X176057Y230886D01*
X176556Y230388D01*
X176556Y230388D01*
Y193329D01*
X172262Y189035D01*
X168307D01*
Y191339D01*
X158858D01*
Y184724D01*
X168307D01*
Y187028D01*
X172677D01*
X173061Y187104D01*
X173387Y187322D01*
X178269Y192204D01*
X178486Y192529D01*
X178563Y192913D01*
Y230388D01*
X178563Y230388D01*
X179061Y230886D01*
X179331Y231537D01*
Y232242D01*
X179061Y232893D01*
X178563Y233392D01*
X177911Y233661D01*
D02*
G37*
G36*
X247203Y196653D02*
X246498D01*
X245847Y196384D01*
X245349Y195885D01*
X245079Y195234D01*
Y194529D01*
X245349Y193878D01*
X245847Y193380D01*
X245847Y193380D01*
Y191339D01*
X241535D01*
Y184724D01*
X250984D01*
Y191339D01*
X247854D01*
Y193380D01*
X247854Y193380D01*
X248352Y193878D01*
X248622Y194529D01*
Y195234D01*
X248352Y195885D01*
X247854Y196384D01*
X247203Y196653D01*
D02*
G37*
G36*
X215158Y191339D02*
X205709D01*
Y184724D01*
X215158D01*
Y191339D01*
D02*
G37*
G36*
X132480D02*
X123031D01*
Y184724D01*
X132480D01*
Y191339D01*
D02*
G37*
G36*
X285827Y183661D02*
X279213D01*
Y180925D01*
X277486D01*
X277486Y180925D01*
X276988Y181423D01*
X276337Y181693D01*
X275632D01*
X274981Y181423D01*
X274482Y180925D01*
X274213Y180274D01*
Y179569D01*
X274482Y178918D01*
X274981Y178419D01*
X275632Y178150D01*
X276337D01*
X276988Y178419D01*
X277486Y178918D01*
X277486Y178918D01*
X279213D01*
Y174213D01*
X285827D01*
Y183661D01*
D02*
G37*
G36*
X303465D02*
X296850D01*
Y174213D01*
X303465D01*
Y183661D01*
D02*
G37*
G36*
X337163Y171325D02*
X336459D01*
X335807Y171055D01*
X335309Y170556D01*
X335201Y170295D01*
X241266D01*
X241266Y170295D01*
X240767Y170793D01*
X240116Y171063D01*
X239411D01*
X238760Y170793D01*
X238262Y170295D01*
X237992Y169644D01*
Y168939D01*
X238262Y168288D01*
X238760Y167789D01*
X239411Y167520D01*
X240116D01*
X240767Y167789D01*
X241266Y168288D01*
X241266Y168288D01*
X335571D01*
X335807Y168051D01*
X336459Y167781D01*
X337163D01*
X337815Y168051D01*
X338313Y168549D01*
X338583Y169200D01*
Y169905D01*
X338313Y170556D01*
X337815Y171055D01*
X337163Y171325D01*
D02*
G37*
G36*
X329134Y167539D02*
X249606D01*
X249222Y167463D01*
X248897Y167245D01*
X239329Y157677D01*
X239329Y157677D01*
X238624D01*
X237973Y157407D01*
X237474Y156909D01*
X237205Y156258D01*
Y155553D01*
X237474Y154902D01*
X237973Y154404D01*
X238624Y154134D01*
X239329D01*
X239980Y154404D01*
X240478Y154902D01*
X240748Y155553D01*
Y156258D01*
X240748Y156258D01*
X250022Y165532D01*
X328718D01*
X332874Y161376D01*
X332874Y161376D01*
Y160671D01*
X333144Y160020D01*
X333642Y159522D01*
X334293Y159252D01*
X334998D01*
X335649Y159522D01*
X336148Y160020D01*
X336417Y160671D01*
Y161376D01*
X336148Y162027D01*
X335649Y162525D01*
X334998Y162795D01*
X334293D01*
X334293Y162795D01*
X329843Y167245D01*
X329518Y167463D01*
X329134Y167539D01*
D02*
G37*
G36*
X292868Y159882D02*
X291935D01*
X291034Y159640D01*
X290226Y159174D01*
X289566Y158514D01*
X289100Y157706D01*
X288858Y156805D01*
Y155872D01*
X289100Y154971D01*
X289566Y154163D01*
X290226Y153503D01*
X291034Y153037D01*
X291935Y152795D01*
X292868D01*
X293769Y153037D01*
X294577Y153503D01*
X295237Y154163D01*
X295703Y154971D01*
X295945Y155872D01*
Y156805D01*
X295703Y157706D01*
X295237Y158514D01*
X294577Y159174D01*
X293769Y159640D01*
X292868Y159882D01*
D02*
G37*
G36*
X283026D02*
X282093D01*
X281191Y159640D01*
X280383Y159174D01*
X279724Y158514D01*
X279257Y157706D01*
X279016Y156805D01*
Y155872D01*
X279257Y154971D01*
X279724Y154163D01*
X280383Y153503D01*
X281191Y153037D01*
X282093Y152795D01*
X283026D01*
X283927Y153037D01*
X284735Y153503D01*
X285394Y154163D01*
X285861Y154971D01*
X286102Y155872D01*
Y156805D01*
X285861Y157706D01*
X285394Y158514D01*
X284735Y159174D01*
X283927Y159640D01*
X283026Y159882D01*
D02*
G37*
G36*
X214132Y149409D02*
X213427D01*
X212776Y149140D01*
X212278Y148641D01*
X212008Y147990D01*
Y147285D01*
X212278Y146634D01*
X212776Y146136D01*
X213427Y145866D01*
X214132D01*
X214783Y146136D01*
X215282Y146634D01*
X215551Y147285D01*
Y147990D01*
X215282Y148641D01*
X214783Y149140D01*
X214132Y149409D01*
D02*
G37*
G36*
X292868Y152008D02*
X291935D01*
X291034Y151766D01*
X290226Y151300D01*
X289566Y150640D01*
X289100Y149832D01*
X288858Y148931D01*
Y147998D01*
X289100Y147097D01*
X289566Y146289D01*
X290226Y145629D01*
X291034Y145163D01*
X291935Y144921D01*
X292868D01*
X293769Y145163D01*
X294577Y145629D01*
X295237Y146289D01*
X295703Y147097D01*
X295945Y147998D01*
Y148931D01*
X295703Y149832D01*
X295237Y150640D01*
X294577Y151300D01*
X293769Y151766D01*
X292868Y152008D01*
D02*
G37*
G36*
X311931Y145413D02*
X310431D01*
X308959Y145121D01*
X307573Y144546D01*
X306325Y143713D01*
X305264Y142651D01*
X304430Y141404D01*
X303856Y140017D01*
X303563Y138546D01*
Y137045D01*
X303856Y135573D01*
X304430Y134187D01*
X305264Y132939D01*
X306325Y131878D01*
X307573Y131044D01*
X308959Y130470D01*
X310431Y130177D01*
X311931D01*
X313403Y130470D01*
X314790Y131044D01*
X316037Y131878D01*
X317098Y132939D01*
X317932Y134187D01*
X318507Y135573D01*
X318799Y137045D01*
Y138546D01*
X318507Y140017D01*
X317932Y141404D01*
X317098Y142651D01*
X316037Y143713D01*
X314790Y144546D01*
X313403Y145121D01*
X311931Y145413D01*
D02*
G37*
G36*
X264530D02*
X263029D01*
X261557Y145121D01*
X260171Y144546D01*
X258923Y143713D01*
X257862Y142651D01*
X257029Y141404D01*
X256454Y140017D01*
X256161Y138546D01*
Y137045D01*
X256454Y135573D01*
X257029Y134187D01*
X257862Y132939D01*
X258923Y131878D01*
X260171Y131044D01*
X261557Y130470D01*
X263029Y130177D01*
X264530D01*
X266002Y130470D01*
X267388Y131044D01*
X268636Y131878D01*
X269697Y132939D01*
X270531Y134187D01*
X271105Y135573D01*
X271398Y137045D01*
Y138546D01*
X271105Y140017D01*
X270531Y141404D01*
X269697Y142651D01*
X268636Y143713D01*
X267388Y144546D01*
X266002Y145121D01*
X264530Y145413D01*
D02*
G37*
G36*
X244980Y118504D02*
X243839D01*
X242738Y118209D01*
X241750Y117639D01*
X240944Y116832D01*
X240374Y115845D01*
X240079Y114743D01*
Y113603D01*
X240374Y112502D01*
X240944Y111514D01*
X241750Y110708D01*
X242738Y110138D01*
X243839Y109843D01*
X244980D01*
X246081Y110138D01*
X247069Y110708D01*
X247875Y111514D01*
X248445Y112502D01*
X248740Y113603D01*
Y114743D01*
X248445Y115845D01*
X247875Y116832D01*
X247069Y117639D01*
X246081Y118209D01*
X244980Y118504D01*
D02*
G37*
G36*
X224980D02*
X223839D01*
X222738Y118209D01*
X221750Y117639D01*
X220944Y116832D01*
X220374Y115845D01*
X220079Y114743D01*
Y113603D01*
X220374Y112502D01*
X220944Y111514D01*
X221750Y110708D01*
X222738Y110138D01*
X223839Y109843D01*
X224980D01*
X226081Y110138D01*
X227069Y110708D01*
X227875Y111514D01*
X228445Y112502D01*
X228740Y113603D01*
Y114743D01*
X228445Y115845D01*
X227875Y116832D01*
X227069Y117639D01*
X226081Y118209D01*
X224980Y118504D01*
D02*
G37*
G36*
X181988D02*
X180847D01*
X179746Y118209D01*
X178758Y117639D01*
X177952Y116832D01*
X177382Y115845D01*
X177087Y114743D01*
Y113603D01*
X177382Y112502D01*
X177952Y111514D01*
X178758Y110708D01*
X179746Y110138D01*
X180847Y109843D01*
X181988D01*
X183089Y110138D01*
X184076Y110708D01*
X184883Y111514D01*
X185453Y112502D01*
X185748Y113603D01*
Y114743D01*
X185453Y115845D01*
X184883Y116832D01*
X184076Y117639D01*
X183089Y118209D01*
X181988Y118504D01*
D02*
G37*
G36*
X161987D02*
X160847D01*
X159746Y118209D01*
X158758Y117639D01*
X157952Y116832D01*
X157382Y115845D01*
X157087Y114743D01*
Y113603D01*
X157382Y112502D01*
X157952Y111514D01*
X158758Y110708D01*
X159746Y110138D01*
X160847Y109843D01*
X161987D01*
X163089Y110138D01*
X164076Y110708D01*
X164883Y111514D01*
X165453Y112502D01*
X165748Y113603D01*
Y114743D01*
X165453Y115845D01*
X164883Y116832D01*
X164076Y117639D01*
X163089Y118209D01*
X161987Y118504D01*
D02*
G37*
G36*
X141988D02*
X140847D01*
X139746Y118209D01*
X138758Y117639D01*
X137952Y116832D01*
X137382Y115845D01*
X137087Y114743D01*
Y113603D01*
X137382Y112502D01*
X137952Y111514D01*
X138758Y110708D01*
X139746Y110138D01*
X140847Y109843D01*
X141988D01*
X143089Y110138D01*
X144076Y110708D01*
X144883Y111514D01*
X145453Y112502D01*
X145748Y113603D01*
Y114743D01*
X145453Y115845D01*
X144883Y116832D01*
X144076Y117639D01*
X143089Y118209D01*
X141988Y118504D01*
D02*
G37*
%LPD*%
G36*
X148228Y411890D02*
Y411459D01*
X148498Y410808D01*
X148996Y410309D01*
X149648Y410039D01*
X150352D01*
X151004Y410309D01*
X151252Y410558D01*
X151752Y410351D01*
Y368110D01*
X151829Y367726D01*
X152046Y367401D01*
X151691Y367051D01*
X147066Y371675D01*
Y411096D01*
X147067Y411096D01*
X147565Y411595D01*
X147728Y411989D01*
X148228Y411890D01*
D02*
G37*
D10*
X218307Y205709D02*
X218504Y205512D01*
X210433Y205709D02*
X218307D01*
X135236D02*
X135433Y205512D01*
X127756Y205709D02*
X135236D01*
X299606Y208268D02*
X300197Y208858D01*
Y214764D01*
X294882Y264961D02*
X299213D01*
X300197Y265945D01*
X300000Y311417D02*
Y316929D01*
X300197Y317126D01*
X343701Y309055D02*
X345669Y311024D01*
X278024Y309055D02*
X343701D01*
X152756Y368110D02*
Y416535D01*
Y368110D02*
X162598Y358268D01*
X343078Y306693D02*
X344259Y305512D01*
X265748Y306693D02*
X343078D01*
X344259Y305512D02*
X344685D01*
X269298Y241732D02*
X344488D01*
X267323Y239764D02*
X267329D01*
X269298Y241732D01*
X341339Y258228D02*
Y258268D01*
X336417Y258465D02*
X340158Y262205D01*
X339410Y256299D02*
X341339Y258228D01*
X291732Y256299D02*
X339410D01*
X235827Y320079D02*
X236614Y319291D01*
X272112D01*
X249213Y313779D02*
X261674D01*
X262189Y313265D01*
X275076D01*
X280183Y311221D02*
X283465D01*
X272112Y319291D02*
X280183Y311221D01*
X270748Y309567D02*
X277512D01*
X278024Y309055D01*
X281535Y179921D02*
X282520Y178937D01*
X275984Y179921D02*
X281535D01*
X280197Y232677D02*
X282520Y230354D01*
Y230118D02*
Y230354D01*
X276772Y232677D02*
X280197D01*
X229921Y294488D02*
X249213Y313779D01*
X267717Y196850D02*
X270866Y193701D01*
X346850D01*
X329134Y166535D02*
X334646Y161024D01*
X249606Y166535D02*
X329134D01*
X238976Y155905D02*
X249606Y166535D01*
X336549Y169291D02*
X336811Y169553D01*
X239764Y169291D02*
X336549D01*
X282520Y281299D02*
Y282716D01*
X307759Y299213D02*
X316929D01*
X293586Y285039D02*
X307759Y299213D01*
X282520Y282716D02*
X284842Y285039D01*
X293586D01*
X246850Y188622D02*
Y194882D01*
X246260Y188031D02*
X246850Y188622D01*
X238189Y268110D02*
X244718D01*
X238189Y273228D02*
X333071D01*
X177559Y192913D02*
Y231890D01*
X172677Y188031D02*
X177559Y192913D01*
X163583Y188031D02*
X172677D01*
X327362Y271850D02*
X329620Y269593D01*
X331392D01*
X331693Y269291D01*
X227953Y298031D02*
X244488Y314567D01*
Y314961D01*
X170540Y251969D02*
X171721Y253150D01*
X170472Y251969D02*
X170540D01*
X171721Y253150D02*
X236221D01*
X186614Y299213D02*
X186614Y299213D01*
X167323Y299213D02*
X186614D01*
X160236Y437008D02*
X169685Y427559D01*
Y358268D02*
Y427559D01*
X161024Y363386D02*
Y422835D01*
Y363386D02*
X166142Y358268D01*
X146063Y371260D02*
X159055Y358268D01*
X138976Y437008D02*
X160236D01*
X146063Y371260D02*
Y412598D01*
X140157Y373622D02*
X155512Y358268D01*
X140157Y373622D02*
Y412598D01*
X236221Y253150D02*
X244094Y245276D01*
X162224Y259842D02*
X164587Y262205D01*
X253543Y264370D02*
X275852D01*
X264961Y262205D02*
X270866Y256299D01*
X164587Y262205D02*
X264961D01*
X275852Y264370D02*
X279592Y260630D01*
X168898Y255512D02*
X245669D01*
X173622Y257677D02*
X173819Y257480D01*
X167323Y257087D02*
X168898Y255512D01*
X245669D02*
X255118Y246063D01*
X173819Y257480D02*
X258661D01*
X260630Y255512D01*
X262205Y260236D02*
X264567Y257874D01*
X164567Y260236D02*
X262205D01*
X159843Y255512D02*
X164567Y260236D01*
X155905Y255512D02*
X159843D01*
X158661Y259842D02*
X162224D01*
X279592Y260630D02*
X327559D01*
X284055Y258465D02*
X336417D01*
X244718Y268110D02*
X248458Y271850D01*
X327362D01*
X281496Y255906D02*
X284055Y258465D01*
X299606Y426772D02*
X299705Y426673D01*
Y411713D02*
Y426673D01*
D11*
X156299Y451575D02*
X161024Y446850D01*
Y441339D02*
Y446850D01*
D15*
X118504Y517028D02*
D03*
Y511319D02*
D03*
D16*
X282520Y230118D02*
D03*
Y265945D02*
D03*
X300157Y230118D02*
D03*
X300197Y265945D02*
D03*
X282520Y281299D02*
D03*
Y317126D02*
D03*
X300157Y281299D02*
D03*
X300197Y317126D02*
D03*
X282520Y178937D02*
D03*
Y214764D02*
D03*
X300157Y178937D02*
D03*
X300197Y214764D02*
D03*
D17*
X246260Y188031D02*
D03*
X210433D02*
D03*
X246260Y205669D02*
D03*
X210433Y205709D02*
D03*
X163583Y188031D02*
D03*
X127756D02*
D03*
X163583Y205669D02*
D03*
X127756Y205709D02*
D03*
D20*
X137402Y196063D02*
D03*
D21*
X155118D02*
D03*
X245000Y507874D02*
D03*
X255000D02*
D03*
X265000D02*
D03*
X245000Y547244D02*
D03*
X255000D02*
D03*
X265000D02*
D03*
D23*
X179921Y271654D02*
D03*
X135039D02*
D03*
D24*
X167323Y242126D02*
D03*
X157480D02*
D03*
X167323Y299213D02*
D03*
X147638D02*
D03*
D25*
Y242126D02*
D03*
D33*
X251969Y377953D02*
X291339D01*
X248031D02*
X251969D01*
X291339D02*
X295276Y381890D01*
X122047Y456693D02*
Y460630D01*
Y393701D02*
Y456693D01*
Y389764D02*
Y393701D01*
D34*
X118553Y511368D02*
X121899D01*
X122834Y512303D01*
X123154D01*
X118504Y511319D02*
X118553Y511368D01*
D35*
X198425Y525197D02*
X245000D01*
X188976Y515748D02*
X198425Y525197D01*
X245000Y522638D02*
Y525197D01*
Y537244D01*
Y507874D02*
Y522638D01*
X235039Y531102D02*
Y534252D01*
X235000Y534291D02*
X235039Y534252D01*
X235000Y534291D02*
Y547244D01*
X265000Y506809D02*
Y547244D01*
X263398Y504409D02*
Y505206D01*
X221850Y502559D02*
X261547D01*
X263398Y505206D02*
X265000Y506809D01*
X261547Y502559D02*
X263398Y504409D01*
X245000Y537244D02*
X255000Y547244D01*
X208661Y515748D02*
X221850Y502559D01*
D36*
X292402Y156339D02*
D03*
X282559D02*
D03*
X292402Y148465D02*
D03*
X282559D02*
D03*
D37*
X204409Y114173D02*
D03*
X224410D02*
D03*
X244409D02*
D03*
X141417D02*
D03*
X161417D02*
D03*
X181417D02*
D03*
D38*
X263779Y137795D02*
D03*
X311181D02*
D03*
D39*
X114173Y555118D02*
D03*
X338583D02*
D03*
Y114173D02*
D03*
X114173D02*
D03*
D40*
X235000Y507874D02*
D03*
Y547244D02*
D03*
D41*
X141732Y535433D02*
D03*
Y515748D02*
D03*
X188976Y535433D02*
D03*
Y515748D02*
D03*
D42*
X161417Y535433D02*
D03*
Y515748D02*
D03*
X208661Y535433D02*
D03*
Y515748D02*
D03*
D43*
X262992Y299606D02*
D03*
X246850Y282283D02*
D03*
X221260Y316929D02*
D03*
X249213Y302756D02*
D03*
X174803Y136221D02*
D03*
X154724Y135827D02*
D03*
X137008Y147244D02*
D03*
X245276Y153150D02*
D03*
X228740Y176378D02*
D03*
X227953Y157874D02*
D03*
X222441Y151575D02*
D03*
X197244Y174803D02*
D03*
X205906Y176378D02*
D03*
X337008Y292913D02*
D03*
X291732Y335039D02*
D03*
X309842Y250394D02*
D03*
X310236Y246063D02*
D03*
X310630Y237795D02*
D03*
X275354Y279528D02*
D03*
X308661Y317717D02*
D03*
X307087Y314173D02*
D03*
X117323Y448032D02*
D03*
X112992Y407480D02*
D03*
X137008Y405118D02*
D03*
X142520Y403937D02*
D03*
X149606Y403543D02*
D03*
X156693Y396063D02*
D03*
X164961Y396457D02*
D03*
X174409D02*
D03*
X162992Y455118D02*
D03*
X168110D02*
D03*
X173228D02*
D03*
X233858Y468504D02*
D03*
X231496Y480709D02*
D03*
X221260Y466535D02*
D03*
X224410Y473622D02*
D03*
X283465Y499213D02*
D03*
X316535Y498032D02*
D03*
X288976Y507087D02*
D03*
X283858Y506693D02*
D03*
X286614Y419685D02*
D03*
X288189Y384646D02*
D03*
X278346Y396457D02*
D03*
X288583Y402362D02*
D03*
X275197Y420866D02*
D03*
X269685Y424409D02*
D03*
X291732Y449213D02*
D03*
Y426772D02*
D03*
X313386Y436221D02*
D03*
X308268D02*
D03*
X305512Y418110D02*
D03*
Y422047D02*
D03*
X316929Y232283D02*
D03*
X201969Y151181D02*
D03*
X206299Y155118D02*
D03*
X208268Y157874D02*
D03*
X213779Y295669D02*
D03*
X144095Y418504D02*
D03*
X140551D02*
D03*
X148031Y422441D02*
D03*
Y425984D02*
D03*
X144095Y430315D02*
D03*
X140551D02*
D03*
X136221Y422441D02*
D03*
Y426378D02*
D03*
X148031Y430315D02*
D03*
X136221D02*
D03*
Y418504D02*
D03*
X148031D02*
D03*
X161417Y427165D02*
D03*
X145669Y427953D02*
D03*
Y420866D02*
D03*
X138583D02*
D03*
Y427953D02*
D03*
X142126D02*
D03*
Y420866D02*
D03*
X145669Y424409D02*
D03*
X138583D02*
D03*
X142126D02*
D03*
X127559Y444882D02*
D03*
Y441339D02*
D03*
Y403937D02*
D03*
Y407480D02*
D03*
X329921Y232283D02*
D03*
X213779Y147638D02*
D03*
X218504Y205512D02*
D03*
X135433D02*
D03*
X250787Y234252D02*
D03*
X283858Y238189D02*
D03*
X290945Y235039D02*
D03*
X297638Y238189D02*
D03*
X298031Y244488D02*
D03*
X292913Y229528D02*
D03*
X299606Y208268D02*
D03*
X294882Y264961D02*
D03*
X300000Y311417D02*
D03*
X329528Y418110D02*
D03*
Y420866D02*
D03*
Y423622D02*
D03*
Y426378D02*
D03*
Y429134D02*
D03*
X211811Y455905D02*
D03*
X152756Y416535D02*
D03*
X150000Y411811D02*
D03*
X156299Y451575D02*
D03*
X161024Y441339D02*
D03*
X150394Y433858D02*
D03*
X124803Y521654D02*
D03*
X248031Y377953D02*
D03*
X291339D02*
D03*
X295276Y381890D02*
D03*
X251969Y377953D02*
D03*
X122047Y456693D02*
D03*
Y460630D02*
D03*
Y393701D02*
D03*
Y389764D02*
D03*
X344685Y305512D02*
D03*
X344488Y241732D02*
D03*
X340158Y262205D02*
D03*
X341339Y258268D02*
D03*
X345669Y311024D02*
D03*
X235827Y320079D02*
D03*
X275076Y313265D02*
D03*
X283465Y311221D02*
D03*
X275984Y179921D02*
D03*
X276772Y232677D02*
D03*
X267323Y239764D02*
D03*
X270748Y309567D02*
D03*
X265748Y306693D02*
D03*
X267717Y196850D02*
D03*
X346850Y193701D02*
D03*
X238976Y155905D02*
D03*
X334646Y161024D02*
D03*
X336811Y169553D02*
D03*
X316929Y299213D02*
D03*
X239764Y169291D02*
D03*
X246850Y194882D02*
D03*
X238189Y273228D02*
D03*
Y268110D02*
D03*
X177559Y231890D02*
D03*
X331693Y269291D02*
D03*
X333071Y273228D02*
D03*
X229921Y294488D02*
D03*
X227953Y298031D02*
D03*
X244488Y314961D02*
D03*
X170472Y251969D02*
D03*
X186614Y299213D02*
D03*
X161024Y422835D02*
D03*
X159055Y358268D02*
D03*
X162598D02*
D03*
X169685D02*
D03*
X166142D02*
D03*
X155512D02*
D03*
X253543Y264370D02*
D03*
X173622Y257677D02*
D03*
X264567Y257874D02*
D03*
X260630Y255512D02*
D03*
X155905D02*
D03*
X270866Y256299D02*
D03*
X158661Y259842D02*
D03*
X255118Y246063D02*
D03*
X167323Y257087D02*
D03*
X244094Y245276D02*
D03*
X327559Y260630D02*
D03*
X291732Y256299D02*
D03*
X281496Y255906D02*
D03*
X140157Y412598D02*
D03*
X146063D02*
D03*
X138976Y437008D02*
D03*
X123154Y512303D02*
D03*
X235039Y531102D02*
D03*
Y534252D02*
D03*
X299606Y426772D02*
D03*
X299705Y411713D02*
D03*
D44*
X214567Y171949D02*
D03*
Y167618D02*
D03*
Y163287D02*
D03*
X218898Y171949D02*
D03*
Y167618D02*
D03*
Y163287D02*
D03*
X223228Y171949D02*
D03*
Y167618D02*
D03*
Y163287D02*
D03*
M02*
