G04*
G04 #@! TF.GenerationSoftware,Altium Limited,Altium Designer,22.8.2 (66)*
G04*
G04 Layer_Color=32896*
%FSLAX25Y25*%
%MOIN*%
G70*
G04*
G04 #@! TF.SameCoordinates,7BB61612-A306-4DCC-8110-E08496558577*
G04*
G04*
G04 #@! TF.FilePolarity,Positive*
G04*
G01*
G75*
%ADD10C,0.00787*%
%ADD12C,0.00984*%
%ADD96C,0.02362*%
%ADD97C,0.00591*%
%ADD98C,0.00394*%
G36*
X224410Y187563D02*
X174803D01*
Y204563D01*
X224410D01*
Y187563D01*
D02*
G37*
%LPC*%
G36*
X220472Y200528D02*
X218160D01*
X220472D01*
D01*
D02*
G37*
G36*
X217504D02*
X214462D01*
X217447D01*
X217373Y200520D01*
X217274D01*
X217160Y200503D01*
X217028Y200487D01*
X216881Y200462D01*
X216717Y200430D01*
X216553Y200389D01*
X216372Y200339D01*
X216192Y200274D01*
X216003Y200200D01*
X215823Y200118D01*
X215643Y200011D01*
X215479Y199897D01*
X215315Y199757D01*
X215306Y199749D01*
X215282Y199724D01*
X215241Y199675D01*
X215183Y199618D01*
X215118Y199544D01*
X215052Y199454D01*
X214970Y199339D01*
X214896Y199224D01*
X214814Y199085D01*
X214741Y198929D01*
X214675Y198765D01*
X214609Y198584D01*
X214552Y198396D01*
X214511Y198191D01*
X214486Y197978D01*
X214478Y197748D01*
Y197740D01*
Y197715D01*
Y197674D01*
X214486Y197617D01*
Y197551D01*
X214495Y197469D01*
X214511Y197379D01*
X214519Y197281D01*
X214568Y197067D01*
X214634Y196821D01*
X214716Y196575D01*
X214773Y196444D01*
X214839Y196321D01*
Y196313D01*
X214855Y196289D01*
X214880Y196256D01*
X214913Y196206D01*
X214954Y196149D01*
X215011Y196075D01*
X215077Y195993D01*
X215159Y195895D01*
X215249Y195797D01*
X215356Y195682D01*
X215479Y195567D01*
X215610Y195436D01*
X215757Y195305D01*
X215930Y195173D01*
X216110Y195034D01*
X216315Y194886D01*
X216323Y194878D01*
X216356Y194853D01*
X216405Y194821D01*
X216471Y194780D01*
X216545Y194722D01*
X216635Y194657D01*
X216733Y194591D01*
X216840Y194509D01*
X217069Y194353D01*
X217291Y194181D01*
X217512Y194025D01*
X217602Y193951D01*
X217693Y193886D01*
X217701D01*
X217709Y193869D01*
X217766Y193828D01*
X217840Y193763D01*
X217930Y193681D01*
X218021Y193591D01*
X218119Y193484D01*
X218201Y193377D01*
X218267Y193271D01*
X214462D01*
Y193279D01*
Y191737D01*
X220472D01*
Y191787D01*
X220464Y191852D01*
Y191934D01*
X220456Y192033D01*
X220440Y192148D01*
X220423Y192271D01*
X220399Y192418D01*
X220374Y192566D01*
X220341Y192721D01*
X220300Y192885D01*
X220251Y193050D01*
X220194Y193213D01*
X220128Y193369D01*
X220054Y193533D01*
X219964Y193681D01*
X219956Y193689D01*
X219939Y193714D01*
X219907Y193763D01*
X219866Y193820D01*
X219816Y193894D01*
X219743Y193976D01*
X219661Y194074D01*
X219562Y194189D01*
X219456Y194304D01*
X219333Y194435D01*
X219193Y194575D01*
X219037Y194722D01*
X218865Y194870D01*
X218677Y195026D01*
X218480Y195190D01*
X218258Y195354D01*
X218250D01*
X218242Y195362D01*
X218193Y195403D01*
X218127Y195452D01*
X218029Y195526D01*
X217914Y195608D01*
X217791Y195706D01*
X217652Y195813D01*
X217504Y195928D01*
X217209Y196166D01*
X217061Y196289D01*
X216922Y196412D01*
X216799Y196526D01*
X216684Y196633D01*
X216594Y196731D01*
X216520Y196821D01*
Y196830D01*
X216504Y196838D01*
X216487Y196862D01*
X216471Y196895D01*
X216446Y196936D01*
X216422Y196985D01*
X216364Y197108D01*
X216307Y197248D01*
X216258Y197420D01*
X216225Y197600D01*
X216208Y197797D01*
Y197806D01*
Y197822D01*
Y197846D01*
X216217Y197888D01*
Y197937D01*
X216225Y197986D01*
X216249Y198117D01*
X216290Y198257D01*
X216348Y198404D01*
X216430Y198560D01*
X216545Y198699D01*
Y198707D01*
X216561Y198716D01*
X216602Y198757D01*
X216684Y198814D01*
X216782Y198880D01*
X216914Y198945D01*
X217069Y199003D01*
X217250Y199044D01*
X217348Y199060D01*
X217512D01*
X217553Y199052D01*
X217602D01*
X217660Y199044D01*
X217783Y199019D01*
X217930Y198970D01*
X218086Y198904D01*
X218234Y198822D01*
X218299Y198765D01*
X218365Y198699D01*
X218381Y198683D01*
X218398Y198658D01*
X218414Y198634D01*
X218439Y198593D01*
X218472Y198535D01*
X218496Y198478D01*
X218529Y198404D01*
X218562Y198322D01*
X218586Y198232D01*
X218619Y198125D01*
X218644Y198011D01*
X218660Y197879D01*
X218677Y197740D01*
X218693Y197584D01*
Y197420D01*
X220374D01*
Y197428D01*
Y197436D01*
Y197461D01*
Y197486D01*
X220366Y197568D01*
X220358Y197674D01*
X220349Y197806D01*
X220333Y197953D01*
X220308Y198117D01*
X220276Y198298D01*
X220235Y198478D01*
X220185Y198675D01*
X220120Y198872D01*
X220046Y199060D01*
X219956Y199249D01*
X219849Y199429D01*
X219734Y199593D01*
X219595Y199749D01*
X219587Y199757D01*
X219562Y199782D01*
X219513Y199823D01*
X219447Y199872D01*
X219374Y199929D01*
X219275Y199995D01*
X219169Y200069D01*
X219037Y200143D01*
X218898Y200208D01*
X218742Y200282D01*
X218570Y200347D01*
X218381Y200405D01*
X218185Y200454D01*
X217971Y200495D01*
X217742Y200520D01*
X217504Y200528D01*
D02*
G37*
G36*
X191707Y200528D02*
X191592D01*
X191510Y200520D01*
X191403Y200512D01*
X191289Y200495D01*
X191157Y200470D01*
X191010Y200446D01*
X190862Y200413D01*
X190698Y200372D01*
X190542Y200315D01*
X190378Y200257D01*
X190214Y200184D01*
X190050Y200093D01*
X189895Y199995D01*
X189747Y199880D01*
X189739Y199872D01*
X189714Y199847D01*
X189673Y199814D01*
X189624Y199757D01*
X189567Y199691D01*
X189501Y199618D01*
X189435Y199519D01*
X189362Y199413D01*
X189288Y199290D01*
X189222Y199159D01*
X189157Y199011D01*
X189099Y198847D01*
X189050Y198675D01*
X189009Y198486D01*
X188984Y198289D01*
X188976Y198076D01*
Y198060D01*
Y198027D01*
X188984Y197969D01*
X188993Y197896D01*
X189009Y197797D01*
X189034Y197691D01*
X189066Y197576D01*
X189107Y197445D01*
X189165Y197313D01*
X189230Y197174D01*
X189321Y197035D01*
X189419Y196895D01*
X189542Y196764D01*
X189681Y196633D01*
X189837Y196510D01*
X190026Y196403D01*
Y196379D01*
X190018D01*
X190001Y196370D01*
X189977Y196362D01*
X189944Y196346D01*
X189895Y196329D01*
X189837Y196305D01*
X189763Y196272D01*
X189690Y196231D01*
X189681Y196223D01*
X189649Y196215D01*
X189608Y196182D01*
X189550Y196149D01*
X189485Y196100D01*
X189411Y196043D01*
X189329Y195969D01*
X189247Y195887D01*
X189239Y195879D01*
X189206Y195846D01*
X189165Y195788D01*
X189116Y195723D01*
X189058Y195633D01*
X188993Y195526D01*
X188927Y195403D01*
X188861Y195272D01*
Y195264D01*
X188853Y195255D01*
X188845Y195231D01*
X188837Y195206D01*
X188812Y195124D01*
X188779Y195009D01*
X188747Y194878D01*
X188722Y194714D01*
X188706Y194534D01*
X188697Y194329D01*
Y200528D01*
Y191500D01*
Y194271D01*
X188706Y194214D01*
X188714Y194124D01*
X188722Y194017D01*
X188738Y193894D01*
X188771Y193763D01*
X188804Y193615D01*
X188845Y193459D01*
X188902Y193296D01*
X188976Y193123D01*
X189058Y192951D01*
X189157Y192779D01*
X189271Y192615D01*
X189403Y192451D01*
X189550Y192295D01*
X189558Y192287D01*
X189591Y192262D01*
X189640Y192221D01*
X189706Y192172D01*
X189788Y192115D01*
X189886Y192041D01*
X190001Y191975D01*
X190132Y191902D01*
X190288Y191820D01*
X190444Y191754D01*
X190624Y191688D01*
X190813Y191623D01*
X191018Y191574D01*
X191239Y191533D01*
X191469Y191508D01*
X191707Y191500D01*
X188697D01*
X194765D01*
X191772D01*
X191846Y191508D01*
X191936D01*
X192059Y191524D01*
X192199Y191541D01*
X192346Y191557D01*
X192519Y191590D01*
X192691Y191631D01*
X192871Y191672D01*
X193060Y191729D01*
X193248Y191803D01*
X193429Y191885D01*
X193609Y191975D01*
X193781Y192090D01*
X193945Y192213D01*
X193954Y192221D01*
X193978Y192246D01*
X194019Y192287D01*
X194077Y192352D01*
X194134Y192426D01*
X194208Y192517D01*
X194282Y192631D01*
X194355Y192762D01*
X194429Y192910D01*
X194503Y193074D01*
X194577Y193254D01*
X194634Y193451D01*
X194692Y193673D01*
X194733Y193902D01*
X194757Y194157D01*
X194765Y194427D01*
X193076D01*
Y194419D01*
Y194394D01*
Y194353D01*
X193068Y194304D01*
Y194238D01*
X193060Y194173D01*
X193035Y194001D01*
X192994Y193820D01*
X192937Y193632D01*
X192855Y193443D01*
X192748Y193279D01*
X192740Y193271D01*
X192732Y193263D01*
X192683Y193213D01*
X192609Y193156D01*
X192502Y193082D01*
X192363Y193008D01*
X192199Y192943D01*
X192010Y192894D01*
X191904Y192885D01*
X191789Y192877D01*
X191731D01*
X191690Y192885D01*
X191641D01*
X191584Y192902D01*
X191453Y192927D01*
X191305Y192976D01*
X191141Y193041D01*
X190993Y193140D01*
X190920Y193197D01*
X190846Y193263D01*
X190838Y193271D01*
X190829Y193279D01*
X190813Y193304D01*
X190788Y193336D01*
X190764Y193377D01*
X190731Y193427D01*
X190698Y193476D01*
X190665Y193542D01*
X190600Y193697D01*
X190542Y193878D01*
X190501Y194091D01*
X190485Y194206D01*
Y194329D01*
Y194337D01*
Y194361D01*
Y194394D01*
X190493Y194435D01*
X190501Y194493D01*
X190510Y194558D01*
X190542Y194698D01*
X190592Y194862D01*
X190674Y195018D01*
X190723Y195091D01*
X190788Y195165D01*
X190854Y195231D01*
X190936Y195288D01*
X190944D01*
X190952Y195305D01*
X190985Y195313D01*
X191018Y195337D01*
X191067Y195354D01*
X191125Y195378D01*
X191190Y195411D01*
X191264Y195436D01*
X191354Y195460D01*
X191453Y195493D01*
X191567Y195518D01*
X191682Y195534D01*
X191813Y195559D01*
X191953Y195567D01*
X192100Y195583D01*
X192461D01*
Y196821D01*
X192109D01*
X192059Y196830D01*
X191994D01*
X191912Y196838D01*
X191740Y196854D01*
X191551Y196887D01*
X191362Y196936D01*
X191182Y197010D01*
X191108Y197051D01*
X191043Y197100D01*
X191026Y197117D01*
X190993Y197158D01*
X190936Y197223D01*
X190879Y197322D01*
X190821Y197445D01*
X190764Y197600D01*
X190731Y197789D01*
X190715Y197896D01*
Y198011D01*
Y198019D01*
Y198035D01*
Y198060D01*
X190723Y198092D01*
X190731Y198175D01*
X190747Y198289D01*
X190788Y198412D01*
X190838Y198552D01*
X190903Y198683D01*
X191002Y198814D01*
X191018Y198830D01*
X191051Y198863D01*
X191116Y198921D01*
X191207Y198978D01*
X191321Y199036D01*
X191461Y199093D01*
X191625Y199126D01*
X191813Y199142D01*
X191871D01*
X191912Y199134D01*
X191961D01*
X192010Y199126D01*
X192141Y199101D01*
X192289Y199060D01*
X192437Y198995D01*
X192576Y198904D01*
X192642Y198855D01*
X192707Y198790D01*
X192724Y198773D01*
X192732Y198749D01*
X192756Y198724D01*
X192781Y198683D01*
X192806Y198642D01*
X192830Y198584D01*
X192855Y198519D01*
X192888Y198453D01*
X192912Y198371D01*
X192937Y198281D01*
X192961Y198183D01*
X192986Y198076D01*
X192994Y197961D01*
X193011Y197830D01*
Y197699D01*
X194618D01*
Y197715D01*
Y197756D01*
X194610Y197822D01*
Y197912D01*
X194593Y198027D01*
X194577Y198158D01*
X194552Y198298D01*
X194519Y198453D01*
X194487Y198609D01*
X194437Y198781D01*
X194372Y198953D01*
X194298Y199126D01*
X194216Y199298D01*
X194109Y199462D01*
X193995Y199618D01*
X193863Y199765D01*
X193855Y199774D01*
X193831Y199798D01*
X193781Y199839D01*
X193724Y199888D01*
X193642Y199946D01*
X193552Y200003D01*
X193437Y200077D01*
X193314Y200151D01*
X193166Y200216D01*
X193002Y200290D01*
X192830Y200347D01*
X192633Y200413D01*
X192428Y200454D01*
X192199Y200495D01*
X191961Y200520D01*
X191707Y200528D01*
D02*
G37*
G36*
X206483Y200626D02*
X204491D01*
X202588Y193886D01*
X202564D01*
X200628Y200626D01*
X202752D01*
X198701D01*
X201719Y191737D01*
X198701D01*
X203482D01*
X206483Y200626D01*
D02*
G37*
G36*
X210091Y200528D02*
X208123D01*
Y195034D01*
X207147D01*
Y193681D01*
X208123D01*
Y191737D01*
X207147D01*
X213330D01*
X209853D01*
Y193681D01*
X213330D01*
Y195173D01*
X210091Y200528D01*
D02*
G37*
G36*
X184761Y200626D02*
X182621D01*
X179489Y191737D01*
X187935D01*
X184761Y200626D01*
D02*
G37*
%LPD*%
G36*
X212051Y195034D02*
X209853D01*
Y195042D01*
Y195050D01*
Y195075D01*
Y195108D01*
Y195149D01*
Y195198D01*
Y195255D01*
Y195321D01*
Y195468D01*
Y195649D01*
Y195862D01*
X209845Y196100D01*
Y196362D01*
Y196658D01*
Y196961D01*
X209837Y197297D01*
Y197650D01*
X209829Y198019D01*
Y198404D01*
X209821Y198806D01*
X209845D01*
X212051Y195034D01*
D02*
G37*
G36*
X184860Y195099D02*
X182597D01*
X183704Y198617D01*
X183728D01*
X184860Y195099D01*
D02*
G37*
G36*
X185975Y191737D02*
X181506D01*
X182072Y193566D01*
X185360D01*
X185975Y191737D01*
D02*
G37*
D10*
X335433Y435236D02*
X336424Y435323D01*
X337386Y435580D01*
X338287Y436001D01*
X339103Y436572D01*
X339806Y437275D01*
X340377Y438091D01*
X340797Y438992D01*
X341055Y439954D01*
X341142Y440945D01*
X305748Y246063D02*
Y245669D01*
Y246063D01*
Y245669D01*
X256378Y127482D02*
X255787Y127823D01*
Y123752D02*
X256378Y124093D01*
X195787Y123752D02*
X196378Y124093D01*
X195000Y124206D02*
X194409Y123865D01*
Y127709D02*
X195000Y127368D01*
X196378Y127482D02*
X195787Y127823D01*
X193032Y109575D02*
X192441Y109234D01*
Y105845D02*
X193032Y105504D01*
X254410Y105617D02*
X253819Y105958D01*
X252441Y105845D02*
X253031Y105504D01*
Y109575D02*
X252441Y109234D01*
X253819Y109121D02*
X254410Y109461D01*
X252480Y114173D02*
X252419Y115165D01*
X252237Y116142D01*
X251935Y117089D01*
X251520Y117991D01*
X250997Y118836D01*
X250374Y119611D01*
X249660Y120302D01*
X248868Y120901D01*
X248007Y121398D01*
X247092Y121785D01*
X246136Y122057D01*
X245154Y122210D01*
X244161Y122240D01*
X243172Y122149D01*
X242201Y121936D01*
X241264Y121606D01*
X240374Y121163D01*
X239546Y120614D01*
X238791Y119967D01*
X238122Y119233D01*
X237547Y118422D01*
X237077Y117546D01*
X236718Y116620D01*
X236476Y115656D01*
X236354Y114670D01*
Y113676D01*
X236476Y112690D01*
X236718Y111726D01*
X237077Y110800D01*
X237547Y109924D01*
X238122Y109113D01*
X238791Y108379D01*
X239546Y107732D01*
X240374Y107184D01*
X241264Y106741D01*
X242201Y106411D01*
X243172Y106198D01*
X244161Y106106D01*
X245154Y106137D01*
X246136Y106289D01*
X247092Y106561D01*
X248007Y106948D01*
X248868Y107445D01*
X249660Y108044D01*
X250374Y108736D01*
X250997Y109510D01*
X251520Y110355D01*
X251935Y111258D01*
X252237Y112205D01*
X252419Y113181D01*
X252480Y114173D01*
X232480D02*
X232419Y115165D01*
X232237Y116142D01*
X231935Y117089D01*
X231520Y117991D01*
X230997Y118836D01*
X230374Y119611D01*
X229661Y120302D01*
X228868Y120901D01*
X228007Y121398D01*
X227092Y121785D01*
X226136Y122057D01*
X225154Y122210D01*
X224161Y122240D01*
X223171Y122149D01*
X222201Y121936D01*
X221264Y121606D01*
X220374Y121163D01*
X219546Y120614D01*
X218791Y119967D01*
X218122Y119233D01*
X217547Y118422D01*
X217077Y117546D01*
X216718Y116620D01*
X216476Y115656D01*
X216354Y114670D01*
Y113676D01*
X216476Y112690D01*
X216718Y111726D01*
X217077Y110800D01*
X217547Y109924D01*
X218122Y109113D01*
X218791Y108379D01*
X219546Y107732D01*
X220374Y107184D01*
X221264Y106741D01*
X222201Y106411D01*
X223171Y106198D01*
X224161Y106106D01*
X225154Y106137D01*
X226136Y106289D01*
X227092Y106561D01*
X228007Y106948D01*
X228868Y107445D01*
X229661Y108044D01*
X230374Y108736D01*
X230997Y109510D01*
X231520Y110355D01*
X231935Y111258D01*
X232237Y112205D01*
X232419Y113181D01*
X232480Y114173D01*
X212480D02*
X212419Y115165D01*
X212236Y116142D01*
X211935Y117089D01*
X211520Y117991D01*
X210997Y118836D01*
X210374Y119611D01*
X209661Y120302D01*
X208868Y120901D01*
X208007Y121398D01*
X207092Y121785D01*
X206136Y122057D01*
X205154Y122210D01*
X204161Y122240D01*
X203171Y122149D01*
X202201Y121936D01*
X201263Y121606D01*
X200374Y121163D01*
X199546Y120614D01*
X198791Y119967D01*
X198122Y119233D01*
X197547Y118422D01*
X197077Y117546D01*
X196718Y116620D01*
X196476Y115656D01*
X196354Y114670D01*
Y113676D01*
X196476Y112690D01*
X196718Y111726D01*
X197077Y110800D01*
X197547Y109924D01*
X198122Y109113D01*
X198791Y108379D01*
X199546Y107732D01*
X200374Y107184D01*
X201263Y106741D01*
X202201Y106411D01*
X203171Y106198D01*
X204161Y106106D01*
X205154Y106137D01*
X206136Y106289D01*
X207092Y106561D01*
X208007Y106948D01*
X208868Y107445D01*
X209661Y108044D01*
X210374Y108736D01*
X210997Y109510D01*
X211520Y110355D01*
X211935Y111258D01*
X212236Y112205D01*
X212419Y113181D01*
X212480Y114173D01*
X193386Y127482D02*
X192795Y127823D01*
Y123752D02*
X193386Y124093D01*
X132795Y123752D02*
X133386Y124093D01*
X132008Y124206D02*
X131417Y123865D01*
Y127709D02*
X132008Y127368D01*
X133386Y127482D02*
X132795Y127823D01*
X130039Y109575D02*
X129449Y109234D01*
Y105845D02*
X130039Y105504D01*
X191417Y105617D02*
X190827Y105958D01*
X189449Y105845D02*
X190039Y105504D01*
Y109575D02*
X189449Y109234D01*
X190827Y109121D02*
X191417Y109461D01*
X189488Y114173D02*
X189427Y115165D01*
X189244Y116142D01*
X188943Y117089D01*
X188528Y117991D01*
X188005Y118836D01*
X187382Y119611D01*
X186668Y120302D01*
X185875Y120901D01*
X185015Y121398D01*
X184100Y121785D01*
X183144Y122057D01*
X182162Y122210D01*
X181169Y122240D01*
X180179Y122149D01*
X179209Y121936D01*
X178271Y121606D01*
X177382Y121163D01*
X176553Y120614D01*
X175799Y119967D01*
X175129Y119233D01*
X174555Y118422D01*
X174085Y117546D01*
X173726Y116620D01*
X173484Y115656D01*
X173362Y114670D01*
Y113676D01*
X173484Y112690D01*
X173726Y111726D01*
X174085Y110800D01*
X174555Y109924D01*
X175129Y109113D01*
X175799Y108379D01*
X176553Y107732D01*
X177382Y107184D01*
X178271Y106741D01*
X179209Y106411D01*
X180179Y106198D01*
X181169Y106106D01*
X182162Y106137D01*
X183144Y106289D01*
X184100Y106561D01*
X185015Y106948D01*
X185875Y107445D01*
X186668Y108044D01*
X187382Y108736D01*
X188005Y109510D01*
X188528Y110355D01*
X188943Y111258D01*
X189244Y112205D01*
X189427Y113181D01*
X189488Y114173D01*
X169488D02*
X169427Y115165D01*
X169244Y116142D01*
X168943Y117089D01*
X168528Y117991D01*
X168005Y118836D01*
X167382Y119611D01*
X166668Y120302D01*
X165875Y120901D01*
X165015Y121398D01*
X164100Y121785D01*
X163144Y122057D01*
X162162Y122210D01*
X161169Y122240D01*
X160179Y122149D01*
X159209Y121936D01*
X158271Y121606D01*
X157382Y121163D01*
X156553Y120614D01*
X155799Y119967D01*
X155130Y119233D01*
X154555Y118422D01*
X154085Y117546D01*
X153726Y116620D01*
X153484Y115656D01*
X153362Y114670D01*
Y113676D01*
X153484Y112690D01*
X153726Y111726D01*
X154085Y110800D01*
X154555Y109924D01*
X155130Y109113D01*
X155799Y108379D01*
X156553Y107732D01*
X157382Y107184D01*
X158271Y106741D01*
X159209Y106411D01*
X160179Y106198D01*
X161169Y106106D01*
X162162Y106137D01*
X163144Y106289D01*
X164100Y106561D01*
X165015Y106948D01*
X165875Y107445D01*
X166668Y108044D01*
X167382Y108736D01*
X168005Y109510D01*
X168528Y110355D01*
X168943Y111258D01*
X169244Y112205D01*
X169427Y113181D01*
X169488Y114173D01*
X149488D02*
X149427Y115165D01*
X149244Y116142D01*
X148943Y117089D01*
X148528Y117991D01*
X148005Y118836D01*
X147382Y119611D01*
X146668Y120302D01*
X145875Y120901D01*
X145015Y121398D01*
X144100Y121785D01*
X143144Y122057D01*
X142162Y122210D01*
X141169Y122240D01*
X140179Y122149D01*
X139209Y121936D01*
X138271Y121606D01*
X137382Y121163D01*
X136554Y120614D01*
X135799Y119967D01*
X135129Y119233D01*
X134555Y118422D01*
X134085Y117546D01*
X133726Y116620D01*
X133484Y115656D01*
X133362Y114670D01*
Y113676D01*
X133484Y112690D01*
X133726Y111726D01*
X134085Y110800D01*
X134555Y109924D01*
X135129Y109113D01*
X135799Y108379D01*
X136554Y107732D01*
X137382Y107184D01*
X138271Y106741D01*
X139209Y106411D01*
X140179Y106198D01*
X141169Y106106D01*
X142162Y106137D01*
X143144Y106289D01*
X144100Y106561D01*
X145015Y106948D01*
X145875Y107445D01*
X146668Y108044D01*
X147382Y108736D01*
X148005Y109510D01*
X148528Y110355D01*
X148943Y111258D01*
X149244Y112205D01*
X149427Y113181D01*
X149488Y114173D01*
X282559Y165787D02*
Y166181D01*
Y165787D01*
Y166181D01*
X237030Y431102D02*
X255906Y412227D01*
X225895Y431102D02*
X255906Y401092D01*
X214759Y431102D02*
X255906Y389956D01*
X203624Y431102D02*
X255906Y378821D01*
X196850Y341613D02*
X255906Y400668D01*
X248166Y431102D02*
X255906Y423363D01*
X196850Y340551D02*
Y431102D01*
Y371062D02*
X227362Y340551D01*
X196850Y382198D02*
X238497Y340551D01*
X255906D02*
Y431102D01*
X229196Y340551D02*
X255906Y367261D01*
X251467Y340551D02*
X255906Y344990D01*
X240331Y340551D02*
X255906Y356125D01*
X218060Y340551D02*
X255906Y378397D01*
X206925Y340551D02*
X255906Y389532D01*
X196850Y348791D02*
X205091Y340551D01*
X196850Y359927D02*
X216226Y340551D01*
X196850Y375019D02*
X252934Y431102D01*
X196850Y386155D02*
X241798Y431102D01*
X196850Y426740D02*
X255906Y367685D01*
X196850Y431102D02*
X255906D01*
X196850Y419561D02*
X208391Y431102D01*
X196850Y430697D02*
X197256Y431102D01*
X196850Y397290D02*
X230662Y431102D01*
X196850Y408426D02*
X219527Y431102D01*
X196850Y404469D02*
X255906Y345414D01*
X196850Y352748D02*
X255906Y411803D01*
X196850Y340551D02*
X255906D01*
X196850Y341613D02*
X255906Y400668D01*
X196850Y363884D02*
X255906Y422939D01*
X196850Y340551D02*
Y431102D01*
Y393334D02*
X249633Y340551D01*
X196850Y415605D02*
X255906Y356550D01*
X196144Y437402D02*
Y443700D01*
X189765Y437402D02*
X196144D01*
X189765Y437401D02*
X189765Y437402D01*
X189765Y433464D02*
Y437401D01*
Y433464D02*
X262993D01*
Y437402D01*
X262992Y437402D02*
X262993Y437402D01*
X256617Y437402D02*
X262992D01*
X256617D02*
Y443700D01*
X259059D01*
Y444685D01*
X193702Y443700D02*
Y444685D01*
Y443700D02*
X196144D01*
X298622Y219094D02*
X323425D01*
Y201988D02*
Y211240D01*
X298622Y194291D02*
X323425D01*
X298622Y201988D02*
Y211240D01*
Y193504D02*
X323425D01*
Y176398D02*
Y185650D01*
X298622Y168701D02*
X323425D01*
X298622Y176398D02*
Y185650D01*
X137874Y138583D02*
Y144882D01*
Y138583D02*
X144016D01*
X137874Y144882D02*
X144016D01*
Y138583D02*
Y144882D01*
X157815Y138583D02*
Y144882D01*
Y138583D02*
X163957D01*
X157815Y144882D02*
X163957D01*
Y138583D02*
Y144882D01*
X177244Y138583D02*
Y144882D01*
Y138583D02*
X183386D01*
X177244Y144882D02*
X183386D01*
Y138583D02*
Y144882D01*
X245067Y174823D02*
Y178032D01*
X242469D02*
X245067D01*
X233571Y174823D02*
Y178032D01*
X236169D01*
X238472Y142559D02*
X241681D01*
Y145158D01*
X238472Y154055D02*
X241681D01*
Y151457D02*
Y154055D01*
X208465Y157185D02*
Y159744D01*
Y157185D02*
X211024D01*
X208465Y175492D02*
Y178051D01*
X211024D01*
X226772D02*
X229331D01*
Y175492D02*
Y178051D01*
Y157185D02*
Y159744D01*
X226772Y157185D02*
X229331D01*
X137205Y402559D02*
X141142Y406496D01*
X137205Y376969D02*
X141142Y373031D01*
X137205Y376969D02*
Y383858D01*
Y395669D02*
Y402559D01*
X141142Y373031D02*
X170669D01*
X141142Y406496D02*
X170669D01*
Y395571D02*
Y406496D01*
Y373031D02*
Y383957D01*
X341142Y440945D02*
Y447244D01*
Y463779D02*
Y467323D01*
X300591Y443701D02*
Y447244D01*
Y463779D02*
Y470276D01*
X332677Y475787D02*
X341142Y467323D01*
X300591Y443701D02*
X309055Y435236D01*
X300591Y470276D02*
X306102Y475787D01*
X309055Y435236D02*
X335433D01*
X306102Y475787D02*
X332677D01*
X115748Y421260D02*
X116929D01*
X115748Y403150D02*
Y421260D01*
Y403150D02*
X116929D01*
X123228D02*
X124409D01*
Y421260D01*
X123228D02*
X124409D01*
X115748Y412205D02*
X124409D01*
X123228Y427559D02*
X124409D01*
Y445669D01*
X123228D02*
X124409D01*
X115748D02*
X116929D01*
X115748Y427559D02*
Y445669D01*
Y427559D02*
X116929D01*
X115748Y436614D02*
X124409D01*
X137205Y475000D02*
X141142Y478937D01*
X137205Y449409D02*
X141142Y445472D01*
X137205Y449409D02*
Y456299D01*
Y468110D02*
Y475000D01*
X141142Y445472D02*
X170669D01*
X141142Y478937D02*
X170669D01*
Y468012D02*
Y478937D01*
Y445472D02*
Y456398D01*
X132283Y434252D02*
X134252D01*
X132283Y432283D02*
Y434252D01*
X150000D02*
X151969D01*
Y432283D02*
Y434252D01*
X132283Y414567D02*
X134252D01*
X132283D02*
Y416535D01*
X150000Y414567D02*
X151969D01*
Y416535D01*
X175197Y178150D02*
Y213976D01*
X116142Y178150D02*
X124114D01*
X138091D02*
X148130D01*
X162106D02*
X175197D01*
X116142D02*
Y213976D01*
X124114D01*
X138091D02*
X148130D01*
X162106D02*
X175197D01*
X318484Y515551D02*
Y517717D01*
X292500Y515551D02*
Y517717D01*
Y515551D02*
X318484D01*
X291339Y447638D02*
Y448425D01*
Y451181D02*
Y451575D01*
X289370Y448425D02*
X292913D01*
X289370D02*
X291339Y451181D01*
X292913Y448425D01*
X289370Y451181D02*
X293307D01*
X284839Y464370D02*
X290339D01*
X284839Y435106D02*
Y464370D01*
X290339Y463606D02*
Y464370D01*
X284839Y463606D02*
X290339D01*
X292339D02*
X297839D01*
X292339D02*
Y464370D01*
X284839Y435106D02*
X286713D01*
X292339Y464370D02*
X297839D01*
X295965Y435106D02*
X297839D01*
Y464370D01*
X279528Y415748D02*
Y428346D01*
X299213Y415748D02*
Y428346D01*
X279528D02*
X299213D01*
X279528Y415748D02*
X299213D01*
X234842Y250000D02*
X237795D01*
X234842D02*
Y254724D01*
Y316142D02*
Y320866D01*
X237795D01*
X308661D02*
X335236D01*
Y250000D02*
Y320866D01*
X308661Y250000D02*
X335236D01*
X194409Y130709D02*
X254410D01*
Y127028D02*
Y130709D01*
Y127028D02*
X255787Y127823D01*
X256378Y124093D02*
Y127482D01*
X254410Y124547D02*
X255787Y123752D01*
X254410Y99213D02*
Y124547D01*
X194409Y99213D02*
X254410D01*
X194409D02*
Y130709D01*
X195000Y124206D02*
X195787Y123752D01*
X195000Y127368D02*
X195787Y127823D01*
X196378Y124093D02*
Y127482D01*
X193032Y105504D02*
X194409Y106299D01*
X193032Y109575D02*
X194409Y108780D01*
X192441Y105845D02*
Y109234D01*
X253031Y105504D02*
X253819Y105958D01*
X252441Y105845D02*
Y109234D01*
X253031Y109575D02*
X253819Y109121D01*
X194409Y124016D02*
X254410D01*
X196339Y122047D02*
X212480D01*
X196339Y106299D02*
X212480D01*
X196339Y99213D02*
Y122047D01*
X216339D02*
X232480D01*
X216339Y106299D02*
X232480D01*
X216339Y99213D02*
Y122047D01*
X236339D02*
X252480D01*
X236339Y106299D02*
X252480D01*
X236339Y99213D02*
Y122047D01*
X212480Y99213D02*
Y122047D01*
X232480Y99213D02*
Y122047D01*
X252480Y99213D02*
Y122047D01*
X254410Y99213D02*
Y130709D01*
X198504Y106299D02*
Y122047D01*
X210315Y106299D02*
Y122047D01*
X218504Y106299D02*
Y122047D01*
X230315Y106299D02*
Y122047D01*
X238504Y106299D02*
Y122047D01*
X250315Y106299D02*
Y122047D01*
X131417Y130709D02*
X191417D01*
Y127028D02*
Y130709D01*
Y127028D02*
X192795Y127823D01*
X193386Y124093D02*
Y127482D01*
X191417Y124547D02*
X192795Y123752D01*
X191417Y99213D02*
Y124547D01*
X131417Y99213D02*
X191417D01*
X131417D02*
Y130709D01*
X132008Y124206D02*
X132795Y123752D01*
X132008Y127368D02*
X132795Y127823D01*
X133386Y124093D02*
Y127482D01*
X130039Y105504D02*
X131417Y106299D01*
X130039Y109575D02*
X131417Y108780D01*
X129449Y105845D02*
Y109234D01*
X190039Y105504D02*
X190827Y105958D01*
X189449Y105845D02*
Y109234D01*
X190039Y109575D02*
X190827Y109121D01*
X131417Y124016D02*
X191417D01*
X133346Y122047D02*
X149488D01*
X133346Y106299D02*
X149488D01*
X133346Y99213D02*
Y122047D01*
X153347D02*
X169488D01*
X153347Y106299D02*
X169488D01*
X153347Y99213D02*
Y122047D01*
X173346D02*
X189488D01*
X173346Y106299D02*
X189488D01*
X173346Y99213D02*
Y122047D01*
X149488Y99213D02*
Y122047D01*
X169488Y99213D02*
Y122047D01*
X189488Y99213D02*
Y122047D01*
X191417Y99213D02*
Y130709D01*
X135512Y106299D02*
Y122047D01*
X147323Y106299D02*
Y122047D01*
X155512Y106299D02*
Y122047D01*
X167323Y106299D02*
Y122047D01*
X175512Y106299D02*
Y122047D01*
X187323Y106299D02*
Y122047D01*
X265126Y111043D02*
Y114979D01*
X263158Y116947D01*
X261190Y114979D01*
Y111043D01*
Y113995D01*
X265126D01*
X259222Y111043D02*
X257254D01*
X258238D01*
Y116947D01*
X259222Y115963D01*
X202134Y111043D02*
Y114979D01*
X200166Y116947D01*
X198198Y114979D01*
Y111043D01*
Y113995D01*
X202134D01*
X196230Y111043D02*
X194262D01*
X195246D01*
Y116947D01*
X196230Y115963D01*
D12*
X249509Y463583D02*
X248771Y464009D01*
Y463157D01*
X249509Y463583D01*
X286417Y198425D02*
X285679Y198851D01*
Y197999D01*
X286417Y198425D01*
Y172835D02*
X285679Y173261D01*
Y172408D01*
X286417Y172835D01*
X147874Y146299D02*
X147136Y146725D01*
Y145873D01*
X147874Y146299D01*
X167815D02*
X167077Y146725D01*
Y145873D01*
X167815Y146299D01*
X187244D02*
X186506Y146725D01*
Y145873D01*
X187244Y146299D01*
X247291Y171535D02*
X246553Y171962D01*
Y171109D01*
X247291Y171535D01*
X235677Y140827D02*
X234939Y141253D01*
Y140401D01*
X235677Y140827D01*
X229232Y154626D02*
X228494Y155052D01*
Y154200D01*
X229232Y154626D01*
X178937Y389764D02*
X178199Y390190D01*
Y389338D01*
X178937Y389764D01*
X297933Y455512D02*
X297195Y455938D01*
Y455086D01*
X297933Y455512D01*
X178937Y462205D02*
X178199Y462631D01*
Y461778D01*
X178937Y462205D01*
X136713Y437524D02*
X135974Y437950D01*
Y437098D01*
X136713Y437524D01*
X164567Y218307D02*
X163829Y218733D01*
Y217881D01*
X164567Y218307D01*
X318898Y507087D02*
X318159Y507513D01*
Y506660D01*
X318898Y507087D01*
X300610Y411713D02*
X299872Y412139D01*
Y411286D01*
X300610Y411713D01*
D96*
X296457Y419685D02*
X296012Y420608D01*
X295013Y420836D01*
X294212Y420197D01*
Y419173D01*
X295013Y418534D01*
X296012Y418762D01*
X296457Y419685D01*
D97*
X216535Y148425D02*
Y149606D01*
X205512Y148425D02*
X216535D01*
X205512D02*
Y149606D01*
Y152756D02*
Y153937D01*
X216535D01*
Y152756D02*
Y153937D01*
X211024Y148425D02*
Y153937D01*
X257874Y240551D02*
X263386D01*
X257874Y245551D02*
X258630D01*
X257874Y235551D02*
Y245551D01*
Y235551D02*
X258630D01*
X262630D02*
X263386D01*
Y245551D01*
X262630D02*
X263386D01*
X183858Y131890D02*
Y137402D01*
X178858Y131890D02*
Y132646D01*
Y131890D02*
X188858D01*
Y132646D01*
Y136646D02*
Y137402D01*
X178858D02*
X188858D01*
X178858Y136646D02*
Y137402D01*
X314173Y220472D02*
X315354D01*
X314173D02*
Y231496D01*
X315354D01*
X318504D02*
X319685D01*
Y220472D02*
Y231496D01*
X318504Y220472D02*
X319685D01*
X314173Y225984D02*
X319685D01*
X247638Y240551D02*
X253150D01*
X247638Y245551D02*
X248394D01*
X247638Y235551D02*
Y245551D01*
Y235551D02*
X248394D01*
X252394D02*
X253150D01*
Y245551D01*
X252394D02*
X253150D01*
X277953Y240945D02*
X283465D01*
X277953Y245945D02*
X278709D01*
X277953Y235945D02*
Y245945D01*
Y235945D02*
X278709D01*
X282709D02*
X283465D01*
Y245945D01*
X282709D02*
X283465D01*
X288189Y240748D02*
X293701D01*
X288189Y245748D02*
X288945D01*
X288189Y235748D02*
Y245748D01*
Y235748D02*
X288945D01*
X292945D02*
X293701D01*
Y245748D01*
X292945D02*
X293701D01*
X327165Y225984D02*
X332677D01*
X327165Y230984D02*
X327921D01*
X327165Y220984D02*
Y230984D01*
Y220984D02*
X327921D01*
X331921D02*
X332677D01*
Y230984D01*
X331921D02*
X332677D01*
X164567Y131890D02*
Y137402D01*
X159567Y131890D02*
Y132646D01*
Y131890D02*
X169567D01*
Y132646D01*
Y136646D02*
Y137402D01*
X159567D02*
X169567D01*
X159567Y136646D02*
Y137402D01*
X313287Y225098D02*
Y226083D01*
X294587Y225098D02*
X313287D01*
X294587D02*
Y226083D01*
Y232972D02*
Y233957D01*
X313287D01*
Y232972D02*
Y233957D01*
X303937Y225098D02*
Y233957D01*
X309449Y234646D02*
Y235827D01*
X298425Y234646D02*
X309449D01*
X298425D02*
Y235827D01*
Y238976D02*
Y240158D01*
X309449D01*
Y238976D02*
Y240158D01*
X303937Y234646D02*
Y240158D01*
X298425Y245276D02*
Y246457D01*
X309449D01*
Y245276D02*
Y246457D01*
Y240945D02*
Y242126D01*
X298425Y240945D02*
X309449D01*
X298425D02*
Y242126D01*
X303937Y240945D02*
Y246457D01*
X325197Y231496D02*
X326378D01*
Y220472D02*
Y231496D01*
X325197Y220472D02*
X326378D01*
X320866D02*
X322047D01*
X320866D02*
Y231496D01*
X322047D01*
X320866Y225984D02*
X326378D01*
X144488Y131890D02*
Y137402D01*
X139488Y131890D02*
Y132646D01*
Y131890D02*
X149488D01*
Y132646D01*
Y136646D02*
Y137402D01*
X139488D02*
X149488D01*
X139488Y136646D02*
Y137402D01*
X221260Y291339D02*
X226772D01*
X221260Y296339D02*
X222016D01*
X221260Y286339D02*
Y296339D01*
Y286339D02*
X222016D01*
X226016D02*
X226772D01*
Y296339D01*
X226016D02*
X226772D01*
X195276Y312205D02*
X196457D01*
Y301181D02*
Y312205D01*
X195276Y301181D02*
X196457D01*
X190945D02*
X192126D01*
X190945D02*
Y312205D01*
X192126D01*
X190945Y306693D02*
X196457D01*
X220866D02*
X226378D01*
X220866Y311693D02*
X221622D01*
X220866Y301693D02*
Y311693D01*
Y301693D02*
X221622D01*
X225622D02*
X226378D01*
Y311693D01*
X225622D02*
X226378D01*
X208268Y306693D02*
X213779D01*
X213024Y301693D02*
X213779D01*
Y311693D01*
X213024D02*
X213779D01*
X208268D02*
X209024D01*
X208268Y301693D02*
Y311693D01*
Y301693D02*
X209024D01*
X184646Y306693D02*
X190157D01*
X189402Y301693D02*
X190157D01*
Y311693D01*
X189402D02*
X190157D01*
X184646D02*
X185402D01*
X184646Y301693D02*
Y311693D01*
Y301693D02*
X185402D01*
X214567Y301181D02*
X215748D01*
X214567D02*
Y312205D01*
X215748D01*
X218898D02*
X220079D01*
Y301181D02*
Y312205D01*
X218898Y301181D02*
X220079D01*
X214567Y306693D02*
X220079D01*
X197244D02*
X202756D01*
X197244Y311693D02*
X198000D01*
X197244Y301693D02*
Y311693D01*
Y301693D02*
X198000D01*
X202000D02*
X202756D01*
Y311693D01*
X202000D02*
X202756D01*
X207874Y291339D02*
X213386D01*
X212630Y286339D02*
X213386D01*
Y296339D01*
X212630D02*
X213386D01*
X207874D02*
X208630D01*
X207874Y286339D02*
Y296339D01*
Y286339D02*
X208630D01*
X214567Y285827D02*
X215748D01*
X214567D02*
Y296850D01*
X215748D01*
X218898D02*
X220079D01*
Y285827D02*
Y296850D01*
X218898Y285827D02*
X220079D01*
X214567Y291339D02*
X220079D01*
X242913Y223228D02*
Y228740D01*
X237913Y223228D02*
Y223984D01*
Y223228D02*
X247913D01*
Y223984D01*
Y227984D02*
Y228740D01*
X237913D02*
X247913D01*
X237913Y227984D02*
Y228740D01*
X237402Y221260D02*
Y222441D01*
X248425D01*
Y221260D02*
Y222441D01*
Y216929D02*
Y218110D01*
X237402Y216929D02*
X248425D01*
X237402D02*
Y218110D01*
X242913Y216929D02*
Y222441D01*
Y210630D02*
Y216142D01*
X247913Y215386D02*
Y216142D01*
X237913D02*
X247913D01*
X237913Y215386D02*
Y216142D01*
Y210630D02*
Y211386D01*
Y210630D02*
X247913D01*
Y211386D01*
X233169Y481004D02*
Y481988D01*
X251870D01*
Y481004D02*
Y481988D01*
Y473130D02*
Y474114D01*
X233169Y473130D02*
X251870D01*
X233169D02*
Y474114D01*
X242520Y473130D02*
Y481988D01*
X222736Y469193D02*
Y470177D01*
X204035Y469193D02*
X222736D01*
X204035D02*
Y470177D01*
Y477067D02*
Y478051D01*
X222736D01*
Y477067D02*
Y478051D01*
X213386Y469193D02*
Y478051D01*
X207874Y467323D02*
Y468504D01*
X218898D01*
Y467323D02*
Y468504D01*
Y462992D02*
Y464173D01*
X207874Y462992D02*
X218898D01*
X207874D02*
Y464173D01*
X213386Y462992D02*
Y468504D01*
X234744Y471161D02*
Y472146D01*
X253445D01*
Y471161D02*
Y472146D01*
Y463287D02*
Y464272D01*
X234744Y463287D02*
X253445D01*
X234744D02*
Y464272D01*
X244094Y463287D02*
Y472146D01*
X258563Y473228D02*
X259744D01*
Y462205D02*
Y473228D01*
X258563Y462205D02*
X259744D01*
X254232D02*
X255413D01*
X254232D02*
Y473228D01*
X255413D01*
X254232Y467717D02*
X259744D01*
X238779Y483071D02*
Y488583D01*
X243779Y487827D02*
Y488583D01*
X233780D02*
X243779D01*
X233780Y487827D02*
Y488583D01*
Y483071D02*
Y483827D01*
Y483071D02*
X243779D01*
Y483827D01*
X199358Y164842D02*
X200539D01*
X199358D02*
Y175866D01*
X200539D01*
X203689D02*
X204870D01*
Y164842D02*
Y175866D01*
X203689Y164842D02*
X204870D01*
X199358Y170354D02*
X204870D01*
X203689Y164055D02*
X204870D01*
Y153032D02*
Y164055D01*
X203689Y153032D02*
X204870D01*
X199358D02*
X200539D01*
X199358D02*
Y164055D01*
X200539D01*
X199358Y158543D02*
X204870D01*
X193453Y153130D02*
X194634D01*
X193453D02*
Y164154D01*
X194634D01*
X197784D02*
X198965D01*
Y153130D02*
Y164154D01*
X197784Y153130D02*
X198965D01*
X193453Y158642D02*
X198965D01*
X244882Y162205D02*
X250394D01*
X249638Y157205D02*
X250394D01*
Y167205D01*
X249638D02*
X250394D01*
X244882D02*
X245638D01*
X244882Y157205D02*
Y167205D01*
Y157205D02*
X245638D01*
X246209Y147126D02*
X251720D01*
X246209Y152126D02*
X246965D01*
X246209Y142126D02*
Y152126D01*
Y142126D02*
X246965D01*
X250965D02*
X251720D01*
Y152126D01*
X250965D02*
X251720D01*
X238335Y156575D02*
Y162087D01*
X233335Y156575D02*
Y157331D01*
Y156575D02*
X243335D01*
Y157331D01*
Y161331D02*
Y162087D01*
X233335D02*
X243335D01*
X233335Y161331D02*
Y162087D01*
X238335Y162874D02*
Y168386D01*
X233335Y162874D02*
Y163630D01*
Y162874D02*
X243335D01*
Y163630D01*
Y167630D02*
Y168386D01*
X233335D02*
X243335D01*
X233335Y167630D02*
Y168386D01*
X154331Y411024D02*
X155512D01*
X154331D02*
Y422047D01*
X155512D01*
X158661D02*
X159843D01*
Y411024D02*
Y422047D01*
X158661Y411024D02*
X159843D01*
X154331Y416535D02*
X159843D01*
X154331Y423228D02*
X155512D01*
X154331D02*
Y434252D01*
X155512D01*
X158661D02*
X159843D01*
Y423228D02*
Y434252D01*
X158661Y423228D02*
X159843D01*
X154331Y428740D02*
X159843D01*
X159449Y436614D02*
Y437795D01*
X148425Y436614D02*
X159449D01*
X148425D02*
Y437795D01*
Y440945D02*
Y442126D01*
X159449D01*
Y440945D02*
Y442126D01*
X153937Y436614D02*
Y442126D01*
X129134Y419685D02*
X130315D01*
Y408661D02*
Y419685D01*
X129134Y408661D02*
X130315D01*
X124803D02*
X125984D01*
X124803D02*
Y419685D01*
X125984D01*
X124803Y414173D02*
X130315D01*
X124803Y429035D02*
X125984D01*
X124803D02*
Y440059D01*
X125984D01*
X129134D02*
X130315D01*
Y429035D02*
Y440059D01*
X129134Y429035D02*
X130315D01*
X124803Y434547D02*
X130315D01*
X137402Y443307D02*
Y444488D01*
X148425D01*
Y443307D02*
Y444488D01*
Y438976D02*
Y440158D01*
X137402Y438976D02*
X148425D01*
X137402D02*
Y440158D01*
X142913Y438976D02*
Y444488D01*
X320079Y514567D02*
X325591D01*
X324835Y509567D02*
X325591D01*
Y519567D01*
X324835D02*
X325591D01*
X320079D02*
X320835D01*
X320079Y509567D02*
Y519567D01*
Y509567D02*
X320835D01*
X319685Y501968D02*
X325197D01*
X324441Y496969D02*
X325197D01*
Y506968D01*
X324441D02*
X325197D01*
X319685D02*
X320441D01*
X319685Y496969D02*
Y506968D01*
Y496969D02*
X320441D01*
X297736Y496457D02*
Y497638D01*
X286713Y496457D02*
X297736D01*
X286713D02*
Y497638D01*
Y500787D02*
Y501968D01*
X297736D01*
Y500787D02*
Y501968D01*
X292224Y496457D02*
Y501968D01*
X283858Y520079D02*
X285039D01*
Y509055D02*
Y520079D01*
X283858Y509055D02*
X285039D01*
X279528D02*
X280709D01*
X279528D02*
Y520079D01*
X280709D01*
X279528Y514567D02*
X285039D01*
X290158Y520079D02*
X291339D01*
Y509055D02*
Y520079D01*
X290158Y509055D02*
X291339D01*
X285827D02*
X287008D01*
X285827D02*
Y520079D01*
X287008D01*
X285827Y514567D02*
X291339D01*
X304724Y435433D02*
X305906D01*
Y424409D02*
Y435433D01*
X304724Y424409D02*
X305906D01*
X300394D02*
X301575D01*
X300394D02*
Y435433D01*
X301575D01*
X300394Y429921D02*
X305906D01*
X307579Y433366D02*
Y434350D01*
X326279D01*
Y433366D02*
Y434350D01*
Y425492D02*
Y426476D01*
X307579Y425492D02*
X326279D01*
X307579D02*
Y426476D01*
X316929Y425492D02*
Y434350D01*
X307579Y423524D02*
Y424508D01*
X326279D01*
Y423524D02*
Y424508D01*
Y415650D02*
Y416634D01*
X307579Y415650D02*
X326279D01*
X307579D02*
Y416634D01*
X316929Y415650D02*
Y424508D01*
X280020Y395965D02*
Y396949D01*
X298721D01*
Y395965D02*
Y396949D01*
Y388090D02*
Y389075D01*
X280020Y388090D02*
X298721D01*
X280020D02*
Y389075D01*
X289370Y388090D02*
Y396949D01*
X280217Y405807D02*
Y406791D01*
X298917D01*
Y405807D02*
Y406791D01*
Y397933D02*
Y398917D01*
X280217Y397933D02*
X298917D01*
X280217D02*
Y398917D01*
X289567Y397933D02*
Y406791D01*
X277165Y419685D02*
X278346D01*
Y408661D02*
Y419685D01*
X277165Y408661D02*
X278346D01*
X272835D02*
X274016D01*
X272835D02*
Y419685D01*
X274016D01*
X272835Y414173D02*
X278346D01*
X283465Y453150D02*
X284646D01*
Y442126D02*
Y453150D01*
X283465Y442126D02*
X284646D01*
X279134D02*
X280315D01*
X279134D02*
Y453150D01*
X280315D01*
X279134Y447638D02*
X284646D01*
X277559Y453150D02*
X278740D01*
Y442126D02*
Y453150D01*
X277559Y442126D02*
X278740D01*
X273228D02*
X274410D01*
X273228D02*
Y453150D01*
X274410D01*
X273228Y447638D02*
X278740D01*
X267323Y442520D02*
X272835D01*
X272079Y437520D02*
X272835D01*
Y447520D01*
X272079D02*
X272835D01*
X267323D02*
X268079D01*
X267323Y437520D02*
Y447520D01*
Y437520D02*
X268079D01*
X122047Y515354D02*
X127559D01*
X126803Y510354D02*
X127559D01*
Y520354D01*
X126803D02*
X127559D01*
X122047D02*
X122803D01*
X122047Y510354D02*
Y520354D01*
Y510354D02*
X122803D01*
X278740Y435827D02*
Y441339D01*
X273740Y435827D02*
Y436583D01*
Y435827D02*
X283740D01*
Y436583D01*
Y440583D02*
Y441339D01*
X273740D02*
X283740D01*
X273740Y440583D02*
Y441339D01*
X267323Y431496D02*
X272835D01*
X272079Y426496D02*
X272835D01*
Y436496D01*
X272079D02*
X272835D01*
X267323D02*
X268079D01*
X267323Y426496D02*
Y436496D01*
Y426496D02*
X268079D01*
X204331Y235433D02*
Y236614D01*
X193307Y235433D02*
X204331D01*
X193307D02*
Y236614D01*
Y239764D02*
Y240945D01*
X204331D01*
Y239764D02*
Y240945D01*
X198819Y235433D02*
Y240945D01*
Y229134D02*
Y234646D01*
X193819Y229134D02*
Y229890D01*
Y229134D02*
X203819D01*
Y229890D01*
Y233890D02*
Y234646D01*
X193819D02*
X203819D01*
X193819Y233890D02*
Y234646D01*
X198819Y242126D02*
Y247638D01*
X203819Y246882D02*
Y247638D01*
X193819D02*
X203819D01*
X193819Y246882D02*
Y247638D01*
Y242126D02*
Y242882D01*
Y242126D02*
X203819D01*
Y242882D01*
X264075Y187795D02*
Y188976D01*
X275098D01*
Y187795D02*
Y188976D01*
Y183465D02*
Y184646D01*
X264075Y183465D02*
X275098D01*
X264075D02*
Y184646D01*
X269587Y183465D02*
Y188976D01*
X269685Y177165D02*
Y182677D01*
X274685Y181921D02*
Y182677D01*
X264685D02*
X274685D01*
X264685Y181921D02*
Y182677D01*
Y177165D02*
Y177921D01*
Y177165D02*
X274685D01*
Y177921D01*
X269685Y189764D02*
Y195276D01*
X264685Y189764D02*
Y190520D01*
Y189764D02*
X274685D01*
Y190520D01*
Y194520D02*
Y195276D01*
X264685D02*
X274685D01*
X264685Y194520D02*
Y195276D01*
X264567Y231496D02*
Y232677D01*
X275590D01*
Y231496D02*
Y232677D01*
Y227165D02*
Y228346D01*
X264567Y227165D02*
X275590D01*
X264567D02*
Y228346D01*
X270079Y227165D02*
Y232677D01*
Y220866D02*
Y226378D01*
X265079Y220866D02*
Y221622D01*
Y220866D02*
X275079D01*
Y221622D01*
Y225622D02*
Y226378D01*
X265079D02*
X275079D01*
X265079Y225622D02*
Y226378D01*
X270079Y233465D02*
Y238976D01*
X275079Y238221D02*
Y238976D01*
X265079D02*
X275079D01*
X265079Y238221D02*
Y238976D01*
Y233465D02*
Y234221D01*
Y233465D02*
X275079D01*
Y234221D01*
X277953Y327953D02*
X279134D01*
X277953D02*
Y338976D01*
X279134D01*
X282283D02*
X283465D01*
Y327953D02*
Y338976D01*
X282283Y327953D02*
X283465D01*
X277953Y333465D02*
X283465D01*
X284646D02*
X290158D01*
X289402Y328465D02*
X290158D01*
Y338465D01*
X289402D02*
X290158D01*
X284646D02*
X285402D01*
X284646Y328465D02*
Y338465D01*
Y328465D02*
X285402D01*
X271260Y333465D02*
X276772D01*
X271260Y338465D02*
X272016D01*
X271260Y328465D02*
Y338465D01*
Y328465D02*
X272016D01*
X276016D02*
X276772D01*
Y338465D01*
X276016D02*
X276772D01*
D98*
X263779Y164213D02*
X311102D01*
X263779D02*
X311102D01*
X263779D02*
X263858D01*
Y147480D02*
Y164213D01*
X263779Y147480D02*
X263858D01*
X263779D02*
Y164213D01*
Y128779D02*
X263858D01*
X263779Y97323D02*
Y128779D01*
Y97323D02*
X263858D01*
Y128779D01*
Y97323D02*
X311181D01*
X263858D02*
X311181D01*
X311102Y97284D02*
X311181D01*
X311102D02*
Y128779D01*
X311181D01*
Y97284D02*
Y128779D01*
X311102Y147480D02*
Y164213D01*
Y147480D02*
Y164213D01*
M02*
