M48
; DRILL file {KiCad 7.0.10} date Sun Aug 17 20:38:32 2025
; FORMAT={-:-/ absolute / metric / decimal}
; #@! TF.CreationDate,2025-08-17T20:38:32-04:00
; #@! TF.GenerationSoftware,Kicad,Pcbnew,7.0.10
; #@! TF.FileFunction,Plated,1,4,PTH
FMAT,2
METRIC
; #@! TA.AperFunction,Plated,PTH,ViaDrill
T1C0.400
; #@! TA.AperFunction,Plated,PTH,ComponentDrill
T2C0.600
; #@! TA.AperFunction,Plated,PTH,ComponentDrill
T3C0.762
; #@! TA.AperFunction,Plated,PTH,ComponentDrill
T4C1.000
; #@! TA.AperFunction,Plated,PTH,ComponentDrill
T5C1.100
; #@! TA.AperFunction,Plated,PTH,ComponentDrill
T6C1.190
; #@! TA.AperFunction,Plated,PTH,ComponentDrill
T7C1.250
; #@! TA.AperFunction,Plated,PTH,ComponentDrill
T8C1.300
; #@! TA.AperFunction,Plated,PTH,ComponentDrill
T9C2.970
%
G90
G05
T1
X118.2Y-110.7
X119.6Y-135.5
X120.2Y-109.8
X122.1Y-114.4
X122.4Y-117.2
X122.5Y-108.9
X122.5Y-124.5
X123.2Y-117.6
X123.25Y-123.75
X123.6Y-111.2
X124.3Y-109.7
X125.2Y-108.3
X126.5Y-118.8
X127.1Y-111.4
X129.8Y-113.4
X129.8Y-117.5
X130.0Y-97.0
X131.0Y-109.0
X131.5Y-33.75
X131.5Y-84.5
X134.0Y-102.0
X134.0Y-102.8
X134.0Y-103.7
X134.0Y-113.4
X134.0Y-117.5
X134.512Y-66.237
X134.8Y-124.1
X135.262Y-66.987
X135.5Y-105.0
X136.0Y-67.75
X136.0Y-131.0
X136.0Y-136.0
X136.1Y-109.4
X136.5Y-33.75
X136.9Y-112.0
X137.2Y-120.6
X138.1Y-110.8
X138.9Y-111.75
X139.0Y-113.8
X139.0Y-114.9
X139.0Y-115.7
X139.75Y-41.0
X139.75Y-125.25
X140.0Y-99.0
X140.25Y-105.25
X140.3Y-55.3
X140.3Y-84.2
X140.7Y-106.8
X140.8Y-50.5
X140.8Y-86.1
X140.9Y-109.0
X141.0Y-125.5
X141.158Y-51.742
X141.5Y-98.5
X144.1Y-69.6
X144.2Y-62.2
X144.2Y-78.6
X144.25Y-112.25
X144.5Y-108.75
X144.75Y-41.0
X145.7Y-62.2
X145.7Y-69.6
X145.7Y-78.6
X145.8Y-57.3
X147.25Y-60.75
X148.75Y-35.75
X148.75Y-41.0
X151.0Y-126.0
X151.0Y-128.0
X151.0Y-133.0
X152.75Y-100.5
X154.5Y-36.0
X154.5Y-41.0
X154.9Y-70.8
X155.5Y-96.3
X155.75Y-100.5
X156.6Y-70.8
X156.6Y-95.1
X157.0Y-105.5
X157.3Y-74.2
X157.75Y-93.75
X158.5Y-144.25
X158.8Y-95.1
X159.925Y-62.2
X160.0Y-35.5
X160.0Y-141.0
X161.0Y-127.0
X161.0Y-141.0
X161.642Y-70.5
X161.743Y-71.6
X161.743Y-75.1
X162.042Y-76.1
X162.142Y-73.2
X162.25Y-43.75
X162.5Y-82.5
X162.542Y-69.8
X162.551Y-71.022
X162.993Y-75.8
X163.0Y-140.0
X163.596Y-139.029
X164.75Y-143.5
X165.0Y-35.5
X165.25Y-40.5
X165.75Y-94.5
X166.0Y-136.75
X166.25Y-143.5
X166.4Y-70.4
X166.4Y-71.2
X166.4Y-72.0
X166.4Y-72.8
X166.4Y-73.6
X166.4Y-74.4
X166.4Y-75.2
X166.4Y-76.0
X167.2Y-70.4
X167.2Y-71.2
X167.2Y-72.0
X167.2Y-72.8
X167.2Y-73.6
X167.2Y-74.4
X167.2Y-75.2
X167.2Y-76.0
X167.75Y-80.5
X168.0Y-70.4
X168.0Y-71.2
X168.0Y-72.0
X168.0Y-72.8
X168.0Y-73.6
X168.0Y-74.4
X168.0Y-75.2
X168.0Y-76.0
X168.0Y-140.0
X169.0Y-141.0
X170.0Y-141.0
X170.25Y-134.5
X171.742Y-71.05
X171.843Y-69.7
X171.843Y-76.6
X172.0Y-53.25
X172.442Y-75.9
X172.492Y-71.05
X172.5Y-78.35
X172.642Y-75.0
X172.742Y-70.1
X172.942Y-76.4
X173.2Y-93.6
X173.8Y-80.4
X174.9Y-82.1
X175.2Y-79.2
X175.75Y-75.0
T3
X152.0Y-36.0
X152.0Y-41.0
X157.0Y-36.0
X157.0Y-41.0
X162.63Y-36.0
X162.63Y-41.0
X167.63Y-36.0
X167.63Y-41.0
T4
X120.9Y-93.55
X120.9Y-96.09
X120.9Y-98.63
X120.9Y-101.17
X120.9Y-103.71
X120.9Y-106.25
T5
X161.45Y-102.85
X161.45Y-111.15
X167.0Y-100.15
X172.55Y-102.85
X172.55Y-111.15
T6
X138.38Y-36.0
X138.38Y-46.0
X140.92Y-36.0
X140.92Y-46.0
X143.46Y-36.0
X143.46Y-46.0
X146.0Y-36.0
X146.0Y-46.0
T7
X119.0Y-52.0
X176.6Y-52.0
T8
X125.925Y-145.0
X131.005Y-145.0
X136.085Y-145.0
T9
X161.375Y-107.0
X172.625Y-107.0
T2
X160.68Y-142.345G85X160.68Y-143.445
G05
X160.68Y-146.675G85X160.68Y-147.475
G05
X169.32Y-142.345G85X169.32Y-143.445
G05
X169.32Y-146.675G85X169.32Y-147.475
G05
T4
X134.3Y-88.05G85X132.8Y-88.05
G05
X162.8Y-88.05G85X161.3Y-88.05
G05
M30
