%TF.GenerationSoftware,KiCad,Pcbnew,7.0.10*%
%TF.CreationDate,2025-08-17T20:38:30-04:00*%
%TF.ProjectId,StepperControllerPCB,53746570-7065-4724-936f-6e74726f6c6c,rev?*%
%TF.SameCoordinates,Original*%
%TF.FileFunction,Soldermask,Bot*%
%TF.FilePolarity,Negative*%
%FSLAX46Y46*%
G04 Gerber Fmt 4.6, Leading zero omitted, Abs format (unit mm)*
G04 Created by KiCad (PCBNEW 7.0.10) date 2025-08-17 20:38:30*
%MOMM*%
%LPD*%
G01*
G04 APERTURE LIST*
G04 Aperture macros list*
%AMRoundRect*
0 Rectangle with rounded corners*
0 $1 Rounding radius*
0 $2 $3 $4 $5 $6 $7 $8 $9 X,Y pos of 4 corners*
0 Add a 4 corners polygon primitive as box body*
4,1,4,$2,$3,$4,$5,$6,$7,$8,$9,$2,$3,0*
0 Add four circle primitives for the rounded corners*
1,1,$1+$1,$2,$3*
1,1,$1+$1,$4,$5*
1,1,$1+$1,$6,$7*
1,1,$1+$1,$8,$9*
0 Add four rect primitives between the rounded corners*
20,1,$1+$1,$2,$3,$4,$5,0*
20,1,$1+$1,$4,$5,$6,$7,0*
20,1,$1+$1,$6,$7,$8,$9,0*
20,1,$1+$1,$8,$9,$2,$3,0*%
G04 Aperture macros list end*
%ADD10C,3.200000*%
%ADD11C,0.650000*%
%ADD12O,1.000000X2.100000*%
%ADD13O,1.000000X1.800000*%
%ADD14R,2.500000X2.500000*%
%ADD15C,2.500000*%
%ADD16R,1.700000X1.700000*%
%ADD17O,1.700000X1.700000*%
%ADD18R,1.400000X2.100000*%
%ADD19R,1.524000X1.524000*%
%ADD20C,1.524000*%
%ADD21C,1.650000*%
%ADD22C,4.500000*%
%ADD23RoundRect,0.250000X-0.620000X-0.845000X0.620000X-0.845000X0.620000X0.845000X-0.620000X0.845000X0*%
%ADD24O,1.740000X2.190000*%
%ADD25O,16.000000X2.500000*%
%ADD26O,3.500000X2.000000*%
%ADD27R,2.000000X2.000000*%
%ADD28RoundRect,0.250000X0.375000X0.625000X-0.375000X0.625000X-0.375000X-0.625000X0.375000X-0.625000X0*%
%ADD29RoundRect,0.250000X-0.625000X0.375000X-0.625000X-0.375000X0.625000X-0.375000X0.625000X0.375000X0*%
G04 APERTURE END LIST*
D10*
%TO.C,H3*%
X119000000Y-146000000D03*
%TD*%
D11*
%TO.C,J3*%
X162110000Y-143395000D03*
X167890000Y-143395000D03*
D12*
X160680000Y-142895000D03*
D13*
X160680000Y-147075000D03*
D12*
X169320000Y-142895000D03*
D13*
X169320000Y-147075000D03*
%TD*%
D10*
%TO.C,H1*%
X119000000Y-34000000D03*
%TD*%
%TO.C,H4*%
X176000000Y-146000000D03*
%TD*%
D14*
%TO.C,E1*%
X136085000Y-145000000D03*
D15*
X131005000Y-145000000D03*
X125925000Y-145000000D03*
%TD*%
D16*
%TO.C,J1*%
X120900000Y-93550000D03*
D17*
X120900000Y-96090000D03*
X120900000Y-98630000D03*
X120900000Y-101170000D03*
X120900000Y-103710000D03*
X120900000Y-106250000D03*
%TD*%
D10*
%TO.C,H2*%
X176000000Y-34000000D03*
%TD*%
D18*
%TO.C,SW3*%
X128750000Y-97450000D03*
X128750000Y-106550000D03*
X133250000Y-97450000D03*
X133250000Y-106550000D03*
%TD*%
%TO.C,SW4*%
X128750000Y-110450000D03*
X128750000Y-119550000D03*
X133250000Y-110450000D03*
X133250000Y-119550000D03*
%TD*%
D19*
%TO.C,J5*%
X167630000Y-41000000D03*
D20*
X167630000Y-36000000D03*
X162630000Y-41000000D03*
X162630000Y-36000000D03*
%TD*%
D21*
%TO.C,U4*%
X172550000Y-102850000D03*
X161450000Y-102850000D03*
X172550000Y-111150000D03*
X161450000Y-111150000D03*
X167000000Y-100150000D03*
D22*
X172625000Y-107000000D03*
X161375000Y-107000000D03*
%TD*%
D23*
%TO.C,P1*%
X138380000Y-36000000D03*
D24*
X140920000Y-36000000D03*
X143460000Y-36000000D03*
X146000000Y-36000000D03*
%TD*%
D18*
%TO.C,SW6*%
X128750000Y-124450000D03*
X128750000Y-133550000D03*
X133250000Y-124450000D03*
X133250000Y-133550000D03*
%TD*%
D25*
%TO.C,DSP1*%
X147800000Y-90300000D03*
D26*
X133550000Y-88050000D03*
X162050000Y-88050000D03*
D27*
X119000000Y-52000000D03*
X176600000Y-52000000D03*
%TD*%
D28*
%TO.C,DS1*%
X129400000Y-33750000D03*
X126600000Y-33750000D03*
%TD*%
D19*
%TO.C,J4*%
X157000000Y-41000000D03*
D20*
X157000000Y-36000000D03*
X152000000Y-41000000D03*
X152000000Y-36000000D03*
%TD*%
D29*
%TO.C,D1*%
X157500000Y-142850000D03*
X157500000Y-145650000D03*
%TD*%
D23*
%TO.C,P2*%
X138380000Y-46000000D03*
D24*
X140920000Y-46000000D03*
X143460000Y-46000000D03*
X146000000Y-46000000D03*
%TD*%
D18*
%TO.C,SW7*%
X153050000Y-124495500D03*
X153050000Y-133595500D03*
X157550000Y-124495500D03*
X157550000Y-133595500D03*
%TD*%
%TO.C,SW5*%
X163750000Y-124450000D03*
X163750000Y-133550000D03*
X168250000Y-124450000D03*
X168250000Y-133550000D03*
%TD*%
M02*
