%TF.GenerationSoftware,KiCad,Pcbnew,7.0.10*%
%TF.CreationDate,2025-08-17T20:38:30-04:00*%
%TF.ProjectId,StepperControllerPCB,53746570-7065-4724-936f-6e74726f6c6c,rev?*%
%TF.SameCoordinates,Original*%
%TF.FileFunction,Copper,L3,Inr*%
%TF.FilePolarity,Positive*%
%FSLAX46Y46*%
G04 Gerber Fmt 4.6, Leading zero omitted, Abs format (unit mm)*
G04 Created by KiCad (PCBNEW 7.0.10) date 2025-08-17 20:38:30*
%MOMM*%
%LPD*%
G01*
G04 APERTURE LIST*
G04 Aperture macros list*
%AMRoundRect*
0 Rectangle with rounded corners*
0 $1 Rounding radius*
0 $2 $3 $4 $5 $6 $7 $8 $9 X,Y pos of 4 corners*
0 Add a 4 corners polygon primitive as box body*
4,1,4,$2,$3,$4,$5,$6,$7,$8,$9,$2,$3,0*
0 Add four circle primitives for the rounded corners*
1,1,$1+$1,$2,$3*
1,1,$1+$1,$4,$5*
1,1,$1+$1,$6,$7*
1,1,$1+$1,$8,$9*
0 Add four rect primitives between the rounded corners*
20,1,$1+$1,$2,$3,$4,$5,0*
20,1,$1+$1,$4,$5,$6,$7,0*
20,1,$1+$1,$6,$7,$8,$9,0*
20,1,$1+$1,$8,$9,$2,$3,0*%
G04 Aperture macros list end*
%TA.AperFunction,ComponentPad*%
%ADD10O,1.000000X2.100000*%
%TD*%
%TA.AperFunction,ComponentPad*%
%ADD11O,1.000000X1.800000*%
%TD*%
%TA.AperFunction,ComponentPad*%
%ADD12R,2.500000X2.500000*%
%TD*%
%TA.AperFunction,ComponentPad*%
%ADD13C,2.500000*%
%TD*%
%TA.AperFunction,ComponentPad*%
%ADD14R,1.700000X1.700000*%
%TD*%
%TA.AperFunction,ComponentPad*%
%ADD15O,1.700000X1.700000*%
%TD*%
%TA.AperFunction,ComponentPad*%
%ADD16R,1.524000X1.524000*%
%TD*%
%TA.AperFunction,ComponentPad*%
%ADD17C,1.524000*%
%TD*%
%TA.AperFunction,ComponentPad*%
%ADD18C,1.650000*%
%TD*%
%TA.AperFunction,ComponentPad*%
%ADD19C,4.500000*%
%TD*%
%TA.AperFunction,ComponentPad*%
%ADD20RoundRect,0.250000X-0.620000X-0.845000X0.620000X-0.845000X0.620000X0.845000X-0.620000X0.845000X0*%
%TD*%
%TA.AperFunction,ComponentPad*%
%ADD21O,1.740000X2.190000*%
%TD*%
%TA.AperFunction,ComponentPad*%
%ADD22O,3.500000X2.000000*%
%TD*%
%TA.AperFunction,ComponentPad*%
%ADD23R,2.000000X2.000000*%
%TD*%
%TA.AperFunction,ViaPad*%
%ADD24C,0.600000*%
%TD*%
G04 APERTURE END LIST*
D10*
%TO.N,GND*%
%TO.C,J3*%
X160680000Y-142895000D03*
D11*
X160680000Y-147075000D03*
D10*
X169320000Y-142895000D03*
D11*
X169320000Y-147075000D03*
%TD*%
D12*
%TO.N,+20V*%
%TO.C,E1*%
X136085000Y-145000000D03*
D13*
%TO.N,3V3*%
X131005000Y-145000000D03*
%TO.N,GND*%
X125925000Y-145000000D03*
%TD*%
D14*
%TO.N,Net-(J1-Pin_1)*%
%TO.C,J1*%
X120900000Y-93550000D03*
D15*
%TO.N,Net-(J1-Pin_2)*%
X120900000Y-96090000D03*
%TO.N,GND*%
X120900000Y-98630000D03*
%TO.N,Net-(J1-Pin_4)*%
X120900000Y-101170000D03*
%TO.N,Net-(J1-Pin_5)*%
X120900000Y-103710000D03*
%TO.N,3V3*%
X120900000Y-106250000D03*
%TD*%
D16*
%TO.N,/Stepper/OB1*%
%TO.C,J5*%
X167630000Y-41000000D03*
D17*
X167630000Y-36000000D03*
%TO.N,/Stepper/OB2*%
X162630000Y-41000000D03*
X162630000Y-36000000D03*
%TD*%
D18*
%TO.N,Net-(R28-Pad1)*%
%TO.C,U4*%
X172550000Y-102850000D03*
%TO.N,Net-(R24-Pad1)*%
X161450000Y-102850000D03*
%TO.N,3V3*%
X172550000Y-111150000D03*
X161450000Y-111150000D03*
%TO.N,Net-(R30-Pad1)*%
X167000000Y-100150000D03*
D19*
%TO.N,GND*%
X172625000Y-107000000D03*
X161375000Y-107000000D03*
%TD*%
D20*
%TO.N,/Stepper/OA1*%
%TO.C,P1*%
X138380000Y-36000000D03*
D21*
%TO.N,/Stepper/OB1*%
X140920000Y-36000000D03*
%TO.N,/Stepper/OA2*%
X143460000Y-36000000D03*
%TO.N,/Stepper/OB2*%
X146000000Y-36000000D03*
%TD*%
D22*
%TO.N,Net-(DSP1-A)*%
%TO.C,DSP1*%
X133550000Y-88050000D03*
%TO.N,GND*%
X162050000Y-88050000D03*
D23*
%TO.N,Net-(DSP1-MP-PadMP1)*%
X119000000Y-52000000D03*
%TO.N,Net-(DSP1-MP-PadMP2)*%
X176600000Y-52000000D03*
%TD*%
D16*
%TO.N,/Stepper/OA1*%
%TO.C,J4*%
X157000000Y-41000000D03*
D17*
X157000000Y-36000000D03*
%TO.N,/Stepper/OA2*%
X152000000Y-41000000D03*
X152000000Y-36000000D03*
%TD*%
D20*
%TO.N,/Stepper/OA1*%
%TO.C,P2*%
X138380000Y-46000000D03*
D21*
%TO.N,/Stepper/OA2*%
X140920000Y-46000000D03*
%TO.N,/Stepper/OB1*%
X143460000Y-46000000D03*
%TO.N,/Stepper/OB2*%
X146000000Y-46000000D03*
%TD*%
D24*
%TO.N,GND*%
X167200000Y-75200000D03*
X165750000Y-94500000D03*
X127100000Y-111400000D03*
X165250000Y-40500000D03*
X166400000Y-71200000D03*
X170000000Y-141000000D03*
X122100000Y-114400000D03*
X166400000Y-75200000D03*
X145700000Y-62200000D03*
X161000000Y-141000000D03*
X172000000Y-53250000D03*
X155750000Y-100500000D03*
X134000000Y-113400000D03*
X160000000Y-141000000D03*
X144200000Y-78600000D03*
X166400000Y-73600000D03*
X175750000Y-75000000D03*
X154500000Y-36000000D03*
X167200000Y-71200000D03*
X167200000Y-74400000D03*
X168000000Y-74400000D03*
X166400000Y-74400000D03*
X152750000Y-100500000D03*
X173200000Y-93600000D03*
X148750000Y-41000000D03*
X129800000Y-117500000D03*
X167200000Y-70400000D03*
X165000000Y-35500000D03*
X145700000Y-78600000D03*
X122500000Y-108900000D03*
X144250000Y-112250000D03*
X139750000Y-41000000D03*
X168000000Y-75200000D03*
X137200000Y-120600000D03*
X148750000Y-35750000D03*
X166400000Y-76000000D03*
X166400000Y-70400000D03*
X144100000Y-69600000D03*
X144750000Y-41000000D03*
X168000000Y-73600000D03*
X144500000Y-108750000D03*
X168000000Y-72800000D03*
X167200000Y-73600000D03*
X144200000Y-62200000D03*
X166400000Y-72000000D03*
X168000000Y-70400000D03*
X167200000Y-72800000D03*
X168000000Y-71200000D03*
X169000000Y-141000000D03*
X162250000Y-43750000D03*
X129800000Y-113400000D03*
X168000000Y-72000000D03*
X140250000Y-105250000D03*
X160000000Y-35500000D03*
X167200000Y-72000000D03*
X168000000Y-76000000D03*
X134000000Y-117500000D03*
X174900000Y-82100000D03*
X166400000Y-72800000D03*
X145700000Y-69600000D03*
X167200000Y-76000000D03*
X154500000Y-41000000D03*
%TO.N,3V3*%
X159925000Y-62200000D03*
X151000000Y-126000000D03*
X147250000Y-60750000D03*
X171842500Y-76600000D03*
X126500000Y-118800000D03*
X131000000Y-109000000D03*
X119600000Y-135500000D03*
X136500000Y-33750000D03*
X134800000Y-124100000D03*
X161742500Y-75100000D03*
X171842500Y-69700000D03*
X136900000Y-112000000D03*
X134512500Y-66237500D03*
X136000000Y-67750000D03*
X161000000Y-127000000D03*
X130000000Y-97000000D03*
X135262500Y-66987500D03*
%TO.N,+20V*%
X131500000Y-84500000D03*
X168000000Y-140000000D03*
X163000000Y-140000000D03*
X162500000Y-82500000D03*
%TO.N,Net-(U2-DP)*%
X166250000Y-143500000D03*
X164750000Y-143500000D03*
%TO.N,/Stepper/OA1*%
X161642500Y-70500000D03*
X162550975Y-71022275D03*
%TO.N,/Stepper/OB1*%
X162992500Y-75800000D03*
X162042500Y-76100000D03*
%TO.N,/Stepper/OA2*%
X172492500Y-71050000D03*
X171742500Y-71050000D03*
%TO.N,/Stepper/OB2*%
X172942500Y-76400000D03*
X172442500Y-75900000D03*
%TO.N,Net-(D1-A)*%
X158500000Y-144250000D03*
%TO.N,Net-(DS1-A)*%
X131500000Y-33750000D03*
%TO.N,/ESP32/SPI1_SCK*%
X140700000Y-106800000D03*
X140300000Y-84200000D03*
%TO.N,/ESP32/SPI1_MOSI*%
X140800000Y-86100000D03*
X140900000Y-109000000D03*
X145800000Y-57300000D03*
X140800000Y-50500000D03*
%TO.N,Net-(D1-K)*%
X170250000Y-134500000D03*
%TO.N,BTN_FWD*%
X141500000Y-98500000D03*
X136100000Y-109400000D03*
%TO.N,BTN_STOP*%
X139750000Y-125250000D03*
X138100000Y-110800000D03*
%TO.N,BTN_CURR*%
X123250000Y-123750000D03*
X122400000Y-117200000D03*
%TO.N,BTN_MODE*%
X122500000Y-124500000D03*
X123200000Y-117600000D03*
%TO.N,BTN_REV*%
X141000000Y-125500000D03*
X138900000Y-111750000D03*
%TO.N,BOOT*%
X118200000Y-110700000D03*
X120200000Y-109800000D03*
%TO.N,STEPPER_STEP*%
X139000000Y-115700000D03*
X172642500Y-75000000D03*
X158800000Y-95100000D03*
X173800000Y-80400000D03*
%TO.N,STEPPER_DIR*%
X162542500Y-69800000D03*
X139000000Y-114900000D03*
X156600000Y-95100000D03*
X156600000Y-70800000D03*
%TO.N,STEPPER_EN*%
X175200000Y-79200000D03*
X172742500Y-70100000D03*
X139000000Y-113800000D03*
X155500000Y-96300000D03*
%TO.N,/Stepper/DECAY_MODE*%
X161742500Y-71600000D03*
X154900000Y-70800000D03*
%TO.N,/Stepper/CURRENT_SELECT*%
X162142500Y-73200000D03*
X157000000Y-105500000D03*
X157750000Y-93750000D03*
X157300000Y-74200000D03*
%TO.N,Net-(IC1-SRN)*%
X167750000Y-80500000D03*
X172500000Y-78350000D03*
%TO.N,Net-(J3-CC1)*%
X166000000Y-136750000D03*
X163595558Y-139029442D03*
%TO.N,/ESP32/LCD_RST*%
X140300000Y-55300000D03*
X124300000Y-109700000D03*
X134000000Y-102800000D03*
X141158058Y-51741942D03*
%TO.N,/ESP32/LCD_CS*%
X134000000Y-102000000D03*
X125200000Y-108300000D03*
%TO.N,/ESP32/LCD_A0*%
X134000000Y-103700000D03*
X123600000Y-111200000D03*
%TO.N,Net-(R34-Pad1)*%
X151000000Y-128000000D03*
%TO.N,Net-(R35-Pad1)*%
X136000000Y-136000000D03*
%TO.N,Net-(R26-Pad1)*%
X135500000Y-105000000D03*
X140000000Y-99000000D03*
%TO.N,Net-(R32-Pad1)*%
X136000000Y-131000000D03*
%TO.N,Net-(R36-Pad1)*%
X151000000Y-133000000D03*
%TD*%
%TA.AperFunction,Conductor*%
%TO.N,GND*%
G36*
X176003244Y-31000670D02*
G01*
X176307046Y-31016592D01*
X176319953Y-31017949D01*
X176451089Y-31038718D01*
X176617209Y-31065028D01*
X176629896Y-31067724D01*
X176920625Y-31145625D01*
X176932965Y-31149635D01*
X177213938Y-31257490D01*
X177225790Y-31262767D01*
X177493968Y-31399411D01*
X177505203Y-31405898D01*
X177757608Y-31569812D01*
X177768109Y-31577441D01*
X178002010Y-31766850D01*
X178011655Y-31775535D01*
X178224464Y-31988344D01*
X178233149Y-31997989D01*
X178422558Y-32231890D01*
X178430187Y-32242391D01*
X178594101Y-32494796D01*
X178600591Y-32506036D01*
X178737231Y-32774206D01*
X178742510Y-32786064D01*
X178850363Y-33067033D01*
X178854374Y-33079376D01*
X178932273Y-33370097D01*
X178934971Y-33382794D01*
X178982050Y-33680046D01*
X178983407Y-33692953D01*
X178999330Y-33996756D01*
X178999500Y-34003246D01*
X178999500Y-145996753D01*
X178999330Y-146003243D01*
X178983407Y-146307046D01*
X178982050Y-146319953D01*
X178934971Y-146617205D01*
X178932273Y-146629902D01*
X178854374Y-146920623D01*
X178850363Y-146932966D01*
X178742510Y-147213935D01*
X178737231Y-147225793D01*
X178600591Y-147493963D01*
X178594101Y-147505203D01*
X178430187Y-147757608D01*
X178422558Y-147768109D01*
X178233149Y-148002010D01*
X178224464Y-148011655D01*
X178011655Y-148224464D01*
X178002010Y-148233149D01*
X177768109Y-148422558D01*
X177757608Y-148430187D01*
X177505203Y-148594101D01*
X177493963Y-148600591D01*
X177225793Y-148737231D01*
X177213935Y-148742510D01*
X176932966Y-148850363D01*
X176920623Y-148854374D01*
X176629902Y-148932273D01*
X176617205Y-148934971D01*
X176319953Y-148982050D01*
X176307046Y-148983407D01*
X176003244Y-148999330D01*
X175996754Y-148999500D01*
X119003246Y-148999500D01*
X118996756Y-148999330D01*
X118692953Y-148983407D01*
X118680046Y-148982050D01*
X118382794Y-148934971D01*
X118370097Y-148932273D01*
X118079376Y-148854374D01*
X118067033Y-148850363D01*
X117786064Y-148742510D01*
X117774206Y-148737231D01*
X117506036Y-148600591D01*
X117494796Y-148594101D01*
X117242391Y-148430187D01*
X117231890Y-148422558D01*
X116997989Y-148233149D01*
X116988344Y-148224464D01*
X116775535Y-148011655D01*
X116766850Y-148002010D01*
X116577441Y-147768109D01*
X116569812Y-147757608D01*
X116519422Y-147680014D01*
X116405896Y-147505199D01*
X116399408Y-147493963D01*
X116386475Y-147468581D01*
X116262767Y-147225790D01*
X116257489Y-147213935D01*
X116247107Y-147186890D01*
X116149635Y-146932965D01*
X116145625Y-146920623D01*
X116120003Y-146825000D01*
X116067724Y-146629896D01*
X116065028Y-146617205D01*
X116063498Y-146607547D01*
X116030912Y-146401799D01*
X116017949Y-146319953D01*
X116016592Y-146307046D01*
X116004051Y-146067763D01*
X117145787Y-146067763D01*
X117175413Y-146337013D01*
X117175415Y-146337024D01*
X117237188Y-146573309D01*
X117243928Y-146599088D01*
X117349870Y-146848390D01*
X117421998Y-146966575D01*
X117490979Y-147079605D01*
X117490986Y-147079615D01*
X117664253Y-147287819D01*
X117664259Y-147287824D01*
X117865998Y-147468582D01*
X118091910Y-147618044D01*
X118337176Y-147733020D01*
X118337183Y-147733022D01*
X118337185Y-147733023D01*
X118596557Y-147811057D01*
X118596564Y-147811058D01*
X118596569Y-147811060D01*
X118864561Y-147850500D01*
X118864566Y-147850500D01*
X119067629Y-147850500D01*
X119067631Y-147850500D01*
X119067636Y-147850499D01*
X119067648Y-147850499D01*
X119105191Y-147847750D01*
X119270156Y-147835677D01*
X119382758Y-147810593D01*
X119534546Y-147776782D01*
X119534548Y-147776781D01*
X119534553Y-147776780D01*
X119787558Y-147680014D01*
X120023777Y-147547441D01*
X120051916Y-147525713D01*
X159680000Y-147525713D01*
X159695418Y-147677338D01*
X159756299Y-147871381D01*
X159756304Y-147871391D01*
X159855005Y-148049215D01*
X159855005Y-148049216D01*
X159987478Y-148203530D01*
X159987479Y-148203531D01*
X160148304Y-148328018D01*
X160330907Y-148417589D01*
X160430000Y-148443244D01*
X160430000Y-147641110D01*
X160454457Y-147680610D01*
X160543962Y-147748201D01*
X160651840Y-147778895D01*
X160763521Y-147768546D01*
X160863922Y-147718552D01*
X160930000Y-147646069D01*
X160930000Y-148448366D01*
X160931944Y-148448069D01*
X160931945Y-148448069D01*
X161122660Y-148377436D01*
X161122664Y-148377434D01*
X161295267Y-148269850D01*
X161442668Y-148129735D01*
X161442669Y-148129733D01*
X161558856Y-147962804D01*
X161639059Y-147775907D01*
X161680000Y-147576690D01*
X161680000Y-147525713D01*
X168320000Y-147525713D01*
X168335418Y-147677338D01*
X168396299Y-147871381D01*
X168396304Y-147871391D01*
X168495005Y-148049215D01*
X168495005Y-148049216D01*
X168627478Y-148203530D01*
X168627479Y-148203531D01*
X168788304Y-148328018D01*
X168970907Y-148417589D01*
X169070000Y-148443244D01*
X169070000Y-147641110D01*
X169094457Y-147680610D01*
X169183962Y-147748201D01*
X169291840Y-147778895D01*
X169403521Y-147768546D01*
X169503922Y-147718552D01*
X169570000Y-147646069D01*
X169570000Y-148448366D01*
X169571944Y-148448069D01*
X169571945Y-148448069D01*
X169762660Y-148377436D01*
X169762664Y-148377434D01*
X169935267Y-148269850D01*
X170082668Y-148129735D01*
X170082669Y-148129733D01*
X170198856Y-147962804D01*
X170279059Y-147775907D01*
X170320000Y-147576690D01*
X170320000Y-147325000D01*
X169620000Y-147325000D01*
X169620000Y-146825000D01*
X170320000Y-146825000D01*
X170320000Y-146624286D01*
X170304581Y-146472661D01*
X170243700Y-146278618D01*
X170243695Y-146278608D01*
X170144994Y-146100784D01*
X170144994Y-146100783D01*
X170116648Y-146067763D01*
X174145787Y-146067763D01*
X174175413Y-146337013D01*
X174175415Y-146337024D01*
X174237188Y-146573309D01*
X174243928Y-146599088D01*
X174349870Y-146848390D01*
X174421998Y-146966575D01*
X174490979Y-147079605D01*
X174490986Y-147079615D01*
X174664253Y-147287819D01*
X174664259Y-147287824D01*
X174865998Y-147468582D01*
X175091910Y-147618044D01*
X175337176Y-147733020D01*
X175337183Y-147733022D01*
X175337185Y-147733023D01*
X175596557Y-147811057D01*
X175596564Y-147811058D01*
X175596569Y-147811060D01*
X175864561Y-147850500D01*
X175864566Y-147850500D01*
X176067629Y-147850500D01*
X176067631Y-147850500D01*
X176067636Y-147850499D01*
X176067648Y-147850499D01*
X176105191Y-147847750D01*
X176270156Y-147835677D01*
X176382758Y-147810593D01*
X176534546Y-147776782D01*
X176534548Y-147776781D01*
X176534553Y-147776780D01*
X176787558Y-147680014D01*
X177023777Y-147547441D01*
X177238177Y-147381888D01*
X177426186Y-147186881D01*
X177583799Y-146966579D01*
X177694893Y-146750500D01*
X177707649Y-146725690D01*
X177707651Y-146725684D01*
X177707656Y-146725675D01*
X177795118Y-146469305D01*
X177844319Y-146202933D01*
X177854212Y-145932235D01*
X177824586Y-145662982D01*
X177756072Y-145400912D01*
X177650130Y-145151610D01*
X177509018Y-144920390D01*
X177475252Y-144879816D01*
X177335746Y-144712180D01*
X177335740Y-144712175D01*
X177134002Y-144531418D01*
X176908092Y-144381957D01*
X176872809Y-144365417D01*
X176662824Y-144266980D01*
X176662819Y-144266978D01*
X176662814Y-144266976D01*
X176403442Y-144188942D01*
X176403428Y-144188939D01*
X176287791Y-144171921D01*
X176135439Y-144149500D01*
X175932369Y-144149500D01*
X175932351Y-144149500D01*
X175729844Y-144164323D01*
X175729831Y-144164325D01*
X175465453Y-144223217D01*
X175465446Y-144223220D01*
X175212439Y-144319987D01*
X174976226Y-144452557D01*
X174761822Y-144618112D01*
X174573822Y-144813109D01*
X174573816Y-144813116D01*
X174416202Y-145033419D01*
X174416199Y-145033424D01*
X174292350Y-145274309D01*
X174292343Y-145274327D01*
X174204884Y-145530685D01*
X174204882Y-145530695D01*
X174167624Y-145732411D01*
X174155681Y-145797068D01*
X174155680Y-145797075D01*
X174145787Y-146067763D01*
X170116648Y-146067763D01*
X170012521Y-145946469D01*
X170012520Y-145946468D01*
X169851695Y-145821981D01*
X169669093Y-145732411D01*
X169570000Y-145706753D01*
X169570000Y-146508889D01*
X169545543Y-146469390D01*
X169456038Y-146401799D01*
X169348160Y-146371105D01*
X169236479Y-146381454D01*
X169136078Y-146431448D01*
X169070000Y-146503930D01*
X169070000Y-145701633D01*
X169068053Y-145701931D01*
X169068047Y-145701933D01*
X168877342Y-145772562D01*
X168877335Y-145772565D01*
X168704732Y-145880149D01*
X168557331Y-146020264D01*
X168557330Y-146020266D01*
X168441143Y-146187195D01*
X168360940Y-146374092D01*
X168320000Y-146573309D01*
X168320000Y-146825000D01*
X169020000Y-146825000D01*
X169020000Y-147325000D01*
X168320000Y-147325000D01*
X168320000Y-147525713D01*
X161680000Y-147525713D01*
X161680000Y-147325000D01*
X160980000Y-147325000D01*
X160980000Y-146825000D01*
X161680000Y-146825000D01*
X161680000Y-146624286D01*
X161664581Y-146472661D01*
X161603700Y-146278618D01*
X161603695Y-146278608D01*
X161504994Y-146100784D01*
X161504994Y-146100783D01*
X161372521Y-145946469D01*
X161372520Y-145946468D01*
X161211695Y-145821981D01*
X161029093Y-145732411D01*
X160930000Y-145706753D01*
X160930000Y-146508889D01*
X160905543Y-146469390D01*
X160816038Y-146401799D01*
X160708160Y-146371105D01*
X160596479Y-146381454D01*
X160496078Y-146431448D01*
X160430000Y-146503930D01*
X160430000Y-145701633D01*
X160428053Y-145701931D01*
X160428047Y-145701933D01*
X160237342Y-145772562D01*
X160237335Y-145772565D01*
X160064732Y-145880149D01*
X159917331Y-146020264D01*
X159917330Y-146020266D01*
X159801143Y-146187195D01*
X159720940Y-146374092D01*
X159680000Y-146573309D01*
X159680000Y-146825000D01*
X160380000Y-146825000D01*
X160380000Y-147325000D01*
X159680000Y-147325000D01*
X159680000Y-147525713D01*
X120051916Y-147525713D01*
X120238177Y-147381888D01*
X120426186Y-147186881D01*
X120583799Y-146966579D01*
X120694893Y-146750500D01*
X120707649Y-146725690D01*
X120707651Y-146725684D01*
X120707656Y-146725675D01*
X120795118Y-146469305D01*
X120844319Y-146202933D01*
X120854212Y-145932235D01*
X120824586Y-145662982D01*
X120756072Y-145400912D01*
X120650130Y-145151610D01*
X120557606Y-145000004D01*
X124170093Y-145000004D01*
X124189692Y-145261545D01*
X124189693Y-145261550D01*
X124248058Y-145517270D01*
X124343883Y-145761426D01*
X124343882Y-145761426D01*
X124475027Y-145988573D01*
X124522874Y-146048571D01*
X125322452Y-145248993D01*
X125332188Y-145278956D01*
X125420186Y-145417619D01*
X125539903Y-145530040D01*
X125674510Y-145604041D01*
X124875830Y-146402720D01*
X125047546Y-146519793D01*
X125047550Y-146519795D01*
X125283854Y-146633594D01*
X125283858Y-146633595D01*
X125534494Y-146710907D01*
X125534500Y-146710909D01*
X125793848Y-146749999D01*
X125793857Y-146750000D01*
X126056143Y-146750000D01*
X126056151Y-146749999D01*
X126315499Y-146710909D01*
X126315505Y-146710907D01*
X126566143Y-146633595D01*
X126802445Y-146519798D01*
X126802447Y-146519797D01*
X126974168Y-146402720D01*
X126172534Y-145601086D01*
X126240629Y-145574126D01*
X126373492Y-145477595D01*
X126478175Y-145351055D01*
X126526631Y-145248078D01*
X127327125Y-146048572D01*
X127374971Y-145988573D01*
X127506116Y-145761426D01*
X127601941Y-145517270D01*
X127660306Y-145261550D01*
X127660307Y-145261545D01*
X127679907Y-145000004D01*
X129249592Y-145000004D01*
X129269196Y-145261620D01*
X129269197Y-145261625D01*
X129327576Y-145517402D01*
X129327578Y-145517411D01*
X129327580Y-145517416D01*
X129423432Y-145761643D01*
X129554614Y-145988857D01*
X129617541Y-146067765D01*
X129718198Y-146193985D01*
X129872359Y-146337024D01*
X129910521Y-146372433D01*
X130127296Y-146520228D01*
X130127301Y-146520230D01*
X130127302Y-146520231D01*
X130127303Y-146520232D01*
X130219747Y-146564750D01*
X130363673Y-146634061D01*
X130363674Y-146634061D01*
X130363677Y-146634063D01*
X130614385Y-146711396D01*
X130873818Y-146750500D01*
X131136182Y-146750500D01*
X131395615Y-146711396D01*
X131646323Y-146634063D01*
X131882704Y-146520228D01*
X132099479Y-146372433D01*
X132179839Y-146297870D01*
X134334500Y-146297870D01*
X134334501Y-146297876D01*
X134340908Y-146357483D01*
X134391202Y-146492328D01*
X134391206Y-146492335D01*
X134477452Y-146607544D01*
X134477455Y-146607547D01*
X134592664Y-146693793D01*
X134592671Y-146693797D01*
X134727517Y-146744091D01*
X134727516Y-146744091D01*
X134734444Y-146744835D01*
X134787127Y-146750500D01*
X137382872Y-146750499D01*
X137442483Y-146744091D01*
X137577331Y-146693796D01*
X137692546Y-146607546D01*
X137778796Y-146492331D01*
X137829091Y-146357483D01*
X137835500Y-146297873D01*
X137835499Y-144250003D01*
X157694435Y-144250003D01*
X157714630Y-144429249D01*
X157714631Y-144429254D01*
X157774211Y-144599523D01*
X157844999Y-144712180D01*
X157870184Y-144752262D01*
X157997738Y-144879816D01*
X158150478Y-144975789D01*
X158315175Y-145033419D01*
X158320745Y-145035368D01*
X158320750Y-145035369D01*
X158499996Y-145055565D01*
X158500000Y-145055565D01*
X158500004Y-145055565D01*
X158679249Y-145035369D01*
X158679252Y-145035368D01*
X158679255Y-145035368D01*
X158849522Y-144975789D01*
X159002262Y-144879816D01*
X159129816Y-144752262D01*
X159225789Y-144599522D01*
X159285368Y-144429255D01*
X159286595Y-144418365D01*
X159305565Y-144250003D01*
X159305565Y-144249996D01*
X159285369Y-144070750D01*
X159285368Y-144070745D01*
X159261405Y-144002262D01*
X159225789Y-143900478D01*
X159129816Y-143747738D01*
X159002262Y-143620184D01*
X158979157Y-143605666D01*
X158849523Y-143524211D01*
X158768081Y-143495713D01*
X159680000Y-143495713D01*
X159695418Y-143647338D01*
X159756299Y-143841381D01*
X159756304Y-143841391D01*
X159855005Y-144019215D01*
X159855005Y-144019216D01*
X159987478Y-144173530D01*
X159987479Y-144173531D01*
X160148304Y-144298018D01*
X160330907Y-144387589D01*
X160430000Y-144413244D01*
X160430000Y-143611110D01*
X160454457Y-143650610D01*
X160543962Y-143718201D01*
X160651840Y-143748895D01*
X160763521Y-143738546D01*
X160863922Y-143688552D01*
X160930000Y-143616069D01*
X160930000Y-144418365D01*
X160931944Y-144418069D01*
X160931945Y-144418069D01*
X161122660Y-144347436D01*
X161122664Y-144347434D01*
X161295267Y-144239850D01*
X161442668Y-144099735D01*
X161442669Y-144099733D01*
X161558855Y-143932805D01*
X161571921Y-143902358D01*
X161616447Y-143848513D01*
X161683015Y-143827289D01*
X161750491Y-143845423D01*
X161761359Y-143852880D01*
X161810201Y-143890358D01*
X161819766Y-143897697D01*
X161819769Y-143897699D01*
X161826478Y-143900478D01*
X161959764Y-143955687D01*
X162072280Y-143970500D01*
X162072287Y-143970500D01*
X162147713Y-143970500D01*
X162147720Y-143970500D01*
X162260236Y-143955687D01*
X162400233Y-143897698D01*
X162520451Y-143805451D01*
X162612698Y-143685233D01*
X162670687Y-143545236D01*
X162676642Y-143500003D01*
X163944435Y-143500003D01*
X163964630Y-143679249D01*
X163964631Y-143679254D01*
X164024211Y-143849523D01*
X164104994Y-143978087D01*
X164120184Y-144002262D01*
X164247738Y-144129816D01*
X164279065Y-144149500D01*
X164396384Y-144223217D01*
X164400478Y-144225789D01*
X164469678Y-144250003D01*
X164570745Y-144285368D01*
X164570750Y-144285369D01*
X164749996Y-144305565D01*
X164750000Y-144305565D01*
X164750004Y-144305565D01*
X164929249Y-144285369D01*
X164929252Y-144285368D01*
X164929255Y-144285368D01*
X165099522Y-144225789D01*
X165252262Y-144129816D01*
X165379816Y-144002262D01*
X165395007Y-143978084D01*
X165447339Y-143931796D01*
X165516393Y-143921146D01*
X165580242Y-143949521D01*
X165604990Y-143978082D01*
X165620184Y-144002262D01*
X165747738Y-144129816D01*
X165779065Y-144149500D01*
X165896384Y-144223217D01*
X165900478Y-144225789D01*
X165969678Y-144250003D01*
X166070745Y-144285368D01*
X166070750Y-144285369D01*
X166249996Y-144305565D01*
X166250000Y-144305565D01*
X166250004Y-144305565D01*
X166429249Y-144285369D01*
X166429252Y-144285368D01*
X166429255Y-144285368D01*
X166599522Y-144225789D01*
X166752262Y-144129816D01*
X166879816Y-144002262D01*
X166975789Y-143849522D01*
X167035368Y-143679255D01*
X167035369Y-143679249D01*
X167055565Y-143500003D01*
X167055565Y-143499996D01*
X167043735Y-143395000D01*
X167309534Y-143395000D01*
X167329312Y-143545234D01*
X167329313Y-143545236D01*
X167384825Y-143679255D01*
X167387302Y-143685233D01*
X167479549Y-143805451D01*
X167599767Y-143897698D01*
X167739764Y-143955687D01*
X167852280Y-143970500D01*
X167852287Y-143970500D01*
X167927713Y-143970500D01*
X167927720Y-143970500D01*
X168040236Y-143955687D01*
X168180233Y-143897698D01*
X168239578Y-143852160D01*
X168304746Y-143826966D01*
X168373191Y-143841004D01*
X168423181Y-143889817D01*
X168423483Y-143890358D01*
X168495005Y-144019215D01*
X168495005Y-144019216D01*
X168627478Y-144173530D01*
X168627479Y-144173531D01*
X168788304Y-144298018D01*
X168970907Y-144387589D01*
X169070000Y-144413244D01*
X169070000Y-143611110D01*
X169094457Y-143650610D01*
X169183962Y-143718201D01*
X169291840Y-143748895D01*
X169403521Y-143738546D01*
X169503922Y-143688552D01*
X169570000Y-143616069D01*
X169570000Y-144418365D01*
X169571944Y-144418069D01*
X169571945Y-144418069D01*
X169762660Y-144347436D01*
X169762664Y-144347434D01*
X169935267Y-144239850D01*
X170082668Y-144099735D01*
X170082669Y-144099733D01*
X170198856Y-143932804D01*
X170279059Y-143745907D01*
X170320000Y-143546690D01*
X170320000Y-143145000D01*
X169620000Y-143145000D01*
X169620000Y-142645000D01*
X170320000Y-142645000D01*
X170320000Y-142294286D01*
X170304581Y-142142661D01*
X170243700Y-141948618D01*
X170243695Y-141948608D01*
X170144994Y-141770784D01*
X170144994Y-141770783D01*
X170012521Y-141616469D01*
X170012520Y-141616468D01*
X169851695Y-141491981D01*
X169669093Y-141402411D01*
X169570000Y-141376753D01*
X169570000Y-142178889D01*
X169545543Y-142139390D01*
X169456038Y-142071799D01*
X169348160Y-142041105D01*
X169236479Y-142051454D01*
X169136078Y-142101448D01*
X169070000Y-142173930D01*
X169070000Y-141371633D01*
X169068053Y-141371931D01*
X169068047Y-141371933D01*
X168877342Y-141442562D01*
X168877335Y-141442565D01*
X168704732Y-141550149D01*
X168557331Y-141690264D01*
X168557330Y-141690266D01*
X168441143Y-141857195D01*
X168360940Y-142044092D01*
X168320000Y-142243309D01*
X168320000Y-142764615D01*
X168300315Y-142831654D01*
X168247511Y-142877409D01*
X168178353Y-142887353D01*
X168148548Y-142879176D01*
X168040239Y-142834314D01*
X168040237Y-142834313D01*
X168040236Y-142834313D01*
X168020039Y-142831654D01*
X167927727Y-142819500D01*
X167927720Y-142819500D01*
X167852280Y-142819500D01*
X167852272Y-142819500D01*
X167739764Y-142834313D01*
X167739763Y-142834313D01*
X167599770Y-142892300D01*
X167599767Y-142892301D01*
X167599767Y-142892302D01*
X167479549Y-142984549D01*
X167407188Y-143078852D01*
X167387300Y-143104770D01*
X167329313Y-143244763D01*
X167329312Y-143244765D01*
X167309534Y-143394999D01*
X167309534Y-143395000D01*
X167043735Y-143395000D01*
X167035369Y-143320750D01*
X167035368Y-143320745D01*
X167012681Y-143255909D01*
X166975789Y-143150478D01*
X166879816Y-142997738D01*
X166752262Y-142870184D01*
X166728684Y-142855369D01*
X166599523Y-142774211D01*
X166429254Y-142714631D01*
X166429249Y-142714630D01*
X166250004Y-142694435D01*
X166249996Y-142694435D01*
X166070750Y-142714630D01*
X166070745Y-142714631D01*
X165900476Y-142774211D01*
X165747737Y-142870184D01*
X165620184Y-142997737D01*
X165604994Y-143021913D01*
X165552659Y-143068204D01*
X165483605Y-143078852D01*
X165419757Y-143050477D01*
X165395006Y-143021913D01*
X165379815Y-142997737D01*
X165252262Y-142870184D01*
X165099523Y-142774211D01*
X164929254Y-142714631D01*
X164929249Y-142714630D01*
X164750004Y-142694435D01*
X164749996Y-142694435D01*
X164570750Y-142714630D01*
X164570745Y-142714631D01*
X164400476Y-142774211D01*
X164247737Y-142870184D01*
X164120184Y-142997737D01*
X164024211Y-143150476D01*
X163964631Y-143320745D01*
X163964630Y-143320750D01*
X163944435Y-143499996D01*
X163944435Y-143500003D01*
X162676642Y-143500003D01*
X162690466Y-143395000D01*
X162670687Y-143244764D01*
X162612698Y-143104767D01*
X162520451Y-142984549D01*
X162400233Y-142892302D01*
X162400229Y-142892300D01*
X162311069Y-142855369D01*
X162260236Y-142834313D01*
X162240039Y-142831654D01*
X162147727Y-142819500D01*
X162147720Y-142819500D01*
X162072280Y-142819500D01*
X162072272Y-142819500D01*
X161959764Y-142834313D01*
X161959760Y-142834314D01*
X161851452Y-142879176D01*
X161781982Y-142886645D01*
X161719503Y-142855369D01*
X161683852Y-142795280D01*
X161680000Y-142764615D01*
X161680000Y-142294286D01*
X161664581Y-142142661D01*
X161603700Y-141948618D01*
X161603695Y-141948608D01*
X161504994Y-141770784D01*
X161504994Y-141770783D01*
X161372521Y-141616469D01*
X161372520Y-141616468D01*
X161211695Y-141491981D01*
X161029093Y-141402411D01*
X160930000Y-141376753D01*
X160930000Y-142178889D01*
X160905543Y-142139390D01*
X160816038Y-142071799D01*
X160708160Y-142041105D01*
X160596479Y-142051454D01*
X160496078Y-142101448D01*
X160430000Y-142173930D01*
X160430000Y-141371633D01*
X160428053Y-141371931D01*
X160428047Y-141371933D01*
X160237342Y-141442562D01*
X160237335Y-141442565D01*
X160064732Y-141550149D01*
X159917331Y-141690264D01*
X159917330Y-141690266D01*
X159801143Y-141857195D01*
X159720940Y-142044092D01*
X159680000Y-142243309D01*
X159680000Y-142645000D01*
X160380000Y-142645000D01*
X160380000Y-143145000D01*
X159680000Y-143145000D01*
X159680000Y-143495713D01*
X158768081Y-143495713D01*
X158679254Y-143464631D01*
X158679249Y-143464630D01*
X158500004Y-143444435D01*
X158499996Y-143444435D01*
X158320750Y-143464630D01*
X158320745Y-143464631D01*
X158150476Y-143524211D01*
X157997737Y-143620184D01*
X157870184Y-143747737D01*
X157774211Y-143900476D01*
X157714631Y-144070745D01*
X157714630Y-144070750D01*
X157694435Y-144249996D01*
X157694435Y-144250003D01*
X137835499Y-144250003D01*
X137835499Y-143702128D01*
X137829091Y-143642517D01*
X137820761Y-143620184D01*
X137778797Y-143507671D01*
X137778793Y-143507664D01*
X137692547Y-143392455D01*
X137692544Y-143392452D01*
X137577335Y-143306206D01*
X137577328Y-143306202D01*
X137442482Y-143255908D01*
X137442483Y-143255908D01*
X137382883Y-143249501D01*
X137382881Y-143249500D01*
X137382873Y-143249500D01*
X137382864Y-143249500D01*
X134787129Y-143249500D01*
X134787123Y-143249501D01*
X134727516Y-143255908D01*
X134592671Y-143306202D01*
X134592664Y-143306206D01*
X134477455Y-143392452D01*
X134477452Y-143392455D01*
X134391206Y-143507664D01*
X134391202Y-143507671D01*
X134340908Y-143642517D01*
X134334501Y-143702116D01*
X134334501Y-143702123D01*
X134334500Y-143702135D01*
X134334500Y-146297870D01*
X132179839Y-146297870D01*
X132291805Y-146193981D01*
X132455386Y-145988857D01*
X132586568Y-145761643D01*
X132682420Y-145517416D01*
X132740802Y-145261630D01*
X132740808Y-145261550D01*
X132760408Y-145000004D01*
X132760408Y-144999995D01*
X132740803Y-144738379D01*
X132740802Y-144738374D01*
X132740802Y-144738370D01*
X132682420Y-144482584D01*
X132586568Y-144238357D01*
X132455386Y-144011143D01*
X132291805Y-143806019D01*
X132291804Y-143806018D01*
X132291801Y-143806014D01*
X132099479Y-143627567D01*
X132055052Y-143597277D01*
X131882704Y-143479772D01*
X131882700Y-143479770D01*
X131882697Y-143479768D01*
X131882696Y-143479767D01*
X131646325Y-143365938D01*
X131646327Y-143365938D01*
X131395623Y-143288606D01*
X131395619Y-143288605D01*
X131395615Y-143288604D01*
X131270823Y-143269794D01*
X131136187Y-143249500D01*
X131136182Y-143249500D01*
X130873818Y-143249500D01*
X130873812Y-143249500D01*
X130712247Y-143273853D01*
X130614385Y-143288604D01*
X130614382Y-143288605D01*
X130614376Y-143288606D01*
X130363673Y-143365938D01*
X130127303Y-143479767D01*
X130127302Y-143479768D01*
X130127296Y-143479771D01*
X130127296Y-143479772D01*
X130126654Y-143480210D01*
X129910520Y-143627567D01*
X129718198Y-143806014D01*
X129554614Y-144011143D01*
X129423432Y-144238356D01*
X129327582Y-144482578D01*
X129327576Y-144482597D01*
X129269197Y-144738374D01*
X129269196Y-144738379D01*
X129249592Y-144999995D01*
X129249592Y-145000004D01*
X127679907Y-145000004D01*
X127679907Y-144999995D01*
X127660307Y-144738454D01*
X127660306Y-144738449D01*
X127601941Y-144482729D01*
X127506116Y-144238573D01*
X127506117Y-144238573D01*
X127374972Y-144011426D01*
X127327124Y-143951427D01*
X126527546Y-144751004D01*
X126517812Y-144721044D01*
X126429814Y-144582381D01*
X126310097Y-144469960D01*
X126175489Y-144395958D01*
X126974168Y-143597278D01*
X126802454Y-143480206D01*
X126802445Y-143480201D01*
X126566142Y-143366404D01*
X126566144Y-143366404D01*
X126315505Y-143289092D01*
X126315499Y-143289090D01*
X126056151Y-143250000D01*
X125793848Y-143250000D01*
X125534500Y-143289090D01*
X125534494Y-143289092D01*
X125283858Y-143366404D01*
X125283854Y-143366405D01*
X125047547Y-143480205D01*
X125047539Y-143480210D01*
X124875830Y-143597277D01*
X125677466Y-144398913D01*
X125609371Y-144425874D01*
X125476508Y-144522405D01*
X125371825Y-144648945D01*
X125323368Y-144751920D01*
X124522874Y-143951427D01*
X124475028Y-144011425D01*
X124343883Y-144238573D01*
X124248058Y-144482729D01*
X124189693Y-144738449D01*
X124189692Y-144738454D01*
X124170093Y-144999995D01*
X124170093Y-145000004D01*
X120557606Y-145000004D01*
X120509018Y-144920390D01*
X120475252Y-144879816D01*
X120335746Y-144712180D01*
X120335740Y-144712175D01*
X120134002Y-144531418D01*
X119908092Y-144381957D01*
X119872809Y-144365417D01*
X119662824Y-144266980D01*
X119662819Y-144266978D01*
X119662814Y-144266976D01*
X119403442Y-144188942D01*
X119403428Y-144188939D01*
X119287791Y-144171921D01*
X119135439Y-144149500D01*
X118932369Y-144149500D01*
X118932351Y-144149500D01*
X118729844Y-144164323D01*
X118729831Y-144164325D01*
X118465453Y-144223217D01*
X118465446Y-144223220D01*
X118212439Y-144319987D01*
X117976226Y-144452557D01*
X117761822Y-144618112D01*
X117573822Y-144813109D01*
X117573816Y-144813116D01*
X117416202Y-145033419D01*
X117416199Y-145033424D01*
X117292350Y-145274309D01*
X117292343Y-145274327D01*
X117204884Y-145530685D01*
X117204882Y-145530695D01*
X117167624Y-145732411D01*
X117155681Y-145797068D01*
X117155680Y-145797075D01*
X117145787Y-146067763D01*
X116004051Y-146067763D01*
X116000670Y-146003243D01*
X116000500Y-145996753D01*
X116000500Y-140000003D01*
X162194435Y-140000003D01*
X162214630Y-140179249D01*
X162214631Y-140179254D01*
X162274211Y-140349523D01*
X162370184Y-140502262D01*
X162497738Y-140629816D01*
X162650478Y-140725789D01*
X162820745Y-140785368D01*
X162820750Y-140785369D01*
X162999996Y-140805565D01*
X163000000Y-140805565D01*
X163000004Y-140805565D01*
X163179249Y-140785369D01*
X163179252Y-140785368D01*
X163179255Y-140785368D01*
X163349522Y-140725789D01*
X163502262Y-140629816D01*
X163629816Y-140502262D01*
X163725789Y-140349522D01*
X163785368Y-140179255D01*
X163805565Y-140000003D01*
X167194435Y-140000003D01*
X167214630Y-140179249D01*
X167214631Y-140179254D01*
X167274211Y-140349523D01*
X167370184Y-140502262D01*
X167497738Y-140629816D01*
X167650478Y-140725789D01*
X167820745Y-140785368D01*
X167820750Y-140785369D01*
X167999996Y-140805565D01*
X168000000Y-140805565D01*
X168000004Y-140805565D01*
X168179249Y-140785369D01*
X168179252Y-140785368D01*
X168179255Y-140785368D01*
X168349522Y-140725789D01*
X168502262Y-140629816D01*
X168629816Y-140502262D01*
X168725789Y-140349522D01*
X168785368Y-140179255D01*
X168805565Y-140000000D01*
X168785368Y-139820745D01*
X168725789Y-139650478D01*
X168629816Y-139497738D01*
X168502262Y-139370184D01*
X168349523Y-139274211D01*
X168179254Y-139214631D01*
X168179249Y-139214630D01*
X168000004Y-139194435D01*
X167999996Y-139194435D01*
X167820750Y-139214630D01*
X167820745Y-139214631D01*
X167650476Y-139274211D01*
X167497737Y-139370184D01*
X167370184Y-139497737D01*
X167274211Y-139650476D01*
X167214631Y-139820745D01*
X167214630Y-139820750D01*
X167194435Y-139999996D01*
X167194435Y-140000003D01*
X163805565Y-140000003D01*
X163805565Y-140000000D01*
X163795396Y-139909746D01*
X163807450Y-139840924D01*
X163854799Y-139789544D01*
X163877660Y-139778821D01*
X163945080Y-139755231D01*
X164097820Y-139659258D01*
X164225374Y-139531704D01*
X164321347Y-139378964D01*
X164380926Y-139208697D01*
X164401123Y-139029442D01*
X164380926Y-138850187D01*
X164321347Y-138679920D01*
X164225374Y-138527180D01*
X164097820Y-138399626D01*
X163945081Y-138303653D01*
X163774812Y-138244073D01*
X163774807Y-138244072D01*
X163595562Y-138223877D01*
X163595554Y-138223877D01*
X163416308Y-138244072D01*
X163416303Y-138244073D01*
X163246034Y-138303653D01*
X163093295Y-138399626D01*
X162965742Y-138527179D01*
X162869769Y-138679918D01*
X162810189Y-138850187D01*
X162810188Y-138850192D01*
X162789993Y-139029438D01*
X162789993Y-139029446D01*
X162800161Y-139119695D01*
X162788106Y-139188517D01*
X162740757Y-139239896D01*
X162717896Y-139250619D01*
X162650480Y-139274209D01*
X162497737Y-139370184D01*
X162370184Y-139497737D01*
X162274211Y-139650476D01*
X162214631Y-139820745D01*
X162214630Y-139820750D01*
X162194435Y-139999996D01*
X162194435Y-140000003D01*
X116000500Y-140000003D01*
X116000500Y-135500003D01*
X118794435Y-135500003D01*
X118814630Y-135679249D01*
X118814631Y-135679254D01*
X118874211Y-135849523D01*
X118933849Y-135944435D01*
X118970184Y-136002262D01*
X119097738Y-136129816D01*
X119250478Y-136225789D01*
X119313202Y-136247737D01*
X119420745Y-136285368D01*
X119420750Y-136285369D01*
X119599996Y-136305565D01*
X119600000Y-136305565D01*
X119600004Y-136305565D01*
X119779249Y-136285369D01*
X119779252Y-136285368D01*
X119779255Y-136285368D01*
X119949522Y-136225789D01*
X120102262Y-136129816D01*
X120229816Y-136002262D01*
X120231235Y-136000003D01*
X135194435Y-136000003D01*
X135214630Y-136179249D01*
X135214631Y-136179254D01*
X135274211Y-136349523D01*
X135370184Y-136502262D01*
X135497738Y-136629816D01*
X135650478Y-136725789D01*
X135719678Y-136750003D01*
X135820745Y-136785368D01*
X135820750Y-136785369D01*
X135999996Y-136805565D01*
X136000000Y-136805565D01*
X136000004Y-136805565D01*
X136179249Y-136785369D01*
X136179252Y-136785368D01*
X136179255Y-136785368D01*
X136280322Y-136750003D01*
X165194435Y-136750003D01*
X165214630Y-136929249D01*
X165214631Y-136929254D01*
X165274211Y-137099523D01*
X165370184Y-137252262D01*
X165497738Y-137379816D01*
X165650478Y-137475789D01*
X165820745Y-137535368D01*
X165820750Y-137535369D01*
X165999996Y-137555565D01*
X166000000Y-137555565D01*
X166000004Y-137555565D01*
X166179249Y-137535369D01*
X166179252Y-137535368D01*
X166179255Y-137535368D01*
X166349522Y-137475789D01*
X166502262Y-137379816D01*
X166629816Y-137252262D01*
X166725789Y-137099522D01*
X166785368Y-136929255D01*
X166785369Y-136929249D01*
X166805565Y-136750003D01*
X166805565Y-136749996D01*
X166785369Y-136570750D01*
X166785368Y-136570745D01*
X166725788Y-136400476D01*
X166653461Y-136285369D01*
X166629816Y-136247738D01*
X166502262Y-136120184D01*
X166349523Y-136024211D01*
X166179254Y-135964631D01*
X166179249Y-135964630D01*
X166000004Y-135944435D01*
X165999996Y-135944435D01*
X165820750Y-135964630D01*
X165820745Y-135964631D01*
X165650476Y-136024211D01*
X165497737Y-136120184D01*
X165370184Y-136247737D01*
X165274211Y-136400476D01*
X165214631Y-136570745D01*
X165214630Y-136570750D01*
X165194435Y-136749996D01*
X165194435Y-136750003D01*
X136280322Y-136750003D01*
X136349522Y-136725789D01*
X136502262Y-136629816D01*
X136629816Y-136502262D01*
X136725789Y-136349522D01*
X136785368Y-136179255D01*
X136785369Y-136179249D01*
X136805565Y-136000003D01*
X136805565Y-135999996D01*
X136785369Y-135820750D01*
X136785368Y-135820745D01*
X136725789Y-135650478D01*
X136629816Y-135497738D01*
X136502262Y-135370184D01*
X136349523Y-135274211D01*
X136179254Y-135214631D01*
X136179249Y-135214630D01*
X136000004Y-135194435D01*
X135999996Y-135194435D01*
X135820750Y-135214630D01*
X135820745Y-135214631D01*
X135650476Y-135274211D01*
X135497737Y-135370184D01*
X135370184Y-135497737D01*
X135274211Y-135650476D01*
X135214631Y-135820745D01*
X135214630Y-135820750D01*
X135194435Y-135999996D01*
X135194435Y-136000003D01*
X120231235Y-136000003D01*
X120325789Y-135849522D01*
X120385368Y-135679255D01*
X120385369Y-135679249D01*
X120405565Y-135500003D01*
X120405565Y-135499996D01*
X120385369Y-135320750D01*
X120385368Y-135320745D01*
X120325788Y-135150476D01*
X120286582Y-135088080D01*
X120229816Y-134997738D01*
X120102262Y-134870184D01*
X120069379Y-134849522D01*
X119949523Y-134774211D01*
X119779254Y-134714631D01*
X119779249Y-134714630D01*
X119600004Y-134694435D01*
X119599996Y-134694435D01*
X119420750Y-134714630D01*
X119420745Y-134714631D01*
X119250476Y-134774211D01*
X119097737Y-134870184D01*
X118970184Y-134997737D01*
X118874211Y-135150476D01*
X118814631Y-135320745D01*
X118814630Y-135320750D01*
X118794435Y-135499996D01*
X118794435Y-135500003D01*
X116000500Y-135500003D01*
X116000500Y-134500003D01*
X169444435Y-134500003D01*
X169464630Y-134679249D01*
X169464631Y-134679254D01*
X169524211Y-134849523D01*
X169617341Y-134997737D01*
X169620184Y-135002262D01*
X169747738Y-135129816D01*
X169838080Y-135186582D01*
X169882721Y-135214632D01*
X169900478Y-135225789D01*
X170038860Y-135274211D01*
X170070745Y-135285368D01*
X170070750Y-135285369D01*
X170249996Y-135305565D01*
X170250000Y-135305565D01*
X170250004Y-135305565D01*
X170429249Y-135285369D01*
X170429252Y-135285368D01*
X170429255Y-135285368D01*
X170599522Y-135225789D01*
X170752262Y-135129816D01*
X170879816Y-135002262D01*
X170975789Y-134849522D01*
X171035368Y-134679255D01*
X171055565Y-134500000D01*
X171035368Y-134320745D01*
X170975789Y-134150478D01*
X170879816Y-133997738D01*
X170752262Y-133870184D01*
X170649422Y-133805565D01*
X170599523Y-133774211D01*
X170429254Y-133714631D01*
X170429249Y-133714630D01*
X170250004Y-133694435D01*
X170249996Y-133694435D01*
X170070750Y-133714630D01*
X170070745Y-133714631D01*
X169900476Y-133774211D01*
X169747737Y-133870184D01*
X169620184Y-133997737D01*
X169524211Y-134150476D01*
X169464631Y-134320745D01*
X169464630Y-134320750D01*
X169444435Y-134499996D01*
X169444435Y-134500003D01*
X116000500Y-134500003D01*
X116000500Y-133000003D01*
X150194435Y-133000003D01*
X150214630Y-133179249D01*
X150214631Y-133179254D01*
X150274211Y-133349523D01*
X150370184Y-133502262D01*
X150497738Y-133629816D01*
X150588080Y-133686582D01*
X150632721Y-133714632D01*
X150650478Y-133725789D01*
X150788860Y-133774211D01*
X150820745Y-133785368D01*
X150820750Y-133785369D01*
X150999996Y-133805565D01*
X151000000Y-133805565D01*
X151000004Y-133805565D01*
X151179249Y-133785369D01*
X151179252Y-133785368D01*
X151179255Y-133785368D01*
X151349522Y-133725789D01*
X151502262Y-133629816D01*
X151629816Y-133502262D01*
X151725789Y-133349522D01*
X151785368Y-133179255D01*
X151805565Y-133000000D01*
X151785368Y-132820745D01*
X151725789Y-132650478D01*
X151629816Y-132497738D01*
X151502262Y-132370184D01*
X151349523Y-132274211D01*
X151179254Y-132214631D01*
X151179249Y-132214630D01*
X151000004Y-132194435D01*
X150999996Y-132194435D01*
X150820750Y-132214630D01*
X150820745Y-132214631D01*
X150650476Y-132274211D01*
X150497737Y-132370184D01*
X150370184Y-132497737D01*
X150274211Y-132650476D01*
X150214631Y-132820745D01*
X150214630Y-132820750D01*
X150194435Y-132999996D01*
X150194435Y-133000003D01*
X116000500Y-133000003D01*
X116000500Y-131000003D01*
X135194435Y-131000003D01*
X135214630Y-131179249D01*
X135214631Y-131179254D01*
X135274211Y-131349523D01*
X135370184Y-131502262D01*
X135497738Y-131629816D01*
X135650478Y-131725789D01*
X135820745Y-131785368D01*
X135820750Y-131785369D01*
X135999996Y-131805565D01*
X136000000Y-131805565D01*
X136000004Y-131805565D01*
X136179249Y-131785369D01*
X136179252Y-131785368D01*
X136179255Y-131785368D01*
X136349522Y-131725789D01*
X136502262Y-131629816D01*
X136629816Y-131502262D01*
X136725789Y-131349522D01*
X136785368Y-131179255D01*
X136805565Y-131000000D01*
X136785368Y-130820745D01*
X136725789Y-130650478D01*
X136629816Y-130497738D01*
X136502262Y-130370184D01*
X136349523Y-130274211D01*
X136179254Y-130214631D01*
X136179249Y-130214630D01*
X136000004Y-130194435D01*
X135999996Y-130194435D01*
X135820750Y-130214630D01*
X135820745Y-130214631D01*
X135650476Y-130274211D01*
X135497737Y-130370184D01*
X135370184Y-130497737D01*
X135274211Y-130650476D01*
X135214631Y-130820745D01*
X135214630Y-130820750D01*
X135194435Y-130999996D01*
X135194435Y-131000003D01*
X116000500Y-131000003D01*
X116000500Y-128000003D01*
X150194435Y-128000003D01*
X150214630Y-128179249D01*
X150214631Y-128179254D01*
X150274211Y-128349523D01*
X150370184Y-128502262D01*
X150497738Y-128629816D01*
X150650478Y-128725789D01*
X150820745Y-128785368D01*
X150820750Y-128785369D01*
X150999996Y-128805565D01*
X151000000Y-128805565D01*
X151000004Y-128805565D01*
X151179249Y-128785369D01*
X151179252Y-128785368D01*
X151179255Y-128785368D01*
X151349522Y-128725789D01*
X151502262Y-128629816D01*
X151629816Y-128502262D01*
X151725789Y-128349522D01*
X151785368Y-128179255D01*
X151805565Y-128000000D01*
X151785368Y-127820745D01*
X151725789Y-127650478D01*
X151629816Y-127497738D01*
X151502262Y-127370184D01*
X151469379Y-127349522D01*
X151349523Y-127274211D01*
X151179254Y-127214631D01*
X151179249Y-127214630D01*
X151000004Y-127194435D01*
X150999996Y-127194435D01*
X150820750Y-127214630D01*
X150820745Y-127214631D01*
X150650476Y-127274211D01*
X150497737Y-127370184D01*
X150370184Y-127497737D01*
X150274211Y-127650476D01*
X150214631Y-127820745D01*
X150214630Y-127820750D01*
X150194435Y-127999996D01*
X150194435Y-128000003D01*
X116000500Y-128000003D01*
X116000500Y-127000003D01*
X160194435Y-127000003D01*
X160214630Y-127179249D01*
X160214631Y-127179254D01*
X160274211Y-127349523D01*
X160367341Y-127497737D01*
X160370184Y-127502262D01*
X160497738Y-127629816D01*
X160650478Y-127725789D01*
X160820745Y-127785368D01*
X160820750Y-127785369D01*
X160999996Y-127805565D01*
X161000000Y-127805565D01*
X161000004Y-127805565D01*
X161179249Y-127785369D01*
X161179252Y-127785368D01*
X161179255Y-127785368D01*
X161349522Y-127725789D01*
X161502262Y-127629816D01*
X161629816Y-127502262D01*
X161725789Y-127349522D01*
X161785368Y-127179255D01*
X161805565Y-127000000D01*
X161785368Y-126820745D01*
X161725789Y-126650478D01*
X161629816Y-126497738D01*
X161502262Y-126370184D01*
X161399422Y-126305565D01*
X161349523Y-126274211D01*
X161179254Y-126214631D01*
X161179249Y-126214630D01*
X161000004Y-126194435D01*
X160999996Y-126194435D01*
X160820750Y-126214630D01*
X160820745Y-126214631D01*
X160650476Y-126274211D01*
X160497737Y-126370184D01*
X160370184Y-126497737D01*
X160274211Y-126650476D01*
X160214631Y-126820745D01*
X160214630Y-126820750D01*
X160194435Y-126999996D01*
X160194435Y-127000003D01*
X116000500Y-127000003D01*
X116000500Y-124500003D01*
X121694435Y-124500003D01*
X121714630Y-124679249D01*
X121714631Y-124679254D01*
X121774211Y-124849523D01*
X121809425Y-124905565D01*
X121870184Y-125002262D01*
X121997738Y-125129816D01*
X122088080Y-125186582D01*
X122132721Y-125214632D01*
X122150478Y-125225789D01*
X122219678Y-125250003D01*
X122320745Y-125285368D01*
X122320750Y-125285369D01*
X122499996Y-125305565D01*
X122500000Y-125305565D01*
X122500004Y-125305565D01*
X122679249Y-125285369D01*
X122679252Y-125285368D01*
X122679255Y-125285368D01*
X122780322Y-125250003D01*
X138944435Y-125250003D01*
X138964630Y-125429249D01*
X138964631Y-125429254D01*
X139024211Y-125599523D01*
X139120184Y-125752262D01*
X139247738Y-125879816D01*
X139293110Y-125908325D01*
X139385449Y-125966346D01*
X139400478Y-125975789D01*
X139570745Y-126035368D01*
X139570750Y-126035369D01*
X139749996Y-126055565D01*
X139750000Y-126055565D01*
X139750004Y-126055565D01*
X139929249Y-126035369D01*
X139929252Y-126035368D01*
X139929255Y-126035368D01*
X140099522Y-125975789D01*
X140114551Y-125966346D01*
X140176650Y-125927326D01*
X140243887Y-125908325D01*
X140310722Y-125928692D01*
X140347616Y-125966346D01*
X140370182Y-126002260D01*
X140370184Y-126002262D01*
X140497738Y-126129816D01*
X140576410Y-126179249D01*
X140632721Y-126214632D01*
X140650478Y-126225789D01*
X140788860Y-126274211D01*
X140820745Y-126285368D01*
X140820750Y-126285369D01*
X140999996Y-126305565D01*
X141000000Y-126305565D01*
X141000004Y-126305565D01*
X141179249Y-126285369D01*
X141179252Y-126285368D01*
X141179255Y-126285368D01*
X141349522Y-126225789D01*
X141502262Y-126129816D01*
X141629816Y-126002262D01*
X141631235Y-126000003D01*
X150194435Y-126000003D01*
X150214630Y-126179249D01*
X150214631Y-126179254D01*
X150274211Y-126349523D01*
X150367341Y-126497737D01*
X150370184Y-126502262D01*
X150497738Y-126629816D01*
X150650478Y-126725789D01*
X150820745Y-126785368D01*
X150820750Y-126785369D01*
X150999996Y-126805565D01*
X151000000Y-126805565D01*
X151000004Y-126805565D01*
X151179249Y-126785369D01*
X151179252Y-126785368D01*
X151179255Y-126785368D01*
X151349522Y-126725789D01*
X151502262Y-126629816D01*
X151629816Y-126502262D01*
X151725789Y-126349522D01*
X151785368Y-126179255D01*
X151785369Y-126179249D01*
X151805565Y-126000003D01*
X151805565Y-125999996D01*
X151785369Y-125820750D01*
X151785368Y-125820745D01*
X151761405Y-125752262D01*
X151725789Y-125650478D01*
X151629816Y-125497738D01*
X151502262Y-125370184D01*
X151349523Y-125274211D01*
X151179254Y-125214631D01*
X151179249Y-125214630D01*
X151000004Y-125194435D01*
X150999996Y-125194435D01*
X150820750Y-125214630D01*
X150820745Y-125214631D01*
X150650476Y-125274211D01*
X150497737Y-125370184D01*
X150370184Y-125497737D01*
X150274211Y-125650476D01*
X150214631Y-125820745D01*
X150214630Y-125820750D01*
X150194435Y-125999996D01*
X150194435Y-126000003D01*
X141631235Y-126000003D01*
X141725789Y-125849522D01*
X141785368Y-125679255D01*
X141785369Y-125679249D01*
X141805565Y-125500003D01*
X141805565Y-125499996D01*
X141785369Y-125320750D01*
X141785368Y-125320745D01*
X141725788Y-125150476D01*
X141686582Y-125088080D01*
X141629816Y-124997738D01*
X141502262Y-124870184D01*
X141431608Y-124825789D01*
X141349523Y-124774211D01*
X141179254Y-124714631D01*
X141179249Y-124714630D01*
X141000004Y-124694435D01*
X140999996Y-124694435D01*
X140820750Y-124714630D01*
X140820745Y-124714631D01*
X140650474Y-124774212D01*
X140573347Y-124822674D01*
X140506110Y-124841674D01*
X140439275Y-124821306D01*
X140402382Y-124783652D01*
X140379816Y-124747738D01*
X140252262Y-124620184D01*
X140099523Y-124524211D01*
X139929254Y-124464631D01*
X139929249Y-124464630D01*
X139750004Y-124444435D01*
X139749996Y-124444435D01*
X139570750Y-124464630D01*
X139570745Y-124464631D01*
X139400476Y-124524211D01*
X139247737Y-124620184D01*
X139120184Y-124747737D01*
X139024211Y-124900476D01*
X138964631Y-125070745D01*
X138964630Y-125070750D01*
X138944435Y-125249996D01*
X138944435Y-125250003D01*
X122780322Y-125250003D01*
X122849522Y-125225789D01*
X123002262Y-125129816D01*
X123129816Y-125002262D01*
X123225789Y-124849522D01*
X123285368Y-124679255D01*
X123288866Y-124648203D01*
X123315930Y-124583792D01*
X123373523Y-124544235D01*
X123398196Y-124538867D01*
X123429255Y-124535368D01*
X123599522Y-124475789D01*
X123752262Y-124379816D01*
X123879816Y-124252262D01*
X123975487Y-124100003D01*
X133994435Y-124100003D01*
X134014630Y-124279249D01*
X134014631Y-124279254D01*
X134074211Y-124449523D01*
X134170184Y-124602262D01*
X134297738Y-124729816D01*
X134326259Y-124747737D01*
X134445520Y-124822674D01*
X134450478Y-124825789D01*
X134518306Y-124849523D01*
X134620745Y-124885368D01*
X134620750Y-124885369D01*
X134799996Y-124905565D01*
X134800000Y-124905565D01*
X134800004Y-124905565D01*
X134979249Y-124885369D01*
X134979252Y-124885368D01*
X134979255Y-124885368D01*
X135149522Y-124825789D01*
X135302262Y-124729816D01*
X135429816Y-124602262D01*
X135525789Y-124449522D01*
X135585368Y-124279255D01*
X135585369Y-124279249D01*
X135605565Y-124100003D01*
X135605565Y-124099996D01*
X135585369Y-123920750D01*
X135585368Y-123920745D01*
X135567676Y-123870184D01*
X135525789Y-123750478D01*
X135503265Y-123714632D01*
X135429815Y-123597737D01*
X135302262Y-123470184D01*
X135149523Y-123374211D01*
X134979254Y-123314631D01*
X134979249Y-123314630D01*
X134800004Y-123294435D01*
X134799996Y-123294435D01*
X134620750Y-123314630D01*
X134620745Y-123314631D01*
X134450476Y-123374211D01*
X134297737Y-123470184D01*
X134170184Y-123597737D01*
X134074211Y-123750476D01*
X134014631Y-123920745D01*
X134014630Y-123920750D01*
X133994435Y-124099996D01*
X133994435Y-124100003D01*
X123975487Y-124100003D01*
X123975789Y-124099522D01*
X124035368Y-123929255D01*
X124035369Y-123929249D01*
X124055565Y-123750003D01*
X124055565Y-123749996D01*
X124035369Y-123570750D01*
X124035368Y-123570745D01*
X123975788Y-123400476D01*
X123879815Y-123247737D01*
X123752262Y-123120184D01*
X123599523Y-123024211D01*
X123429254Y-122964631D01*
X123429249Y-122964630D01*
X123250004Y-122944435D01*
X123249996Y-122944435D01*
X123070750Y-122964630D01*
X123070745Y-122964631D01*
X122900476Y-123024211D01*
X122747737Y-123120184D01*
X122620184Y-123247737D01*
X122524210Y-123400478D01*
X122464630Y-123570750D01*
X122461132Y-123601798D01*
X122434064Y-123666211D01*
X122376468Y-123705765D01*
X122351798Y-123711132D01*
X122320750Y-123714630D01*
X122150478Y-123774210D01*
X121997737Y-123870184D01*
X121870184Y-123997737D01*
X121774211Y-124150476D01*
X121714631Y-124320745D01*
X121714630Y-124320750D01*
X121694435Y-124499996D01*
X121694435Y-124500003D01*
X116000500Y-124500003D01*
X116000500Y-118800003D01*
X125694435Y-118800003D01*
X125714630Y-118979249D01*
X125714631Y-118979254D01*
X125774211Y-119149523D01*
X125870184Y-119302262D01*
X125997738Y-119429816D01*
X126150478Y-119525789D01*
X126320745Y-119585368D01*
X126320750Y-119585369D01*
X126499996Y-119605565D01*
X126500000Y-119605565D01*
X126500004Y-119605565D01*
X126679249Y-119585369D01*
X126679252Y-119585368D01*
X126679255Y-119585368D01*
X126849522Y-119525789D01*
X127002262Y-119429816D01*
X127129816Y-119302262D01*
X127225789Y-119149522D01*
X127285368Y-118979255D01*
X127305565Y-118800000D01*
X127285368Y-118620745D01*
X127225789Y-118450478D01*
X127129816Y-118297738D01*
X127002262Y-118170184D01*
X126849523Y-118074211D01*
X126679254Y-118014631D01*
X126679249Y-118014630D01*
X126500004Y-117994435D01*
X126499996Y-117994435D01*
X126320750Y-118014630D01*
X126320745Y-118014631D01*
X126150476Y-118074211D01*
X125997737Y-118170184D01*
X125870184Y-118297737D01*
X125774211Y-118450476D01*
X125714631Y-118620745D01*
X125714630Y-118620750D01*
X125694435Y-118799996D01*
X125694435Y-118800003D01*
X116000500Y-118800003D01*
X116000500Y-117200003D01*
X121594435Y-117200003D01*
X121614630Y-117379249D01*
X121614631Y-117379254D01*
X121674211Y-117549523D01*
X121705926Y-117599996D01*
X121770184Y-117702262D01*
X121897738Y-117829816D01*
X122050478Y-117925789D01*
X122118306Y-117949523D01*
X122220745Y-117985368D01*
X122220750Y-117985369D01*
X122399996Y-118005565D01*
X122399997Y-118005565D01*
X122399998Y-118005564D01*
X122400000Y-118005565D01*
X122424764Y-118002774D01*
X122493583Y-118014827D01*
X122543641Y-118060021D01*
X122570181Y-118102258D01*
X122570182Y-118102260D01*
X122570184Y-118102262D01*
X122697738Y-118229816D01*
X122788080Y-118286582D01*
X122805833Y-118297737D01*
X122850478Y-118325789D01*
X123020745Y-118385368D01*
X123020750Y-118385369D01*
X123199996Y-118405565D01*
X123200000Y-118405565D01*
X123200004Y-118405565D01*
X123379249Y-118385369D01*
X123379252Y-118385368D01*
X123379255Y-118385368D01*
X123549522Y-118325789D01*
X123702262Y-118229816D01*
X123829816Y-118102262D01*
X123925789Y-117949522D01*
X123985368Y-117779255D01*
X124005565Y-117600000D01*
X123985368Y-117420745D01*
X123925789Y-117250478D01*
X123829816Y-117097738D01*
X123702262Y-116970184D01*
X123549523Y-116874211D01*
X123379254Y-116814631D01*
X123379249Y-116814630D01*
X123200004Y-116794435D01*
X123199997Y-116794435D01*
X123175233Y-116797225D01*
X123106411Y-116785170D01*
X123056357Y-116739978D01*
X123029816Y-116697738D01*
X122902262Y-116570184D01*
X122799422Y-116505565D01*
X122749523Y-116474211D01*
X122579254Y-116414631D01*
X122579249Y-116414630D01*
X122400004Y-116394435D01*
X122399996Y-116394435D01*
X122220750Y-116414630D01*
X122220745Y-116414631D01*
X122050476Y-116474211D01*
X121897737Y-116570184D01*
X121770184Y-116697737D01*
X121674211Y-116850476D01*
X121614631Y-117020745D01*
X121614630Y-117020750D01*
X121594435Y-117199996D01*
X121594435Y-117200003D01*
X116000500Y-117200003D01*
X116000500Y-115700003D01*
X138194435Y-115700003D01*
X138214630Y-115879249D01*
X138214631Y-115879254D01*
X138274211Y-116049523D01*
X138370184Y-116202262D01*
X138497738Y-116329816D01*
X138588080Y-116386582D01*
X138632721Y-116414632D01*
X138650478Y-116425789D01*
X138788860Y-116474211D01*
X138820745Y-116485368D01*
X138820750Y-116485369D01*
X138999996Y-116505565D01*
X139000000Y-116505565D01*
X139000004Y-116505565D01*
X139179249Y-116485369D01*
X139179252Y-116485368D01*
X139179255Y-116485368D01*
X139349522Y-116425789D01*
X139502262Y-116329816D01*
X139629816Y-116202262D01*
X139725789Y-116049522D01*
X139785368Y-115879255D01*
X139805565Y-115700000D01*
X139785368Y-115520745D01*
X139785367Y-115520743D01*
X139785366Y-115520737D01*
X139723489Y-115343905D01*
X139725637Y-115343153D01*
X139716035Y-115284872D01*
X139724392Y-115256411D01*
X139723489Y-115256095D01*
X139785366Y-115079262D01*
X139785369Y-115079249D01*
X139805565Y-114900003D01*
X139805565Y-114899996D01*
X139785369Y-114720750D01*
X139785368Y-114720745D01*
X139725788Y-114550475D01*
X139681957Y-114480720D01*
X139641272Y-114415970D01*
X139622272Y-114348736D01*
X139641273Y-114284028D01*
X139725789Y-114149522D01*
X139785368Y-113979255D01*
X139805565Y-113800000D01*
X139785368Y-113620745D01*
X139725789Y-113450478D01*
X139629816Y-113297738D01*
X139502262Y-113170184D01*
X139349523Y-113074211D01*
X139179254Y-113014631D01*
X139179249Y-113014630D01*
X139000004Y-112994435D01*
X138999996Y-112994435D01*
X138820750Y-113014630D01*
X138820745Y-113014631D01*
X138650476Y-113074211D01*
X138497737Y-113170184D01*
X138370184Y-113297737D01*
X138274211Y-113450476D01*
X138214631Y-113620745D01*
X138214630Y-113620750D01*
X138194435Y-113799996D01*
X138194435Y-113800003D01*
X138214630Y-113979249D01*
X138214631Y-113979254D01*
X138274211Y-114149523D01*
X138358727Y-114284028D01*
X138377727Y-114351264D01*
X138358727Y-114415972D01*
X138274211Y-114550476D01*
X138214631Y-114720745D01*
X138214630Y-114720750D01*
X138194435Y-114899996D01*
X138194435Y-114900003D01*
X138214630Y-115079249D01*
X138214633Y-115079262D01*
X138276510Y-115256094D01*
X138274364Y-115256844D01*
X138283962Y-115315144D01*
X138275609Y-115343590D01*
X138276510Y-115343906D01*
X138214633Y-115520737D01*
X138214630Y-115520750D01*
X138194435Y-115699996D01*
X138194435Y-115700003D01*
X116000500Y-115700003D01*
X116000500Y-110700003D01*
X117394435Y-110700003D01*
X117414630Y-110879249D01*
X117414631Y-110879254D01*
X117474211Y-111049523D01*
X117565266Y-111194435D01*
X117570184Y-111202262D01*
X117697738Y-111329816D01*
X117761983Y-111370184D01*
X117810192Y-111400476D01*
X117850478Y-111425789D01*
X117861987Y-111429816D01*
X118020745Y-111485368D01*
X118020750Y-111485369D01*
X118199996Y-111505565D01*
X118200000Y-111505565D01*
X118200004Y-111505565D01*
X118379249Y-111485369D01*
X118379252Y-111485368D01*
X118379255Y-111485368D01*
X118549522Y-111425789D01*
X118702262Y-111329816D01*
X118829816Y-111202262D01*
X118831235Y-111200003D01*
X122794435Y-111200003D01*
X122814630Y-111379249D01*
X122814631Y-111379254D01*
X122874211Y-111549523D01*
X122937646Y-111650478D01*
X122970184Y-111702262D01*
X123097738Y-111829816D01*
X123250478Y-111925789D01*
X123420745Y-111985368D01*
X123420750Y-111985369D01*
X123599996Y-112005565D01*
X123600000Y-112005565D01*
X123600004Y-112005565D01*
X123649368Y-112000003D01*
X136094435Y-112000003D01*
X136114630Y-112179249D01*
X136114631Y-112179254D01*
X136174211Y-112349523D01*
X136243848Y-112460349D01*
X136270184Y-112502262D01*
X136397738Y-112629816D01*
X136550478Y-112725789D01*
X136720745Y-112785368D01*
X136720750Y-112785369D01*
X136899996Y-112805565D01*
X136900000Y-112805565D01*
X136900004Y-112805565D01*
X137079249Y-112785369D01*
X137079252Y-112785368D01*
X137079255Y-112785368D01*
X137249522Y-112725789D01*
X137402262Y-112629816D01*
X137529816Y-112502262D01*
X137625789Y-112349522D01*
X137685368Y-112179255D01*
X137704938Y-112005565D01*
X137705565Y-112000003D01*
X137705565Y-111999996D01*
X137685369Y-111820750D01*
X137685366Y-111820737D01*
X137643718Y-111701714D01*
X137640156Y-111631935D01*
X137674884Y-111571308D01*
X137736878Y-111539080D01*
X137801714Y-111543718D01*
X137920737Y-111585366D01*
X137920749Y-111585369D01*
X137987353Y-111592873D01*
X138051767Y-111619939D01*
X138091322Y-111677533D01*
X138096691Y-111729973D01*
X138094436Y-111749996D01*
X138094435Y-111750001D01*
X138094435Y-111750003D01*
X138114630Y-111929249D01*
X138114631Y-111929254D01*
X138174211Y-112099523D01*
X138270184Y-112252262D01*
X138397738Y-112379816D01*
X138550478Y-112475789D01*
X138720745Y-112535368D01*
X138720750Y-112535369D01*
X138899996Y-112555565D01*
X138900000Y-112555565D01*
X138900004Y-112555565D01*
X139079249Y-112535369D01*
X139079252Y-112535368D01*
X139079255Y-112535368D01*
X139249522Y-112475789D01*
X139402262Y-112379816D01*
X139529816Y-112252262D01*
X139625789Y-112099522D01*
X139685368Y-111929255D01*
X139696572Y-111829815D01*
X139705565Y-111750003D01*
X139705565Y-111749996D01*
X139685369Y-111570750D01*
X139685368Y-111570745D01*
X139669637Y-111525789D01*
X139625789Y-111400478D01*
X139529816Y-111247738D01*
X139402262Y-111120184D01*
X139367412Y-111098286D01*
X139249523Y-111024211D01*
X139079254Y-110964631D01*
X139079250Y-110964630D01*
X139012645Y-110957126D01*
X138948231Y-110930059D01*
X138908676Y-110872464D01*
X138903309Y-110820021D01*
X138905565Y-110800000D01*
X138905565Y-110799996D01*
X138885369Y-110620750D01*
X138885368Y-110620745D01*
X138867676Y-110570184D01*
X138825789Y-110450478D01*
X138803265Y-110414632D01*
X138762955Y-110350478D01*
X138729816Y-110297738D01*
X138602262Y-110170184D01*
X138539473Y-110130731D01*
X138449523Y-110074211D01*
X138279254Y-110014631D01*
X138279249Y-110014630D01*
X138100004Y-109994435D01*
X138099996Y-109994435D01*
X137920750Y-110014630D01*
X137920745Y-110014631D01*
X137750476Y-110074211D01*
X137597737Y-110170184D01*
X137470184Y-110297737D01*
X137374211Y-110450476D01*
X137314631Y-110620745D01*
X137314630Y-110620750D01*
X137294435Y-110799996D01*
X137294435Y-110800003D01*
X137314630Y-110979249D01*
X137314632Y-110979257D01*
X137356282Y-111098286D01*
X137359843Y-111168065D01*
X137325114Y-111228692D01*
X137263121Y-111260919D01*
X137198286Y-111256282D01*
X137079257Y-111214632D01*
X137079249Y-111214630D01*
X136900004Y-111194435D01*
X136899996Y-111194435D01*
X136720750Y-111214630D01*
X136720745Y-111214631D01*
X136550476Y-111274211D01*
X136397737Y-111370184D01*
X136270184Y-111497737D01*
X136174211Y-111650476D01*
X136114631Y-111820745D01*
X136114630Y-111820750D01*
X136094435Y-111999996D01*
X136094435Y-112000003D01*
X123649368Y-112000003D01*
X123779249Y-111985369D01*
X123779252Y-111985368D01*
X123779255Y-111985368D01*
X123949522Y-111925789D01*
X124102262Y-111829816D01*
X124229816Y-111702262D01*
X124325789Y-111549522D01*
X124385368Y-111379255D01*
X124386390Y-111370184D01*
X124405565Y-111200003D01*
X124405565Y-111199996D01*
X124385369Y-111020750D01*
X124385368Y-111020745D01*
X124365733Y-110964631D01*
X124325789Y-110850478D01*
X124294073Y-110800003D01*
X124226683Y-110692752D01*
X124207683Y-110625515D01*
X124228051Y-110558680D01*
X124281318Y-110513466D01*
X124317793Y-110503560D01*
X124360457Y-110498753D01*
X124479249Y-110485369D01*
X124479252Y-110485368D01*
X124479255Y-110485368D01*
X124649522Y-110425789D01*
X124802262Y-110329816D01*
X124929816Y-110202262D01*
X125025789Y-110049522D01*
X125085368Y-109879255D01*
X125089031Y-109846748D01*
X125105565Y-109700003D01*
X125105565Y-109699996D01*
X125085369Y-109520750D01*
X125085368Y-109520745D01*
X125025789Y-109350478D01*
X125025189Y-109349523D01*
X124983894Y-109283802D01*
X124964894Y-109216565D01*
X124985262Y-109149730D01*
X125038530Y-109104516D01*
X125102771Y-109094610D01*
X125139580Y-109098757D01*
X125199998Y-109105565D01*
X125200000Y-109105565D01*
X125200004Y-109105565D01*
X125379249Y-109085369D01*
X125379252Y-109085368D01*
X125379255Y-109085368D01*
X125549522Y-109025789D01*
X125590560Y-109000003D01*
X130194435Y-109000003D01*
X130214630Y-109179249D01*
X130214631Y-109179254D01*
X130274211Y-109349523D01*
X130337646Y-109450478D01*
X130370184Y-109502262D01*
X130497738Y-109629816D01*
X130650478Y-109725789D01*
X130796631Y-109776930D01*
X130820745Y-109785368D01*
X130820750Y-109785369D01*
X130999996Y-109805565D01*
X131000000Y-109805565D01*
X131000004Y-109805565D01*
X131179249Y-109785369D01*
X131179252Y-109785368D01*
X131179255Y-109785368D01*
X131349522Y-109725789D01*
X131502262Y-109629816D01*
X131629816Y-109502262D01*
X131694070Y-109400003D01*
X135294435Y-109400003D01*
X135314630Y-109579249D01*
X135314631Y-109579254D01*
X135374211Y-109749523D01*
X135452097Y-109873477D01*
X135470184Y-109902262D01*
X135597738Y-110029816D01*
X135750478Y-110125789D01*
X135818306Y-110149523D01*
X135920745Y-110185368D01*
X135920750Y-110185369D01*
X136099996Y-110205565D01*
X136100000Y-110205565D01*
X136100004Y-110205565D01*
X136279249Y-110185369D01*
X136279252Y-110185368D01*
X136279255Y-110185368D01*
X136449522Y-110125789D01*
X136602262Y-110029816D01*
X136729816Y-109902262D01*
X136825789Y-109749522D01*
X136885368Y-109579255D01*
X136885735Y-109576000D01*
X136905565Y-109400003D01*
X136905565Y-109399996D01*
X136885369Y-109220750D01*
X136885368Y-109220745D01*
X136883905Y-109216565D01*
X136825789Y-109050478D01*
X136803265Y-109014632D01*
X136794073Y-109000003D01*
X140094435Y-109000003D01*
X140114630Y-109179249D01*
X140114631Y-109179254D01*
X140174211Y-109349523D01*
X140237646Y-109450478D01*
X140270184Y-109502262D01*
X140397738Y-109629816D01*
X140550478Y-109725789D01*
X140696631Y-109776930D01*
X140720745Y-109785368D01*
X140720750Y-109785369D01*
X140899996Y-109805565D01*
X140900000Y-109805565D01*
X140900004Y-109805565D01*
X141079249Y-109785369D01*
X141079252Y-109785368D01*
X141079255Y-109785368D01*
X141249522Y-109725789D01*
X141402262Y-109629816D01*
X141529816Y-109502262D01*
X141625789Y-109349522D01*
X141685368Y-109179255D01*
X141694905Y-109094610D01*
X141705565Y-109000003D01*
X141705565Y-108999996D01*
X141685369Y-108820750D01*
X141685368Y-108820745D01*
X141625789Y-108650478D01*
X141625188Y-108649522D01*
X141529815Y-108497737D01*
X141402262Y-108370184D01*
X141249523Y-108274211D01*
X141079254Y-108214631D01*
X141079249Y-108214630D01*
X140900004Y-108194435D01*
X140899996Y-108194435D01*
X140720750Y-108214630D01*
X140720745Y-108214631D01*
X140550476Y-108274211D01*
X140397737Y-108370184D01*
X140270184Y-108497737D01*
X140174211Y-108650476D01*
X140114631Y-108820745D01*
X140114630Y-108820750D01*
X140094435Y-108999996D01*
X140094435Y-109000003D01*
X136794073Y-109000003D01*
X136740431Y-108914632D01*
X136729816Y-108897738D01*
X136602262Y-108770184D01*
X136586982Y-108760583D01*
X136449523Y-108674211D01*
X136279254Y-108614631D01*
X136279249Y-108614630D01*
X136100004Y-108594435D01*
X136099996Y-108594435D01*
X135920750Y-108614630D01*
X135920745Y-108614631D01*
X135750476Y-108674211D01*
X135597737Y-108770184D01*
X135470184Y-108897737D01*
X135374211Y-109050476D01*
X135314631Y-109220745D01*
X135314630Y-109220750D01*
X135294435Y-109399996D01*
X135294435Y-109400003D01*
X131694070Y-109400003D01*
X131725789Y-109349522D01*
X131785368Y-109179255D01*
X131794905Y-109094610D01*
X131805565Y-109000003D01*
X131805565Y-108999996D01*
X131785369Y-108820750D01*
X131785368Y-108820745D01*
X131725789Y-108650478D01*
X131725188Y-108649522D01*
X131629815Y-108497737D01*
X131502262Y-108370184D01*
X131349523Y-108274211D01*
X131179254Y-108214631D01*
X131179249Y-108214630D01*
X131000004Y-108194435D01*
X130999996Y-108194435D01*
X130820750Y-108214630D01*
X130820745Y-108214631D01*
X130650476Y-108274211D01*
X130497737Y-108370184D01*
X130370184Y-108497737D01*
X130274211Y-108650476D01*
X130214631Y-108820745D01*
X130214630Y-108820750D01*
X130194435Y-108999996D01*
X130194435Y-109000003D01*
X125590560Y-109000003D01*
X125702262Y-108929816D01*
X125829816Y-108802262D01*
X125925789Y-108649522D01*
X125985368Y-108479255D01*
X125993244Y-108409352D01*
X126005565Y-108300003D01*
X126005565Y-108299996D01*
X125985369Y-108120750D01*
X125985368Y-108120745D01*
X125946340Y-108009210D01*
X125925789Y-107950478D01*
X125829816Y-107797738D01*
X125702262Y-107670184D01*
X125684986Y-107659329D01*
X125549523Y-107574211D01*
X125379254Y-107514631D01*
X125379249Y-107514630D01*
X125200004Y-107494435D01*
X125199996Y-107494435D01*
X125020750Y-107514630D01*
X125020745Y-107514631D01*
X124850476Y-107574211D01*
X124697737Y-107670184D01*
X124570184Y-107797737D01*
X124474211Y-107950476D01*
X124414631Y-108120745D01*
X124414630Y-108120750D01*
X124394435Y-108299996D01*
X124394435Y-108300003D01*
X124414630Y-108479249D01*
X124414631Y-108479254D01*
X124474211Y-108649523D01*
X124516105Y-108716197D01*
X124535105Y-108783434D01*
X124514737Y-108850269D01*
X124461469Y-108895483D01*
X124397228Y-108905389D01*
X124300004Y-108894435D01*
X124299996Y-108894435D01*
X124120750Y-108914630D01*
X124120745Y-108914631D01*
X123950476Y-108974211D01*
X123797737Y-109070184D01*
X123670184Y-109197737D01*
X123574211Y-109350476D01*
X123514631Y-109520745D01*
X123514630Y-109520750D01*
X123494435Y-109699996D01*
X123494435Y-109700003D01*
X123514630Y-109879249D01*
X123514631Y-109879254D01*
X123574211Y-110049523D01*
X123673316Y-110207247D01*
X123692316Y-110274484D01*
X123671948Y-110341319D01*
X123618680Y-110386533D01*
X123582206Y-110396439D01*
X123420749Y-110414630D01*
X123420745Y-110414631D01*
X123250476Y-110474211D01*
X123097737Y-110570184D01*
X122970184Y-110697737D01*
X122874211Y-110850476D01*
X122814631Y-111020745D01*
X122814630Y-111020750D01*
X122794435Y-111199996D01*
X122794435Y-111200003D01*
X118831235Y-111200003D01*
X118925789Y-111049522D01*
X118985368Y-110879255D01*
X118986133Y-110872464D01*
X119005565Y-110700003D01*
X119005565Y-110699996D01*
X118985369Y-110520750D01*
X118985368Y-110520745D01*
X118969085Y-110474211D01*
X118925789Y-110350478D01*
X118829816Y-110197738D01*
X118702262Y-110070184D01*
X118638017Y-110029816D01*
X118549523Y-109974211D01*
X118379254Y-109914631D01*
X118379249Y-109914630D01*
X118200004Y-109894435D01*
X118199996Y-109894435D01*
X118020750Y-109914630D01*
X118020745Y-109914631D01*
X117850476Y-109974211D01*
X117697737Y-110070184D01*
X117570184Y-110197737D01*
X117474211Y-110350476D01*
X117414631Y-110520745D01*
X117414630Y-110520750D01*
X117394435Y-110699996D01*
X117394435Y-110700003D01*
X116000500Y-110700003D01*
X116000500Y-109800003D01*
X119394435Y-109800003D01*
X119414630Y-109979249D01*
X119414631Y-109979254D01*
X119474211Y-110149523D01*
X119509425Y-110205565D01*
X119570184Y-110302262D01*
X119697738Y-110429816D01*
X119768392Y-110474211D01*
X119842450Y-110520745D01*
X119850478Y-110525789D01*
X119944475Y-110558680D01*
X120020745Y-110585368D01*
X120020750Y-110585369D01*
X120199996Y-110605565D01*
X120200000Y-110605565D01*
X120200004Y-110605565D01*
X120379249Y-110585369D01*
X120379252Y-110585368D01*
X120379255Y-110585368D01*
X120549522Y-110525789D01*
X120702262Y-110429816D01*
X120829816Y-110302262D01*
X120925789Y-110149522D01*
X120985368Y-109979255D01*
X120985369Y-109979249D01*
X121005565Y-109800003D01*
X121005565Y-109799996D01*
X120985369Y-109620750D01*
X120985368Y-109620745D01*
X120925788Y-109450476D01*
X120862955Y-109350478D01*
X120829816Y-109297738D01*
X120702262Y-109170184D01*
X120613064Y-109114137D01*
X120549523Y-109074211D01*
X120379254Y-109014631D01*
X120379249Y-109014630D01*
X120200004Y-108994435D01*
X120199996Y-108994435D01*
X120020750Y-109014630D01*
X120020745Y-109014631D01*
X119850476Y-109074211D01*
X119697737Y-109170184D01*
X119570184Y-109297737D01*
X119474211Y-109450476D01*
X119414631Y-109620745D01*
X119414630Y-109620750D01*
X119394435Y-109799996D01*
X119394435Y-109800003D01*
X116000500Y-109800003D01*
X116000500Y-106250000D01*
X119544341Y-106250000D01*
X119564936Y-106485403D01*
X119564938Y-106485413D01*
X119626094Y-106713655D01*
X119626096Y-106713659D01*
X119626097Y-106713663D01*
X119666355Y-106799996D01*
X119725965Y-106927830D01*
X119725967Y-106927834D01*
X119761973Y-106979255D01*
X119861505Y-107121401D01*
X120028599Y-107288495D01*
X120090839Y-107332076D01*
X120222165Y-107424032D01*
X120222167Y-107424033D01*
X120222170Y-107424035D01*
X120436337Y-107523903D01*
X120436343Y-107523904D01*
X120436344Y-107523905D01*
X120491285Y-107538626D01*
X120664592Y-107585063D01*
X120818883Y-107598562D01*
X120899999Y-107605659D01*
X120900000Y-107605659D01*
X120900001Y-107605659D01*
X120939234Y-107602226D01*
X121135408Y-107585063D01*
X121363663Y-107523903D01*
X121577830Y-107424035D01*
X121771401Y-107288495D01*
X121938495Y-107121401D01*
X122074035Y-106927830D01*
X122133642Y-106800003D01*
X139894435Y-106800003D01*
X139914630Y-106979249D01*
X139914631Y-106979254D01*
X139974211Y-107149523D01*
X140061532Y-107288493D01*
X140070184Y-107302262D01*
X140197738Y-107429816D01*
X140288080Y-107486582D01*
X140347479Y-107523905D01*
X140350478Y-107525789D01*
X140488860Y-107574211D01*
X140520745Y-107585368D01*
X140520750Y-107585369D01*
X140699996Y-107605565D01*
X140700000Y-107605565D01*
X140700004Y-107605565D01*
X140879249Y-107585369D01*
X140879252Y-107585368D01*
X140879255Y-107585368D01*
X141049522Y-107525789D01*
X141202262Y-107429816D01*
X141329816Y-107302262D01*
X141425789Y-107149522D01*
X141478109Y-107000000D01*
X158619974Y-107000000D01*
X158640060Y-107332076D01*
X158700032Y-107659329D01*
X158798999Y-107976928D01*
X158799005Y-107976943D01*
X158935543Y-108280319D01*
X158935545Y-108280321D01*
X159107657Y-108565031D01*
X159107662Y-108565039D01*
X159260862Y-108760583D01*
X160162078Y-107859367D01*
X160278706Y-108009210D01*
X160459768Y-108175890D01*
X160515954Y-108212597D01*
X159614415Y-109114136D01*
X159614415Y-109114137D01*
X159809960Y-109267337D01*
X159809968Y-109267342D01*
X160094678Y-109439454D01*
X160094680Y-109439456D01*
X160398056Y-109575994D01*
X160398071Y-109576000D01*
X160715670Y-109674967D01*
X160879725Y-109705032D01*
X160942118Y-109736479D01*
X160977605Y-109796665D01*
X160974919Y-109866483D01*
X160934914Y-109923766D01*
X160909778Y-109939383D01*
X160784718Y-109997699D01*
X160784714Y-109997701D01*
X160594735Y-110130726D01*
X160594729Y-110130731D01*
X160430731Y-110294729D01*
X160430726Y-110294735D01*
X160297701Y-110484714D01*
X160297699Y-110484718D01*
X160199681Y-110694917D01*
X160139651Y-110918948D01*
X160139650Y-110918955D01*
X160119437Y-111149998D01*
X160119437Y-111150001D01*
X160139650Y-111381044D01*
X160139651Y-111381051D01*
X160199678Y-111605074D01*
X160199679Y-111605076D01*
X160199680Y-111605079D01*
X160297699Y-111815282D01*
X160430730Y-112005269D01*
X160594731Y-112169270D01*
X160784718Y-112302301D01*
X160994921Y-112400320D01*
X161218950Y-112460349D01*
X161383985Y-112474787D01*
X161449998Y-112480563D01*
X161450000Y-112480563D01*
X161450002Y-112480563D01*
X161507762Y-112475509D01*
X161681050Y-112460349D01*
X161905079Y-112400320D01*
X162115282Y-112302301D01*
X162305269Y-112169270D01*
X162469270Y-112005269D01*
X162602301Y-111815282D01*
X162700320Y-111605079D01*
X162760349Y-111381050D01*
X162780563Y-111150000D01*
X162777954Y-111120184D01*
X162774787Y-111083985D01*
X162760349Y-110918950D01*
X162700320Y-110694921D01*
X162602301Y-110484719D01*
X162602299Y-110484716D01*
X162602298Y-110484714D01*
X162469273Y-110294735D01*
X162469268Y-110294729D01*
X162305269Y-110130730D01*
X162115281Y-109997698D01*
X161947903Y-109919649D01*
X161895464Y-109873477D01*
X161876312Y-109806283D01*
X161896528Y-109739402D01*
X161949693Y-109694067D01*
X161977957Y-109685298D01*
X162034328Y-109674968D01*
X162351928Y-109576000D01*
X162351943Y-109575994D01*
X162655319Y-109439456D01*
X162655321Y-109439454D01*
X162940030Y-109267343D01*
X163135583Y-109114137D01*
X163135583Y-109114136D01*
X162234045Y-108212598D01*
X162290232Y-108175890D01*
X162471294Y-108009210D01*
X162587920Y-107859367D01*
X163489136Y-108760583D01*
X163489137Y-108760583D01*
X163642343Y-108565030D01*
X163814454Y-108280321D01*
X163814456Y-108280319D01*
X163950994Y-107976943D01*
X163951000Y-107976928D01*
X164049967Y-107659329D01*
X164109939Y-107332076D01*
X164130025Y-107000000D01*
X169869974Y-107000000D01*
X169890060Y-107332076D01*
X169950032Y-107659329D01*
X170048999Y-107976928D01*
X170049005Y-107976943D01*
X170185543Y-108280319D01*
X170185545Y-108280321D01*
X170357657Y-108565031D01*
X170357662Y-108565039D01*
X170510862Y-108760583D01*
X171412078Y-107859366D01*
X171528706Y-108009210D01*
X171709768Y-108175890D01*
X171765954Y-108212597D01*
X170864415Y-109114136D01*
X170864415Y-109114137D01*
X171059960Y-109267337D01*
X171059968Y-109267342D01*
X171344678Y-109439454D01*
X171344680Y-109439456D01*
X171648056Y-109575994D01*
X171648071Y-109576000D01*
X171965671Y-109674968D01*
X172022042Y-109685298D01*
X172084435Y-109716744D01*
X172119923Y-109776930D01*
X172117238Y-109846748D01*
X172077232Y-109904031D01*
X172052096Y-109919649D01*
X171884719Y-109997699D01*
X171884714Y-109997701D01*
X171694735Y-110130726D01*
X171694729Y-110130731D01*
X171530731Y-110294729D01*
X171530726Y-110294735D01*
X171397701Y-110484714D01*
X171397699Y-110484718D01*
X171299681Y-110694917D01*
X171239651Y-110918948D01*
X171239650Y-110918955D01*
X171219437Y-111149998D01*
X171219437Y-111150001D01*
X171239650Y-111381044D01*
X171239651Y-111381051D01*
X171299678Y-111605074D01*
X171299679Y-111605076D01*
X171299680Y-111605079D01*
X171397699Y-111815282D01*
X171530730Y-112005269D01*
X171694731Y-112169270D01*
X171884718Y-112302301D01*
X172094921Y-112400320D01*
X172318950Y-112460349D01*
X172483985Y-112474787D01*
X172549998Y-112480563D01*
X172550000Y-112480563D01*
X172550002Y-112480563D01*
X172607762Y-112475509D01*
X172781050Y-112460349D01*
X173005079Y-112400320D01*
X173215282Y-112302301D01*
X173405269Y-112169270D01*
X173569270Y-112005269D01*
X173702301Y-111815282D01*
X173800320Y-111605079D01*
X173860349Y-111381050D01*
X173880563Y-111150000D01*
X173877954Y-111120184D01*
X173874787Y-111083985D01*
X173860349Y-110918950D01*
X173800320Y-110694921D01*
X173702301Y-110484719D01*
X173702299Y-110484716D01*
X173702298Y-110484714D01*
X173569273Y-110294735D01*
X173569268Y-110294729D01*
X173405269Y-110130730D01*
X173398211Y-110125788D01*
X173215282Y-109997699D01*
X173090221Y-109939382D01*
X173037783Y-109893211D01*
X173018631Y-109826017D01*
X173038847Y-109759136D01*
X173092012Y-109713802D01*
X173120275Y-109705032D01*
X173284329Y-109674967D01*
X173601928Y-109576000D01*
X173601943Y-109575994D01*
X173905319Y-109439456D01*
X173905321Y-109439454D01*
X174190030Y-109267343D01*
X174385583Y-109114137D01*
X174385583Y-109114136D01*
X173484045Y-108212598D01*
X173540232Y-108175890D01*
X173721294Y-108009210D01*
X173837920Y-107859367D01*
X174739136Y-108760583D01*
X174739137Y-108760583D01*
X174892343Y-108565030D01*
X175064454Y-108280321D01*
X175064456Y-108280319D01*
X175200994Y-107976943D01*
X175201000Y-107976928D01*
X175299967Y-107659329D01*
X175359939Y-107332076D01*
X175380025Y-107000000D01*
X175359939Y-106667923D01*
X175299967Y-106340670D01*
X175201000Y-106023071D01*
X175200994Y-106023056D01*
X175064456Y-105719680D01*
X175064454Y-105719678D01*
X174892342Y-105434968D01*
X174892337Y-105434960D01*
X174739136Y-105239415D01*
X173837920Y-106140631D01*
X173721294Y-105990790D01*
X173540232Y-105824110D01*
X173484045Y-105787401D01*
X174385583Y-104885862D01*
X174385583Y-104885861D01*
X174190039Y-104732662D01*
X174190031Y-104732657D01*
X173905321Y-104560545D01*
X173905319Y-104560543D01*
X173601943Y-104424005D01*
X173601928Y-104423999D01*
X173284329Y-104325032D01*
X173120275Y-104294967D01*
X173057882Y-104263520D01*
X173022395Y-104203333D01*
X173025081Y-104133515D01*
X173065087Y-104076233D01*
X173090211Y-104060622D01*
X173215282Y-104002301D01*
X173405269Y-103869270D01*
X173569270Y-103705269D01*
X173702301Y-103515282D01*
X173800320Y-103305079D01*
X173860349Y-103081050D01*
X173880563Y-102850000D01*
X173879565Y-102838597D01*
X173864947Y-102671505D01*
X173860349Y-102618950D01*
X173800320Y-102394921D01*
X173702301Y-102184719D01*
X173702299Y-102184716D01*
X173702298Y-102184714D01*
X173569273Y-101994735D01*
X173569268Y-101994729D01*
X173405269Y-101830730D01*
X173391009Y-101820745D01*
X173215282Y-101697699D01*
X173005079Y-101599680D01*
X173005076Y-101599679D01*
X173005074Y-101599678D01*
X172781051Y-101539651D01*
X172781044Y-101539650D01*
X172550002Y-101519437D01*
X172549998Y-101519437D01*
X172318955Y-101539650D01*
X172318948Y-101539651D01*
X172094917Y-101599681D01*
X171884718Y-101697699D01*
X171884714Y-101697701D01*
X171694735Y-101830726D01*
X171694729Y-101830731D01*
X171530731Y-101994729D01*
X171530726Y-101994735D01*
X171397701Y-102184714D01*
X171397699Y-102184718D01*
X171299681Y-102394917D01*
X171239651Y-102618948D01*
X171239650Y-102618955D01*
X171219437Y-102849998D01*
X171219437Y-102850001D01*
X171239650Y-103081044D01*
X171239651Y-103081051D01*
X171299678Y-103305074D01*
X171299679Y-103305076D01*
X171299680Y-103305079D01*
X171397699Y-103515282D01*
X171530730Y-103705269D01*
X171694731Y-103869270D01*
X171884718Y-104002301D01*
X171985984Y-104049522D01*
X172052095Y-104080350D01*
X172104535Y-104126522D01*
X172123687Y-104193716D01*
X172103471Y-104260597D01*
X172050306Y-104305931D01*
X172022044Y-104314701D01*
X171965669Y-104325032D01*
X171648071Y-104423999D01*
X171648056Y-104424005D01*
X171344680Y-104560543D01*
X171344678Y-104560545D01*
X171059968Y-104732657D01*
X170864415Y-104885862D01*
X171765954Y-105787401D01*
X171709768Y-105824110D01*
X171528706Y-105990790D01*
X171412079Y-106140632D01*
X170510862Y-105239415D01*
X170357657Y-105434968D01*
X170185545Y-105719678D01*
X170185543Y-105719680D01*
X170049005Y-106023056D01*
X170048999Y-106023071D01*
X169950032Y-106340670D01*
X169890060Y-106667923D01*
X169869974Y-107000000D01*
X164130025Y-107000000D01*
X164109939Y-106667923D01*
X164049967Y-106340670D01*
X163951000Y-106023071D01*
X163950994Y-106023056D01*
X163814456Y-105719680D01*
X163814454Y-105719678D01*
X163642342Y-105434968D01*
X163642337Y-105434960D01*
X163489136Y-105239415D01*
X162587920Y-106140631D01*
X162471294Y-105990790D01*
X162290232Y-105824110D01*
X162234045Y-105787401D01*
X163135583Y-104885862D01*
X163135583Y-104885861D01*
X162940039Y-104732662D01*
X162940031Y-104732657D01*
X162655321Y-104560545D01*
X162655319Y-104560543D01*
X162351943Y-104424005D01*
X162351928Y-104423999D01*
X162034329Y-104325032D01*
X161977956Y-104314701D01*
X161915563Y-104283254D01*
X161880076Y-104223067D01*
X161882762Y-104153249D01*
X161922768Y-104095967D01*
X161947901Y-104080351D01*
X162115282Y-104002301D01*
X162305269Y-103869270D01*
X162469270Y-103705269D01*
X162602301Y-103515282D01*
X162700320Y-103305079D01*
X162760349Y-103081050D01*
X162780563Y-102850000D01*
X162779565Y-102838597D01*
X162764947Y-102671505D01*
X162760349Y-102618950D01*
X162700320Y-102394921D01*
X162602301Y-102184719D01*
X162602299Y-102184716D01*
X162602298Y-102184714D01*
X162469273Y-101994735D01*
X162469268Y-101994729D01*
X162305269Y-101830730D01*
X162291009Y-101820745D01*
X162115282Y-101697699D01*
X161905079Y-101599680D01*
X161905076Y-101599679D01*
X161905074Y-101599678D01*
X161681051Y-101539651D01*
X161681044Y-101539650D01*
X161450002Y-101519437D01*
X161449998Y-101519437D01*
X161218955Y-101539650D01*
X161218948Y-101539651D01*
X160994917Y-101599681D01*
X160784718Y-101697699D01*
X160784714Y-101697701D01*
X160594735Y-101830726D01*
X160594729Y-101830731D01*
X160430731Y-101994729D01*
X160430726Y-101994735D01*
X160297701Y-102184714D01*
X160297699Y-102184718D01*
X160199681Y-102394917D01*
X160139651Y-102618948D01*
X160139650Y-102618955D01*
X160119437Y-102849998D01*
X160119437Y-102850001D01*
X160139650Y-103081044D01*
X160139651Y-103081051D01*
X160199678Y-103305074D01*
X160199679Y-103305076D01*
X160199680Y-103305079D01*
X160297699Y-103515282D01*
X160430730Y-103705269D01*
X160594731Y-103869270D01*
X160784718Y-104002301D01*
X160909776Y-104060616D01*
X160962216Y-104106788D01*
X160981368Y-104173981D01*
X160961153Y-104240862D01*
X160907987Y-104286197D01*
X160879725Y-104294967D01*
X160715669Y-104325032D01*
X160398071Y-104423999D01*
X160398056Y-104424005D01*
X160094680Y-104560543D01*
X160094678Y-104560545D01*
X159809968Y-104732657D01*
X159614415Y-104885862D01*
X160515954Y-105787401D01*
X160459768Y-105824110D01*
X160278706Y-105990790D01*
X160162079Y-106140632D01*
X159260862Y-105239415D01*
X159107657Y-105434968D01*
X158935545Y-105719678D01*
X158935543Y-105719680D01*
X158799005Y-106023056D01*
X158798999Y-106023071D01*
X158700032Y-106340670D01*
X158640060Y-106667923D01*
X158619974Y-107000000D01*
X141478109Y-107000000D01*
X141485368Y-106979255D01*
X141505565Y-106800000D01*
X141495837Y-106713664D01*
X141485369Y-106620750D01*
X141485368Y-106620745D01*
X141438013Y-106485413D01*
X141425789Y-106450478D01*
X141329816Y-106297738D01*
X141202262Y-106170184D01*
X141138017Y-106129816D01*
X141049523Y-106074211D01*
X140879254Y-106014631D01*
X140879249Y-106014630D01*
X140700004Y-105994435D01*
X140699996Y-105994435D01*
X140520750Y-106014630D01*
X140520745Y-106014631D01*
X140350476Y-106074211D01*
X140197737Y-106170184D01*
X140070184Y-106297737D01*
X139974211Y-106450476D01*
X139914631Y-106620745D01*
X139914630Y-106620750D01*
X139894435Y-106799996D01*
X139894435Y-106800003D01*
X122133642Y-106800003D01*
X122173903Y-106713663D01*
X122235063Y-106485408D01*
X122255659Y-106250000D01*
X122235063Y-106014592D01*
X122173903Y-105786337D01*
X122074035Y-105572171D01*
X122025085Y-105502262D01*
X121938494Y-105378597D01*
X121771402Y-105211506D01*
X121771396Y-105211501D01*
X121585842Y-105081575D01*
X121542217Y-105026998D01*
X121539423Y-105000003D01*
X134694435Y-105000003D01*
X134714630Y-105179249D01*
X134714631Y-105179254D01*
X134774211Y-105349523D01*
X134792480Y-105378597D01*
X134870184Y-105502262D01*
X134997738Y-105629816D01*
X135076410Y-105679249D01*
X135140755Y-105719680D01*
X135150478Y-105725789D01*
X135320745Y-105785368D01*
X135320750Y-105785369D01*
X135499996Y-105805565D01*
X135500000Y-105805565D01*
X135500004Y-105805565D01*
X135679249Y-105785369D01*
X135679252Y-105785368D01*
X135679255Y-105785368D01*
X135849522Y-105725789D01*
X136002262Y-105629816D01*
X136129816Y-105502262D01*
X136131235Y-105500003D01*
X156194435Y-105500003D01*
X156214630Y-105679249D01*
X156214631Y-105679254D01*
X156274211Y-105849523D01*
X156362976Y-105990790D01*
X156370184Y-106002262D01*
X156497738Y-106129816D01*
X156650478Y-106225789D01*
X156820745Y-106285368D01*
X156820750Y-106285369D01*
X156999996Y-106305565D01*
X157000000Y-106305565D01*
X157000004Y-106305565D01*
X157179249Y-106285369D01*
X157179252Y-106285368D01*
X157179255Y-106285368D01*
X157349522Y-106225789D01*
X157502262Y-106129816D01*
X157629816Y-106002262D01*
X157725789Y-105849522D01*
X157785368Y-105679255D01*
X157785369Y-105679249D01*
X157805565Y-105500003D01*
X157805565Y-105499996D01*
X157785369Y-105320750D01*
X157785368Y-105320745D01*
X157756909Y-105239415D01*
X157725789Y-105150478D01*
X157629816Y-104997738D01*
X157502262Y-104870184D01*
X157349523Y-104774211D01*
X157179254Y-104714631D01*
X157179249Y-104714630D01*
X157000004Y-104694435D01*
X156999996Y-104694435D01*
X156820750Y-104714630D01*
X156820745Y-104714631D01*
X156650476Y-104774211D01*
X156497737Y-104870184D01*
X156370184Y-104997737D01*
X156274211Y-105150476D01*
X156214631Y-105320745D01*
X156214630Y-105320750D01*
X156194435Y-105499996D01*
X156194435Y-105500003D01*
X136131235Y-105500003D01*
X136225789Y-105349522D01*
X136285368Y-105179255D01*
X136285369Y-105179249D01*
X136305565Y-105000003D01*
X136305565Y-104999996D01*
X136285369Y-104820750D01*
X136285368Y-104820745D01*
X136225788Y-104650476D01*
X136129815Y-104497737D01*
X136002262Y-104370184D01*
X135849523Y-104274211D01*
X135679254Y-104214631D01*
X135679249Y-104214630D01*
X135500004Y-104194435D01*
X135499996Y-104194435D01*
X135320750Y-104214630D01*
X135320745Y-104214631D01*
X135150476Y-104274211D01*
X134997737Y-104370184D01*
X134870184Y-104497737D01*
X134774211Y-104650476D01*
X134714631Y-104820745D01*
X134714630Y-104820750D01*
X134694435Y-104999996D01*
X134694435Y-105000003D01*
X121539423Y-105000003D01*
X121535023Y-104957500D01*
X121566546Y-104895145D01*
X121585842Y-104878425D01*
X121668217Y-104820745D01*
X121771401Y-104748495D01*
X121938495Y-104581401D01*
X122074035Y-104387830D01*
X122173903Y-104173663D01*
X122235063Y-103945408D01*
X122255659Y-103710000D01*
X122254784Y-103700003D01*
X133194435Y-103700003D01*
X133214630Y-103879249D01*
X133214631Y-103879254D01*
X133274211Y-104049523D01*
X133322593Y-104126522D01*
X133370184Y-104202262D01*
X133497738Y-104329816D01*
X133561983Y-104370184D01*
X133647638Y-104424005D01*
X133650478Y-104425789D01*
X133820745Y-104485368D01*
X133820750Y-104485369D01*
X133999996Y-104505565D01*
X134000000Y-104505565D01*
X134000004Y-104505565D01*
X134179249Y-104485369D01*
X134179252Y-104485368D01*
X134179255Y-104485368D01*
X134349522Y-104425789D01*
X134502262Y-104329816D01*
X134629816Y-104202262D01*
X134725789Y-104049522D01*
X134785368Y-103879255D01*
X134786493Y-103869269D01*
X134805565Y-103700003D01*
X134805565Y-103699996D01*
X134785369Y-103520750D01*
X134785368Y-103520745D01*
X134725788Y-103350475D01*
X134704108Y-103315973D01*
X134685107Y-103248737D01*
X134704108Y-103184027D01*
X134725788Y-103149524D01*
X134766852Y-103032171D01*
X134785368Y-102979255D01*
X134785369Y-102979249D01*
X134805565Y-102800003D01*
X134805565Y-102799996D01*
X134785369Y-102620750D01*
X134785366Y-102620737D01*
X134723489Y-102443905D01*
X134725637Y-102443153D01*
X134716035Y-102384872D01*
X134724392Y-102356411D01*
X134723489Y-102356095D01*
X134785366Y-102179262D01*
X134785369Y-102179249D01*
X134805565Y-102000003D01*
X134805565Y-101999996D01*
X134785369Y-101820750D01*
X134785368Y-101820745D01*
X134725788Y-101650476D01*
X134629815Y-101497737D01*
X134502262Y-101370184D01*
X134349523Y-101274211D01*
X134179254Y-101214631D01*
X134179249Y-101214630D01*
X134000004Y-101194435D01*
X133999996Y-101194435D01*
X133820750Y-101214630D01*
X133820745Y-101214631D01*
X133650476Y-101274211D01*
X133497737Y-101370184D01*
X133370184Y-101497737D01*
X133274211Y-101650476D01*
X133214631Y-101820745D01*
X133214630Y-101820750D01*
X133194435Y-101999996D01*
X133194435Y-102000003D01*
X133214630Y-102179249D01*
X133214633Y-102179262D01*
X133276510Y-102356094D01*
X133274364Y-102356844D01*
X133283962Y-102415144D01*
X133275609Y-102443590D01*
X133276510Y-102443906D01*
X133214633Y-102620737D01*
X133214630Y-102620750D01*
X133194435Y-102799996D01*
X133194435Y-102800003D01*
X133214630Y-102979249D01*
X133214633Y-102979262D01*
X133274209Y-103149519D01*
X133295893Y-103184030D01*
X133314892Y-103251267D01*
X133295893Y-103315970D01*
X133274209Y-103350480D01*
X133214633Y-103520737D01*
X133214630Y-103520750D01*
X133194435Y-103699996D01*
X133194435Y-103700003D01*
X122254784Y-103700003D01*
X122235063Y-103474592D01*
X122175224Y-103251267D01*
X122173905Y-103246344D01*
X122173904Y-103246343D01*
X122173903Y-103246337D01*
X122074035Y-103032171D01*
X122036983Y-102979254D01*
X121938494Y-102838597D01*
X121771402Y-102671506D01*
X121771396Y-102671501D01*
X121585842Y-102541575D01*
X121542217Y-102486998D01*
X121535023Y-102417500D01*
X121566546Y-102355145D01*
X121585842Y-102338425D01*
X121608026Y-102322891D01*
X121771401Y-102208495D01*
X121938495Y-102041401D01*
X122074035Y-101847830D01*
X122173903Y-101633663D01*
X122235063Y-101405408D01*
X122255659Y-101170000D01*
X122235063Y-100934592D01*
X122173903Y-100706337D01*
X122074035Y-100492171D01*
X121996229Y-100381051D01*
X121938494Y-100298597D01*
X121789897Y-100150001D01*
X165669437Y-100150001D01*
X165689650Y-100381044D01*
X165689651Y-100381051D01*
X165749678Y-100605074D01*
X165749679Y-100605076D01*
X165749680Y-100605079D01*
X165847699Y-100815282D01*
X165980730Y-101005269D01*
X166144731Y-101169270D01*
X166334718Y-101302301D01*
X166544921Y-101400320D01*
X166768950Y-101460349D01*
X166933985Y-101474787D01*
X166999998Y-101480563D01*
X167000000Y-101480563D01*
X167000002Y-101480563D01*
X167057762Y-101475509D01*
X167231050Y-101460349D01*
X167455079Y-101400320D01*
X167665282Y-101302301D01*
X167855269Y-101169270D01*
X168019270Y-101005269D01*
X168152301Y-100815282D01*
X168250320Y-100605079D01*
X168310349Y-100381050D01*
X168330563Y-100150000D01*
X168310349Y-99918950D01*
X168250320Y-99694921D01*
X168152301Y-99484719D01*
X168152299Y-99484716D01*
X168152298Y-99484714D01*
X168019273Y-99294735D01*
X168019268Y-99294729D01*
X167855269Y-99130730D01*
X167747047Y-99054952D01*
X167665282Y-98997699D01*
X167455079Y-98899680D01*
X167455076Y-98899679D01*
X167455074Y-98899678D01*
X167231051Y-98839651D01*
X167231044Y-98839650D01*
X167000002Y-98819437D01*
X166999998Y-98819437D01*
X166768955Y-98839650D01*
X166768948Y-98839651D01*
X166544917Y-98899681D01*
X166334718Y-98997699D01*
X166334714Y-98997701D01*
X166144735Y-99130726D01*
X166144729Y-99130731D01*
X165980731Y-99294729D01*
X165980726Y-99294735D01*
X165847701Y-99484714D01*
X165847699Y-99484718D01*
X165749681Y-99694917D01*
X165689651Y-99918948D01*
X165689650Y-99918955D01*
X165669437Y-100149998D01*
X165669437Y-100150001D01*
X121789897Y-100150001D01*
X121771402Y-100131506D01*
X121771401Y-100131505D01*
X121585405Y-100001269D01*
X121541781Y-99946692D01*
X121534588Y-99877193D01*
X121566110Y-99814839D01*
X121585405Y-99798119D01*
X121771082Y-99668105D01*
X121938105Y-99501082D01*
X122073600Y-99307578D01*
X122173429Y-99093492D01*
X122173432Y-99093486D01*
X122198481Y-99000003D01*
X139194435Y-99000003D01*
X139214630Y-99179249D01*
X139214631Y-99179254D01*
X139274211Y-99349523D01*
X139359158Y-99484714D01*
X139370184Y-99502262D01*
X139497738Y-99629816D01*
X139558675Y-99668105D01*
X139601345Y-99694917D01*
X139650478Y-99725789D01*
X139820745Y-99785368D01*
X139820750Y-99785369D01*
X139999996Y-99805565D01*
X140000000Y-99805565D01*
X140000004Y-99805565D01*
X140179249Y-99785369D01*
X140179252Y-99785368D01*
X140179255Y-99785368D01*
X140349522Y-99725789D01*
X140502262Y-99629816D01*
X140629816Y-99502262D01*
X140725789Y-99349522D01*
X140785368Y-99179255D01*
X140785368Y-99179254D01*
X140787668Y-99172682D01*
X140790370Y-99173627D01*
X140818176Y-99123882D01*
X140879827Y-99091005D01*
X140949466Y-99096678D01*
X140992667Y-99124745D01*
X140997738Y-99129816D01*
X141150478Y-99225789D01*
X141320745Y-99285368D01*
X141320750Y-99285369D01*
X141499996Y-99305565D01*
X141500000Y-99305565D01*
X141500004Y-99305565D01*
X141679249Y-99285369D01*
X141679252Y-99285368D01*
X141679255Y-99285368D01*
X141849522Y-99225789D01*
X142002262Y-99129816D01*
X142129816Y-99002262D01*
X142225789Y-98849522D01*
X142285368Y-98679255D01*
X142285369Y-98679249D01*
X142305565Y-98500003D01*
X142305565Y-98499996D01*
X142285369Y-98320750D01*
X142285368Y-98320745D01*
X142225788Y-98150476D01*
X142129815Y-97997737D01*
X142002262Y-97870184D01*
X141849523Y-97774211D01*
X141679254Y-97714631D01*
X141679249Y-97714630D01*
X141500004Y-97694435D01*
X141499996Y-97694435D01*
X141320750Y-97714630D01*
X141320745Y-97714631D01*
X141150476Y-97774211D01*
X140997737Y-97870184D01*
X140870184Y-97997737D01*
X140774211Y-98150476D01*
X140712332Y-98327318D01*
X140709648Y-98326378D01*
X140681738Y-98376200D01*
X140620055Y-98409018D01*
X140550422Y-98403278D01*
X140507332Y-98375254D01*
X140502262Y-98370184D01*
X140349523Y-98274211D01*
X140179254Y-98214631D01*
X140179249Y-98214630D01*
X140000004Y-98194435D01*
X139999996Y-98194435D01*
X139820750Y-98214630D01*
X139820745Y-98214631D01*
X139650476Y-98274211D01*
X139497737Y-98370184D01*
X139370184Y-98497737D01*
X139274211Y-98650476D01*
X139214631Y-98820745D01*
X139214630Y-98820750D01*
X139194435Y-98999996D01*
X139194435Y-99000003D01*
X122198481Y-99000003D01*
X122230636Y-98880000D01*
X121333686Y-98880000D01*
X121359493Y-98839844D01*
X121400000Y-98701889D01*
X121400000Y-98558111D01*
X121359493Y-98420156D01*
X121333686Y-98380000D01*
X122230636Y-98380000D01*
X122230635Y-98379999D01*
X122173432Y-98166513D01*
X122173429Y-98166507D01*
X122073600Y-97952422D01*
X122073599Y-97952420D01*
X121938113Y-97758926D01*
X121938108Y-97758920D01*
X121771078Y-97591890D01*
X121585405Y-97461879D01*
X121541780Y-97407302D01*
X121534588Y-97337804D01*
X121566110Y-97275449D01*
X121585406Y-97258730D01*
X121698908Y-97179255D01*
X121771401Y-97128495D01*
X121899893Y-97000003D01*
X129194435Y-97000003D01*
X129214630Y-97179249D01*
X129214631Y-97179254D01*
X129274211Y-97349523D01*
X129344810Y-97461880D01*
X129370184Y-97502262D01*
X129497738Y-97629816D01*
X129588080Y-97686582D01*
X129632721Y-97714632D01*
X129650478Y-97725789D01*
X129745161Y-97758920D01*
X129820745Y-97785368D01*
X129820750Y-97785369D01*
X129999996Y-97805565D01*
X130000000Y-97805565D01*
X130000004Y-97805565D01*
X130179249Y-97785369D01*
X130179252Y-97785368D01*
X130179255Y-97785368D01*
X130349522Y-97725789D01*
X130502262Y-97629816D01*
X130629816Y-97502262D01*
X130725789Y-97349522D01*
X130785368Y-97179255D01*
X130791087Y-97128498D01*
X130805565Y-97000003D01*
X130805565Y-96999996D01*
X130785369Y-96820750D01*
X130785368Y-96820745D01*
X130725789Y-96650478D01*
X130725188Y-96649522D01*
X130629815Y-96497737D01*
X130502262Y-96370184D01*
X130390570Y-96300003D01*
X154694435Y-96300003D01*
X154714630Y-96479249D01*
X154714631Y-96479254D01*
X154774211Y-96649523D01*
X154848549Y-96767830D01*
X154870184Y-96802262D01*
X154997738Y-96929816D01*
X155150478Y-97025789D01*
X155320745Y-97085368D01*
X155320750Y-97085369D01*
X155499996Y-97105565D01*
X155500000Y-97105565D01*
X155500004Y-97105565D01*
X155679249Y-97085369D01*
X155679252Y-97085368D01*
X155679255Y-97085368D01*
X155849522Y-97025789D01*
X156002262Y-96929816D01*
X156129816Y-96802262D01*
X156225789Y-96649522D01*
X156285368Y-96479255D01*
X156285369Y-96479249D01*
X156305565Y-96300003D01*
X156305565Y-96299996D01*
X156285369Y-96120750D01*
X156285367Y-96120740D01*
X156257670Y-96041589D01*
X156254107Y-95971810D01*
X156288836Y-95911182D01*
X156350829Y-95878955D01*
X156415664Y-95883591D01*
X156420738Y-95885366D01*
X156420742Y-95885367D01*
X156420745Y-95885368D01*
X156420746Y-95885368D01*
X156420750Y-95885369D01*
X156599996Y-95905565D01*
X156600000Y-95905565D01*
X156600004Y-95905565D01*
X156779249Y-95885369D01*
X156779252Y-95885368D01*
X156779255Y-95885368D01*
X156949522Y-95825789D01*
X157102262Y-95729816D01*
X157229816Y-95602262D01*
X157325789Y-95449522D01*
X157385368Y-95279255D01*
X157392202Y-95218600D01*
X157405565Y-95100003D01*
X157405565Y-95099996D01*
X157385369Y-94920750D01*
X157385368Y-94920745D01*
X157325788Y-94750475D01*
X157272035Y-94664929D01*
X157253034Y-94597692D01*
X157273401Y-94530857D01*
X157326669Y-94485642D01*
X157395925Y-94476404D01*
X157417983Y-94481915D01*
X157570737Y-94535366D01*
X157570743Y-94535367D01*
X157570745Y-94535368D01*
X157570746Y-94535368D01*
X157570750Y-94535369D01*
X157749996Y-94555565D01*
X157750000Y-94555565D01*
X157750004Y-94555565D01*
X157929249Y-94535369D01*
X157929250Y-94535368D01*
X157929255Y-94535368D01*
X157953832Y-94526767D01*
X158023609Y-94523205D01*
X158084238Y-94557933D01*
X158116466Y-94619925D01*
X158110063Y-94689501D01*
X158099782Y-94709780D01*
X158074212Y-94750474D01*
X158014631Y-94920745D01*
X158014630Y-94920750D01*
X157994435Y-95099996D01*
X157994435Y-95100003D01*
X158014630Y-95279249D01*
X158014631Y-95279254D01*
X158074211Y-95449523D01*
X158119152Y-95521045D01*
X158170184Y-95602262D01*
X158297738Y-95729816D01*
X158388080Y-95786582D01*
X158405833Y-95797737D01*
X158450478Y-95825789D01*
X158532804Y-95854596D01*
X158620745Y-95885368D01*
X158620750Y-95885369D01*
X158799996Y-95905565D01*
X158800000Y-95905565D01*
X158800004Y-95905565D01*
X158979249Y-95885369D01*
X158979252Y-95885368D01*
X158979255Y-95885368D01*
X159149522Y-95825789D01*
X159302262Y-95729816D01*
X159429816Y-95602262D01*
X159525789Y-95449522D01*
X159585368Y-95279255D01*
X159592202Y-95218600D01*
X159605565Y-95100003D01*
X159605565Y-95099996D01*
X159585369Y-94920750D01*
X159585368Y-94920745D01*
X159558441Y-94843793D01*
X159525789Y-94750478D01*
X159525786Y-94750474D01*
X159457838Y-94642335D01*
X159429816Y-94597738D01*
X159302262Y-94470184D01*
X159266759Y-94447876D01*
X159149523Y-94374211D01*
X158979254Y-94314631D01*
X158979249Y-94314630D01*
X158800004Y-94294435D01*
X158799996Y-94294435D01*
X158620750Y-94314630D01*
X158620738Y-94314633D01*
X158596164Y-94323232D01*
X158526385Y-94326793D01*
X158465758Y-94292063D01*
X158433532Y-94230069D01*
X158439938Y-94160494D01*
X158450219Y-94140216D01*
X158475787Y-94099525D01*
X158475788Y-94099523D01*
X158475789Y-94099522D01*
X158535368Y-93929255D01*
X158555565Y-93750000D01*
X158535368Y-93570745D01*
X158475789Y-93400478D01*
X158379816Y-93247738D01*
X158252262Y-93120184D01*
X158099523Y-93024211D01*
X157929254Y-92964631D01*
X157929249Y-92964630D01*
X157750004Y-92944435D01*
X157749996Y-92944435D01*
X157570750Y-92964630D01*
X157570745Y-92964631D01*
X157400476Y-93024211D01*
X157247737Y-93120184D01*
X157120184Y-93247737D01*
X157024211Y-93400476D01*
X156964631Y-93570745D01*
X156964630Y-93570750D01*
X156944435Y-93749996D01*
X156944435Y-93750003D01*
X156964630Y-93929249D01*
X156964631Y-93929254D01*
X157024211Y-94099523D01*
X157077965Y-94185071D01*
X157096965Y-94252307D01*
X157076597Y-94319143D01*
X157023330Y-94364357D01*
X156954073Y-94373595D01*
X156932017Y-94368085D01*
X156779257Y-94314632D01*
X156779249Y-94314630D01*
X156600004Y-94294435D01*
X156599996Y-94294435D01*
X156420750Y-94314630D01*
X156420745Y-94314631D01*
X156250476Y-94374211D01*
X156097737Y-94470184D01*
X155970184Y-94597737D01*
X155874211Y-94750476D01*
X155814631Y-94920745D01*
X155814630Y-94920750D01*
X155794435Y-95099996D01*
X155794435Y-95100003D01*
X155814630Y-95279249D01*
X155814633Y-95279262D01*
X155842329Y-95358411D01*
X155845891Y-95428190D01*
X155811163Y-95488817D01*
X155749169Y-95521045D01*
X155684341Y-95516410D01*
X155679265Y-95514634D01*
X155679249Y-95514630D01*
X155500004Y-95494435D01*
X155499996Y-95494435D01*
X155320750Y-95514630D01*
X155320745Y-95514631D01*
X155150476Y-95574211D01*
X154997737Y-95670184D01*
X154870184Y-95797737D01*
X154774211Y-95950476D01*
X154714631Y-96120745D01*
X154714630Y-96120750D01*
X154694435Y-96299996D01*
X154694435Y-96300003D01*
X130390570Y-96300003D01*
X130349523Y-96274211D01*
X130179254Y-96214631D01*
X130179249Y-96214630D01*
X130000004Y-96194435D01*
X129999996Y-96194435D01*
X129820750Y-96214630D01*
X129820745Y-96214631D01*
X129650476Y-96274211D01*
X129497737Y-96370184D01*
X129370184Y-96497737D01*
X129274211Y-96650476D01*
X129214631Y-96820745D01*
X129214630Y-96820750D01*
X129194435Y-96999996D01*
X129194435Y-97000003D01*
X121899893Y-97000003D01*
X121938495Y-96961401D01*
X122074035Y-96767830D01*
X122173903Y-96553663D01*
X122235063Y-96325408D01*
X122255659Y-96090000D01*
X122235063Y-95854592D01*
X122173903Y-95626337D01*
X122074035Y-95412171D01*
X121980962Y-95279249D01*
X121938496Y-95218600D01*
X121938495Y-95218599D01*
X121816567Y-95096671D01*
X121783084Y-95035351D01*
X121788068Y-94965659D01*
X121829939Y-94909725D01*
X121860915Y-94892810D01*
X121992331Y-94843796D01*
X122107546Y-94757546D01*
X122193796Y-94642331D01*
X122244091Y-94507483D01*
X122250500Y-94447873D01*
X122250499Y-92652128D01*
X122244091Y-92592517D01*
X122193796Y-92457669D01*
X122193795Y-92457668D01*
X122193793Y-92457664D01*
X122107547Y-92342455D01*
X122107544Y-92342452D01*
X121992335Y-92256206D01*
X121992328Y-92256202D01*
X121857482Y-92205908D01*
X121857483Y-92205908D01*
X121797883Y-92199501D01*
X121797881Y-92199500D01*
X121797873Y-92199500D01*
X121797864Y-92199500D01*
X120002129Y-92199500D01*
X120002123Y-92199501D01*
X119942516Y-92205908D01*
X119807671Y-92256202D01*
X119807664Y-92256206D01*
X119692455Y-92342452D01*
X119692452Y-92342455D01*
X119606206Y-92457664D01*
X119606202Y-92457671D01*
X119555908Y-92592517D01*
X119549501Y-92652116D01*
X119549501Y-92652123D01*
X119549500Y-92652135D01*
X119549500Y-94447870D01*
X119549501Y-94447876D01*
X119555908Y-94507483D01*
X119606202Y-94642328D01*
X119606206Y-94642335D01*
X119692452Y-94757544D01*
X119692455Y-94757547D01*
X119807664Y-94843793D01*
X119807671Y-94843797D01*
X119939081Y-94892810D01*
X119995015Y-94934681D01*
X120019432Y-95000145D01*
X120004580Y-95068418D01*
X119983430Y-95096673D01*
X119861503Y-95218600D01*
X119725965Y-95412169D01*
X119725964Y-95412171D01*
X119626098Y-95626335D01*
X119626094Y-95626344D01*
X119564938Y-95854586D01*
X119564936Y-95854596D01*
X119544341Y-96089999D01*
X119544341Y-96090000D01*
X119564936Y-96325403D01*
X119564938Y-96325413D01*
X119626094Y-96553655D01*
X119626096Y-96553659D01*
X119626097Y-96553663D01*
X119671242Y-96650476D01*
X119725965Y-96767830D01*
X119725967Y-96767834D01*
X119861501Y-96961395D01*
X119861506Y-96961402D01*
X120028597Y-97128493D01*
X120028603Y-97128498D01*
X120214594Y-97258730D01*
X120258219Y-97313307D01*
X120265413Y-97382805D01*
X120233890Y-97445160D01*
X120214595Y-97461880D01*
X120028922Y-97591890D01*
X120028920Y-97591891D01*
X119861891Y-97758920D01*
X119861886Y-97758926D01*
X119726400Y-97952420D01*
X119726399Y-97952422D01*
X119626570Y-98166507D01*
X119626567Y-98166513D01*
X119569364Y-98379999D01*
X119569364Y-98380000D01*
X120466314Y-98380000D01*
X120440507Y-98420156D01*
X120400000Y-98558111D01*
X120400000Y-98701889D01*
X120440507Y-98839844D01*
X120466314Y-98880000D01*
X119569364Y-98880000D01*
X119626567Y-99093486D01*
X119626570Y-99093492D01*
X119726399Y-99307578D01*
X119861894Y-99501082D01*
X120028917Y-99668105D01*
X120214595Y-99798119D01*
X120258219Y-99852696D01*
X120265412Y-99922195D01*
X120233890Y-99984549D01*
X120214595Y-100001269D01*
X120028594Y-100131508D01*
X119861505Y-100298597D01*
X119725965Y-100492169D01*
X119725964Y-100492171D01*
X119626098Y-100706335D01*
X119626094Y-100706344D01*
X119564938Y-100934586D01*
X119564936Y-100934596D01*
X119544341Y-101169999D01*
X119544341Y-101170000D01*
X119564936Y-101405403D01*
X119564938Y-101405413D01*
X119626094Y-101633655D01*
X119626096Y-101633659D01*
X119626097Y-101633663D01*
X119713335Y-101820745D01*
X119725965Y-101847830D01*
X119725967Y-101847834D01*
X119861501Y-102041395D01*
X119861506Y-102041402D01*
X120028597Y-102208493D01*
X120028603Y-102208498D01*
X120214158Y-102338425D01*
X120257783Y-102393002D01*
X120264977Y-102462500D01*
X120233454Y-102524855D01*
X120214158Y-102541575D01*
X120028597Y-102671505D01*
X119861505Y-102838597D01*
X119725965Y-103032169D01*
X119725964Y-103032171D01*
X119626098Y-103246335D01*
X119626094Y-103246344D01*
X119564938Y-103474586D01*
X119564936Y-103474596D01*
X119544341Y-103709999D01*
X119544341Y-103710000D01*
X119564936Y-103945403D01*
X119564938Y-103945413D01*
X119626094Y-104173655D01*
X119626096Y-104173659D01*
X119626097Y-104173663D01*
X119678573Y-104286197D01*
X119725965Y-104387830D01*
X119725967Y-104387834D01*
X119802923Y-104497737D01*
X119846901Y-104560545D01*
X119861501Y-104581395D01*
X119861506Y-104581402D01*
X120028597Y-104748493D01*
X120028603Y-104748498D01*
X120214158Y-104878425D01*
X120257783Y-104933002D01*
X120264977Y-105002500D01*
X120233454Y-105064855D01*
X120214158Y-105081575D01*
X120028597Y-105211505D01*
X119861505Y-105378597D01*
X119725965Y-105572169D01*
X119725964Y-105572171D01*
X119626098Y-105786335D01*
X119626094Y-105786344D01*
X119564938Y-106014586D01*
X119564936Y-106014596D01*
X119544341Y-106249999D01*
X119544341Y-106250000D01*
X116000500Y-106250000D01*
X116000500Y-90350936D01*
X140045631Y-90350936D01*
X140076442Y-90552063D01*
X140076445Y-90552075D01*
X140147111Y-90742881D01*
X140147115Y-90742888D01*
X140254745Y-90915567D01*
X140254747Y-90915569D01*
X140254748Y-90915571D01*
X140394941Y-91063053D01*
X140523344Y-91152424D01*
X140561949Y-91179294D01*
X140561950Y-91179294D01*
X140561951Y-91179295D01*
X140748942Y-91259540D01*
X140948259Y-91300500D01*
X154600743Y-91300500D01*
X154752439Y-91285074D01*
X154946579Y-91224162D01*
X154946580Y-91224161D01*
X154946588Y-91224159D01*
X155124502Y-91125409D01*
X155278895Y-90992866D01*
X155403448Y-90831958D01*
X155493060Y-90649271D01*
X155544063Y-90452285D01*
X155554369Y-90249064D01*
X155523556Y-90047929D01*
X155452886Y-89857113D01*
X155345252Y-89684429D01*
X155205059Y-89536947D01*
X155106587Y-89468409D01*
X155038050Y-89420705D01*
X154851056Y-89340459D01*
X154651741Y-89299500D01*
X140999258Y-89299500D01*
X140999257Y-89299500D01*
X140847560Y-89314925D01*
X140653420Y-89375837D01*
X140653405Y-89375844D01*
X140475500Y-89474589D01*
X140475495Y-89474592D01*
X140321106Y-89607132D01*
X140321104Y-89607134D01*
X140196554Y-89768037D01*
X140196553Y-89768040D01*
X140106940Y-89950728D01*
X140055937Y-90147714D01*
X140045631Y-90350936D01*
X116000500Y-90350936D01*
X116000500Y-88174334D01*
X131299500Y-88174334D01*
X131340429Y-88419616D01*
X131421169Y-88654802D01*
X131421172Y-88654811D01*
X131539524Y-88873506D01*
X131539526Y-88873509D01*
X131692262Y-89069744D01*
X131851744Y-89216557D01*
X131875217Y-89238166D01*
X132083393Y-89374173D01*
X132311118Y-89474063D01*
X132550220Y-89534612D01*
X132552179Y-89535108D01*
X132552181Y-89535108D01*
X132552186Y-89535109D01*
X132705589Y-89547819D01*
X132737933Y-89550500D01*
X132737937Y-89550500D01*
X134362063Y-89550500D01*
X134362067Y-89550500D01*
X134424677Y-89545311D01*
X134547813Y-89535109D01*
X134547816Y-89535108D01*
X134547821Y-89535108D01*
X134788881Y-89474063D01*
X135016607Y-89374173D01*
X135224785Y-89238164D01*
X135407738Y-89069744D01*
X135560474Y-88873509D01*
X135678828Y-88654810D01*
X135759571Y-88419614D01*
X135800500Y-88174335D01*
X135800500Y-87925665D01*
X135779530Y-87799999D01*
X159820976Y-87799999D01*
X159820978Y-87800000D01*
X160866314Y-87800000D01*
X160840507Y-87840156D01*
X160800000Y-87978111D01*
X160800000Y-88121889D01*
X160840507Y-88259844D01*
X160866314Y-88300000D01*
X159820977Y-88300000D01*
X159840916Y-88419492D01*
X159921630Y-88654603D01*
X159921635Y-88654614D01*
X160039942Y-88873228D01*
X160039948Y-88873237D01*
X160192626Y-89069397D01*
X160192635Y-89069407D01*
X160375522Y-89237767D01*
X160375521Y-89237767D01*
X160583632Y-89373732D01*
X160811282Y-89473587D01*
X161052261Y-89534612D01*
X161052269Y-89534614D01*
X161237945Y-89549999D01*
X161237961Y-89550000D01*
X161800000Y-89550000D01*
X161800000Y-88550000D01*
X162300000Y-88550000D01*
X162300000Y-89550000D01*
X162862039Y-89550000D01*
X162862054Y-89549999D01*
X163047730Y-89534614D01*
X163047738Y-89534612D01*
X163288717Y-89473587D01*
X163516367Y-89373732D01*
X163724478Y-89237767D01*
X163907364Y-89069407D01*
X163907373Y-89069397D01*
X164060051Y-88873237D01*
X164060057Y-88873228D01*
X164178364Y-88654614D01*
X164178369Y-88654603D01*
X164259083Y-88419492D01*
X164279023Y-88300000D01*
X163233686Y-88300000D01*
X163259493Y-88259844D01*
X163300000Y-88121889D01*
X163300000Y-87978111D01*
X163259493Y-87840156D01*
X163233686Y-87800000D01*
X164279022Y-87800000D01*
X164279023Y-87799999D01*
X164259083Y-87680507D01*
X164178369Y-87445396D01*
X164178364Y-87445385D01*
X164060057Y-87226771D01*
X164060051Y-87226762D01*
X163907373Y-87030602D01*
X163907364Y-87030592D01*
X163724477Y-86862232D01*
X163724478Y-86862232D01*
X163516367Y-86726267D01*
X163288717Y-86626412D01*
X163047738Y-86565387D01*
X163047730Y-86565385D01*
X162862054Y-86550000D01*
X162300000Y-86550000D01*
X162300000Y-87550000D01*
X161800000Y-87550000D01*
X161800000Y-86550000D01*
X161237945Y-86550000D01*
X161052269Y-86565385D01*
X161052261Y-86565387D01*
X160811282Y-86626412D01*
X160583632Y-86726267D01*
X160375521Y-86862232D01*
X160192635Y-87030592D01*
X160192626Y-87030602D01*
X160039948Y-87226762D01*
X160039942Y-87226771D01*
X159921635Y-87445385D01*
X159921630Y-87445396D01*
X159840916Y-87680507D01*
X159820976Y-87799999D01*
X135779530Y-87799999D01*
X135759571Y-87680386D01*
X135678828Y-87445190D01*
X135560474Y-87226491D01*
X135407738Y-87030256D01*
X135224785Y-86861836D01*
X135224782Y-86861833D01*
X135016606Y-86725826D01*
X134788881Y-86625936D01*
X134547824Y-86564892D01*
X134547813Y-86564890D01*
X134362077Y-86549500D01*
X134362067Y-86549500D01*
X132737933Y-86549500D01*
X132737922Y-86549500D01*
X132552186Y-86564890D01*
X132552175Y-86564892D01*
X132311118Y-86625936D01*
X132083393Y-86725826D01*
X131875217Y-86861833D01*
X131692261Y-87030257D01*
X131539524Y-87226493D01*
X131421172Y-87445188D01*
X131421169Y-87445197D01*
X131340429Y-87680383D01*
X131299500Y-87925665D01*
X131299500Y-88174334D01*
X116000500Y-88174334D01*
X116000500Y-86100003D01*
X139994435Y-86100003D01*
X140014630Y-86279249D01*
X140014631Y-86279254D01*
X140074211Y-86449523D01*
X140147014Y-86565387D01*
X140170184Y-86602262D01*
X140297738Y-86729816D01*
X140450478Y-86825789D01*
X140554626Y-86862232D01*
X140620745Y-86885368D01*
X140620750Y-86885369D01*
X140799996Y-86905565D01*
X140800000Y-86905565D01*
X140800004Y-86905565D01*
X140979249Y-86885369D01*
X140979252Y-86885368D01*
X140979255Y-86885368D01*
X141149522Y-86825789D01*
X141302262Y-86729816D01*
X141429816Y-86602262D01*
X141525789Y-86449522D01*
X141585368Y-86279255D01*
X141605565Y-86100000D01*
X141585368Y-85920745D01*
X141525789Y-85750478D01*
X141429816Y-85597738D01*
X141302262Y-85470184D01*
X141149523Y-85374211D01*
X140979254Y-85314631D01*
X140979249Y-85314630D01*
X140800004Y-85294435D01*
X140799996Y-85294435D01*
X140620750Y-85314630D01*
X140620745Y-85314631D01*
X140450476Y-85374211D01*
X140297737Y-85470184D01*
X140170184Y-85597737D01*
X140074211Y-85750476D01*
X140014631Y-85920745D01*
X140014630Y-85920750D01*
X139994435Y-86099996D01*
X139994435Y-86100003D01*
X116000500Y-86100003D01*
X116000500Y-84500003D01*
X130694435Y-84500003D01*
X130714630Y-84679249D01*
X130714631Y-84679254D01*
X130774211Y-84849523D01*
X130859569Y-84985368D01*
X130870184Y-85002262D01*
X130997738Y-85129816D01*
X131150478Y-85225789D01*
X131320745Y-85285368D01*
X131320750Y-85285369D01*
X131499996Y-85305565D01*
X131500000Y-85305565D01*
X131500004Y-85305565D01*
X131679249Y-85285369D01*
X131679252Y-85285368D01*
X131679255Y-85285368D01*
X131849522Y-85225789D01*
X132002262Y-85129816D01*
X132129816Y-85002262D01*
X132225789Y-84849522D01*
X132285368Y-84679255D01*
X132299985Y-84549523D01*
X132305565Y-84500003D01*
X132305565Y-84499996D01*
X132285369Y-84320750D01*
X132285368Y-84320745D01*
X132243119Y-84200003D01*
X139494435Y-84200003D01*
X139514630Y-84379249D01*
X139514631Y-84379254D01*
X139574211Y-84549523D01*
X139655724Y-84679249D01*
X139670184Y-84702262D01*
X139797738Y-84829816D01*
X139950478Y-84925789D01*
X140120745Y-84985368D01*
X140120750Y-84985369D01*
X140299996Y-85005565D01*
X140300000Y-85005565D01*
X140300004Y-85005565D01*
X140479249Y-84985369D01*
X140479252Y-84985368D01*
X140479255Y-84985368D01*
X140649522Y-84925789D01*
X140802262Y-84829816D01*
X140929816Y-84702262D01*
X141025789Y-84549522D01*
X141085368Y-84379255D01*
X141091960Y-84320750D01*
X141105565Y-84200003D01*
X141105565Y-84199996D01*
X141085369Y-84020750D01*
X141085368Y-84020745D01*
X141025789Y-83850478D01*
X140929816Y-83697738D01*
X140802262Y-83570184D01*
X140649523Y-83474211D01*
X140479254Y-83414631D01*
X140479249Y-83414630D01*
X140300004Y-83394435D01*
X140299996Y-83394435D01*
X140120750Y-83414630D01*
X140120745Y-83414631D01*
X139950476Y-83474211D01*
X139797737Y-83570184D01*
X139670184Y-83697737D01*
X139574211Y-83850476D01*
X139514631Y-84020745D01*
X139514630Y-84020750D01*
X139494435Y-84199996D01*
X139494435Y-84200003D01*
X132243119Y-84200003D01*
X132225789Y-84150478D01*
X132129816Y-83997738D01*
X132002262Y-83870184D01*
X131970897Y-83850476D01*
X131849523Y-83774211D01*
X131679254Y-83714631D01*
X131679249Y-83714630D01*
X131500004Y-83694435D01*
X131499996Y-83694435D01*
X131320750Y-83714630D01*
X131320745Y-83714631D01*
X131150476Y-83774211D01*
X130997737Y-83870184D01*
X130870184Y-83997737D01*
X130774211Y-84150476D01*
X130714631Y-84320745D01*
X130714630Y-84320750D01*
X130694435Y-84499996D01*
X130694435Y-84500003D01*
X116000500Y-84500003D01*
X116000500Y-82500003D01*
X161694435Y-82500003D01*
X161714630Y-82679249D01*
X161714631Y-82679254D01*
X161774211Y-82849523D01*
X161870184Y-83002262D01*
X161997738Y-83129816D01*
X162150478Y-83225789D01*
X162320745Y-83285368D01*
X162320750Y-83285369D01*
X162499996Y-83305565D01*
X162500000Y-83305565D01*
X162500004Y-83305565D01*
X162679249Y-83285369D01*
X162679252Y-83285368D01*
X162679255Y-83285368D01*
X162849522Y-83225789D01*
X163002262Y-83129816D01*
X163129816Y-83002262D01*
X163225789Y-82849522D01*
X163285368Y-82679255D01*
X163305565Y-82500000D01*
X163285368Y-82320745D01*
X163225789Y-82150478D01*
X163129816Y-81997738D01*
X163002262Y-81870184D01*
X162849523Y-81774211D01*
X162679254Y-81714631D01*
X162679249Y-81714630D01*
X162500004Y-81694435D01*
X162499996Y-81694435D01*
X162320750Y-81714630D01*
X162320745Y-81714631D01*
X162150476Y-81774211D01*
X161997737Y-81870184D01*
X161870184Y-81997737D01*
X161774211Y-82150476D01*
X161714631Y-82320745D01*
X161714630Y-82320750D01*
X161694435Y-82499996D01*
X161694435Y-82500003D01*
X116000500Y-82500003D01*
X116000500Y-80500003D01*
X166944435Y-80500003D01*
X166964630Y-80679249D01*
X166964631Y-80679254D01*
X167024211Y-80849523D01*
X167120184Y-81002262D01*
X167247738Y-81129816D01*
X167400478Y-81225789D01*
X167570745Y-81285368D01*
X167570750Y-81285369D01*
X167749996Y-81305565D01*
X167750000Y-81305565D01*
X167750004Y-81305565D01*
X167929249Y-81285369D01*
X167929252Y-81285368D01*
X167929255Y-81285368D01*
X168099522Y-81225789D01*
X168252262Y-81129816D01*
X168379816Y-81002262D01*
X168475789Y-80849522D01*
X168535368Y-80679255D01*
X168535369Y-80679249D01*
X168555565Y-80500003D01*
X168555565Y-80499996D01*
X168544299Y-80400003D01*
X172994435Y-80400003D01*
X173014630Y-80579249D01*
X173014631Y-80579254D01*
X173074211Y-80749523D01*
X173137045Y-80849522D01*
X173170184Y-80902262D01*
X173297738Y-81029816D01*
X173450478Y-81125789D01*
X173461984Y-81129815D01*
X173620745Y-81185368D01*
X173620750Y-81185369D01*
X173799996Y-81205565D01*
X173800000Y-81205565D01*
X173800004Y-81205565D01*
X173979249Y-81185369D01*
X173979252Y-81185368D01*
X173979255Y-81185368D01*
X174149522Y-81125789D01*
X174302262Y-81029816D01*
X174429816Y-80902262D01*
X174525789Y-80749522D01*
X174585368Y-80579255D01*
X174585369Y-80579249D01*
X174605565Y-80400003D01*
X174605565Y-80399996D01*
X174585369Y-80220750D01*
X174585368Y-80220745D01*
X174525789Y-80050478D01*
X174447539Y-79925945D01*
X174429594Y-79862440D01*
X174428567Y-79862577D01*
X174365311Y-79832905D01*
X174359784Y-79827706D01*
X174302262Y-79770184D01*
X174149523Y-79674211D01*
X173979254Y-79614631D01*
X173979249Y-79614630D01*
X173800004Y-79594435D01*
X173799996Y-79594435D01*
X173620750Y-79614630D01*
X173620745Y-79614631D01*
X173450476Y-79674211D01*
X173297737Y-79770184D01*
X173170184Y-79897737D01*
X173074211Y-80050476D01*
X173014631Y-80220745D01*
X173014630Y-80220750D01*
X172994435Y-80399996D01*
X172994435Y-80400003D01*
X168544299Y-80400003D01*
X168535369Y-80320750D01*
X168535368Y-80320745D01*
X168475788Y-80150476D01*
X168412954Y-80050477D01*
X168379816Y-79997738D01*
X168252262Y-79870184D01*
X168188017Y-79829816D01*
X168099523Y-79774211D01*
X167929254Y-79714631D01*
X167929249Y-79714630D01*
X167750004Y-79694435D01*
X167749996Y-79694435D01*
X167570750Y-79714630D01*
X167570745Y-79714631D01*
X167400476Y-79774211D01*
X167247737Y-79870184D01*
X167120184Y-79997737D01*
X167024211Y-80150476D01*
X166964631Y-80320745D01*
X166964630Y-80320750D01*
X166944435Y-80499996D01*
X166944435Y-80500003D01*
X116000500Y-80500003D01*
X116000500Y-79200003D01*
X174394435Y-79200003D01*
X174414630Y-79379249D01*
X174414631Y-79379254D01*
X174474211Y-79549523D01*
X174552459Y-79674053D01*
X174570404Y-79737559D01*
X174571432Y-79737422D01*
X174634688Y-79767094D01*
X174640215Y-79772293D01*
X174697738Y-79829816D01*
X174749659Y-79862440D01*
X174805833Y-79897737D01*
X174850478Y-79925789D01*
X175020745Y-79985368D01*
X175020750Y-79985369D01*
X175199996Y-80005565D01*
X175200000Y-80005565D01*
X175200004Y-80005565D01*
X175379249Y-79985369D01*
X175379252Y-79985368D01*
X175379255Y-79985368D01*
X175549522Y-79925789D01*
X175702262Y-79829816D01*
X175829816Y-79702262D01*
X175925789Y-79549522D01*
X175985368Y-79379255D01*
X176005565Y-79200000D01*
X176000558Y-79155565D01*
X175985369Y-79020750D01*
X175985368Y-79020745D01*
X175925788Y-78850476D01*
X175886582Y-78788080D01*
X175829816Y-78697738D01*
X175702262Y-78570184D01*
X175637124Y-78529255D01*
X175549523Y-78474211D01*
X175379254Y-78414631D01*
X175379249Y-78414630D01*
X175200004Y-78394435D01*
X175199996Y-78394435D01*
X175020750Y-78414630D01*
X175020745Y-78414631D01*
X174850476Y-78474211D01*
X174697737Y-78570184D01*
X174570184Y-78697737D01*
X174474211Y-78850476D01*
X174414631Y-79020745D01*
X174414630Y-79020750D01*
X174394435Y-79199996D01*
X174394435Y-79200003D01*
X116000500Y-79200003D01*
X116000500Y-78350003D01*
X171694435Y-78350003D01*
X171714630Y-78529249D01*
X171714631Y-78529254D01*
X171774211Y-78699523D01*
X171869062Y-78850476D01*
X171870184Y-78852262D01*
X171997738Y-78979816D01*
X172150478Y-79075789D01*
X172320745Y-79135368D01*
X172320750Y-79135369D01*
X172499996Y-79155565D01*
X172500000Y-79155565D01*
X172500004Y-79155565D01*
X172679249Y-79135369D01*
X172679252Y-79135368D01*
X172679255Y-79135368D01*
X172849522Y-79075789D01*
X173002262Y-78979816D01*
X173129816Y-78852262D01*
X173225789Y-78699522D01*
X173285368Y-78529255D01*
X173298283Y-78414630D01*
X173305565Y-78350003D01*
X173305565Y-78349996D01*
X173285369Y-78170750D01*
X173285368Y-78170745D01*
X173225788Y-78000476D01*
X173129815Y-77847737D01*
X173002262Y-77720184D01*
X172849523Y-77624211D01*
X172679254Y-77564631D01*
X172679249Y-77564630D01*
X172500004Y-77544435D01*
X172499996Y-77544435D01*
X172320750Y-77564630D01*
X172320745Y-77564631D01*
X172150476Y-77624211D01*
X171997737Y-77720184D01*
X171870184Y-77847737D01*
X171774211Y-78000476D01*
X171714631Y-78170745D01*
X171714630Y-78170750D01*
X171694435Y-78349996D01*
X171694435Y-78350003D01*
X116000500Y-78350003D01*
X116000500Y-75100003D01*
X160936935Y-75100003D01*
X160957130Y-75279249D01*
X160957131Y-75279254D01*
X161016711Y-75449523D01*
X161112684Y-75602262D01*
X161245162Y-75734740D01*
X161243436Y-75736465D01*
X161277039Y-75784359D01*
X161279875Y-75854171D01*
X161276620Y-75865047D01*
X161257131Y-75920745D01*
X161257131Y-75920746D01*
X161236935Y-76099996D01*
X161236935Y-76100003D01*
X161257130Y-76279249D01*
X161257131Y-76279254D01*
X161316711Y-76449523D01*
X161395444Y-76574825D01*
X161412684Y-76602262D01*
X161540238Y-76729816D01*
X161692978Y-76825789D01*
X161863245Y-76885368D01*
X161863250Y-76885369D01*
X162042496Y-76905565D01*
X162042500Y-76905565D01*
X162042504Y-76905565D01*
X162221749Y-76885369D01*
X162221752Y-76885368D01*
X162221755Y-76885368D01*
X162392022Y-76825789D01*
X162544762Y-76729816D01*
X162666268Y-76608310D01*
X162727591Y-76574825D01*
X162794903Y-76578949D01*
X162813245Y-76585368D01*
X162813249Y-76585368D01*
X162813251Y-76585369D01*
X162813248Y-76585369D01*
X162992496Y-76605565D01*
X162992500Y-76605565D01*
X162992504Y-76605565D01*
X163041868Y-76600003D01*
X171036935Y-76600003D01*
X171057130Y-76779249D01*
X171057131Y-76779254D01*
X171116711Y-76949523D01*
X171167162Y-77029815D01*
X171212684Y-77102262D01*
X171340238Y-77229816D01*
X171492978Y-77325789D01*
X171663245Y-77385368D01*
X171663250Y-77385369D01*
X171842496Y-77405565D01*
X171842500Y-77405565D01*
X171842504Y-77405565D01*
X172021749Y-77385369D01*
X172021752Y-77385368D01*
X172021755Y-77385368D01*
X172192022Y-77325789D01*
X172344762Y-77229816D01*
X172434505Y-77140073D01*
X172495828Y-77106588D01*
X172565520Y-77111572D01*
X172588154Y-77122758D01*
X172592978Y-77125789D01*
X172592981Y-77125790D01*
X172763237Y-77185366D01*
X172763243Y-77185367D01*
X172763245Y-77185368D01*
X172763246Y-77185368D01*
X172763250Y-77185369D01*
X172942496Y-77205565D01*
X172942500Y-77205565D01*
X172942504Y-77205565D01*
X173121749Y-77185369D01*
X173121752Y-77185368D01*
X173121755Y-77185368D01*
X173292022Y-77125789D01*
X173444762Y-77029816D01*
X173572316Y-76902262D01*
X173668289Y-76749522D01*
X173727868Y-76579255D01*
X173727869Y-76579249D01*
X173748065Y-76400003D01*
X173748065Y-76399996D01*
X173727869Y-76220750D01*
X173727868Y-76220745D01*
X173702946Y-76149522D01*
X173668289Y-76050478D01*
X173572316Y-75897738D01*
X173444762Y-75770184D01*
X173444760Y-75770182D01*
X173305031Y-75682384D01*
X173258741Y-75630050D01*
X173248093Y-75560996D01*
X173270192Y-75509151D01*
X173268611Y-75508158D01*
X173305454Y-75449523D01*
X173368289Y-75349522D01*
X173427868Y-75179255D01*
X173432694Y-75136427D01*
X173448065Y-75000003D01*
X173448065Y-74999996D01*
X173427869Y-74820750D01*
X173427868Y-74820745D01*
X173368289Y-74650478D01*
X173272316Y-74497738D01*
X173144762Y-74370184D01*
X173056352Y-74314632D01*
X172992023Y-74274211D01*
X172821754Y-74214631D01*
X172821749Y-74214630D01*
X172642504Y-74194435D01*
X172642496Y-74194435D01*
X172463250Y-74214630D01*
X172463245Y-74214631D01*
X172292976Y-74274211D01*
X172140237Y-74370184D01*
X172012684Y-74497737D01*
X171916711Y-74650476D01*
X171857131Y-74820745D01*
X171857130Y-74820750D01*
X171836935Y-74999996D01*
X171836935Y-75000003D01*
X171857130Y-75179246D01*
X171857132Y-75179257D01*
X171876510Y-75234634D01*
X171880072Y-75304413D01*
X171847151Y-75363269D01*
X171812686Y-75397733D01*
X171812686Y-75397734D01*
X171716710Y-75550478D01*
X171657130Y-75720750D01*
X171654591Y-75743289D01*
X171627524Y-75807703D01*
X171572327Y-75846445D01*
X171492976Y-75874211D01*
X171492975Y-75874212D01*
X171340237Y-75970184D01*
X171212684Y-76097737D01*
X171116711Y-76250476D01*
X171057131Y-76420745D01*
X171057130Y-76420750D01*
X171036935Y-76599996D01*
X171036935Y-76600003D01*
X163041868Y-76600003D01*
X163171749Y-76585369D01*
X163171752Y-76585368D01*
X163171755Y-76585368D01*
X163342022Y-76525789D01*
X163494762Y-76429816D01*
X163622316Y-76302262D01*
X163718289Y-76149522D01*
X163777868Y-75979255D01*
X163778890Y-75970184D01*
X163798065Y-75800003D01*
X163798065Y-75799996D01*
X163777869Y-75620750D01*
X163777868Y-75620745D01*
X163718289Y-75450478D01*
X163717688Y-75449522D01*
X163622315Y-75297737D01*
X163494762Y-75170184D01*
X163342023Y-75074211D01*
X163171754Y-75014631D01*
X163171749Y-75014630D01*
X162992504Y-74994435D01*
X162992496Y-74994435D01*
X162813250Y-75014630D01*
X162813242Y-75014632D01*
X162695634Y-75055785D01*
X162625855Y-75059346D01*
X162565228Y-75024617D01*
X162533001Y-74962624D01*
X162531462Y-74952644D01*
X162527868Y-74920745D01*
X162468289Y-74750478D01*
X162372316Y-74597738D01*
X162244762Y-74470184D01*
X162092023Y-74374211D01*
X161921754Y-74314631D01*
X161921749Y-74314630D01*
X161742504Y-74294435D01*
X161742496Y-74294435D01*
X161563250Y-74314630D01*
X161563245Y-74314631D01*
X161392976Y-74374211D01*
X161240237Y-74470184D01*
X161112684Y-74597737D01*
X161016711Y-74750476D01*
X160957131Y-74920745D01*
X160957130Y-74920750D01*
X160936935Y-75099996D01*
X160936935Y-75100003D01*
X116000500Y-75100003D01*
X116000500Y-74200003D01*
X156494435Y-74200003D01*
X156514630Y-74379249D01*
X156514631Y-74379254D01*
X156574211Y-74549523D01*
X156637646Y-74650478D01*
X156670184Y-74702262D01*
X156797738Y-74829816D01*
X156888080Y-74886582D01*
X156942450Y-74920745D01*
X156950478Y-74925789D01*
X157120745Y-74985368D01*
X157120750Y-74985369D01*
X157299996Y-75005565D01*
X157300000Y-75005565D01*
X157300004Y-75005565D01*
X157479249Y-74985369D01*
X157479252Y-74985368D01*
X157479255Y-74985368D01*
X157649522Y-74925789D01*
X157802262Y-74829816D01*
X157929816Y-74702262D01*
X158025789Y-74549522D01*
X158085368Y-74379255D01*
X158085369Y-74379249D01*
X158105565Y-74200003D01*
X158105565Y-74199996D01*
X158085369Y-74020750D01*
X158085368Y-74020745D01*
X158025788Y-73850476D01*
X157986582Y-73788080D01*
X157929816Y-73697738D01*
X157802262Y-73570184D01*
X157769379Y-73549522D01*
X157649523Y-73474211D01*
X157479254Y-73414631D01*
X157479249Y-73414630D01*
X157300004Y-73394435D01*
X157299996Y-73394435D01*
X157120750Y-73414630D01*
X157120745Y-73414631D01*
X156950476Y-73474211D01*
X156797737Y-73570184D01*
X156670184Y-73697737D01*
X156574211Y-73850476D01*
X156514631Y-74020745D01*
X156514630Y-74020750D01*
X156494435Y-74199996D01*
X156494435Y-74200003D01*
X116000500Y-74200003D01*
X116000500Y-70800003D01*
X154094435Y-70800003D01*
X154114630Y-70979249D01*
X154114631Y-70979254D01*
X154174211Y-71149523D01*
X154237642Y-71250472D01*
X154270184Y-71302262D01*
X154397738Y-71429816D01*
X154550478Y-71525789D01*
X154720745Y-71585368D01*
X154720750Y-71585369D01*
X154899996Y-71605565D01*
X154900000Y-71605565D01*
X154900004Y-71605565D01*
X155079249Y-71585369D01*
X155079252Y-71585368D01*
X155079255Y-71585368D01*
X155249522Y-71525789D01*
X155402262Y-71429816D01*
X155529816Y-71302262D01*
X155625789Y-71149522D01*
X155632958Y-71129035D01*
X155673680Y-71072258D01*
X155738633Y-71046511D01*
X155807194Y-71059967D01*
X155857597Y-71108354D01*
X155867042Y-71129035D01*
X155874210Y-71149521D01*
X155937642Y-71250472D01*
X155970184Y-71302262D01*
X156097738Y-71429816D01*
X156250478Y-71525789D01*
X156420745Y-71585368D01*
X156420750Y-71585369D01*
X156599996Y-71605565D01*
X156600000Y-71605565D01*
X156600004Y-71605565D01*
X156779249Y-71585369D01*
X156779252Y-71585368D01*
X156779255Y-71585368D01*
X156949522Y-71525789D01*
X157102262Y-71429816D01*
X157229816Y-71302262D01*
X157325789Y-71149522D01*
X157385368Y-70979255D01*
X157385369Y-70979249D01*
X157405565Y-70800003D01*
X157405565Y-70799996D01*
X157385369Y-70620750D01*
X157385368Y-70620745D01*
X157343119Y-70500003D01*
X160836935Y-70500003D01*
X160857130Y-70679249D01*
X160857131Y-70679254D01*
X160916711Y-70849523D01*
X161012684Y-71002262D01*
X161041014Y-71030592D01*
X161074499Y-71091915D01*
X161069515Y-71161607D01*
X161058327Y-71184244D01*
X161016713Y-71250472D01*
X161016709Y-71250481D01*
X160957133Y-71420737D01*
X160957130Y-71420750D01*
X160936935Y-71599996D01*
X160936935Y-71600003D01*
X160957130Y-71779249D01*
X160957131Y-71779254D01*
X161016711Y-71949523D01*
X161112682Y-72102259D01*
X161112684Y-72102262D01*
X161240238Y-72229816D01*
X161392978Y-72325789D01*
X161552917Y-72381754D01*
X161569818Y-72387668D01*
X161568873Y-72390367D01*
X161618632Y-72418192D01*
X161651498Y-72479848D01*
X161645813Y-72549486D01*
X161617755Y-72592667D01*
X161512683Y-72697739D01*
X161416711Y-72850476D01*
X161357131Y-73020745D01*
X161357130Y-73020750D01*
X161336935Y-73199996D01*
X161336935Y-73200003D01*
X161357130Y-73379249D01*
X161357131Y-73379254D01*
X161416711Y-73549523D01*
X161509841Y-73697737D01*
X161512684Y-73702262D01*
X161640238Y-73829816D01*
X161792978Y-73925789D01*
X161963245Y-73985368D01*
X161963250Y-73985369D01*
X162142496Y-74005565D01*
X162142500Y-74005565D01*
X162142504Y-74005565D01*
X162321749Y-73985369D01*
X162321752Y-73985368D01*
X162321755Y-73985368D01*
X162492022Y-73925789D01*
X162644762Y-73829816D01*
X162772316Y-73702262D01*
X162868289Y-73549522D01*
X162927868Y-73379255D01*
X162948065Y-73200000D01*
X162927868Y-73020745D01*
X162868289Y-72850478D01*
X162772316Y-72697738D01*
X162644762Y-72570184D01*
X162492023Y-72474211D01*
X162315182Y-72412332D01*
X162316122Y-72409644D01*
X162266314Y-72381754D01*
X162233485Y-72320077D01*
X162239213Y-72250442D01*
X162267241Y-72207336D01*
X162372316Y-72102262D01*
X162468289Y-71949522D01*
X162483487Y-71906088D01*
X162524208Y-71849311D01*
X162586646Y-71823821D01*
X162730224Y-71807644D01*
X162730227Y-71807643D01*
X162730230Y-71807643D01*
X162900497Y-71748064D01*
X163053237Y-71652091D01*
X163180791Y-71524537D01*
X163276764Y-71371797D01*
X163336343Y-71201530D01*
X163338291Y-71184244D01*
X163353416Y-71050003D01*
X170936935Y-71050003D01*
X170957130Y-71229249D01*
X170957131Y-71229254D01*
X171016711Y-71399523D01*
X171095263Y-71524537D01*
X171112684Y-71552262D01*
X171240238Y-71679816D01*
X171392978Y-71775789D01*
X171530246Y-71823821D01*
X171563245Y-71835368D01*
X171563250Y-71835369D01*
X171742496Y-71855565D01*
X171742500Y-71855565D01*
X171742504Y-71855565D01*
X171921749Y-71835369D01*
X171921751Y-71835368D01*
X171921755Y-71835368D01*
X171921758Y-71835366D01*
X171921762Y-71835366D01*
X172076545Y-71781205D01*
X172146324Y-71777643D01*
X172158455Y-71781205D01*
X172313237Y-71835366D01*
X172313243Y-71835367D01*
X172313245Y-71835368D01*
X172313246Y-71835368D01*
X172313250Y-71835369D01*
X172492496Y-71855565D01*
X172492500Y-71855565D01*
X172492504Y-71855565D01*
X172671749Y-71835369D01*
X172671752Y-71835368D01*
X172671755Y-71835368D01*
X172842022Y-71775789D01*
X172994762Y-71679816D01*
X173122316Y-71552262D01*
X173218289Y-71399522D01*
X173277868Y-71229255D01*
X173280993Y-71201524D01*
X173298065Y-71050003D01*
X173298065Y-71049996D01*
X173277869Y-70870748D01*
X173258489Y-70815364D01*
X173254927Y-70745585D01*
X173287846Y-70686731D01*
X173372316Y-70602262D01*
X173468289Y-70449522D01*
X173527868Y-70279255D01*
X173527869Y-70279249D01*
X173548065Y-70100003D01*
X173548065Y-70099996D01*
X173527869Y-69920750D01*
X173527868Y-69920745D01*
X173510176Y-69870184D01*
X173468289Y-69750478D01*
X173445765Y-69714632D01*
X173386772Y-69620745D01*
X173372316Y-69597738D01*
X173244762Y-69470184D01*
X173213397Y-69450476D01*
X173092023Y-69374211D01*
X172921754Y-69314631D01*
X172921749Y-69314630D01*
X172742504Y-69294435D01*
X172742496Y-69294435D01*
X172624344Y-69307747D01*
X172555522Y-69295692D01*
X172505467Y-69250498D01*
X172472317Y-69197740D01*
X172472315Y-69197737D01*
X172344762Y-69070184D01*
X172192023Y-68974211D01*
X172021754Y-68914631D01*
X172021749Y-68914630D01*
X171842504Y-68894435D01*
X171842496Y-68894435D01*
X171663250Y-68914630D01*
X171663245Y-68914631D01*
X171492976Y-68974211D01*
X171340237Y-69070184D01*
X171212684Y-69197737D01*
X171116711Y-69350476D01*
X171057131Y-69520745D01*
X171057130Y-69520750D01*
X171036935Y-69699996D01*
X171036935Y-69700003D01*
X171057130Y-69879249D01*
X171057131Y-69879254D01*
X171116711Y-70049523D01*
X171212684Y-70202262D01*
X171248031Y-70237609D01*
X171281516Y-70298932D01*
X171276532Y-70368624D01*
X171243751Y-70413849D01*
X171245162Y-70415260D01*
X171112684Y-70547737D01*
X171016711Y-70700476D01*
X170957131Y-70870745D01*
X170957130Y-70870750D01*
X170936935Y-71049996D01*
X170936935Y-71050003D01*
X163353416Y-71050003D01*
X163356540Y-71022278D01*
X163356540Y-71022271D01*
X163336344Y-70843025D01*
X163336343Y-70843020D01*
X163286465Y-70700478D01*
X163276764Y-70672753D01*
X163180791Y-70520013D01*
X163155359Y-70494581D01*
X163121874Y-70433258D01*
X163126858Y-70363566D01*
X163155359Y-70319219D01*
X163172316Y-70302262D01*
X163268289Y-70149522D01*
X163327868Y-69979255D01*
X163334460Y-69920750D01*
X163348065Y-69800003D01*
X163348065Y-69799996D01*
X163327869Y-69620750D01*
X163327868Y-69620745D01*
X163324594Y-69611389D01*
X163268289Y-69450478D01*
X163172316Y-69297738D01*
X163044762Y-69170184D01*
X162892023Y-69074211D01*
X162721754Y-69014631D01*
X162721749Y-69014630D01*
X162542504Y-68994435D01*
X162542496Y-68994435D01*
X162363250Y-69014630D01*
X162363245Y-69014631D01*
X162192976Y-69074211D01*
X162040237Y-69170184D01*
X161912684Y-69297737D01*
X161816710Y-69450478D01*
X161769554Y-69585242D01*
X161765183Y-69597738D01*
X161760406Y-69611389D01*
X161719684Y-69668165D01*
X161654732Y-69693913D01*
X161643364Y-69694435D01*
X161642496Y-69694435D01*
X161463250Y-69714630D01*
X161463245Y-69714631D01*
X161292976Y-69774211D01*
X161140237Y-69870184D01*
X161012684Y-69997737D01*
X160916711Y-70150476D01*
X160857131Y-70320745D01*
X160857130Y-70320750D01*
X160836935Y-70499996D01*
X160836935Y-70500003D01*
X157343119Y-70500003D01*
X157325789Y-70450478D01*
X157325188Y-70449522D01*
X157274357Y-70368624D01*
X157229816Y-70297738D01*
X157102262Y-70170184D01*
X156990570Y-70100003D01*
X156949523Y-70074211D01*
X156779254Y-70014631D01*
X156779249Y-70014630D01*
X156600004Y-69994435D01*
X156599996Y-69994435D01*
X156420750Y-70014630D01*
X156420745Y-70014631D01*
X156250476Y-70074211D01*
X156097737Y-70170184D01*
X155970184Y-70297737D01*
X155874209Y-70450479D01*
X155867041Y-70470966D01*
X155826319Y-70527741D01*
X155761366Y-70553488D01*
X155692804Y-70540031D01*
X155642402Y-70491643D01*
X155632959Y-70470966D01*
X155625790Y-70450479D01*
X155574357Y-70368624D01*
X155529816Y-70297738D01*
X155402262Y-70170184D01*
X155290570Y-70100003D01*
X155249523Y-70074211D01*
X155079254Y-70014631D01*
X155079249Y-70014630D01*
X154900004Y-69994435D01*
X154899996Y-69994435D01*
X154720750Y-70014630D01*
X154720745Y-70014631D01*
X154550476Y-70074211D01*
X154397737Y-70170184D01*
X154270184Y-70297737D01*
X154174211Y-70450476D01*
X154114631Y-70620745D01*
X154114630Y-70620750D01*
X154094435Y-70799996D01*
X154094435Y-70800003D01*
X116000500Y-70800003D01*
X116000500Y-66237503D01*
X133706935Y-66237503D01*
X133727130Y-66416749D01*
X133727131Y-66416754D01*
X133786711Y-66587023D01*
X133882684Y-66739762D01*
X134010238Y-66867316D01*
X134100580Y-66924082D01*
X134162070Y-66962719D01*
X134162978Y-66963289D01*
X134333245Y-67022868D01*
X134364295Y-67026366D01*
X134428707Y-67053430D01*
X134468263Y-67111024D01*
X134473632Y-67135701D01*
X134477130Y-67166749D01*
X134536710Y-67337021D01*
X134536711Y-67337022D01*
X134632684Y-67489762D01*
X134760238Y-67617316D01*
X134912978Y-67713289D01*
X135083245Y-67772868D01*
X135100206Y-67774779D01*
X135164619Y-67801842D01*
X135204176Y-67859436D01*
X135209545Y-67884115D01*
X135214630Y-67929249D01*
X135274210Y-68099521D01*
X135370184Y-68252262D01*
X135497738Y-68379816D01*
X135650478Y-68475789D01*
X135820745Y-68535368D01*
X135820750Y-68535369D01*
X135999996Y-68555565D01*
X136000000Y-68555565D01*
X136000004Y-68555565D01*
X136179249Y-68535369D01*
X136179252Y-68535368D01*
X136179255Y-68535368D01*
X136349522Y-68475789D01*
X136502262Y-68379816D01*
X136629816Y-68252262D01*
X136725789Y-68099522D01*
X136785368Y-67929255D01*
X136801526Y-67785851D01*
X136805565Y-67750003D01*
X136805565Y-67749996D01*
X136785369Y-67570750D01*
X136785368Y-67570745D01*
X136725788Y-67400476D01*
X136629815Y-67247737D01*
X136502262Y-67120184D01*
X136349521Y-67024210D01*
X136270437Y-66996538D01*
X136179255Y-66964632D01*
X136179251Y-66964631D01*
X136179250Y-66964631D01*
X136162286Y-66962719D01*
X136097873Y-66935650D01*
X136058320Y-66878054D01*
X136052954Y-66853382D01*
X136047869Y-66808249D01*
X136047868Y-66808245D01*
X135988288Y-66637976D01*
X135892315Y-66485237D01*
X135764762Y-66357684D01*
X135612021Y-66261710D01*
X135441749Y-66202130D01*
X135410701Y-66198632D01*
X135346287Y-66171565D01*
X135306733Y-66113969D01*
X135301367Y-66089302D01*
X135297868Y-66058245D01*
X135238289Y-65887978D01*
X135142316Y-65735238D01*
X135014762Y-65607684D01*
X134862023Y-65511711D01*
X134691754Y-65452131D01*
X134691749Y-65452130D01*
X134512504Y-65431935D01*
X134512496Y-65431935D01*
X134333250Y-65452130D01*
X134333245Y-65452131D01*
X134162976Y-65511711D01*
X134010237Y-65607684D01*
X133882684Y-65735237D01*
X133786711Y-65887976D01*
X133727131Y-66058245D01*
X133727130Y-66058250D01*
X133706935Y-66237496D01*
X133706935Y-66237503D01*
X116000500Y-66237503D01*
X116000500Y-62200003D01*
X159119435Y-62200003D01*
X159139630Y-62379249D01*
X159139631Y-62379254D01*
X159199211Y-62549523D01*
X159295184Y-62702262D01*
X159422738Y-62829816D01*
X159575478Y-62925789D01*
X159745745Y-62985368D01*
X159745750Y-62985369D01*
X159924996Y-63005565D01*
X159925000Y-63005565D01*
X159925004Y-63005565D01*
X160104249Y-62985369D01*
X160104252Y-62985368D01*
X160104255Y-62985368D01*
X160274522Y-62925789D01*
X160427262Y-62829816D01*
X160554816Y-62702262D01*
X160650789Y-62549522D01*
X160710368Y-62379255D01*
X160730565Y-62200000D01*
X160710368Y-62020745D01*
X160650789Y-61850478D01*
X160554816Y-61697738D01*
X160427262Y-61570184D01*
X160403996Y-61555565D01*
X160274523Y-61474211D01*
X160104254Y-61414631D01*
X160104249Y-61414630D01*
X159925004Y-61394435D01*
X159924996Y-61394435D01*
X159745750Y-61414630D01*
X159745745Y-61414631D01*
X159575476Y-61474211D01*
X159422737Y-61570184D01*
X159295184Y-61697737D01*
X159199211Y-61850476D01*
X159139631Y-62020745D01*
X159139630Y-62020750D01*
X159119435Y-62199996D01*
X159119435Y-62200003D01*
X116000500Y-62200003D01*
X116000500Y-60750003D01*
X146444435Y-60750003D01*
X146464630Y-60929249D01*
X146464631Y-60929254D01*
X146524211Y-61099523D01*
X146620184Y-61252262D01*
X146747738Y-61379816D01*
X146838080Y-61436582D01*
X146897966Y-61474211D01*
X146900478Y-61475789D01*
X147070745Y-61535368D01*
X147070750Y-61535369D01*
X147249996Y-61555565D01*
X147250000Y-61555565D01*
X147250004Y-61555565D01*
X147429249Y-61535369D01*
X147429252Y-61535368D01*
X147429255Y-61535368D01*
X147599522Y-61475789D01*
X147752262Y-61379816D01*
X147879816Y-61252262D01*
X147975789Y-61099522D01*
X148035368Y-60929255D01*
X148055565Y-60750000D01*
X148035368Y-60570745D01*
X147975789Y-60400478D01*
X147879816Y-60247738D01*
X147752262Y-60120184D01*
X147599523Y-60024211D01*
X147429254Y-59964631D01*
X147429249Y-59964630D01*
X147250004Y-59944435D01*
X147249996Y-59944435D01*
X147070750Y-59964630D01*
X147070745Y-59964631D01*
X146900476Y-60024211D01*
X146747737Y-60120184D01*
X146620184Y-60247737D01*
X146524211Y-60400476D01*
X146464631Y-60570745D01*
X146464630Y-60570750D01*
X146444435Y-60749996D01*
X146444435Y-60750003D01*
X116000500Y-60750003D01*
X116000500Y-57300003D01*
X144994435Y-57300003D01*
X145014630Y-57479249D01*
X145014631Y-57479254D01*
X145074211Y-57649523D01*
X145170184Y-57802262D01*
X145297738Y-57929816D01*
X145450478Y-58025789D01*
X145620745Y-58085368D01*
X145620750Y-58085369D01*
X145799996Y-58105565D01*
X145800000Y-58105565D01*
X145800004Y-58105565D01*
X145979249Y-58085369D01*
X145979252Y-58085368D01*
X145979255Y-58085368D01*
X146149522Y-58025789D01*
X146302262Y-57929816D01*
X146429816Y-57802262D01*
X146525789Y-57649522D01*
X146585368Y-57479255D01*
X146605565Y-57300000D01*
X146585368Y-57120745D01*
X146525789Y-56950478D01*
X146429816Y-56797738D01*
X146302262Y-56670184D01*
X146149523Y-56574211D01*
X145979254Y-56514631D01*
X145979249Y-56514630D01*
X145800004Y-56494435D01*
X145799996Y-56494435D01*
X145620750Y-56514630D01*
X145620745Y-56514631D01*
X145450476Y-56574211D01*
X145297737Y-56670184D01*
X145170184Y-56797737D01*
X145074211Y-56950476D01*
X145014631Y-57120745D01*
X145014630Y-57120750D01*
X144994435Y-57299996D01*
X144994435Y-57300003D01*
X116000500Y-57300003D01*
X116000500Y-55300003D01*
X139494435Y-55300003D01*
X139514630Y-55479249D01*
X139514631Y-55479254D01*
X139574211Y-55649523D01*
X139670184Y-55802262D01*
X139797738Y-55929816D01*
X139950478Y-56025789D01*
X140120745Y-56085368D01*
X140120750Y-56085369D01*
X140299996Y-56105565D01*
X140300000Y-56105565D01*
X140300004Y-56105565D01*
X140479249Y-56085369D01*
X140479252Y-56085368D01*
X140479255Y-56085368D01*
X140649522Y-56025789D01*
X140802262Y-55929816D01*
X140929816Y-55802262D01*
X141025789Y-55649522D01*
X141085368Y-55479255D01*
X141105565Y-55300000D01*
X141085368Y-55120745D01*
X141025789Y-54950478D01*
X140929816Y-54797738D01*
X140802262Y-54670184D01*
X140649523Y-54574211D01*
X140479254Y-54514631D01*
X140479249Y-54514630D01*
X140300004Y-54494435D01*
X140299996Y-54494435D01*
X140120750Y-54514630D01*
X140120745Y-54514631D01*
X139950476Y-54574211D01*
X139797737Y-54670184D01*
X139670184Y-54797737D01*
X139574211Y-54950476D01*
X139514631Y-55120745D01*
X139514630Y-55120750D01*
X139494435Y-55299996D01*
X139494435Y-55300003D01*
X116000500Y-55300003D01*
X116000500Y-53047870D01*
X117499500Y-53047870D01*
X117499501Y-53047876D01*
X117505908Y-53107483D01*
X117556202Y-53242328D01*
X117556206Y-53242335D01*
X117642452Y-53357544D01*
X117642455Y-53357547D01*
X117757664Y-53443793D01*
X117757671Y-53443797D01*
X117892517Y-53494091D01*
X117892516Y-53494091D01*
X117899444Y-53494835D01*
X117952127Y-53500500D01*
X120047872Y-53500499D01*
X120107483Y-53494091D01*
X120242331Y-53443796D01*
X120357546Y-53357546D01*
X120443796Y-53242331D01*
X120494091Y-53107483D01*
X120500500Y-53047873D01*
X120500500Y-53047870D01*
X175099500Y-53047870D01*
X175099501Y-53047876D01*
X175105908Y-53107483D01*
X175156202Y-53242328D01*
X175156206Y-53242335D01*
X175242452Y-53357544D01*
X175242455Y-53357547D01*
X175357664Y-53443793D01*
X175357671Y-53443797D01*
X175492517Y-53494091D01*
X175492516Y-53494091D01*
X175499444Y-53494835D01*
X175552127Y-53500500D01*
X177647872Y-53500499D01*
X177707483Y-53494091D01*
X177842331Y-53443796D01*
X177957546Y-53357546D01*
X178043796Y-53242331D01*
X178094091Y-53107483D01*
X178100500Y-53047873D01*
X178100499Y-50952128D01*
X178094091Y-50892517D01*
X178078055Y-50849523D01*
X178043797Y-50757671D01*
X178043793Y-50757664D01*
X177957547Y-50642455D01*
X177957544Y-50642452D01*
X177842335Y-50556206D01*
X177842328Y-50556202D01*
X177707482Y-50505908D01*
X177707483Y-50505908D01*
X177647883Y-50499501D01*
X177647881Y-50499500D01*
X177647873Y-50499500D01*
X177647864Y-50499500D01*
X175552129Y-50499500D01*
X175552123Y-50499501D01*
X175492516Y-50505908D01*
X175357671Y-50556202D01*
X175357664Y-50556206D01*
X175242455Y-50642452D01*
X175242452Y-50642455D01*
X175156206Y-50757664D01*
X175156202Y-50757671D01*
X175105908Y-50892517D01*
X175099501Y-50952116D01*
X175099501Y-50952123D01*
X175099500Y-50952135D01*
X175099500Y-53047870D01*
X120500500Y-53047870D01*
X120500499Y-50952128D01*
X120494091Y-50892517D01*
X120478055Y-50849523D01*
X120443797Y-50757671D01*
X120443793Y-50757664D01*
X120357547Y-50642455D01*
X120357544Y-50642452D01*
X120242335Y-50556206D01*
X120242328Y-50556202D01*
X120107482Y-50505908D01*
X120107483Y-50505908D01*
X120052553Y-50500003D01*
X139994435Y-50500003D01*
X140014630Y-50679249D01*
X140014631Y-50679254D01*
X140074211Y-50849523D01*
X140170184Y-51002262D01*
X140297738Y-51129816D01*
X140359114Y-51168381D01*
X140407493Y-51198780D01*
X140453784Y-51251115D01*
X140464432Y-51320169D01*
X140446516Y-51369744D01*
X140432269Y-51392417D01*
X140372689Y-51562687D01*
X140372688Y-51562692D01*
X140352493Y-51741938D01*
X140352493Y-51741945D01*
X140372688Y-51921191D01*
X140372689Y-51921196D01*
X140432269Y-52091465D01*
X140528242Y-52244204D01*
X140655796Y-52371758D01*
X140808536Y-52467731D01*
X140978803Y-52527310D01*
X140978808Y-52527311D01*
X141158054Y-52547507D01*
X141158058Y-52547507D01*
X141158062Y-52547507D01*
X141337307Y-52527311D01*
X141337310Y-52527310D01*
X141337313Y-52527310D01*
X141507580Y-52467731D01*
X141660320Y-52371758D01*
X141787874Y-52244204D01*
X141883847Y-52091464D01*
X141943426Y-51921197D01*
X141963623Y-51741942D01*
X141943426Y-51562687D01*
X141883847Y-51392420D01*
X141787874Y-51239680D01*
X141660320Y-51112126D01*
X141550563Y-51043161D01*
X141504272Y-50990826D01*
X141493624Y-50921772D01*
X141511542Y-50872195D01*
X141525789Y-50849522D01*
X141585368Y-50679255D01*
X141585369Y-50679249D01*
X141605565Y-50500003D01*
X141605565Y-50499996D01*
X141585369Y-50320750D01*
X141585368Y-50320745D01*
X141525788Y-50150476D01*
X141429815Y-49997737D01*
X141302262Y-49870184D01*
X141149523Y-49774211D01*
X140979254Y-49714631D01*
X140979249Y-49714630D01*
X140800004Y-49694435D01*
X140799996Y-49694435D01*
X140620750Y-49714630D01*
X140620745Y-49714631D01*
X140450476Y-49774211D01*
X140297737Y-49870184D01*
X140170184Y-49997737D01*
X140074211Y-50150476D01*
X140014631Y-50320745D01*
X140014630Y-50320750D01*
X139994435Y-50499996D01*
X139994435Y-50500003D01*
X120052553Y-50500003D01*
X120047883Y-50499501D01*
X120047881Y-50499500D01*
X120047873Y-50499500D01*
X120047864Y-50499500D01*
X117952129Y-50499500D01*
X117952123Y-50499501D01*
X117892516Y-50505908D01*
X117757671Y-50556202D01*
X117757664Y-50556206D01*
X117642455Y-50642452D01*
X117642452Y-50642455D01*
X117556206Y-50757664D01*
X117556202Y-50757671D01*
X117505908Y-50892517D01*
X117499501Y-50952116D01*
X117499501Y-50952123D01*
X117499500Y-50952135D01*
X117499500Y-53047870D01*
X116000500Y-53047870D01*
X116000500Y-46895001D01*
X137009500Y-46895001D01*
X137009501Y-46895018D01*
X137020000Y-46997796D01*
X137020001Y-46997799D01*
X137057405Y-47110676D01*
X137075186Y-47164334D01*
X137167288Y-47313656D01*
X137291344Y-47437712D01*
X137440666Y-47529814D01*
X137607203Y-47584999D01*
X137709991Y-47595500D01*
X139050008Y-47595499D01*
X139152797Y-47584999D01*
X139319334Y-47529814D01*
X139468656Y-47437712D01*
X139592712Y-47313656D01*
X139684814Y-47164334D01*
X139684817Y-47164322D01*
X139685866Y-47162075D01*
X139687004Y-47160781D01*
X139688605Y-47158187D01*
X139689047Y-47158460D01*
X139732032Y-47109629D01*
X139799223Y-47090469D01*
X139866107Y-47110676D01*
X139887777Y-47128664D01*
X140011272Y-47257516D01*
X140011273Y-47257517D01*
X140198834Y-47396237D01*
X140198836Y-47396238D01*
X140198839Y-47396240D01*
X140407153Y-47501270D01*
X140630220Y-47569583D01*
X140861624Y-47599216D01*
X141094707Y-47589314D01*
X141322765Y-47540164D01*
X141539235Y-47453179D01*
X141737891Y-47330862D01*
X141913018Y-47176731D01*
X142059578Y-46995220D01*
X142082103Y-46954899D01*
X142131982Y-46905972D01*
X142200395Y-46891779D01*
X142265621Y-46916826D01*
X142293092Y-46945935D01*
X142389847Y-47089088D01*
X142456073Y-47158187D01*
X142551272Y-47257516D01*
X142551273Y-47257517D01*
X142738834Y-47396237D01*
X142738836Y-47396238D01*
X142738839Y-47396240D01*
X142947153Y-47501270D01*
X143170220Y-47569583D01*
X143401624Y-47599216D01*
X143634707Y-47589314D01*
X143862765Y-47540164D01*
X144079235Y-47453179D01*
X144277891Y-47330862D01*
X144453018Y-47176731D01*
X144599578Y-46995220D01*
X144622103Y-46954899D01*
X144671982Y-46905972D01*
X144740395Y-46891779D01*
X144805621Y-46916826D01*
X144833092Y-46945935D01*
X144929847Y-47089088D01*
X144996073Y-47158187D01*
X145091272Y-47257516D01*
X145091273Y-47257517D01*
X145278834Y-47396237D01*
X145278836Y-47396238D01*
X145278839Y-47396240D01*
X145487153Y-47501270D01*
X145710220Y-47569583D01*
X145941624Y-47599216D01*
X146174707Y-47589314D01*
X146402765Y-47540164D01*
X146619235Y-47453179D01*
X146817891Y-47330862D01*
X146993018Y-47176731D01*
X147139578Y-46995220D01*
X147253354Y-46791552D01*
X147331073Y-46571584D01*
X147370500Y-46341647D01*
X147370500Y-45716784D01*
X147370499Y-45716765D01*
X147355671Y-45542553D01*
X147355670Y-45542551D01*
X147355670Y-45542547D01*
X147296885Y-45316781D01*
X147200792Y-45104198D01*
X147070153Y-44910912D01*
X146908728Y-44742484D01*
X146908727Y-44742483D01*
X146908726Y-44742482D01*
X146721165Y-44603762D01*
X146638906Y-44562288D01*
X146512847Y-44498730D01*
X146289780Y-44430417D01*
X146289778Y-44430416D01*
X146289776Y-44430416D01*
X146058370Y-44400783D01*
X145825299Y-44410685D01*
X145825290Y-44410686D01*
X145597233Y-44459836D01*
X145597230Y-44459837D01*
X145380768Y-44546819D01*
X145182110Y-44669137D01*
X145006980Y-44823270D01*
X145006977Y-44823273D01*
X144860426Y-45004773D01*
X144860421Y-45004779D01*
X144837895Y-45045103D01*
X144788014Y-45094029D01*
X144719601Y-45108220D01*
X144654375Y-45083171D01*
X144626907Y-45054064D01*
X144530153Y-44910912D01*
X144368728Y-44742484D01*
X144368727Y-44742483D01*
X144368726Y-44742482D01*
X144181165Y-44603762D01*
X144098906Y-44562288D01*
X143972847Y-44498730D01*
X143749780Y-44430417D01*
X143749778Y-44430416D01*
X143749776Y-44430416D01*
X143518370Y-44400783D01*
X143285299Y-44410685D01*
X143285290Y-44410686D01*
X143057233Y-44459836D01*
X143057230Y-44459837D01*
X142840768Y-44546819D01*
X142642110Y-44669137D01*
X142466980Y-44823270D01*
X142466977Y-44823273D01*
X142320426Y-45004773D01*
X142320421Y-45004779D01*
X142297895Y-45045103D01*
X142248014Y-45094029D01*
X142179601Y-45108220D01*
X142114375Y-45083171D01*
X142086907Y-45054064D01*
X141990153Y-44910912D01*
X141828728Y-44742484D01*
X141828727Y-44742483D01*
X141828726Y-44742482D01*
X141641165Y-44603762D01*
X141558906Y-44562288D01*
X141432847Y-44498730D01*
X141209780Y-44430417D01*
X141209778Y-44430416D01*
X141209776Y-44430416D01*
X140978370Y-44400783D01*
X140745299Y-44410685D01*
X140745290Y-44410686D01*
X140517233Y-44459836D01*
X140517230Y-44459837D01*
X140300768Y-44546819D01*
X140102110Y-44669137D01*
X139926981Y-44823269D01*
X139894665Y-44863292D01*
X139837233Y-44903085D01*
X139767406Y-44905510D01*
X139707352Y-44869799D01*
X139685803Y-44837789D01*
X139684815Y-44835670D01*
X139684814Y-44835666D01*
X139592712Y-44686344D01*
X139468656Y-44562288D01*
X139365616Y-44498733D01*
X139319336Y-44470187D01*
X139319331Y-44470185D01*
X139317862Y-44469698D01*
X139152797Y-44415001D01*
X139152795Y-44415000D01*
X139050010Y-44404500D01*
X137709998Y-44404500D01*
X137709981Y-44404501D01*
X137607203Y-44415000D01*
X137607200Y-44415001D01*
X137440668Y-44470185D01*
X137440663Y-44470187D01*
X137291342Y-44562289D01*
X137167289Y-44686342D01*
X137075187Y-44835663D01*
X137075185Y-44835668D01*
X137052042Y-44905510D01*
X137020001Y-45002203D01*
X137020001Y-45002204D01*
X137020000Y-45002204D01*
X137009500Y-45104983D01*
X137009500Y-46895001D01*
X116000500Y-46895001D01*
X116000500Y-41000002D01*
X150732677Y-41000002D01*
X150751929Y-41220062D01*
X150751930Y-41220070D01*
X150809104Y-41433445D01*
X150809105Y-41433447D01*
X150809106Y-41433450D01*
X150902466Y-41633662D01*
X150902468Y-41633666D01*
X151029170Y-41814615D01*
X151029175Y-41814621D01*
X151185378Y-41970824D01*
X151185384Y-41970829D01*
X151366333Y-42097531D01*
X151366335Y-42097532D01*
X151366338Y-42097534D01*
X151566550Y-42190894D01*
X151779932Y-42248070D01*
X151937123Y-42261822D01*
X151999998Y-42267323D01*
X152000000Y-42267323D01*
X152000002Y-42267323D01*
X152055151Y-42262498D01*
X152220068Y-42248070D01*
X152433450Y-42190894D01*
X152633662Y-42097534D01*
X152814620Y-41970826D01*
X152970826Y-41814620D01*
X152974152Y-41809870D01*
X155737500Y-41809870D01*
X155737501Y-41809876D01*
X155743908Y-41869483D01*
X155794202Y-42004328D01*
X155794206Y-42004335D01*
X155880452Y-42119544D01*
X155880455Y-42119547D01*
X155995664Y-42205793D01*
X155995671Y-42205797D01*
X156130517Y-42256091D01*
X156130516Y-42256091D01*
X156137444Y-42256835D01*
X156190127Y-42262500D01*
X157809872Y-42262499D01*
X157869483Y-42256091D01*
X158004331Y-42205796D01*
X158119546Y-42119546D01*
X158205796Y-42004331D01*
X158256091Y-41869483D01*
X158262500Y-41809873D01*
X158262500Y-41000002D01*
X161362677Y-41000002D01*
X161381929Y-41220062D01*
X161381930Y-41220070D01*
X161439104Y-41433445D01*
X161439105Y-41433447D01*
X161439106Y-41433450D01*
X161532466Y-41633662D01*
X161532468Y-41633666D01*
X161659170Y-41814615D01*
X161659175Y-41814621D01*
X161815378Y-41970824D01*
X161815384Y-41970829D01*
X161996333Y-42097531D01*
X161996335Y-42097532D01*
X161996338Y-42097534D01*
X162196550Y-42190894D01*
X162409932Y-42248070D01*
X162567123Y-42261822D01*
X162629998Y-42267323D01*
X162630000Y-42267323D01*
X162630002Y-42267323D01*
X162685151Y-42262498D01*
X162850068Y-42248070D01*
X163063450Y-42190894D01*
X163263662Y-42097534D01*
X163444620Y-41970826D01*
X163600826Y-41814620D01*
X163604152Y-41809870D01*
X166367500Y-41809870D01*
X166367501Y-41809876D01*
X166373908Y-41869483D01*
X166424202Y-42004328D01*
X166424206Y-42004335D01*
X166510452Y-42119544D01*
X166510455Y-42119547D01*
X166625664Y-42205793D01*
X166625671Y-42205797D01*
X166760517Y-42256091D01*
X166760516Y-42256091D01*
X166767444Y-42256835D01*
X166820127Y-42262500D01*
X168439872Y-42262499D01*
X168499483Y-42256091D01*
X168634331Y-42205796D01*
X168749546Y-42119546D01*
X168835796Y-42004331D01*
X168886091Y-41869483D01*
X168892500Y-41809873D01*
X168892499Y-40190128D01*
X168886091Y-40130517D01*
X168835796Y-39995669D01*
X168835795Y-39995668D01*
X168835793Y-39995664D01*
X168749547Y-39880455D01*
X168749544Y-39880452D01*
X168634335Y-39794206D01*
X168634328Y-39794202D01*
X168499482Y-39743908D01*
X168499483Y-39743908D01*
X168439883Y-39737501D01*
X168439881Y-39737500D01*
X168439873Y-39737500D01*
X168439864Y-39737500D01*
X166820129Y-39737500D01*
X166820123Y-39737501D01*
X166760516Y-39743908D01*
X166625671Y-39794202D01*
X166625664Y-39794206D01*
X166510455Y-39880452D01*
X166510452Y-39880455D01*
X166424206Y-39995664D01*
X166424202Y-39995671D01*
X166373908Y-40130517D01*
X166368010Y-40185380D01*
X166367501Y-40190123D01*
X166367500Y-40190135D01*
X166367500Y-41809870D01*
X163604152Y-41809870D01*
X163727534Y-41633662D01*
X163820894Y-41433450D01*
X163878070Y-41220068D01*
X163897323Y-41000000D01*
X163878070Y-40779932D01*
X163820894Y-40566550D01*
X163727534Y-40366339D01*
X163664180Y-40275859D01*
X163600827Y-40185381D01*
X163545962Y-40130516D01*
X163444620Y-40029174D01*
X163444616Y-40029171D01*
X163444615Y-40029170D01*
X163263666Y-39902468D01*
X163263662Y-39902466D01*
X163216457Y-39880454D01*
X163063450Y-39809106D01*
X163063447Y-39809105D01*
X163063445Y-39809104D01*
X162850070Y-39751930D01*
X162850062Y-39751929D01*
X162630002Y-39732677D01*
X162629998Y-39732677D01*
X162409937Y-39751929D01*
X162409929Y-39751930D01*
X162196554Y-39809104D01*
X162196548Y-39809107D01*
X161996340Y-39902465D01*
X161996338Y-39902466D01*
X161815377Y-40029175D01*
X161659175Y-40185377D01*
X161532466Y-40366338D01*
X161532465Y-40366340D01*
X161439107Y-40566548D01*
X161439104Y-40566554D01*
X161381930Y-40779929D01*
X161381929Y-40779937D01*
X161362677Y-40999997D01*
X161362677Y-41000002D01*
X158262500Y-41000002D01*
X158262499Y-40190128D01*
X158256091Y-40130517D01*
X158205796Y-39995669D01*
X158205795Y-39995668D01*
X158205793Y-39995664D01*
X158119547Y-39880455D01*
X158119544Y-39880452D01*
X158004335Y-39794206D01*
X158004328Y-39794202D01*
X157869482Y-39743908D01*
X157869483Y-39743908D01*
X157809883Y-39737501D01*
X157809881Y-39737500D01*
X157809873Y-39737500D01*
X157809864Y-39737500D01*
X156190129Y-39737500D01*
X156190123Y-39737501D01*
X156130516Y-39743908D01*
X155995671Y-39794202D01*
X155995664Y-39794206D01*
X155880455Y-39880452D01*
X155880452Y-39880455D01*
X155794206Y-39995664D01*
X155794202Y-39995671D01*
X155743908Y-40130517D01*
X155738010Y-40185380D01*
X155737501Y-40190123D01*
X155737500Y-40190135D01*
X155737500Y-41809870D01*
X152974152Y-41809870D01*
X153097534Y-41633662D01*
X153190894Y-41433450D01*
X153248070Y-41220068D01*
X153267323Y-41000000D01*
X153248070Y-40779932D01*
X153190894Y-40566550D01*
X153097534Y-40366339D01*
X153034180Y-40275859D01*
X152970827Y-40185381D01*
X152915962Y-40130516D01*
X152814620Y-40029174D01*
X152814616Y-40029171D01*
X152814615Y-40029170D01*
X152633666Y-39902468D01*
X152633662Y-39902466D01*
X152586457Y-39880454D01*
X152433450Y-39809106D01*
X152433447Y-39809105D01*
X152433445Y-39809104D01*
X152220070Y-39751930D01*
X152220062Y-39751929D01*
X152000002Y-39732677D01*
X151999998Y-39732677D01*
X151779937Y-39751929D01*
X151779929Y-39751930D01*
X151566554Y-39809104D01*
X151566548Y-39809107D01*
X151366340Y-39902465D01*
X151366338Y-39902466D01*
X151185377Y-40029175D01*
X151029175Y-40185377D01*
X150902466Y-40366338D01*
X150902465Y-40366340D01*
X150809107Y-40566548D01*
X150809104Y-40566554D01*
X150751930Y-40779929D01*
X150751929Y-40779937D01*
X150732677Y-40999997D01*
X150732677Y-41000002D01*
X116000500Y-41000002D01*
X116000500Y-36895001D01*
X137009500Y-36895001D01*
X137009501Y-36895018D01*
X137020000Y-36997796D01*
X137020001Y-36997799D01*
X137057405Y-37110676D01*
X137075186Y-37164334D01*
X137167288Y-37313656D01*
X137291344Y-37437712D01*
X137440666Y-37529814D01*
X137607203Y-37584999D01*
X137709991Y-37595500D01*
X139050008Y-37595499D01*
X139152797Y-37584999D01*
X139319334Y-37529814D01*
X139468656Y-37437712D01*
X139592712Y-37313656D01*
X139684814Y-37164334D01*
X139684817Y-37164322D01*
X139685866Y-37162075D01*
X139687004Y-37160781D01*
X139688605Y-37158187D01*
X139689047Y-37158460D01*
X139732032Y-37109629D01*
X139799223Y-37090469D01*
X139866107Y-37110676D01*
X139887777Y-37128664D01*
X140011272Y-37257516D01*
X140011273Y-37257517D01*
X140198834Y-37396237D01*
X140198836Y-37396238D01*
X140198839Y-37396240D01*
X140407153Y-37501270D01*
X140630220Y-37569583D01*
X140861624Y-37599216D01*
X141094707Y-37589314D01*
X141322765Y-37540164D01*
X141539235Y-37453179D01*
X141737891Y-37330862D01*
X141913018Y-37176731D01*
X142059578Y-36995220D01*
X142073204Y-36970829D01*
X142082103Y-36954899D01*
X142131982Y-36905972D01*
X142200395Y-36891779D01*
X142265621Y-36916826D01*
X142293092Y-36945935D01*
X142326400Y-36995215D01*
X142389847Y-37089088D01*
X142456073Y-37158187D01*
X142551272Y-37257516D01*
X142551273Y-37257517D01*
X142738834Y-37396237D01*
X142738836Y-37396238D01*
X142738839Y-37396240D01*
X142947153Y-37501270D01*
X143170220Y-37569583D01*
X143401624Y-37599216D01*
X143634707Y-37589314D01*
X143862765Y-37540164D01*
X144079235Y-37453179D01*
X144277891Y-37330862D01*
X144453018Y-37176731D01*
X144599578Y-36995220D01*
X144613204Y-36970829D01*
X144622103Y-36954899D01*
X144671982Y-36905972D01*
X144740395Y-36891779D01*
X144805621Y-36916826D01*
X144833092Y-36945935D01*
X144866400Y-36995215D01*
X144929847Y-37089088D01*
X144996073Y-37158187D01*
X145091272Y-37257516D01*
X145091273Y-37257517D01*
X145278834Y-37396237D01*
X145278836Y-37396238D01*
X145278839Y-37396240D01*
X145487153Y-37501270D01*
X145710220Y-37569583D01*
X145941624Y-37599216D01*
X146174707Y-37589314D01*
X146402765Y-37540164D01*
X146619235Y-37453179D01*
X146817891Y-37330862D01*
X146993018Y-37176731D01*
X147139578Y-36995220D01*
X147240467Y-36814621D01*
X147253353Y-36791554D01*
X147309138Y-36633666D01*
X147331073Y-36571584D01*
X147370500Y-36341647D01*
X147370500Y-36000002D01*
X150732677Y-36000002D01*
X150751929Y-36220062D01*
X150751930Y-36220070D01*
X150809104Y-36433445D01*
X150809105Y-36433447D01*
X150809106Y-36433450D01*
X150873519Y-36571584D01*
X150902466Y-36633662D01*
X150902468Y-36633666D01*
X151029170Y-36814615D01*
X151029175Y-36814621D01*
X151185378Y-36970824D01*
X151185384Y-36970829D01*
X151366333Y-37097531D01*
X151366335Y-37097532D01*
X151366338Y-37097534D01*
X151566550Y-37190894D01*
X151779932Y-37248070D01*
X151937123Y-37261822D01*
X151999998Y-37267323D01*
X152000000Y-37267323D01*
X152000002Y-37267323D01*
X152055017Y-37262509D01*
X152220068Y-37248070D01*
X152433450Y-37190894D01*
X152633662Y-37097534D01*
X152814620Y-36970826D01*
X152970826Y-36814620D01*
X153097534Y-36633662D01*
X153190894Y-36433450D01*
X153248070Y-36220068D01*
X153267323Y-36000002D01*
X155732677Y-36000002D01*
X155751929Y-36220062D01*
X155751930Y-36220070D01*
X155809104Y-36433445D01*
X155809105Y-36433447D01*
X155809106Y-36433450D01*
X155873519Y-36571584D01*
X155902466Y-36633662D01*
X155902468Y-36633666D01*
X156029170Y-36814615D01*
X156029175Y-36814621D01*
X156185378Y-36970824D01*
X156185384Y-36970829D01*
X156366333Y-37097531D01*
X156366335Y-37097532D01*
X156366338Y-37097534D01*
X156566550Y-37190894D01*
X156779932Y-37248070D01*
X156937123Y-37261822D01*
X156999998Y-37267323D01*
X157000000Y-37267323D01*
X157000002Y-37267323D01*
X157055017Y-37262509D01*
X157220068Y-37248070D01*
X157433450Y-37190894D01*
X157633662Y-37097534D01*
X157814620Y-36970826D01*
X157970826Y-36814620D01*
X158097534Y-36633662D01*
X158190894Y-36433450D01*
X158248070Y-36220068D01*
X158267323Y-36000002D01*
X161362677Y-36000002D01*
X161381929Y-36220062D01*
X161381930Y-36220070D01*
X161439104Y-36433445D01*
X161439105Y-36433447D01*
X161439106Y-36433450D01*
X161503519Y-36571584D01*
X161532466Y-36633662D01*
X161532468Y-36633666D01*
X161659170Y-36814615D01*
X161659175Y-36814621D01*
X161815378Y-36970824D01*
X161815384Y-36970829D01*
X161996333Y-37097531D01*
X161996335Y-37097532D01*
X161996338Y-37097534D01*
X162196550Y-37190894D01*
X162409932Y-37248070D01*
X162567123Y-37261822D01*
X162629998Y-37267323D01*
X162630000Y-37267323D01*
X162630002Y-37267323D01*
X162685017Y-37262509D01*
X162850068Y-37248070D01*
X163063450Y-37190894D01*
X163263662Y-37097534D01*
X163444620Y-36970826D01*
X163600826Y-36814620D01*
X163727534Y-36633662D01*
X163820894Y-36433450D01*
X163878070Y-36220068D01*
X163897323Y-36000002D01*
X166362677Y-36000002D01*
X166381929Y-36220062D01*
X166381930Y-36220070D01*
X166439104Y-36433445D01*
X166439105Y-36433447D01*
X166439106Y-36433450D01*
X166503519Y-36571584D01*
X166532466Y-36633662D01*
X166532468Y-36633666D01*
X166659170Y-36814615D01*
X166659175Y-36814621D01*
X166815378Y-36970824D01*
X166815384Y-36970829D01*
X166996333Y-37097531D01*
X166996335Y-37097532D01*
X166996338Y-37097534D01*
X167196550Y-37190894D01*
X167409932Y-37248070D01*
X167567123Y-37261822D01*
X167629998Y-37267323D01*
X167630000Y-37267323D01*
X167630002Y-37267323D01*
X167685017Y-37262509D01*
X167850068Y-37248070D01*
X168063450Y-37190894D01*
X168263662Y-37097534D01*
X168444620Y-36970826D01*
X168600826Y-36814620D01*
X168727534Y-36633662D01*
X168820894Y-36433450D01*
X168878070Y-36220068D01*
X168897323Y-36000000D01*
X168878070Y-35779932D01*
X168820894Y-35566550D01*
X168727534Y-35366339D01*
X168650652Y-35256539D01*
X168600827Y-35185381D01*
X168523666Y-35108220D01*
X168444620Y-35029174D01*
X168444616Y-35029171D01*
X168444615Y-35029170D01*
X168263666Y-34902468D01*
X168263662Y-34902466D01*
X168193607Y-34869799D01*
X168063450Y-34809106D01*
X168063447Y-34809105D01*
X168063445Y-34809104D01*
X167850070Y-34751930D01*
X167850062Y-34751929D01*
X167630002Y-34732677D01*
X167629998Y-34732677D01*
X167409937Y-34751929D01*
X167409929Y-34751930D01*
X167196554Y-34809104D01*
X167196548Y-34809107D01*
X166996340Y-34902465D01*
X166996338Y-34902466D01*
X166815377Y-35029175D01*
X166659175Y-35185377D01*
X166532466Y-35366338D01*
X166532465Y-35366340D01*
X166439107Y-35566548D01*
X166439104Y-35566554D01*
X166381930Y-35779929D01*
X166381929Y-35779937D01*
X166362677Y-35999997D01*
X166362677Y-36000002D01*
X163897323Y-36000002D01*
X163897323Y-36000000D01*
X163878070Y-35779932D01*
X163820894Y-35566550D01*
X163727534Y-35366339D01*
X163650652Y-35256539D01*
X163600827Y-35185381D01*
X163523666Y-35108220D01*
X163444620Y-35029174D01*
X163444616Y-35029171D01*
X163444615Y-35029170D01*
X163263666Y-34902468D01*
X163263662Y-34902466D01*
X163193607Y-34869799D01*
X163063450Y-34809106D01*
X163063447Y-34809105D01*
X163063445Y-34809104D01*
X162850070Y-34751930D01*
X162850062Y-34751929D01*
X162630002Y-34732677D01*
X162629998Y-34732677D01*
X162409937Y-34751929D01*
X162409929Y-34751930D01*
X162196554Y-34809104D01*
X162196548Y-34809107D01*
X161996340Y-34902465D01*
X161996338Y-34902466D01*
X161815377Y-35029175D01*
X161659175Y-35185377D01*
X161532466Y-35366338D01*
X161532465Y-35366340D01*
X161439107Y-35566548D01*
X161439104Y-35566554D01*
X161381930Y-35779929D01*
X161381929Y-35779937D01*
X161362677Y-35999997D01*
X161362677Y-36000002D01*
X158267323Y-36000002D01*
X158267323Y-36000000D01*
X158248070Y-35779932D01*
X158190894Y-35566550D01*
X158097534Y-35366339D01*
X158020652Y-35256539D01*
X157970827Y-35185381D01*
X157893666Y-35108220D01*
X157814620Y-35029174D01*
X157814616Y-35029171D01*
X157814615Y-35029170D01*
X157633666Y-34902468D01*
X157633662Y-34902466D01*
X157563607Y-34869799D01*
X157433450Y-34809106D01*
X157433447Y-34809105D01*
X157433445Y-34809104D01*
X157220070Y-34751930D01*
X157220062Y-34751929D01*
X157000002Y-34732677D01*
X156999998Y-34732677D01*
X156779937Y-34751929D01*
X156779929Y-34751930D01*
X156566554Y-34809104D01*
X156566548Y-34809107D01*
X156366340Y-34902465D01*
X156366338Y-34902466D01*
X156185377Y-35029175D01*
X156029175Y-35185377D01*
X155902466Y-35366338D01*
X155902465Y-35366340D01*
X155809107Y-35566548D01*
X155809104Y-35566554D01*
X155751930Y-35779929D01*
X155751929Y-35779937D01*
X155732677Y-35999997D01*
X155732677Y-36000002D01*
X153267323Y-36000002D01*
X153267323Y-36000000D01*
X153248070Y-35779932D01*
X153190894Y-35566550D01*
X153097534Y-35366339D01*
X153020652Y-35256539D01*
X152970827Y-35185381D01*
X152893666Y-35108220D01*
X152814620Y-35029174D01*
X152814616Y-35029171D01*
X152814615Y-35029170D01*
X152633666Y-34902468D01*
X152633662Y-34902466D01*
X152563607Y-34869799D01*
X152433450Y-34809106D01*
X152433447Y-34809105D01*
X152433445Y-34809104D01*
X152220070Y-34751930D01*
X152220062Y-34751929D01*
X152000002Y-34732677D01*
X151999998Y-34732677D01*
X151779937Y-34751929D01*
X151779929Y-34751930D01*
X151566554Y-34809104D01*
X151566548Y-34809107D01*
X151366340Y-34902465D01*
X151366338Y-34902466D01*
X151185377Y-35029175D01*
X151029175Y-35185377D01*
X150902466Y-35366338D01*
X150902465Y-35366340D01*
X150809107Y-35566548D01*
X150809104Y-35566554D01*
X150751930Y-35779929D01*
X150751929Y-35779937D01*
X150732677Y-35999997D01*
X150732677Y-36000002D01*
X147370500Y-36000002D01*
X147370500Y-35716784D01*
X147370499Y-35716765D01*
X147355671Y-35542553D01*
X147355670Y-35542551D01*
X147355670Y-35542547D01*
X147296885Y-35316781D01*
X147200792Y-35104198D01*
X147070153Y-34910912D01*
X146908728Y-34742484D01*
X146908727Y-34742483D01*
X146908726Y-34742482D01*
X146721165Y-34603762D01*
X146625572Y-34555565D01*
X146512847Y-34498730D01*
X146289780Y-34430417D01*
X146289778Y-34430416D01*
X146289776Y-34430416D01*
X146058370Y-34400783D01*
X145825299Y-34410685D01*
X145825290Y-34410686D01*
X145597233Y-34459836D01*
X145597230Y-34459837D01*
X145380768Y-34546819D01*
X145182110Y-34669137D01*
X145006980Y-34823270D01*
X145006977Y-34823273D01*
X144860426Y-35004773D01*
X144860421Y-35004779D01*
X144837895Y-35045103D01*
X144788014Y-35094029D01*
X144719601Y-35108220D01*
X144654375Y-35083171D01*
X144626907Y-35054064D01*
X144530153Y-34910912D01*
X144368728Y-34742484D01*
X144368727Y-34742483D01*
X144368726Y-34742482D01*
X144181165Y-34603762D01*
X144085572Y-34555565D01*
X143972847Y-34498730D01*
X143749780Y-34430417D01*
X143749778Y-34430416D01*
X143749776Y-34430416D01*
X143518370Y-34400783D01*
X143285299Y-34410685D01*
X143285290Y-34410686D01*
X143057233Y-34459836D01*
X143057230Y-34459837D01*
X142840768Y-34546819D01*
X142642110Y-34669137D01*
X142466980Y-34823270D01*
X142466977Y-34823273D01*
X142320426Y-35004773D01*
X142320421Y-35004779D01*
X142297895Y-35045103D01*
X142248014Y-35094029D01*
X142179601Y-35108220D01*
X142114375Y-35083171D01*
X142086907Y-35054064D01*
X141990153Y-34910912D01*
X141828728Y-34742484D01*
X141828727Y-34742483D01*
X141828726Y-34742482D01*
X141641165Y-34603762D01*
X141545572Y-34555565D01*
X141432847Y-34498730D01*
X141209780Y-34430417D01*
X141209778Y-34430416D01*
X141209776Y-34430416D01*
X140978370Y-34400783D01*
X140745299Y-34410685D01*
X140745290Y-34410686D01*
X140517233Y-34459836D01*
X140517230Y-34459837D01*
X140300768Y-34546819D01*
X140102110Y-34669137D01*
X139926981Y-34823269D01*
X139894665Y-34863292D01*
X139837233Y-34903085D01*
X139767406Y-34905510D01*
X139707352Y-34869799D01*
X139685803Y-34837789D01*
X139684815Y-34835670D01*
X139684814Y-34835666D01*
X139592712Y-34686344D01*
X139468656Y-34562288D01*
X139365616Y-34498733D01*
X139319336Y-34470187D01*
X139319331Y-34470185D01*
X139316660Y-34469300D01*
X139152797Y-34415001D01*
X139152795Y-34415000D01*
X139050010Y-34404500D01*
X137709998Y-34404500D01*
X137709981Y-34404501D01*
X137607203Y-34415000D01*
X137607200Y-34415001D01*
X137440668Y-34470185D01*
X137440663Y-34470187D01*
X137291342Y-34562289D01*
X137167289Y-34686342D01*
X137075187Y-34835663D01*
X137075185Y-34835668D01*
X137052042Y-34905510D01*
X137020001Y-35002203D01*
X137020001Y-35002204D01*
X137020000Y-35002204D01*
X137009500Y-35104983D01*
X137009500Y-36895001D01*
X116000500Y-36895001D01*
X116000500Y-34067763D01*
X117145787Y-34067763D01*
X117175413Y-34337013D01*
X117175415Y-34337024D01*
X117234307Y-34562288D01*
X117243928Y-34599088D01*
X117349870Y-34848390D01*
X117482404Y-35065555D01*
X117490979Y-35079605D01*
X117490986Y-35079615D01*
X117664253Y-35287819D01*
X117664259Y-35287824D01*
X117751889Y-35366340D01*
X117865998Y-35468582D01*
X118091910Y-35618044D01*
X118337176Y-35733020D01*
X118337183Y-35733022D01*
X118337185Y-35733023D01*
X118596557Y-35811057D01*
X118596564Y-35811058D01*
X118596569Y-35811060D01*
X118864561Y-35850500D01*
X118864566Y-35850500D01*
X119067629Y-35850500D01*
X119067631Y-35850500D01*
X119067636Y-35850499D01*
X119067648Y-35850499D01*
X119105191Y-35847750D01*
X119270156Y-35835677D01*
X119382758Y-35810593D01*
X119534546Y-35776782D01*
X119534548Y-35776781D01*
X119534553Y-35776780D01*
X119787558Y-35680014D01*
X120023777Y-35547441D01*
X120238177Y-35381888D01*
X120426186Y-35186881D01*
X120583799Y-34966579D01*
X120664762Y-34809104D01*
X120707649Y-34725690D01*
X120707651Y-34725684D01*
X120707656Y-34725675D01*
X120794817Y-34470187D01*
X120795115Y-34469314D01*
X120795115Y-34469313D01*
X120795118Y-34469305D01*
X120844319Y-34202933D01*
X120854212Y-33932235D01*
X120834161Y-33750003D01*
X130694435Y-33750003D01*
X130714630Y-33929249D01*
X130714631Y-33929254D01*
X130774211Y-34099523D01*
X130870184Y-34252262D01*
X130997738Y-34379816D01*
X131053733Y-34415000D01*
X131140158Y-34469305D01*
X131150478Y-34475789D01*
X131320745Y-34535368D01*
X131320750Y-34535369D01*
X131499996Y-34555565D01*
X131500000Y-34555565D01*
X131500004Y-34555565D01*
X131679249Y-34535369D01*
X131679252Y-34535368D01*
X131679255Y-34535368D01*
X131849522Y-34475789D01*
X132002262Y-34379816D01*
X132129816Y-34252262D01*
X132225789Y-34099522D01*
X132285368Y-33929255D01*
X132285369Y-33929249D01*
X132305565Y-33750003D01*
X135694435Y-33750003D01*
X135714630Y-33929249D01*
X135714631Y-33929254D01*
X135774211Y-34099523D01*
X135870184Y-34252262D01*
X135997738Y-34379816D01*
X136053733Y-34415000D01*
X136140158Y-34469305D01*
X136150478Y-34475789D01*
X136320745Y-34535368D01*
X136320750Y-34535369D01*
X136499996Y-34555565D01*
X136500000Y-34555565D01*
X136500004Y-34555565D01*
X136679249Y-34535369D01*
X136679252Y-34535368D01*
X136679255Y-34535368D01*
X136849522Y-34475789D01*
X137002262Y-34379816D01*
X137129816Y-34252262D01*
X137225789Y-34099522D01*
X137236902Y-34067763D01*
X174145787Y-34067763D01*
X174175413Y-34337013D01*
X174175415Y-34337024D01*
X174234307Y-34562288D01*
X174243928Y-34599088D01*
X174349870Y-34848390D01*
X174482404Y-35065555D01*
X174490979Y-35079605D01*
X174490986Y-35079615D01*
X174664253Y-35287819D01*
X174664259Y-35287824D01*
X174751889Y-35366340D01*
X174865998Y-35468582D01*
X175091910Y-35618044D01*
X175337176Y-35733020D01*
X175337183Y-35733022D01*
X175337185Y-35733023D01*
X175596557Y-35811057D01*
X175596564Y-35811058D01*
X175596569Y-35811060D01*
X175864561Y-35850500D01*
X175864566Y-35850500D01*
X176067629Y-35850500D01*
X176067631Y-35850500D01*
X176067636Y-35850499D01*
X176067648Y-35850499D01*
X176105191Y-35847750D01*
X176270156Y-35835677D01*
X176382758Y-35810593D01*
X176534546Y-35776782D01*
X176534548Y-35776781D01*
X176534553Y-35776780D01*
X176787558Y-35680014D01*
X177023777Y-35547441D01*
X177238177Y-35381888D01*
X177426186Y-35186881D01*
X177583799Y-34966579D01*
X177664762Y-34809104D01*
X177707649Y-34725690D01*
X177707651Y-34725684D01*
X177707656Y-34725675D01*
X177794817Y-34470187D01*
X177795115Y-34469314D01*
X177795115Y-34469313D01*
X177795118Y-34469305D01*
X177844319Y-34202933D01*
X177854212Y-33932235D01*
X177824586Y-33662982D01*
X177756072Y-33400912D01*
X177650130Y-33151610D01*
X177509018Y-32920390D01*
X177419747Y-32813119D01*
X177335746Y-32712180D01*
X177335740Y-32712175D01*
X177134002Y-32531418D01*
X176908092Y-32381957D01*
X176908090Y-32381956D01*
X176662824Y-32266980D01*
X176662819Y-32266978D01*
X176662814Y-32266976D01*
X176403442Y-32188942D01*
X176403428Y-32188939D01*
X176287791Y-32171921D01*
X176135439Y-32149500D01*
X175932369Y-32149500D01*
X175932351Y-32149500D01*
X175729844Y-32164323D01*
X175729831Y-32164325D01*
X175465453Y-32223217D01*
X175465446Y-32223220D01*
X175212439Y-32319987D01*
X174976226Y-32452557D01*
X174761822Y-32618112D01*
X174573822Y-32813109D01*
X174573816Y-32813116D01*
X174416202Y-33033419D01*
X174416199Y-33033424D01*
X174292350Y-33274309D01*
X174292343Y-33274327D01*
X174204884Y-33530685D01*
X174204881Y-33530699D01*
X174180449Y-33662975D01*
X174156400Y-33793178D01*
X174155681Y-33797068D01*
X174155680Y-33797075D01*
X174145787Y-34067763D01*
X137236902Y-34067763D01*
X137285368Y-33929255D01*
X137285369Y-33929249D01*
X137305565Y-33750003D01*
X137305565Y-33749996D01*
X137285369Y-33570750D01*
X137285368Y-33570745D01*
X137271350Y-33530685D01*
X137225789Y-33400478D01*
X137214677Y-33382794D01*
X137146523Y-33274327D01*
X137129816Y-33247738D01*
X137002262Y-33120184D01*
X136917673Y-33067033D01*
X136849523Y-33024211D01*
X136679254Y-32964631D01*
X136679249Y-32964630D01*
X136500004Y-32944435D01*
X136499996Y-32944435D01*
X136320750Y-32964630D01*
X136320745Y-32964631D01*
X136150476Y-33024211D01*
X135997737Y-33120184D01*
X135870184Y-33247737D01*
X135774211Y-33400476D01*
X135714631Y-33570745D01*
X135714630Y-33570750D01*
X135694435Y-33749996D01*
X135694435Y-33750003D01*
X132305565Y-33750003D01*
X132305565Y-33749996D01*
X132285369Y-33570750D01*
X132285368Y-33570745D01*
X132271350Y-33530685D01*
X132225789Y-33400478D01*
X132214677Y-33382794D01*
X132146523Y-33274327D01*
X132129816Y-33247738D01*
X132002262Y-33120184D01*
X131917673Y-33067033D01*
X131849523Y-33024211D01*
X131679254Y-32964631D01*
X131679249Y-32964630D01*
X131500004Y-32944435D01*
X131499996Y-32944435D01*
X131320750Y-32964630D01*
X131320745Y-32964631D01*
X131150476Y-33024211D01*
X130997737Y-33120184D01*
X130870184Y-33247737D01*
X130774211Y-33400476D01*
X130714631Y-33570745D01*
X130714630Y-33570750D01*
X130694435Y-33749996D01*
X130694435Y-33750003D01*
X120834161Y-33750003D01*
X120824586Y-33662982D01*
X120756072Y-33400912D01*
X120650130Y-33151610D01*
X120509018Y-32920390D01*
X120419747Y-32813119D01*
X120335746Y-32712180D01*
X120335740Y-32712175D01*
X120134002Y-32531418D01*
X119908092Y-32381957D01*
X119908090Y-32381956D01*
X119662824Y-32266980D01*
X119662819Y-32266978D01*
X119662814Y-32266976D01*
X119403442Y-32188942D01*
X119403428Y-32188939D01*
X119287791Y-32171921D01*
X119135439Y-32149500D01*
X118932369Y-32149500D01*
X118932351Y-32149500D01*
X118729844Y-32164323D01*
X118729831Y-32164325D01*
X118465453Y-32223217D01*
X118465446Y-32223220D01*
X118212439Y-32319987D01*
X117976226Y-32452557D01*
X117761822Y-32618112D01*
X117573822Y-32813109D01*
X117573816Y-32813116D01*
X117416202Y-33033419D01*
X117416199Y-33033424D01*
X117292350Y-33274309D01*
X117292343Y-33274327D01*
X117204884Y-33530685D01*
X117204881Y-33530699D01*
X117180449Y-33662975D01*
X117156400Y-33793178D01*
X117155681Y-33797068D01*
X117155680Y-33797075D01*
X117145787Y-34067763D01*
X116000500Y-34067763D01*
X116000500Y-34003246D01*
X116000670Y-33996756D01*
X116003159Y-33949258D01*
X116016592Y-33692951D01*
X116017949Y-33680046D01*
X116021065Y-33660366D01*
X116065029Y-33382786D01*
X116067723Y-33370107D01*
X116145627Y-33079368D01*
X116149636Y-33067033D01*
X116257493Y-32786054D01*
X116262763Y-32774215D01*
X116399415Y-32506023D01*
X116405891Y-32494808D01*
X116569819Y-32242380D01*
X116577434Y-32231899D01*
X116766858Y-31997979D01*
X116775525Y-31988354D01*
X116988354Y-31775525D01*
X116997979Y-31766858D01*
X117231899Y-31577434D01*
X117242380Y-31569819D01*
X117494808Y-31405891D01*
X117506023Y-31399415D01*
X117774215Y-31262763D01*
X117786054Y-31257493D01*
X118067040Y-31149633D01*
X118079368Y-31145627D01*
X118370107Y-31067723D01*
X118382786Y-31065029D01*
X118680046Y-31017949D01*
X118692951Y-31016592D01*
X118996756Y-31000669D01*
X119003246Y-31000500D01*
X119092710Y-31000500D01*
X175907290Y-31000500D01*
X175996754Y-31000500D01*
X176003244Y-31000670D01*
G37*
%TD.AperFunction*%
%TD*%
M02*
