%TF.GenerationSoftware,KiCad,Pcbnew,7.0.10*%
%TF.CreationDate,2025-08-17T20:38:30-04:00*%
%TF.ProjectId,StepperControllerPCB,53746570-7065-4724-936f-6e74726f6c6c,rev?*%
%TF.SameCoordinates,Original*%
%TF.FileFunction,Soldermask,Top*%
%TF.FilePolarity,Negative*%
%FSLAX46Y46*%
G04 Gerber Fmt 4.6, Leading zero omitted, Abs format (unit mm)*
G04 Created by KiCad (PCBNEW 7.0.10) date 2025-08-17 20:38:30*
%MOMM*%
%LPD*%
G01*
G04 APERTURE LIST*
G04 Aperture macros list*
%AMRoundRect*
0 Rectangle with rounded corners*
0 $1 Rounding radius*
0 $2 $3 $4 $5 $6 $7 $8 $9 X,Y pos of 4 corners*
0 Add a 4 corners polygon primitive as box body*
4,1,4,$2,$3,$4,$5,$6,$7,$8,$9,$2,$3,0*
0 Add four circle primitives for the rounded corners*
1,1,$1+$1,$2,$3*
1,1,$1+$1,$4,$5*
1,1,$1+$1,$6,$7*
1,1,$1+$1,$8,$9*
0 Add four rect primitives between the rounded corners*
20,1,$1+$1,$2,$3,$4,$5,0*
20,1,$1+$1,$4,$5,$6,$7,0*
20,1,$1+$1,$6,$7,$8,$9,0*
20,1,$1+$1,$8,$9,$2,$3,0*%
G04 Aperture macros list end*
%ADD10R,2.100000X1.400000*%
%ADD11RoundRect,0.200000X-0.200000X-0.275000X0.200000X-0.275000X0.200000X0.275000X-0.200000X0.275000X0*%
%ADD12RoundRect,0.250000X-0.325000X-0.650000X0.325000X-0.650000X0.325000X0.650000X-0.325000X0.650000X0*%
%ADD13C,2.000000*%
%ADD14RoundRect,0.200000X0.200000X0.275000X-0.200000X0.275000X-0.200000X-0.275000X0.200000X-0.275000X0*%
%ADD15RoundRect,0.225000X0.250000X-0.225000X0.250000X0.225000X-0.250000X0.225000X-0.250000X-0.225000X0*%
%ADD16RoundRect,0.250000X1.000000X-1.500000X1.000000X1.500000X-1.000000X1.500000X-1.000000X-1.500000X0*%
%ADD17RoundRect,0.225000X-0.225000X-0.250000X0.225000X-0.250000X0.225000X0.250000X-0.225000X0.250000X0*%
%ADD18R,1.100000X0.510000*%
%ADD19RoundRect,0.225000X-0.250000X0.225000X-0.250000X-0.225000X0.250000X-0.225000X0.250000X0.225000X0*%
%ADD20RoundRect,0.200000X0.275000X-0.200000X0.275000X0.200000X-0.275000X0.200000X-0.275000X-0.200000X0*%
%ADD21RoundRect,0.225000X0.225000X0.250000X-0.225000X0.250000X-0.225000X-0.250000X0.225000X-0.250000X0*%
%ADD22RoundRect,0.250000X0.325000X0.650000X-0.325000X0.650000X-0.325000X-0.650000X0.325000X-0.650000X0*%
%ADD23R,2.000000X3.500000*%
%ADD24RoundRect,0.150000X0.150000X-0.825000X0.150000X0.825000X-0.150000X0.825000X-0.150000X-0.825000X0*%
%ADD25R,0.300000X1.300000*%
%ADD26R,1.800000X2.200000*%
%ADD27C,3.200000*%
%ADD28C,0.650000*%
%ADD29RoundRect,0.150000X-0.150000X-0.425000X0.150000X-0.425000X0.150000X0.425000X-0.150000X0.425000X0*%
%ADD30RoundRect,0.075000X-0.075000X-0.500000X0.075000X-0.500000X0.075000X0.500000X-0.075000X0.500000X0*%
%ADD31O,1.000000X2.100000*%
%ADD32O,1.000000X1.800000*%
%ADD33RoundRect,0.200000X-0.275000X0.200000X-0.275000X-0.200000X0.275000X-0.200000X0.275000X0.200000X0*%
%ADD34RoundRect,0.250000X-1.500000X-1.000000X1.500000X-1.000000X1.500000X1.000000X-1.500000X1.000000X0*%
%ADD35RoundRect,0.250000X-0.650000X1.000000X-0.650000X-1.000000X0.650000X-1.000000X0.650000X1.000000X0*%
%ADD36R,2.500000X2.500000*%
%ADD37C,2.500000*%
%ADD38R,1.700000X1.700000*%
%ADD39O,1.700000X1.700000*%
%ADD40RoundRect,0.075000X0.075000X-0.662500X0.075000X0.662500X-0.075000X0.662500X-0.075000X-0.662500X0*%
%ADD41RoundRect,0.075000X0.662500X-0.075000X0.662500X0.075000X-0.662500X0.075000X-0.662500X-0.075000X0*%
%ADD42R,1.475000X0.450000*%
%ADD43R,2.400000X6.460000*%
%ADD44R,1.524000X1.524000*%
%ADD45C,1.524000*%
%ADD46C,1.650000*%
%ADD47C,4.500000*%
%ADD48RoundRect,0.250000X-0.620000X-0.845000X0.620000X-0.845000X0.620000X0.845000X-0.620000X0.845000X0*%
%ADD49O,1.740000X2.190000*%
%ADD50O,16.000000X2.500000*%
%ADD51O,3.500000X2.000000*%
%ADD52R,2.000000X2.000000*%
G04 APERTURE END LIST*
D10*
%TO.C,SW1*%
X119050000Y-125950000D03*
X128150000Y-125950000D03*
X119050000Y-130450000D03*
X128150000Y-130450000D03*
%TD*%
D11*
%TO.C,R49*%
X165600000Y-119500000D03*
X167250000Y-119500000D03*
%TD*%
D12*
%TO.C,C17*%
X123775000Y-85500000D03*
X126725000Y-85500000D03*
%TD*%
D13*
%TO.C,TP7*%
X158700000Y-55400000D03*
%TD*%
D14*
%TO.C,R36*%
X149000000Y-133000000D03*
X147350000Y-133000000D03*
%TD*%
D15*
%TO.C,C3*%
X125500000Y-119750000D03*
X125500000Y-118200000D03*
%TD*%
D16*
%TO.C,C29*%
X169800000Y-89650000D03*
X169800000Y-83150000D03*
%TD*%
D17*
%TO.C,C4*%
X130625000Y-126000000D03*
X132175000Y-126000000D03*
%TD*%
D15*
%TO.C,C9*%
X144600000Y-56500000D03*
X144600000Y-54950000D03*
%TD*%
D18*
%TO.C,U2*%
X162450000Y-133000000D03*
X162450000Y-134000000D03*
X162450000Y-135000000D03*
X162450000Y-136000000D03*
X162450000Y-137000000D03*
X167550000Y-137000000D03*
X167550000Y-136000000D03*
X167550000Y-135000000D03*
X167550000Y-134000000D03*
X167550000Y-133000000D03*
%TD*%
D14*
%TO.C,R56*%
X170500000Y-119500000D03*
X168850000Y-119500000D03*
%TD*%
D17*
%TO.C,C38*%
X158967500Y-73300000D03*
X160517500Y-73300000D03*
%TD*%
D11*
%TO.C,R13*%
X137075000Y-56900000D03*
X138725000Y-56900000D03*
%TD*%
D19*
%TO.C,C18*%
X134500000Y-81475000D03*
X134500000Y-83025000D03*
%TD*%
D11*
%TO.C,R32*%
X138000000Y-131200000D03*
X139650000Y-131200000D03*
%TD*%
D20*
%TO.C,R2*%
X121600000Y-113025000D03*
X121600000Y-111375000D03*
%TD*%
D14*
%TO.C,R46*%
X158725000Y-66000000D03*
X157075000Y-66000000D03*
%TD*%
D21*
%TO.C,C22*%
X140950000Y-95400000D03*
X139400000Y-95400000D03*
%TD*%
D22*
%TO.C,C15*%
X135225000Y-64000000D03*
X132275000Y-64000000D03*
%TD*%
D11*
%TO.C,R26*%
X139350000Y-97000000D03*
X141000000Y-97000000D03*
%TD*%
%TO.C,R7*%
X137075000Y-50500000D03*
X138725000Y-50500000D03*
%TD*%
D17*
%TO.C,C34*%
X158967500Y-71800000D03*
X160517500Y-71800000D03*
%TD*%
D15*
%TO.C,C8*%
X149600000Y-57300000D03*
X149600000Y-55750000D03*
%TD*%
D17*
%TO.C,C24*%
X164850000Y-102200000D03*
X166400000Y-102200000D03*
%TD*%
D11*
%TO.C,R39*%
X147350000Y-136200000D03*
X149000000Y-136200000D03*
%TD*%
D14*
%TO.C,R27*%
X141000000Y-93800000D03*
X139350000Y-93800000D03*
%TD*%
D11*
%TO.C,R37*%
X147350000Y-131200000D03*
X149000000Y-131200000D03*
%TD*%
D12*
%TO.C,C6*%
X143325000Y-52900000D03*
X146275000Y-52900000D03*
%TD*%
D14*
%TO.C,R8*%
X125225000Y-103800000D03*
X123575000Y-103800000D03*
%TD*%
%TO.C,R10*%
X125225000Y-101200000D03*
X123575000Y-101200000D03*
%TD*%
D15*
%TO.C,C12*%
X160750000Y-133000000D03*
X160750000Y-131450000D03*
%TD*%
D23*
%TO.C,L1*%
X129000000Y-69000000D03*
X120000000Y-69000000D03*
%TD*%
D24*
%TO.C,U3*%
X128595000Y-81975000D03*
X129865000Y-81975000D03*
X131135000Y-81975000D03*
X132405000Y-81975000D03*
X132405000Y-77025000D03*
X131135000Y-77025000D03*
X129865000Y-77025000D03*
X128595000Y-77025000D03*
%TD*%
D14*
%TO.C,R42*%
X160567500Y-74800000D03*
X158917500Y-74800000D03*
%TD*%
D11*
%TO.C,R9*%
X137075000Y-52100000D03*
X138725000Y-52100000D03*
%TD*%
D21*
%TO.C,C31*%
X170517500Y-67300000D03*
X168967500Y-67300000D03*
%TD*%
D15*
%TO.C,C7*%
X148000000Y-57275000D03*
X148000000Y-55725000D03*
%TD*%
D11*
%TO.C,R11*%
X137075000Y-53700000D03*
X138725000Y-53700000D03*
%TD*%
D20*
%TO.C,R28*%
X172900000Y-100325000D03*
X172900000Y-98675000D03*
%TD*%
D11*
%TO.C,R12*%
X137075000Y-55300000D03*
X138725000Y-55300000D03*
%TD*%
D20*
%TO.C,R18*%
X169100000Y-139025000D03*
X169100000Y-137375000D03*
%TD*%
D25*
%TO.C,J2*%
X142950000Y-59400000D03*
X143450000Y-59400000D03*
X143950000Y-59400000D03*
X144450000Y-59400000D03*
X144950000Y-59400000D03*
X145450000Y-59400000D03*
X145950000Y-59400000D03*
X146450000Y-59400000D03*
X146950000Y-59400000D03*
X147450000Y-59400000D03*
X147950000Y-59400000D03*
X148450000Y-59400000D03*
X148950000Y-59400000D03*
X149450000Y-59400000D03*
X149950000Y-59400000D03*
X150450000Y-59400000D03*
X150950000Y-59400000D03*
X151450000Y-59400000D03*
X151950000Y-59400000D03*
X152450000Y-59400000D03*
D26*
X141050000Y-62650000D03*
X154350000Y-62650000D03*
%TD*%
D27*
%TO.C,H3*%
X119000000Y-146000000D03*
%TD*%
D28*
%TO.C,J3*%
X162110000Y-143395000D03*
X167890000Y-143395000D03*
D29*
X161800000Y-142320000D03*
X162600000Y-142320000D03*
D30*
X163750000Y-142320000D03*
X164750000Y-142320000D03*
X165250000Y-142320000D03*
X166250000Y-142320000D03*
D29*
X167400000Y-142320000D03*
X168200000Y-142320000D03*
X168200000Y-142320000D03*
X167400000Y-142320000D03*
D30*
X166750000Y-142320000D03*
X165750000Y-142320000D03*
X164250000Y-142320000D03*
X163250000Y-142320000D03*
D29*
X162600000Y-142320000D03*
X161800000Y-142320000D03*
D31*
X160680000Y-142895000D03*
D32*
X160680000Y-147075000D03*
D31*
X169320000Y-142895000D03*
D32*
X169320000Y-147075000D03*
%TD*%
D15*
%TO.C,C2*%
X132900000Y-123550000D03*
X132900000Y-122000000D03*
%TD*%
D33*
%TO.C,R22*%
X136250000Y-78175000D03*
X136250000Y-79825000D03*
%TD*%
D21*
%TO.C,C32*%
X170417500Y-79300000D03*
X168867500Y-79300000D03*
%TD*%
D11*
%TO.C,R52*%
X168850000Y-124750000D03*
X170500000Y-124750000D03*
%TD*%
D33*
%TO.C,R23*%
X138000000Y-70925000D03*
X138000000Y-72575000D03*
%TD*%
D15*
%TO.C,C11*%
X151400000Y-57275000D03*
X151400000Y-55725000D03*
%TD*%
D27*
%TO.C,H1*%
X119000000Y-34000000D03*
%TD*%
D11*
%TO.C,R44*%
X158917500Y-77800000D03*
X160567500Y-77800000D03*
%TD*%
D12*
%TO.C,C1*%
X122425000Y-121700000D03*
X125375000Y-121700000D03*
%TD*%
D34*
%TO.C,C30*%
X163592500Y-59800000D03*
X170092500Y-59800000D03*
%TD*%
D11*
%TO.C,R40*%
X158917500Y-68800000D03*
X160567500Y-68800000D03*
%TD*%
D21*
%TO.C,C33*%
X160517500Y-76300000D03*
X158967500Y-76300000D03*
%TD*%
D14*
%TO.C,R51*%
X170500000Y-126500000D03*
X168850000Y-126500000D03*
%TD*%
%TO.C,R14*%
X125225000Y-93400000D03*
X123575000Y-93400000D03*
%TD*%
D22*
%TO.C,C14*%
X135225000Y-61250000D03*
X132275000Y-61250000D03*
%TD*%
D19*
%TO.C,C21*%
X159900000Y-98700000D03*
X159900000Y-100250000D03*
%TD*%
D14*
%TO.C,R33*%
X139650000Y-128000000D03*
X138000000Y-128000000D03*
%TD*%
D11*
%TO.C,R31*%
X164800000Y-103800000D03*
X166450000Y-103800000D03*
%TD*%
D15*
%TO.C,C19*%
X134500000Y-79775000D03*
X134500000Y-78225000D03*
%TD*%
D21*
%TO.C,C25*%
X139600000Y-129600000D03*
X138050000Y-129600000D03*
%TD*%
D11*
%TO.C,R50*%
X165600000Y-116000000D03*
X167250000Y-116000000D03*
%TD*%
D35*
%TO.C,D2*%
X133250000Y-69250000D03*
X133250000Y-73250000D03*
%TD*%
D11*
%TO.C,R15*%
X123575000Y-96100000D03*
X125225000Y-96100000D03*
%TD*%
D27*
%TO.C,H4*%
X176000000Y-146000000D03*
%TD*%
D36*
%TO.C,E1*%
X136085000Y-145000000D03*
D37*
X131005000Y-145000000D03*
X125925000Y-145000000D03*
%TD*%
D11*
%TO.C,R1*%
X129000000Y-121500000D03*
X130650000Y-121500000D03*
%TD*%
D21*
%TO.C,C5*%
X130575000Y-123200000D03*
X129025000Y-123200000D03*
%TD*%
D11*
%TO.C,R54*%
X168850000Y-117750000D03*
X170500000Y-117750000D03*
%TD*%
%TO.C,R48*%
X165600000Y-123000000D03*
X167250000Y-123000000D03*
%TD*%
D20*
%TO.C,R17*%
X160750000Y-136400000D03*
X160750000Y-134750000D03*
%TD*%
%TO.C,R20*%
X136000000Y-72575000D03*
X136000000Y-70925000D03*
%TD*%
D11*
%TO.C,R47*%
X165600000Y-126500000D03*
X167250000Y-126500000D03*
%TD*%
D33*
%TO.C,R29*%
X171300000Y-98675000D03*
X171300000Y-100325000D03*
%TD*%
D14*
%TO.C,R53*%
X170500000Y-121250000D03*
X168850000Y-121250000D03*
%TD*%
D10*
%TO.C,SW2*%
X119050000Y-133150000D03*
X128150000Y-133150000D03*
X119050000Y-137650000D03*
X128150000Y-137650000D03*
%TD*%
D17*
%TO.C,C26*%
X147400000Y-129600000D03*
X148950000Y-129600000D03*
%TD*%
D33*
%TO.C,R25*%
X161500000Y-98650000D03*
X161500000Y-100300000D03*
%TD*%
D14*
%TO.C,R30*%
X166450000Y-105400000D03*
X164800000Y-105400000D03*
%TD*%
D38*
%TO.C,J1*%
X120900000Y-93550000D03*
D39*
X120900000Y-96090000D03*
X120900000Y-98630000D03*
X120900000Y-101170000D03*
X120900000Y-103710000D03*
X120900000Y-106250000D03*
%TD*%
D11*
%TO.C,R35*%
X138000000Y-136200000D03*
X139650000Y-136200000D03*
%TD*%
D14*
%TO.C,R41*%
X160567500Y-70300000D03*
X158917500Y-70300000D03*
%TD*%
D12*
%TO.C,C10*%
X143325000Y-50300000D03*
X146275000Y-50300000D03*
%TD*%
D20*
%TO.C,R5*%
X176600000Y-48225000D03*
X176600000Y-46575000D03*
%TD*%
D33*
%TO.C,R4*%
X138800000Y-58975000D03*
X138800000Y-60625000D03*
%TD*%
D11*
%TO.C,R21*%
X133175000Y-33750000D03*
X134825000Y-33750000D03*
%TD*%
D14*
%TO.C,R38*%
X139650000Y-133000000D03*
X138000000Y-133000000D03*
%TD*%
D20*
%TO.C,R24*%
X163100000Y-100300000D03*
X163100000Y-98650000D03*
%TD*%
D33*
%TO.C,R16*%
X156600000Y-58975000D03*
X156600000Y-60625000D03*
%TD*%
D11*
%TO.C,R55*%
X168850000Y-123000000D03*
X170500000Y-123000000D03*
%TD*%
%TO.C,R57*%
X168850000Y-116000000D03*
X170500000Y-116000000D03*
%TD*%
%TO.C,R45*%
X157075000Y-64300000D03*
X158725000Y-64300000D03*
%TD*%
D19*
%TO.C,C35*%
X174242500Y-70525000D03*
X174242500Y-72075000D03*
%TD*%
%TO.C,C37*%
X174250000Y-75225000D03*
X174250000Y-76775000D03*
%TD*%
D14*
%TO.C,R3*%
X133525000Y-90800000D03*
X131875000Y-90800000D03*
%TD*%
D12*
%TO.C,C16*%
X123775000Y-83000000D03*
X126725000Y-83000000D03*
%TD*%
D40*
%TO.C,U1*%
X129250000Y-119662500D03*
X129750000Y-119662500D03*
X130250000Y-119662500D03*
X130750000Y-119662500D03*
X131250000Y-119662500D03*
X131750000Y-119662500D03*
X132250000Y-119662500D03*
X132750000Y-119662500D03*
X133250000Y-119662500D03*
X133750000Y-119662500D03*
X134250000Y-119662500D03*
X134750000Y-119662500D03*
D41*
X136162500Y-118250000D03*
X136162500Y-117750000D03*
X136162500Y-117250000D03*
X136162500Y-116750000D03*
X136162500Y-116250000D03*
X136162500Y-115750000D03*
X136162500Y-115250000D03*
X136162500Y-114750000D03*
X136162500Y-114250000D03*
X136162500Y-113750000D03*
X136162500Y-113250000D03*
X136162500Y-112750000D03*
D40*
X134750000Y-111337500D03*
X134250000Y-111337500D03*
X133750000Y-111337500D03*
X133250000Y-111337500D03*
X132750000Y-111337500D03*
X132250000Y-111337500D03*
X131750000Y-111337500D03*
X131250000Y-111337500D03*
X130750000Y-111337500D03*
X130250000Y-111337500D03*
X129750000Y-111337500D03*
X129250000Y-111337500D03*
D41*
X127837500Y-112750000D03*
X127837500Y-113250000D03*
X127837500Y-113750000D03*
X127837500Y-114250000D03*
X127837500Y-114750000D03*
X127837500Y-115250000D03*
X127837500Y-115750000D03*
X127837500Y-116250000D03*
X127837500Y-116750000D03*
X127837500Y-117250000D03*
X127837500Y-117750000D03*
X127837500Y-118250000D03*
%TD*%
D19*
%TO.C,C13*%
X126750000Y-78725000D03*
X126750000Y-80275000D03*
%TD*%
D20*
%TO.C,R6*%
X119000000Y-48025000D03*
X119000000Y-46375000D03*
%TD*%
D17*
%TO.C,C36*%
X174217500Y-73550000D03*
X175767500Y-73550000D03*
%TD*%
D11*
%TO.C,R43*%
X164925000Y-80500000D03*
X166575000Y-80500000D03*
%TD*%
D20*
%TO.C,R19*%
X158750000Y-139575000D03*
X158750000Y-137925000D03*
%TD*%
D15*
%TO.C,C20*%
X138000000Y-79775000D03*
X138000000Y-78225000D03*
%TD*%
D13*
%TO.C,TP8*%
X167700000Y-111700000D03*
%TD*%
D14*
%TO.C,R34*%
X149000000Y-128000000D03*
X147350000Y-128000000D03*
%TD*%
D27*
%TO.C,H2*%
X176000000Y-34000000D03*
%TD*%
D21*
%TO.C,C27*%
X139600000Y-134600000D03*
X138050000Y-134600000D03*
%TD*%
D17*
%TO.C,C28*%
X147400000Y-134600000D03*
X148950000Y-134600000D03*
%TD*%
D42*
%TO.C,IC1*%
X164304500Y-69075000D03*
X164304500Y-69725000D03*
X164304500Y-70375000D03*
X164304500Y-71025000D03*
X164304500Y-71675000D03*
X164304500Y-72325000D03*
X164304500Y-72975000D03*
X164304500Y-73625000D03*
X164304500Y-74275000D03*
X164304500Y-74925000D03*
X164304500Y-75575000D03*
X164304500Y-76225000D03*
X164304500Y-76875000D03*
X164304500Y-77525000D03*
X170180500Y-77525000D03*
X170180500Y-76875000D03*
X170180500Y-76225000D03*
X170180500Y-75575000D03*
X170180500Y-74925000D03*
X170180500Y-74275000D03*
X170180500Y-73625000D03*
X170180500Y-72975000D03*
X170180500Y-72325000D03*
X170180500Y-71675000D03*
X170180500Y-71025000D03*
X170180500Y-70375000D03*
X170180500Y-69725000D03*
X170180500Y-69075000D03*
D43*
X167242500Y-73300000D03*
%TD*%
D19*
%TO.C,C23*%
X169700000Y-98725000D03*
X169700000Y-100275000D03*
%TD*%
D44*
%TO.C,J5*%
X167630000Y-41000000D03*
D45*
X167630000Y-36000000D03*
X162630000Y-41000000D03*
X162630000Y-36000000D03*
%TD*%
D46*
%TO.C,U4*%
X172550000Y-102850000D03*
X161450000Y-102850000D03*
X172550000Y-111150000D03*
X161450000Y-111150000D03*
X167000000Y-100150000D03*
D47*
X172625000Y-107000000D03*
X161375000Y-107000000D03*
%TD*%
D48*
%TO.C,P1*%
X138380000Y-36000000D03*
D49*
X140920000Y-36000000D03*
X143460000Y-36000000D03*
X146000000Y-36000000D03*
%TD*%
D50*
%TO.C,DSP1*%
X147800000Y-90300000D03*
D51*
X133550000Y-88050000D03*
X162050000Y-88050000D03*
D52*
X119000000Y-52000000D03*
X176600000Y-52000000D03*
%TD*%
D44*
%TO.C,J4*%
X157000000Y-41000000D03*
D45*
X157000000Y-36000000D03*
X152000000Y-41000000D03*
X152000000Y-36000000D03*
%TD*%
D48*
%TO.C,P2*%
X138380000Y-46000000D03*
D49*
X140920000Y-46000000D03*
X143460000Y-46000000D03*
X146000000Y-46000000D03*
%TD*%
M02*
